<svg width="412" height="389" viewBox="0 0 412 389" fill="none" xmlns="http://www.w3.org/2000/svg">
<path d="M362.076 137.821C361.728 137.603 361.92 137.064 362.327 137.115C367.123 137.716 371.824 135.45 374.342 131.325L374.411 131.21C374.632 130.849 375.189 131.048 375.131 131.467L375.113 131.6C374.452 136.387 376.658 141.117 380.752 143.686C381.1 143.905 380.908 144.443 380.5 144.392C375.705 143.791 371.003 146.058 368.486 150.183L368.416 150.297C368.195 150.659 367.638 150.46 367.696 150.041L367.714 149.908C368.375 145.121 366.169 140.391 362.076 137.821Z" fill="white"/>
<path d="M362.181 137.842L344.712 131.324L344.771 131.159L362.422 137.166L362.181 137.842Z" fill="url(#paint0_linear_1654_6229)"/>
<path d="M380.358 144.325L398.01 150.332L398.069 150.167L380.599 143.649L380.358 144.325Z" fill="url(#paint1_linear_1654_6229)"/>
<path d="M374.386 131.348L380.904 113.879L381.069 113.938L375.062 131.589L374.386 131.348Z" fill="url(#paint2_linear_1654_6229)"/>
<path d="M367.879 149.594L361.872 167.246L362.037 167.305L368.555 149.835L367.879 149.594Z" fill="url(#paint3_linear_1654_6229)"/>
<path d="M340.593 129.782C282.855 114.934 141.791 136.773 23.0522 255.582" stroke="white" stroke-width="2"/>
<defs>
<linearGradient id="paint0_linear_1654_6229" x1="362.302" y1="137.504" x2="344.741" y2="131.241" gradientUnits="userSpaceOnUse">
<stop offset="0.357779" stop-color="white"/>
<stop offset="0.797844" stop-color="white" stop-opacity="0.29"/>
<stop offset="1" stop-color="white" stop-opacity="0"/>
</linearGradient>
<linearGradient id="paint1_linear_1654_6229" x1="380.479" y1="143.987" x2="398.039" y2="150.25" gradientUnits="userSpaceOnUse">
<stop offset="0.357779" stop-color="white"/>
<stop offset="0.797844" stop-color="white" stop-opacity="0.29"/>
<stop offset="1" stop-color="white" stop-opacity="0"/>
</linearGradient>
<linearGradient id="paint2_linear_1654_6229" x1="374.724" y1="131.469" x2="380.987" y2="113.908" gradientUnits="userSpaceOnUse">
<stop offset="0.357779" stop-color="white"/>
<stop offset="0.797844" stop-color="white" stop-opacity="0.29"/>
<stop offset="1" stop-color="white" stop-opacity="0"/>
</linearGradient>
<linearGradient id="paint3_linear_1654_6229" x1="368.217" y1="149.715" x2="361.954" y2="167.275" gradientUnits="userSpaceOnUse">
<stop offset="0.357779" stop-color="white"/>
<stop offset="0.797844" stop-color="white" stop-opacity="0.29"/>
<stop offset="1" stop-color="white" stop-opacity="0"/>
</linearGradient>
</defs>
</svg>
