<svg width="342" height="140" viewBox="0 0 342 140" fill="none" xmlns="http://www.w3.org/2000/svg">
<g clip-path="url(#clip0_4176_13235)">
<path d="M322.931 112.22C324.258 112.037 326.267 111.94 328.54 112.598C332.522 113.75 336.445 116.964 335.959 118.639C335.566 119.994 332.348 120.105 331.074 120.148C328.314 120.244 326.137 119.408 324.922 118.827C324.116 119.359 321.86 120.693 318.77 120.526C316.308 120.393 314.524 119.373 313.702 118.827C312.195 120.053 306.3 124.544 297.778 124.112C289.991 123.718 284.846 119.458 283.301 118.071C283.031 118.528 278.387 126.075 270.091 125.999C264.594 125.95 260.907 122.583 259.957 121.658C259.364 121.832 258.327 122.049 257.061 121.846C256.112 121.693 255.373 121.36 254.89 121.09C254.324 121.667 253.154 122.675 251.452 122.977C248.88 123.435 246.155 122.096 244.393 119.579C243.205 121.354 241.294 122.069 239.869 121.467C238.914 121.063 238.428 120.173 238.24 119.767C230.296 125.084 223.444 127.201 221.049 124.675C220.64 124.243 220.288 123.599 220.144 122.598C212.158 122.139 210.167 120.998 210.01 119.956C209.8 118.548 212.873 116.87 214.715 116.181C219.401 114.427 223.784 116.187 225.392 116.937C225.485 116.772 226.288 115.387 227.745 115.238C229.205 115.088 230.726 116.241 231.183 118.068C232.876 115.216 234.873 113.603 236.069 112.783C237.677 111.681 241.212 109.26 245.298 110.328C247.297 110.851 248.692 112.017 249.461 112.783C249.833 112.476 250.585 111.952 251.632 111.839C253.919 111.594 255.475 113.548 255.613 113.727C255.463 113.548 253.576 111.23 254.346 108.819C255.169 106.241 258.328 105.751 259.231 105.611C263.336 104.974 266.495 108.102 267.012 108.631C267.099 106.867 267.608 100.751 272.26 95.7953C273.597 94.3707 279.03 88.5858 286.012 90.3219C292.884 92.0302 295.421 99.5666 295.603 100.137C297.01 99.1688 303.178 95.157 310.804 96.9286C312.099 97.2292 321.076 99.471 322.928 106.744C323.479 108.905 323.237 110.871 322.928 112.217L322.931 112.22Z" fill="#222228"/>
<path d="M152.494 87.6148C153.213 85.0362 153.988 82.3157 155.933 80.3613C156.429 79.862 156.991 79.4345 157.612 79.101C157.681 79.0651 157.619 78.9608 157.551 78.9967C155.198 80.2569 153.907 82.7244 153.097 85.1559C152.83 85.9561 152.602 86.77 152.375 87.5823C152.355 87.6575 152.472 87.6883 152.492 87.6148H152.494Z" fill="#1A1A1A"/>
<path d="M164.847 114.403C181.987 97.3329 181.987 69.6567 164.847 52.5866C147.706 35.5165 119.915 35.5165 102.774 52.5866C85.6336 69.6567 85.6336 97.3329 102.774 114.403C119.915 131.473 147.706 131.473 164.847 114.403Z" fill="#292A2D"/>
<path opacity="0.45" d="M120.47 74.8563C121.441 68.8988 117.379 63.2854 111.397 62.3184C105.415 61.3514 99.7781 65.3969 98.807 71.3544C97.836 77.3118 101.898 82.9252 107.88 83.8923C113.863 84.8593 119.499 80.8138 120.47 74.8563Z" fill="#222228"/>
<path opacity="0.45" d="M116.163 62.3532C116.47 61.0573 115.664 59.7588 114.363 59.4529C113.062 59.147 111.758 59.9496 111.451 61.2456C111.144 62.5415 111.949 63.8401 113.251 64.1459C114.552 64.4518 115.856 63.6492 116.163 62.3532Z" fill="#222228"/>
<path opacity="0.45" d="M139.299 57.8809C141.91 57.8809 144.028 55.7726 144.028 53.1718C144.028 50.571 141.91 48.4626 139.299 48.4626C136.687 48.4626 134.57 50.571 134.57 53.1718C134.57 55.7726 136.687 57.8809 139.299 57.8809Z" fill="#222228"/>
<path d="M133.096 139.733C164.678 139.733 190.28 114.236 190.28 82.7842C190.28 51.3321 164.678 25.8352 133.096 25.8352C101.514 25.8352 75.9111 51.3321 75.9111 82.7842C75.9111 114.236 101.514 139.733 133.096 139.733Z" stroke="#938337" stroke-width="0.75" stroke-miterlimit="10"/>
<path d="M194.054 94.8656C195.136 91.6305 194.195 88.2055 191.795 86.3485C189.388 84.4881 186.501 84.9686 185.986 85.0627C186.094 84.524 186.464 82.3952 185.179 80.8853C183.922 79.4062 181.848 79.4267 180.662 79.4387C174.065 79.5037 167.307 87.9182 166.139 89.4024C166.05 89.3135 164.749 88.0516 162.911 88.438C161.031 88.8347 160.367 90.5857 160.329 90.6883C159.804 90.2882 158.504 89.4093 156.619 89.2417C154.313 89.0382 152.625 90.03 152.101 90.3668C149.775 81.8292 145.489 79.5447 144.194 78.9582C135.852 75.1742 121.161 82.6585 111.278 100.331C110 98.241 107.847 96.8919 105.631 96.9552C102.454 97.0475 99.4786 100.03 99.3378 104.026C98.56 103.735 97.3066 103.396 95.7888 103.544C92.2655 103.884 90.2103 106.55 89.8188 107.078C89.2573 106.515 87.3875 104.793 84.8172 104.828C81.445 104.874 78.1604 107.928 77.3946 112.38C76.1051 111.597 74.3177 110.708 72.0702 110.13C67.8052 109.034 64.1703 109.646 62.2266 110.13C62.1236 109.474 61.6737 107.151 59.6442 105.631C57.2937 103.868 53.7807 103.899 50.9305 105.792C48.9731 99.2208 42.8228 95.4214 37.3765 96.4713C31.5095 97.6032 29.1091 103.85 28.9855 104.185C28.3245 104.253 27.4986 104.455 26.7259 104.988C24.9969 106.184 24.2174 108.564 24.6278 111.095C24.5522 111.076 23.4945 110.829 22.691 111.577C22.0145 112.208 22.0402 113.059 22.0454 113.184C21.5063 111.741 20.3559 109.436 18.0122 108.203C12.0439 105.064 2.73945 111.204 3.00559 114.631C3.13093 116.247 5.42827 117.816 7.52301 118.165C9.13356 118.434 10.4556 117.955 11.0721 117.683C12.9024 122.036 16.2454 125.123 19.7858 125.236C21.9922 125.306 24.1213 124.215 24.9488 123.789C27.2101 122.63 28.6644 121.089 29.4663 120.094C30.8845 119.182 33.6763 117.656 37.5344 117.201C41.6947 116.71 44.9742 117.717 46.571 118.326C50.4205 122.701 55.2195 124.511 58.3496 122.985C58.9884 122.674 59.8383 122.088 60.6092 120.896C60.8908 121.168 62.8413 122.987 65.6108 122.664C67.2609 122.471 68.3803 121.614 68.8388 121.217C70.4476 121.602 72.6093 121.915 75.1316 121.699C81.0243 121.197 85.0902 118.134 86.7488 116.718C88.3096 117.561 90.5211 118.736 93.203 120.094C101.783 124.435 103.764 124.873 104.982 125.075C107.765 125.535 112.306 126.287 115.469 123.468C117.948 121.258 118.304 117.994 118.374 116.718C118.901 117.438 119.829 118.524 121.279 119.451C122.207 120.043 122.899 120.484 123.7 120.415C125.112 120.294 126.348 118.635 126.928 116.399C127.261 117.245 127.842 118.435 128.865 119.613C131.746 122.934 135.838 123.503 137.902 123.791C145.362 124.83 151.416 120.892 153.231 119.613C154.67 120.241 157.798 121.366 161.783 120.899C164.649 120.564 166.811 119.538 168.076 118.81C170.532 122.756 174.949 125.054 179.532 124.755C184.48 124.432 188.812 121.139 190.504 116.399C190.636 116.472 191.639 117.009 192.763 116.559C194.132 116.012 194.369 114.531 194.377 114.47C195.593 113.783 197.954 112.227 199.54 109.328C199.789 108.875 203.333 102.176 199.702 97.7588C197.952 95.63 195.371 95.0486 194.054 94.8656Z" fill="#222228"/>
<path d="M122.847 117.725C122.893 115.228 122.897 112.655 122.847 110.01C122.814 108.262 122.759 106.549 122.686 104.87" stroke="#3D3D4F" stroke-width="2.82" stroke-miterlimit="10"/>
<path d="M123.976 111.297C123.976 111.918 123.47 112.422 122.847 112.422C122.223 112.422 121.717 111.918 121.717 111.297C121.717 110.677 122.223 110.172 122.847 110.172C123.47 110.172 123.976 110.677 123.976 111.297Z" fill="#4D4C63"/>
<path d="M128.012 132.027H118.007L120.105 120.216C120.105 118.575 121.441 117.243 123.091 117.243C124.739 117.243 126.077 118.573 126.077 120.216L128.014 132.027H128.012Z" fill="#4D4C63"/>
<path d="M128.012 132.027C128.012 132.647 125.773 133.152 123.01 133.152C120.248 133.152 118.009 132.647 118.009 132.027C118.009 131.406 120.248 130.901 123.01 130.901C125.773 130.901 128.012 131.406 128.012 132.027Z" fill="#4D4C63"/>
<path d="M115.588 77.5519V75.5974C115.588 74.7784 116.191 74.0824 117.006 73.9644C118.691 73.7216 120.598 73.5028 122.688 73.5335C124.65 73.5626 126.444 73.7251 128.038 73.9508C128.855 74.067 129.465 74.7613 129.465 75.5854V77.7126C124.839 77.6596 120.213 77.6049 115.588 77.5519Z" fill="#3D3D4F"/>
<path d="M115.747 105.027V106.981C115.747 107.8 116.35 108.496 117.165 108.614C118.85 108.857 120.757 109.076 122.847 109.045C124.809 109.016 126.604 108.854 128.197 108.628C129.014 108.512 129.624 107.818 129.624 106.993V104.866C124.998 104.919 120.373 104.974 115.747 105.027Z" fill="#3D3D4F"/>
<path d="M122.605 106.959C132.541 106.959 140.596 100.124 140.596 91.693C140.596 83.2617 132.541 76.4268 122.605 76.4268C112.669 76.4268 104.614 83.2617 104.614 91.693C104.614 100.124 112.669 106.959 122.605 106.959Z" fill="#4D4C63"/>
<path d="M122.508 75.7941C122.663 77.4903 122.733 79.1934 122.716 80.8965C122.716 81.0521 122.957 81.0521 122.958 80.8965C122.975 79.1934 122.907 77.4903 122.75 75.7941C122.737 75.6402 122.495 75.6402 122.508 75.7941Z" fill="#3D3D4F"/>
<path d="M122.72 82.8356C122.675 83.1587 122.698 83.4853 122.799 83.7965C122.82 83.8581 122.883 83.8991 122.949 83.8803C123.01 83.8632 123.053 83.7948 123.033 83.7315C122.945 83.4648 122.914 83.1775 122.954 82.8988C122.962 82.8338 122.938 82.7689 122.87 82.7501C122.813 82.7347 122.73 82.7689 122.72 82.8338V82.8356Z" fill="#3D3D4F"/>
<path d="M122.823 85.5526C122.777 90.6413 122.732 95.7284 122.686 100.817C122.672 102.267 122.66 103.717 122.646 105.165C122.646 105.321 122.887 105.321 122.889 105.165C122.935 100.077 122.98 94.9897 123.026 89.901C123.04 88.4509 123.052 87.0009 123.065 85.5526C123.065 85.397 122.825 85.397 122.823 85.5526Z" fill="#3D3D4F"/>
<path d="M117.351 76.8713C114.501 80.0826 112.547 84.0599 111.735 88.268C111.508 89.441 111.371 90.6311 111.324 91.8246C111.317 91.9802 111.56 91.9802 111.566 91.8246C111.733 87.6062 113.06 83.4563 115.349 79.903C115.998 78.8942 116.724 77.9383 117.521 77.0406C117.624 76.9243 117.454 76.7534 117.349 76.8696L117.351 76.8713Z" fill="#3D3D4F"/>
<path d="M111.472 93.8817V95.4035C111.472 95.5591 111.714 95.5591 111.714 95.4035V93.8817C111.714 93.7261 111.472 93.7261 111.472 93.8817Z" fill="#3D3D4F"/>
<path d="M111.817 97.2861C111.978 99.4868 112.486 101.65 113.324 103.691C113.383 103.833 113.616 103.772 113.558 103.628C112.727 101.607 112.219 99.4645 112.059 97.2861C112.047 97.1322 111.805 97.1305 111.817 97.2861Z" fill="#3D3D4F"/>
<path d="M127.541 76.5174C129.224 77.663 130.555 79.2738 131.369 81.1342C131.43 81.2761 131.64 81.153 131.578 81.0128C130.747 79.1148 129.38 77.4784 127.665 76.3105C127.536 76.2233 127.414 76.4319 127.543 76.5191L127.541 76.5174Z" fill="#3D3D4F"/>
<path d="M132.725 83.9641C132.897 84.4155 133.07 84.8652 133.242 85.3166C133.266 85.3782 133.324 85.4192 133.391 85.4004C133.45 85.385 133.499 85.3132 133.475 85.2517C133.304 84.8002 133.13 84.3505 132.958 83.8991C132.934 83.8376 132.876 83.7965 132.809 83.8153C132.751 83.8307 132.701 83.9025 132.725 83.9641Z" fill="#3D3D4F"/>
<path d="M134.239 88.8391C134.717 92.9395 134.73 97.228 133.108 101.099C132.684 102.11 132.15 103.072 131.506 103.962C131.415 104.088 131.624 104.208 131.715 104.083C134.121 100.764 134.851 96.5885 134.76 92.5719C134.73 91.3236 134.627 90.0771 134.483 88.8374C134.466 88.6852 134.224 88.6835 134.241 88.8374L134.239 88.8391Z" fill="#3D3D4F"/>
<path d="M122.93 17.6515C122.93 14.3446 122.93 11.0376 122.93 7.73057C122.93 7.42107 122.445 7.41936 122.445 7.73057C122.445 11.0376 122.445 14.3446 122.445 17.6515C122.445 17.961 122.93 17.9628 122.93 17.6515Z" fill="#3D3D4F"/>
<path d="M122.93 27.8957C122.93 26.2525 122.93 24.6109 122.93 22.9677C122.93 22.6582 122.445 22.6565 122.445 22.9677C122.445 24.6109 122.445 26.2525 122.445 27.8957C122.445 28.2052 122.93 28.2069 122.93 27.8957Z" fill="#3D3D4F"/>
<path d="M122.93 39.0923C122.93 37.1532 122.93 35.2142 122.93 33.2751C122.93 32.9656 122.445 32.9639 122.445 33.2751C122.445 35.2142 122.445 37.1532 122.445 39.0923C122.445 39.4018 122.93 39.4035 122.93 39.0923Z" fill="#3D3D4F"/>
<path d="M122.981 74.0003C122.961 70.1291 122.949 66.2595 122.942 62.3882C122.935 58.5324 122.931 54.6782 122.931 50.8223C122.931 48.6251 122.931 46.4295 122.931 44.2323C122.931 43.9228 122.447 43.9211 122.447 44.2323C122.447 48.1206 122.447 52.0073 122.449 55.8957C122.452 59.7464 122.458 63.5972 122.47 67.4479C122.476 69.6315 122.485 71.8168 122.497 74.0003C122.497 74.3098 122.983 74.3115 122.981 74.0003Z" fill="#3D3D4F"/>
<mask id="mask0_4176_13235" style="mask-type:luminance" maskUnits="userSpaceOnUse" x="124" y="38" width="43" height="49">
<path d="M139.674 39.6223C139.631 39.9216 140.776 40.3559 141.988 40.8176C143.609 41.4348 145.041 41.6417 146.039 41.7135C146.3 41.982 146.681 42.3189 147.196 42.6096C147.877 42.996 148.509 43.1448 148.932 43.208C149.007 43.5004 149.272 44.3622 150.089 45.0017C151.21 45.8789 152.486 45.6412 152.692 45.6002C153.07 46.3372 153.544 47.1494 154.138 47.9907C155.02 49.2406 155.935 50.2256 156.741 50.9796C157.01 51.8517 157.29 53.0794 157.319 54.567C157.342 55.7572 157.199 56.7746 157.031 57.556C156.701 57.8484 156.241 58.334 155.874 59.0505C155.297 60.1722 155.273 61.2306 155.295 61.7402C155.152 62.0445 154.891 62.5062 154.428 62.9354C154.114 63.2261 153.803 63.4125 153.561 63.5339C153.308 63.1132 152.855 62.879 152.403 62.9354C151.852 63.0038 151.571 63.474 151.536 63.5339C151.459 63.893 151.368 64.5444 151.536 65.3276C151.73 66.227 152.167 66.834 152.403 67.1213C152.362 67.111 151.687 66.952 151.246 67.4205C151.244 67.4223 151.243 67.4257 151.239 67.4274C151.004 67.6822 151.14 68.019 151.332 68.3097C151.535 68.6158 151.602 69.1818 151.535 69.5135C150.971 69.6332 151.243 70.1051 151.445 70.5241C151.475 70.5856 151.505 70.6472 151.535 70.7087C151.631 70.9088 151.727 71.1071 151.823 71.3072C151.919 71.9057 152.015 72.5024 152.112 73.1009C151.914 73.4549 151.619 73.9747 151.244 74.5954C150.753 75.4076 150.395 75.9992 150.087 76.3891C149.323 77.3586 148.327 77.7639 147.194 78.1828C143.697 79.4772 141.949 80.1236 140.541 80.2757C139.069 80.4348 135.802 80.7443 132.151 79.0805C129.935 78.0699 128.408 76.7088 127.522 75.7923C127.136 75.2947 124.768 72.5366 124.602 72.67C124.149 73.0325 126.022 77.0987 126.18 77.386C127.402 79.5866 129.342 80.9495 129.835 81.471C132.809 84.6172 139.775 87.9533 148.35 85.9544C157.453 83.8324 165.075 75.1374 165.997 64.7325C167.037 52.9819 159.222 42.6095 150.954 39.9233C146.152 38.3638 139.77 38.9418 139.672 39.624L139.674 39.6223Z" fill="white"/>
</mask>
<g mask="url(#mask0_4176_13235)">
<path d="M125.497 73.9952C125.664 73.8618 126.043 74.0704 126.365 74.2944C126.751 74.792 127.136 75.2913 127.522 75.7889C128.408 76.7054 129.934 78.0648 132.151 79.0771C135.801 80.7426 139.069 80.4314 140.54 80.2723C141.948 80.1201 143.698 79.4738 147.193 78.1794C148.325 77.7604 149.321 77.3552 150.087 76.3857C150.394 75.9975 150.753 75.4042 151.244 74.592C151.62 73.9713 151.915 73.4514 152.111 73.0975C152.015 72.499 151.919 71.9023 151.823 71.3038C151.726 71.1037 151.63 70.9054 151.534 70.7053C151.519 70.6728 151.501 70.6386 151.486 70.6061C151.246 70.1103 151.479 69.4571 152.128 69.2963C152.113 69.2108 151.534 68.6141 151.313 68.2926C151.115 68.0053 151.009 67.6719 151.246 67.4188C151.687 66.9503 152.36 67.1093 152.403 67.1196C152.166 66.8323 151.728 66.2253 151.536 65.3259C151.368 64.5427 151.459 63.8913 151.536 63.5322C151.544 63.5151 151.575 63.4672 151.622 63.4056C151.785 63.5014 151.955 63.5886 152.137 63.6433C152.605 63.787 153.114 63.7562 153.519 63.4723C153.533 63.4929 153.548 63.51 153.56 63.5305C153.802 63.4108 154.115 63.2227 154.427 62.932C154.891 62.5028 155.154 62.0411 155.294 61.7368C155.272 61.2272 155.296 60.1688 155.873 59.047C156.24 58.3306 156.701 57.845 157.03 57.5526C157.198 56.7711 157.343 55.7537 157.319 54.5636C157.289 53.076 157.01 51.8483 156.74 50.9762C155.935 50.2221 155.02 49.2372 154.137 47.9873C153.541 47.1443 153.067 46.3338 152.691 45.5968C152.485 45.6395 151.21 45.8772 150.088 44.9983C149.271 44.3588 149.007 43.497 148.931 43.2046C148.51 43.1413 147.877 42.9926 147.195 42.6061C146.68 42.3137 146.299 41.9786 146.038 41.7101C145.04 41.6383 143.608 41.4297 141.988 40.8141C140.775 40.3525 139.63 39.9164 139.673 39.6189C139.769 38.9366 146.153 38.3587 150.955 39.9181C159.223 42.6027 167.039 52.9751 165.998 64.7274C165.078 75.1323 157.454 83.8273 148.351 85.9493C139.776 87.9482 132.111 83.5947 129.836 81.4659C129.313 80.9751 127.877 79.4823 126.655 77.2817C126.495 76.9944 125.044 74.3577 125.497 73.9935V73.9952Z" fill="#999999"/>
<path d="M165.998 58.4537C165.619 58.0553 164.437 56.53 163.684 55.764C162.066 54.1173 161.706 53.8215 161.369 53.0743C161.129 52.5425 161.015 51.9218 160.79 50.6838C160.502 49.1004 160.608 48.7448 160.212 48.2933C159.686 47.6932 158.795 47.517 158.187 47.3973C157.389 47.2383 157.095 47.3666 156.742 47.0981C156.227 46.7082 156.149 45.9097 156.163 45.3044C156.16 45.1385 156.13 44.7589 155.875 44.4084C155.373 43.7227 154.486 43.8048 154.429 43.8099C154.189 43.9895 153.565 44.4033 152.693 44.4084C152.434 44.4084 151.637 44.3776 150.957 43.8099C150.718 43.6116 150.308 43.2696 150.379 42.9139C150.444 42.5839 150.911 42.3137 151.536 42.3154C151.515 42.1256 151.431 41.5357 150.957 41.1202C150.538 40.7526 149.79 40.4995 149.511 40.821C149.455 40.8877 149.424 40.9697 149.41 41.0569C149.347 41.4673 149.029 41.782 148.627 41.7683C148.452 41.7631 148.265 41.7478 148.067 41.717C147.228 41.5904 146.69 41.2775 146.332 41.1185C145.658 40.821 144.58 40.6124 142.86 41.1185C142.262 40.862 141.478 40.5457 140.545 40.2225C139.44 39.8378 138.888 39.7078 138.809 39.3265C138.699 38.7998 139.572 38.2014 139.676 38.1313C141.002 37.2387 142.621 37.6371 143.727 37.832C146.84 38.3809 147.072 37.5225 150.092 37.832C156.063 38.4425 160.356 42.3274 161.663 43.5107C163.866 45.5045 165.555 47.0331 166.292 49.7878C167.236 53.3222 166.534 57.3286 166.003 58.4554L165.998 58.4537Z" fill="#808080"/>
<path d="M164.551 71.0062C164.221 70.8147 163.725 70.9909 163.684 71.0062C162.774 71.3397 162.552 72.6324 162.527 72.8C162.281 72.6803 161.879 72.5247 161.369 72.5007C160.997 72.4836 159.999 72.4392 159.633 73.0992C159.381 73.554 159.561 74.1029 159.633 74.2944C159.506 74.792 159.263 75.5581 158.766 76.3874C158.351 77.0799 157.798 78.0032 156.742 78.4803C156.089 78.7744 154.846 79.0788 154.427 78.4803C154.168 78.1093 154.333 77.545 154.427 77.2851C154.69 76.7789 154.567 76.148 154.139 75.7906C153.722 75.4435 153.117 75.4418 152.693 75.7906C151.824 76.3019 150.827 76.9824 149.8 77.8836C148.375 79.1335 147.343 80.4159 146.619 81.471C146.574 81.1444 146.327 80.8981 146.04 80.8725C145.817 80.8537 145.595 80.97 145.461 81.1717C145.523 80.3647 145.338 80.0876 145.173 79.9765C144.853 79.7611 143.549 79.9013 141.413 81.7702C140.602 82.4798 140.214 82.5277 139.677 82.6662C139.344 82.7534 137.812 83.1501 137.074 82.367C136.595 81.8591 136.838 81.2641 136.207 80.5733C135.91 80.2501 135.575 80.074 135.34 79.9748C132.431 77.386 129.941 75.399 128.108 73.9969C126.317 72.629 125.063 71.7501 124.347 72.2032C123.393 72.8068 123.97 75.4093 124.059 75.7906C124.56 77.9468 125.808 79.3592 126.373 79.9748C129.713 83.6118 132.649 86.8094 137.944 88.3432C142.299 89.6051 145.832 89.0442 148.358 88.6424C151.047 88.2149 154.791 87.6199 158.483 84.7574C161.946 82.0712 163.364 78.9403 163.691 78.1811C164.887 75.3956 165.55 71.5825 164.558 71.0079L164.551 71.0062Z" fill="#808080"/>
</g>
<path d="M151.625 70.8815C151.961 71.5688 152.078 72.3503 151.958 73.1044C151.944 73.1881 152.073 73.224 152.087 73.1403C152.214 72.3469 152.094 71.5364 151.742 70.8131C151.704 70.7361 151.589 70.8028 151.627 70.8797L151.625 70.8815Z" fill="#111010"/>
<path d="M154.288 75.6846C154.171 75.5683 154.02 75.4982 153.857 75.4794C153.823 75.476 153.788 75.5136 153.79 75.5461C153.792 75.5854 153.819 75.6076 153.857 75.6128C153.862 75.6128 153.864 75.6128 153.857 75.6128C153.861 75.6128 153.866 75.6128 153.869 75.6145C153.878 75.6145 153.888 75.6179 153.897 75.6196C153.912 75.623 153.929 75.6265 153.945 75.6316C153.962 75.6367 153.979 75.6418 153.994 75.6487C153.998 75.6487 154.001 75.6521 154.006 75.6538C154 75.6521 154.003 75.6538 154.006 75.6538C154.015 75.6572 154.024 75.6607 154.032 75.6658C154.063 75.6812 154.092 75.6983 154.12 75.7171C154.123 75.7188 154.14 75.7325 154.132 75.7256C154.139 75.7308 154.146 75.7359 154.151 75.741C154.164 75.753 154.178 75.765 154.192 75.7786C154.216 75.8026 154.262 75.806 154.286 75.7786C154.31 75.7513 154.312 75.7102 154.286 75.6846H154.288Z" fill="#111010"/>
<path d="M153.278 75.4418C150.335 76.4677 148.34 78.9899 146.82 81.5821C146.777 81.6556 146.892 81.724 146.935 81.6488C148.436 79.089 150.405 76.5823 153.314 75.57C153.394 75.5427 153.36 75.4127 153.278 75.4418Z" fill="#111010"/>
<path d="M146.957 81.6762C146.924 81.3684 146.744 81.0845 146.468 80.9358C146.174 80.7802 145.808 80.7956 145.527 80.97C145.453 81.0144 145.522 81.1307 145.594 81.0846C145.834 80.9358 146.148 80.917 146.401 81.0504C146.633 81.1735 146.796 81.4146 146.825 81.6745C146.833 81.7583 146.967 81.76 146.959 81.6745L146.957 81.6762Z" fill="#111010"/>
<path d="M145.554 81.0298C145.746 80.4741 145.233 79.9406 144.699 79.8705C143.964 79.7748 143.291 80.3065 142.731 80.7067C141.545 81.5565 140.329 82.6269 138.816 82.7962C137.942 82.8937 136.759 82.5842 136.691 81.5343C136.686 81.4488 136.552 81.4488 136.557 81.5343C136.6 82.1909 137.11 82.6782 137.721 82.856C138.392 83.0527 139.141 82.9347 139.786 82.6987C141.157 82.1994 142.209 81.1547 143.427 80.392C143.821 80.1441 144.326 79.8927 144.804 80.0261C145.212 80.1407 145.574 80.5596 145.423 80.9922C145.396 81.0743 145.525 81.1085 145.552 81.0281L145.554 81.0298Z" fill="#111010"/>
<path d="M136.443 80.929C136.272 80.5665 135.963 80.2826 135.592 80.1321C135.559 80.1185 135.518 80.1475 135.509 80.1783C135.499 80.2159 135.523 80.2467 135.556 80.2604C135.896 80.3989 136.172 80.6673 136.328 80.9956C136.344 81.0281 136.39 81.0367 136.419 81.0196C136.452 81.0008 136.459 80.9615 136.443 80.929Z" fill="#111010"/>
<path d="M135.949 81.0606C135.588 80.6571 135.061 80.4211 134.518 80.4177C134.433 80.4177 134.433 80.551 134.518 80.551C135.027 80.5545 135.516 80.7785 135.854 81.1546C135.911 81.2196 136.005 81.1239 135.949 81.0606Z" fill="#111010"/>
<path d="M152.702 76.3959C150.491 77.6476 148.763 79.667 147.867 82.0387C147.836 82.119 147.967 82.1532 147.996 82.0746C148.878 79.7354 150.588 77.7468 152.769 76.5122C152.845 76.4695 152.776 76.3549 152.702 76.3976V76.3959Z" fill="#111010"/>
<path d="M148.976 80.9563C148.806 81.1684 148.663 81.3992 148.55 81.6454C148.534 81.6779 148.541 81.7172 148.574 81.7361C148.603 81.7531 148.651 81.7446 148.665 81.7121C148.773 81.4761 148.907 81.2521 149.07 81.0504C149.092 81.023 149.098 80.9837 149.07 80.9563C149.046 80.9324 148.998 80.9273 148.976 80.9563Z" fill="#111010"/>
<path d="M146.315 82.2934C146.337 82.0763 146.238 81.8557 146.063 81.7257C145.879 81.589 145.626 81.5736 145.42 81.6676C145.388 81.683 145.379 81.7292 145.396 81.7582C145.415 81.7924 145.455 81.7976 145.487 81.7822C145.649 81.7086 145.853 81.7309 145.994 81.8403C146.135 81.9497 146.198 82.1225 146.181 82.2917C146.178 82.3276 146.214 82.3584 146.248 82.3584C146.287 82.3584 146.312 82.3276 146.315 82.2917V82.2934Z" fill="#111010"/>
<path d="M156.017 64.2811C156.206 64.7086 156.725 64.8711 157.753 65.1771C158.715 65.4644 159.436 65.6747 159.777 65.7756C160.066 65.9757 160.356 66.174 160.644 66.3741C160.507 66.0338 160.253 65.5533 159.777 65.1788C159.355 64.8471 158.927 64.7326 158.332 64.5804C157.217 64.2965 156.704 64.435 156.307 63.9819C156.129 63.7784 156.053 63.5459 156.019 63.3834C155.945 63.6126 155.878 63.9597 156.019 64.2794L156.017 64.2811Z" fill="black"/>
<path d="M160.791 63.5339C160.502 63.2347 160.212 62.9354 159.924 62.6379C159.731 62.4378 159.537 62.2395 159.345 62.0394C158.892 61.877 158.406 61.6803 157.899 61.4409C157.482 61.246 157.097 61.0442 156.742 60.8425C156.725 60.8049 156.606 60.5278 156.742 60.244C156.83 60.061 156.976 59.9755 157.03 59.9448C157.29 60.0029 157.585 60.0952 157.898 60.244C158.796 60.6698 159.347 61.3281 159.633 61.7385C160.02 62.3369 160.404 62.9337 160.791 63.5322V63.5339Z" fill="black"/>
<path d="M156.646 50.9643C157.358 53.0008 157.523 55.1997 157.116 57.3183C157.101 57.4021 157.23 57.438 157.245 57.3542C157.657 55.2134 157.496 52.9871 156.775 50.9283C156.747 50.848 156.617 50.8822 156.646 50.9643Z" fill="#111010"/>
<path d="M157.213 57.2739C155.877 58.2827 155.116 59.943 155.238 61.6085C155.245 61.694 155.379 61.694 155.372 61.6085C155.254 59.9926 155.982 58.3699 157.28 57.3884C157.347 57.3371 157.28 57.2208 157.213 57.2739Z" fill="#111010"/>
<path d="M157.993 53.6882C158.213 54.6816 158.265 55.7041 158.148 56.7147C158.138 56.8002 158.271 56.7985 158.282 56.7147C158.4 55.6922 158.345 54.6577 158.124 53.6522C158.105 53.5685 157.976 53.6044 157.995 53.6882H157.993Z" fill="#111010"/>
<path d="M158.043 57.5098C158.043 57.5098 158.043 57.5133 158.045 57.515L158.038 57.4996C158.038 57.4996 158.043 57.5167 158.045 57.5252V57.5081C158.045 57.5184 158.045 57.5287 158.043 57.5372V57.5201C158.043 57.5304 158.042 57.5406 158.037 57.5509L158.043 57.5355C158.04 57.544 158.035 57.5526 158.03 57.5594L158.04 57.5458C158.04 57.5458 158.028 57.5594 158.021 57.5646L158.035 57.5543C158.035 57.5543 158.028 57.5594 158.025 57.5611C158.011 57.5697 157.999 57.5851 157.994 57.6005C157.988 57.6159 157.992 57.6381 158 57.6518C158.009 57.6655 158.023 57.6791 158.04 57.6825C158.057 57.686 158.076 57.686 158.092 57.6757C158.129 57.6535 158.157 57.6159 158.17 57.5731C158.174 57.5611 158.176 57.5492 158.177 57.5372C158.177 57.5304 158.177 57.5218 158.177 57.515C158.177 57.4893 158.17 57.4671 158.158 57.4432C158.152 57.4295 158.133 57.4158 158.119 57.4124C158.104 57.4073 158.081 57.4107 158.067 57.4192C158.054 57.4278 158.04 57.4415 158.037 57.4586V57.4757C158.035 57.4876 158.037 57.4996 158.043 57.5098Z" fill="#111010"/>
<path d="M156.704 50.836C155.086 49.3791 153.751 47.6333 152.767 45.696C152.727 45.619 152.612 45.6874 152.652 45.7626C153.641 47.7102 154.985 49.4646 156.609 50.93C156.673 50.9882 156.767 50.8941 156.704 50.836Z" fill="#111010"/>
<path d="M153.183 45.4651C152.29 45.7575 151.294 45.6755 150.475 45.2052C150.12 45.0017 149.804 44.7299 149.548 44.4101C149.414 44.2443 149.297 44.0664 149.198 43.8783C149.162 43.8099 148.887 43.3106 148.969 43.2491C149.038 43.1978 148.969 43.0815 148.902 43.1345C148.765 43.2388 148.851 43.4098 148.902 43.5432C148.981 43.7518 149.079 43.9553 149.198 44.1451C149.452 44.5537 149.79 44.9077 150.187 45.1813C151.067 45.7849 152.208 45.9251 153.219 45.5951C153.3 45.5677 153.265 45.4395 153.183 45.4668V45.4651Z" fill="#111010"/>
<path d="M153.645 45.7917C154.546 46.5065 155.324 47.3649 155.942 48.3344C155.989 48.4062 156.104 48.3395 156.057 48.2677C155.432 47.2896 154.649 46.4193 153.739 45.6977C153.672 45.6447 153.578 45.7387 153.645 45.7917Z" fill="#111010"/>
<path d="M161.376 67.4359C160.142 67.6018 159 68.2738 158.267 69.2792C157.494 70.3394 157.233 71.7193 157.527 72.9914C157.545 73.0752 157.674 73.0393 157.655 72.9555C157.37 71.7176 157.63 70.377 158.382 69.3459C159.096 68.3695 160.212 67.7266 161.41 67.5642C161.495 67.5522 161.459 67.4239 161.374 67.4359H161.376Z" fill="#111010"/>
<path d="M157.662 73.7251C157.727 73.8516 157.792 73.9764 157.858 74.1029C157.873 74.1337 157.92 74.1457 157.949 74.1269C157.981 74.1064 157.99 74.0687 157.973 74.0363C157.908 73.9097 157.842 73.7849 157.777 73.6584C157.762 73.6276 157.715 73.6156 157.686 73.6344C157.653 73.6549 157.645 73.6926 157.662 73.7251Z" fill="#111010"/>
<path d="M159.35 69.2228C158.325 70.1718 157.869 71.6372 158.169 72.9966C158.188 73.0804 158.317 73.0445 158.298 72.9607C158.008 71.6458 158.456 70.2317 159.445 69.3151C159.508 69.257 159.414 69.163 159.35 69.2211V69.2228Z" fill="#111010"/>
<path d="M157.551 66.7298C156.775 66.5023 156.083 66.0424 155.571 65.4182C155.516 65.3516 155.422 65.4473 155.477 65.5123C156.002 66.1535 156.718 66.6255 157.515 66.858C157.597 66.8819 157.633 66.7537 157.551 66.7298Z" fill="#111010"/>
<path d="M155.719 66.2715C155.559 66.1124 155.401 65.9551 155.242 65.7961C155.18 65.7346 155.085 65.8303 155.147 65.8902C155.307 66.0492 155.465 66.2065 155.624 66.3655C155.686 66.4271 155.781 66.3313 155.719 66.2715Z" fill="#111010"/>
<path d="M165.578 57.8005C164.515 56.8276 163.444 55.841 162.57 54.6885C162.149 54.1345 161.777 53.5411 161.488 52.9084C161.16 52.1869 160.97 51.4208 160.819 50.6462C160.65 49.7759 160.516 48.897 160.25 48.0506C160.225 47.9685 160.096 48.0044 160.122 48.0865C160.604 49.6134 160.647 51.2498 161.269 52.7375C161.815 54.0455 162.709 55.169 163.688 56.1812C164.263 56.7763 164.872 57.3371 165.482 57.8963C165.546 57.9544 165.64 57.8604 165.576 57.8022L165.578 57.8005Z" fill="#111010"/>
<path d="M159.663 47.7154C158.988 47.529 158.279 47.5803 157.601 47.4213C156.969 47.2742 156.3 46.8604 156.26 46.1491C156.255 46.0636 156.121 46.0636 156.126 46.1491C156.162 46.8006 156.689 47.264 157.277 47.4674C158.034 47.7291 158.86 47.6299 159.627 47.8436C159.71 47.8658 159.746 47.7376 159.663 47.7154Z" fill="#111010"/>
<path d="M156.21 45.5746C156.272 45.4497 156.268 45.2993 156.196 45.1796C156.177 45.1505 156.136 45.1351 156.105 45.1556C156.074 45.1762 156.062 45.2155 156.081 45.2463C156.088 45.2582 156.095 45.2702 156.1 45.2822C156.104 45.289 156.104 45.289 156.1 45.2822C156.1 45.2856 156.102 45.289 156.104 45.2924C156.105 45.2993 156.109 45.3061 156.11 45.313C156.114 45.3249 156.117 45.3369 156.119 45.3489C156.119 45.3523 156.119 45.3557 156.119 45.3591C156.119 45.3506 156.119 45.3489 156.119 45.3574C156.119 45.3643 156.119 45.3711 156.119 45.3779C156.119 45.3916 156.119 45.4053 156.119 45.419C156.119 45.4207 156.119 45.4326 156.119 45.4344C156.119 45.4258 156.119 45.4241 156.119 45.4326C156.119 45.4361 156.119 45.4395 156.117 45.4429C156.114 45.4566 156.11 45.4703 156.107 45.4822C156.105 45.4891 156.104 45.4959 156.1 45.501C156.109 45.4857 156.097 45.5062 156.097 45.5096C156.081 45.5404 156.086 45.5831 156.121 45.6002C156.152 45.6156 156.196 45.6105 156.212 45.5763L156.21 45.5746Z" fill="#111010"/>
<path d="M155.901 44.6341C155.84 44.128 155.305 43.8783 154.836 43.9125C154.496 43.9382 154.178 44.0886 153.868 44.2169C153.514 44.3622 153.162 44.4597 152.777 44.4597C152.041 44.4597 151.284 44.1604 150.698 43.721C150.382 43.4833 150.068 43.09 150.315 42.6916C150.562 42.2932 151.064 42.2641 151.472 42.2334C151.558 42.2265 151.558 42.0931 151.472 42.1C150.981 42.1359 150.368 42.2146 150.147 42.7275C149.943 43.1978 150.325 43.6201 150.686 43.8749C151.172 44.2186 151.749 44.4682 152.34 44.5589C152.963 44.6529 153.504 44.5127 154.075 44.275C154.395 44.1433 154.742 43.9997 155.094 44.0561C155.404 44.1057 155.731 44.2972 155.77 44.6341C155.78 44.7179 155.914 44.7196 155.904 44.6341H155.901Z" fill="#111010"/>
<path d="M153.826 43.7278C153.126 44.0459 152.261 43.9279 151.67 43.4354C151.605 43.3807 151.508 43.4747 151.575 43.5295C152.216 44.063 153.134 44.1878 153.893 43.8441C153.972 43.8082 153.904 43.6936 153.826 43.7295V43.7278Z" fill="#111010"/>
<path d="M151.213 42.8592C151.192 42.8643 151.173 42.8763 151.158 42.89C151.149 42.8968 151.144 42.9054 151.137 42.9139C151.134 42.919 151.132 42.9225 151.129 42.9276C151.118 42.9481 151.113 42.9669 151.113 42.9892C151.113 43.0114 151.118 43.0319 151.129 43.0507C151.132 43.0593 151.139 43.0644 151.146 43.0695C151.153 43.0747 151.16 43.0798 151.168 43.0815C151.177 43.0849 151.185 43.0849 151.196 43.0815C151.204 43.0815 151.213 43.0781 151.22 43.0729C151.233 43.0644 151.247 43.0507 151.251 43.0336V43.0165C151.252 43.0045 151.251 42.9926 151.244 42.9823C151.244 42.9823 151.244 42.9806 151.244 42.9789L151.251 42.9943C151.251 42.9943 151.247 42.984 151.247 42.9789V42.996C151.247 42.996 151.247 42.984 151.249 42.9789V42.996C151.249 42.996 151.249 42.9823 151.252 42.9772L151.245 42.9926C151.245 42.9926 151.251 42.9806 151.256 42.9772L151.245 42.9909C151.245 42.9909 151.254 42.9823 151.258 42.9789L151.244 42.9892C151.244 42.9892 151.252 42.984 151.258 42.9823L151.242 42.9892C151.242 42.9892 151.247 42.9874 151.251 42.9857C151.266 42.9823 151.282 42.9686 151.29 42.955C151.295 42.9481 151.297 42.9396 151.299 42.931C151.3 42.9225 151.299 42.9139 151.299 42.9037C151.294 42.8883 151.283 42.8712 151.268 42.8643C151.252 42.8575 151.233 42.8524 151.216 42.8575L151.213 42.8592Z" fill="#111010"/>
<path d="M151.382 41.5528C151.128 41.2399 150.857 40.9064 150.479 40.7389C150.151 40.5935 149.744 40.5781 149.449 40.8039C149.382 40.8551 149.449 40.9714 149.516 40.9184C149.795 40.703 150.185 40.7303 150.486 40.8893C150.815 41.0638 151.056 41.3613 151.286 41.6451C151.341 41.7118 151.433 41.6178 151.38 41.5511L151.382 41.5528Z" fill="#111010"/>
<path d="M149.268 40.8586C149.353 41.1561 149.158 41.4537 148.89 41.5836C148.581 41.7341 148.208 41.676 147.887 41.5939C147.276 41.4383 146.706 41.1527 146.206 40.7714C146.137 40.7201 146.07 40.8347 146.139 40.886C146.726 41.334 147.453 41.6913 148.193 41.7888C148.514 41.8316 148.866 41.8025 149.125 41.5887C149.352 41.4024 149.482 41.11 149.398 40.821C149.374 40.7389 149.245 40.7731 149.269 40.8569L149.268 40.8586Z" fill="#111010"/>
<path d="M146 40.7885C144.999 40.6158 143.969 40.6996 143.013 41.0399C142.932 41.0689 142.966 41.1972 143.049 41.1681C143.983 40.8364 144.987 40.7475 145.966 40.9168C146.05 40.9321 146.086 40.8022 146.002 40.7885H146Z" fill="#111010"/>
<path d="M155.207 61.7385C155.147 62.0582 154.944 62.3096 154.721 62.537C154.498 62.7644 154.245 62.9953 153.977 63.1885C153.44 63.5767 152.777 63.8331 152.109 63.6792C152.025 63.6604 151.989 63.7887 152.073 63.8075C152.776 63.9699 153.478 63.7134 154.044 63.3031C154.328 63.0979 154.589 62.8619 154.832 62.6123C155.076 62.3626 155.272 62.1061 155.336 61.7744C155.351 61.6906 155.222 61.6547 155.207 61.7385Z" fill="#111010"/>
<path d="M152.033 63.645C151.897 63.5698 151.684 63.3885 151.518 63.4159C151.38 63.4398 151.329 63.5817 151.305 63.7014C151.221 64.1204 151.233 64.5684 151.296 64.989C151.36 65.4096 151.492 65.8371 151.684 66.2287C151.784 66.4288 151.899 66.622 152.029 66.8032C152.098 66.8973 152.182 67.0631 152.32 66.9862C152.359 66.964 152.361 66.9127 152.333 66.8819L152.323 66.8699C152.266 66.8049 152.172 66.899 152.229 66.964L152.239 66.9759L152.253 66.8716C152.191 66.9058 151.791 66.1415 151.753 66.0611C151.616 65.7619 151.516 65.4438 151.454 65.1207C151.392 64.7975 151.372 64.4846 151.389 64.1648C151.398 64.0126 151.404 63.8468 151.442 63.6997C151.464 63.6142 151.463 63.6023 151.562 63.5937C151.65 63.5852 151.657 63.592 151.725 63.6296C151.804 63.6741 151.885 63.7185 151.964 63.7613C152.04 63.8023 152.107 63.6878 152.031 63.6467L152.033 63.645Z" fill="#111010"/>
<path d="M152.091 65.4627C152.577 65.8457 152.942 66.3638 153.136 66.9503L153.234 66.8751C152.695 66.5759 152.309 66.0492 152.185 65.449C152.168 65.3652 152.039 65.4011 152.056 65.4849C152.187 66.1176 152.601 66.6767 153.167 66.9914C153.215 67.0187 153.284 66.9726 153.265 66.9161C153.064 66.3091 152.688 65.7671 152.185 65.3704C152.118 65.3174 152.024 65.4114 152.091 65.4644V65.4627Z" fill="#111010"/>
<path d="M152.271 65.7345C152.425 65.9346 152.554 66.1535 152.664 66.3792C152.691 66.4339 152.717 66.4903 152.741 66.5468C152.76 66.5895 152.784 66.6408 152.837 66.6476C152.898 66.6545 152.925 66.5963 152.906 66.5468C152.896 66.5211 152.879 66.4972 152.863 66.4749C152.813 66.4048 152.698 66.4715 152.748 66.5416C152.755 66.5519 152.762 66.5621 152.769 66.5724C152.772 66.5792 152.776 66.5861 152.781 66.5912C152.791 66.6049 152.781 66.5912 152.781 66.581L152.813 66.5228C152.831 66.5228 152.848 66.5194 152.865 66.5177C152.884 66.5228 152.873 66.5177 152.867 66.5006C152.858 66.4818 152.851 66.463 152.843 66.4442C152.825 66.4048 152.807 66.3655 152.788 66.3262C152.75 66.2492 152.71 66.1723 152.669 66.097C152.585 65.9466 152.492 65.8029 152.388 65.6661C152.365 65.6371 152.329 65.6217 152.297 65.6422C152.269 65.6593 152.25 65.7038 152.273 65.7328L152.271 65.7345Z" fill="#111010"/>
<path d="M153.988 66.2116C154.101 66.4117 154.242 66.6682 154.139 66.899C154.065 67.0666 153.887 67.1487 153.717 67.1863C153.284 67.2803 152.793 67.1247 152.418 66.911C152.343 66.8682 152.276 66.9828 152.352 67.0255C152.597 67.1675 152.867 67.2666 153.146 67.3128C153.378 67.3504 153.619 67.3624 153.845 67.2889C154.034 67.229 154.204 67.1093 154.275 66.9178C154.372 66.6511 154.233 66.3724 154.105 66.1432C154.062 66.068 153.947 66.1364 153.99 66.2099L153.988 66.2116Z" fill="#111010"/>
<path d="M151.193 67.4804C151.898 68.491 152.855 69.31 153.966 69.8504C154.043 69.888 154.11 69.7734 154.033 69.7358C152.942 69.2057 152 68.4055 151.308 67.4137C151.26 67.3436 151.143 67.4103 151.193 67.4804Z" fill="#111010"/>
<path d="M153.677 69.5562C153.162 69.4126 152.656 69.245 152.158 69.0535C152.077 69.0227 152.043 69.151 152.122 69.1817C152.62 69.3733 153.128 69.5408 153.641 69.6845C153.724 69.7084 153.76 69.5784 153.677 69.5562Z" fill="#111010"/>
<path d="M151.318 67.8241C151.622 68.3576 152.032 68.8227 152.523 69.192C152.592 69.2433 152.659 69.1288 152.59 69.0775C152.118 68.7218 151.723 68.2704 151.431 67.7557C151.388 67.6805 151.273 67.7489 151.316 67.8224L151.318 67.8241Z" fill="#111010"/>
<path d="M160.782 53.4813C161.515 55.0971 162.595 56.5386 163.94 57.7014C164.005 57.7578 164.1 57.6637 164.034 57.6073C162.698 56.4514 161.627 55.0202 160.897 53.4146C160.861 53.3359 160.746 53.4043 160.782 53.4813Z" fill="#111010"/>
<path d="M165.044 58.5307C165.14 58.5939 165.235 58.6572 165.331 58.7205C165.36 58.7393 165.406 58.7273 165.422 58.6965C165.439 58.6623 165.429 58.6264 165.398 58.6059C165.302 58.5426 165.207 58.4794 165.111 58.4161C165.082 58.3973 165.035 58.4093 165.02 58.44C165.003 58.4742 165.013 58.5101 165.044 58.5307Z" fill="#111010"/>
<path d="M162.721 51.7918C162.829 52.0534 162.971 52.4023 162.748 52.6468C162.525 52.8913 162.209 52.6331 162.022 52.469C161.819 52.2911 161.649 52.074 161.538 51.8294C161.433 51.5986 161.368 51.2977 161.44 51.048C161.484 50.8975 161.751 50.9813 161.859 51.0207C162.013 51.0771 162.145 51.1745 162.25 51.3011C162.305 51.3678 162.4 51.272 162.345 51.207C162.235 51.0754 162.096 50.9728 161.936 50.9095C161.8 50.8548 161.617 50.8069 161.471 50.8445C161.309 50.8856 161.294 51.0634 161.283 51.2019C161.271 51.3609 161.294 51.5234 161.338 51.6773C161.435 52.0021 161.635 52.2945 161.883 52.5254C162.096 52.7237 162.437 53.0144 162.74 52.8297C163.129 52.5921 162.99 52.0979 162.849 51.7593C162.817 51.6807 162.688 51.7149 162.721 51.7952V51.7918Z" fill="#111010"/>
<path d="M158.068 45.8293C158.136 45.9764 157.966 46.1337 157.827 46.1457C157.642 46.161 157.486 46.0037 157.398 45.8601C157.237 45.5968 157.177 45.0958 157.554 44.9812C157.697 44.9385 157.87 44.9658 157.944 45.106C157.984 45.1813 158.1 45.1146 158.059 45.0393C157.966 44.8649 157.762 44.8068 157.577 44.8393C157.367 44.8752 157.216 45.0308 157.159 45.2326C157.094 45.4668 157.159 45.7319 157.287 45.9353C157.403 46.1217 157.608 46.3013 157.843 46.279C158.078 46.2568 158.294 46.0003 158.183 45.7644C158.147 45.6874 158.032 45.7541 158.068 45.831V45.8293Z" fill="#111010"/>
<path d="M148.482 40.7098C148.106 41.0843 147.398 41.0433 147.077 40.6158C147.026 40.5474 146.911 40.6158 146.962 40.6825C147.335 41.1783 148.135 41.245 148.578 40.8039C148.638 40.7423 148.544 40.6483 148.483 40.7098H148.482Z" fill="#111010"/>
<path d="M148.299 39.9951C148.079 39.7916 147.731 39.7813 147.496 39.9626C147.466 39.9848 147.472 40.0344 147.496 40.0566C147.523 40.084 147.561 40.0789 147.59 40.0566C147.767 39.9198 148.043 39.9386 148.205 40.0891C148.268 40.1473 148.363 40.0532 148.299 39.9951Z" fill="#111010"/>
<path d="M158.44 48.2198C157.654 48.2745 156.871 47.9736 156.329 47.4042C156.268 47.3426 156.174 47.4366 156.234 47.4982C156.801 48.0898 157.621 48.4096 158.44 48.3515C158.526 48.3463 158.526 48.213 158.44 48.2181V48.2198Z" fill="#111010"/>
<path d="M152.072 69.1031C151.684 69.2023 151.361 69.5221 151.275 69.9153C151.189 70.3086 151.359 70.7583 151.694 71.0114C151.763 71.0627 151.83 70.9481 151.761 70.8968C151.471 70.6763 151.323 70.2813 151.411 69.9256C151.498 69.5699 151.771 69.3169 152.109 69.2314C152.194 69.2109 152.158 69.0809 152.073 69.1031H152.072Z" fill="#111010"/>
<path d="M164.532 70.825C164.08 70.6865 163.574 70.8045 163.222 71.114C162.793 71.4919 162.703 72.1246 162.566 72.6478C162.544 72.7316 162.673 72.7658 162.695 72.6837C162.764 72.4204 162.825 72.1519 162.909 71.892C162.987 71.6526 163.093 71.4218 163.277 71.2439C163.595 70.9379 164.075 70.8233 164.496 70.9533C164.578 70.9789 164.614 70.8507 164.532 70.825Z" fill="#111010"/>
<path d="M162.675 72.6358C161.938 72.2237 161.023 72.2289 160.295 72.6563C159.955 72.8564 159.624 73.1197 159.491 73.5028C159.371 73.8516 159.416 74.2414 159.608 74.5561C159.653 74.6296 159.77 74.5629 159.723 74.4894C159.541 74.1919 159.507 73.8242 159.634 73.4993C159.775 73.1437 160.125 72.8974 160.451 72.7213C161.121 72.3622 161.945 72.381 162.606 72.7504C162.682 72.7931 162.749 72.6769 162.673 72.6358H162.675Z" fill="#111010"/>
<path d="M159.637 74.5304C159.431 75.1802 159.103 75.7769 158.713 76.3344C158.349 76.8559 157.947 77.3672 157.485 77.8049C157.024 78.2426 156.507 78.5863 155.895 78.7214C155.246 78.8633 154.3 78.6411 154.312 77.8186C154.321 77.2406 154.781 76.7106 154.525 76.1309C154.491 76.0522 154.376 76.1206 154.41 76.1976C154.671 76.7926 154.082 77.3997 154.194 78.0169C154.306 78.6342 154.951 78.9232 155.521 78.9044C156.855 78.8599 157.849 77.7177 158.586 76.7362C159.084 76.0745 159.513 75.3597 159.764 74.5663C159.79 74.4842 159.661 74.45 159.635 74.5304H159.637Z" fill="#111010"/>
<path d="M161.897 73.0513C161.466 72.9521 160.992 73.0821 160.681 73.3984C160.37 73.7148 160.25 74.1884 160.358 74.6159C160.379 74.6997 160.509 74.6638 160.487 74.58C160.391 74.1987 160.497 73.7729 160.776 73.4908C161.054 73.2086 161.476 73.0906 161.861 73.1779C161.945 73.1967 161.981 73.0684 161.897 73.0496V73.0513Z" fill="#111010"/>
<path d="M164.62 67.5762C164.032 67.4496 163.435 67.3761 162.834 67.3573C162.748 67.3539 162.748 67.4873 162.834 67.4907C163.423 67.5078 164.008 67.5796 164.584 67.7044C164.668 67.7232 164.704 67.595 164.62 67.5762Z" fill="#111010"/>
<path d="M152.067 68.9954C151.821 68.8176 151.61 68.5936 151.445 68.3388C151.366 68.2174 151.294 68.0874 151.241 67.9523C151.193 67.8309 151.148 67.6668 151.248 67.5591C151.306 67.4958 151.212 67.4017 151.153 67.465C150.923 67.7147 151.148 68.1062 151.291 68.3422C151.473 68.6432 151.715 68.9014 152 69.1083C152.07 69.1595 152.136 69.0433 152.067 68.9937V68.9954Z" fill="#111010"/>
<path d="M141.272 39.2136C145.46 38.5519 149.75 39.2564 153.523 41.1732C155.858 42.3616 157.978 43.9655 159.776 45.867C162.432 48.6781 164.235 52.1783 165.174 55.9111C165.806 58.4229 166.072 61.0374 165.969 63.6245C165.892 65.5704 165.593 67.5146 165.08 69.3938C164.058 73.1317 162.139 76.6028 159.431 79.3951C157.772 81.1068 155.844 82.5722 153.756 83.7247C150.398 85.5782 146.624 86.5358 142.781 86.4298C139.728 86.346 136.701 85.7355 133.951 84.3762C130.125 82.485 127.105 79.2532 125.366 75.382C125.103 74.7972 124.871 74.1987 124.667 73.5917C124.639 73.5113 124.511 73.5455 124.538 73.6276C125.743 77.215 127.981 80.4348 131.018 82.7261C133.975 84.9558 137.568 86.175 141.246 86.4828C144.726 86.7735 148.207 86.3118 151.445 84.9832C154.105 83.8905 156.555 82.2918 158.658 80.3407C161.174 78.0084 163.124 75.1169 164.379 71.933C165.306 69.5802 165.842 67.0974 166.046 64.5821C166.222 62.4259 166.108 60.2389 165.761 58.1066C165.179 54.5175 163.868 51.0309 161.747 48.0574C160.107 45.7575 158.002 43.7809 155.633 42.2402C152.187 40.0002 148.143 38.7485 144.016 38.8358C143.085 38.8546 142.158 38.9418 141.238 39.0871C141.153 39.1008 141.189 39.229 141.274 39.2154L141.272 39.2136Z" fill="#111010"/>
<path d="M148.854 43.0951C147.833 43.0438 146.861 42.5753 146.179 41.8161C146.123 41.7511 146.028 41.8469 146.085 41.9102C146.789 42.6967 147.798 43.1755 148.854 43.2285C148.94 43.2336 148.94 43.1003 148.854 43.0951Z" fill="#111010"/>
<path d="M146.176 41.8828C144.859 41.6862 143.559 41.3921 142.287 40.9988C141.669 40.8073 141.039 40.6124 140.448 40.349C140.209 40.243 139.969 40.1096 139.802 39.9044C139.766 39.8617 139.735 39.8155 139.708 39.7659L139.737 39.5608C139.773 39.5146 139.907 39.5009 139.965 39.4872C140.153 39.4393 140.341 39.3949 140.53 39.3487C140.614 39.3282 140.578 39.2 140.494 39.2205C140.28 39.2735 140.062 39.3179 139.849 39.3778C139.749 39.4069 139.639 39.4376 139.577 39.5283C139.449 39.7181 139.658 39.9592 139.789 40.0857C140.233 40.52 140.951 40.6927 141.523 40.8877C143.023 41.4006 144.57 41.7734 146.14 42.0094C146.224 42.0213 146.26 41.8931 146.176 41.8811V41.8828Z" fill="#111010"/>
<path d="M135.669 80.1475C133.976 79.8996 132.366 79.1677 130.92 78.2786C129.474 77.3894 128.13 76.1822 126.956 74.8878C126.265 74.1269 125.616 73.3318 124.979 72.5281C124.926 72.4614 124.832 72.5554 124.885 72.6221C126.03 74.067 127.218 75.488 128.6 76.7157C129.876 77.8494 131.332 78.7864 132.903 79.4618C133.777 79.838 134.691 80.1355 135.635 80.274C135.719 80.286 135.755 80.1578 135.671 80.1458L135.669 80.1475Z" fill="#111010"/>
<path d="M151.862 73.1453C151.128 74.3508 150.394 75.5546 149.66 76.7601C149.615 76.8336 149.73 76.9003 149.775 76.8268C150.509 75.6213 151.243 74.4175 151.977 73.212C152.022 73.1385 151.907 73.0718 151.862 73.1453Z" fill="#111010"/>
<path d="M149.605 76.861C147.987 77.6134 146.335 78.3042 144.668 78.9386C143.885 79.2378 143.094 79.5302 142.283 79.7508C141.329 80.009 140.331 80.1612 139.349 80.2655C138.142 80.3937 136.856 80.4655 135.671 80.1492C135.587 80.127 135.553 80.2552 135.635 80.2774C136.67 80.5527 137.778 80.5305 138.837 80.4467C139.897 80.3629 140.987 80.1971 142.034 79.9525C142.817 79.7696 143.58 79.4892 144.332 79.2087C145.273 78.8582 146.205 78.482 147.13 78.0922C147.984 77.7331 148.834 77.3671 149.672 76.9773C149.749 76.9414 149.682 76.8268 149.605 76.8627V76.861Z" fill="#111010"/>
<path d="M161.897 98.9242C162.12 99.1995 163.856 101.263 166.575 101.174C167.964 101.128 168.991 100.54 169.481 100.21C171.259 101.316 174.298 102.876 178.356 103.425C185.073 104.333 190.284 101.894 192.232 100.853C193.134 101.111 194.916 101.477 196.911 100.853C199.2 100.137 202.078 98.0231 201.752 95.872C201.482 94.0971 199.162 93.1464 198.362 92.818C195.862 91.7938 193.539 92.3991 192.715 92.6573C192.693 92.4932 192.468 90.9953 191.101 90.2463C190 89.6427 188.601 89.7675 187.552 90.5678C187.557 90.366 187.593 87.4899 185.454 86.069C183.395 84.701 180.16 85.2328 178.193 87.6763C177.628 87.1189 175.622 85.2756 172.545 85.1046C170.911 85.014 169.602 85.4295 168.835 85.7475C168.893 85.3713 169.414 81.6574 166.737 79.1592C165.355 77.8682 163.77 77.5091 163.026 77.3911C161.988 76.5601 161.081 76.3241 160.444 76.266C157.295 75.9804 153.722 79.4157 151.892 84.9438C150.827 82.8116 148.349 82.0968 146.729 83.015C145.52 83.7007 144.847 85.2602 145.115 86.8709C144.402 86.8077 142.415 86.729 140.597 87.9961C138.391 89.5333 137.325 92.4265 137.853 95.3881C137.711 95.2325 136.004 93.4251 133.497 93.7807C131.61 94.0492 130.031 95.4342 129.464 97.3151C128.362 97.2553 127.388 97.7837 127.043 98.601C126.557 99.7501 127.52 100.991 128.334 101.494C129.571 102.257 131.458 101.92 132.852 100.53C134.074 100.802 136.081 101.089 138.499 100.691C140.559 100.352 142.153 99.6424 143.178 99.0832C143.216 99.2097 143.552 100.292 144.63 100.691C145.568 101.036 146.677 100.72 147.374 99.8869C147.616 100.284 149.653 103.507 153.506 103.903C156.898 104.254 160.295 102.271 161.897 98.9225V98.9242Z" fill="#666666"/>
<path opacity="0.47" d="M59.8573 48.0557C59.4418 48.042 58.9353 47.9941 58.3721 47.871C57.8862 47.7633 57.4655 47.6231 57.1118 47.4829C56.5727 46.1269 56.4113 43.745 56.437 43.1243C56.4181 43.7569 56.3443 44.5247 56.1537 45.3814C55.9717 46.1987 55.7279 46.8964 55.4893 47.4641C55.1647 47.5872 54.787 47.7069 54.3612 47.8009C53.798 47.9257 53.2915 47.9736 52.876 47.9856C53.2503 47.9702 54.5947 48.0574 55.5047 48.3412C55.7399 48.9021 55.9769 49.5878 56.1537 50.3863C56.3443 51.243 56.4164 52.0107 56.437 52.6434C56.4113 52.0518 56.5572 49.8545 57.0397 48.4763C57.9394 48.1395 59.4555 48.0386 59.8573 48.0557Z" fill="#FFEB62"/>
<path opacity="0.47" d="M275.855 65.6679C275.44 65.6542 274.933 65.6063 274.37 65.4832C273.884 65.3755 273.464 65.2353 273.11 65.095C272.571 63.7391 272.409 61.3572 272.435 60.7365C272.416 61.3691 272.342 62.1369 272.152 62.9935C271.97 63.8109 271.726 64.5085 271.487 65.0762C271.163 65.1993 270.785 65.319 270.359 65.4131C269.796 65.5379 269.29 65.5858 268.874 65.5978C269.248 65.5824 270.593 65.6696 271.503 65.9534C271.738 66.5143 271.975 67.2 272.152 67.9985C272.342 68.8552 272.414 69.6229 272.435 70.2556C272.409 69.664 272.555 67.4667 273.038 66.0885C273.937 65.7517 275.454 65.6508 275.855 65.6679Z" fill="#FFEB62"/>
<path opacity="0.47" d="M25.7162 89.0015C24.9505 88.9776 24.0198 88.8904 22.9828 88.6612C22.0899 88.4646 21.3139 88.2064 20.6631 87.9465C19.6707 85.4517 19.3736 81.0692 19.4217 79.9269C19.3857 81.0897 19.25 82.5038 18.8997 84.0786C18.5666 85.5817 18.1168 86.8658 17.6755 87.9123C17.078 88.1397 16.3843 88.3586 15.5997 88.5313C14.5626 88.7604 13.632 88.8476 12.8662 88.8716C13.5547 88.8425 16.0306 89.0032 17.7047 89.5265C18.1357 90.5592 18.5718 91.8195 18.898 93.29C19.2483 94.8648 19.3822 96.2789 19.42 97.4417C19.3736 96.3525 19.6415 92.3102 20.5292 89.7744C22.1861 89.1554 24.9762 88.9707 25.7128 89.0015H25.7162Z" fill="#FFEB62"/>
<path d="M158.6 19.8984C158.216 19.8864 157.749 19.8419 157.229 19.7274C156.78 19.6282 156.391 19.4983 156.064 19.3683C155.566 18.1149 155.417 15.9143 155.441 15.3414C155.422 15.9262 155.355 16.6358 155.18 17.4258C155.012 18.1799 154.787 18.8263 154.565 19.3512C154.265 19.4658 153.916 19.5752 153.523 19.6624C153.003 19.777 152.536 19.8214 152.151 19.8334C152.496 19.818 153.74 19.9001 154.581 20.1617C154.797 20.6798 155.017 21.3142 155.18 22.0512C155.355 22.8429 155.424 23.5525 155.441 24.1356C155.417 23.5884 155.553 21.5587 155.997 20.2848C156.83 19.9736 158.231 19.8813 158.6 19.8967V19.8984Z" fill="#2C2E30"/>
<path d="M252.691 76.8388C252.307 76.8268 251.84 76.7824 251.319 76.6678C250.871 76.5686 250.481 76.4387 250.155 76.3087C249.657 75.0554 249.508 72.8547 249.532 72.2819C249.513 72.8667 249.446 73.5763 249.271 74.3663C249.103 75.1203 248.878 75.7667 248.656 76.2916C248.356 76.4062 248.007 76.5156 247.614 76.6028C247.094 76.7174 246.627 76.7619 246.242 76.7738C246.587 76.7584 247.83 76.8405 248.672 77.1021C248.888 77.6202 249.108 78.2546 249.271 78.9916C249.446 79.7833 249.515 80.4929 249.532 81.076C249.508 80.5288 249.644 78.4991 250.088 77.2253C250.921 76.914 252.322 76.8217 252.691 76.8371V76.8388Z" fill="#2C2E30"/>
<path d="M305.747 40.7594C305.362 40.7474 304.895 40.703 304.375 40.5884C303.927 40.4892 303.537 40.3593 303.211 40.2293C302.713 38.976 302.564 36.7753 302.588 36.2025C302.569 36.7872 302.502 37.4969 302.327 38.2869C302.158 39.0409 301.933 39.6873 301.712 40.2122C301.411 40.3268 301.063 40.4362 300.67 40.5234C300.149 40.638 299.682 40.6825 299.298 40.6944C299.643 40.679 300.886 40.7611 301.727 41.0227C301.944 41.5408 302.164 42.1752 302.327 42.9122C302.502 43.7039 302.57 44.4135 302.588 44.9966C302.564 44.4494 302.699 42.4197 303.144 41.1458C303.977 40.8346 305.378 40.7423 305.747 40.7577V40.7594Z" fill="#2C2E30"/>
<path d="M293.385 84.8754C293 84.8635 292.533 84.819 292.013 84.7044C291.565 84.6053 291.175 84.4753 290.849 84.3453C290.351 83.092 290.201 80.8913 290.225 80.3185C290.206 80.9033 290.139 81.6129 289.964 82.4029C289.796 83.157 289.571 83.8033 289.35 84.3283C289.049 84.4428 288.701 84.5523 288.307 84.6395C287.787 84.754 287.32 84.7985 286.936 84.8104C287.281 84.7951 288.524 84.8771 289.365 85.1388C289.581 85.6569 289.801 86.2912 289.964 87.0282C290.139 87.8199 290.208 88.5295 290.225 89.1126C290.201 88.5654 290.337 86.5358 290.782 85.2619C291.614 84.9507 293.015 84.8583 293.385 84.8737V84.8754Z" fill="#2C2E30"/>
<path d="M70.4969 77.9759C70.1123 77.9639 69.6453 77.9195 69.125 77.8049C68.6769 77.7057 68.2871 77.5758 67.9609 77.4458C67.463 76.1924 67.3136 73.9918 67.3376 73.4189C67.3187 74.0037 67.2518 74.7134 67.0766 75.5033C66.9084 76.2574 66.6834 76.9038 66.462 77.4287C66.1615 77.5433 65.8129 77.6527 65.4197 77.7399C64.8995 77.8545 64.4325 77.8989 64.0479 77.9109C64.393 77.8955 65.6361 77.9776 66.4774 78.2392C66.6938 78.7573 66.9135 79.3917 67.0766 80.1287C67.2518 80.9204 67.3205 81.63 67.3376 82.2131C67.3136 81.6659 67.4492 79.6362 67.8939 78.3623C68.7267 78.0511 70.1277 77.9588 70.4969 77.9742V77.9759Z" fill="#2C2E30"/>
<path d="M230.932 51.3866C230.548 51.3746 230.081 51.3302 229.561 51.2156C229.112 51.1164 228.723 50.9865 228.396 50.8565C227.899 49.6032 227.749 47.4025 227.773 46.8297C227.754 47.4144 227.687 48.1241 227.512 48.914C227.344 49.6681 227.119 50.3145 226.897 50.8394C226.597 50.954 226.248 51.0634 225.855 51.1506C225.335 51.2652 224.868 51.3097 224.483 51.3216C224.829 51.3062 226.072 51.3883 226.913 51.6499C227.129 52.168 227.349 52.8024 227.512 53.5394C227.687 54.3311 227.756 55.0407 227.773 55.6238C227.749 55.0766 227.885 53.0469 228.329 51.773C229.162 51.4618 230.563 51.3695 230.932 51.3849V51.3866Z" fill="#2C2E30"/>
<path d="M153.178 125.799C152.89 125.791 152.539 125.756 152.15 125.671C151.813 125.597 151.521 125.5 151.277 125.402C150.905 124.464 150.793 122.815 150.81 122.386C150.797 122.824 150.745 123.356 150.615 123.947C150.489 124.513 150.319 124.995 150.154 125.389C149.93 125.474 149.669 125.556 149.373 125.621C148.983 125.707 148.633 125.741 148.345 125.749C148.604 125.739 149.535 125.799 150.165 125.996C150.326 126.384 150.491 126.859 150.615 127.412C150.747 128.005 150.797 128.535 150.81 128.973C150.793 128.562 150.894 127.042 151.228 126.088C151.851 125.855 152.9 125.785 153.178 125.797V125.799Z" fill="#2C2E30"/>
<path d="M58.1896 121.827C57.6573 121.81 57.0117 121.75 56.2906 121.591C55.6708 121.454 55.1299 121.275 54.6801 121.093C53.9915 119.359 53.7838 116.314 53.8181 115.521C53.7924 116.329 53.6997 117.311 53.4558 118.405C53.224 119.45 52.9116 120.343 52.6059 121.069C52.1904 121.227 51.7079 121.381 51.1636 121.5C50.4425 121.659 49.7969 121.721 49.2646 121.736C49.7437 121.716 51.4624 121.827 52.6265 122.191C52.927 122.909 53.2292 123.785 53.4558 124.806C53.6997 125.9 53.7924 126.881 53.8181 127.69C53.7855 126.933 53.9727 124.125 54.5891 122.362C55.7395 121.933 57.6779 121.803 58.1913 121.825L58.1896 121.827Z" fill="#2C2E30"/>
<path d="M189.874 26.2586C190.304 24.4443 189.176 22.6264 187.354 22.1981C185.532 21.7699 183.707 22.8936 183.277 24.7079C182.847 26.5222 183.975 28.3402 185.797 28.7684C187.619 29.1966 189.444 28.073 189.874 26.2586Z" fill="#242628"/>
<path d="M58.7002 64.049C59.1302 62.2347 58.0019 60.4167 56.1801 59.9885C54.3582 59.5603 52.5328 60.6839 52.1028 62.4983C51.6728 64.3126 52.8011 66.1305 54.6229 66.5587C56.4448 66.987 58.2702 65.8633 58.7002 64.049Z" fill="#242628"/>
<path d="M223.376 73.925C223.612 72.4792 222.626 71.1169 221.174 70.8822C219.723 70.6475 218.355 71.6293 218.119 73.0751C217.883 74.5209 218.869 75.8832 220.321 76.1179C221.773 76.3525 223.141 75.3708 223.376 73.925Z" fill="#111010"/>
<path d="M325.509 84.1467C327.336 82.327 327.336 79.3767 325.509 77.5571C323.682 75.7374 320.72 75.7374 318.892 77.5571C317.065 79.3767 317.065 82.327 318.892 84.1467C320.72 85.9663 323.682 85.9663 325.509 84.1467Z" fill="#242628"/>
<path d="M291.555 66.0156C297.937 66.0156 303.111 60.8634 303.111 54.5078C303.111 48.1522 297.937 43 291.555 43C285.174 43 280 48.1522 280 54.5078C280 60.8634 285.174 66.0156 291.555 66.0156Z" fill="#242628"/>
<path d="M187.488 11.7865C187.485 8.78385 187.481 5.78293 187.478 2.78031C187.478 1.93047 187.476 1.08064 187.474 0.230811C187.474 -0.0786855 186.99 -0.0803954 186.99 0.230811C186.995 3.23344 186.999 6.23435 187.002 9.23698C187.002 10.0868 187.004 10.9366 187.006 11.7865C187.006 12.096 187.49 12.0977 187.49 11.7865H187.488Z" fill="#3D3D4F"/>
<path d="M187.494 19.7085C187.494 18.6022 187.494 17.4959 187.494 16.3896C187.494 16.0801 187.01 16.0784 187.01 16.3896C187.01 17.4959 187.01 18.6022 187.01 19.7085C187.01 20.018 187.494 20.0197 187.494 19.7085Z" fill="#3D3D4F"/>
<path d="M82.5871 59.7208C85.5277 59.7208 87.9115 57.3468 87.9115 54.4183C87.9115 51.4898 85.5277 49.1158 82.5871 49.1158C79.6465 49.1158 77.2627 51.4898 77.2627 54.4183C77.2627 57.3468 79.6465 59.7208 82.5871 59.7208Z" fill="#938337"/>
<path d="M97.4878 129.67C99.2575 128.94 100.098 126.92 99.3648 125.157C98.6318 123.395 96.6029 122.558 94.8332 123.288C93.0635 124.018 92.2231 126.038 92.9562 127.801C93.6892 129.563 95.7181 130.4 97.4878 129.67Z" fill="#938337"/>
<path d="M90.9634 48.4503C92.7331 47.7203 93.5735 45.6998 92.8404 43.9374C92.1074 42.175 90.0785 41.3381 88.3088 42.0681C86.5391 42.7981 85.6987 44.8186 86.4318 46.581C87.1648 48.3434 89.1937 49.1803 90.9634 48.4503Z" fill="#938337"/>
<path d="M171.336 42.2023C172.545 41.7032 173.12 40.3219 172.619 39.117C172.118 37.9121 170.731 37.3399 169.521 37.839C168.311 38.3381 167.736 39.7194 168.237 40.9243C168.739 42.1292 170.126 42.7014 171.336 42.2023Z" fill="#938337"/>
<path d="M152.734 87.6832C153.329 85.8501 154.051 84.0239 155.212 82.4662C156.373 80.9085 157.846 79.809 159.661 79.3541C160.655 79.1045 161.699 79.1011 162.683 79.402C162.757 79.4242 162.789 79.308 162.715 79.2857C160.957 78.7505 159.063 79.1883 157.53 80.1356C155.865 81.1649 154.687 82.7825 153.844 84.5181C153.353 85.5287 152.966 86.5837 152.619 87.6507C152.595 87.7242 152.712 87.7567 152.736 87.6832H152.734Z" fill="#1A1A1A"/>
<path d="M164.356 80.3527C166.313 81.1256 167.481 83.1997 167.106 85.2653C166.904 86.3768 166.262 87.2745 165.494 88.0781C164.797 88.8066 164 89.4598 163.087 89.9009C162.173 90.3421 161.243 90.5353 160.28 90.3865C159.431 90.2566 158.602 89.877 158.018 89.2392C156.545 87.6233 157.405 85.1063 158.657 83.6323C159.352 82.8133 160.286 82.1772 161.358 81.9806C162.429 81.7839 163.623 82.0353 164.448 82.7859C164.505 82.8389 164.591 82.7534 164.534 82.7004C163.792 82.0267 162.781 81.7343 161.789 81.8044C160.796 81.8745 159.866 82.3191 159.124 82.9809C157.644 84.2992 156.482 86.8043 157.498 88.7074C158.394 90.3883 160.597 90.8636 162.311 90.337C163.348 90.0189 164.27 89.3999 165.063 88.6732C165.856 87.9465 166.686 87.0317 167.055 85.9613C167.455 84.8019 167.374 83.487 166.806 82.3961C166.294 81.4129 165.427 80.6417 164.395 80.2347C164.323 80.2057 164.292 80.3219 164.363 80.351L164.356 80.3527Z" fill="#1A1A1A"/>
<path d="M165.227 83.5759C165.456 83.9623 165.607 84.3898 165.674 84.8344C165.686 84.9114 165.803 84.8789 165.791 84.8019C165.724 84.3471 165.567 83.911 165.332 83.5143C165.293 83.4477 165.188 83.5075 165.227 83.5759Z" fill="#1A1A1A"/>
<path d="M158.964 85.7937C159.171 85.0242 159.779 84.3624 160.571 84.1778C161.362 83.9931 162.269 84.3094 162.693 85.0156C163.117 85.7218 163.028 86.6298 162.437 87.2026C161.9 87.7259 161.046 87.9653 160.312 88.0046C160.104 88.0166 159.865 88.0046 159.7 87.8644C159.45 87.6506 159.546 87.2967 159.669 87.0436C159.887 86.5939 160.227 86.2075 160.629 85.9116C160.691 85.8655 160.629 85.7612 160.567 85.8073C160.172 86.098 159.839 86.4674 159.608 86.9C159.426 87.2385 159.288 87.7344 159.669 87.996C160.001 88.2217 160.478 88.1243 160.842 88.0559C161.288 87.9721 161.735 87.8353 162.123 87.5976C162.89 87.1274 163.26 86.2519 162.987 85.3816C162.714 84.5112 161.867 83.9863 160.974 84.0085C159.954 84.0324 159.106 84.8053 158.845 85.7646C158.825 85.8398 158.941 85.8723 158.962 85.7971L158.964 85.7937Z" fill="#1A1A1A"/>
<path d="M147.053 86.1237C147.221 85.5321 147.487 84.9387 148.059 84.6395C148.56 84.3762 149.172 84.3745 149.7 84.5523C150.882 84.9473 151.453 86.2075 151.611 87.3532C151.622 87.4301 151.738 87.3976 151.728 87.3207C151.558 86.0912 150.907 84.7609 149.618 84.4001C149.077 84.2479 148.471 84.277 147.973 84.5489C147.389 84.8686 147.111 85.4808 146.936 86.0912C146.915 86.1665 147.032 86.1972 147.053 86.1237Z" fill="#1A1A1A"/>
<path d="M150.389 86.4589C150.78 86.7427 150.978 87.2608 150.877 87.7327C150.861 87.808 150.978 87.8405 150.993 87.7652C151.107 87.2369 150.887 86.6743 150.449 86.3563C150.386 86.3101 150.325 86.4144 150.387 86.4606L150.389 86.4589Z" fill="#1A1A1A"/>
<path d="M139.422 95.4838C139.575 94.0663 139.97 92.6334 140.837 91.4758C141.634 90.4122 142.817 89.6205 144.166 89.5025C147.02 89.2546 149.283 91.6348 149.784 94.2749C149.939 95.0888 149.92 95.9814 149.508 96.7218C149.165 97.3391 148.577 97.8144 147.867 97.9153C147.789 97.9256 147.822 98.0419 147.899 98.0316C149.276 97.835 149.997 96.4431 149.996 95.1692C149.994 93.7568 149.381 92.3034 148.469 91.2364C147.558 90.1694 146.246 89.4598 144.829 89.3743C143.413 89.2888 142.103 89.9009 141.148 90.9183C139.987 92.158 139.479 93.8303 139.302 95.4838C139.294 95.5608 139.416 95.5608 139.422 95.4838Z" fill="#1A1A1A"/>
<path d="M148.147 95.2068C148.382 96.3507 147.488 97.4348 146.442 97.7939C145.218 98.2146 143.762 97.8897 142.618 97.3596C142.151 97.1424 141.674 96.8398 141.429 96.373C141.109 95.7677 141.365 95.0974 141.641 94.528C141.901 93.9945 142.237 93.4695 142.733 93.1241C143.254 92.7633 143.922 92.647 144.54 92.7736C145.199 92.9087 145.776 93.3173 146.162 93.8611C146.521 94.3672 146.841 95.1418 146.411 95.6975C146.363 95.7591 146.47 95.819 146.516 95.7591C146.887 95.2803 146.732 94.6271 146.471 94.1347C146.18 93.5807 145.707 93.1104 145.136 92.8454C144.564 92.5804 143.879 92.5274 143.271 92.7257C142.663 92.9241 142.194 93.3721 141.851 93.9004C141.508 94.4288 141.109 95.1794 141.157 95.8532C141.197 96.4174 141.568 96.8586 142.021 97.1664C142.562 97.534 143.214 97.7494 143.843 97.9102C144.552 98.0897 145.3 98.1718 146.025 98.0316C147.321 97.7785 148.551 96.5782 148.262 95.1794C148.247 95.1042 148.13 95.135 148.145 95.2119L148.147 95.2068Z" fill="#1A1A1A"/>
<path d="M144.749 94.9349C145.229 95.1589 145.538 95.6753 145.506 96.2037C145.501 96.2806 145.623 96.2806 145.626 96.2037C145.66 95.636 145.325 95.0717 144.809 94.8306C144.738 94.7981 144.676 94.9024 144.747 94.9349H144.749Z" fill="#1A1A1A"/>
<path d="M132.175 96.6449C132.87 95.66 134.235 95.5232 135.276 95.99C136.316 96.4568 137.393 97.5392 137.537 98.7241C137.546 98.7994 137.668 98.8011 137.657 98.7241C137.503 97.4605 136.38 96.3183 135.235 95.8429C134.149 95.3932 132.778 95.5813 132.068 96.5833C132.024 96.6466 132.129 96.7064 132.173 96.6449H132.175Z" fill="#1A1A1A"/>
<path d="M135.389 97.6862C136.074 97.9803 136.524 98.6985 136.485 99.4406C136.481 99.5175 136.601 99.5175 136.605 99.4406C136.646 98.6609 136.17 97.8914 135.449 97.5819C135.379 97.5511 135.317 97.6554 135.387 97.6862H135.389Z" fill="#1A1A1A"/>
<path d="M150.789 90.8978C152.002 90.1386 153.476 89.8291 154.893 90.0429C156.215 90.2412 157.432 90.9047 158.341 91.8776C158.849 92.4231 159.252 93.0609 159.525 93.7534C159.553 93.8252 159.671 93.7944 159.642 93.7209C159.153 92.4761 158.253 91.4125 157.106 90.7166C155.894 89.9813 154.45 89.7163 153.051 89.93C152.226 90.0565 151.435 90.3506 150.729 90.7918C150.664 90.8328 150.724 90.9371 150.791 90.8961L150.789 90.8978Z" fill="#1A1A1A"/>
<path d="M157.542 92.9839C158.545 93.8217 159.243 94.993 159.486 96.2772C159.747 97.6656 159.446 99.1259 158.691 100.318C158.649 100.383 158.754 100.444 158.795 100.379C159.556 99.1789 159.86 97.7135 159.614 96.3114C159.381 94.9845 158.661 93.7636 157.628 92.8984C157.568 92.8488 157.482 92.9343 157.542 92.9839Z" fill="#1A1A1A"/>
<path d="M164.598 91.0996C167.012 88.7194 170.341 86.6623 173.887 87.254C174.74 87.3959 175.607 87.7396 176.122 88.4646C176.167 88.5278 176.272 88.468 176.227 88.403C175.276 87.0624 173.3 86.9291 171.806 87.0915C169.996 87.2899 168.296 88.0405 166.813 89.075C165.989 89.6496 165.228 90.3096 164.514 91.0141C164.459 91.0688 164.545 91.1543 164.6 91.0996H164.598Z" fill="#1A1A1A"/>
<path d="M167.697 92.1734C168.672 91.8109 169.774 91.7168 170.757 92.105C171.601 92.4384 172.304 93.1241 172.577 93.9962C172.599 94.0697 172.717 94.0389 172.693 93.9637C172.415 93.0762 171.716 92.3769 170.863 92.0195C169.845 91.592 168.682 91.6809 167.666 92.0588C167.594 92.0862 167.625 92.2024 167.699 92.1751L167.697 92.1734Z" fill="#1A1A1A"/>
<path d="M173.402 93.8526C173.675 94.2236 173.704 94.74 173.466 95.135C173.426 95.2017 173.531 95.2615 173.57 95.1966C173.828 94.7674 173.806 94.1963 173.507 93.7927C173.461 93.7312 173.356 93.791 173.402 93.8543V93.8526Z" fill="#1A1A1A"/>
<path d="M183.251 87.0402C183.951 87.2933 184.626 87.6575 185.14 88.2064C185.653 88.7553 185.979 89.5059 185.923 90.272C185.917 90.3489 186.038 90.3489 186.043 90.272C186.099 89.494 185.778 88.7365 185.261 88.1619C184.745 87.5874 184.02 87.1907 183.284 86.924C183.21 86.8983 183.179 87.0146 183.251 87.0402Z" fill="#1A1A1A"/>
<path d="M192.837 93.8594C193.955 93.3173 195.281 93.2592 196.446 93.6884C197.02 93.8987 197.6 94.2322 197.99 94.7109C198.38 95.1897 198.539 95.9558 198.083 96.467C198.031 96.5252 198.117 96.6107 198.169 96.5525C198.575 96.096 198.565 95.4274 198.273 94.9127C197.947 94.3365 197.339 93.9398 196.747 93.6798C195.488 93.1275 194.012 93.1549 192.777 93.7551C192.707 93.7893 192.769 93.8936 192.839 93.8594H192.837Z" fill="#1A1A1A"/>
<path d="M121.36 120.037C121.077 123.607 120.718 127.172 120.28 130.727C120.261 130.881 120.504 130.879 120.522 130.727C120.96 127.172 121.319 123.607 121.602 120.037C121.614 119.883 121.372 119.883 121.36 120.037Z" fill="#3D3D4F"/>
<path d="M122.014 121.7C121.956 122.227 121.896 122.754 121.837 123.279C121.831 123.344 121.897 123.398 121.958 123.398C122.03 123.398 122.071 123.344 122.078 123.279C122.136 122.752 122.196 122.225 122.255 121.7C122.261 121.635 122.195 121.581 122.134 121.581C122.062 121.581 122.021 121.635 122.014 121.7Z" fill="#3D3D4F"/>
<path d="M121.798 126.433C121.74 128.275 121.68 130.117 121.621 131.96C121.616 132.115 121.858 132.115 121.863 131.96C121.922 130.118 121.982 128.277 122.04 126.433C122.045 126.278 121.803 126.278 121.798 126.433Z" fill="#3D3D4F"/>
<path d="M123.074 119.592C123.026 122.689 123.057 125.785 123.165 128.88C123.196 129.761 123.233 130.64 123.276 131.52C123.283 131.674 123.525 131.676 123.518 131.52C123.366 128.427 123.29 125.332 123.294 122.236C123.294 121.355 123.302 120.474 123.316 119.594C123.318 119.438 123.075 119.438 123.074 119.594V119.592Z" fill="#3D3D4F"/>
<path d="M124.105 121.697V122.925C124.105 123.08 124.348 123.08 124.348 122.925V121.697C124.348 121.541 124.105 121.541 124.105 121.697Z" fill="#3D3D4F"/>
<path d="M124.337 124.946C124.516 127.105 124.641 129.268 124.717 131.433C124.722 131.587 124.964 131.589 124.959 131.433C124.883 129.268 124.758 127.104 124.579 124.946C124.567 124.792 124.325 124.79 124.337 124.946Z" fill="#3D3D4F"/>
<path d="M125.027 120.408C125.553 123.682 126.08 126.958 126.605 130.233C126.629 130.385 126.863 130.32 126.839 130.17C126.313 126.895 125.786 123.619 125.261 120.344C125.237 120.192 125.003 120.257 125.027 120.408Z" fill="#3D3D4F"/>
<path d="M189.382 113.884C189.355 112.836 189.368 111.689 189.382 110.581C189.396 109.476 189.41 108.336 189.382 107.296L189.866 107.284C189.894 108.332 189.88 109.48 189.866 110.588C189.853 111.692 189.839 112.833 189.866 113.872L189.382 113.884Z" fill="#999999"/>
<path d="M189.866 94.2783L189.382 94.2698C189.43 91.7117 189.43 89.1195 189.382 86.5631C189.349 84.8618 189.296 83.133 189.221 81.4282L189.705 81.4077C189.78 83.1159 189.834 84.8481 189.866 86.5546C189.914 89.1161 189.914 91.7151 189.866 94.2783Z" fill="#999999"/>
<path d="M199.966 106.985C199.794 106.985 199.612 106.959 199.42 106.906C199.006 106.793 198.591 106.566 198.335 106.311L184.073 92.1084C183.817 91.8536 183.589 91.4398 183.476 91.0277C183.314 90.4378 183.404 89.9334 183.732 89.6085C184.058 89.2836 184.564 89.193 185.157 89.3554C185.571 89.4683 185.986 89.6957 186.242 89.9505L200.503 104.153C200.759 104.408 200.987 104.822 201.101 105.234C201.262 105.824 201.173 106.328 200.845 106.653C200.625 106.872 200.321 106.985 199.966 106.985ZM184.693 90.5661C184.724 90.7576 184.851 91.0637 184.987 91.1987L199.248 105.401C199.384 105.536 199.691 105.663 199.883 105.694C199.853 105.502 199.725 105.196 199.59 105.061L185.328 90.8585C185.193 90.7234 184.885 90.5969 184.693 90.5661Z" fill="#999999"/>
<path d="M194.64 112.287C194.468 112.287 194.286 112.262 194.094 112.209C193.68 112.096 193.264 111.868 193.009 111.613L178.747 97.4109C178.491 97.1561 178.263 96.7423 178.15 96.3302C177.988 95.7403 178.078 95.2358 178.405 94.9109C178.732 94.5861 179.238 94.4954 179.831 94.6579C180.244 94.7707 180.66 94.9981 180.916 95.2529L195.177 109.456C195.433 109.71 195.661 110.124 195.775 110.536C195.936 111.126 195.847 111.631 195.519 111.955C195.299 112.174 194.995 112.287 194.64 112.287ZM179.367 95.8685C179.398 96.06 179.525 96.3661 179.661 96.5012L193.922 110.704C194.058 110.839 194.365 110.965 194.557 110.996C194.526 110.805 194.399 110.499 194.264 110.364L180.002 96.1609C179.867 96.0258 179.559 95.8993 179.367 95.8685Z" fill="#999999"/>
<path d="M178.961 107.306C178.606 107.306 178.302 107.193 178.082 106.974C177.756 106.65 177.665 106.145 177.828 105.555C177.942 105.143 178.17 104.729 178.426 104.475L192.687 90.2719C192.943 90.0172 193.358 89.7898 193.772 89.6769C194.365 89.5162 194.871 89.6051 195.197 89.9317C195.524 90.2566 195.615 90.761 195.451 91.3509C195.338 91.763 195.11 92.1768 194.854 92.4316L180.593 106.634C180.337 106.889 179.921 107.116 179.507 107.229C179.315 107.282 179.131 107.308 178.961 107.308V107.306ZM194.234 90.8875C194.042 90.9183 193.734 91.0448 193.599 91.1799L179.337 105.383C179.202 105.518 179.075 105.824 179.044 106.015C179.236 105.984 179.543 105.858 179.679 105.723L193.941 91.5202C194.076 91.3851 194.203 91.079 194.234 90.8875Z" fill="#999999"/>
<path d="M184.287 112.609C183.931 112.609 183.627 112.496 183.407 112.277C183.081 111.952 182.99 111.448 183.153 110.858C183.267 110.446 183.495 110.032 183.751 109.777L198.012 95.5744C198.268 95.3197 198.684 95.0922 199.097 94.9794C199.69 94.8187 200.196 94.9076 200.523 95.2342C200.849 95.559 200.94 96.0635 200.777 96.6534C200.663 97.0655 200.435 97.4793 200.179 97.7341L185.918 111.937C185.662 112.191 185.246 112.419 184.833 112.532C184.64 112.585 184.457 112.61 184.287 112.61V112.609ZM199.559 96.19C199.367 96.2208 199.06 96.3473 198.924 96.4824L184.663 110.685C184.527 110.82 184.4 111.126 184.369 111.318C184.561 111.287 184.869 111.16 185.004 111.025L199.266 96.8227C199.401 96.6876 199.528 96.3815 199.559 96.19Z" fill="#999999"/>
<path d="M202.619 105.068C199.243 105.068 196.973 102.467 196.712 102.154C196.484 101.881 196.523 101.475 196.796 101.25C197.071 101.022 197.478 101.06 197.705 101.333C197.936 101.612 200.06 104.047 203.117 103.76C204.653 103.614 206.379 102.771 207.22 101.754C207.464 101.46 207.744 101.014 207.698 100.559C207.583 99.3995 205.357 98.3667 203.433 98.1666C200.582 97.8691 198.405 99.6389 197.804 100.188C197.542 100.429 197.133 100.412 196.893 100.15C196.65 99.8885 196.668 99.4816 196.93 99.2422C197.631 98.601 200.181 96.5371 203.567 96.8893C205.545 97.0962 208.764 98.2402 208.982 100.434C209.052 101.142 208.788 101.882 208.216 102.573C207.16 103.85 205.114 104.864 203.237 105.042C203.026 105.063 202.82 105.071 202.615 105.071L202.619 105.068Z" fill="#999999"/>
<path d="M200.814 103.943C198.467 103.943 196.894 102.141 196.712 101.923C196.483 101.65 196.521 101.245 196.796 101.019C197.071 100.791 197.478 100.829 197.704 101.103C197.852 101.279 199.203 102.824 201.125 102.642C202.096 102.549 203.185 102.021 203.712 101.383C203.904 101.15 204.001 100.923 203.982 100.744C203.918 100.104 202.505 99.4645 201.332 99.3414C199.523 99.1516 198.134 100.282 197.751 100.632C197.488 100.873 197.079 100.856 196.839 100.595C196.597 100.333 196.614 99.9262 196.877 99.6868C197.497 99.1191 199.184 97.8264 201.466 98.0641C202.852 98.2077 205.108 99.0285 205.266 100.617C205.319 101.147 205.125 101.694 204.708 102.2C203.959 103.105 202.569 103.797 201.245 103.922C201.097 103.936 200.953 103.943 200.812 103.943H200.814Z" fill="#999999"/>
<path d="M176.464 104.746C176.211 104.746 175.952 104.733 175.689 104.705C173.711 104.498 170.492 103.355 170.274 101.161C170.203 100.453 170.468 99.7124 171.04 99.0216C172.096 97.7443 174.142 96.7303 176.019 96.5525C179.734 96.2054 182.271 99.1054 182.547 99.4371C182.775 99.7107 182.736 100.116 182.463 100.342C182.188 100.569 181.781 100.531 181.555 100.258C181.323 99.9792 179.199 97.5442 176.143 97.8315C174.606 97.9768 172.88 98.8198 172.039 99.8372C171.795 100.131 171.515 100.578 171.562 101.032C171.677 102.192 173.902 103.225 175.827 103.425C178.677 103.722 180.854 101.952 181.455 101.404C181.718 101.162 182.126 101.18 182.367 101.441C182.607 101.703 182.592 102.11 182.329 102.349C181.683 102.941 179.467 104.743 176.469 104.743L176.464 104.746Z" fill="#999999"/>
<path d="M178.328 103.555C178.153 103.555 177.973 103.546 177.789 103.527C176.403 103.384 174.147 102.563 173.989 100.974C173.936 100.444 174.13 99.8971 174.547 99.391C175.296 98.4864 176.686 97.7939 178.01 97.6691C180.594 97.428 182.353 99.4372 182.545 99.668C182.773 99.9416 182.735 100.347 182.461 100.573C182.186 100.8 181.779 100.762 181.552 100.489C181.405 100.313 180.054 98.7669 178.132 98.9498C177.16 99.0422 176.072 99.5705 175.545 100.208C175.352 100.441 175.256 100.668 175.275 100.848C175.339 101.487 176.752 102.127 177.924 102.25C179.734 102.438 181.123 101.31 181.504 100.959C181.767 100.718 182.176 100.735 182.416 100.997C182.658 101.258 182.641 101.665 182.378 101.905C181.934 102.313 180.404 103.556 178.328 103.556V103.555Z" fill="#999999"/>
<path d="M191.545 87.7451C191.709 86.7374 191.022 85.7879 190.01 85.6244C188.998 85.4608 188.045 86.1451 187.88 87.1528C187.716 88.1604 188.403 89.1099 189.415 89.2735C190.427 89.437 191.38 88.7528 191.545 87.7451Z" fill="#999999"/>
<path d="M194.626 128.34H184.621L186.719 116.53C186.719 114.888 188.055 113.556 189.705 113.556C191.353 113.556 192.691 114.886 192.691 116.53L194.628 128.34H194.626Z" fill="#4D4C63"/>
<path d="M194.626 128.34C194.626 128.961 192.387 129.465 189.625 129.465C186.862 129.465 184.623 128.961 184.623 128.34C184.623 127.719 186.862 127.215 189.625 127.215C192.387 127.215 194.626 127.719 194.626 128.34Z" fill="#4D4C63"/>
<path opacity="0.47" d="M214.414 39.0717C213.649 39.0478 212.718 38.9606 211.681 38.7314C210.788 38.5348 210.012 38.2766 209.361 38.0167C208.369 35.5219 208.072 31.1394 208.12 29.9971C208.084 31.1599 207.948 32.574 207.598 34.1488C207.265 35.6519 206.815 36.936 206.374 37.9825C205.776 38.2099 205.083 38.4288 204.298 38.6015C203.261 38.8306 202.33 38.9178 201.564 38.9417C202.253 38.9127 204.729 39.0734 206.403 39.5966C206.834 40.6294 207.27 41.8897 207.596 43.3602C207.947 44.935 208.08 46.3491 208.118 47.5119C208.072 46.4227 208.34 42.3804 209.227 39.8446C210.884 39.2256 213.674 39.0409 214.411 39.0717H214.414Z" fill="#FFEB62"/>
<path d="M182.04 50.2444V48.2899C182.04 47.4709 182.643 46.7749 183.458 46.6569C185.143 46.4141 187.05 46.1953 189.14 46.226C191.102 46.2551 192.897 46.4176 194.49 46.6433C195.307 46.7595 195.917 47.4538 195.917 48.278V50.4051C191.291 50.3521 186.666 50.2974 182.04 50.2444Z" fill="#3D3D4F"/>
<path d="M182.202 77.7194V79.6738C182.202 80.4929 182.805 81.1888 183.62 81.3068C185.305 81.5496 187.212 81.7685 189.302 81.7377C191.264 81.7086 193.059 81.5462 194.652 81.3205C195.469 81.2042 196.079 80.51 196.079 79.6858V77.5587C191.453 77.6117 186.828 77.6664 182.202 77.7194Z" fill="#3D3D4F"/>
<path d="M189.059 79.6516C198.995 79.6516 207.05 72.8167 207.05 64.3854C207.05 55.9541 198.995 49.1192 189.059 49.1192C179.123 49.1192 171.068 55.9541 171.068 64.3854C171.068 72.8167 179.123 79.6516 189.059 79.6516Z" fill="#55556D"/>
<path d="M188.963 48.4865C189.118 50.1828 189.188 51.8858 189.171 53.5889C189.171 53.7445 189.412 53.7445 189.413 53.5889C189.43 51.8858 189.362 50.1828 189.206 48.4865C189.192 48.3326 188.95 48.3326 188.963 48.4865Z" fill="#3D3D4F"/>
<path d="M189.174 55.528C189.13 55.8512 189.152 56.1778 189.253 56.489C189.274 56.5505 189.337 56.5916 189.403 56.5728C189.464 56.5557 189.507 56.4873 189.487 56.424C189.399 56.1572 189.368 55.87 189.408 55.5913C189.416 55.5263 189.392 55.4613 189.324 55.4425C189.267 55.4271 189.185 55.4613 189.174 55.5263V55.528Z" fill="#3D3D4F"/>
<path d="M189.277 58.2451C189.231 63.3338 189.186 68.4208 189.14 73.5095C189.126 74.9596 189.114 76.4096 189.101 77.8579C189.101 78.0135 189.341 78.0135 189.343 77.8579C189.389 72.7691 189.434 67.6821 189.48 62.5934C189.494 61.1434 189.506 59.6934 189.52 58.2451C189.52 58.0895 189.279 58.0895 189.277 58.2451Z" fill="#3D3D4F"/>
<path d="M183.805 49.5638C180.955 52.775 179.001 56.7523 178.189 60.9604C177.962 62.1334 177.825 63.3235 177.778 64.5171C177.772 64.6727 178.014 64.6727 178.021 64.5171C178.187 60.2987 179.514 56.1487 181.803 52.5955C182.452 51.5866 183.178 50.6308 183.975 49.7331C184.078 49.6168 183.908 49.4458 183.803 49.5621L183.805 49.5638Z" fill="#3D3D4F"/>
<path d="M177.925 66.5741V68.0959C177.925 68.2515 178.167 68.2515 178.167 68.0959V66.5741C178.167 66.4185 177.925 66.4185 177.925 66.5741Z" fill="#3D3D4F"/>
<path d="M178.272 69.9785C178.433 72.1792 178.942 74.3423 179.779 76.3839C179.838 76.5258 180.071 76.4643 180.013 76.3207C179.182 74.2995 178.674 72.157 178.514 69.9785C178.502 69.8247 178.26 69.8229 178.272 69.9785Z" fill="#3D3D4F"/>
<path d="M193.995 49.2098C195.678 50.3555 197.009 51.9662 197.823 53.8266C197.884 53.9686 198.094 53.8454 198.032 53.7052C197.201 51.8072 195.834 50.1708 194.119 49.0029C193.99 48.9157 193.868 49.1243 193.997 49.2115L193.995 49.2098Z" fill="#3D3D4F"/>
<path d="M199.178 56.6565C199.35 57.108 199.523 57.5577 199.695 58.0091C199.719 58.0706 199.777 58.1117 199.844 58.0929C199.903 58.0775 199.952 58.0057 199.928 57.9441C199.757 57.4927 199.583 57.043 199.412 56.5916C199.388 56.53 199.329 56.489 199.262 56.5078C199.204 56.5232 199.154 56.595 199.178 56.6565Z" fill="#3D3D4F"/>
<path d="M200.692 61.5315C201.168 65.6319 201.183 69.9204 199.561 73.7917C199.137 74.8022 198.603 75.7649 197.959 76.6541C197.868 76.7806 198.077 76.9003 198.168 76.7755C200.574 73.4565 201.304 69.2809 201.213 65.2643C201.183 64.016 201.08 62.7695 200.936 61.5298C200.919 61.3776 200.677 61.3759 200.694 61.5298L200.692 61.5315Z" fill="#3D3D4F"/>
<path d="M189.435 46.6928C189.394 42.5582 189.385 38.4236 189.384 34.2907C189.384 33.1126 189.384 31.9345 189.384 30.7563C189.384 30.4468 188.899 30.4451 188.899 30.7563C188.899 34.9012 188.899 39.046 188.922 43.1892C188.929 44.3571 188.937 45.5249 188.949 46.6928C188.953 47.0023 189.437 47.004 189.433 46.6928H189.435Z" fill="#3D3D4F"/>
<path d="M206.349 94.9418C206.763 95.0786 207.086 95.4359 207.17 95.8617C207.254 96.2875 207.07 96.7611 206.725 97.0381C206.665 97.0877 206.751 97.1715 206.811 97.1236C207.191 96.8176 207.381 96.308 207.287 95.8292C207.192 95.3504 206.832 94.9725 206.382 94.8238C206.308 94.7998 206.275 94.9161 206.349 94.9401V94.9418Z" fill="#1A1A1A"/>
<path d="M187.93 116.569C187.88 116.892 187.83 117.215 187.78 117.538C187.77 117.603 187.798 117.668 187.865 117.687C187.921 117.703 188.004 117.668 188.014 117.603C188.064 117.28 188.114 116.957 188.163 116.634C188.174 116.569 188.146 116.504 188.079 116.485C188.023 116.47 187.94 116.504 187.93 116.569Z" fill="#3D3D4F"/>
<path d="M187.607 119.424C187.454 120.707 187.301 121.989 187.148 123.272C187.073 123.906 186.997 124.541 186.921 125.175C186.846 125.809 186.736 126.427 186.751 127.054C186.755 127.21 186.997 127.21 186.994 127.054C186.978 126.427 187.09 125.796 187.164 125.175C187.237 124.554 187.315 123.906 187.39 123.272C187.543 121.989 187.696 120.707 187.849 119.424C187.868 119.271 187.625 119.272 187.607 119.424Z" fill="#3D3D4F"/>
<path d="M189 115.904C188.948 116.839 188.897 117.776 188.847 118.711C188.838 118.867 189.08 118.865 189.089 118.711C189.141 117.776 189.192 116.839 189.242 115.904C189.25 115.748 189.008 115.75 189 115.904Z" fill="#3D3D4F"/>
<path d="M188.526 123.884C188.486 125.201 188.447 126.517 188.405 127.832C188.4 127.988 188.642 127.988 188.647 127.832C188.687 126.515 188.726 125.199 188.768 123.884C188.773 123.728 188.531 123.728 188.526 123.884Z" fill="#3D3D4F"/>
<path d="M190.277 116.169C190.182 119.676 190.172 123.186 190.246 126.693C190.249 126.849 190.491 126.849 190.488 126.693C190.414 123.186 190.424 119.676 190.519 116.169C190.522 116.013 190.28 116.013 190.277 116.169Z" fill="#3D3D4F"/>
<path d="M191.039 116.606V118.361C191.039 118.516 191.281 118.516 191.281 118.361V116.606C191.281 116.451 191.039 116.451 191.039 116.606Z" fill="#3D3D4F"/>
<path d="M191.671 123.71C191.735 125.024 191.8 126.341 191.863 127.656C191.87 127.81 192.112 127.812 192.105 127.656C192.042 126.341 191.977 125.024 191.913 123.71C191.906 123.556 191.664 123.554 191.671 123.71Z" fill="#3D3D4F"/>
<path d="M192.262 119.325C192.293 119.734 192.326 120.144 192.356 120.553C192.362 120.618 192.408 120.673 192.477 120.673C192.538 120.673 192.602 120.618 192.597 120.553C192.566 120.144 192.533 119.734 192.502 119.325C192.497 119.26 192.451 119.206 192.382 119.206C192.32 119.206 192.257 119.26 192.262 119.325Z" fill="#3D3D4F"/>
<path d="M237.148 120.36C237.18 118.636 237.182 116.86 237.148 115.032C237.125 113.824 237.088 112.641 237.036 111.482" stroke="#3D3D4F" stroke-width="2.82" stroke-miterlimit="10"/>
<path d="M237.148 116.697C237.578 116.697 237.927 116.35 237.927 115.921C237.927 115.492 237.578 115.144 237.148 115.144C236.717 115.144 236.368 115.492 236.368 115.921C236.368 116.35 236.717 116.697 237.148 116.697Z" fill="#4D4C63"/>
<path d="M240.714 130.236H233.805L235.254 122.08C235.254 120.946 236.178 120.026 237.316 120.026C238.454 120.026 239.378 120.946 239.378 122.08L240.716 130.236H240.714Z" fill="#4D4C63"/>
<path d="M237.259 131.013C239.167 131.013 240.714 130.665 240.714 130.236C240.714 129.808 239.167 129.46 237.259 129.46C235.351 129.46 233.805 129.808 233.805 130.236C233.805 130.665 235.351 131.013 237.259 131.013Z" fill="#4D4C63"/>
<path d="M232.134 92.6162V91.2671C232.134 90.7011 232.551 90.2206 233.112 90.1403C234.275 89.9727 235.592 89.8205 237.036 89.8427C238.391 89.8633 239.63 89.9744 240.731 90.13C241.296 90.2104 241.716 90.6909 241.716 91.2586V92.7274C238.523 92.6898 235.327 92.6539 232.134 92.6162Z" fill="#3D3D4F"/>
<path d="M232.245 111.591V112.94C232.245 113.506 232.662 113.987 233.224 114.067C234.386 114.235 235.703 114.387 237.147 114.365C238.502 114.344 239.742 114.233 240.842 114.078C241.407 113.997 241.828 113.517 241.828 112.949V111.48C238.634 111.518 235.439 111.554 232.245 111.591Z" fill="#3D3D4F"/>
<path d="M236.981 112.923C243.843 112.923 249.405 108.204 249.405 102.382C249.405 96.5596 243.843 91.84 236.981 91.84C230.119 91.84 224.557 96.5596 224.557 102.382C224.557 108.204 230.119 112.923 236.981 112.923Z" fill="#4D4C63"/>
<path d="M236.877 91.4039C236.983 92.5752 237.031 93.7517 237.019 94.9281C237.019 95.0837 237.259 95.0837 237.261 94.9281C237.273 93.7517 237.225 92.5752 237.119 91.4039C237.105 91.25 236.863 91.25 236.877 91.4039Z" fill="#3D3D4F"/>
<path d="M237.024 96.2567C236.991 96.4858 237.007 96.7183 237.079 96.9406C237.098 97.0005 237.163 97.0449 237.228 97.0244C237.289 97.0056 237.333 96.9406 237.313 96.8756C237.297 96.8278 237.285 96.7816 237.275 96.732C237.27 96.7064 237.264 96.679 237.261 96.6534C237.256 96.6157 237.263 96.6773 237.259 96.6397C237.259 96.626 237.256 96.614 237.256 96.6003C237.251 96.5508 237.249 96.5012 237.251 96.4516C237.251 96.4276 237.251 96.402 237.254 96.3781C237.254 96.3661 237.256 96.3558 237.258 96.3439C237.258 96.3387 237.264 96.2943 237.259 96.3199C237.264 96.2857 237.264 96.2584 237.247 96.2276C237.232 96.2019 237.204 96.178 237.175 96.1729C237.119 96.1592 237.036 96.19 237.026 96.2567H237.024Z" fill="#3D3D4F"/>
<path d="M237.093 98.1428C237.062 101.663 237.029 105.184 236.998 108.707C236.99 109.7 236.981 110.694 236.971 111.689C236.971 111.844 237.211 111.844 237.213 111.689C237.244 108.168 237.276 104.647 237.307 101.125C237.316 100.131 237.324 99.1379 237.335 98.1428C237.335 97.9872 237.094 97.9872 237.093 98.1428Z" fill="#3D3D4F"/>
<path d="M233.326 92.1204C231.362 94.3364 230.009 97.074 229.444 99.9775C229.284 100.802 229.186 101.636 229.153 102.474C229.147 102.63 229.389 102.63 229.396 102.474C229.512 99.5722 230.422 96.7201 231.993 94.2749C232.443 93.5755 232.946 92.9138 233.497 92.2914C233.601 92.1751 233.431 92.0041 233.326 92.1204Z" fill="#3D3D4F"/>
<path d="M229.254 103.895V104.947C229.254 105.102 229.496 105.102 229.496 104.947V103.895C229.496 103.739 229.254 103.739 229.254 103.895Z" fill="#3D3D4F"/>
<path d="M229.493 106.244C229.606 107.768 229.956 109.262 230.535 110.678C230.593 110.82 230.827 110.759 230.768 110.615C230.197 109.221 229.846 107.747 229.735 106.246C229.723 106.092 229.481 106.09 229.493 106.246V106.244Z" fill="#3D3D4F"/>
<path d="M240.37 91.934C241.527 92.7223 242.439 93.8286 242.999 95.1076C243.061 95.2496 243.27 95.1265 243.208 94.9862C242.632 93.6696 241.684 92.5359 240.492 91.7254C240.363 91.6382 240.241 91.8468 240.37 91.934Z" fill="#3D3D4F"/>
<path d="M243.933 97.0552C244.051 97.3664 244.172 97.6776 244.29 97.9888C244.314 98.0504 244.372 98.0914 244.439 98.0726C244.498 98.0572 244.548 97.9854 244.524 97.9239C244.405 97.6127 244.285 97.3014 244.166 96.9902C244.142 96.9287 244.084 96.8876 244.017 96.9065C243.959 96.9218 243.909 96.9937 243.933 97.0552Z" fill="#3D3D4F"/>
<path d="M244.977 100.412C245.303 103.23 245.319 106.181 244.208 108.843C243.914 109.548 243.542 110.218 243.094 110.837C243.003 110.964 243.212 111.083 243.303 110.959C244.962 108.664 245.472 105.784 245.412 103.009C245.393 102.141 245.321 101.275 245.221 100.413C245.204 100.261 244.962 100.26 244.979 100.413L244.977 100.412Z" fill="#3D3D4F"/>
<path d="M237.279 15.0011C237.279 12.7167 237.279 10.4339 237.279 8.14945C237.279 7.83995 236.795 7.83824 236.795 8.14945C236.795 10.4339 236.795 12.7167 236.795 15.0011C236.795 15.3106 237.279 15.3123 237.279 15.0011Z" fill="#3D3D4F"/>
<path d="M237.279 22.0751C237.279 20.9414 237.279 19.806 237.279 18.6723C237.279 18.3628 236.795 18.3611 236.795 18.6723C236.795 19.806 236.795 20.9414 236.795 22.0751C236.795 22.3846 237.279 22.3863 237.279 22.0751Z" fill="#3D3D4F"/>
<path d="M237.279 29.8074C237.279 28.4685 237.279 27.1296 237.279 25.789C237.279 25.4795 236.795 25.4778 236.795 25.789C236.795 27.1279 236.795 28.4668 236.795 29.8074C236.795 30.1169 237.279 30.1186 237.279 29.8074Z" fill="#3D3D4F"/>
<path d="M237.314 90.1642C237.309 89.1708 237.307 88.1756 237.303 87.1821C237.3 85.6329 237.298 84.0837 237.297 82.5346C237.295 80.5733 237.291 78.6137 237.291 76.6524C237.29 74.397 237.288 72.1433 237.286 69.888C237.286 67.4821 237.285 65.0745 237.283 62.6687C237.283 60.2457 237.283 57.821 237.281 55.3981C237.281 53.1016 237.281 50.8069 237.281 48.5105C237.281 46.4569 237.281 44.4016 237.281 42.3479C237.281 40.6808 237.281 39.0136 237.281 37.3464C237.281 36.2008 237.281 35.0551 237.281 33.9095C237.281 33.7248 237.281 33.5401 237.281 33.3554C237.281 33.0459 236.797 33.0442 236.797 33.3554C236.797 34.354 236.797 35.3526 236.797 36.3495C236.797 37.9021 236.797 39.4547 236.797 41.0074C236.797 42.9703 236.797 44.9333 236.797 46.8963C236.797 49.1534 236.797 51.4088 236.797 53.6659C236.797 56.0735 236.797 58.4811 236.799 60.8869C236.8 63.2928 236.8 65.7328 236.802 68.1558C236.802 70.4505 236.804 72.7452 236.805 75.0382C236.805 77.0902 236.809 79.1421 236.811 81.194C236.812 82.8577 236.814 84.5215 236.817 86.187C236.819 87.3292 236.823 88.4697 236.826 89.6119C236.826 89.7949 236.826 89.9779 236.828 90.1625C236.828 90.472 237.314 90.4737 237.312 90.1625L237.314 90.1642Z" fill="#3D3D4F"/>
<path d="M259.217 45.7269C259.637 43.9558 258.535 42.1811 256.757 41.7631C254.978 41.3451 253.196 42.442 252.777 44.2131C252.357 45.9843 253.458 47.7589 255.237 48.1769C257.015 48.595 258.797 47.4981 259.217 45.7269Z" fill="#242628"/>
<path d="M236.328 122.46C236.277 124.686 236.157 126.911 235.964 129.13C235.951 129.284 236.193 129.284 236.207 129.13C236.399 126.911 236.519 124.686 236.571 122.46C236.574 122.304 236.332 122.304 236.328 122.46Z" fill="#3D3D4F"/>
<path d="M237.074 123.6V125.618C237.074 125.773 237.316 125.773 237.316 125.618V123.6C237.316 123.444 237.074 123.444 237.074 123.6Z" fill="#3D3D4F"/>
<path d="M237.32 128.514C237.354 129.157 237.387 129.8 237.421 130.443C237.429 130.597 237.672 130.599 237.663 130.443C237.629 129.8 237.596 129.157 237.562 128.514C237.553 128.36 237.311 128.359 237.32 128.514Z" fill="#3D3D4F"/>
<path d="M238.342 122.4C238.677 124.717 239.057 127.027 239.481 129.328C239.508 129.481 239.742 129.416 239.714 129.265C239.29 126.963 238.911 124.653 238.576 122.336C238.554 122.184 238.32 122.249 238.342 122.4Z" fill="#3D3D4F"/>
</g>
<defs>
<clipPath id="clip0_4176_13235">
<rect width="342" height="140" fill="white"/>
</clipPath>
</defs>
</svg>
