<svg width="1056" height="541" viewBox="0 0 1056 541" fill="none" xmlns="http://www.w3.org/2000/svg">
<g clip-path="url(#clip0_1742_25865)">
<path d="M1281.96 52.0876C1277.84 99.1869 1257.1 144.701 1227.52 182.343C1226.28 183.918 1225.03 185.477 1223.76 187.023C1220.92 190.499 1217.99 193.91 1215 197.256C1211.33 201.378 1207.56 205.405 1203.68 209.337C1200.52 212.573 1197.29 215.74 1193.98 218.838C1191.43 221.254 1188.85 223.623 1186.24 225.944C1154.85 254.031 1118.79 277.209 1081.63 297.479C1009.12 337.023 929.636 366.98 846.964 371.342C764.303 375.693 678.009 352.253 617.388 296.429C535.687 221.199 512.885 95.7212 546.056 -9.74939C568.118 -79.9173 613.147 -143.394 674.431 -184.852C735.185 -225.949 811.828 -244.448 884.364 -232.356C942.268 -267.2 1018.07 -267.866 1081.02 -242.075C1114.61 -228.311 1144.76 -207.844 1171.2 -183.114C1183.32 -171.765 1194.65 -159.627 1205.13 -146.784C1206.2 -145.482 1207.26 -144.171 1208.31 -142.848C1212.7 -137.348 1216.95 -131.736 1221.06 -126.011C1226.96 -117.8 1232.55 -109.407 1237.85 -100.832C1239.31 -98.4706 1240.76 -96.0981 1242.17 -93.7038C1243.12 -92.0966 1244.08 -90.4786 1245.02 -88.8495C1245.04 -88.8161 1245.06 -88.779 1245.07 -88.7402C1259.76 -63.1461 1271.78 -35.8354 1278.04 -7.2894C1279.14 -2.23834 1280.07 2.83456 1280.79 7.9512V7.96213C1281.42 12.3025 1281.89 16.6648 1282.21 21.0489C1282.97 31.3852 1282.88 41.7648 1281.96 52.0876Z" fill="#111010"/>
<path opacity="0.3" d="M1066.24 123.291L902.307 -11.9263L1061.56 128.707C1061.87 129.221 1062.3 129.655 1062.81 129.973C1063.32 130.291 1063.91 130.484 1064.51 130.535C1065.11 130.586 1065.71 130.495 1066.27 130.268C1066.83 130.041 1067.33 129.685 1067.72 129.231C1068.11 128.776 1068.39 128.235 1068.53 127.653C1068.67 127.071 1068.67 126.464 1068.52 125.884C1068.38 125.303 1068.09 124.765 1067.7 124.314C1067.3 123.863 1066.8 123.512 1066.24 123.291Z" fill="#F0F0F0"/>
<path d="M690.298 54.4823C744.574 54.4823 788.573 10.918 788.573 -42.8213C788.573 -96.5607 744.574 -140.125 690.298 -140.125C636.023 -140.125 592.023 -96.5607 592.023 -42.8213C592.023 10.918 636.023 54.4823 690.298 54.4823Z" fill="#3F3D56"/>
<path d="M777.531 -49.3813C777.532 -37.7516 775.219 -26.2356 770.724 -15.4909C766.23 -4.74622 759.642 5.01665 751.336 13.2401C743.03 21.4636 733.17 27.9866 722.318 32.4367C711.466 36.8868 699.835 39.1768 688.09 39.1759C677.621 39.1701 667.233 37.3572 657.393 33.8187C642.007 28.2689 628.453 18.6462 618.208 5.99815C607.963 -6.64987 601.419 -21.8384 599.288 -37.9138C597.158 -53.9892 599.522 -70.3354 606.124 -85.1726C612.725 -100.01 623.312 -112.769 636.73 -122.062C650.149 -131.355 665.885 -136.825 682.226 -137.876C698.566 -138.927 714.885 -135.52 729.405 -128.025C743.925 -120.529 756.09 -109.233 764.576 -95.3669C773.062 -81.5004 777.542 -65.5946 777.531 -49.3813Z" fill="#1B1D1F"/>
<path d="M677.048 35.8959C677.047 36.7598 676.932 37.6199 676.705 38.4542C670.111 37.6375 663.632 36.0823 657.393 33.8186C657.911 31.4445 659.297 29.344 661.286 27.9212C663.274 26.4984 665.724 25.854 668.163 26.1118C670.602 26.3696 672.859 27.5115 674.499 29.3177C676.14 31.1239 677.047 33.467 677.048 35.8959Z" fill="#3F3D56"/>
<path d="M687.781 280.064C689.1 280.064 690.17 279.005 690.17 277.699C690.17 276.393 689.1 275.334 687.781 275.334C686.462 275.334 685.393 276.393 685.393 277.699C685.393 279.005 686.462 280.064 687.781 280.064Z" fill="#F0F0F0"/>
<path d="M776.288 70.2308C778.546 70.2308 780.377 68.4186 780.377 66.183C780.377 63.9475 778.546 62.1353 776.288 62.1353C774.031 62.1353 772.2 63.9475 772.2 66.183C772.2 68.4186 774.031 70.2308 776.288 70.2308Z" fill="#FFEB62"/>
<path d="M628.324 157.455C638.986 157.455 647.629 148.897 647.629 138.341C647.629 127.784 638.986 119.227 628.324 119.227C617.663 119.227 609.02 127.784 609.02 138.341C609.02 148.897 617.663 157.455 628.324 157.455Z" fill="#FFEB62"/>
<path d="M734.158 161.987C735.477 161.987 736.547 160.928 736.547 159.622C736.547 158.316 735.477 157.257 734.158 157.257C732.839 157.257 731.77 158.316 731.77 159.622C731.77 160.928 732.839 161.987 734.158 161.987Z" fill="#F0F0F0"/>
<path d="M834.641 296.463C835.961 296.463 837.03 295.404 837.03 294.098C837.03 292.792 835.961 291.733 834.641 291.733C833.322 291.733 832.253 292.792 832.253 294.098C832.253 295.404 833.322 296.463 834.641 296.463Z" fill="#F0F0F0"/>
<path d="M766.488 210.798C767.807 210.798 768.877 209.739 768.877 208.433C768.877 207.127 767.807 206.068 766.488 206.068C765.169 206.068 764.1 207.127 764.1 208.433C764.1 209.739 765.169 210.798 766.488 210.798Z" fill="#F0F0F0"/>
<path d="M1045.85 226.104C1047.17 226.104 1048.24 225.046 1048.24 223.739C1048.24 222.433 1047.17 221.375 1045.85 221.375C1044.53 221.375 1043.46 222.433 1043.46 223.739C1043.46 225.046 1044.53 226.104 1045.85 226.104Z" fill="#F0F0F0"/>
<path d="M922.181 88.3484C923.501 88.3484 924.57 87.2896 924.57 85.9836C924.57 84.6775 923.501 83.6187 922.181 83.6187C920.862 83.6187 919.793 84.6775 919.793 85.9836C919.793 87.2896 920.862 88.3484 922.181 88.3484Z" fill="#F0F0F0"/>
<path d="M907.419 174.923C910.035 174.923 912.155 172.824 912.155 170.234C912.155 167.644 910.035 165.545 907.419 165.545C904.804 165.545 902.684 167.644 902.684 170.234C902.684 172.824 904.804 174.923 907.419 174.923Z" fill="#FF6584"/>
<path d="M1232.54 265.653C1218.28 265.653 1202.66 265.12 1185.66 264.053C1097.75 258.526 983.88 239.309 865.025 209.943C746.17 180.578 636.53 144.57 556.304 108.557C517.223 91.0127 487.228 74.4061 467.155 59.197C445.902 43.096 436.606 29.0613 439.523 17.4846C445.208 -5.06902 495.541 -10.0033 536.764 -10.1709L536.778 -6.891C480.168 -6.66091 446.77 2.2782 442.738 18.2789C437.601 38.6582 479.493 70.4738 557.671 105.569C637.722 141.504 747.16 177.442 865.827 206.762C984.494 236.08 1098.15 255.264 1185.87 260.78C1271.53 266.167 1323.61 257.568 1328.75 237.188C1333.01 220.268 1304.9 195.342 1249.59 167L1251.11 164.088C1291.3 184.681 1337.95 214.217 1331.96 237.982C1329.05 249.559 1314.18 257.623 1287.78 261.951C1272.73 264.417 1254.24 265.653 1232.54 265.653Z" fill="#FFEB62"/>
<path d="M704.081 305.477C664.772 305.478 628.228 304.142 595.512 301.447C552.75 297.924 518.864 292.26 494.797 284.614C469.315 276.518 455.797 266.392 454.617 254.517C452.317 231.385 498.05 209.993 536.82 196.121L537.946 199.207C484.704 218.256 456.282 237.785 457.913 254.197C459.991 275.1 510.244 291.13 595.787 298.178C683.378 305.394 798.649 302.837 920.366 290.973C1042.08 279.112 1155.65 259.37 1240.14 235.384C1322.65 211.959 1368.78 186.535 1366.7 165.632C1364.98 148.277 1330.04 134.153 1268.33 125.859L1268.77 122.609C1313.62 128.635 1367.58 140.935 1370 165.311C1371.18 177.186 1359.92 189.727 1336.52 202.586C1314.42 214.732 1282.3 226.827 1241.05 238.537C1156.37 262.576 1042.6 282.357 920.691 294.238C844.214 301.691 770.248 305.477 704.081 305.477Z" fill="#FFEB62"/>
<path d="M460.484 176.041C471.146 176.041 479.789 167.483 479.789 156.927C479.789 146.37 471.146 137.812 460.484 137.812C449.822 137.812 441.179 146.37 441.179 156.927C441.179 167.483 449.822 176.041 460.484 176.041Z" fill="#3F3D56"/>
<path d="M524.529 257.185C531.055 257.185 536.346 251.946 536.346 245.484C536.346 239.022 531.055 233.783 524.529 233.783C518.002 233.783 512.711 239.022 512.711 245.484C512.711 251.946 518.002 257.185 524.529 257.185Z" fill="#FF6584"/>
</g>
<defs>
<clipPath id="clip0_1742_25865">
<rect width="1056" height="541" fill="white"/>
</clipPath>
</defs>
</svg>
