<svg width="341" height="690" viewBox="0 0 341 690" fill="none" xmlns="http://www.w3.org/2000/svg">
<g clip-path="url(#clip0_1781_4734)">
<path d="M456.809 648.903C454.577 674.413 443.34 699.064 427.309 719.451C426.639 720.304 425.96 721.149 425.274 721.986C423.73 723.869 422.147 725.716 420.523 727.528C418.536 729.76 416.492 731.942 414.39 734.071C412.678 735.824 410.927 737.539 409.136 739.217C407.754 740.526 406.355 741.809 404.941 743.066C387.929 758.278 368.386 770.832 348.25 781.81C308.954 803.228 265.882 819.453 221.081 821.815C176.286 824.172 129.522 811.477 96.6708 781.242C52.3963 740.496 40.0396 672.536 58.0151 615.411C69.9709 577.407 94.373 543.027 127.583 520.573C160.507 498.315 202.041 488.295 241.349 494.845C272.728 475.973 313.807 475.612 347.921 489.58C366.124 497.035 382.46 508.12 396.791 521.515C403.354 527.662 409.495 534.235 415.174 541.192C415.754 541.896 416.328 542.607 416.897 543.324C419.278 546.302 421.582 549.342 423.808 552.443C427.004 556.89 430.037 561.435 432.91 566.08C433.7 567.359 434.483 568.644 435.249 569.94C435.764 570.811 436.285 571.687 436.793 572.57C436.805 572.588 436.813 572.608 436.817 572.629C444.782 586.491 451.292 601.283 454.685 616.744C455.283 619.479 455.786 622.227 456.175 624.998V625.004C456.516 627.355 456.773 629.718 456.947 632.092C457.356 637.69 457.31 643.312 456.809 648.903Z" fill="#111010"/>
<path opacity="0.3" d="M339.91 687.467L251.072 614.232L337.376 690.401C337.543 690.679 337.775 690.914 338.052 691.087C338.33 691.259 338.645 691.363 338.971 691.391C339.297 691.419 339.625 691.369 339.928 691.246C340.231 691.123 340.5 690.931 340.713 690.684C340.925 690.438 341.076 690.145 341.151 689.83C341.227 689.515 341.225 689.186 341.146 688.872C341.068 688.557 340.915 688.266 340.7 688.021C340.484 687.777 340.214 687.587 339.91 687.467Z" fill="#F0F0F0"/>
<path d="M136.182 650.2C165.595 650.2 189.438 626.605 189.438 597.499C189.438 568.393 165.595 544.798 136.182 544.798C106.769 544.798 82.9258 568.393 82.9258 597.499C82.9258 626.605 106.769 650.2 136.182 650.2Z" fill="#3F3D56"/>
<path d="M183.454 593.946C183.455 600.245 182.201 606.482 179.766 612.301C177.33 618.121 173.76 623.409 169.259 627.863C164.758 632.317 159.415 635.849 153.534 638.26C147.653 640.67 141.35 641.91 134.985 641.91C129.312 641.907 123.682 640.925 118.35 639.008C110.012 636.002 102.668 630.791 97.1156 623.94C91.5637 617.09 88.0173 608.864 86.8626 600.157C85.7079 591.45 86.9891 582.597 90.5667 574.561C94.1443 566.525 99.8813 559.614 107.153 554.581C114.425 549.548 122.952 546.585 131.807 546.016C140.662 545.447 149.506 547.292 157.375 551.352C165.243 555.411 171.836 561.529 176.434 569.04C181.033 576.55 183.461 585.165 183.454 593.946Z" fill="#1B1D1F"/>
<path d="M126.608 592.762C134.87 592.762 141.568 586.134 141.568 577.958C141.568 569.782 134.87 563.154 126.608 563.154C118.346 563.154 111.648 569.782 111.648 577.958C111.648 586.134 118.346 592.762 126.608 592.762Z" fill="#3F3D56"/>
<path d="M181.563 580.64C178.321 582.184 174.625 582.519 171.154 581.586C167.682 580.652 164.666 578.511 162.66 575.556C160.653 572.6 159.79 569.028 160.229 565.495C160.667 561.961 162.378 558.702 165.048 556.315C172.981 562.521 178.756 571.026 181.563 580.64Z" fill="#3F3D56"/>
<path d="M151.141 615.263C154.116 615.263 156.527 612.877 156.527 609.934C156.527 606.991 154.116 604.604 151.141 604.604C148.167 604.604 145.756 606.991 145.756 609.934C145.756 612.877 148.167 615.263 151.141 615.263Z" fill="#3F3D56"/>
<path d="M129.001 640.133C129 640.601 128.938 641.067 128.815 641.519C125.242 641.076 121.731 640.234 118.35 639.008C118.63 637.722 119.382 636.584 120.459 635.814C121.537 635.043 122.864 634.694 124.186 634.834C125.508 634.973 126.731 635.592 127.62 636.57C128.509 637.548 129.001 638.817 129.001 640.133Z" fill="#3F3D56"/>
<path d="M97.2866 591.577C97.2863 594.281 96.2478 596.884 94.3813 598.858C92.5148 600.833 89.9599 602.032 87.2337 602.212C85.9998 595.174 86.3595 587.952 88.2869 581.067C90.8012 581.482 93.0854 582.766 94.7333 584.69C96.3811 586.615 97.2859 589.055 97.2866 591.577Z" fill="#3F3D56"/>
<path d="M182.781 658.729C184.004 658.729 184.996 657.748 184.996 656.537C184.996 655.326 184.004 654.345 182.781 654.345C181.557 654.345 180.565 655.326 180.565 656.537C180.565 657.748 181.557 658.729 182.781 658.729Z" fill="#FFEB62"/>
<path d="M102.597 705.971C108.375 705.971 113.059 701.336 113.059 695.619C113.059 689.901 108.375 685.266 102.597 685.266C96.8196 685.266 92.1357 689.901 92.1357 695.619C92.1357 701.336 96.8196 705.971 102.597 705.971Z" fill="#FFEB62"/>
<path d="M291.595 508.28C292.31 508.28 292.889 507.707 292.889 507C292.889 506.292 292.31 505.719 291.595 505.719C290.88 505.719 290.301 506.292 290.301 507C290.301 507.707 290.88 508.28 291.595 508.28Z" fill="#F0F0F0"/>
<path d="M195.254 520.124C195.969 520.124 196.549 519.55 196.549 518.843C196.549 518.135 195.969 517.562 195.254 517.562C194.539 517.562 193.96 518.135 193.96 518.843C193.96 519.55 194.539 520.124 195.254 520.124Z" fill="#F0F0F0"/>
<path d="M228.764 582.299C229.479 582.299 230.058 581.726 230.058 581.018C230.058 580.311 229.479 579.737 228.764 579.737C228.049 579.737 227.47 580.311 227.47 581.018C227.47 581.726 228.049 582.299 228.764 582.299Z" fill="#F0F0F0"/>
<path d="M261.842 668.542C262.557 668.542 263.137 667.969 263.137 667.261C263.137 666.554 262.557 665.98 261.842 665.98C261.127 665.98 260.548 666.554 260.548 667.261C260.548 667.969 261.127 668.542 261.842 668.542Z" fill="#F0F0F0"/>
<path d="M295.951 582.089C296.665 582.089 297.245 581.516 297.245 580.808C297.245 580.101 296.665 579.527 295.951 579.527C295.236 579.527 294.656 580.101 294.656 580.808C294.656 581.516 295.236 582.089 295.951 582.089Z" fill="#F0F0F0"/>
<path d="M253.843 540.749C255.26 540.749 256.409 539.612 256.409 538.21C256.409 536.807 255.26 535.67 253.843 535.67C252.425 535.67 251.276 536.807 251.276 538.21C251.276 539.612 252.425 540.749 253.843 540.749Z" fill="#FF6584"/>
<path d="M430.03 764.573C422.304 764.573 413.835 764.284 404.625 763.706C356.985 760.712 295.277 750.304 230.868 734.399C166.459 718.495 107.044 698.993 63.5683 679.487C42.3899 669.985 26.1356 660.991 15.2574 652.753C3.74026 644.033 -1.29751 636.431 0.283466 630.161C3.36395 617.946 30.6402 615.273 52.9797 615.183L52.9873 616.959C22.3092 617.084 4.21069 621.925 2.02547 630.591C-0.758133 641.629 21.9437 658.861 64.3096 677.869C107.69 697.332 166.996 716.796 231.303 732.676C295.61 748.555 357.204 758.946 404.739 761.933C451.161 764.851 479.383 760.194 482.167 749.156C484.478 739.991 469.243 726.491 439.269 711.141L440.094 709.563C461.873 720.717 487.154 736.714 483.909 749.586C482.327 755.856 474.271 760.224 459.964 762.567C451.809 763.903 441.791 764.573 430.03 764.573Z" fill="#FFEB62"/>
<path d="M143.651 786.141C122.349 786.142 102.545 785.419 84.8163 783.959C61.6429 782.051 43.2797 778.983 30.2373 774.842C16.4286 770.457 9.10273 764.973 8.46315 758.541C7.21671 746.013 32 734.426 53.0101 726.913L53.6202 728.584C24.768 738.902 9.36542 749.479 10.2495 758.368C11.3756 769.689 38.6083 778.371 84.965 782.188C132.432 786.097 194.899 784.712 260.859 778.286C326.819 771.862 388.36 761.17 434.146 748.178C478.861 735.491 503.861 721.721 502.735 710.4C501.8 701 482.867 693.35 449.424 688.858L449.665 687.098C473.965 690.362 503.208 697.024 504.521 710.226C505.161 716.657 499.056 723.45 486.376 730.414C474.4 736.993 456.994 743.544 434.641 749.886C388.754 762.906 327.099 773.62 261.035 780.055C219.591 784.091 179.508 786.141 143.651 786.141Z" fill="#FFEB62"/>
<path d="M198.339 469.705C204.116 469.705 208.8 465.07 208.8 459.353C208.8 453.635 204.116 449 198.339 449C192.561 449 187.877 453.635 187.877 459.353C187.877 465.07 192.561 469.705 198.339 469.705Z" fill="#3F3D56"/>
<path d="M76.2684 519.575C79.8053 519.575 82.6725 516.738 82.6725 513.238C82.6725 509.738 79.8053 506.9 76.2684 506.9C72.7315 506.9 69.8643 509.738 69.8643 513.238C69.8643 516.738 72.7315 519.575 76.2684 519.575Z" fill="#FF6584"/>
</g>
<defs>
<clipPath id="clip0_1781_4734">
<rect width="341" height="690" fill="white"/>
</clipPath>
</defs>
</svg>
