<svg width="46" height="41" viewBox="0 0 46 41" fill="none" xmlns="http://www.w3.org/2000/svg">
<g clip-path="url(#clip0_357_1450)">
<path d="M29.4464 0.000205828H45.7554C45.7726 0.188337 45.7957 0.392145 45.81 0.595954C45.8417 1.0412 45.6748 1.35475 45.2748 1.4739C44.9294 1.57737 44.751 1.84075 44.6474 2.17939C44.4546 2.8159 44.3423 3.46182 44.4431 4.14222C44.5121 4.60314 44.6733 4.99822 44.9582 5.3494C46.9497 7.7951 45.8705 11.1031 43.5049 12.0939C43.0012 12.304 42.8199 12.6771 42.8401 13.2384C42.8602 13.8341 42.8458 14.433 42.8458 15.082C42.4775 15.082 42.1695 15.0726 41.8616 15.082C41.3522 15.1008 41.2774 15.1824 41.2544 15.7185C41.2486 15.8471 41.2544 15.9757 41.2544 16.1042C41.2544 22.5289 41.2544 28.9567 41.2544 35.3814C41.2544 35.6165 41.2544 35.8517 41.2544 36.1652H42.8286C42.8545 36.4035 42.8861 36.5666 42.8861 36.7328C42.8861 37.4853 42.8717 38.2378 42.866 38.9872C42.8631 39.561 42.9984 39.7146 43.525 39.7178C44.2128 39.7241 44.8978 39.7178 45.6316 39.7178V40.8873C45.2258 41.0096 30.1573 41.0441 29.3802 40.9156V39.5924H32.1862V36.2468C32.4797 36.2342 32.7243 36.2154 32.969 36.2123C33.51 36.206 33.6251 36.0994 33.6769 35.5131C33.6913 35.3437 33.6855 35.1682 33.6855 34.9988C33.6855 32.6127 33.6913 30.2266 33.6942 27.8436C33.6942 27.6931 33.6913 27.5394 33.7287 27.3983C33.8035 27.1099 34.1201 26.8183 34.3129 26.8308C34.5345 26.8434 34.8511 27.182 34.9029 27.4799C34.923 27.6053 34.9173 27.737 34.9173 27.8655C34.9173 30.3144 34.9173 32.7663 34.923 35.2152C34.923 35.4911 34.9518 35.7639 34.972 36.0806H36.9088C36.9088 35.6228 36.8857 35.1587 36.9174 34.6947C36.9347 34.425 36.9922 34.1334 37.1189 33.9108C37.1994 33.7666 37.4441 33.6537 37.6052 33.6694C37.7261 33.6819 37.8873 33.9045 37.9218 34.0613C37.9909 34.3717 37.9793 34.701 38.0052 35.0208C38.0311 35.3594 38.0628 35.7012 38.0945 36.0806H39.9248C39.9392 35.8423 39.968 35.6134 39.968 35.3845C39.9737 28.9786 39.9766 22.5759 39.9795 16.1701C39.9795 15.3862 39.6658 15.0538 38.9348 15.0507C38.8168 15.0507 38.6988 15.0413 38.5808 15.0444C38.0945 15.057 37.9937 15.1573 38.0196 15.7029C38.0369 16.0478 37.9563 16.3425 37.7577 16.5965C37.4872 16.9445 37.2109 16.91 37.021 16.4993C36.9519 16.3488 36.9318 16.1732 36.9001 16.007C36.8541 15.7562 36.8196 15.5022 36.7764 15.2231C36.6584 15.1824 36.549 15.1197 36.4397 15.1103C35.0612 15.0162 34.9317 15.1604 34.9202 16.5589C34.9029 18.7286 34.9086 20.8984 34.9058 23.0713C34.9058 23.2657 34.9144 23.4601 34.8827 23.6483C34.8281 23.9744 34.6007 24.1594 34.2899 24.1656C34.0136 24.1719 33.7949 24.012 33.746 23.6859C33.6942 23.3284 33.6855 22.9585 33.6827 22.5947C33.6683 20.3183 33.6596 18.0388 33.651 15.7624C33.651 15.5524 33.651 15.3391 33.651 15.0413H32.2754C32.2754 14.4455 32.2466 13.9344 32.2811 13.4265C32.3301 12.7304 32.0739 12.2914 31.4955 12.0061C30.4594 11.495 29.7054 10.6641 29.3601 9.4726C28.9514 8.05848 29.1874 6.72902 30.0652 5.60337C30.681 4.81322 30.8537 3.95409 30.7415 2.96954C30.6724 2.35811 30.4307 1.88152 29.9357 1.54602C29.3141 1.11958 29.2306 0.834253 29.4436 -0.00292969L29.4464 0.000205828ZM33.6395 13.715C33.9589 13.7369 34.2698 13.7777 34.5806 13.7777C36.6296 13.7839 38.6815 13.7777 40.7306 13.7777C40.8486 13.7777 40.9666 13.7777 41.0846 13.7683C41.358 13.7557 41.5105 13.6083 41.5738 13.3105C41.7004 12.7116 41.5364 12.3698 40.9551 12.1315C39.7406 11.6298 38.9492 10.6986 38.6384 9.33464C38.3074 7.87976 38.6413 6.57225 39.5161 5.42465C39.6974 5.18635 39.8759 4.94491 40.1032 4.64077H35.0324C35.3375 5.03898 35.5936 5.35567 35.8324 5.68803C37.3692 7.82645 36.7706 10.7519 34.546 11.9653C34.3359 12.0813 34.1201 12.188 33.91 12.304C33.6078 12.467 33.4841 12.7367 33.5273 13.0973C33.5503 13.2854 33.5963 13.4704 33.6395 13.7118V13.715ZM44.7337 8.26229C44.7337 6.7447 43.5998 5.51871 42.2098 5.53439C40.8601 5.55007 39.7233 6.79487 39.7291 8.25602C39.732 9.74225 40.8457 10.9557 42.2098 10.962C43.6488 10.9682 44.7366 9.80496 44.7366 8.26229H44.7337ZM32.9603 10.962C34.3446 10.9526 35.4698 9.74852 35.4641 8.28424C35.4583 6.83563 34.2496 5.53753 32.9085 5.53439C31.6077 5.53439 30.4048 6.83877 30.399 8.25602C30.3933 9.7109 31.5847 10.9714 32.9603 10.962ZM43.4444 1.43314C43.1077 1.40805 42.8372 1.36729 42.5638 1.36729C39.3521 1.35475 36.1433 1.34534 32.9315 1.34221C32.6956 1.34221 32.4538 1.35475 32.2293 1.42373C31.766 1.56169 31.5099 2.04143 31.5789 2.57446C31.648 3.07928 31.8293 3.22979 32.4193 3.22979C35.9447 3.22979 39.4701 3.22979 42.9955 3.22979C43.1423 3.22979 43.2919 3.19216 43.4416 3.17335V1.43941L43.4444 1.43314ZM33.4927 37.6264C33.3632 38.103 33.3661 38.5671 33.4237 39.0342C33.464 39.3791 33.6395 39.583 33.9561 39.6206C34.2698 39.6551 34.5834 39.6864 34.8971 39.6896C36.9462 39.6958 38.9952 39.6927 41.0443 39.6896C41.1997 39.6896 41.3522 39.6676 41.5623 39.6551C41.6083 39.213 41.6774 38.7928 41.6889 38.3695C41.7033 37.8522 41.5479 37.6891 41.0702 37.6233C40.9723 37.6107 40.8745 37.6044 40.7766 37.6044C38.4513 37.595 36.1289 37.5856 33.8035 37.5794C33.7086 37.5794 33.6136 37.6076 33.4956 37.6264H33.4927Z" fill="#FFEB61"/>
<path d="M3.15704 15.1354C3.15704 14.524 3.12826 13.9471 3.16567 13.3733C3.20884 12.7242 2.99012 12.3448 2.42318 12.0877C1.11087 11.492 0.31082 10.4039 0.0604447 8.86755C-0.135251 7.64783 0.146781 6.53159 0.883518 5.62542C1.75264 4.55935 1.72961 3.41802 1.33534 2.1983C1.25764 1.95687 1.07058 1.70289 0.869128 1.57747C0.198583 1.16985 0.118002 1.04757 0.221606 0.229199C0.23024 0.169624 0.261896 0.113185 0.290675 0.0253906H16.5277C16.7953 0.749695 16.7032 1.17299 16.1132 1.55866C15.5262 1.94119 15.2988 2.49931 15.2441 3.20794C15.1751 4.10783 15.3679 4.8729 15.9032 5.5972C17.5464 7.81088 16.9593 10.7144 14.611 11.9874C13.9548 12.3448 13.644 12.7963 13.7246 13.599C13.7707 14.06 13.7332 14.5303 13.7332 15.0602H12.3979C12.3806 15.3267 12.3576 15.5337 12.3576 15.7406C12.3461 17.995 12.3375 20.2526 12.3231 22.507C12.3231 22.8927 12.3173 23.2815 12.2713 23.664C12.2252 24.0466 12.0324 24.2096 11.7216 24.2096C11.3849 24.2096 11.1662 24.0184 11.1173 23.639C11.0856 23.4069 11.0914 23.1686 11.0914 22.9303C11.0914 20.8233 11.0914 18.7193 11.0856 16.6123C11.0856 16.2924 11.0367 15.9726 10.9935 15.6559C10.9561 15.3643 10.7978 15.1887 10.5187 15.1856C10.11 15.1793 9.70134 15.1856 9.25239 15.1856C9.19771 15.5054 9.15742 15.7751 9.10849 16.0416C9.07684 16.2078 9.05669 16.3834 8.9905 16.5339C8.80919 16.9446 8.52716 16.9854 8.25664 16.6436C8.05519 16.3896 7.97749 16.098 7.99188 15.7531C8.01778 15.1887 7.90842 15.0853 7.38177 15.0759C7.22348 15.0759 7.0652 15.0696 6.90979 15.0759C6.42056 15.101 6.0637 15.4803 6.03492 16.0071C6.02916 16.1357 6.03492 16.2642 6.03492 16.3928C6.0378 22.6889 6.04068 28.985 6.04643 35.278C6.04643 35.5508 6.07233 35.8236 6.08672 36.134H7.92281C7.95446 35.7107 7.989 35.3062 8.01778 34.9017C8.03217 34.7105 8.02929 34.5161 8.04943 34.3217C8.09548 33.8858 8.24513 33.6601 8.48399 33.6538C8.70559 33.6475 8.97323 33.8921 9.04806 34.2339C9.10274 34.4816 9.10274 34.745 9.10849 34.9989C9.11713 35.3595 9.10849 35.7232 9.10849 36.1277H11.0223C11.0453 35.8361 11.0885 35.5445 11.0885 35.2529C11.0942 32.8668 11.0914 30.4838 11.0914 28.0977C11.0914 27.9033 11.0827 27.7089 11.1086 27.5176C11.1489 27.2166 11.4626 26.8842 11.6928 26.8654C11.9087 26.8497 12.2367 27.1727 12.3001 27.4831C12.326 27.6054 12.3173 27.7402 12.3173 27.8688C12.3202 30.2329 12.3231 32.5971 12.326 34.9582C12.326 35.0867 12.326 35.2153 12.326 35.3438C12.349 36.1371 12.4353 36.2249 13.1577 36.2218C13.316 36.2218 13.4714 36.2249 13.6296 36.2343C13.6642 36.2343 13.6987 36.272 13.8052 36.3315V39.6207H16.6341V40.9501H0.385645V39.7461C0.929564 39.7461 1.47636 39.7461 2.02316 39.7461C2.1613 39.7461 2.29943 39.7524 2.43757 39.7524C3.00451 39.7524 3.1369 39.6144 3.13402 39.003C3.13402 38.3163 3.12826 37.6296 3.12251 36.9398C3.12251 36.7297 3.12251 36.5165 3.12251 36.2343H4.7111C4.72836 35.9803 4.75426 35.7954 4.75426 35.6104C4.75426 29.0791 4.75426 22.5478 4.75426 16.0134C4.75426 15.9475 4.75426 15.8848 4.75426 15.819C4.737 15.2076 4.66793 15.1323 4.0866 15.1198C3.8132 15.1135 3.5398 15.1198 3.15416 15.1198L3.15704 15.1354ZM12.3806 13.7527C12.4094 13.5677 12.4296 13.4642 12.444 13.3576C12.536 12.7023 12.4583 12.5361 11.9115 12.2414C11.7533 12.1567 11.5892 12.0846 11.4309 11.9968C9.24375 10.7771 8.65091 7.87986 10.1532 5.76025C10.3345 5.50627 10.5388 5.27424 10.723 5.02027C10.7978 4.9168 10.8496 4.79137 10.9244 4.65655H5.88815C6.12701 4.97951 6.30256 5.22408 6.48675 5.46551C7.40479 6.67582 7.72136 8.0429 7.32133 9.55736C6.96735 10.8837 6.14716 11.7554 4.95284 12.2225C4.48374 12.4075 4.32546 12.7493 4.41755 13.2761C4.49813 13.737 4.58447 13.7997 5.20034 13.7997C7.32709 13.7997 9.45384 13.7997 11.5806 13.7997C11.8338 13.7997 12.0871 13.7715 12.3778 13.7558L12.3806 13.7527ZM2.57283 3.26438C2.80594 3.27692 2.98149 3.29887 3.15416 3.29887C6.12989 3.29887 9.10274 3.29887 12.0785 3.29887C12.631 3.29887 13.1807 3.28006 13.7332 3.26438C13.975 3.25811 14.1966 3.22048 14.3318 2.94456C14.5736 2.44601 14.4297 1.80009 13.9606 1.55866C13.739 1.44264 13.4714 1.39561 13.221 1.39248C9.95171 1.3862 6.67956 1.39248 3.41029 1.39875C3.13977 1.39875 2.87213 1.45205 2.57283 1.48654V3.26438ZM6.27954 8.2812C6.27954 6.81692 5.1399 5.5972 3.77866 5.59407C2.36562 5.59093 1.2634 6.79183 1.27203 8.3251C1.28066 9.85523 2.40592 11.0467 3.81608 11.0216C5.17443 10.9966 6.28242 9.7643 6.27954 8.28434V8.2812ZM15.6096 8.33137C15.6211 6.90785 14.447 5.60974 13.1289 5.59093C11.7677 5.57212 10.5762 6.82005 10.5446 8.29375C10.5158 9.7643 11.6871 11.0311 13.0742 11.0311C14.3836 11.0311 15.5952 9.74235 15.6067 8.33137H15.6096ZM12.5907 37.6798C12.4065 37.6453 12.349 37.6265 12.2914 37.6265C9.94596 37.6265 7.60336 37.6265 5.25789 37.6328C5.10249 37.6328 4.94133 37.6484 4.7888 37.6829C4.50964 37.7456 4.3197 37.9275 4.3197 38.2536C4.3197 38.7396 4.31395 39.2319 4.5154 39.6991C4.63051 39.7085 4.72836 39.721 4.82621 39.721C7.07383 39.721 9.31858 39.7147 11.5662 39.7116C11.7043 39.7116 11.8425 39.7116 11.9777 39.6865C12.3864 39.6207 12.5447 39.4827 12.5821 39.0343C12.6195 38.5922 12.5907 38.1439 12.5907 37.6829V37.6798Z" fill="#FFEB61"/>
<path d="M30.7127 32.0164C29.0608 32.0948 27.4147 32.1701 25.6822 32.2516C25.7225 29.207 25.7628 26.222 25.8059 23.1335C24.9915 23.5443 24.2692 23.908 23.4576 24.3219C23.2878 22.7008 23.1266 21.1581 22.9597 19.5716C23.4864 19.2298 24.0044 18.888 24.5282 18.5557C25.1239 18.1763 25.6851 17.6652 26.3268 17.4708C26.9686 17.2764 27.6938 17.3986 28.3845 17.383C28.9745 17.3673 29.5644 17.3453 30.1573 17.3359C30.3271 17.3359 30.4998 17.3579 30.7156 17.3736V32.0196L30.7127 32.0164ZM26.7269 21.572C26.6952 23.284 26.652 24.8486 26.6376 26.4133C26.6233 27.9936 26.6348 29.577 26.6348 31.2325C27.7197 31.1824 28.773 31.1353 29.8091 31.0883C29.9328 30.4361 29.835 18.7406 29.7314 18.3863C28.7126 18.3863 27.7111 18.3769 26.7096 18.3957C26.5456 18.3957 26.3729 18.5023 26.2232 18.5964C25.5901 18.9915 24.98 19.4242 24.3353 19.791C23.9727 19.998 23.8547 20.2394 23.9699 20.6627C24.0245 20.8634 24.0044 21.0891 24.0274 21.3024C24.0821 21.8009 24.1454 22.2995 24.2116 22.8544C25.0663 22.4155 25.8434 22.0204 26.7269 21.5689V21.572Z" fill="#FFEB61"/>
<path d="M17.4659 23.1398C16.6543 23.5537 15.9291 23.9237 15.1233 24.3344C14.9563 22.7196 14.7952 21.1707 14.6283 19.5778C14.824 19.4493 15.0024 19.327 15.1866 19.2078C15.9319 18.7281 16.6917 18.2703 17.4227 17.7624C17.8054 17.4958 18.1968 17.3955 18.6458 17.3955C19.7883 17.3955 20.9308 17.3579 22.0733 17.3359C22.1482 17.3359 22.223 17.3548 22.3611 17.3704C22.3928 22.2273 22.4244 27.0686 22.459 31.9976C20.7668 32.0979 19.1091 32.1983 17.3622 32.239C17.3968 29.2039 17.4342 26.2283 17.4687 23.1335L17.4659 23.1398ZM15.8658 22.8607C16.7147 22.4343 17.5004 22.0361 18.3638 21.6034C18.3292 24.8737 18.2947 28.0218 18.2601 31.2388C19.3768 31.1886 20.4301 31.1447 21.4834 31.0977V18.3581C21.351 18.3393 21.2762 18.3142 21.2013 18.3174C20.2747 18.3424 19.3509 18.3707 18.4242 18.402C18.3091 18.4051 18.1824 18.424 18.0846 18.4835C17.25 19.0072 16.4241 19.5433 15.5722 20.0889C15.6701 21.0108 15.7621 21.8981 15.8658 22.8607Z" fill="#FFEB61"/>
<path d="M8.95883 21.0801V22.767H8.13V21.0801H8.95883Z" fill="#FFEB61"/>
<path d="M8.93583 25.749H8.14441V24.0527H8.93583V25.749Z" fill="#FFEB61"/>
<path d="M8.94445 31.5433H8.14728V29.8125H8.94445V31.5433Z" fill="#FFEB61"/>
<path d="M37.8268 31.935H37.0239C36.9721 31.3894 36.975 30.8282 37.0354 30.2324H37.8268V31.935Z" fill="#FFEB61"/>
<path d="M37.8182 23.1899H37.0268V21.5312H37.8182V23.1899Z" fill="#FFEB61"/>
<path d="M37.0383 24.4854H37.8268V26.1346H37.0383V24.4854Z" fill="#FFEB61"/>
<path d="M8.94732 28.4263H8.13V27.2129H8.94732V28.4263Z" fill="#FFEB61"/>
<path d="M8.93294 19.6881H8.14728V18.459H8.93294V19.6881Z" fill="#FFEB61"/>
<path d="M37.8355 27.6113V28.8216H37.0383V27.6113H37.8355Z" fill="#FFEB61"/>
<path d="M37.8268 20.0826H37.0297V18.8535H37.8268V20.0826Z" fill="#FFEB61"/>
</g>
<defs>
<clipPath id="clip0_357_1450">
<rect width="46" height="41" fill="white"/>
</clipPath>
</defs>
</svg>
