<svg width="46" height="41" viewBox="0 0 46 41" fill="none" xmlns="http://www.w3.org/2000/svg">
<g clip-path="url(#clip0_357_1403)">
<path d="M0.359255 40.912V39.7255C0.807556 39.7255 1.22208 39.7255 1.63661 39.7255C1.88839 39.7255 2.14018 39.7349 2.39503 39.738C3.26707 39.7474 3.33462 39.6723 3.32848 38.7957C3.32234 37.9598 3.32848 37.127 3.32848 36.2222H5.02957C5.05413 35.9968 5.08484 35.834 5.08484 35.6712C5.08484 29.1061 5.08484 22.5378 5.08484 15.9727C5.08484 15.8662 5.08484 15.7567 5.07256 15.6502C5.0265 15.2526 4.95281 15.1712 4.5567 15.1524C4.1821 15.1336 3.80442 15.1493 3.33462 15.1493C3.33462 14.6327 3.33462 14.1475 3.33462 13.6622C3.33462 13.4462 3.33155 13.2333 3.33462 13.0173C3.34384 12.6259 3.15039 12.3723 2.8157 12.2158C2.70209 12.1626 2.58234 12.1188 2.46566 12.0655C-0.076764 10.8727 -0.807557 7.72948 0.99793 5.54423C1.9191 4.42656 1.79935 3.26506 1.3449 2.05034C1.27121 1.85623 1.05627 1.68091 0.862826 1.58073C0.150457 1.20504 0.039917 0.948323 0.300914 0.0498047H17.6158C17.9075 0.769872 17.8154 1.18939 17.192 1.57447C16.6209 1.92824 16.3599 2.41663 16.2709 3.08661C16.1419 4.06653 16.3722 4.87739 16.9863 5.65067C18.6598 7.74826 18.1101 10.6411 15.752 11.8871C14.8861 12.3442 14.5084 12.8795 14.6527 13.8469C14.708 14.2195 14.6619 14.6077 14.6619 15.0585H13.1573C13.1573 15.3622 13.1573 15.5939 13.1573 15.8224C13.1543 18.1391 13.1543 20.459 13.142 22.7757C13.142 23.0951 13.1021 23.4175 13.0529 23.7338C13.0099 24.0249 12.8319 24.1814 12.5309 24.1877C12.1778 24.194 11.9537 24.0625 11.8708 23.7244C11.8155 23.4989 11.8063 23.2579 11.8063 23.0231C11.7971 20.8128 11.8001 18.6025 11.7879 16.3922C11.7817 15.2557 11.6435 15.1274 10.5474 15.1493C10.3386 15.1524 10.1328 15.1775 9.87798 15.1963C9.83192 15.3935 9.78279 15.5751 9.74901 15.7567C9.71831 15.9257 9.71831 16.101 9.67532 16.2638C9.6047 16.5362 9.52486 16.8305 9.1871 16.8524C8.88926 16.8712 8.72959 16.6301 8.64054 16.3922C8.55457 16.1605 8.53 15.9007 8.51465 15.6502C8.48395 15.2244 8.40104 15.0804 8.00494 15.0836C7.55971 15.0898 7.05 14.9208 6.71531 15.381C6.58634 15.5563 6.50344 15.7848 6.45738 16.0009C6.41439 16.2075 6.45124 16.4266 6.45124 16.6427C6.45124 22.8008 6.45124 28.9589 6.45124 35.1202C6.45124 35.4364 6.45124 35.7526 6.45124 36.1064H8.45324C8.47166 35.7714 8.48395 35.4552 8.51158 35.1421C8.54229 34.779 8.55457 34.4095 8.63747 34.0589C8.67432 33.9024 8.8432 33.6989 8.98445 33.6707C9.12876 33.6425 9.38976 33.7552 9.45424 33.8836C9.59549 34.1591 9.68453 34.4784 9.71524 34.7883C9.75823 35.2079 9.72445 35.6368 9.72445 36.1033H11.7572C11.7756 35.7495 11.8063 35.4145 11.8063 35.0795C11.8063 32.697 11.8063 30.3145 11.8063 27.9352C11.8063 27.7849 11.8001 27.6315 11.8339 27.4875C11.9138 27.165 12.2423 26.8676 12.488 26.8676C12.7367 26.8676 13.0898 27.237 13.1389 27.5658C13.1573 27.691 13.1451 27.8225 13.1451 27.9508C13.1451 30.2676 13.1451 32.5874 13.1512 34.9042C13.1512 35.0983 13.1481 35.2893 13.1573 35.4834C13.188 36.1033 13.3139 36.2191 13.9311 36.2128C14.1583 36.2128 14.3825 36.2128 14.6895 36.2128V39.5627C15.7366 39.6692 16.7222 39.5533 17.7325 39.641C17.7325 40.0636 17.7325 40.4644 17.7325 40.8651C17.3087 41.0091 1.33569 41.0623 0.359255 40.912ZM13.1543 13.7561C13.446 12.7606 13.3661 12.5758 12.5402 12.1751C12.4265 12.1188 12.3099 12.0687 12.1993 12.0092C9.83499 10.7851 9.2086 7.85471 10.8544 5.73207C11.0386 5.49727 11.2413 5.27812 11.4225 5.04331C11.5023 4.94 11.5576 4.81477 11.6374 4.67389H6.25779C6.55257 5.04018 6.77979 5.31256 6.9978 5.59119C8.95681 8.10516 7.80535 11.3736 5.31206 12.2033C5.25372 12.2221 5.19231 12.244 5.13704 12.2722C4.7348 12.4757 4.59662 12.8388 4.71637 13.3648C4.79621 13.7154 4.91596 13.7906 5.44102 13.8093C5.52393 13.8093 5.60991 13.8093 5.69281 13.8093C7.83913 13.8093 9.98238 13.8093 12.1287 13.8093C12.4634 13.8093 12.7981 13.7749 13.1543 13.7561ZM2.72972 3.28385C2.95695 3.29324 3.10126 3.30889 3.24865 3.30889C6.33456 3.30889 9.42047 3.30889 12.5094 3.30889C13.2034 3.30889 13.8943 3.30889 14.5882 3.29324C15.1102 3.28385 15.2791 3.1367 15.3773 2.65457C15.4787 2.17244 15.2422 1.69344 14.7724 1.52125C14.5422 1.43672 14.2812 1.40228 14.0355 1.40228C10.5934 1.39915 7.14825 1.40228 3.70616 1.4148C3.38068 1.4148 3.0552 1.48055 2.73279 1.51498V3.28698L2.72972 3.28385ZM4.03778 5.61311C2.53014 5.60371 1.31727 6.81217 1.32034 8.31492C1.32648 9.8208 2.53935 11.0324 4.04085 11.023C5.47173 11.0136 6.69688 9.76758 6.70916 8.30866C6.72145 6.86853 5.48708 5.6225 4.03778 5.61311ZM11.2567 8.35875C11.2628 9.8302 12.4634 11.0293 13.928 11.0293C15.3681 11.0293 16.6455 9.73001 16.6271 8.28362C16.6086 6.84035 15.362 5.60371 13.9373 5.61311C12.4726 5.61937 11.2505 6.87166 11.2567 8.35875ZM13.4214 37.631C13.1788 37.606 13.0345 37.5778 12.8933 37.5778C10.5167 37.5778 8.14004 37.5778 5.76343 37.5778C5.61605 37.5778 5.46866 37.581 5.32434 37.6029C4.72252 37.6905 4.55056 37.8784 4.58741 38.492C4.6089 38.8708 4.68874 39.2465 4.74708 39.6566C4.99579 39.6692 5.20152 39.6879 5.40725 39.6879C7.63647 39.6817 9.8657 39.6723 12.0949 39.6629C12.3252 39.6629 12.5586 39.6629 12.7889 39.6316C13.2187 39.5752 13.3938 39.4093 13.4214 38.9741C13.449 38.5515 13.4275 38.1226 13.4275 37.6279L13.4214 37.631Z" fill="#FFEB61"/>
<path d="M42.6623 15.084C42.1649 15.084 41.8087 15.0621 41.4556 15.0903C41.0318 15.1247 40.9551 15.2249 40.9274 15.6507C40.9213 15.7571 40.9274 15.8667 40.9274 15.9731C40.9274 22.4757 40.9274 28.9782 40.9274 35.4807V36.1444H42.6838C42.6838 37.0398 42.6869 37.8507 42.6838 38.6584C42.6777 39.679 42.6838 39.6853 43.7063 39.6696C44.3143 39.6602 44.9222 39.6696 45.5855 39.6696V40.8405C45.1679 40.9657 28.9953 41.0002 28.2645 40.8624V39.5569H31.2613V36.1757C31.6329 36.1757 31.9184 36.182 32.204 36.1757C32.6677 36.1632 32.7935 36.0411 32.8396 35.5684C32.855 35.3993 32.8488 35.224 32.8488 35.0549C32.8488 32.6505 32.8488 30.2493 32.8642 27.8449C32.8642 27.6226 32.9072 27.3659 33.0238 27.1843C33.3309 26.6927 33.7761 26.7178 34.0555 27.225C34.1446 27.3846 34.1784 27.5913 34.1814 27.776C34.1906 30.1992 34.1876 32.6255 34.1906 35.0487C34.1906 35.3868 34.2244 35.7218 34.2428 36.0881H36.2817C36.2817 35.6059 36.2541 35.1551 36.2909 34.7137C36.3155 34.4256 36.3922 34.1188 36.5335 33.8746C36.6164 33.7338 36.8866 33.621 37.0524 33.643C37.1783 33.6586 37.3472 33.8965 37.3717 34.0562C37.4516 34.5415 37.4669 35.0361 37.5099 35.5277C37.5253 35.6936 37.5468 35.8595 37.5713 36.0943C38.0104 36.0943 38.428 36.0943 38.8425 36.0943C39.0483 36.0943 39.254 36.0787 39.5119 36.0661C39.5242 35.7875 39.5457 35.559 39.5457 35.3304C39.5518 28.9563 39.5549 22.5852 39.558 16.2111C39.558 15.3783 39.2386 15.0558 38.4188 15.0527C38.3359 15.0527 38.2499 15.0464 38.167 15.0496C37.556 15.0558 37.5314 15.1153 37.4792 15.7571C37.4546 16.0577 37.3318 16.3833 37.1629 16.6306C36.9327 16.9656 36.6102 16.9092 36.4229 16.5367C36.34 16.3707 36.3124 16.1704 36.2756 15.9857C36.2264 15.7352 36.1926 15.4847 36.1404 15.1529C35.6829 15.1529 35.25 15.1529 34.817 15.1529C34.4516 15.1529 34.295 15.3846 34.249 15.7164C34.2183 15.9293 34.1906 16.1422 34.1906 16.3551C34.1845 18.5216 34.1906 20.688 34.1845 22.8545C34.1845 23.1112 34.1753 23.371 34.1354 23.6246C34.0801 23.969 33.8621 24.1506 33.5335 24.1694C33.2142 24.1882 32.9839 24.0254 32.9194 23.6528C32.8611 23.3178 32.855 22.9703 32.8519 22.6291C32.8427 20.353 32.8427 18.0801 32.8365 15.8041C32.8365 15.5724 32.8365 15.3439 32.8365 15.0402H31.3442C31.3442 14.5267 31.3013 14.0791 31.3535 13.6407C31.4517 12.7955 31.1385 12.2851 30.3647 11.9314C29.2808 11.4336 28.5439 10.5507 28.2092 9.3767C27.8192 7.99918 28.1017 6.72184 28.9953 5.63548C29.6124 4.88724 29.8212 4.08577 29.7291 3.13716C29.6646 2.44214 29.4067 1.92557 28.8141 1.54988C28.1754 1.14915 28.0772 0.751547 28.3658 0.0126953H45.7329C45.7636 0.222454 45.8066 0.410298 45.8188 0.598141C45.8434 1.03018 45.6868 1.37456 45.26 1.49353C44.8332 1.60937 44.6551 1.91618 44.5261 2.29813C44.3173 2.91801 44.2682 3.55668 44.345 4.20161C44.4033 4.71192 44.6735 5.10952 44.9898 5.49773C46.1597 6.92534 46.3224 8.75368 45.4381 10.2909C44.9775 11.0955 44.3143 11.6715 43.4852 12.0535C42.6777 12.426 42.6408 12.4949 42.6623 13.4153C42.6746 13.9663 42.6623 14.5174 42.6623 15.0997V15.084ZM32.7843 13.7221C33.1344 13.7409 33.4077 13.766 33.6779 13.766C35.5908 13.766 37.5038 13.766 39.4167 13.766C39.8374 13.766 40.2581 13.7848 40.6787 13.7566C40.8507 13.7441 41.0718 13.6814 41.1762 13.5594C41.4924 13.1868 41.3051 12.4511 40.8691 12.2351C40.7187 12.1599 40.5498 12.1286 40.3993 12.0535C38.9162 11.3397 38.1148 10.1531 38.0288 8.47818C37.9674 7.27911 38.4065 6.26163 39.1496 5.35998C39.3277 5.14396 39.5825 4.96864 39.6163 4.6493H34.292C34.6297 5.06256 34.9184 5.39441 35.1824 5.74506C36.7822 7.86456 36.1343 10.7636 33.7945 11.9658C33.5704 12.0816 33.3432 12.1944 33.116 12.3039C32.8212 12.4511 32.6707 12.6859 32.7045 13.0271C32.726 13.2369 32.7536 13.4435 32.7874 13.7221H32.7843ZM32.075 10.9734C33.5581 10.9608 34.7464 9.7743 34.7464 8.29973C34.7464 6.84707 33.4721 5.54782 32.0382 5.54156C30.6411 5.5353 29.3115 6.90342 29.3422 8.31851C29.3729 9.7336 30.6595 10.9859 32.072 10.9734H32.075ZM43.2795 1.45596C42.9417 1.42778 42.6347 1.38082 42.3245 1.37769C41.4617 1.3683 40.5989 1.37456 39.7361 1.37456C37.1691 1.37456 34.6021 1.36204 32.0382 1.37456C31.7127 1.37456 31.3627 1.43091 31.0679 1.56867C30.6718 1.75338 30.5183 2.23238 30.6257 2.67068C30.7332 3.11525 30.899 3.23108 31.4671 3.253C31.5315 3.253 31.593 3.253 31.6574 3.253C35.3175 3.253 38.9776 3.253 42.6377 3.253C42.8404 3.253 43.0431 3.23108 43.2764 3.21543V1.45909L43.2795 1.45596ZM44.6551 8.26529C44.6551 6.76254 43.4177 5.51651 41.9499 5.54469C40.516 5.56974 39.2847 6.83455 39.2939 8.26842C39.3031 9.7336 40.5129 10.964 41.9561 10.9702C43.476 10.9765 44.6551 9.79622 44.6551 8.26529ZM32.5694 37.5908C32.5694 38.0135 32.5571 38.3954 32.5694 38.7742C32.5909 39.391 32.7628 39.5663 33.3616 39.6227C33.4875 39.6352 33.6134 39.632 33.7393 39.632C36.0944 39.6352 38.4495 39.6383 40.8046 39.6414C40.9459 39.6414 41.0871 39.6133 41.2499 39.5976C41.2898 39.3346 41.3266 39.1061 41.3604 38.8744C41.5231 37.7818 41.3604 37.5658 40.2703 37.5595C37.8538 37.547 35.4342 37.5501 33.0177 37.5501C32.9133 37.5501 32.8089 37.5689 32.5725 37.5908H32.5694Z" fill="#FFEB61"/>
<path d="M16.9771 17.062C17.6925 16.9962 18.3404 16.9305 18.9852 16.8773C20.1152 16.7834 21.2482 16.6331 22.3782 16.6174C23.6156 16.5986 24.8561 16.7051 26.0936 16.7614C26.809 16.7927 27.5214 16.8272 28.2338 16.871C28.7066 16.8992 28.7312 16.9274 28.7957 17.3782C29.1273 19.6668 29.462 21.9553 29.7783 24.247C29.8059 24.4474 29.7844 24.6853 29.6953 24.8638C28.0925 28.1448 26.4805 31.4164 24.8654 34.6911C24.8469 34.7256 24.807 34.7506 24.7272 34.832C22.7559 34.4219 20.7477 34.0055 18.6383 33.5672C19.5472 31.8797 20.4192 30.2611 21.3557 28.5236C19.8972 28.4766 18.5462 28.4297 17.146 28.3858C17.0416 27.7534 16.9341 27.1461 16.842 26.5387C16.6547 25.2895 16.4612 24.0404 16.2985 22.7881C16.2525 22.4343 16.2678 22.0649 16.3169 21.7111C16.5196 20.1833 16.7437 18.6618 16.9679 17.0683L16.9771 17.062ZM24.2543 33.7425C24.3403 33.5922 24.3986 33.5046 24.4447 33.4106C25.851 30.5554 27.2481 27.6971 28.6636 24.8481C28.8294 24.5131 28.8264 24.1969 28.7742 23.8525C28.6145 22.7724 28.461 21.6892 28.3044 20.6091C28.1723 19.7012 28.0342 18.7964 27.896 17.876C24.5 17.5222 21.1592 17.5034 17.7939 18.0106C17.5912 19.4476 17.3886 20.847 17.2013 22.2465C17.1798 22.4124 17.2135 22.5877 17.2381 22.7568C17.3517 23.5426 17.4715 24.3253 17.5943 25.108C17.711 25.8656 17.8369 26.6232 17.9597 27.3996C19.6086 27.6094 21.2452 27.4372 22.9278 27.6345C21.9606 29.4284 21.0425 31.1315 20.1029 32.8784C21.5369 33.1758 22.8726 33.4545 24.2543 33.7425Z" fill="#FFEB61"/>
<path d="M9.55864 31.4949H8.66511V29.7949H9.55557C9.61391 30.3459 9.60163 30.8875 9.55557 31.4949H9.55864Z" fill="#FFEB61"/>
<path d="M9.54636 25.7161H8.62827V24.0693H9.54636V25.7161Z" fill="#FFEB61"/>
<path d="M9.55864 22.7507H8.66204V21.0977H9.55864V22.7507Z" fill="#FFEB61"/>
<path d="M36.4107 23.1865V21.5146H37.2581V23.1865H36.4107Z" fill="#FFEB61"/>
<path d="M36.4014 26.1325V24.4795H37.2489C37.3564 25.0023 37.3103 25.5439 37.2796 26.1325H36.4014Z" fill="#FFEB61"/>
<path d="M37.2551 31.9052H36.4229V30.249H37.2551V31.9052Z" fill="#FFEB61"/>
<path d="M8.67125 18.4336H9.55557V19.6389H8.67125V18.4336Z" fill="#FFEB61"/>
<path d="M8.66511 28.3803V27.1875H9.54022V28.3803H8.66511Z" fill="#FFEB61"/>
<path d="M36.4137 18.8408H37.2489V20.0681H36.4137V18.8408Z" fill="#FFEB61"/>
<path d="M36.4229 27.5664H37.2643V28.7968H36.4229V27.5664Z" fill="#FFEB61"/>
<path d="M21.0364 20.6504C22.1541 20.6911 23.238 20.7318 24.3649 20.7725V24.3947H21.0671C20.9412 23.9846 20.9105 21.8745 21.0364 20.6535V20.6504ZM23.4099 21.7211C22.8787 21.7368 22.4151 21.5489 21.9391 21.718V23.4305H23.4099V21.7211Z" fill="#FFEB61"/>
</g>
<defs>
<clipPath id="clip0_357_1403">
<rect width="46" height="41" fill="white"/>
</clipPath>
</defs>
</svg>
