<svg width="46" height="41" viewBox="0 0 46 41" fill="none" xmlns="http://www.w3.org/2000/svg">
<g clip-path="url(#clip0_357_1342)">
<path d="M13.1764 15.1186C13.1764 15.8576 13.1764 16.5152 13.1764 17.1759C13.1733 19.0861 13.1702 20.9963 13.158 22.9065C13.158 23.1821 13.1119 23.4608 13.0781 23.7363C13.0382 24.062 12.8447 24.2311 12.5315 24.2499C12.2091 24.2687 11.9512 24.0902 11.8744 23.7676C11.8253 23.5641 11.8222 23.3418 11.8222 23.1288C11.8191 21.0683 11.8222 19.0078 11.8222 16.9474C11.8222 16.8628 11.8222 16.7751 11.8222 16.6906C11.816 15.2 11.3186 14.8462 9.84768 15.3315C9.81698 15.5382 9.79241 15.7699 9.74021 15.9954C9.69107 16.224 9.64808 16.4651 9.54368 16.6655C9.37786 16.9818 9.12298 17.01 8.87425 16.7595C8.62245 16.509 8.50883 16.2052 8.51804 15.8326C8.5334 15.1969 8.46277 15.1405 7.83941 15.1342C7.735 15.1342 7.62752 15.1342 7.52312 15.1342C6.77692 15.1405 6.44835 15.4693 6.44528 16.2209C6.44528 17.5298 6.44528 18.8387 6.44528 20.1477C6.44528 25.0828 6.44528 30.018 6.44528 34.9563C6.44528 35.3383 6.47292 35.7204 6.48827 36.1368H8.4597C8.48426 35.7423 8.49962 35.3634 8.53033 34.9813C8.55489 34.6839 8.56103 34.377 8.64394 34.092C8.68694 33.9386 8.8589 33.7413 8.99401 33.7194C9.14141 33.6943 9.3625 33.8164 9.46384 33.9448C9.58667 34.1014 9.66344 34.33 9.67265 34.5304C9.70029 35.0408 9.68186 35.5544 9.68186 36.1337C10.3789 36.2089 11.0422 36.1713 11.7731 36.1619C11.7884 35.83 11.8099 35.5356 11.8099 35.2444C11.8099 32.8206 11.816 30.3938 11.8068 27.97C11.8068 27.6318 11.8406 27.3344 12.1047 27.0964C12.4056 26.8271 12.5837 26.8271 12.8632 27.1058C13.1058 27.35 13.161 27.6412 13.161 27.9826C13.1488 30.256 13.1549 32.5326 13.1549 34.806C13.1549 35.0001 13.1549 35.1912 13.1641 35.3853C13.1917 36.2057 13.2624 36.2715 14.0423 36.2621C14.2297 36.2621 14.417 36.2621 14.6903 36.2621C14.7486 37.3706 14.6841 38.4541 14.7302 39.6159H17.718V40.9906H0.383598C0.368244 40.8058 0.349819 40.6211 0.343678 40.4363C0.337536 40.2453 0.343678 40.0574 0.343678 39.7725C0.887202 39.7662 1.38467 39.7599 1.87906 39.7568C2.17385 39.7568 2.46864 39.7725 2.76344 39.7599C3.19641 39.7411 3.32539 39.6221 3.33767 39.1743C3.35609 38.4447 3.34381 37.7151 3.34381 36.9855C3.34381 36.7725 3.34381 36.5627 3.34381 36.2746H5.04501C5.06651 36.0241 5.09722 35.8394 5.09722 35.6577C5.09722 29.113 5.09722 22.5683 5.09722 16.0204C5.09722 15.8921 5.09722 15.7637 5.08186 15.6353C5.05115 15.3315 4.88226 15.1718 4.58133 15.1687C4.20362 15.1656 3.82592 15.1687 3.36838 15.1687C3.36224 14.58 3.32232 14.0069 3.36224 13.4401C3.41137 12.7669 3.17185 12.3911 2.54541 12.1155C-0.070875 10.9726 -0.820141 7.82232 1.00082 5.599C1.91898 4.48107 1.81457 3.32557 1.35703 2.10431C1.28947 1.92268 1.11444 1.74419 0.942476 1.65025C0.125654 1.19932 0.0734507 1.10538 0.291475 0.106445H17.6536C17.8839 0.973855 17.801 1.21811 17.0947 1.68782C16.6463 1.98844 16.4038 2.39553 16.3055 2.9404C16.1212 3.97691 16.3239 4.85998 16.9903 5.69607C18.67 7.80667 18.1265 10.6688 15.762 11.9308C14.9052 12.388 14.5122 12.9203 14.6626 13.8942C14.721 14.2668 14.6718 14.6583 14.6718 15.1186H13.1702H13.1764ZM13.1457 13.819C13.462 12.842 13.3729 12.6197 12.5622 12.2251C12.3718 12.1312 12.1784 12.0466 11.9972 11.9402C10.4096 11.0195 9.64501 9.25653 10.0534 7.44968C10.2162 6.72632 10.5724 6.10003 11.0514 5.5395C11.2602 5.29525 11.5274 5.08544 11.6287 4.73785C10.078 4.61573 6.82298 4.66896 6.36237 4.8318C6.62953 5.17312 6.90589 5.49566 7.14848 5.84012C8.44742 7.67515 8.24167 10.0676 6.62338 11.4799C6.21804 11.8337 5.69294 12.0498 5.20776 12.2972C4.75943 12.5258 4.61204 12.8295 4.72872 13.412C4.80242 13.7783 4.94368 13.8629 5.49949 13.8723C5.54248 13.8723 5.5824 13.8723 5.62539 13.8723C7.83326 13.8723 10.0442 13.8723 12.2521 13.8723C12.5438 13.8723 12.8355 13.841 13.1457 13.8253V13.819ZM4.01017 11.054C5.48413 11.0602 6.72779 9.80766 6.71858 8.32649C6.70936 6.90168 5.43807 5.63344 4.01938 5.63344C2.56691 5.63344 1.35396 6.84844 1.3386 8.32022C1.32325 9.8515 2.49014 11.0446 4.01017 11.0508V11.054ZM13.9042 11.0571C15.3843 11.0665 16.6341 9.83271 16.6371 8.3672C16.6371 6.94552 15.372 5.64284 13.9809 5.63658C12.5377 5.63031 11.2787 6.89855 11.2725 8.37346C11.2633 9.87655 12.4118 11.0446 13.9072 11.0571H13.9042ZM2.73887 3.30052C2.95382 3.30991 3.135 3.3287 3.31925 3.3287C7.01951 3.3287 10.7167 3.3287 14.417 3.3287C14.5644 3.3287 14.7271 3.36002 14.853 3.30678C15.0158 3.23789 15.2031 3.13142 15.2829 2.98424C15.6176 2.36735 15.2553 1.63459 14.5736 1.49681C14.4293 1.46862 14.2819 1.46862 14.1345 1.46862C10.686 1.46862 7.24061 1.46549 3.79214 1.46862C3.44208 1.46862 3.09508 1.51873 2.73887 1.54378V3.29739V3.30052ZM13.4313 37.7057C13.1856 37.6806 13.0628 37.6587 12.9369 37.6587C10.5202 37.6587 8.10349 37.6587 5.6868 37.6587C5.49949 37.6587 5.30603 37.665 5.12178 37.6994C4.75943 37.7683 4.59668 37.9312 4.60589 38.3132C4.61511 38.7767 4.68573 39.237 4.7318 39.7067C4.9099 39.7224 5.01123 39.7411 5.11257 39.7411C7.48627 39.7411 9.86304 39.7411 12.2367 39.7411C12.4455 39.7411 12.6544 39.7067 12.8632 39.6785C13.201 39.6315 13.4036 39.4249 13.4251 39.0867C13.4497 38.6451 13.4313 38.2005 13.4313 37.7057Z" fill="#FFEB61"/>
<path d="M42.5822 15.1469C42.1646 15.1469 41.8084 15.1312 41.4522 15.15C41.0591 15.1719 40.9854 15.2534 40.9486 15.6542C40.9332 15.8233 40.9394 15.9986 40.9394 16.1677C40.9394 22.5872 40.9394 29.0035 40.9394 35.423V36.1996H42.6713C42.6805 36.9605 42.6928 37.6369 42.6958 38.3164C42.6958 38.5513 42.6774 38.7893 42.6836 39.0241C42.702 39.6316 42.8064 39.7412 43.3868 39.7475C43.9549 39.7538 44.523 39.7475 45.091 39.7475C45.2538 39.7475 45.4196 39.7663 45.6161 39.7757V40.9656H28.2663C28.2541 40.7308 28.2356 40.5241 28.2356 40.3143C28.2356 40.1045 28.251 39.8947 28.2633 39.6285H31.245V36.2622C31.5152 36.2466 31.7148 36.2184 31.9175 36.2278C32.7005 36.2622 32.8418 36.1463 32.8633 35.3353C32.8817 34.6934 32.8725 34.0483 32.8725 33.4032C32.8725 31.5776 32.8725 29.7551 32.8725 27.9294C32.8725 27.7791 32.8633 27.6257 32.894 27.4816C32.9615 27.1622 33.3055 26.8522 33.5419 26.871C33.7937 26.8898 34.1161 27.2092 34.1622 27.5192C34.1868 27.6883 34.1745 27.8605 34.1745 28.0328C34.1745 30.3939 34.1745 32.755 34.1745 35.1161C34.1745 35.4324 34.2083 35.7518 34.2267 36.1056H36.2902C36.2902 35.7267 36.278 35.3478 36.2933 34.9721C36.3056 34.6965 36.324 34.4147 36.3946 34.1516C36.4714 33.8698 36.6618 33.6381 36.9842 33.6662C37.3282 33.6976 37.3957 33.9919 37.4234 34.28C37.4663 34.7497 37.4909 35.2226 37.5278 35.6923C37.537 35.8175 37.5585 35.9428 37.5769 36.1056H39.5207C39.5391 35.8269 39.5698 35.5545 39.5698 35.2821C39.5698 28.9064 39.5729 22.5308 39.5698 16.1583C39.5698 15.46 39.2136 15.103 38.5258 15.0968C38.4828 15.0968 38.4428 15.103 38.3999 15.103C37.8328 15.103 37.5319 15.3807 37.4971 15.936C37.4909 16.0425 37.4633 16.1489 37.4295 16.2492C37.3036 16.6249 37.0149 16.9036 36.7785 16.8504C36.4254 16.7752 36.3578 16.4684 36.3025 16.1677C36.2565 15.9141 36.2258 15.6604 36.1797 15.4068C36.1705 15.3473 36.1306 15.2941 36.0722 15.1688C35.6607 15.1688 35.2247 15.1531 34.7886 15.1751C34.5092 15.1876 34.3157 15.3536 34.2758 15.651C34.2328 15.9892 34.1776 16.3306 34.1776 16.6719C34.1684 18.7762 34.1745 20.8774 34.1714 22.9818C34.1714 23.1947 34.1776 23.4139 34.1469 23.6237C34.0916 24.0089 33.8797 24.178 33.4959 24.1748C33.1489 24.1748 32.9523 24.0277 32.9124 23.6362C32.8602 23.1258 32.8571 22.6091 32.8541 22.0924C32.8387 19.9693 32.8326 17.8431 32.8203 15.7199C32.8203 15.5289 32.8019 15.341 32.7896 15.0811H31.3801C31.3709 14.53 31.3187 14.0446 31.3647 13.5655C31.4415 12.7889 31.1252 12.338 30.4435 12.0029C28.7792 11.1793 27.9501 9.69504 28.076 7.89759C28.1374 7.03331 28.4537 6.25671 29.0187 5.62729C29.7465 4.81625 29.8416 3.87682 29.6973 2.86223C29.6206 2.32362 29.3442 1.91653 28.8866 1.61904C28.208 1.17751 28.122 0.930126 28.3063 0.119082C28.7423 -0.0155697 44.7041 -0.0688042 45.739 0.0689793C45.7635 0.263129 45.8065 0.472936 45.8096 0.679611C45.8157 1.0773 45.6776 1.40297 45.263 1.51258C44.8392 1.62218 44.6059 1.92906 44.5352 2.32049C44.4308 2.90294 44.3602 3.50104 44.3449 4.09289C44.3295 4.60331 44.569 5.04171 44.9068 5.42062C45.3797 5.95296 45.7144 6.56986 45.8802 7.27443C46.304 9.08441 45.4902 10.9601 43.8842 11.8745C43.7 11.9779 43.5127 12.0812 43.3161 12.1501C42.7941 12.3317 42.6129 12.7075 42.6314 13.243C42.6498 13.7158 42.6437 14.1887 42.6375 14.6584C42.6375 14.8181 42.5976 14.9778 42.5761 15.1375L42.5822 15.1469ZM32.7988 13.7597C33.198 13.7878 33.5511 13.8285 33.9043 13.8317C36.0262 13.8379 38.1481 13.8348 40.27 13.8317C40.4388 13.8317 40.6077 13.8317 40.7736 13.8191C41.0591 13.7941 41.225 13.6438 41.2894 13.3463C41.4184 12.7607 41.2311 12.4288 40.6108 12.1814C38.971 11.5301 38.0222 10.0927 38.0314 8.30155C38.0375 7.17109 38.4705 6.22853 39.1706 5.37991C39.3457 5.16697 39.6097 4.99161 39.622 4.66907H34.282C34.6228 5.08868 34.9115 5.42062 35.1756 5.77134C36.7969 7.91012 36.1428 10.8286 33.7722 12.0342C33.5849 12.1282 33.3884 12.2065 33.2041 12.3098C32.7435 12.5603 32.6637 12.72 32.719 13.2336C32.7343 13.3807 32.765 13.5279 32.8019 13.7597H32.7988ZM43.2639 1.50631C42.8709 1.47187 42.5177 1.4155 42.1677 1.41237C38.8021 1.39984 35.4396 1.39984 32.0741 1.39671C31.8653 1.39671 31.6503 1.40297 31.4507 1.45308C30.8458 1.59712 30.5387 2.04492 30.6216 2.62424C30.6984 3.16285 30.898 3.2975 31.635 3.2975C35.2953 3.30063 38.9526 3.30376 42.6129 3.31002C42.8187 3.31002 43.0214 3.31002 43.267 3.31002V1.50631H43.2639ZM32.0434 11.0353C33.5112 11.051 34.7303 9.8704 34.7641 8.39862C34.7979 6.94876 33.5419 5.63982 32.0925 5.61477C30.6554 5.59285 29.3595 6.87987 29.3595 8.3266C29.3595 9.73575 30.6308 11.0196 32.0434 11.0353ZM44.655 8.34852C44.6642 6.81098 43.4973 5.61164 41.9926 5.61477C40.5371 5.61477 39.3149 6.83603 39.3119 8.28902C39.3119 9.77019 40.4941 11.0071 41.9343 11.029C43.4543 11.0541 44.6427 9.87979 44.655 8.34852ZM32.6483 37.6213C32.5623 38.1348 32.504 38.6139 32.5992 39.1056C32.6606 39.425 32.8387 39.6035 33.1458 39.6348C33.459 39.6661 33.7753 39.6849 34.0885 39.688C35.9617 39.7037 37.8318 39.7131 39.7049 39.7225C40.2055 39.7225 40.7029 39.7225 41.271 39.7225C41.3294 39.2152 41.4061 38.7736 41.4215 38.3321C41.4338 37.9281 41.271 37.7528 40.8749 37.6714C40.6077 37.6181 40.3314 37.5931 40.0611 37.5931C37.7888 37.5868 35.5164 37.5899 33.2441 37.5931C33.0598 37.5931 32.8725 37.6119 32.6453 37.6244L32.6483 37.6213Z" fill="#FFEB61"/>
<path d="M20.2118 14.5107C22.217 14.8051 24.2037 15.0995 26.2857 15.4063C25.561 17.1975 24.8701 18.9073 24.1454 20.6922H28.6809C28.9112 21.9604 29.1292 23.1786 29.3503 24.3998C29.3872 24.6096 29.4179 24.8257 29.4701 25.0324C29.7956 26.3006 29.771 27.5626 29.51 28.8496C29.2736 30.0208 29.1446 31.217 28.9542 32.479C25.0851 32.5385 21.2466 32.5948 17.3314 32.6543C17.2638 32.1376 17.1871 31.6397 17.1318 31.1387C16.923 29.2849 16.708 27.4342 16.5238 25.5773C16.49 25.2265 16.5084 24.8382 16.622 24.5126C17.7398 21.3248 18.8852 18.1463 20.0244 14.9648C20.0736 14.827 20.135 14.6955 20.2118 14.5139V14.5107ZM22.7175 21.6755C23.4698 19.8154 24.1915 18.0305 24.9407 16.1829C23.5128 15.9763 22.1709 15.779 20.8443 15.588C20.7737 15.7383 20.7338 15.8134 20.7031 15.8917C19.6498 18.829 18.5965 21.7663 17.5586 24.7099C17.4696 24.9604 17.4604 25.2579 17.488 25.5272C17.6692 27.2964 17.8688 29.0657 18.0653 30.8318C18.096 31.1011 18.1421 31.3673 18.1881 31.6773C21.5291 31.6241 24.821 31.5709 28.1067 31.5176C28.1527 31.3642 28.1865 31.2828 28.1988 31.2013C28.3831 29.9738 28.5489 28.74 28.7515 27.5156C28.8191 27.1054 28.8068 26.714 28.7331 26.31C28.469 24.857 28.2142 23.4009 27.9531 21.9479C27.9347 21.8508 27.8733 21.76 27.8395 21.6786H22.7236L22.7175 21.6755Z" fill="#FFEB61"/>
<path d="M37.2821 31.9846H36.4346V30.2842H37.2913C37.3404 30.8447 37.3374 31.4178 37.2821 31.9846Z" fill="#FFEB61"/>
<path d="M8.67489 29.8613H9.52856V31.5617H8.69024C8.61654 30.9761 8.62576 30.4156 8.67489 29.8613Z" fill="#FFEB61"/>
<path d="M8.6933 24.0781H9.5224V25.7754H8.6933V24.0781Z" fill="#FFEB61"/>
<path d="M9.51627 22.8312H8.71173C8.57662 22.2895 8.66567 21.7415 8.65646 21.1465H9.53469C9.58997 21.6851 9.60225 22.2425 9.51627 22.8312Z" fill="#FFEB61"/>
<path d="M37.3036 23.2387H36.4468V21.5195H37.2514C37.3865 22.0675 37.3036 22.6155 37.3036 23.2387Z" fill="#FFEB61"/>
<path d="M37.2882 24.5068V26.1916H36.4376V24.5068H37.2882Z" fill="#FFEB61"/>
<path d="M9.5347 27.2246V28.4302H8.67181V27.2246H9.5347Z" fill="#FFEB61"/>
<path d="M9.52547 19.7403H8.68408V18.4814H9.52547V19.7403Z" fill="#FFEB61"/>
<path d="M36.4223 20.1289V18.917H37.2698V20.1289H36.4223Z" fill="#FFEB61"/>
<path d="M37.2729 28.8908H36.4438V27.6602H37.2729V28.8908Z" fill="#FFEB61"/>
<path d="M21.6765 28.3957V24.3311H25.0359C25.0851 25.568 25.1373 26.8393 25.1895 28.1639C23.9888 28.2422 22.8649 28.3174 21.6765 28.3957ZM24.1178 27.2558V25.2861H22.6131V27.3686C23.1505 27.3278 23.6418 27.2934 24.1178 27.2558Z" fill="#FFEB61"/>
</g>
<defs>
<clipPath id="clip0_357_1342">
<rect width="46" height="41" fill="white"/>
</clipPath>
</defs>
</svg>
