<svg width="46" height="41" viewBox="0 0 46 41" fill="none" xmlns="http://www.w3.org/2000/svg">
<g clip-path="url(#clip0_356_1241)">
<path d="M17.6539 -0.000582601C17.9271 0.874884 17.8289 1.20318 17.1075 1.67844C16.6532 1.9786 16.3892 2.38819 16.3063 2.92598C16.1528 3.94215 16.3124 4.84263 16.9878 5.6837C18.6884 7.80358 18.0898 10.6582 15.7261 11.9652C15.5972 12.0371 15.4652 12.1059 15.3332 12.1684C14.839 12.4029 14.621 12.7969 14.6394 13.3503C14.6579 13.9006 14.6425 14.4509 14.6425 15.07H13.2243C13.2059 15.3389 13.1813 15.5421 13.1782 15.7484C13.166 18.0841 13.1568 20.4197 13.1414 22.7553C13.1414 23.0774 13.1291 23.3994 13.0831 23.7152C13.037 24.0279 12.8436 24.1998 12.5121 24.1936C12.156 24.1842 11.935 24.0435 11.8705 23.7058C11.8306 23.4995 11.8368 23.2806 11.8368 23.0648C11.8368 21.0294 11.8398 18.9939 11.8306 16.9585C11.8306 16.5332 11.7723 16.108 11.7293 15.6828C11.6986 15.3826 11.5022 15.22 11.2228 15.2044C10.79 15.1825 10.351 15.1982 9.86907 15.1982C9.81074 15.5265 9.76777 15.7953 9.71865 16.0642C9.68488 16.23 9.66646 16.4082 9.59586 16.5583C9.40554 16.9585 9.08935 16.996 8.80387 16.6614C8.58592 16.4082 8.51531 16.1111 8.53066 15.7703C8.55215 15.2325 8.43857 15.1419 7.92285 15.1137C6.79319 15.0512 6.41868 15.4014 6.42482 16.5708C6.45859 22.7428 6.44017 28.9148 6.44324 35.0869C6.44324 35.4214 6.47701 35.7591 6.49543 36.1124H8.45392C8.49076 35.6341 8.52452 35.1744 8.56136 34.7117C8.57978 34.4991 8.56136 34.2708 8.63503 34.0801C8.69336 33.9238 8.83764 33.7518 8.98805 33.6861C9.20293 33.5955 9.41782 33.7268 9.50991 33.9363C9.61121 34.1645 9.68795 34.4178 9.7033 34.6648C9.734 35.1307 9.71251 35.5965 9.71251 36.1062H11.7692C11.7938 35.8029 11.8368 35.4934 11.8368 35.1838C11.8429 32.7825 11.8368 30.3844 11.8368 27.9831C11.8368 27.8549 11.8245 27.7236 11.8398 27.5985C11.8859 27.2233 12.2389 26.8575 12.5275 26.8794C12.7884 26.8981 13.0954 27.2608 13.1322 27.6141C13.1506 27.783 13.1414 27.9581 13.1414 28.1269C13.1414 30.3781 13.1414 32.6262 13.1414 34.8774C13.1414 35.1338 13.1475 35.3933 13.1813 35.6466C13.2458 36.1218 13.3624 36.2187 13.8413 36.2312C14.1268 36.2375 14.4123 36.2312 14.7438 36.2312V39.5924H17.7429V40.8681C17.3101 41.0088 1.26153 41.0557 0.392791 40.9087C0.380512 40.7336 0.359024 40.5492 0.355954 40.3647C0.355954 40.1771 0.374372 39.9895 0.386651 39.7269C1.1019 39.7269 1.78952 39.7269 2.47714 39.7269C3.25378 39.7269 3.37043 39.5955 3.35509 38.7826C3.34281 37.9509 3.35509 37.1192 3.35509 36.2031H5.05879C5.07414 35.8936 5.09256 35.6622 5.09256 35.4339C5.09256 29.0493 5.09256 22.6615 5.09256 16.2769C5.09256 15.145 5.08949 15.145 3.96289 15.1669C3.79713 15.1669 3.63136 15.1669 3.3735 15.1669C3.3735 14.5666 3.33667 13.9944 3.37964 13.4285C3.42876 12.7531 3.16783 12.3779 2.55388 12.1027C-0.0922277 10.9302 -0.838173 7.76606 1.05585 5.55238C1.92152 4.53934 1.7711 2.9635 1.34134 2.04738C1.25846 1.87229 1.06813 1.72221 0.890088 1.63154C0.220886 1.28135 0.17484 1.22194 0.217816 0.446531C0.227025 0.296451 0.230095 0.149497 0.236234 -0.000582601H17.6539ZM6.44324 4.70193C6.42175 4.74883 6.40026 4.7926 6.38185 4.8395C6.55989 5.06462 6.73794 5.28974 6.91598 5.51173C7.65579 6.42159 8.07327 7.45339 7.97811 8.64778C7.8369 10.4206 6.94054 11.6275 5.29209 12.2497C4.7733 12.4467 4.62289 12.75 4.72419 13.3034C4.80707 13.7693 4.91758 13.8506 5.54995 13.8537C7.81848 13.8568 10.0901 13.8599 12.3586 13.8537C12.6441 13.8537 12.9327 13.7911 13.212 13.7599C13.2427 13.6004 13.2642 13.4941 13.2826 13.3909C13.3808 12.7656 13.3041 12.5968 12.7577 12.3122C12.5152 12.184 12.2604 12.0809 12.024 11.9433C10.3756 11.0022 9.59893 9.12303 10.1024 7.28455C10.2988 6.56855 10.6856 5.9651 11.1645 5.41168C11.3333 5.21783 11.5758 5.06149 11.6096 4.6988C9.86293 4.6988 8.15615 4.69255 6.44631 4.70505L6.44324 4.70193ZM2.75956 3.34495C2.98058 3.34495 3.14327 3.34495 3.30904 3.34495C6.92212 3.34495 10.5352 3.34495 14.1513 3.34495C14.3601 3.34495 14.5719 3.3387 14.7806 3.32932C15.0968 3.31681 15.2749 3.12609 15.3608 2.83218C15.5358 2.24124 15.2595 1.6972 14.6671 1.52836C14.4092 1.45332 14.1299 1.44081 13.8597 1.44081C10.5628 1.44081 7.26286 1.44081 3.96596 1.45332C3.57304 1.45332 3.18318 1.51272 2.76263 1.54712V3.34808L2.75956 3.34495ZM13.9733 5.64618C12.5244 5.64618 11.2566 6.91873 11.2535 8.37576C11.2504 9.83279 12.4569 11.0491 13.9211 11.0584C15.37 11.0678 16.6501 9.79214 16.644 8.34449C16.6378 6.91561 15.3792 5.64305 13.9733 5.64618ZM4.00894 5.64618C2.53854 5.65243 1.35976 6.84369 1.35669 8.33199C1.35055 9.86093 2.52933 11.0584 4.03657 11.0584C5.5039 11.0584 6.71645 9.80465 6.70417 8.30385C6.69189 6.85307 5.46399 5.63993 4.00894 5.64618ZM4.73033 39.6581C4.92986 39.68 5.01274 39.6987 5.09563 39.6987C7.51458 39.6893 9.93046 39.68 12.3494 39.6643C12.5367 39.6643 12.727 39.6362 12.9142 39.608C13.166 39.5674 13.3409 39.4267 13.3931 39.1672C13.4975 38.6419 13.5313 38.1166 13.3164 37.6039C13.2089 37.5913 13.1261 37.5726 13.0432 37.5726C10.6457 37.5726 8.24825 37.5726 5.85078 37.5757C5.59906 37.5757 5.35042 37.6226 5.0987 37.6601C4.77944 37.707 4.60447 37.9165 4.61368 38.2323C4.62903 38.6982 4.68735 39.1609 4.72726 39.6581H4.73033Z" fill="#FFEB61"/>
<path d="M45.7974 -0.000582602C45.7974 0.171384 45.7912 0.343351 45.8066 0.512191C45.8557 1.04998 45.6869 1.41267 45.1374 1.58464C44.947 1.64404 44.7475 1.85666 44.6585 2.05051C44.3515 2.71962 44.2257 3.43563 44.3331 4.17665C44.4037 4.6519 44.5971 5.06775 44.9164 5.43357C46.9639 7.78169 45.9294 11.0991 43.3661 12.1153C42.8074 12.3372 42.6048 12.7124 42.6417 13.3096C42.6785 13.9006 42.6509 14.4978 42.6509 15.1419C42.2365 15.1419 41.8834 15.1325 41.5304 15.1419C41.0301 15.1575 40.9564 15.2325 40.9165 15.7422C40.9073 15.8485 40.9134 15.9548 40.9134 16.0642C40.9134 22.5552 40.9134 29.0493 40.9134 35.5402C40.9134 35.7091 40.9257 35.8779 40.938 36.1156H42.611C42.6325 36.3626 42.6632 36.547 42.6632 36.7284C42.6662 37.4569 42.6632 38.1854 42.6632 38.9139C42.6632 39.5549 42.8259 39.705 43.449 39.6987C44.1612 39.6925 44.8734 39.6987 45.6224 39.6987V40.8149C45.1926 40.9525 29.1686 40.9963 28.2876 40.8556V39.5518H31.2714V36.1656C31.6121 36.1656 31.8761 36.1656 32.1401 36.1656C32.6988 36.1593 32.8155 36.0624 32.8277 35.4996C32.8523 34.4084 32.8554 33.3141 32.8584 32.2229C32.8615 30.7658 32.8523 29.3088 32.8584 27.8518C32.8584 27.6861 32.8676 27.5047 32.926 27.3546C33.058 27.0107 33.3404 26.8106 33.5798 26.8481C33.8377 26.8888 34.1354 27.2108 34.1753 27.5235C34.1968 27.6923 34.1876 27.8643 34.1876 28.0362C34.1876 30.3938 34.1876 32.7513 34.1876 35.1056C34.1876 35.4027 34.1876 35.6997 34.1876 36.0593C34.9059 36.1531 35.5629 36.1062 36.3088 36.0937C36.3088 35.5653 36.2812 35.0775 36.318 34.596C36.3395 34.3302 36.4132 34.0363 36.5605 33.8237C36.8215 33.4423 37.2236 33.5267 37.3587 33.9738C37.4354 34.2364 37.4446 34.521 37.4661 34.7961C37.4999 35.2182 37.5214 35.6403 37.549 36.078H39.486C39.5075 35.806 39.5443 35.5559 39.5474 35.3089C39.5627 28.968 39.5719 22.6271 39.5812 16.2831C39.5812 15.392 39.2527 15.0637 38.3625 15.0606C38.2796 15.0606 38.1936 15.0512 38.1107 15.0543C37.5889 15.07 37.5091 15.1763 37.4692 15.6953C37.4477 15.9829 37.3771 16.28 37.2512 16.5364C37.1837 16.6771 36.9412 16.8428 36.8153 16.8146C36.6496 16.7802 36.4562 16.5926 36.3856 16.4238C36.2812 16.1737 36.2781 15.8829 36.2259 15.6077C36.2044 15.4858 36.1707 15.3639 36.1308 15.1794C35.7931 15.1638 35.4646 15.1294 35.1362 15.1356C34.4086 15.1544 34.249 15.2919 34.2091 16.0424C34.1692 16.8334 34.1815 17.6276 34.1815 18.4186C34.1815 19.9601 34.1876 21.5046 34.1876 23.0461C34.1876 23.2587 34.1876 23.4776 34.1385 23.6839C34.0618 23.9997 33.8008 24.1686 33.4724 24.1561C33.1439 24.1435 32.9659 23.9559 32.929 23.6433C32.883 23.2399 32.8431 22.8335 32.84 22.427C32.8277 20.2196 32.8277 18.0122 32.8216 15.8079C32.8216 15.5765 32.8216 15.3482 32.8216 15.0574H31.3757C31.3665 14.5384 31.3051 14.0694 31.3604 13.6161C31.4648 12.7812 31.1302 12.3029 30.3965 11.962C29.3804 11.4899 28.6529 10.6895 28.2876 9.60454C27.7934 8.14751 28.0635 6.79367 29.0243 5.63367C29.7457 4.76133 29.8931 3.81708 29.6782 2.75401C29.5892 2.3069 29.3896 1.91606 29.0059 1.71596C28.3367 1.36264 28.131 0.837364 28.2692 0.121357C28.2753 0.0807108 28.263 0.0369374 28.2569 -0.00683594C34.1047 -0.00683594 39.9526 -0.00683594 45.8004 -0.00683594L45.7974 -0.000582602ZM32.8124 13.7474C33.1408 13.7661 33.4141 13.7943 33.6842 13.7943C35.9558 13.7974 38.2243 13.7943 40.4959 13.7943C40.6433 13.7943 40.7968 13.8005 40.9318 13.7568C41.0393 13.7224 41.1621 13.6348 41.2173 13.5348C41.4844 13.0439 41.2572 12.431 40.7446 12.2153C40.6279 12.1653 40.5082 12.1278 40.3916 12.0777C38.7585 11.3617 37.8038 9.59203 38.0586 7.79733C38.1906 6.87496 38.5804 6.09329 39.1606 5.38979C39.3356 5.17718 39.5996 5.00209 39.6149 4.67066C38.1292 4.56748 34.8599 4.61125 34.338 4.75195C34.6082 5.07713 34.8691 5.37729 35.1147 5.68995C36.8307 7.87549 36.1615 10.8552 33.6842 12.0652C33.4754 12.1653 33.2636 12.2591 33.061 12.3748C32.7755 12.5374 32.6466 12.7937 32.6927 13.1283C32.7172 13.319 32.7633 13.5035 32.8124 13.7505V13.7474ZM43.2679 1.5221C42.9793 1.48458 42.7154 1.42205 42.4483 1.41892C38.8966 1.40954 35.3449 1.40954 31.7932 1.4158C31.609 1.4158 31.4126 1.45019 31.2437 1.51898C30.7434 1.71908 30.5346 2.15682 30.6451 2.71337C30.7342 3.16361 30.9306 3.2918 31.5415 3.30743C31.5845 3.30743 31.6244 3.30743 31.6674 3.30743C35.3449 3.30743 39.0225 3.30743 42.7 3.30743C42.8842 3.30743 43.0653 3.28555 43.2679 3.26991V1.5221ZM44.6646 8.3101C44.6646 6.80305 43.449 5.58365 41.9602 5.60241C40.5082 5.62117 39.2957 6.85933 39.3049 8.3101C39.3172 9.77963 40.5297 11.0178 41.9602 11.0272C43.4613 11.0334 44.6646 9.82966 44.6646 8.31323V8.3101ZM29.3712 8.29447C29.362 9.74212 30.6452 11.0334 32.0818 11.024C33.5553 11.0147 34.7432 9.81715 34.7463 8.34449C34.7463 6.87183 33.5092 5.61179 32.0511 5.60241C30.6513 5.59303 29.3835 6.86558 29.3743 8.29447H29.3712ZM41.2357 39.6018C41.2849 39.3579 41.3432 39.1328 41.3708 38.9045C41.5059 37.7352 41.3462 37.5476 40.1797 37.5476C37.8682 37.5444 35.5567 37.5476 33.2452 37.5476C33.061 37.5476 32.8738 37.5476 32.6374 37.5476C32.6067 37.829 32.5668 38.0541 32.5607 38.2823C32.5269 39.4642 32.6681 39.6205 33.8377 39.6237C36.1707 39.6331 38.5037 39.6268 40.8336 39.6237C40.9564 39.6237 41.0792 39.608 41.2388 39.5987L41.2357 39.6018Z" fill="#FFEB61"/>
<path d="M27.0781 34.7242C25.003 34.818 22.9524 34.9118 20.8066 35.0087C20.8588 31.313 20.9079 27.6861 20.9632 23.9528C19.9164 24.4531 18.9587 24.9096 17.9149 25.4067C17.7062 23.5276 17.5067 21.7298 17.301 19.8913C17.4975 19.7662 17.6878 19.638 17.8812 19.5192C18.9648 18.8657 20.0484 18.2091 21.1412 17.5713C21.3346 17.4587 21.5649 17.3587 21.7797 17.3524C23.4374 17.2961 25.0981 17.268 26.7589 17.2305C26.8417 17.2305 26.9216 17.2524 27.0781 17.2711V34.7273V34.7242ZM26.1326 18.256C25.1779 18.256 24.2969 18.3092 23.4251 18.2435C22.3047 18.1591 21.3316 18.4468 20.4168 19.1034C19.7537 19.5817 19.0201 19.9569 18.314 20.3822C18.446 21.5766 18.5719 22.7178 18.7039 23.9403C19.7875 23.4244 20.8158 22.9367 21.9363 22.4051C21.8872 26.3291 21.7828 30.1249 21.7982 33.9926C23.3085 33.9238 24.742 33.8581 26.237 33.7924C26.2032 28.5647 26.1664 23.415 26.1326 18.256Z" fill="#FFEB61"/>
<path d="M36.4101 24.4781H37.2819V26.1477H36.4101V24.4781Z" fill="#FFEB61"/>
<path d="M37.2973 23.2149H36.407V21.5171H37.2973V23.2149Z" fill="#FFEB61"/>
<path d="M37.3034 30.2374V31.9102H36.4132V30.2374H37.3034Z" fill="#FFEB61"/>
<path d="M8.69653 22.7647V21.1044H9.54685V22.7647H8.69653Z" fill="#FFEB61"/>
<path d="M9.5622 24.0779V25.7006H8.71188V24.0779H9.5622Z" fill="#FFEB61"/>
<path d="M8.70574 29.8372H9.54685V31.4818H8.70574V29.8372Z" fill="#FFEB61"/>
<path d="M37.2881 28.8273H36.4101V27.5735H37.2881V28.8273Z" fill="#FFEB61"/>
<path d="M36.4224 18.8751H37.2973V20.0914H36.4224V18.8751Z" fill="#FFEB61"/>
<path d="M9.55299 27.1764V28.3989H8.70267V27.1764H9.55299Z" fill="#FFEB61"/>
<path d="M8.6996 18.4249H9.52536V19.6505H8.6996V18.4249Z" fill="#FFEB61"/>
</g>
<defs>
<clipPath id="clip0_356_1241">
<rect width="46" height="41" fill="white"/>
</clipPath>
</defs>
</svg>
