<svg width="46" height="41" viewBox="0 0 46 41" fill="none" xmlns="http://www.w3.org/2000/svg">
<g clip-path="url(#clip0_357_1298)">
<path d="M6.48938 36.1814C6.6798 36.2003 6.79957 36.2191 6.92242 36.2191C7.40459 36.2222 7.88677 36.2191 8.43958 36.2191C8.46722 35.8899 8.48872 35.5983 8.51636 35.3067C8.55321 34.9022 8.5655 34.4915 8.64842 34.0933C8.67913 33.9429 8.8634 33.7391 9.0016 33.7171C9.14902 33.6952 9.37936 33.8174 9.46842 33.9523C9.59434 34.1341 9.66805 34.3818 9.68033 34.6075C9.71104 35.1154 9.68954 35.6265 9.68954 36.1752H11.7595C11.7779 35.8554 11.8148 35.545 11.8148 35.2315C11.8179 32.8047 11.8209 30.3749 11.8117 27.9482C11.8117 27.5782 11.8824 27.2741 12.1772 27.039C12.4167 26.8477 12.6317 26.8571 12.8467 27.0797C13.0832 27.3212 13.1723 27.6002 13.1692 27.9482C13.1569 30.2244 13.16 32.5038 13.163 34.78C13.163 35.059 13.163 35.3381 13.1815 35.6171C13.2152 36.1532 13.3166 36.2536 13.8295 36.2661C14.0598 36.2724 14.2902 36.2661 14.5236 36.2724C14.5604 36.2724 14.5973 36.3037 14.7171 36.357V39.6302H17.7207V40.9941H0.365469V39.834C0.519028 39.8121 0.678729 39.7745 0.835359 39.7713C1.40353 39.7682 1.97169 39.7745 2.53986 39.7839C3.19709 39.7933 3.32301 39.6804 3.32915 39.0189C3.33529 38.3103 3.32915 37.6017 3.33222 36.8931C3.33222 36.705 3.35065 36.5169 3.366 36.2598H5.05208C5.06436 35.9839 5.08586 35.777 5.08586 35.5701C5.08586 29.08 5.08586 22.5932 5.08586 16.1031C5.08586 15.9965 5.08893 15.8868 5.08279 15.7802C5.04593 15.2942 4.95073 15.1814 4.46855 15.1531C4.11844 15.1312 3.76526 15.15 3.34143 15.15C3.34143 14.5449 3.31072 13.9461 3.35065 13.3535C3.39364 12.7264 3.15409 12.3753 2.58285 12.1245C-0.101349 10.9362 -0.823074 7.81347 1.03191 5.50277C1.79971 4.54651 1.9287 3.07293 1.3206 2.0038C1.23154 1.84704 1.08412 1.69341 0.927494 1.60876C0.116705 1.16668 0.0614235 1.05381 0.285619 0.05993H17.6132C17.8988 0.746555 17.8159 1.18236 17.2538 1.54919C16.7686 1.86585 16.4154 2.23581 16.3141 2.84092C16.1759 3.66863 16.1728 4.46813 16.6457 5.19865C16.7502 5.35855 16.8792 5.50277 16.9959 5.6564C18.6543 7.8072 18.0769 10.6666 15.7213 11.9646C15.6292 12.0147 15.5371 12.068 15.4388 12.1057C14.8153 12.3502 14.6034 12.8236 14.6464 13.482C14.6802 13.99 14.6526 14.5041 14.6526 15.0654H13.206C13.1968 15.3413 13.1815 15.567 13.1815 15.7927C13.1723 18.1567 13.1661 20.5207 13.1538 22.8816C13.1538 23.1606 13.1108 23.4365 13.077 23.7124C13.0402 24.0322 12.8621 24.2172 12.5396 24.2392C12.2263 24.258 11.953 24.0824 11.8731 23.7657C11.8209 23.562 11.8179 23.3425 11.8179 23.1293C11.8148 21.0663 11.8179 19.0033 11.8179 16.9403C11.8179 16.7678 11.824 16.5954 11.8179 16.4261C11.7687 15.219 11.6275 15.1626 10.4451 15.1751C10.2608 15.1751 10.0765 15.2284 9.85232 15.2597C9.81853 15.4635 9.79396 15.6517 9.76018 15.8366C9.71719 16.0686 9.69569 16.3101 9.60969 16.5264C9.43464 16.9747 9.09067 17.0218 8.78969 16.6581C8.57778 16.3979 8.50714 16.1031 8.51636 15.7614C8.53478 15.219 8.42729 15.1218 7.90827 15.1061C7.71785 15.0998 7.53051 15.0998 7.3401 15.1061C6.82721 15.1343 6.44639 15.5294 6.44332 16.0624C6.43717 17.1378 6.44332 18.21 6.44332 19.2854C6.44332 24.5057 6.44332 29.729 6.44332 34.9493C6.44332 35.3506 6.47403 35.7519 6.49246 36.1752L6.48938 36.1814ZM6.26212 4.697C6.53852 5.03875 6.75043 5.2927 6.95313 5.55293C7.724 6.53427 8.12632 7.64416 7.94819 8.90454C7.71785 10.5317 6.83336 11.6448 5.32234 12.2342C4.7511 12.4568 4.5484 12.8613 4.74496 13.4476C4.7941 13.5981 4.97223 13.7329 5.12271 13.8112C5.24249 13.874 5.4114 13.8395 5.55882 13.8395C7.78849 13.8395 10.0182 13.8395 12.2478 13.8395C12.558 13.8395 12.8651 13.805 13.1508 13.7862C13.4579 12.8236 13.3657 12.5979 12.558 12.2091C12.3676 12.1182 12.1772 12.0273 11.996 11.9207C10.4051 10.9958 9.64348 9.24315 10.0489 7.42783C10.2147 6.6785 10.5894 6.0389 11.0839 5.46515C11.2835 5.23627 11.5169 5.02307 11.652 4.697H6.26212ZM3.92803 11.0365C5.39298 11.093 6.64294 9.89842 6.70744 8.37782C6.76579 6.97635 5.53118 5.63131 4.08773 5.6125C2.38016 5.59056 1.38203 6.92618 1.33289 8.21792C1.27454 9.7542 2.40473 10.977 3.92803 11.0365ZM16.6304 8.359C16.6396 6.92932 15.3927 5.62504 13.9953 5.59996C12.5642 5.57488 11.2804 6.85407 11.262 8.32138C11.2436 9.84826 12.4229 11.0428 13.94 11.0397C15.3712 11.0365 16.6212 9.79183 16.6304 8.359ZM2.73334 3.30808C2.99132 3.30808 3.19709 3.30808 3.40593 3.30808C7.0207 3.30808 10.6385 3.30808 14.2533 3.30808C14.3792 3.30808 14.5051 3.31121 14.6311 3.30494C15.1439 3.27045 15.3497 3.06352 15.3835 2.55247C15.4234 2.00067 15.0887 1.55546 14.5359 1.44886C14.3731 1.4175 14.2011 1.4175 14.0322 1.42064C10.5833 1.42064 7.1374 1.42377 3.68848 1.43318C3.37829 1.43318 3.0681 1.48021 2.73027 1.50843V3.31121L2.73334 3.30808ZM13.3412 37.702C13.206 37.6832 13.0863 37.6519 12.9634 37.655C10.5034 37.655 8.04033 37.6582 5.58032 37.6644C5.4329 37.6644 5.28241 37.6676 5.14114 37.6989C4.74803 37.7804 4.58833 37.9497 4.59754 38.3605C4.60676 38.8057 4.67739 39.2477 4.72039 39.7055C4.87702 39.7243 4.97837 39.7494 5.07972 39.7494C7.51823 39.7494 9.95981 39.7462 12.3983 39.74C12.5642 39.74 12.7361 39.7243 12.8989 39.6929C13.1692 39.6365 13.3657 39.4672 13.4026 39.185C13.464 38.6991 13.4917 38.2068 13.3412 37.7083V37.702Z" fill="#FFEB61"/>
<path d="M40.9356 36.2253H42.6586C42.6708 36.9559 42.6862 37.6362 42.6923 38.3134C42.6954 38.6144 42.6678 38.9154 42.6862 39.2164C42.7169 39.6302 42.8244 39.7368 43.2452 39.7462C43.8563 39.7619 44.4644 39.7463 45.0756 39.7525C45.2384 39.7525 45.4042 39.7682 45.6069 39.7776V40.9753H28.2763V39.6334C29.2253 39.5769 30.205 39.6428 31.2584 39.5958V36.2473C31.6269 36.2473 31.9125 36.2567 32.2012 36.2473C32.6465 36.2316 32.7694 36.1313 32.8277 35.6955C32.8646 35.4196 32.8646 35.1374 32.8646 34.8584C32.8646 32.5602 32.8646 30.2589 32.8646 27.9607C32.8646 27.8103 32.8523 27.6566 32.88 27.5124C32.9383 27.202 33.2792 26.8634 33.5065 26.8634C33.7706 26.8634 34.1146 27.2146 34.1606 27.5532C34.1821 27.7225 34.1698 27.8949 34.1698 28.0673C34.1698 30.4313 34.1698 32.7953 34.1698 35.1593C34.1698 35.4729 34.2098 35.7895 34.2313 36.1156H36.289C36.289 35.6359 36.2736 35.1907 36.2951 34.7455C36.3074 34.5166 36.3504 34.2752 36.4333 34.062C36.5316 33.8112 36.7159 33.6262 37.0199 33.6764C37.3024 33.7234 37.37 33.9648 37.4069 34.1999C37.4406 34.41 37.4345 34.6295 37.4529 34.8427C37.4836 35.2503 37.5205 35.6547 37.5574 36.1062H39.5106C39.529 35.7833 39.5659 35.4509 39.5659 35.1186C39.569 31.0365 39.5659 26.9543 39.5659 22.8722C39.5659 20.6587 39.5659 18.4452 39.5659 16.2317C39.5659 15.4291 39.2465 15.0967 38.4787 15.0904C38.3743 15.0904 38.2668 15.0904 38.1624 15.0904C37.5389 15.0967 37.4591 15.1657 37.4836 15.7833C37.499 16.1314 37.3884 16.4167 37.1735 16.6644C36.897 16.9779 36.6237 16.9434 36.4272 16.564C36.3504 16.4167 36.3227 16.2411 36.289 16.0749C36.2337 15.8053 36.1968 15.5325 36.1477 15.2503C35.9972 15.2096 35.8805 15.15 35.7607 15.1469C34.3111 15.0748 34.1944 15.1939 34.1729 16.5703C34.1453 18.718 34.1668 20.8688 34.1637 23.0164C34.1637 23.2296 34.1698 23.4491 34.1361 23.6591C34.0808 24.0072 33.875 24.1765 33.528 24.1921C33.1901 24.2078 32.9752 24.0511 32.9076 23.6874C32.8646 23.4585 32.8615 23.2171 32.8615 22.9819C32.8523 21.1353 32.8492 19.2854 32.8462 17.4388C32.8462 16.6894 32.8462 15.937 32.8462 15.1218C32.3302 15.0936 31.8818 15.0685 31.3444 15.0371C31.3444 14.5637 31.3044 14.1154 31.3536 13.6764C31.4519 12.833 31.1263 12.3471 30.3708 11.9583C28.7615 11.1306 27.9415 9.76047 28.0705 7.87617C28.1289 7.03278 28.439 6.27405 28.9796 5.6564C29.6184 4.92588 29.8149 4.10444 29.7289 3.15758C29.6644 2.46782 29.4157 1.93796 28.8168 1.56486C28.1811 1.16982 28.0828 0.781043 28.3561 0.00976562H45.7267C45.7574 0.238641 45.8004 0.445569 45.8065 0.652497C45.8188 1.05381 45.6775 1.38302 45.266 1.49275C44.8145 1.61189 44.5873 1.9411 44.5136 2.35495C44.4122 2.9193 44.3508 3.49619 44.3385 4.06995C44.3262 4.581 44.5566 5.01994 44.8975 5.3993C45.3735 5.9323 45.7082 6.54995 45.8741 7.25225C46.3255 9.15536 45.4165 11.1024 43.669 11.9865C43.5369 12.0524 43.4018 12.1119 43.2636 12.1652C42.8091 12.3408 42.6186 12.6794 42.6248 13.1654C42.634 13.805 42.6248 14.4414 42.6248 15.1312C42.2071 15.1312 41.857 15.1187 41.5038 15.1312C41.037 15.15 40.9571 15.2347 40.9264 15.7018C40.9141 15.8743 40.9203 16.0467 40.9203 16.216C40.9203 22.6182 40.9203 29.0236 40.9203 35.4258V36.2347L40.9356 36.2253ZM39.7164 4.67192H34.305C34.6459 5.09205 34.9346 5.42439 35.1956 5.77554C36.7865 7.91379 36.1293 10.8014 33.7829 12.0022C33.5587 12.1182 33.3283 12.2217 33.1011 12.3377C32.7786 12.5038 32.6496 12.7735 32.7049 13.134C32.7325 13.3221 32.7725 13.5071 32.8155 13.7485C33.1656 13.7705 33.4973 13.805 33.8289 13.805C35.9941 13.8112 38.1624 13.805 40.3275 13.805C40.475 13.805 40.6224 13.805 40.7698 13.7987C41.0616 13.783 41.2213 13.6294 41.2888 13.3347C41.4178 12.7703 41.2428 12.3878 40.6807 12.1809C39.6826 11.8141 38.9148 11.1776 38.4603 10.1994C37.7048 8.56907 37.929 7.02965 38.9732 5.59996C39.1851 5.31152 39.4185 5.03875 39.7164 4.66565V4.67192ZM32.0446 10.9926C33.5341 11.002 34.7288 9.84513 34.7595 8.36214C34.7902 6.8917 33.485 5.5592 32.02 5.56547C30.6349 5.57174 29.3512 6.88856 29.3543 8.29943C29.3573 9.72598 30.6134 10.9832 32.0446 10.9926ZM44.6518 8.30884C44.6579 6.7851 43.4632 5.56234 41.9768 5.56861C40.5395 5.57488 39.3079 6.82272 39.3079 8.27122C39.3079 9.7542 40.4965 10.9801 41.943 10.9926C43.4786 11.0052 44.6456 9.84826 44.6518 8.3057V8.30884ZM43.2574 1.46767C42.8459 1.43632 42.4712 1.38302 42.0996 1.37988C38.7152 1.37361 35.3307 1.37361 31.9463 1.37988C31.7191 1.37988 31.4795 1.39869 31.2614 1.46767C30.7731 1.62757 30.5213 2.12608 30.6226 2.64967C30.7148 3.11996 30.899 3.25478 31.501 3.25478C35.2417 3.26105 38.9854 3.26418 42.7261 3.26418C42.9073 3.26418 43.0855 3.2391 43.2574 3.22656V1.46767ZM41.2581 39.7149C41.3165 39.2195 41.4055 38.7586 41.4147 38.2978C41.424 37.8996 41.2397 37.7271 40.8374 37.6676C40.5671 37.6268 40.2938 37.6143 40.0204 37.6143C37.7723 37.6111 35.5242 37.6111 33.2731 37.6143C33.0704 37.6143 32.8646 37.6362 32.6527 37.6488C32.6189 37.8243 32.5882 37.9466 32.5759 38.072C32.5575 38.2633 32.5391 38.4576 32.5452 38.6489C32.5606 39.4515 32.7295 39.6334 33.4942 39.7024C33.6815 39.718 33.8719 39.718 34.0624 39.718C36.2275 39.718 38.3927 39.718 40.5579 39.718C40.7667 39.718 40.9756 39.718 41.2581 39.718V39.7149Z" fill="#FFEB61"/>
<path d="M28.3131 17.5234C28.5557 18.9155 28.7861 20.2887 29.0379 21.6588C29.0871 21.9222 28.9673 22.057 28.8107 22.2075C28.0214 22.9788 27.2382 23.7595 26.4459 24.5276C26.3107 24.6593 26.1265 24.7408 25.9668 24.8443L26.0589 25.0167C26.7714 25.3741 27.4686 25.7661 28.1964 26.0796C28.6909 26.2896 28.8629 26.5812 28.8874 27.1362C29.0011 29.5158 29.17 31.8924 29.3174 34.2721C29.3235 34.3787 29.3174 34.4853 29.3174 34.6859C25.5736 34.9587 21.8299 35.1656 18.0032 35.4008C17.7575 33.5854 17.518 31.8109 17.2661 29.9642C19.2532 29.729 21.2218 29.6789 23.1689 29.4908C23.2641 28.9452 23.2549 28.9107 22.8034 28.801C21.8852 28.5753 20.9638 28.3589 20.0455 28.1363C19.8828 28.0987 19.7231 28.0485 19.5019 27.9858C19.5019 27.688 19.5019 27.3933 19.5019 27.0985C19.5081 26.4119 19.5357 25.7222 19.5142 25.0387C19.4989 24.5903 19.6279 24.2674 20.0025 24.0103C20.3803 23.7501 20.7243 23.4365 21.1757 23.0697C20.4356 22.9349 19.8183 23.0603 19.2071 23.0634C18.5775 23.0666 17.9479 23.0634 17.2262 23.0634C17.1924 21.2795 17.1556 19.4924 17.1218 17.7178C17.5825 17.561 26.6455 17.4137 28.3101 17.5266L28.3131 17.5234ZM20.497 27.2177C20.6751 27.2741 20.8133 27.3243 20.9546 27.3588C21.8545 27.5782 22.7543 27.7946 23.6542 28.0109C23.8569 28.0611 24.0964 28.0736 24.1241 28.3527C24.1885 29.0111 24.2377 29.6695 24.2991 30.3655C22.2906 30.5818 20.3219 30.6101 18.341 30.8546C18.5099 32.068 18.6666 33.2029 18.8324 34.3881C22.0387 34.1874 25.159 33.9962 28.2886 33.8018C28.3039 33.6513 28.3254 33.5698 28.3193 33.4882C28.1995 31.4503 28.0705 29.4155 27.9599 27.3776C27.9446 27.086 27.7849 26.97 27.5668 26.8603C26.753 26.459 25.9422 26.0514 25.1314 25.6438C24.8949 25.5246 24.6646 25.3867 24.2684 25.1672C24.5141 24.9979 24.6891 24.907 24.8243 24.7753C25.8009 23.8285 26.7653 22.8691 27.7419 21.9222C27.9569 21.7121 28.0705 21.5178 27.9907 21.1948C27.8739 20.7183 27.8156 20.226 27.7296 19.7401C27.6559 19.3231 27.5791 18.9092 27.4993 18.4671C24.339 18.4765 21.2371 18.5079 18.1598 18.5925V22.1103C20.0977 22.0602 21.9773 22.01 23.8538 21.963C23.7402 22.2169 23.5958 22.358 23.4392 22.4834C22.567 23.192 21.6886 23.8943 20.8225 24.6123C20.6874 24.7251 20.5154 24.8976 20.5093 25.0512C20.4755 25.7566 20.4939 26.4621 20.4939 27.2271L20.497 27.2177Z" fill="#FFEB61"/>
<path d="M37.2748 31.9802H36.4333V30.2777H37.2748V31.9802Z" fill="#FFEB61"/>
<path d="M9.5237 29.8639V31.5663H8.67299V29.8639H9.5237Z" fill="#FFEB61"/>
<path d="M8.67299 22.8064V21.0976H9.51449C9.60662 21.6682 9.57284 22.242 9.5237 22.8064H8.67299Z" fill="#FFEB61"/>
<path d="M9.55441 25.7786H8.69141V24.0981H9.48992C9.64041 24.6154 9.53599 25.1609 9.55441 25.7786Z" fill="#FFEB61"/>
<path d="M37.2717 23.2233H36.4333V21.5303H37.2717V23.2233Z" fill="#FFEB61"/>
<path d="M37.2779 26.1925H36.4394V24.5245H37.2779V26.1925Z" fill="#FFEB61"/>
<path d="M8.67606 18.4765H9.52063V19.7024H8.67606V18.4765Z" fill="#FFEB61"/>
<path d="M9.52984 27.249V28.4436H8.69448V27.249H9.52984Z" fill="#FFEB61"/>
<path d="M37.2687 20.1226H36.4394V18.8935H37.2687V20.1226Z" fill="#FFEB61"/>
<path d="M36.421 28.8606V27.6504H37.2717V28.8606H36.421Z" fill="#FFEB61"/>
</g>
<defs>
<clipPath id="clip0_357_1298">
<rect width="46" height="41" fill="white"/>
</clipPath>
</defs>
</svg>
