<svg width="46" height="41" viewBox="0 0 46 41" fill="none" xmlns="http://www.w3.org/2000/svg">
<g clip-path="url(#clip0_357_1328)">
<path d="M28.3531 0H45.7512C45.7789 0.213036 45.8157 0.416673 45.828 0.623443C45.8557 1.06205 45.6806 1.37533 45.2506 1.50065C44.9681 1.5821 44.7623 1.74815 44.6487 2.02384C44.3416 2.7726 44.1911 3.55269 44.3907 4.34844C44.4828 4.70872 44.6579 5.0878 44.9005 5.36036C46.863 7.5753 46.1106 10.9933 43.3588 12.1148C42.8244 12.331 42.6248 12.6819 42.6555 13.2552C42.6893 13.8505 42.6616 14.452 42.6616 15.1318C42.2962 15.1318 41.9706 15.1287 41.642 15.1318C40.994 15.1412 40.9326 15.207 40.9203 15.8837C40.9203 15.9683 40.9203 16.056 40.9203 16.1406C40.9203 22.5818 40.9203 29.0261 40.9203 35.4673V36.1754H42.6248C42.6463 36.4291 42.6739 36.614 42.6739 36.7988C42.677 37.5507 42.6678 38.3026 42.6739 39.0545C42.6801 39.5996 42.8121 39.7343 43.3527 39.7437C43.9423 39.7531 44.532 39.7437 45.1186 39.7468C45.2814 39.7468 45.441 39.7782 45.6345 39.797V40.8904C45.1585 41.0157 29.1853 41.0533 28.2978 40.9311V39.609H31.2799V36.2443C31.5532 36.2318 31.7713 36.2067 31.9893 36.213C32.7141 36.2318 32.8339 36.1346 32.837 35.3765C32.8462 32.9078 32.8493 30.4391 32.8431 27.9672C32.8431 27.6571 32.8523 27.3751 33.0704 27.1276C33.3744 26.7861 33.66 26.783 33.9733 27.1276C34.1944 27.3751 34.1944 27.6665 34.1944 27.9704C34.1944 30.3545 34.1944 32.7386 34.1944 35.1196V36.1064H36.2705C36.2705 35.7274 36.249 35.3671 36.2767 35.0131C36.3043 34.6747 36.3535 34.3332 36.4517 34.0105C36.5224 33.7818 36.7251 33.6127 36.9892 33.6409C37.2625 33.6722 37.3669 33.8852 37.3915 34.1421C37.4284 34.5463 37.4621 34.9535 37.4959 35.3608C37.5144 35.5927 37.5266 35.8245 37.5451 36.1002H39.4953C39.5106 35.8934 39.5383 35.6866 39.5383 35.483C39.5444 29.0637 39.5505 22.6413 39.5536 16.2221C39.5536 15.3793 39.2404 15.066 38.4142 15.0598C38.2883 15.0598 38.1624 15.0472 38.0365 15.0566C37.5973 15.088 37.5144 15.1976 37.4806 15.655C37.4591 15.9244 37.4161 16.2033 37.3209 16.4539C37.238 16.6701 37.069 16.8706 36.7957 16.8424C36.5224 16.8142 36.4118 16.5949 36.3565 16.3568C36.3012 16.1061 36.2613 15.8524 36.2368 15.5955C36.206 15.2853 36.0586 15.1318 35.7484 15.1412C35.5795 15.1475 35.4106 15.1318 35.2448 15.1349C34.3787 15.1475 34.2159 15.2885 34.2067 16.2001C34.1883 18.4558 34.2006 20.7083 34.1944 22.964C34.1944 23.199 34.1944 23.4402 34.1422 23.6658C34.0624 24.0292 33.8627 24.1733 33.5157 24.1796C33.1717 24.1858 32.9997 24.0605 32.9291 23.647C32.8646 23.2679 32.8462 22.8794 32.8431 22.4941C32.8308 20.2823 32.8339 18.0705 32.8278 15.8586C32.8278 15.6237 32.8278 15.3887 32.8278 15.0848C32.3425 15.0629 31.891 15.041 31.3597 15.0159C31.3536 14.4927 31.3045 13.982 31.3474 13.4776C31.4089 12.754 31.1325 12.3216 30.4844 12.0146C29.256 11.4319 28.436 10.467 28.1381 9.08535C27.8586 7.79461 28.1811 6.63857 28.9888 5.65485C29.6644 4.82777 29.8825 3.9443 29.7013 2.90418C29.603 2.334 29.3573 1.91419 28.8813 1.60403C28.1964 1.15603 28.1074 0.870941 28.3469 0.00313288L28.3531 0ZM34.2804 4.64919C34.6367 5.0878 34.9315 5.41988 35.1956 5.77703C36.7773 7.88546 36.1508 10.7489 33.8443 11.9676C33.6754 12.0553 33.5003 12.1305 33.3314 12.2151C32.6189 12.5754 32.5145 12.9294 32.8984 13.7471C33.2362 13.7627 33.5925 13.7972 33.9487 13.7972C36.0525 13.8035 38.1532 13.7972 40.2569 13.7972C40.4258 13.7972 40.5947 13.7941 40.7606 13.7847C41.08 13.769 41.252 13.6092 41.295 13.274C41.3779 12.6412 41.2489 12.4156 40.6162 12.165C39.2373 11.6105 38.3835 10.6017 38.0948 9.11355C37.8307 7.75701 38.2207 6.57278 39.0469 5.51074C39.2496 5.25071 39.4584 4.99694 39.7379 4.64606H34.2773L34.2804 4.64919ZM43.282 1.47245C42.892 1.43486 42.5572 1.37847 42.2255 1.37847C38.7797 1.3722 35.3338 1.3722 31.888 1.37847C31.6822 1.37847 31.4672 1.4098 31.2737 1.47872C30.7885 1.65103 30.5397 2.09276 30.6196 2.58463C30.7056 3.12975 30.8929 3.27699 31.5563 3.27699C35.297 3.28326 39.0377 3.28639 42.7753 3.28952C42.935 3.28952 43.0977 3.2582 43.282 3.24253V1.47872V1.47245ZM42.0167 5.58593C40.564 5.57653 39.3202 6.78582 39.2926 8.23634C39.2649 9.70253 40.5241 11.0058 41.9737 11.0089C43.4724 11.0089 44.6825 9.79338 44.6763 8.28333C44.6702 6.80148 43.4816 5.59532 42.0167 5.58593ZM32.0446 5.58593C30.6349 5.58279 29.3788 6.84848 29.3665 8.28333C29.3543 9.72759 30.6411 11.0183 32.0876 11.0089C33.5648 10.9995 34.7442 9.80905 34.7442 8.32406C34.7442 6.84221 33.5126 5.59219 32.0477 5.58593H32.0446ZM41.2428 39.6341C41.2858 39.4179 41.3288 39.2331 41.3625 39.0451C41.5683 37.8358 41.3656 37.5852 40.1556 37.582C37.843 37.5758 35.5304 37.582 33.2178 37.582C33.0366 37.582 32.8523 37.6102 32.7049 37.6196C32.6527 37.7042 32.6189 37.7387 32.6128 37.7763C32.5943 37.9235 32.579 38.0739 32.5728 38.2211C32.5268 39.5369 32.6343 39.6591 33.9303 39.6654C36.1784 39.6717 38.4296 39.6654 40.6777 39.6654C40.8619 39.6654 41.0462 39.6435 41.2458 39.6278L41.2428 39.6341Z" fill="#FFEB61"/>
<path d="M14.6433 15.0976H13.1661C13.1661 15.3733 13.1661 15.58 13.1661 15.7868C13.1569 18.1271 13.1507 20.4673 13.1415 22.8076C13.1415 23.0864 13.1415 23.3684 13.1016 23.6441C13.0371 24.067 12.8375 24.2268 12.472 24.2111C12.1004 24.1954 11.9069 24.0169 11.8547 23.619C11.8301 23.4279 11.8363 23.2336 11.8363 23.0394C11.8363 21.0218 11.8394 19.0043 11.8301 16.9836C11.8301 16.5763 11.7841 16.169 11.7472 15.7649C11.7165 15.4171 11.5138 15.2103 11.176 15.1947C10.7614 15.1759 10.3437 15.1884 9.87381 15.1884C9.81545 15.5268 9.76017 15.815 9.71718 16.1063C9.64347 16.5888 9.44998 16.8864 9.19201 16.8958C8.94938 16.9052 8.64534 16.5951 8.55013 16.1847C8.50713 16.0061 8.53785 15.8056 8.53478 15.6176C8.52863 15.3169 8.39964 15.1258 8.08331 15.1195C7.78848 15.1164 7.49365 15.1007 7.20189 15.1258C6.8272 15.1602 6.47095 15.5581 6.44024 15.9434C6.43102 16.05 6.44024 16.1565 6.44024 16.2661C6.44024 22.5569 6.44024 28.8478 6.44024 35.1386C6.44024 35.455 6.44024 35.7714 6.44024 36.1223H8.4365C8.47949 35.6524 8.51942 35.1887 8.56242 34.725C8.5747 34.5966 8.5747 34.4682 8.58698 34.3397C8.61463 34.0577 8.64534 33.7664 8.98931 33.6943C9.25957 33.6379 9.50219 33.8165 9.62197 34.1987C9.69261 34.418 9.71103 34.6593 9.72025 34.8942C9.7356 35.2952 9.72332 35.6994 9.72332 36.1348H11.7626C11.7871 35.784 11.8332 35.4487 11.8363 35.1135C11.8394 32.7075 11.8363 30.3046 11.8301 27.8985C11.8301 27.8766 11.8271 27.8546 11.8271 27.8327C11.8301 27.344 12.1526 26.8866 12.4966 26.8835C12.8252 26.8803 13.1446 27.344 13.1477 27.8452C13.1477 29.5401 13.1477 31.2382 13.1477 32.933C13.1477 33.663 13.1477 34.393 13.1477 35.1229C13.1446 36.0785 13.2275 36.3635 14.2441 36.2508C14.3823 36.2351 14.5266 36.2821 14.7232 36.304V39.6092H17.7452V40.9846H0.411528V39.7565C1.09947 39.7565 1.76899 39.7533 2.43543 39.7565C3.26772 39.7627 3.31993 39.7095 3.31686 38.8417C3.31686 38.0083 3.31686 37.175 3.31686 36.2633H5.01828C5.03978 36.0064 5.07049 35.8216 5.07049 35.6367C5.07049 29.089 5.07049 22.5413 5.07049 15.9904C5.07049 15.8839 5.07049 15.7743 5.06435 15.6677C5.0275 15.2699 4.95072 15.1727 4.56682 15.1508C4.19214 15.1289 3.81439 15.1446 3.34757 15.1446C3.34757 14.5211 3.34142 13.929 3.34757 13.3369C3.35985 12.5756 3.28614 12.4315 2.57977 12.1245C0.00920421 11.0185 -0.909076 7.77288 1.07183 5.45455C1.79663 4.60554 1.89183 2.87619 1.29295 1.94886C1.20389 1.81415 1.06569 1.69196 0.924413 1.61678C0.116695 1.18757 0.0399161 1.01526 0.307108 0.0722656H17.6285C17.9141 0.770898 17.822 1.2095 17.2262 1.56978C16.5505 1.97706 16.3048 2.56291 16.2588 3.32733C16.2035 4.20767 16.4185 4.94703 16.9744 5.64566C18.6881 7.78855 18.08 10.6771 15.6845 11.9803C15.5739 12.0399 15.4603 12.0994 15.3466 12.1527C14.8522 12.3845 14.6188 12.7636 14.6403 13.3275C14.6618 13.882 14.6464 14.4397 14.6464 15.0976H14.6433ZM6.31125 4.71833C6.49245 4.96582 6.61222 5.135 6.73814 5.29791C6.86713 5.46709 7.01147 5.62373 7.13739 5.79604C8.82961 8.16449 7.85298 11.3538 5.33154 12.2216C5.23327 12.256 5.13192 12.2936 5.03978 12.3469C4.72652 12.5349 4.60368 12.9233 4.7081 13.3713C4.79102 13.7348 4.94151 13.8475 5.41139 13.8507C7.72706 13.8569 10.0396 13.8601 12.3553 13.8507C12.6409 13.8507 12.9235 13.788 13.1876 13.7536C13.4026 12.6696 13.3627 12.5944 12.4474 12.1558C12.2386 12.0555 12.0298 11.949 11.8363 11.8237C10.9886 11.2754 10.3775 10.5236 10.1072 9.53043C9.72025 8.10497 10.0089 6.81422 10.9241 5.66759C11.1576 5.37623 11.394 5.09114 11.6981 4.72146H6.31125V4.71833ZM2.71798 3.31166C3.01588 3.31166 3.24622 3.31166 3.47349 3.31166C6.16076 3.31166 8.84803 3.31166 11.5384 3.31166C12.5457 3.31166 13.5531 3.31793 14.5635 3.31166C15.2238 3.3054 15.5708 2.76968 15.3436 2.1337C15.2176 1.78595 14.975 1.55725 14.6188 1.48833C14.3516 1.43507 14.0782 1.40687 13.808 1.40687C10.4911 1.41314 7.17425 1.42254 3.85431 1.4382C3.4827 1.4382 3.11416 1.49146 2.71798 1.52279V3.3148V3.31166ZM4.0048 11.0405C5.47589 11.0499 6.70743 9.79986 6.70436 8.30547C6.69822 6.85808 5.4636 5.61746 4.02015 5.61433C2.55213 5.6112 1.36666 6.80169 1.35438 8.29294C1.34209 9.84998 2.4815 11.0311 4.0048 11.0373V11.0405ZM13.9063 11.0405C15.3589 11.0499 16.658 9.76853 16.6519 8.33367C16.6457 6.92074 15.362 5.61746 13.9707 5.61433C12.5273 5.61433 11.2558 6.88628 11.2466 8.34933C11.2374 9.82179 12.429 11.0279 13.9063 11.0405ZM13.4087 37.6574C13.1415 37.6355 12.9757 37.6104 12.8129 37.6104C10.6047 37.6104 8.3935 37.6042 6.18533 37.6104C5.85057 37.6104 5.51274 37.6386 5.18106 37.6888C4.75109 37.7514 4.56989 37.9363 4.58218 38.3686C4.59446 38.8103 4.67738 39.2521 4.72959 39.7001C4.92615 39.7189 5.049 39.7408 5.17184 39.7408C7.48751 39.7408 9.8001 39.7408 12.1158 39.7314C12.3676 39.7314 12.6194 39.6907 12.8682 39.6625C13.2122 39.6186 13.4026 39.415 13.4118 39.0641C13.4241 38.6161 13.4118 38.1712 13.4118 37.6574H13.4087Z" fill="#FFEB61"/>
<path d="M23.4914 21.4824C23.473 21.8145 23.4576 22.0839 23.4361 22.441C25.2235 22.5538 26.9741 22.6666 28.7707 22.7794C28.8076 23.1929 28.8567 23.5689 28.8751 23.948C28.9427 25.2982 29.0379 26.6485 29.0502 28.0019C29.0563 28.5909 28.9028 29.1893 28.7892 29.7751C28.5342 31.0753 28.2578 32.3723 27.9722 33.7539C24.511 33.7977 21.0713 33.8416 17.5425 33.8886C17.435 32.0653 17.3275 30.2795 17.217 28.4029C19.201 28.3747 21.1481 28.4029 23.1566 28.3841C23.1781 28.0708 23.1966 27.8014 23.2242 27.4443C21.621 27.3503 20.0517 27.4192 18.4055 27.3628C18.1568 26.8427 17.908 26.282 17.6193 25.74C17.3398 25.2136 17.2354 24.6811 17.303 24.0795C17.5855 21.5231 17.8374 18.9635 18.1076 16.3288C21.6548 16.144 25.1928 16.2191 28.7707 16.0625V21.5952C27.0048 21.5576 25.2727 21.52 23.4945 21.4824H23.4914ZM22.5731 20.5457H27.8432V17.065C24.8673 17.1245 21.9343 17.1841 19.0013 17.2436C18.9706 17.3908 18.946 17.4723 18.9368 17.5538C18.7004 19.8376 18.4639 22.1215 18.2366 24.4054C18.2213 24.5495 18.2182 24.7155 18.2735 24.844C18.5007 25.3672 18.7526 25.8809 19.0259 26.4605H24.1978C24.1548 27.463 24.1179 28.3716 24.078 29.3365H22.0694C21.4368 29.3365 20.8072 29.3334 20.1745 29.3365C19.5357 29.3428 18.8908 29.3114 18.2397 29.3584C18.2704 30.032 18.2888 30.6085 18.3226 31.1849C18.3564 31.7551 18.4086 32.3221 18.4577 32.9299C21.4153 32.8798 24.3052 32.8328 27.2075 32.7858C27.4593 31.5546 27.705 30.4048 27.9262 29.2488C28.0183 28.7695 28.1166 28.2776 28.1196 27.792C28.1196 26.9775 28.0521 26.1629 28.0029 25.3484C27.9691 24.8001 27.92 24.255 27.8739 23.6942C26.0343 23.5783 24.2592 23.4686 22.4349 23.3527C22.484 22.3815 22.5301 21.4855 22.5762 20.5488L22.5731 20.5457Z" fill="#FFEB61"/>
<path d="M36.4271 21.498H37.2932C37.37 22.0682 37.3516 22.6259 37.2932 23.2211H36.4241V21.498H36.4271Z" fill="#FFEB61"/>
<path d="M8.65456 21.1035H9.54827V22.8047H8.65763C8.59928 22.2533 8.61156 21.7113 8.65456 21.1035Z" fill="#FFEB61"/>
<path d="M37.2902 31.9554H36.4118V30.2637H37.2902V31.9554Z" fill="#FFEB61"/>
<path d="M8.61772 24.0791H9.54828V25.7489H8.69143C8.54094 25.2226 8.66071 24.6775 8.62079 24.0791H8.61772Z" fill="#FFEB61"/>
<path d="M9.536 31.5451H8.66379V29.8564H9.536V31.5451Z" fill="#FFEB61"/>
<path d="M36.4241 24.4863H37.2963V26.175H36.4241V24.4863Z" fill="#FFEB61"/>
<path d="M36.3995 28.851V27.6104H37.2932V28.851H36.3995Z" fill="#FFEB61"/>
<path d="M9.5667 18.4619V19.6649H8.65149V18.4619H9.5667Z" fill="#FFEB61"/>
<path d="M9.54214 28.4151H8.65457V27.209H9.54214V28.4151Z" fill="#FFEB61"/>
<path d="M37.2994 20.1189H36.4272V18.9033H37.2994V20.1189Z" fill="#FFEB61"/>
</g>
<defs>
<clipPath id="clip0_357_1328">
<rect width="46" height="41" fill="white"/>
</clipPath>
</defs>
</svg>
