<svg width="46" height="41" viewBox="0 0 46 41" fill="none" xmlns="http://www.w3.org/2000/svg">
<g clip-path="url(#clip0_357_1357)">
<path d="M14.6725 15.0815H13.1777C13.1777 15.3856 13.1777 15.6144 13.1777 15.8433C13.1746 18.1411 13.1746 20.442 13.1623 22.7398C13.1623 23.0815 13.1193 23.4232 13.0702 23.7618C13.0242 24.0878 12.8124 24.232 12.4901 24.2226C12.1801 24.2132 11.9529 24.0815 11.8885 23.7649C11.8424 23.5361 11.8301 23.2978 11.8271 23.0627C11.8179 20.8934 11.8148 18.7241 11.8087 16.5517C11.8056 15.2539 11.6552 15.1097 10.3813 15.1756C10.2371 15.1818 10.0897 15.2069 9.89019 15.2289C9.84722 15.4075 9.79811 15.5862 9.76434 15.768C9.72751 15.9561 9.71523 16.1505 9.67226 16.3386C9.61394 16.5956 9.51571 16.8527 9.21183 16.8778C8.90794 16.9028 8.74833 16.6646 8.65931 16.4263C8.57336 16.1944 8.54574 15.9342 8.52732 15.6834C8.49663 15.2288 8.41375 15.1223 7.9656 15.0972C7.77836 15.0878 7.58804 15.0909 7.39773 15.0972C6.83601 15.1191 6.46153 15.4922 6.45539 16.0752C6.44618 16.9122 6.4646 17.7524 6.4646 18.5894C6.4646 24.1317 6.4646 29.6771 6.4646 35.2194V36.1505H8.45672C8.47821 35.8307 8.49356 35.5173 8.51811 35.2038C8.54574 34.8621 8.54881 34.511 8.62862 34.1818C8.67159 34.0031 8.822 33.7806 8.97854 33.7147C9.21797 33.6144 9.44204 33.7931 9.53106 34.0251C9.63542 34.2978 9.69988 34.5988 9.72444 34.8934C9.75513 35.2947 9.73365 35.7022 9.73365 36.1536H11.7657C11.781 35.9154 11.8087 35.6865 11.8087 35.4608C11.8148 32.9687 11.8179 30.4765 11.8117 27.9843C11.8117 27.6709 11.8363 27.3887 12.0634 27.1505C12.3673 26.8307 12.6313 26.8307 12.9198 27.1505C13.1163 27.3699 13.1685 27.6238 13.1685 27.9185C13.1623 30.2602 13.1685 32.6019 13.1685 34.9436C13.1685 35.116 13.1654 35.2884 13.1685 35.4577C13.1869 36.1599 13.3097 36.2759 13.9942 36.2602C14.1998 36.2571 14.4024 36.2602 14.6756 36.2602C14.7646 37.3856 14.6756 38.4734 14.7308 39.6238C15.7315 39.7179 16.7138 39.6144 17.7359 39.6865V40.9906H0.377716V39.7931C0.982413 39.7931 1.56255 39.7774 2.1427 39.7868C2.94282 39.7994 3.34186 39.4044 3.33981 38.6019C3.33674 37.8527 3.33981 37.1003 3.33981 36.2665C3.92609 36.2477 4.47554 36.2289 5.06489 36.21C5.07717 35.9499 5.09559 35.7398 5.09559 35.5298C5.09559 29.0408 5.09559 22.5517 5.09559 16.0627C5.09559 15.9561 5.10172 15.8464 5.09559 15.7398C5.06489 15.2665 4.98508 15.1818 4.52465 15.163C4.16859 15.1505 3.81252 15.163 3.38586 15.163C3.37358 14.7179 3.35823 14.2978 3.35209 13.8746C3.34902 13.6395 3.34595 13.4013 3.3613 13.1662C3.392 12.6709 3.17406 12.3793 2.73205 12.1724C2.28082 11.9593 1.8204 11.7116 1.44591 11.3793C-0.269956 9.88089 -0.497101 7.38872 0.973205 5.61756C1.87872 4.52665 1.83574 3.39499 1.41522 2.18496C1.33234 1.94985 1.10826 1.71161 0.887258 1.59249C0.168988 1.20064 0.0646234 0.990605 0.310186 0.0595703H17.6193C17.8986 0.714743 17.8341 1.16615 17.3123 1.50471C16.769 1.85894 16.3945 2.27274 16.2994 2.96239C16.1766 3.85267 16.2349 4.67399 16.8028 5.40126C16.8672 5.4859 16.9378 5.56427 17.0054 5.64891C18.6537 7.78057 18.1319 10.6458 15.7745 11.8997C14.9119 12.3605 14.5313 12.8934 14.6664 13.8589C14.7186 14.232 14.6756 14.6207 14.6756 15.0752L14.6725 15.0815ZM6.27122 4.67713C6.56896 5.05017 6.78076 5.31349 6.98949 5.57681C9.04914 8.19123 7.71696 11.4984 5.30124 12.232C5.26134 12.2445 5.22144 12.2602 5.1846 12.279C4.76101 12.4828 4.62595 12.7994 4.73031 13.3542C4.80091 13.7398 4.92369 13.8182 5.48542 13.8339C5.54988 13.8339 5.61127 13.8339 5.67573 13.8339C7.83975 13.8339 10.0068 13.8339 12.1709 13.8339C12.5054 13.8339 12.8369 13.7962 13.1531 13.7774C13.4815 12.8558 13.3833 12.5988 12.5883 12.21C12.4379 12.1348 12.2844 12.0627 12.134 11.9843C10.6207 11.2038 9.69681 9.45142 10.0099 7.6928C10.1511 6.88716 10.4918 6.19123 11.0075 5.57368C11.2316 5.30408 11.4526 5.03449 11.7503 4.67399H6.27735L6.27122 4.67713ZM2.73819 3.29782C2.96533 3.30722 3.1096 3.31976 3.25694 3.31976C6.34488 3.31976 9.43283 3.31976 12.5208 3.31976C13.2145 3.31976 13.9082 3.31035 14.5989 3.31035C14.8843 3.31035 15.1452 3.26333 15.2956 2.97493C15.5811 2.43261 15.354 1.75236 14.783 1.52979C14.5559 1.44202 14.2919 1.41067 14.0463 1.41067C10.6023 1.40753 7.15524 1.41067 3.71123 1.42321C3.38586 1.42321 3.06049 1.48904 2.73819 1.52352V3.29782ZM4.07343 5.6301C2.56629 5.61443 1.34769 6.81192 1.33848 8.31349C1.33234 9.82446 2.5356 11.0408 4.0366 11.0439C5.467 11.0439 6.69481 9.81192 6.71937 8.34484C6.74392 6.8997 5.51918 5.64264 4.07036 5.62697L4.07343 5.6301ZM13.9849 5.6301C12.5116 5.62697 11.2776 6.85894 11.2715 8.34484C11.2653 9.83073 12.4379 11.0345 13.9082 11.0533C15.3417 11.0752 16.6432 9.78371 16.6432 8.33857C16.6432 6.8997 15.4 5.63324 13.9849 5.6301ZM13.4171 37.6928C13.2176 37.6677 13.0979 37.6395 12.9781 37.6395C10.5409 37.6395 8.10066 37.6395 5.66345 37.6426C5.47621 37.6426 5.28897 37.6803 5.10172 37.7147C4.76101 37.7774 4.5799 38 4.60139 38.348C4.62902 38.79 4.68734 39.232 4.73645 39.7053C4.97587 39.7241 5.16005 39.7492 5.34422 39.7492C7.65557 39.743 9.96693 39.7336 12.2814 39.7241C12.4901 39.7241 12.7019 39.7116 12.9106 39.6771C13.1869 39.6301 13.3925 39.4546 13.4079 39.1724C13.4386 38.6897 13.4171 38.2038 13.4171 37.6928Z" fill="#FFEB61"/>
<path d="M28.3625 0H45.7422C45.7667 0.278997 45.822 0.551724 45.8066 0.818182C45.7882 1.17555 45.5703 1.41379 45.2326 1.50157C44.8612 1.59875 44.6893 1.8652 44.5634 2.20376C44.3117 2.88401 44.2626 3.58621 44.3639 4.29781C44.4284 4.75549 44.6832 5.12226 44.9748 5.47649C46.3469 7.15047 46.3438 9.34483 44.984 10.953C44.5635 11.4483 44.0478 11.8088 43.4646 12.0784C42.7033 12.4263 42.6389 12.5423 42.6542 13.3981C42.6665 13.953 42.6542 14.5078 42.6542 15.1505C42.3319 15.1317 42.071 15.116 41.807 15.1066C41.0427 15.0784 40.9261 15.1818 40.9261 15.9718C40.923 19.7743 40.9261 23.5768 40.9261 27.3793C40.9261 30.1285 40.9261 32.8809 40.9261 35.6301C40.9261 35.7994 40.9445 35.9655 40.9567 36.1944H42.6695C42.6788 36.5016 42.691 36.7523 42.691 37C42.691 37.6865 42.6757 38.3762 42.6818 39.0627C42.6849 39.6238 42.8108 39.7461 43.3541 39.7461C44.0048 39.7461 44.6586 39.7367 45.3093 39.7335C45.3892 39.7335 45.472 39.7555 45.601 39.7712V40.9561H28.2612V39.6019H31.3V36.2288C31.6714 36.2288 31.9661 36.2382 32.2546 36.2288C32.6598 36.2132 32.7765 36.1066 32.8378 35.7053C32.8624 35.5361 32.8593 35.3636 32.8593 35.1912C32.8624 32.7649 32.8593 30.3354 32.8716 27.9091C32.8716 27.7022 32.8962 27.4765 32.9852 27.2947C33.0957 27.069 33.2891 26.79 33.5561 26.884C33.7833 26.9655 33.9736 27.21 34.1332 27.4201C34.2099 27.5204 34.1884 27.7085 34.1884 27.8558C34.1854 30.2414 34.1731 32.6238 34.1731 35.0094C34.1731 35.3699 34.2222 35.7335 34.2498 36.1348H36.2911C36.2911 35.6771 36.2757 35.232 36.2972 34.79C36.3095 34.5392 36.3555 34.2759 36.4476 34.0439C36.5458 33.8025 36.7392 33.5987 37.037 33.6646C37.304 33.7241 37.3869 33.9561 37.4084 34.2006C37.4513 34.6489 37.482 35.1003 37.5189 35.5486C37.5312 35.7147 37.5434 35.884 37.5588 36.0972H39.5141C39.5294 35.8809 39.557 35.674 39.557 35.4671C39.557 29 39.5601 22.5329 39.557 16.0658C39.557 15.4577 39.1826 15.0815 38.5779 15.069C38.452 15.069 38.3262 15.069 38.2003 15.069C37.5465 15.069 37.5404 15.1097 37.4882 15.8088C37.4667 16.0909 37.3501 16.395 37.1904 16.627C36.9387 16.9937 36.6072 16.9373 36.4138 16.5235C36.334 16.3542 36.3126 16.1536 36.2757 15.9687C36.2481 15.8213 36.2389 15.6708 36.2143 15.5235C36.199 15.4389 36.1683 15.3605 36.1345 15.2508C35.7232 15.0909 35.2904 15.0909 34.8515 15.1661C34.4125 15.2445 34.302 15.3166 34.2529 15.768C34.1915 16.3417 34.1669 16.9248 34.1639 17.5047C34.1547 19.3511 34.1608 21.2006 34.1577 23.047C34.1577 23.2602 34.1577 23.4765 34.1301 23.6897C34.0871 24.0188 33.8569 24.1567 33.5622 24.1975C33.2584 24.2382 33.0282 24.1003 32.9483 23.7743C32.8808 23.4859 32.8593 23.1818 32.8593 22.884C32.8501 20.5423 32.847 18.2006 32.844 15.8589C32.844 15.627 32.844 15.3919 32.844 15.0878H31.3614C31.3614 14.5329 31.3154 14.0439 31.3614 13.5643C31.4381 12.79 31.1404 12.3197 30.4497 11.9969C29.3263 11.4702 28.5466 10.5862 28.209 9.35737C27.8345 8 28.1046 6.73668 28.9856 5.67085C29.6179 4.90282 29.8328 4.0815 29.7345 3.10972C29.667 2.43887 29.4184 1.93417 28.8475 1.57367C28.1967 1.16301 28.0954 0.802508 28.3625 0.00940439V0ZM34.2897 4.65517C34.6151 5.05329 34.8852 5.36991 35.14 5.69906C36.2113 7.08777 36.3586 8.87147 35.5329 10.3417C35.054 11.1944 34.3358 11.7555 33.4671 12.1505C32.6353 12.5266 32.5309 12.8307 32.8839 13.7461C33.2 13.7618 33.5316 13.7868 33.8661 13.79C35.6311 13.7931 37.3961 13.79 39.1611 13.79C39.6645 13.79 40.1709 13.8025 40.6744 13.7743C40.8462 13.7649 41.0673 13.7053 41.1747 13.5831C41.4939 13.2163 41.3159 12.4734 40.88 12.2539C40.748 12.1881 40.6038 12.1536 40.4687 12.094C38.9616 11.4169 38.1512 10.232 38.0346 8.56113C37.9517 7.33856 38.3845 6.29467 39.1488 5.37304C39.3299 5.15674 39.4926 4.92477 39.7013 4.6489H34.2897V4.65517ZM34.7502 8.34169C34.7594 6.87774 33.5131 5.58621 32.0674 5.55799C30.6984 5.53292 29.3877 6.83386 29.357 8.25078C29.3232 9.68652 30.6124 10.9906 32.0643 10.9969C33.5469 11 34.741 9.82132 34.7532 8.34169H34.7502ZM43.2742 1.44828C42.8752 1.42633 42.5253 1.38871 42.1754 1.38558C38.8326 1.37931 35.493 1.37618 32.1503 1.37304C31.96 1.37304 31.7696 1.36677 31.5824 1.38871C30.9808 1.45455 30.5848 1.88088 30.5971 2.43887C30.6094 3.05016 30.858 3.26332 31.61 3.26332C35.3088 3.26646 39.0076 3.26332 42.7064 3.26332C42.8875 3.26332 43.0686 3.23198 43.2742 3.21317V1.45141V1.44828ZM41.9912 10.9937C43.5167 10.9781 44.674 9.78683 44.6555 8.25078C44.6402 6.77116 43.4308 5.55486 41.982 5.55799C40.5239 5.56113 39.2777 6.84326 39.2992 8.31975C39.3207 9.78997 40.5485 11.0063 41.9881 10.9937H41.9912ZM41.2606 39.6646C41.3036 39.3699 41.3343 39.1379 41.3681 38.906C41.5215 37.8495 41.3497 37.6238 40.3122 37.6176C37.8964 37.6019 35.4776 37.6082 33.0619 37.6082C32.9238 37.6082 32.7857 37.6489 32.5831 37.6803C32.5831 38.1129 32.5677 38.5172 32.5861 38.9216C32.6138 39.4357 32.7765 39.605 33.2706 39.6708C33.4364 39.6928 33.6052 39.6928 33.774 39.6928C36.1069 39.6959 38.4397 39.6991 40.7726 39.7022C40.9168 39.7022 41.0611 39.6834 41.2606 39.6677V39.6646Z" fill="#FFEB61"/>
<path d="M24.2032 36.2382C22.2326 35.6896 20.3111 35.1567 18.3312 34.6081C19.9796 30.9624 21.6033 27.3668 23.2548 23.7116H17.4165V17.9404H29.4399C29.4736 18.047 29.5289 18.163 29.5442 18.2821C29.6916 19.4953 29.842 20.7116 29.9647 21.9279C29.9924 22.1912 29.9555 22.4922 29.8573 22.7335C28.0402 27.1222 26.2107 31.5016 24.3813 35.884C24.3414 35.9812 24.2892 36.0721 24.2063 36.2351L24.2032 36.2382ZM24.7803 22.6583C23.0491 26.4859 21.3731 30.1943 19.6665 33.9718C21.0324 34.3511 22.337 34.7147 23.663 35.0846C23.7704 34.837 23.8594 34.6458 23.9393 34.4514C25.5231 30.6677 27.0978 26.8777 28.697 23.1003C28.9457 22.511 29.0746 21.9498 28.961 21.3072C28.8198 20.511 28.7492 19.7053 28.6387 18.837C28.3655 18.837 28.1384 18.837 27.9143 18.837C26.2353 18.8464 24.5532 18.8621 22.8741 18.8683C21.6555 18.8746 20.4369 18.8683 19.2183 18.8715C18.9359 18.8715 18.6505 18.9028 18.3803 18.9216C18.2668 20.2853 18.3097 22.3197 18.4601 22.7868C20.5075 22.7461 22.561 22.7053 24.7772 22.6614L24.7803 22.6583Z" fill="#FFEB61"/>
<path d="M8.69598 29.8369H9.56773V31.5391H8.69598V29.8369Z" fill="#FFEB61"/>
<path d="M9.57388 22.796H8.68372V21.1377H9.57388V22.796Z" fill="#FFEB61"/>
<path d="M8.68066 24.0908H9.57083V25.7397H8.68066V24.0908Z" fill="#FFEB61"/>
<path d="M36.4016 21.5332H37.2764C37.3409 22.0881 37.3439 22.6461 37.2641 23.2417H36.4599C36.3157 22.7025 36.4139 22.1539 36.4016 21.5332Z" fill="#FFEB61"/>
<path d="M36.4292 24.4951H37.2488C37.3654 25.0468 37.3194 25.5892 37.2825 26.1754H36.4292V24.4951Z" fill="#FFEB61"/>
<path d="M37.2733 31.9464H36.4261V30.2881H37.2733V31.9464Z" fill="#FFEB61"/>
<path d="M8.69904 18.4639H9.57385V19.6708H8.69904V18.4639Z" fill="#FFEB61"/>
<path d="M8.68066 28.4325V27.2256H9.56776V28.4325H8.68066Z" fill="#FFEB61"/>
<path d="M37.2733 20.1162H36.4323V18.8779H37.2733V20.1162Z" fill="#FFEB61"/>
<path d="M36.4384 27.6055H37.2703V28.8374H36.4384V27.6055Z" fill="#FFEB61"/>
</g>
<defs>
<clipPath id="clip0_357_1357">
<rect width="46" height="41" fill="white"/>
</clipPath>
</defs>
</svg>
