<svg width="46" height="41" viewBox="0 0 46 41" fill="none" xmlns="http://www.w3.org/2000/svg">
<g clip-path="url(#clip0_357_1418)">
<path d="M0 7.57347C0.0776104 7.40155 0.178217 7.23902 0.232831 7.06085C0.416797 6.43883 0.718615 5.89808 1.10667 5.4011C1.77642 4.54465 1.85115 2.79737 1.26189 1.90029C1.18428 1.78464 1.07217 1.68149 0.954321 1.61273C0.183965 1.1595 0.1351 1.05323 0.32194 0.112386C0.744485 -0.0126425 15.89 -0.0438997 16.5856 0.0780032C16.8041 0.806295 16.7495 1.21576 16.2436 1.52521C15.2231 2.15035 15.226 3.16308 15.3094 4.2102C15.3496 4.71344 15.5882 5.13854 15.89 5.51987C16.3212 6.06375 16.6316 6.67951 16.7754 7.3828C17.1462 9.18946 16.4218 11.018 14.8523 11.8588C14.0101 12.3089 13.6508 12.8684 13.7974 13.8624C13.8492 14.2156 13.806 14.5844 13.806 15.0127C13.3289 15.0377 12.9063 15.0564 12.4263 15.0814C12.4177 15.3252 12.4004 15.5503 12.3975 15.7753C12.3918 18.0884 12.3947 20.4014 12.3832 22.7144C12.3832 23.0551 12.3372 23.3958 12.2883 23.7334C12.251 23.9928 12.09 24.146 11.8399 24.1585C11.564 24.1741 11.3081 24.1054 11.219 23.7897C11.1529 23.549 11.1299 23.2864 11.1299 23.0333C11.1213 20.8265 11.1299 18.6197 11.1155 16.413C11.1098 15.2252 10.9776 15.1002 9.86802 15.1346C9.69268 15.1408 9.52022 15.1658 9.31325 15.1877C9.27301 15.3721 9.23564 15.5315 9.2069 15.6972C9.17815 15.866 9.16953 16.0379 9.13504 16.2036C9.08042 16.4786 9.01718 16.7631 8.71249 16.8318C8.49403 16.8818 8.2497 16.6787 8.1261 16.3005C8.05711 16.0879 8.08873 15.8379 8.03699 15.6159C7.99962 15.444 7.93351 15.1815 7.82716 15.1471C7.39311 15.0033 6.92745 14.947 6.5164 15.2096C6.24045 15.3846 6.09673 15.6659 6.09673 16.066C6.10823 22.4925 6.10535 28.919 6.10823 35.3454C6.10823 35.5767 6.1341 35.8049 6.15135 36.0675H7.98238C8.00537 35.6611 8.01687 35.2798 8.04562 34.9016C8.07149 34.5828 8.08298 34.2546 8.16347 33.9482C8.26695 33.545 8.63201 33.4669 8.88783 33.7888C8.99706 33.9264 9.0833 34.1202 9.10629 34.2983C9.15516 34.6578 9.15803 35.0235 9.1724 35.3861C9.18103 35.5955 9.1724 35.808 9.1724 36.0581H11.0724C11.0897 35.733 11.1184 35.4205 11.1184 35.1079C11.1213 32.7073 11.1184 30.3099 11.1242 27.9094C11.1242 27.6812 11.1443 27.4249 11.242 27.2342C11.5122 26.6997 11.9693 26.6966 12.2423 27.2311C12.3487 27.4405 12.3746 27.7187 12.3774 27.9656C12.3861 30.2161 12.3832 32.4635 12.3832 34.714C12.3832 34.9078 12.3832 35.0985 12.3832 35.2923C12.4004 36.0925 12.4895 36.1831 13.2081 36.1581C13.3979 36.1519 13.5876 36.1581 13.8262 36.1581V39.5183C14.7805 39.6027 15.7003 39.5089 16.6575 39.5777V40.9999H0.471412C0.304693 40.5904 0.370805 40.1747 0.411048 39.7339C0.618009 39.7152 0.790477 39.6871 0.962944 39.6871C1.49472 39.6871 2.02649 39.6996 2.55827 39.6933C3.05555 39.6839 3.17628 39.5464 3.19065 38.9994C3.1964 38.765 3.18203 38.5274 3.1849 38.293C3.1849 37.596 3.19353 36.8958 3.1964 36.13H4.83772V35.3704C4.83772 28.9909 4.83772 22.6113 4.83772 16.2317C4.83772 16.0598 4.84347 15.8879 4.83197 15.7191C4.79747 15.2471 4.72274 15.1627 4.29444 15.1471C3.94663 15.1346 3.6017 15.1471 3.20502 15.1471C3.20502 14.5251 3.16766 13.9687 3.21365 13.4186C3.27401 12.709 3.01531 12.3277 2.4088 12.0557C1.33375 11.5775 0.626632 10.6836 0.244329 9.4864C0.18684 9.30511 0.0833594 9.15195 0 8.98942C0 8.51743 0 8.04545 0 7.57659V7.57347ZM5.92139 4.6603C6.20596 5.03539 6.40142 5.29482 6.59401 5.55426C7.32413 6.55448 7.69781 7.67974 7.50522 8.96128C7.26664 10.5491 6.44167 11.64 5.04468 12.2027C4.5244 12.4121 4.39505 12.6871 4.48703 13.2998C4.55027 13.7217 4.66812 13.7968 5.29188 13.8061C5.312 13.8061 5.33213 13.8061 5.35225 13.8061C7.39886 13.8061 9.44548 13.8093 11.4921 13.803C11.7997 13.803 12.1072 13.7561 12.3947 13.7311C12.662 12.7903 12.5815 12.5652 11.8715 12.1933C11.6933 12.0995 11.5122 12.0182 11.3397 11.9151C9.91402 11.0649 9.1724 9.38951 9.4426 7.64536C9.57483 6.79516 9.94851 6.0825 10.4602 5.4386C10.6413 5.21043 10.8827 5.01663 10.9747 4.65718H5.92426L5.92139 4.6603ZM2.63588 3.27561C2.78248 3.28811 2.89746 3.30999 3.00956 3.30999C6.55377 3.30999 10.098 3.31312 13.6451 3.30999C14.1912 3.30999 14.3321 3.19747 14.4442 2.75361C14.562 2.28163 14.4154 1.80027 14.0302 1.60023C13.8089 1.48457 13.5416 1.42519 13.2944 1.42206C10.0462 1.40956 6.79523 1.41268 3.54708 1.42206C3.24239 1.42206 2.9377 1.49083 2.63876 1.52833V3.27873L2.63588 3.27561ZM3.82016 5.61364C2.44904 5.61677 1.32225 6.81704 1.31075 8.28926C1.29926 9.7896 2.42892 11.018 3.82878 11.0243C5.18265 11.0305 6.36693 9.73959 6.35543 8.27363C6.34394 6.84205 5.16828 5.61052 3.81728 5.61364H3.82016ZM10.6183 8.31426C10.6096 9.8021 11.6933 10.9961 13.073 11.0211C14.4298 11.0461 15.6284 9.78335 15.6313 8.32676C15.6342 6.87956 14.4873 5.61677 13.1622 5.61052C11.7882 5.60114 10.624 6.8358 10.6154 8.31426H10.6183ZM12.5556 37.5835C12.4062 37.5678 12.2739 37.5397 12.1417 37.5397C9.89964 37.5397 7.65756 37.5397 5.41261 37.5397C5.27464 37.5397 5.13666 37.5428 5.00156 37.5678C4.50141 37.6553 4.34906 37.8335 4.36918 38.3774C4.38355 38.7743 4.45541 39.1713 4.50428 39.5839C4.671 39.5995 4.78598 39.6214 4.90096 39.6214C7.10567 39.6214 9.3075 39.6214 11.5122 39.6214C11.7077 39.6214 11.906 39.6089 12.1015 39.5839C12.3832 39.5464 12.5901 39.3714 12.6218 39.0619C12.6706 38.5774 12.708 38.0898 12.5556 37.5897V37.5835Z" fill="#FFEB61"/>
<path d="M36.6982 15.1066C36.3504 15.1066 35.9997 15.0753 35.6519 15.1128C35.1259 15.1722 35.0224 15.3004 34.9764 15.8818C34.9448 16.2881 34.9477 16.6944 34.9477 17.1008C34.9477 19.0512 34.9477 21.0017 34.9448 22.949C34.9448 23.1834 34.9333 23.421 34.8845 23.6492C34.8126 23.968 34.5683 24.143 34.2722 24.1274C34.002 24.1118 33.8238 23.9586 33.7807 23.6679C33.7375 23.3741 33.6973 23.074 33.6973 22.7771C33.6887 20.4422 33.6858 18.1073 33.6829 15.7723C33.6829 15.541 33.6829 15.3129 33.6829 15.0159H32.2802C32.2802 14.4846 32.2428 14.0157 32.2888 13.5562C32.3693 12.7623 32.0962 12.2809 31.4207 11.9433C30.3284 11.3963 29.6012 10.4618 29.308 9.17397C29.0091 7.85179 29.2965 6.64839 30.087 5.62628C30.7079 4.82297 30.9004 3.95715 30.7539 2.94129C30.6676 2.34428 30.4319 1.90668 29.9691 1.58473C29.3482 1.15026 29.2591 0.865816 29.4632 0.03125H45.7183C45.977 0.912701 45.8793 1.144 45.1463 1.55972C44.9853 1.6535 44.8186 1.82228 44.7439 2.00045C44.4162 2.77875 44.2983 3.60707 44.5139 4.43851C44.6001 4.77608 44.7755 5.11679 44.9911 5.37935C46.8135 7.60486 46.0575 10.9838 43.5337 12.0715C43.0393 12.2841 42.8323 12.6216 42.8668 13.1999C42.8984 13.775 42.8668 14.3564 42.8582 14.9347C42.8582 14.9722 42.8208 15.0065 42.7921 15.0628C42.4931 15.0628 42.1827 15.0534 41.8751 15.0628C41.3549 15.0847 41.2658 15.1878 41.2428 15.7536C41.237 15.8818 41.2428 16.0099 41.2428 16.1381C41.2428 22.5458 41.2428 28.9504 41.2428 35.3581C41.2428 35.5706 41.2428 35.7832 41.2428 36.0864H42.8927C42.8927 36.9616 42.8984 37.7461 42.8927 38.5307C42.885 39.2621 43.2242 39.6236 43.9103 39.6153C44.4765 39.609 45.0428 39.6153 45.6551 39.6153V40.8312H29.4172V39.5028C30.3227 39.4559 31.2396 39.5121 32.2256 39.4684V36.1176C32.5705 36.1176 32.8378 36.127 33.108 36.1176C33.5191 36.102 33.6341 35.9895 33.6743 35.555C33.6944 35.3206 33.6887 35.083 33.6887 34.8486C33.6887 32.5137 33.6944 30.1788 33.6829 27.8407C33.6829 27.4719 33.7634 27.175 34.0135 26.9249C34.209 26.7311 34.3958 26.7405 34.5941 26.9061C34.8643 27.1343 34.9563 27.4313 34.9563 27.8032C34.9448 30.1163 34.9477 32.4324 34.9448 34.7454C34.9448 35.1487 34.9448 35.5487 34.9448 35.9957H36.8908C36.8908 35.6206 36.8678 35.2612 36.8966 34.908C36.9253 34.5704 36.9742 34.2297 37.0719 33.9109C37.1409 33.6858 37.3249 33.5139 37.5778 33.5577C37.8365 33.6014 37.9228 33.8234 37.9429 34.0703C37.9975 34.6861 38.0435 35.3018 38.0981 35.9863C38.6931 36.0864 39.2881 36.0426 39.9291 36.0082C39.9406 35.73 39.9608 35.5019 39.9608 35.2706C39.9608 28.8628 39.9608 22.4583 39.9608 16.0505C39.9608 15.391 39.6302 15.0347 39.0208 15.0222C38.9604 15.0222 38.9029 15.0222 38.8426 15.0222C38.3405 15.0222 38.0722 15.2993 38.0377 15.8536C38.0377 15.8974 38.0377 15.9411 38.0291 15.9818C37.9659 16.4006 37.6353 16.8226 37.3852 16.8038C37.1524 16.7882 36.9656 16.4881 36.8937 16.0068C36.8592 15.7755 36.8333 15.541 36.7988 15.3097C36.7931 15.2691 36.7615 15.2347 36.6925 15.0941L36.6982 15.1066ZM35.0282 4.63543C35.3674 5.07615 35.6433 5.40748 35.8905 5.76381C37.3795 7.89867 36.7644 10.7712 34.5596 11.9715C34.4188 12.0496 34.2751 12.1153 34.1342 12.1934C33.4788 12.5497 33.3754 12.9279 33.7375 13.7094C33.864 13.725 34.002 13.75 34.1371 13.7531C36.4223 13.7563 38.7046 13.7563 40.9898 13.7625C41.2715 13.7625 41.4957 13.6969 41.5819 13.3624C41.6998 12.9061 41.5877 12.4653 41.2801 12.2778C41.1278 12.184 40.9496 12.1403 40.7886 12.0621C39.6503 11.5151 38.9231 10.5899 38.6356 9.27086C38.3223 7.82678 38.6931 6.56712 39.5353 5.43874C39.7135 5.19806 39.8918 4.95738 40.1246 4.63855H35.0253L35.0282 4.63543ZM42.2115 10.9556C43.6401 10.965 44.7582 9.79598 44.7668 8.27689C44.7755 6.79842 43.6027 5.53563 42.2287 5.55126C40.8921 5.56377 39.7135 6.83593 39.7222 8.255C39.7308 9.72097 40.8605 10.9462 42.2143 10.9525L42.2115 10.9556ZM35.4651 8.30189C35.4651 6.83593 34.2952 5.56377 32.9413 5.55439C31.6363 5.54501 30.4463 6.82968 30.4377 8.25813C30.4262 9.71471 31.6162 10.9838 32.9758 10.9744C34.367 10.9619 35.4651 9.78348 35.4651 8.30502V8.30189ZM43.436 3.26636C43.4935 2.62247 43.5222 2.05984 43.4187 1.45658C43.1399 1.43157 42.887 1.39406 42.6369 1.39406C39.3686 1.38781 36.1032 1.38468 32.835 1.38156C32.697 1.38156 32.559 1.38156 32.4239 1.40344C31.9094 1.49408 31.5558 1.95044 31.5846 2.46931C31.6162 3.05069 31.8375 3.23823 32.5101 3.23823C35.9336 3.24761 39.36 3.25699 42.7835 3.26324C42.9933 3.26324 43.2031 3.26324 43.4388 3.26324L43.436 3.26636ZM41.5819 39.5684C41.6308 39.0839 41.6998 38.6588 41.7084 38.2369C41.717 37.8024 41.5532 37.6148 41.1565 37.5461C40.9438 37.5086 40.7254 37.5086 40.5098 37.5086C38.3453 37.5086 36.178 37.5086 34.0135 37.5086C33.8439 37.5086 33.6743 37.5367 33.5162 37.5523C33.4817 37.6617 33.453 37.7211 33.4501 37.7836C33.4386 37.9555 33.4329 38.1243 33.43 38.2962C33.4099 39.434 33.545 39.584 34.6114 39.5872C36.7385 39.5934 38.8627 39.5965 40.9898 39.5965C41.1651 39.5965 41.3376 39.5809 41.5819 39.5684Z" fill="#FFEB61"/>
<path d="M21.843 18.4008C23.102 17.9882 24.2576 17.5162 25.5252 17.5005C26.9021 17.4849 28.2789 17.4005 29.6529 17.3255C29.9921 17.3068 30.2508 17.4036 30.5038 17.6475C30.9896 18.1163 31.4926 18.5633 32.0042 19.0009C32.2083 19.1759 32.2974 19.3635 32.2888 19.651C32.2112 22.9018 32.1451 26.1557 32.0732 29.4095C32.056 30.1534 32.033 30.9005 32.01 31.7163C31.1505 31.8351 30.3198 32.0257 29.4862 32.0539C27.1838 32.1258 24.8813 32.1289 22.5789 32.157C22.4639 32.157 22.3489 32.1351 22.165 32.1164C22.0586 27.5528 21.9494 23.0049 21.8401 18.4039L21.843 18.4008ZM22.7485 19.1165C22.8433 23.1581 22.9382 27.1496 23.033 31.1693C23.2113 31.1849 23.3234 31.2037 23.4383 31.2037C25.4648 31.1724 27.4913 31.1505 29.515 31.0912C30.0582 31.0755 30.5958 30.9411 31.2109 30.8505C31.2109 29.9346 31.1965 29.0813 31.2138 28.228C31.2713 25.5743 31.3374 22.9237 31.415 20.2731C31.4265 19.8948 31.3431 19.626 31.0557 19.401C30.7222 19.1384 30.406 18.8446 30.1013 18.5414C29.8771 18.3195 29.6414 18.2726 29.3454 18.2914C28.0691 18.3726 26.7928 18.4726 25.5137 18.4758C24.5651 18.4758 23.7057 18.7946 22.7456 19.1165H22.7485Z" fill="#FFEB61"/>
<path d="M15.9504 32.514C15.9935 29.4477 16.0366 26.4814 16.0797 23.4026C15.2663 23.8214 14.5448 24.1903 13.7313 24.6091C13.5617 22.9931 13.3979 21.4584 13.2311 19.8705C13.6163 19.6174 13.9986 19.3642 14.3838 19.1172C15.0967 18.6609 15.7664 18.0451 16.5368 17.8044C17.3071 17.5638 18.1752 17.6857 19.0002 17.6669C19.6268 17.6513 20.2563 17.6669 20.9606 17.6669C21.0382 22.5024 21.0094 27.3504 21.0382 32.2609C19.3307 32.3484 17.6894 32.4297 15.9504 32.5203V32.514ZM16.9823 21.8585C16.9277 25.1499 16.876 28.3006 16.8817 31.5076C18.0085 31.4451 19.0577 31.3857 20.0839 31.3294V18.6671C19.0031 18.6671 17.9826 18.6671 16.9651 18.6703C16.8731 18.6703 16.7696 18.714 16.6891 18.7672C15.8584 19.2923 15.0306 19.8237 14.1826 20.3675C14.2774 21.2834 14.3694 22.1711 14.47 23.1463C15.3008 22.7212 16.074 22.3242 16.9852 21.8554L16.9823 21.8585Z" fill="#FFEB61"/>
<path d="M8.18359 31.4537V29.7783H9.00569V31.4537H8.18359Z" fill="#FFEB61"/>
<path d="M37.8452 21.4922V23.1363H37.0259V21.4922H37.8452Z" fill="#FFEB61"/>
<path d="M37.8452 26.1156H37.0259V24.459H37.8452V26.1156Z" fill="#FFEB61"/>
<path d="M37.8452 31.8701H37.0259V30.2197H37.8452V31.8701Z" fill="#FFEB61"/>
<path d="M9.01144 25.69H8.19221V24.0459H8.97407C9.09767 24.5773 9.04306 25.118 9.01144 25.69Z" fill="#FFEB61"/>
<path d="M9.01143 21.0957V22.7273H8.19508V21.0957H9.01143Z" fill="#FFEB61"/>
<path d="M37.8337 20.0735H37.0259V18.8232H37.8337V20.0735Z" fill="#FFEB61"/>
<path d="M8.19508 18.3945H8.99131V19.6511H8.19508V18.3945Z" fill="#FFEB61"/>
<path d="M37.0288 27.5439H37.8394V28.7755H37.0288V27.5439Z" fill="#FFEB61"/>
<path d="M9.00569 27.1377V28.3692H8.19221V27.1377H9.00569Z" fill="#FFEB61"/>
<path d="M28.8021 21.0676C28.736 23.4556 28.6699 25.7374 28.6038 28.0786H25.3729C25.3412 25.8687 25.3068 23.6557 25.2723 21.377C26.4565 21.2739 27.5833 21.1739 28.7992 21.0645L28.8021 21.0676ZM27.7644 27.119C27.7443 25.4092 27.9024 23.7807 27.8593 22.1116C27.2643 22.1741 26.744 22.2272 26.2611 22.2741V27.119H27.7644Z" fill="#FFEB61"/>
</g>
<defs>
<clipPath id="clip0_357_1418">
<rect width="46" height="41" fill="white"/>
</clipPath>
</defs>
</svg>
