<svg width="46" height="41" viewBox="0 0 46 41" fill="none" xmlns="http://www.w3.org/2000/svg">
<g clip-path="url(#clip0_357_1371)">
<path d="M45.7637 0C45.779 0.244383 45.7913 0.413572 45.8036 0.58276C45.8373 1.02766 45.6624 1.34724 45.2357 1.46317C44.8367 1.57283 44.6526 1.86107 44.539 2.22138C44.3487 2.81981 44.2351 3.42763 44.318 4.05739C44.3886 4.60882 44.6526 5.05059 44.9994 5.47669C46.2701 7.04325 46.3284 9.07351 45.1805 10.6495C44.717 11.2855 44.1277 11.7711 43.4034 12.0437C42.811 12.2662 42.5961 12.6515 42.6329 13.2719C42.6667 13.8453 42.6391 14.4249 42.6391 15.0578C42.2677 15.0578 41.9393 15.0515 41.6109 15.0578C41.0277 15.0734 40.9295 15.1737 40.9049 15.7847C40.8988 15.9131 40.9049 16.0416 40.9049 16.17C40.9049 22.5491 40.9049 28.9281 40.9049 35.3071C40.9049 35.5609 40.9049 35.8147 40.9049 36.1405H42.6575C42.6575 36.4601 42.6575 36.7108 42.6575 36.9583C42.6575 37.6444 42.6422 38.3337 42.6514 39.0199C42.6575 39.5306 42.7956 39.6653 43.299 39.6716C44.0541 39.681 44.806 39.6716 45.6071 39.6716V40.8841H28.2685V39.5556H31.2611V36.1687C31.6202 36.1687 31.9057 36.175 32.1911 36.1687C32.6761 36.1531 32.7773 36.0528 32.8172 35.564C32.8326 35.3917 32.8295 35.2194 32.8295 35.0502C32.8326 32.6252 32.8357 30.197 32.8449 27.772C32.8449 27.6059 32.8694 27.4211 32.9431 27.2801C33.072 27.0357 33.2347 26.7882 33.557 26.807C33.7902 26.8195 34.1248 27.1986 34.1647 27.4806C34.1892 27.6498 34.1708 27.8221 34.1708 27.9944C34.1708 30.4633 34.177 32.9354 34.18 35.4042C34.18 35.5954 34.2046 35.7834 34.223 36.0309C34.9013 36.1186 35.5582 36.0747 36.2948 36.0591C36.2948 35.5609 36.2733 35.116 36.304 34.6711C36.3224 34.4017 36.3777 34.1103 36.5066 33.8847C36.5925 33.7374 36.8503 33.6184 37.0222 33.6309C37.145 33.6372 37.323 33.8659 37.3568 34.0225C37.4335 34.3735 37.4397 34.7432 37.4703 35.1066C37.4949 35.4011 37.5133 35.6988 37.5379 36.0371H39.49C39.5084 35.7301 39.5391 35.4356 39.5391 35.1411C39.5421 32.4341 39.5391 29.7302 39.5421 27.0232C39.5483 23.4357 39.5636 19.8514 39.5728 16.264C39.5728 16.0729 39.582 15.8724 39.5329 15.6907C39.4255 15.3116 39.0326 15.0421 38.6213 15.0296C38.431 15.0233 38.2438 15.0233 38.0535 15.0296C37.5624 15.0452 37.4581 15.1392 37.4734 15.6437C37.4857 15.982 37.4366 16.2828 37.2248 16.546C36.9056 16.9439 36.5526 16.8969 36.3746 16.4113C36.2948 16.192 36.2794 15.9507 36.2365 15.7189C36.2058 15.5528 36.1812 15.3867 36.1505 15.2144C35.641 14.992 35.1438 15.0233 34.6527 15.1612C34.5177 15.1988 34.3519 15.3492 34.3181 15.4839C34.2353 15.7878 34.1892 16.1136 34.1892 16.4332C34.177 18.6233 34.177 20.8133 34.1739 23.0065C34.1739 23.2007 34.1862 23.395 34.1524 23.5861C34.091 23.9464 33.8332 24.1501 33.4894 24.1501C33.1702 24.1501 32.9769 23.9809 32.9185 23.5893C32.8664 23.2289 32.8387 22.8624 32.8357 22.4989C32.8234 20.265 32.8234 18.0311 32.8172 15.7972C32.8172 15.5653 32.8172 15.3335 32.8172 15.0452H31.4545C31.2519 14.5001 31.3163 13.98 31.3624 13.4849C31.4299 12.7299 31.1353 12.2881 30.4784 11.9654C29.0911 11.2886 28.2409 10.1795 28.0751 8.58788C27.9554 7.43803 28.3053 6.4135 29.0358 5.55189C29.7142 4.74981 29.8707 3.85687 29.7049 2.85114C29.6098 2.28404 29.352 1.86107 28.8762 1.55403C28.2225 1.12792 28.1396 0.87414 28.3422 0.00313312H45.7667L45.7637 0ZM39.7202 4.63075H34.2905C34.6067 5.01299 34.8614 5.3169 35.11 5.62708C36.8166 7.7858 36.1751 10.7591 33.738 11.981C33.5324 12.0844 33.3206 12.1847 33.115 12.2881C32.7651 12.4635 32.6362 12.7549 32.6975 13.1372C32.7282 13.322 32.7804 13.5037 32.8295 13.7105C33.0935 13.7293 33.3206 13.7544 33.5508 13.7544C35.862 13.7575 38.1732 13.7544 40.4875 13.7544C40.5919 13.7544 40.6993 13.7544 40.8036 13.7481C41.1014 13.7231 41.2425 13.5539 41.2824 13.2531C41.3715 12.5983 41.2548 12.3664 40.6318 12.1283C39.5728 11.7241 38.7963 11.0098 38.3574 9.94765C37.7005 8.3529 37.9921 6.8866 38.9989 5.53622C39.2107 5.25111 39.4408 4.98166 39.7263 4.62762L39.7202 4.63075ZM41.97 10.9471C43.4924 10.9471 44.671 9.7628 44.6618 8.23697C44.6556 6.75814 43.4617 5.54249 42.0068 5.52996C40.5458 5.51742 39.2905 6.78634 39.3058 8.26204C39.3211 9.74713 40.512 10.9471 41.973 10.9471H41.97ZM32.0714 10.9534C33.5662 10.9534 34.7356 9.78786 34.7417 8.29337C34.7479 6.8208 33.5078 5.54249 32.0591 5.52996C30.6411 5.51742 29.3643 6.8302 29.3765 8.29023C29.3888 9.72207 30.638 10.9565 32.0745 10.9534H32.0714ZM43.2622 1.4287C42.9706 1.40677 42.7035 1.36604 42.4396 1.36604C38.9313 1.35664 35.4231 1.35351 31.9149 1.35037C31.7276 1.35037 31.5312 1.35351 31.3532 1.4005C30.8253 1.53836 30.549 2.00833 30.635 2.58796C30.7086 3.08926 30.8774 3.20831 31.5435 3.21145C35.242 3.21771 38.9375 3.22398 42.636 3.22398C42.8386 3.22398 43.0412 3.20205 43.2652 3.18952V1.4287H43.2622ZM32.6177 37.5598C32.5932 37.8731 32.5625 38.1019 32.5594 38.3337C32.5379 39.4742 32.6975 39.6434 33.8117 39.6496C36.1014 39.659 38.3942 39.659 40.6839 39.659C40.8681 39.659 41.0492 39.6402 41.2794 39.6246C41.3224 39.1389 41.3868 38.6909 41.3929 38.246C41.3991 37.8355 41.2395 37.6601 40.8374 37.6037C40.5489 37.563 40.2512 37.5598 39.9565 37.5598C37.7282 37.5567 35.4998 37.5598 33.2746 37.5598H32.6177Z" fill="#FFEB61"/>
<path d="M3.37319 15.1363C3.37319 14.5034 3.34556 13.9269 3.37932 13.3535C3.41923 12.7081 3.17675 12.3384 2.57823 12.0721C-0.0736691 10.8972 -0.84407 7.74837 1.0405 5.51445C1.8907 4.50872 1.78941 2.95783 1.35664 2.00536C1.27683 1.82677 1.09574 1.66072 0.920793 1.56672C0.153461 1.15315 0.0797974 0.990229 0.325344 0.0126953H17.6363C17.9187 0.761511 17.8236 1.17195 17.1974 1.55419C16.5713 1.93643 16.3257 2.49413 16.2674 3.20221C16.1907 4.10142 16.3963 4.86903 16.9703 5.58965C18.7229 7.7985 18.0937 10.706 15.5922 11.9749C14.8954 12.329 14.5578 12.7864 14.6438 13.5885C14.6929 14.0491 14.653 14.519 14.653 15.0485H13.2227C13.2073 15.3368 13.1858 15.5624 13.1828 15.7911C13.1705 18.1096 13.1613 20.4281 13.1459 22.7466C13.1459 23.0474 13.1398 23.3513 13.0968 23.6458C13.0385 24.0312 12.8421 24.1878 12.5106 24.1847C12.1453 24.1784 11.9213 23.9905 11.866 23.6145C11.8384 23.4234 11.8476 23.2291 11.8476 23.0349C11.8415 20.8448 11.8445 18.6548 11.8322 16.4647C11.8261 15.2585 11.645 15.0893 10.4695 15.1394C10.2853 15.1488 10.1011 15.1801 9.87095 15.2083C9.81877 15.5185 9.77887 15.8099 9.71748 16.0981C9.67758 16.283 9.63154 16.4772 9.53639 16.637C9.37679 16.9033 9.11897 16.9284 8.89797 16.7154C8.64322 16.4678 8.52658 16.1639 8.53272 15.7911C8.54193 15.1331 8.45906 15.0611 7.80836 15.0579C7.68252 15.0579 7.55668 15.0548 7.43084 15.0579C6.83539 15.0799 6.45479 15.4652 6.45479 16.0699C6.45479 22.5116 6.45479 28.9565 6.45479 35.3981C6.45479 35.6269 6.49162 35.8587 6.51618 36.1188H8.46213C8.49896 35.6582 8.53272 35.1945 8.56956 34.7339C8.58797 34.4989 8.57876 34.2514 8.6555 34.0352C8.71381 33.8786 8.87649 33.6812 9.01768 33.6561C9.16194 33.6342 9.39827 33.7595 9.48115 33.8942C9.61006 34.0979 9.68986 34.3642 9.70828 34.6086C9.74204 35.0942 9.71748 35.583 9.71748 36.1094H11.7862C11.8077 35.7585 11.8445 35.4232 11.8476 35.088C11.8507 32.7037 11.8476 30.3194 11.8476 27.9382C11.8476 27.7878 11.8384 27.6343 11.8629 27.4902C11.9213 27.18 12.2527 26.8667 12.5044 26.8635C12.7438 26.8604 13.0753 27.1831 13.1336 27.4995C13.1582 27.6249 13.149 27.7565 13.149 27.8849C13.149 30.2912 13.1521 32.6943 13.1551 35.1005C13.1551 35.1224 13.1551 35.1444 13.1551 35.1663C13.1705 36.1532 13.2319 36.2096 14.2018 36.2002C14.3061 36.2002 14.4105 36.2002 14.5148 36.2096C14.5547 36.2128 14.5916 36.241 14.7051 36.288C14.7942 37.3313 14.6959 38.4185 14.7604 39.5809H17.7499V40.8654C17.3233 41.0064 1.4303 41.0628 0.408215 40.9187V39.7281C1.0405 39.7281 1.64515 39.7281 2.25288 39.7281C2.33575 39.7281 2.42169 39.7469 2.50457 39.75C3.20437 39.7751 3.37932 39.6028 3.36705 38.9041C3.35477 38.2399 3.34556 37.5725 3.33942 36.9083C3.33942 36.6984 3.35477 36.4853 3.36705 36.2096H5.04904C5.07052 35.9652 5.10122 35.7804 5.10122 35.5987C5.10122 29.1131 5.10429 22.6276 5.10122 16.142C5.10122 15.1457 5.07359 15.13 4.11596 15.1394C3.90725 15.1394 3.69853 15.1394 3.37932 15.1394L3.37319 15.1363ZM6.27063 4.63718C6.55608 4.99749 6.76479 5.25754 6.97044 5.51445C8.40688 7.316 8.33936 9.79429 6.76172 11.2825C6.35657 11.6648 5.81944 11.9123 5.32528 12.1849C5.10122 12.3071 4.86488 12.3729 4.75745 12.6486C4.50577 13.3003 4.81577 13.789 5.50637 13.7922C7.79915 13.7984 10.0889 13.7953 12.3817 13.7922C12.6518 13.7922 12.9219 13.7608 13.1889 13.742C13.2227 13.5885 13.2472 13.4851 13.2656 13.3817C13.3823 12.7018 13.2932 12.5295 12.6732 12.2193C12.4645 12.1159 12.2466 12.0313 12.0502 11.9123C10.6874 11.1008 9.95075 9.90395 9.95075 8.27786C9.95075 7.20007 10.3651 6.28207 11.0526 5.47372C11.2644 5.22621 11.5222 5.00689 11.6573 4.63718H6.26756H6.27063ZM2.76239 3.26801C2.99873 3.28054 3.2013 3.2962 3.40695 3.2962C7.06252 3.2962 10.715 3.28994 14.3706 3.28367C14.4964 3.28367 14.6253 3.28994 14.7481 3.27427C15.1318 3.22414 15.3037 3.05495 15.3804 2.66958C15.5277 1.9333 15.0489 1.38813 14.2018 1.385C10.672 1.37874 7.14539 1.38187 3.61566 1.38813C3.33328 1.38813 3.04784 1.45706 2.76239 1.49153V3.26174V3.26801ZM6.69727 8.28413C6.70034 6.81783 5.50023 5.59278 4.04537 5.58025C2.55367 5.56772 1.3505 6.78337 1.35664 8.30293C1.36278 9.82876 2.55981 11.0287 4.06071 11.0131C5.5033 10.9974 6.69113 9.7661 6.6942 8.28413H6.69727ZM16.648 8.29666C16.645 6.86796 15.3804 5.58338 13.9808 5.58338C12.5321 5.58338 11.2675 6.85229 11.2583 8.31546C11.2491 9.80056 12.5014 11.0413 13.9808 11.0162C15.3988 10.9911 16.6542 9.71283 16.6511 8.29666H16.648ZM13.416 37.6446C13.2288 37.6133 13.1674 37.5976 13.106 37.5976C10.6076 37.5976 8.10916 37.5976 5.60766 37.5976C5.42043 37.5976 5.2332 37.6321 5.04904 37.6728C4.79735 37.7292 4.63468 37.889 4.6224 38.1584C4.59785 38.666 4.61319 39.1736 4.80656 39.6592C4.95389 39.6655 5.05825 39.6749 5.1626 39.6749C7.51371 39.6749 9.86788 39.6749 12.219 39.6749C12.3878 39.6749 12.5566 39.6749 12.7224 39.6561C13.2165 39.6028 13.3976 39.443 13.4375 38.9292C13.4682 38.5093 13.4252 38.0832 13.416 37.6415V37.6446Z" fill="#FFEB61"/>
<path d="M29.3704 34.1631C28.29 34.4984 27.2771 34.8556 26.2397 35.1156C25.7394 35.2409 25.1961 35.1783 24.6713 35.1939C23.5571 35.2253 22.4429 35.3005 21.3318 35.2629C20.3251 35.2284 19.3245 35.0749 18.3208 34.9652C17.7162 34.8994 17.1146 34.8211 16.4455 34.7396C16.3073 32.2645 16.1723 29.8081 16.0311 27.3173C16.7094 26.9413 17.3847 26.5685 18.1551 26.1424C17.4246 25.663 16.7769 25.2431 16.071 24.7794C16.3871 22.4421 16.7033 20.0892 17.0286 17.6892C17.7499 17.6297 18.4344 17.5701 19.1219 17.5169C20.19 17.4354 21.2582 17.3352 22.3294 17.2913C22.934 17.2662 23.5448 17.3383 24.1525 17.3822C25.368 17.4699 26.5834 17.567 27.7989 17.6641C28.0076 17.6798 28.2133 17.7205 28.4834 17.7581C28.5325 17.9712 28.5908 18.1936 28.6307 18.4192C28.91 19.9576 29.1647 21.5022 29.4686 23.0374C29.5699 23.545 29.5208 23.9272 29.1279 24.2969C28.6215 24.7732 28.1764 25.3152 27.6454 25.8948C28.1795 26.2896 28.6491 26.675 29.1555 27.004C29.5361 27.2483 29.6835 27.5303 29.6558 28.0003C29.5423 30.0337 29.4686 32.0702 29.3765 34.1694L29.3704 34.1631ZM17.8819 18.626C17.8512 18.7827 17.8082 18.9675 17.7837 19.1524C17.7223 19.5973 17.6701 20.0453 17.6087 20.4902C17.4614 21.5523 17.3294 22.6145 17.1575 23.6735C17.0808 24.1466 17.222 24.416 17.6333 24.6479C18.3116 25.0332 18.9562 25.4813 19.6099 25.9074C19.7388 25.992 19.8555 26.0985 20.0274 26.2363C18.9869 26.8003 18.0108 27.3298 17.0164 27.8687C17.1268 29.8645 17.2343 31.8321 17.3417 33.8216C17.5566 33.8686 17.7376 33.9219 17.9187 33.9438C18.8365 34.0503 19.7542 34.2039 20.675 34.2352C22.0163 34.2822 23.3637 34.1913 24.705 34.2509C26.031 34.3073 27.2034 33.7903 28.4435 33.4331C28.4619 33.2357 28.4864 33.0666 28.4926 32.8974C28.5478 31.4812 28.5754 30.065 28.6706 28.6551C28.7105 28.0755 28.5662 27.7027 28.069 27.3925C27.4336 26.9946 26.8505 26.5089 26.2151 26.0421C26.4024 25.8259 26.5374 25.6661 26.6786 25.5126C27.1973 24.9486 27.7037 24.3753 28.2409 23.8332C28.4987 23.5763 28.5632 23.31 28.4895 22.9685C28.4005 22.5487 28.333 22.1257 28.2562 21.7059C28.0721 20.7001 27.8879 19.6913 27.7037 18.6855C24.4196 18.2218 21.1814 18.1592 17.885 18.6323L17.8819 18.626Z" fill="#FFEB61"/>
<path d="M37.3015 31.9168H36.4084V30.25H37.3015V31.9168Z" fill="#FFEB61"/>
<path d="M36.4145 24.46H37.3292V26.1048H36.4145V24.46Z" fill="#FFEB61"/>
<path d="M37.2892 23.1628H36.4145V21.4834H37.2892V23.1628Z" fill="#FFEB61"/>
<path d="M9.55481 29.8145V31.5001H8.70154V29.8145H9.55481Z" fill="#FFEB61"/>
<path d="M8.69849 22.7369V21.0732H9.55483V22.7369H8.69849Z" fill="#FFEB61"/>
<path d="M8.70767 24.04H9.55788V25.7037H8.70767V24.04Z" fill="#FFEB61"/>
<path d="M37.2985 28.8151H36.4145V27.5869H37.2985V28.8151Z" fill="#FFEB61"/>
<path d="M37.2893 20.0614H36.4022V18.8457H37.2893V20.0614Z" fill="#FFEB61"/>
<path d="M8.71997 27.167H9.54869V28.3983H8.71997V27.167Z" fill="#FFEB61"/>
<path d="M9.54254 19.6663H8.71075V18.4287H9.54254V19.6663Z" fill="#FFEB61"/>
<path d="M24.6191 31.5038H21.074C21.1906 30.1566 21.3011 28.8688 21.4147 27.5498H24.3705C24.4533 28.8657 24.5331 30.1566 24.6191 31.5038ZM22.2864 28.4897C22.2281 29.1822 22.1728 29.815 22.1114 30.5137H23.6185C23.5663 29.8338 23.5172 29.1665 23.4681 28.4897H22.2895H22.2864Z" fill="#FFEB61"/>
<path d="M21.4945 20.9766H24.5423C24.5024 22.1828 24.4625 23.3483 24.4226 24.5671C23.4251 24.6454 22.4798 24.5045 21.4945 24.423V20.9766ZM23.4988 23.5865C23.5264 22.9818 23.554 22.4617 23.5786 21.9322H22.4583V23.5363C22.802 23.552 23.1059 23.5677 23.5018 23.5865H23.4988Z" fill="#FFEB61"/>
</g>
<defs>
<clipPath id="clip0_357_1371">
<rect width="46" height="41" fill="white"/>
</clipPath>
</defs>
</svg>
