<svg width="46" height="41" viewBox="0 0 46 41" fill="none" xmlns="http://www.w3.org/2000/svg">
<g clip-path="url(#clip0_357_1465)">
<path d="M16.6207 41.0002H0.380146V39.7822C0.866872 39.7728 1.3536 39.7603 1.84033 39.754C2.07649 39.7509 2.31553 39.7696 2.5517 39.7603C3.00962 39.7415 3.0989 39.6507 3.10754 39.1434C3.11906 38.3293 3.10754 37.5121 3.1133 36.6979C3.1133 36.5758 3.13634 36.4506 3.15362 36.2627H4.72325C4.73765 36.0122 4.75781 35.8243 4.76069 35.6396C4.76069 29.1142 4.76069 22.5919 4.76069 16.0664C4.76069 15.96 4.76357 15.8504 4.75781 15.7439C4.72901 15.2962 4.63396 15.1928 4.20772 15.1709C3.87651 15.1552 3.54243 15.1678 3.12482 15.1678C3.12482 14.5791 3.09026 14.003 3.13346 13.4362C3.1853 12.7599 2.95778 12.3935 2.37025 12.1148C-0.106581 10.9375 -0.75747 7.79379 0.967674 5.52679C1.66176 4.61248 1.79136 3.04375 1.23552 2.02924C1.14912 1.87268 1.01087 1.72238 0.861112 1.63784C0.118062 1.20886 0.0316607 1.0116 0.279344 0.0878906H16.5228C16.7849 0.754837 16.7157 1.19947 16.2146 1.5439C15.7221 1.8852 15.3506 2.27973 15.2815 2.94042C15.1893 3.83281 15.172 4.70329 15.7596 5.43912C16.1916 5.98082 16.5256 6.57888 16.6985 7.28027C17.1247 9.01182 16.468 10.7903 15.0251 11.7861C14.7919 11.9458 14.5384 12.0679 14.2965 12.2119C13.9192 12.4374 13.7176 12.7693 13.7291 13.2546C13.7435 13.8495 13.732 14.4445 13.732 15.1177H12.3294C12.3294 15.7909 12.3294 16.3858 12.3294 16.9807C12.3266 18.9753 12.3266 20.973 12.315 22.9676C12.315 23.2432 12.2949 23.5281 12.2344 23.7942C12.1595 24.1199 11.9464 24.2733 11.6699 24.2326C11.3992 24.195 11.1659 24.0761 11.1256 23.741C11.0939 23.4874 11.0766 23.2275 11.0766 22.9739C11.0737 20.9574 11.0766 18.9377 11.0709 16.9212C11.0709 16.5361 11.0449 16.1478 11.0046 15.7658C10.9729 15.4621 10.8318 15.2335 10.5179 15.2273C10.1089 15.2179 9.70283 15.2273 9.23627 15.2273C9.19019 15.556 9.14699 15.8472 9.10667 16.1353C9.03755 16.5987 8.83594 16.915 8.60266 16.9181C8.38954 16.9181 8.08713 16.5799 8.00649 16.1917C7.96617 16.0101 7.98921 15.8128 7.98633 15.6218C7.98345 15.3149 7.85673 15.1333 7.56008 15.1302C7.30376 15.1302 7.04744 15.1145 6.79111 15.1365C6.40519 15.1678 6.06534 15.556 6.03654 15.9788C6.0279 16.1071 6.03654 16.2355 6.03654 16.3639C6.03654 22.5887 6.03654 28.8104 6.03654 35.0353V36.1281C6.68743 36.2001 7.28072 36.1813 7.90857 36.1406C7.95465 35.5269 7.99785 34.957 8.04393 34.384C8.06697 34.0802 8.08713 33.7609 8.44426 33.6951C8.70058 33.6481 8.95114 33.8799 9.03755 34.2963C9.10091 34.6063 9.09803 34.9319 9.11243 35.2513C9.12395 35.5269 9.11243 35.8024 9.11243 36.1249H11.0133C11.0334 35.7993 11.0709 35.4642 11.0709 35.1292C11.0737 32.7464 11.0709 30.3635 11.0709 27.9838C11.0709 27.9619 11.0709 27.94 11.0709 27.918C11.0709 27.3857 11.3675 26.9035 11.6987 26.8941C12.0097 26.8847 12.3208 27.3889 12.3208 27.9149C12.3208 30.2758 12.3208 32.6368 12.3208 34.9977C12.3208 36.0811 12.2949 36.3942 13.4526 36.2564C13.5448 36.247 13.6398 36.2878 13.7867 36.3159V39.6006C14.7487 39.6851 15.6703 39.5912 16.6178 39.6632V41.0033L16.6207 41.0002ZM5.8839 4.72834C6.14023 5.06651 6.32743 5.31074 6.50887 5.55811C7.32104 6.65403 7.67529 7.88772 7.39304 9.27798C7.0964 10.7528 6.26119 11.736 4.95941 12.262C4.45252 12.4687 4.30276 12.7975 4.4122 13.3673C4.48996 13.765 4.61956 13.8558 5.17541 13.8558C7.32392 13.8558 9.46955 13.8589 11.6181 13.8558C11.8657 13.8558 12.1163 13.812 12.3438 13.79C12.5886 12.7755 12.5195 12.6064 11.7592 12.2088C11.5115 12.0804 11.2609 11.952 11.0305 11.7892C10.276 11.26 9.7374 10.5305 9.48971 9.58797C9.11243 8.14761 9.37451 6.83564 10.25 5.67396C10.4689 5.38276 10.6936 5.09782 10.9758 4.73147H5.8839V4.72834ZM3.71811 11.044C5.11781 11.0628 6.26983 9.86038 6.28423 8.36053C6.29863 6.92957 5.13797 5.6583 3.79587 5.63012C2.43649 5.60194 1.28736 6.80119 1.25568 8.27912C1.22112 9.82594 2.28961 11.0252 3.71523 11.044H3.71811ZM13.0379 11.0534C14.4088 11.0659 15.6213 9.79776 15.6184 8.3574C15.6156 6.95775 14.3944 5.63639 13.1042 5.63012C11.7592 5.62699 10.5611 6.91392 10.5524 8.36993C10.5438 9.84786 11.6497 11.0408 13.0408 11.0534H13.0379ZM2.54882 3.29424C2.73314 3.3099 2.84834 3.32869 2.96642 3.32869C5.6679 3.32869 8.37226 3.32869 11.0737 3.32869C11.9608 3.32869 12.8478 3.32869 13.7378 3.31303C14.1957 3.30677 14.3743 3.11263 14.4347 2.6273C14.501 2.09499 14.1842 1.60966 13.6802 1.4938C13.5275 1.45936 13.3662 1.45623 13.2078 1.45623C9.91308 1.45623 6.61831 1.46249 3.32355 1.47188C3.07298 1.47188 2.8253 1.51572 2.54882 1.54077V3.29424ZM4.42948 39.6945C4.59652 39.7133 4.67428 39.7321 4.75205 39.7321C7.01864 39.7321 9.28523 39.7321 11.5518 39.7321C11.7275 39.7321 11.9032 39.7008 12.0789 39.6695C12.3928 39.61 12.5685 39.4033 12.5742 39.0557C12.5829 38.6142 12.5742 38.1696 12.5742 37.6968C12.3237 37.678 12.1509 37.653 11.9781 37.653C9.82956 37.653 7.68105 37.653 5.53254 37.653C5.31653 37.653 5.09765 37.653 4.88453 37.6843C4.46116 37.7438 4.27972 37.9379 4.29124 38.4013C4.30276 38.824 4.37764 39.2436 4.42948 39.7008V39.6945Z" fill="#FFEB61"/>
<path d="M29.3793 40.9685V39.6221H32.2046V36.2216C32.4408 36.2216 32.6136 36.2153 32.7835 36.2216C33.5726 36.2498 33.659 36.1621 33.6705 35.2822C33.6763 34.7249 33.6705 34.1675 33.6705 33.6071C33.6705 31.6751 33.6734 29.7463 33.6763 27.8143C33.6763 27.7924 33.6763 27.7705 33.6763 27.7486C33.6907 27.3133 34.0133 26.8562 34.307 26.8593C34.6152 26.8624 34.9234 27.2883 34.9378 27.7392C34.9435 27.9114 34.932 28.0836 34.932 28.2527C34.932 30.5072 34.932 32.7585 34.932 35.013C34.932 35.3543 34.932 35.6924 34.932 36.1183C35.6117 36.159 36.228 36.1465 36.9308 36.1245C36.9308 35.5797 36.9164 35.0725 36.9365 34.5683C36.9452 34.3617 36.9884 34.1237 37.0978 33.9671C37.2015 33.82 37.4002 33.6979 37.573 33.6728C37.812 33.6384 37.9071 33.8732 37.9359 34.0924C37.9791 34.4525 37.9992 34.8157 38.028 35.1789C38.0511 35.4733 38.0712 35.7676 38.0943 36.0932H39.9087C39.9289 35.7926 39.9721 35.4826 39.9721 35.1727C39.975 29.142 39.9721 23.1113 39.975 17.0806C39.975 16.758 39.975 16.4355 39.975 16.1161C39.9807 15.4649 39.6437 15.0954 39.0361 15.086C38.9381 15.086 38.8402 15.086 38.7394 15.086C38.0856 15.0797 38.0712 15.1204 38.0194 15.8343C37.9992 16.113 37.8869 16.4167 37.7343 16.6453C37.5154 16.971 37.19 16.9177 37.0373 16.542C36.9365 16.2915 36.902 16.0065 36.8616 15.7341C36.7723 15.1611 36.7723 15.1549 36.228 15.1298C36.1099 15.1235 35.9919 15.1235 35.8738 15.1298C35.1365 15.158 34.9723 15.3114 34.9464 16.1287C34.9205 16.9647 34.9291 17.8039 34.9291 18.6399C34.9291 20.121 34.9291 21.602 34.9291 23.0831C34.9291 23.2741 34.9378 23.4745 34.9003 23.6592C34.8283 24.0287 34.6094 24.1821 34.2523 24.1696C33.9384 24.1602 33.7857 23.9692 33.7512 23.653C33.7137 23.3117 33.6763 22.9703 33.6763 22.629C33.6648 20.3339 33.6648 18.0356 33.659 15.7404C33.659 15.5306 33.659 15.3239 33.659 15.0515H32.291C32.2852 14.5286 32.2363 14.0621 32.2852 13.608C32.3688 12.8096 32.0894 12.3368 31.4184 11.9892C30.1627 11.3379 29.3879 10.2483 29.2151 8.71397C29.0855 7.56482 29.385 6.52839 30.0676 5.66418C30.7502 4.8031 30.9115 3.86374 30.7156 2.7866C30.6235 2.28874 30.3959 1.92239 30.0187 1.64371C29.3418 1.14898 29.2727 0.964239 29.4311 0.0968957C29.8603 -0.0252213 45.0265 -0.0565334 45.7926 0.071846C45.8099 0.259718 45.8358 0.466378 45.8445 0.673037C45.8618 1.08323 45.7206 1.39008 45.3347 1.50281C44.9459 1.61866 44.7414 1.90986 44.6521 2.31066C44.5629 2.70519 44.4649 3.10285 44.4361 3.50678C44.3843 4.23948 44.5715 4.88764 45.0323 5.46065C46.0835 6.76323 46.2419 8.26934 45.7005 9.8506C45.3405 10.8996 44.6176 11.6542 43.6585 12.055C43.0336 12.318 42.8176 12.7407 42.8694 13.4358C42.9097 13.9681 42.878 14.5036 42.878 15.1235C42.518 15.1235 42.1926 15.1173 41.8671 15.1235C41.3747 15.1392 41.2854 15.23 41.2479 15.7592C41.2335 15.9502 41.2393 16.1443 41.2393 16.3385C41.2393 22.6917 41.2393 29.0449 41.2393 35.3981C41.2393 35.6298 41.2393 35.8615 41.2393 36.1684H42.8694C42.8809 36.5535 42.8953 36.8666 42.8953 37.1798C42.8953 37.7809 42.8838 38.3821 42.8896 38.9833C42.8924 39.6002 43.0192 39.7254 43.598 39.7286C44.2288 39.7286 44.8595 39.7286 45.4931 39.7286C45.5306 39.7286 45.5709 39.7442 45.6602 39.7661V40.9591H29.385L29.3793 40.9685ZM33.6907 13.7458C33.9413 13.7709 34.2149 13.8178 34.4856 13.8178C36.6168 13.8241 38.7481 13.8178 40.8764 13.8178C40.9743 13.8178 41.0751 13.8178 41.1702 13.8022C41.4092 13.7583 41.5647 13.6206 41.5849 13.3388C41.6252 12.7845 41.6425 12.4213 40.9542 12.1583C39.7733 11.7105 39.013 10.7868 38.6732 9.48738C38.2786 7.9844 38.6501 6.65364 39.5401 5.46378C39.71 5.23833 39.877 5.00976 40.1103 4.6935H35.0443C35.3438 5.08177 35.5858 5.37924 35.8104 5.69549C36.5218 6.69121 36.853 7.79653 36.6312 9.06467C36.3634 10.5864 35.5109 11.5696 34.235 12.1802C33.4747 12.5434 33.3941 12.7971 33.6907 13.7427V13.7458ZM43.454 1.49968C43.1027 1.4621 42.8089 1.40261 42.5151 1.39948C39.2809 1.39008 36.0466 1.38069 32.8094 1.39008C32.5444 1.39008 32.2593 1.47149 32.0203 1.59674C31.6372 1.80027 31.499 2.27621 31.6228 2.76468C31.7208 3.16235 31.8763 3.26881 32.3889 3.29072C32.4667 3.29386 32.5473 3.29386 32.6251 3.29386C36.0783 3.29386 39.5285 3.29386 42.9817 3.29386C43.1315 3.29386 43.2841 3.26568 43.4569 3.25002V1.49968H43.454ZM44.7702 8.33197C44.7846 6.85404 43.6758 5.62347 42.3078 5.60155C40.9138 5.57964 39.7446 6.80081 39.7417 8.285C39.7417 9.76293 40.8562 10.9998 42.2099 11.0185C43.6182 11.0405 44.7558 9.84434 44.7702 8.32883V8.33197ZM35.4475 8.34762C35.4475 6.85717 34.3042 5.60782 32.9333 5.60155C31.6084 5.59529 30.4334 6.85404 30.4247 8.29126C30.4161 9.75353 31.5969 11.0279 32.9592 11.0217C34.3502 11.0185 35.4475 9.84121 35.4504 8.34762H35.4475ZM41.5849 39.7066C41.6281 39.1743 41.6799 38.7109 41.7001 38.2444C41.7145 37.9219 41.5532 37.7121 41.2566 37.6651C40.9455 37.6181 40.6316 37.5743 40.3177 37.5743C38.2325 37.5649 36.1474 37.568 34.0594 37.5712C33.8865 37.5712 33.7109 37.5868 33.4517 37.5993C33.4373 38.044 33.3969 38.4604 33.4142 38.8769C33.4344 39.4154 33.5957 39.572 34.1054 39.6378C34.2811 39.6597 34.4597 39.6691 34.6354 39.6691C36.7003 39.6816 38.7682 39.691 40.8332 39.7035C41.0463 39.7035 41.2623 39.7035 41.582 39.7035L41.5849 39.7066Z" fill="#FFEB61"/>
<path d="M32.4293 26.7472V31.729C29.2756 31.7759 26.1105 31.8229 22.9107 31.8699C22.8848 31.6945 22.8502 31.5536 22.8474 31.4127C22.8243 30.2323 22.8214 29.0518 22.7811 27.8745C22.7667 27.5175 22.9366 27.3234 23.1383 27.1167C24.3968 25.8173 25.6468 24.5022 26.9197 23.2215C27.2337 22.9052 27.3575 22.5921 27.1962 22.0911C25.8628 22.1725 24.5149 22.2539 23.1037 22.3385C23.0547 20.6602 23.0115 19.0382 22.9626 17.3818C23.1325 17.3505 23.2621 17.3066 23.3888 17.3066C25.6381 17.3066 27.8874 17.316 30.1367 17.3129C30.3902 17.3129 30.5774 17.3974 30.7675 17.5853C31.6517 18.4683 31.6459 18.4621 31.7496 19.7709C31.8475 20.9889 31.9627 22.2038 32.0952 23.4188C32.1384 23.8258 32.0347 24.0982 31.7467 24.3644C31.0555 25.0031 30.396 25.6826 29.722 26.3464C29.578 26.4873 29.4427 26.6345 29.2353 26.8506C30.3441 26.9821 31.3636 26.6502 32.4293 26.7566V26.7472ZM26.6778 28.0936C26.9226 27.8181 27.0522 27.6584 27.1933 27.5175C28.3914 26.3339 29.5838 25.144 30.7963 23.9824C31.0958 23.6943 31.2024 23.4062 31.1563 22.9804C31.0238 21.7655 30.923 20.5506 30.8078 19.3325C30.7502 18.7219 30.2836 18.2585 29.7076 18.2554C27.9335 18.246 26.1565 18.246 24.3824 18.2429C24.2327 18.2429 24.0829 18.2742 23.9619 18.2867V21.3115C25.3732 21.2269 26.7181 21.1455 28.1006 21.0641C28.1294 21.6715 28.1409 22.1851 28.1841 22.6954C28.2186 23.0712 28.0977 23.3311 27.8442 23.5878C26.5626 24.8904 25.3012 26.2212 24.0224 27.5269C23.7891 27.7649 23.6682 28.0028 23.6826 28.3629C23.7114 29.0267 23.6941 29.6937 23.7027 30.3575C23.7027 30.5203 23.7431 30.68 23.7661 30.8773C26.3841 30.8303 28.9617 30.8773 31.5883 30.7646C31.5739 29.7187 31.643 28.7481 31.5307 27.7273C29.9121 27.8494 28.3626 27.9653 26.6749 28.0905L26.6778 28.0936Z" fill="#FFEB61"/>
<path d="M21.6147 17.2153V31.838C19.9846 31.9132 18.3372 31.9915 16.6178 32.0697C16.5458 29.0356 16.7273 26.0484 16.6956 22.9705C15.8978 23.3744 15.1577 23.7501 14.357 24.1572C14.1871 22.5415 14.0258 20.9915 13.8616 19.4072C14.452 19.0251 15.0568 18.6995 15.5925 18.2737C16.661 17.4251 17.8217 17.0838 19.1379 17.1997C19.9385 17.2685 20.7478 17.2122 21.6176 17.2122L21.6147 17.2153ZM17.4962 31.0646C18.6339 31.0114 19.6822 30.9613 20.7161 30.9143V18.186C20.575 18.1641 20.4972 18.1421 20.4224 18.1453C19.5152 18.1703 18.6108 18.1954 17.7036 18.2267C17.5884 18.2298 17.4559 18.233 17.3609 18.2924C16.5113 18.8247 15.6645 19.3727 14.8034 19.9238C14.9013 20.8412 14.9964 21.7242 15.1001 22.6918C15.9612 22.2566 16.7474 21.862 17.5999 21.4299C17.5654 24.6989 17.5308 27.8583 17.4991 31.0615L17.4962 31.0646Z" fill="#FFEB61"/>
<path d="M37.0316 30.251H37.8495V31.9481H37.0316V30.251Z" fill="#FFEB61"/>
<path d="M8.1217 24.0605H8.93676V25.7577H8.1217V24.0605Z" fill="#FFEB61"/>
<path d="M8.10443 22.8041V21.1289H8.94828V22.8041H8.10443Z" fill="#FFEB61"/>
<path d="M37.02 24.4863H37.8523V26.1772H37.0287C36.9538 25.6449 36.9797 25.1063 37.02 24.4863Z" fill="#FFEB61"/>
<path d="M37.861 21.5459V23.2274H37.0575C36.9164 22.6857 37.0229 22.1408 36.9941 21.5459H37.861Z" fill="#FFEB61"/>
<path d="M8.1275 29.8525H8.95695V31.5309H8.1275V29.8525Z" fill="#FFEB61"/>
<path d="M8.1275 27.1973H8.95119V28.4184H8.1275V27.1973Z" fill="#FFEB61"/>
<path d="M37.8524 20.1276H37.0402V18.9189H37.8524V20.1276Z" fill="#FFEB61"/>
<path d="M8.11597 19.7077V18.499H8.95982V19.7077H8.11597Z" fill="#FFEB61"/>
<path d="M37.8466 28.8663H37.0287V27.6357H37.8466V28.8663Z" fill="#FFEB61"/>
</g>
<defs>
<clipPath id="clip0_357_1465">
<rect width="46" height="41" fill="white"/>
</clipPath>
</defs>
</svg>
