<svg width="46" height="41" viewBox="0 0 46 41" fill="none" xmlns="http://www.w3.org/2000/svg">
<g clip-path="url(#clip0_357_1313)">
<path d="M0.316349 0.0410156H17.6451C17.8754 0.88127 17.7894 1.17912 17.1444 1.59298C16.6438 1.91278 16.3796 2.35171 16.2875 2.94428C16.137 3.92876 16.3029 4.78782 16.9448 5.59045C18.7077 7.79769 18.0965 10.7198 15.5934 11.9833C14.8286 12.3721 14.5399 12.8737 14.6474 13.7171C14.7027 14.1529 14.6382 14.6044 14.6259 15.0997H13.1701C13.1701 15.3788 13.1701 15.6077 13.1701 15.8397C13.1639 18.1159 13.1639 20.3952 13.1516 22.6714C13.1516 23.0132 13.1086 23.3549 13.0718 23.6967C13.038 24.0196 12.8506 24.1983 12.5343 24.2203C12.2179 24.2422 11.9446 24.0604 11.8678 23.7468C11.8187 23.543 11.8187 23.3236 11.8187 23.1104C11.8125 20.8749 11.8187 18.6395 11.8033 16.4072C11.7941 15.2189 11.5883 15.1436 10.498 15.1436C10.2922 15.1436 10.0895 15.2001 9.8499 15.2346C9.80076 15.5355 9.76083 15.8083 9.70862 16.0779C9.67483 16.2441 9.64719 16.4197 9.57348 16.5702C9.38612 16.9527 9.1097 16.9935 8.82713 16.6862C8.59985 16.4416 8.50464 16.1532 8.51078 15.8083C8.52307 15.1656 8.4555 15.1029 7.83815 15.106C7.42966 15.1091 6.96588 14.9869 6.68331 15.4258C6.56353 15.6108 6.44989 15.8428 6.44989 16.056C6.44067 22.5021 6.44374 28.9483 6.44989 35.3975C6.44989 35.6295 6.48367 35.8615 6.50517 36.1343H8.45857C8.48314 35.7205 8.50464 35.316 8.53535 34.9178C8.55685 34.6419 8.56299 34.3535 8.64285 34.0932C8.69199 33.9396 8.85785 33.7421 8.99606 33.717C9.14041 33.6919 9.37384 33.8111 9.46598 33.9428C9.5919 34.1215 9.66869 34.3691 9.68097 34.5949C9.71169 35.084 9.69019 35.5762 9.69019 36.1374C10.3874 36.219 11.0477 36.1782 11.7726 36.1657C11.791 35.7863 11.8187 35.4508 11.8187 35.1153C11.8187 32.7294 11.8248 30.3435 11.8125 27.9606C11.8125 27.5625 11.8924 27.2458 12.2149 27.0075C12.4145 26.8602 12.5957 26.8508 12.7831 27.0201C13.0288 27.2458 13.1639 27.506 13.1639 27.8635C13.1547 30.2494 13.1639 32.6322 13.1639 35.0182C13.1639 35.2533 13.1639 35.4916 13.1854 35.7267C13.2253 36.1374 13.3421 36.2503 13.7413 36.2723C14.0331 36.2879 14.3249 36.2723 14.6996 36.2723C14.758 37.3821 14.6935 38.4701 14.7395 39.6301H17.7311V41.0034H0.377776V39.8057C0.715628 39.7932 1.06269 39.7744 1.41283 39.7712C1.76911 39.765 2.12846 39.7744 2.48474 39.7775C3.25566 39.7838 3.34165 39.6897 3.33551 38.8808C3.32937 38.2569 3.32323 37.6361 3.3263 37.0122C3.3263 36.7833 3.35087 36.5513 3.3693 36.2503H5.05855C5.07391 35.9713 5.09234 35.7612 5.09234 35.5543C5.09234 29.1082 5.09234 22.662 5.09234 16.2128C5.09234 16.1469 5.09234 16.0842 5.09234 16.0184C5.07698 15.2252 5.0002 15.1499 4.20778 15.1468C3.95593 15.1468 3.70408 15.1468 3.3693 15.1468C3.36008 14.7172 3.3478 14.2971 3.34165 13.877C3.34165 13.7045 3.33244 13.5321 3.35087 13.3628C3.42765 12.7075 3.1328 12.3595 2.54003 12.0962C-0.101358 10.9047 -0.810846 7.77261 1.01969 5.49012C1.79368 4.52446 1.93189 3.07596 1.32683 1.99429C1.23162 1.82185 1.05655 1.66195 0.881482 1.57103C0.144352 1.19793 0.0184254 0.88754 0.316349 0.0410156ZM6.28096 4.68749C6.57581 5.05432 6.79081 5.31455 6.99659 5.58105C7.72758 6.53104 8.11457 7.60644 7.961 8.81979C7.74908 10.4752 6.86452 11.6133 5.32269 12.209C4.74834 12.4316 4.60092 12.7389 4.72992 13.3659C4.8067 13.7422 4.94798 13.8237 5.56533 13.8237C7.81665 13.8237 10.068 13.8268 12.3193 13.8237C12.6049 13.8237 12.8936 13.7798 13.1516 13.7578C13.4557 12.789 13.3666 12.5696 12.5527 12.1777C12.5159 12.1589 12.4729 12.1463 12.436 12.1275C9.74855 10.8358 9.11891 7.80396 11.0539 5.48385C11.2535 5.24557 11.4501 5.00416 11.7081 4.68749H6.28096ZM3.98971 11.0082C5.47626 11.0208 6.69867 9.79172 6.70174 8.28993C6.70174 6.85711 5.44862 5.58732 4.02043 5.58105C2.57381 5.57478 1.34833 6.79126 1.32376 8.25857C1.29919 9.78545 2.47245 10.9925 3.98664 11.0051L3.98971 11.0082ZM13.9133 11.0082C15.363 11.0145 16.61 9.80426 16.6254 8.36517C16.6438 6.89786 15.3814 5.58105 13.9594 5.58105C12.5159 5.58105 11.2658 6.86024 11.2658 8.33382C11.2658 9.84189 12.4084 10.9988 13.9133 11.0051V11.0082ZM2.73352 3.24527C2.9393 3.25467 3.08673 3.26721 3.23108 3.26721C6.97202 3.26721 10.713 3.26721 14.4539 3.26721C14.5798 3.26721 14.7272 3.3017 14.8286 3.2484C15.0037 3.15748 15.2156 3.04774 15.2955 2.88471C15.6057 2.24198 15.2248 1.54595 14.5307 1.42681C14.3863 1.40173 14.2389 1.40173 14.0915 1.40173C10.6669 1.40173 7.23923 1.40173 3.81465 1.40173C3.46451 1.40173 3.11437 1.44875 2.73659 1.47384V3.239L2.73352 3.24527ZM4.72684 39.6897C4.88656 39.7117 4.96948 39.7305 5.04934 39.7305C7.46651 39.7305 9.88369 39.7305 12.3009 39.7273C12.5097 39.7273 12.7186 39.6834 12.9243 39.6521C13.1823 39.6113 13.3543 39.4452 13.3943 39.1943C13.4711 38.6927 13.511 38.1848 13.3298 37.6769C13.1731 37.6643 13.0503 37.6424 12.9274 37.6424C10.5102 37.6424 8.09307 37.6424 5.6759 37.6424C5.57147 37.6424 5.46705 37.6486 5.36262 37.6581C4.73606 37.7114 4.57328 37.8744 4.59785 38.4983C4.6132 38.8808 4.68077 39.2602 4.72992 39.6897H4.72684Z" fill="#FFEB61"/>
<path d="M32.7962 15.0148H31.3587C31.3587 14.5038 31.3188 14.0554 31.368 13.6165C31.4601 12.7951 31.153 12.2934 30.4066 11.9485C29.347 11.4594 28.5945 10.616 28.2474 9.46853C27.8175 8.05139 28.0724 6.7283 29.0122 5.60274C29.6541 4.8346 29.8353 3.99434 29.7309 3.03181C29.6603 2.39222 29.4023 1.90311 28.8556 1.55196C28.2014 1.1381 28.1092 0.808901 28.3519 0H45.7635C45.7789 0.250822 45.7973 0.460886 45.8034 0.674084C45.8188 1.05972 45.6683 1.35444 45.2874 1.45477C44.8421 1.57391 44.6056 1.89371 44.5288 2.31383C44.4275 2.85624 44.3476 3.41118 44.3384 3.96299C44.3292 4.5148 44.5687 4.99449 44.9404 5.41149C45.4164 5.94448 45.7389 6.5684 45.8956 7.27384C46.301 9.09543 45.4809 10.9421 43.8562 11.8576C43.6903 11.9517 43.5214 12.0457 43.3433 12.1053C42.7873 12.2871 42.6153 12.6885 42.6338 13.2465C42.6553 13.8422 42.6368 14.4411 42.6368 15.1026C42.2499 15.1026 41.9212 15.0964 41.5926 15.1026C41.0213 15.1152 40.9568 15.1841 40.9384 15.7861C40.9384 15.8708 40.9384 15.9586 40.9384 16.0432C40.9384 22.5113 40.9384 28.9794 40.9384 35.4443C40.9384 35.6575 40.9384 35.8675 40.9384 36.1654H42.6153C42.643 36.4068 42.6798 36.5699 42.6798 36.7329C42.6798 37.4634 42.6798 38.1939 42.6676 38.9244C42.6583 39.5829 42.7904 39.7333 43.417 39.7365C44.1295 39.7396 44.8421 39.7365 45.6038 39.7365V40.8997C45.1369 41.0251 28.9109 41.0439 28.2567 40.9122V39.6299C29.2211 39.5672 30.2008 39.6393 31.2451 39.586V36.2218C31.5584 36.2218 31.801 36.2156 32.0437 36.2218C32.6487 36.2375 32.7992 36.109 32.8514 35.507C32.8668 35.3157 32.8607 35.1214 32.8607 34.927C32.8607 32.563 32.8668 30.199 32.8699 27.8381C32.8699 27.7096 32.8637 27.5779 32.8914 27.4556C32.9651 27.1327 33.3029 26.8286 33.5425 26.8474C33.7913 26.8662 34.1107 27.1954 34.1598 27.5026C34.1813 27.628 34.1721 27.7597 34.1721 27.8883C34.1721 30.3369 34.1721 32.7856 34.1783 35.2374C34.1783 35.5133 34.2121 35.786 34.2336 36.0964H36.2944C36.2944 35.6293 36.2699 35.1653 36.3037 34.7044C36.3221 34.4379 36.3866 34.1432 36.5217 33.9237C36.6077 33.7795 36.8719 33.6666 37.0408 33.6854C37.1698 33.6979 37.3418 33.9237 37.3786 34.0804C37.4493 34.3908 37.4401 34.72 37.4646 35.0398C37.4923 35.3816 37.5261 35.7202 37.5599 36.0996H39.5133C39.5286 35.8613 39.5593 35.6324 39.5593 35.4035C39.5655 29.0013 39.5685 22.5991 39.5716 16.1937C39.5716 15.4036 39.2338 15.0681 38.4628 15.0681C38.3799 15.0681 38.2939 15.065 38.211 15.065C37.5476 15.065 37.5138 15.1246 37.4677 15.7798C37.4493 16.062 37.3479 16.3724 37.1913 16.6013C36.9425 16.965 36.6016 16.9054 36.4112 16.5041C36.3405 16.3536 36.3221 16.178 36.2852 16.0119C36.2545 15.8645 36.2392 15.714 36.2146 15.5666C36.1962 15.4632 36.1716 15.3597 36.144 15.2312C35.6495 15.0368 35.1488 15.0681 34.6635 15.1873C34.5161 15.2218 34.3472 15.413 34.2981 15.5666C34.2121 15.8488 34.1783 16.1561 34.1752 16.4539C34.166 18.6235 34.1691 20.7931 34.166 22.9628C34.166 23.1571 34.1691 23.3515 34.1476 23.5428C34.0984 23.9786 33.8957 24.1604 33.4903 24.1604C33.1217 24.1604 32.9467 24.0068 32.8944 23.5616C32.8545 23.223 32.8514 22.875 32.8514 22.5332C32.8392 20.257 32.8299 17.9777 32.8177 15.7015C32.8177 15.5102 32.7992 15.319 32.7869 15.0211L32.7962 15.0148ZM32.7962 13.7074C33.1739 13.7356 33.5271 13.7858 33.8803 13.7858C36.0242 13.7921 38.168 13.7889 40.3118 13.7858C40.4807 13.7858 40.6497 13.7921 40.8155 13.7701C41.0674 13.7388 41.2209 13.5977 41.2824 13.3249C41.4206 12.7324 41.2363 12.3781 40.6343 12.1398C38.8959 11.45 37.9284 9.90747 38.039 8.0169C38.1004 6.98539 38.5151 6.12006 39.157 5.34564C39.3382 5.12931 39.4979 4.8973 39.6975 4.6308C38.5058 4.48344 34.7618 4.53674 34.3472 4.70605C34.6236 5.04152 34.9031 5.35819 35.1611 5.69366C36.8104 7.86014 36.144 10.7979 33.7329 11.9987C33.564 12.0834 33.3859 12.1555 33.22 12.2464C32.7317 12.5097 32.6487 12.6759 32.7194 13.2215C32.7347 13.35 32.7593 13.4754 32.7962 13.698V13.7074ZM43.2665 1.44536C42.8764 1.41087 42.5263 1.3513 42.1731 1.3513C38.8068 1.33876 35.4406 1.33876 32.0744 1.33563C31.8655 1.33563 31.6505 1.33876 31.4478 1.38579C30.8458 1.52688 30.5418 1.97209 30.6185 2.55838C30.6892 3.09765 30.8919 3.2356 31.629 3.2356C35.2901 3.23874 38.9512 3.24187 42.6123 3.24815C42.8181 3.24815 43.0238 3.24815 43.2695 3.24815V1.44223L43.2665 1.44536ZM32.0222 5.55884C30.6185 5.56511 29.3562 6.85371 29.3593 8.28026C29.3593 9.69427 30.6339 10.9735 32.0467 10.986C33.5425 10.9985 34.7803 9.76011 34.7649 8.27399C34.7495 6.81295 33.4749 5.55257 32.0222 5.55884ZM44.6578 8.26145C44.6578 6.76279 43.4938 5.56825 42.0195 5.55571C40.5299 5.54317 39.3044 6.7722 39.3136 8.26772C39.3228 9.74757 40.5207 10.9703 41.9673 10.9766C43.4784 10.9829 44.6578 9.7946 44.6578 8.25832V8.26145ZM32.5812 37.57C32.5812 38.1218 32.5474 38.5702 32.5904 39.0122C32.6303 39.4386 32.7839 39.5703 33.1924 39.6267C33.4841 39.6644 33.779 39.6738 34.0738 39.6769C35.9443 39.6926 37.8179 39.702 39.6883 39.7114C40.189 39.7114 40.6896 39.7114 41.2793 39.7114C41.3223 39.1753 41.3776 38.6924 41.396 38.2065C41.4052 37.918 41.2424 37.7111 40.9507 37.6703C40.6189 37.6233 40.2842 37.5794 39.9494 37.5794C37.7411 37.57 35.5327 37.5763 33.3214 37.5763H32.5812V37.57Z" fill="#FFEB61"/>
<path d="M28.0601 25.1795H29.6633V30.3276H28.1369V33.6353C26.1558 33.7011 24.2577 33.7639 22.3228 33.8266V30.6098C20.4308 30.5157 18.5112 30.7603 16.5301 30.6976C16.3919 29.8918 16.2506 29.0986 16.1216 28.3022C16.0141 27.6469 15.9374 26.9854 15.8084 26.3333C15.75 26.0354 15.7869 25.8034 15.9466 25.5526C17.857 22.5709 19.7612 19.5861 21.6563 16.5951C21.8098 16.3537 21.9788 16.2471 22.2675 16.2471C24.0765 16.2596 25.8825 16.2533 27.6915 16.2533C27.7929 16.2533 27.8973 16.2722 28.0632 16.291V25.1763L28.0601 25.1795ZM27.111 26.1859V17.2441C26.9298 17.2284 26.8285 17.2127 26.7271 17.2096C25.4463 17.2096 24.1625 17.2221 22.8817 17.1971C22.5163 17.1908 22.3135 17.3256 22.1231 17.6297C20.6212 20.0125 19.1377 22.411 17.5683 24.7468C16.9601 25.6498 16.5793 26.5057 16.9724 27.5842C16.9878 27.6219 16.9816 27.6689 16.9878 27.7128C17.0983 28.3649 17.2089 29.0139 17.3287 29.7193C19.3374 29.6692 21.3031 29.6222 23.3117 29.5751V32.8139C24.614 32.7762 25.8671 32.7386 27.2062 32.701V29.434C27.7468 29.409 28.2044 29.387 28.7112 29.3619V26.1859H27.111Z" fill="#FFEB61"/>
<path d="M9.55813 25.7755H8.68278C8.59986 25.2237 8.65514 24.675 8.64593 24.0762H9.53048C9.61341 24.606 9.55813 25.1672 9.5612 25.7755H9.55813Z" fill="#FFEB61"/>
<path d="M36.4449 30.2461H37.2865V31.9485H36.4449V30.2461Z" fill="#FFEB61"/>
<path d="M36.4142 24.4648H37.2558C37.3848 25.0198 37.3172 25.5653 37.2988 26.1548H36.4634C36.3374 25.6249 36.4112 25.0794 36.4142 24.4648Z" fill="#FFEB61"/>
<path d="M8.66742 22.7811V21.1006H9.51819V22.7811H8.66742Z" fill="#FFEB61"/>
<path d="M37.2927 23.2009H36.4388V21.4922H37.2834C37.3479 22.0848 37.3479 22.646 37.2957 23.2009H37.2927Z" fill="#FFEB61"/>
<path d="M8.66742 31.5342V29.8506H9.52126V31.5342H8.66742Z" fill="#FFEB61"/>
<path d="M8.66742 19.6833V18.4512H9.51512V19.6833H8.66742Z" fill="#FFEB61"/>
<path d="M9.52741 28.4215H8.67664V27.1768H9.52741V28.4215Z" fill="#FFEB61"/>
<path d="M36.4327 20.0846V18.8838H37.2896V20.0846H36.4327Z" fill="#FFEB61"/>
<path d="M36.4296 28.8352V27.625H37.2804V28.8352H36.4296Z" fill="#FFEB61"/>
<path d="M23.8861 20.7457C23.8093 22.5704 23.7325 24.3983 23.6527 26.3139C22.4026 26.3547 21.1679 26.3704 19.795 26.339C21.1648 24.3857 22.461 22.5391 23.754 20.6924C23.797 20.7081 23.8431 20.7269 23.8861 20.7425V20.7457ZM22.7435 23.7932C22.3565 24.3889 21.9726 24.8121 21.687 25.4172C22.0863 25.3984 22.3903 25.3828 22.7435 25.3639V23.7932Z" fill="#FFEB61"/>
</g>
<defs>
<clipPath id="clip0_357_1313">
<rect width="46" height="41" fill="white"/>
</clipPath>
</defs>
</svg>
