<svg width="46" height="41" viewBox="0 0 46 41" fill="none" xmlns="http://www.w3.org/2000/svg">
<g clip-path="url(#clip0_357_1284)">
<path d="M28.2978 39.55H31.2737V36.1527C31.6392 36.1527 31.9248 36.159 32.2104 36.1527C32.6895 36.137 32.8155 36.0306 32.8339 35.5484C32.8585 34.9472 32.8492 34.346 32.8492 33.7448C32.8492 31.7909 32.8523 29.8402 32.8462 27.8863C32.8462 27.5982 32.8615 27.3383 33.055 27.1035C33.3744 26.7152 33.66 26.7121 33.9917 27.0972C34.2098 27.3477 34.1975 27.6452 34.1975 27.9458C34.1975 30.3067 34.1975 32.6677 34.1975 35.0286V36.0431H36.2767C36.2767 35.636 36.249 35.2509 36.2859 34.872C36.3197 34.537 36.3811 34.1894 36.5162 33.8888C36.5838 33.7385 36.8633 33.5851 37.0137 33.6133C37.1612 33.6383 37.3393 33.8826 37.3761 34.0579C37.4591 34.4524 37.4652 34.8658 37.499 35.2728C37.5174 35.5077 37.5236 35.7425 37.5389 36.0462C38.19 36.1433 38.8257 36.0963 39.5075 36.0775C39.5229 35.8208 39.5444 35.611 39.5444 35.4043C39.5505 28.9885 39.5567 22.5695 39.5597 16.1537C39.5597 15.3584 39.2342 15.0327 38.4541 15.0296C38.3282 15.0296 38.2023 15.0202 38.0764 15.0265C37.5911 15.0452 37.4806 15.1392 37.499 15.6433C37.5113 16.0097 37.4376 16.3228 37.2011 16.5952C36.9155 16.9271 36.5899 16.8864 36.4149 16.4731C36.3258 16.2601 36.3043 16.019 36.2582 15.7873C36.2183 15.5838 36.1845 15.3771 36.1385 15.1235C35.6747 15.1235 35.2601 15.1235 34.8424 15.1235C34.477 15.1235 34.305 15.3458 34.2589 15.6746C34.2159 15.9689 34.2036 16.2727 34.2006 16.5701C34.1975 18.6931 34.2006 20.8192 34.1944 22.9421C34.1944 23.177 34.1852 23.4181 34.1361 23.6435C34.0593 23.9817 33.8228 24.1414 33.4942 24.1414C33.1656 24.1414 32.9782 23.9598 32.9383 23.6435C32.8892 23.2615 32.8492 22.8764 32.8462 22.4944C32.8339 20.2618 32.8339 18.0293 32.8308 15.7999C32.8308 15.5682 32.8308 15.3333 32.8308 15.0265H31.3597C31.3505 14.5286 31.2922 14.0996 31.3474 13.6863C31.4641 12.7876 31.1325 12.2679 30.3186 11.8733C29.1178 11.2941 28.3684 10.2764 28.1196 8.91121C27.8985 7.69004 28.2026 6.58472 28.9642 5.66415C29.6767 4.79994 29.8978 3.87936 29.6951 2.79596C29.5969 2.27618 29.3542 1.88792 28.9304 1.59984C28.2118 1.11138 28.1319 0.898454 28.3315 0.00292969H45.7574C45.7819 0.193933 45.8127 0.378674 45.8249 0.563415C45.8587 1.02683 45.6806 1.36187 45.2199 1.48399C44.9282 1.56227 44.7408 1.75014 44.6333 2.01943C44.3477 2.72708 44.1972 3.4723 44.3723 4.22066C44.4644 4.62146 44.6579 5.04417 44.9251 5.3479C46.8906 7.61176 46.043 10.9903 43.3864 12.0581C42.8305 12.2804 42.6156 12.6467 42.6555 13.2479C42.6954 13.8397 42.6647 14.4378 42.6647 15.0797C42.2562 15.0797 41.9061 15.0672 41.556 15.0797C41.0308 15.1016 40.9479 15.1955 40.9233 15.7372C40.9172 15.8656 40.9233 15.994 40.9233 16.1224C40.9233 22.5382 40.9233 28.9572 40.9233 35.373C40.9233 35.6047 40.9233 35.8364 40.9233 36.1308H42.6862C42.6862 36.7445 42.6862 37.2956 42.6862 37.8467C42.6862 38.213 42.6739 38.5762 42.677 38.9426C42.6831 39.5657 42.7998 39.6753 43.4294 39.6753C43.9976 39.6753 44.5658 39.669 45.1309 39.6753C45.2936 39.6753 45.4564 39.7066 45.6407 39.7285V40.8745H28.2978V39.55ZM39.7379 4.62459H34.2958C34.6459 5.05983 34.953 5.40739 35.2263 5.78C36.5254 7.54913 36.3043 9.95703 34.6858 11.341C34.305 11.6667 33.8443 11.9046 33.399 12.1363C32.6343 12.534 32.5176 12.8283 32.8861 13.7051C33.1011 13.7176 33.3283 13.7395 33.5587 13.7395C35.8713 13.7395 38.1869 13.7395 40.4995 13.7395C40.6039 13.7395 40.7084 13.7395 40.8159 13.7333C41.0861 13.7207 41.2305 13.5704 41.2857 13.3043C41.4209 12.678 41.2581 12.3743 40.6285 12.127C39.3847 11.6416 38.5493 10.7524 38.1808 9.45604C37.7631 7.98437 38.1224 6.65987 39.0438 5.47628C39.2465 5.21639 39.4615 4.95963 39.7379 4.62146V4.62459ZM43.2881 1.45894C43.0271 1.4245 42.7814 1.3744 42.5357 1.365C42.1365 1.34935 41.7372 1.35561 41.338 1.35561C38.1869 1.35561 35.0359 1.34622 31.888 1.35561C31.6238 1.35561 31.3382 1.41197 31.1048 1.52783C30.6871 1.73449 30.5274 2.20417 30.6534 2.67698C30.7731 3.131 30.896 3.21241 31.5071 3.22494C32.1797 3.23746 32.8492 3.25625 33.5218 3.25625C36.5869 3.25938 39.655 3.25625 42.72 3.25625C42.9012 3.25625 43.0855 3.2312 43.2881 3.21555V1.45894ZM34.7442 8.25992C34.7349 6.78199 33.4819 5.53577 32.02 5.54829C30.6104 5.56082 29.3635 6.83835 29.3665 8.26931C29.3696 9.68462 30.638 10.9621 32.0507 10.9778C33.5403 10.9935 34.7534 9.76603 34.7442 8.25992ZM41.9645 10.9528C43.4816 10.9621 44.6763 9.77542 44.6763 8.25679C44.6763 6.77886 43.4908 5.57021 42.0259 5.55142C40.561 5.53264 39.2772 6.80078 39.2926 8.25366C39.3079 9.71906 40.518 10.9434 41.9645 10.9528ZM32.5728 37.568C32.5728 38.0471 32.5544 38.451 32.5759 38.8549C32.6035 39.3497 32.7878 39.5344 33.2731 39.6002C33.4174 39.6189 33.5679 39.6221 33.7153 39.6221C36.0709 39.6252 38.4265 39.6315 40.7821 39.6315C40.9418 39.6315 41.1045 39.597 41.255 39.5814C41.295 39.3653 41.3287 39.1962 41.3564 39.0271C41.5714 37.7778 41.381 37.5429 40.1218 37.5398C37.8276 37.5336 35.5365 37.5398 33.2423 37.5398C33.0581 37.5398 32.8707 37.5555 32.5698 37.5711L32.5728 37.568Z" fill="#FFEB61"/>
<path d="M6.43718 36.1094H8.43037C8.47337 35.6053 8.51636 35.1199 8.55936 34.6377C8.57164 34.5094 8.57164 34.381 8.587 34.2526C8.61464 33.9896 8.66378 33.7203 8.97089 33.6608C9.29644 33.5982 9.49299 33.8142 9.59127 34.0898C9.66805 34.3058 9.7049 34.5469 9.71412 34.7786C9.73255 35.2045 9.72026 35.6303 9.72026 36.0969H11.7472C11.7779 35.79 11.8332 35.48 11.8332 35.1669C11.8394 32.7434 11.8332 30.3167 11.8302 27.8931C11.8302 27.3389 12.1035 26.8817 12.469 26.8598C12.8283 26.8379 13.1446 27.2951 13.1446 27.8555C13.1446 30.2603 13.1446 32.6619 13.1446 35.0667C13.1446 36.172 13.1845 36.2002 14.281 36.1939C14.4192 36.1939 14.5574 36.2472 14.7447 36.2879V39.5756H17.7329V40.8907C17.303 41.0254 1.12098 41.0567 0.399257 40.9158V39.7666C0.58967 39.7541 0.792367 39.7322 0.991993 39.7291C1.49567 39.7291 2.00241 39.7322 2.50608 39.7353C3.22166 39.7416 3.31687 39.6508 3.32301 38.9337C3.32608 38.2042 3.32301 37.4746 3.32301 36.745C3.32301 36.5979 3.33837 36.4476 3.35372 36.219C3.90961 36.1939 4.46242 36.1689 5.07665 36.1407V35.4738C5.07665 29.0141 5.07665 22.5544 5.07665 16.0947C5.07665 15.1303 5.07665 15.1303 4.12459 15.1366C3.89425 15.1366 3.66698 15.1366 3.35065 15.1366C3.35065 14.5135 3.34451 13.9185 3.35065 13.3236C3.36294 12.5627 3.27694 12.4187 2.58593 12.1056C-0.0982723 10.875 -0.823069 7.78452 1.03192 5.47369C1.76593 4.55938 1.9072 2.99064 1.32368 1.973C1.23462 1.81644 1.08106 1.6724 0.924427 1.58473C0.119781 1.14949 0.0552861 1.01798 0.297909 0.0253906C6.0625 0.0253906 11.8394 0.0253906 17.6162 0.0253906C17.9234 0.682944 17.8374 1.14949 17.2661 1.51271C16.7747 1.82583 16.3878 2.20158 16.3171 2.79964C16.2189 3.61062 16.1421 4.43413 16.6519 5.16057C16.7625 5.31713 16.8822 5.46743 16.9989 5.61772C18.6482 7.73442 18.123 10.6245 15.7705 11.8645C14.8737 12.3373 14.5082 12.9009 14.6526 13.8872C14.7048 14.2411 14.6618 14.6074 14.6618 15.027H13.2183C13.1999 15.2869 13.1723 15.4904 13.1723 15.6939C13.16 18.0549 13.1569 20.4158 13.1446 22.7767C13.1446 23.0773 13.1446 23.381 13.0893 23.6723C13.0187 24.0543 12.8252 24.1858 12.472 24.1701C12.1188 24.1545 11.9254 23.9948 11.8701 23.6378C11.8394 23.428 11.8424 23.2088 11.8424 22.9959C11.8424 20.9794 11.8424 18.9598 11.8363 16.9433C11.8363 16.5582 11.8087 16.1699 11.7564 15.7879C11.692 15.3057 11.5722 15.1867 11.1146 15.1522C10.7215 15.1209 10.3222 15.146 9.87689 15.146C9.81854 15.4935 9.76633 15.7816 9.72026 16.0728C9.64655 16.5707 9.46228 16.84 9.18588 16.8431C8.93097 16.8431 8.64535 16.5456 8.54707 16.1323C8.51022 15.9726 8.56243 15.791 8.52558 15.6313C8.48565 15.4591 8.41808 15.1836 8.31059 15.1554C7.82842 15.0333 7.31553 14.9268 6.85793 15.2368C6.5416 15.4497 6.42797 15.7628 6.43104 16.173C6.44946 18.7688 6.44025 21.3677 6.44025 23.9635C6.44025 27.6771 6.44025 31.3875 6.44025 35.1012C6.44025 35.4174 6.44025 35.7337 6.44025 36.1094H6.43718ZM13.2153 13.7275C13.246 13.5334 13.2675 13.4301 13.2767 13.3236C13.3412 12.6379 13.2767 12.522 12.6747 12.2183C12.469 12.115 12.2509 12.0273 12.0513 11.9114C10.6877 11.1005 9.95367 9.91374 9.95674 8.27925C9.95674 7.21777 10.356 6.32224 11.0132 5.52692C11.2343 5.26077 11.5108 5.02906 11.6612 4.65644H6.27748C6.5846 5.04784 6.83336 5.35157 7.06984 5.66782C8.44573 7.50271 8.27374 9.97636 6.62452 11.4136C6.21913 11.7674 5.69396 11.9803 5.21178 12.2308C4.78489 12.45 4.61597 12.7663 4.70811 13.2798C4.78182 13.6962 4.93538 13.8027 5.49126 13.8246C5.55575 13.8246 5.61718 13.8246 5.68167 13.8246C7.82842 13.8246 9.97517 13.8277 12.1188 13.8215C12.472 13.8215 12.8252 13.7651 13.2183 13.7338L13.2153 13.7275ZM2.72106 3.28498C2.96676 3.28498 3.1541 3.28498 3.33837 3.28498C7.01456 3.28498 10.6877 3.28498 14.3639 3.28498C14.4683 3.28498 14.5758 3.29124 14.6802 3.28184C15.1071 3.2474 15.2852 3.09397 15.3774 2.67752C15.4941 2.16714 15.2484 1.66927 14.7539 1.49393C14.5205 1.41251 14.2625 1.38746 14.0138 1.38746C10.6324 1.3812 7.25104 1.3812 3.86968 1.38746C3.495 1.38746 3.12339 1.45009 2.72106 1.48766V3.28498ZM13.9646 5.59267C12.5089 5.59267 11.2528 6.86081 11.2497 8.32622C11.2497 9.79475 12.4475 11.0034 13.9155 11.0097C15.3528 11.0159 16.6642 9.71334 16.6519 8.28864C16.6396 6.8702 15.362 5.58641 13.9615 5.58954L13.9646 5.59267ZM1.35439 8.29177C1.35132 9.82606 2.52451 11.0159 4.03859 11.0097C5.47283 11.0034 6.69209 9.76657 6.70437 8.30117C6.71666 6.85142 5.4974 5.6052 4.05088 5.58954C2.53679 5.57389 1.35746 6.75435 1.35439 8.29177ZM13.4118 37.6218C13.203 37.5967 13.1016 37.5748 13.0003 37.5748C10.5618 37.5748 8.12325 37.5717 5.68781 37.5748C5.46055 37.5748 5.21485 37.5967 5.00908 37.6813C4.85553 37.7439 4.66819 37.9067 4.6344 38.057C4.51156 38.605 4.6344 39.1341 4.7941 39.6477C4.97223 39.6571 5.07665 39.6696 5.18107 39.6696C7.47216 39.6696 9.76326 39.6696 12.0544 39.6696C12.3062 39.6696 12.558 39.6539 12.8099 39.6195C13.2214 39.5631 13.378 39.4285 13.4087 39.012C13.4425 38.5674 13.418 38.1196 13.418 37.6186L13.4118 37.6218Z" fill="#FFEB61"/>
<path d="M24.9318 29.202C26.5011 29.0924 27.9169 28.9922 29.3942 28.8857V34.8413C25.3341 34.8945 21.2648 34.9446 17.1494 34.9979C17.1218 34.7849 17.088 34.6221 17.0849 34.4593C17.0665 33.0221 17.0696 31.5848 17.0327 30.1476C17.0235 29.7938 17.2047 29.6028 17.4228 29.3961C19.0566 27.818 20.669 26.2148 22.3305 24.668C22.8342 24.2015 23 23.7286 22.7973 23.0241C21.0437 23.1212 19.2716 23.2214 17.4289 23.3247C17.3736 21.3333 17.3214 19.3919 17.2661 17.4067C17.4842 17.3848 17.647 17.3535 17.8067 17.3535C20.7089 17.3629 23.6112 17.3817 26.5134 17.3848C26.8359 17.3848 27.0632 17.5038 27.2904 17.7199C28.3868 18.7688 28.3838 18.7657 28.5189 20.2843C28.6571 21.8217 28.7892 23.3592 28.9642 24.8935C29.0072 25.2661 28.9181 25.4884 28.6571 25.7232C27.6006 26.6751 26.5595 27.6458 25.5184 28.6102C25.3556 28.7605 25.202 28.9265 24.9318 29.1989V29.202ZM22.4318 30.3574C22.4165 30.3198 22.4011 30.2823 22.3888 30.2447C22.5301 30.1007 22.6622 29.9472 22.8096 29.8094C24.4158 28.3253 26.022 26.8442 27.6283 25.3631C27.8494 25.1596 28.0429 24.9874 28.0029 24.6148C27.8187 22.974 27.6713 21.3301 27.5085 19.6894C27.4409 19.0037 26.7499 18.3618 26.0742 18.3586C23.6542 18.3492 21.2371 18.343 18.8171 18.3398C18.6359 18.3398 18.4516 18.3649 18.3318 18.3712V22.3071C20.1715 22.2038 21.9251 22.1036 23.7494 22.0002C23.7862 22.6609 23.8016 23.2778 23.8599 23.8883C23.8999 24.3079 23.7739 24.6023 23.4668 24.8935C21.7623 26.5186 20.0793 28.1718 18.381 29.8032C18.1168 30.0568 17.9786 30.3136 17.9909 30.6924C18.0247 31.7007 18.0247 32.7089 18.0431 33.7172C18.0431 33.8174 18.0892 33.9145 18.1107 34.0084C21.5811 33.974 25.0239 33.9395 28.4728 33.9051V29.9222C26.4244 30.0693 24.4281 30.2134 22.4318 30.3574Z" fill="#FFEB61"/>
<path d="M37.3024 26.1426H36.421V24.458H37.3024V26.1426Z" fill="#FFEB61"/>
<path d="M36.4241 21.4736H37.2748C37.2994 21.5832 37.3332 21.6615 37.3332 21.7429C37.3393 22.1907 37.3332 22.6384 37.3332 23.1645C37.026 23.1833 36.7496 23.1989 36.421 23.2177V21.4736H36.4241Z" fill="#FFEB61"/>
<path d="M37.3147 30.2383V31.8822H36.4057V30.2383H37.3147Z" fill="#FFEB61"/>
<path d="M9.56057 31.4842H8.66379V29.8184H9.56057V31.4842Z" fill="#FFEB61"/>
<path d="M8.67297 24.0381H9.54212V25.7008H8.67297V24.0381Z" fill="#FFEB61"/>
<path d="M8.66071 21.0791H9.55442V22.7261H8.66071V21.0791Z" fill="#FFEB61"/>
<path d="M37.3086 18.8438V20.0837C37.026 20.0994 36.7527 20.1119 36.4272 20.1275V18.8438H37.3086Z" fill="#FFEB61"/>
<path d="M8.67297 18.4053H9.54826V19.6484H8.67297V18.4053Z" fill="#FFEB61"/>
<path d="M8.66379 27.1543H9.53293V28.3661H8.66379V27.1543Z" fill="#FFEB61"/>
<path d="M36.4241 27.5605H37.2963V28.7911H36.4241V27.5605Z" fill="#FFEB61"/>
</g>
<defs>
<clipPath id="clip0_357_1284">
<rect width="46" height="41" fill="white"/>
</clipPath>
</defs>
</svg>
