<svg width="47" height="33" viewBox="0 0 47 33" fill="none" xmlns="http://www.w3.org/2000/svg">
<path d="M13.4111 5.90804C13.9345 6.08733 14.4286 6.20318 14.8799 6.42108C15.9854 6.95067 17.1284 7.43613 18.1539 8.10639C19.3769 8.90353 20.6507 9.0111 21.9913 8.77113C24.571 8.30774 26.6619 6.96722 28.3203 4.88196C28.8036 4.27514 29.2816 3.65729 29.8211 3.10564C30.6756 2.23126 31.5435 2.15955 32.561 2.81602C32.9028 3.03668 33.2339 3.27665 33.5517 3.53317C33.736 3.68211 33.9015 3.72625 34.1339 3.66557C36.2008 3.14149 38.2624 2.58984 40.3427 2.12645C41.7874 1.80649 43.2588 1.59134 44.7516 1.72374C44.8397 1.73201 44.9305 1.73477 45.0186 1.75408C46.7838 2.10162 47.3766 3.15528 46.7651 4.90679C46.3031 6.23352 45.494 7.3451 44.6367 8.42083C43.0371 10.4289 41.2426 12.241 39.4027 14.0091C39.2371 14.1663 39.189 14.3042 39.2104 14.5442C39.7418 20.3559 37.8885 25.1967 33.6185 29.0196C31.4287 30.9808 28.8704 32.1999 26.0237 32.7461C23.3826 33.2508 20.8003 33.0302 18.3061 31.9489C18.1619 31.8855 18.0203 31.8165 17.8841 31.7338C17.4115 31.4414 17.3794 30.807 17.8334 30.4815C18.5464 29.9657 19.2621 29.4499 19.9938 28.9617C20.8216 28.4128 21.7136 28.0184 22.6963 27.8694C23.89 27.6874 24.9822 28.0239 26.0477 28.5342C26.9103 28.9479 27.674 29.5106 28.387 30.1505C28.5419 30.2884 28.6754 30.3243 28.8704 30.2415C30.7691 29.4389 32.3981 28.2363 33.8027 26.6999C33.8401 26.6585 33.8721 26.6089 33.9015 26.5592C33.9095 26.5427 33.9015 26.5179 33.9015 26.4903C33.3487 26.6199 32.804 26.7882 32.2458 26.8709C29.3991 27.2985 27.0064 26.3827 25.0703 24.2009C24.8834 23.9913 24.7499 23.9692 24.5042 24.0713C22.0073 25.1029 19.5104 26.1317 17.0029 27.1357C16.2632 27.4336 15.4941 27.6543 14.7383 27.9108C14.6769 27.9329 14.6208 27.9632 14.4793 28.0266C14.9493 28.3907 15.3712 28.7217 15.7985 29.0472C15.916 29.1355 16.0495 29.2044 16.1644 29.2955C16.4848 29.5547 16.5569 29.9492 16.3566 30.3188C16.175 30.6525 15.7771 30.8235 15.4327 30.6112C14.8665 30.2664 14.3324 29.8609 13.801 29.4554C13.5233 29.243 13.2883 28.97 13.0106 28.7548C12.9064 28.6748 12.7168 28.628 12.5966 28.6666C10.2974 29.381 7.98209 30.0236 5.60271 30.3767C4.3022 30.5698 2.98834 30.7353 1.69317 30.4043C1.26589 30.294 0.822598 30.0595 0.496803 29.7561C-0.0720039 29.2265 -0.0826857 28.4818 0.136292 27.7839C0.309871 27.2295 0.571576 26.6916 0.873337 26.1979C1.96555 24.4161 3.38089 22.9073 4.80425 21.4123C5.69084 20.48 6.61749 19.5863 7.50675 18.6568C7.61624 18.5409 7.66964 18.3065 7.65629 18.1327C7.55481 16.7977 7.60021 15.4682 7.80851 14.1498C8.61766 9.05523 11.0531 5.05574 15.3579 2.3609C17.9669 0.725245 20.8216 -0.0608638 23.8793 0.00257651C25.5831 0.0384341 27.2414 0.383218 28.833 1.02314C29.7917 1.40654 29.9359 1.98853 29.1962 2.70293C27.7782 4.07379 26.1732 5.10263 24.1731 5.27088C22.3785 5.42259 20.827 4.78542 19.4357 3.66557C19.0912 3.38974 18.76 3.09184 18.4316 2.79395C18.2794 2.65604 18.1458 2.61742 17.9482 2.70569C16.3139 3.43387 14.8478 4.41582 13.574 5.70117C13.526 5.74806 13.4912 5.80599 13.4138 5.90804H13.4111ZM20.4798 10.5033C20.4878 10.5723 20.4825 10.6412 20.5038 10.7019C20.9578 11.9873 21.1715 13.3168 21.2195 14.6794C21.2836 16.555 21.0913 18.3754 20.2582 20.0856C18.6639 23.3541 14.9066 23.9444 12.4871 21.2661C11.1573 19.7932 10.527 18.0114 10.5911 16.0006C10.6419 14.3815 11.3148 13.0989 12.6661 12.2052C14.725 10.8426 16.8694 12.2466 17.4275 13.7443C17.9536 15.1565 17.804 16.555 16.9949 17.8265C16.3753 18.8002 15.3445 19.0347 14.4099 18.4168C13.5767 17.8652 13.1013 17.0377 12.9251 16.0337C12.8663 15.6972 13.0159 15.4517 13.3016 15.2917C13.8384 14.9938 14.4045 15.2889 14.4953 15.9399C14.5621 16.4171 14.7597 16.7922 15.1442 17.0653C15.3979 17.2446 15.6116 17.2032 15.7665 16.9301C16.2098 16.155 16.37 15.3331 16.0736 14.467C15.7985 13.6588 14.9707 13.1485 14.1482 13.2975C13.2269 13.463 12.6153 14.0505 12.3056 14.9359C11.6032 16.9329 12.6767 19.8732 14.4633 20.9241C15.7424 21.6743 17.0029 21.5475 18.0257 20.5572C18.5598 20.0414 18.9363 19.4126 19.1793 18.7037C20.0899 16.0337 19.927 13.3995 18.8882 10.8067C18.7921 10.5668 18.5971 10.3378 18.3942 10.1779C16.6183 8.78768 14.6262 7.86642 12.4711 7.30097C12.2602 7.24581 12.148 7.3258 12.0519 7.48026C11.5979 8.20844 11.0932 8.9118 10.706 9.6786C9.45084 12.1776 8.99152 14.8476 9.18913 17.65C9.43214 21.0675 10.7353 24.0134 12.8717 26.5979C12.9972 26.7496 13.1174 26.7965 13.3096 26.733C14.0013 26.4958 14.709 26.3055 15.3899 26.0434C17.8654 25.0863 20.3356 24.1127 22.8031 23.1335C23.2037 22.9735 23.5882 22.7694 23.9594 22.5956C23.7565 22.0274 23.5508 21.5254 23.396 21.0068C22.6749 18.6016 22.6108 16.1964 23.4894 13.8188C23.9274 12.6327 24.6778 11.6701 25.7219 10.9805C27.5298 9.78893 29.3163 10.0399 31.0361 11.1626C32.561 12.1583 33.5704 13.6533 34.489 15.22C35.2341 16.4888 35.7067 17.8238 35.5759 19.3326C35.4744 20.5214 34.9831 21.4895 33.987 22.1267C32.4087 23.1362 30.8145 23.0314 29.2389 22.1184C29.0146 21.9888 28.849 21.975 28.6274 22.0826C27.9277 22.4246 27.22 22.7446 26.5177 23.0783C26.4429 23.1142 26.3788 23.1748 26.2854 23.2383C27.0652 24.1016 27.9411 24.7498 29.0066 25.0808C31.2578 25.7842 33.3461 25.2711 35.3409 24.132C35.6587 23.9499 35.9231 23.7265 36.1073 23.3817C37.3891 20.9875 37.9259 18.4196 37.8271 15.6972C37.8271 15.6337 37.8004 15.573 37.7737 15.4544C37.5894 15.6006 37.4506 15.7303 37.293 15.8296C37.1354 15.9261 36.9592 16.0475 36.7883 16.053C36.5212 16.064 36.3023 15.9261 36.1874 15.6392C36.0806 15.3634 36.0833 15.1124 36.2862 14.9C36.6494 14.5221 37.0366 14.1691 37.3918 13.7857C37.4826 13.6864 37.5627 13.4961 37.5387 13.3747C36.8818 10.2992 35.5225 7.61817 33.2873 5.44741C32.7906 4.96747 32.2325 4.55373 31.6931 4.12068C31.442 3.91933 31.1883 3.89726 30.9533 4.1786C30.4379 4.78818 29.9012 5.37845 29.3911 5.99355C27.4711 8.31602 25.0757 9.79169 22.1542 10.3213C21.6067 10.4206 21.0433 10.4371 20.4718 10.4923L20.4798 10.5033ZM38.8606 12.3155C38.9914 12.2107 39.0822 12.15 39.1596 12.0755C40.7646 10.5392 42.2921 8.9256 43.6647 7.16582C44.3056 6.34661 44.9278 5.50809 45.315 4.51787C45.6435 3.67936 45.4085 3.30423 44.5299 3.227C44.4178 3.21872 44.3056 3.20493 44.1935 3.21321C43.5445 3.25182 42.8849 3.227 42.252 3.35112C40.2625 3.74831 38.2837 4.20067 36.3049 4.64199C35.8857 4.73578 35.4744 4.87369 34.9831 5.01436C36.9004 7.13272 38.1128 9.56551 38.8606 12.3155ZM7.96072 20.4193C7.92334 20.4497 7.85658 20.491 7.80317 20.5462C6.05669 22.2646 4.35027 24.0216 2.84947 25.9745C2.39283 26.5675 2.00828 27.2323 1.67714 27.908C1.34868 28.5755 1.53027 28.9065 2.25129 28.9645C3.01771 29.0251 3.79749 29.0196 4.56123 28.9424C6.49464 28.7493 8.37731 28.2639 10.2493 27.7453C10.6552 27.6322 11.0585 27.5136 11.4003 27.4171C10.714 26.2807 9.96891 25.216 9.4001 24.0575C8.83129 22.9018 8.43874 21.6523 7.95805 20.4193H7.96072ZM32.2111 17.9065C32.6598 17.6169 33.039 17.3549 33.4342 17.1204C33.6612 16.988 33.6585 16.8501 33.5357 16.646C33.1431 15.9978 32.7933 15.322 32.366 14.7014C31.6557 13.6643 30.8492 12.721 29.7089 12.1528C28.2562 11.4274 26.9129 11.6673 25.8474 12.9113C25.4896 13.3306 25.1638 13.816 24.9608 14.3291C23.9728 16.817 24.2932 19.2691 25.2546 21.6854C25.3481 21.9198 25.4869 21.8785 25.6578 21.7929C26.2827 21.4813 26.9129 21.1779 27.5378 20.8634C28.0586 20.6014 27.9998 20.72 27.8716 20.1297C27.6126 18.9492 27.6179 17.7797 28.2135 16.6901C28.6861 15.8268 29.5834 15.3965 30.486 15.562C31.2738 15.7082 31.9467 16.4612 32.115 17.3935C32.1417 17.5369 32.1684 17.6831 32.2111 17.9093V17.9065ZM27.4203 2.11541C24.9128 1.38999 22.4586 1.33482 19.9591 2.05749C21.58 4.16205 25.7967 4.20067 27.4203 2.11541ZM26.8595 30.9366C26.0878 29.9961 23.9514 29.1879 22.8085 29.392C21.7269 29.5851 20.819 30.1229 19.9671 30.9311C22.3224 31.5986 24.5763 31.64 26.8595 30.9366ZM34.1178 18.4885C32.86 19.3601 31.6824 20.1766 30.5047 20.9903C30.5234 21.0289 30.5421 21.0675 30.5581 21.1061C31.4848 21.3847 32.3981 21.4316 33.2366 20.8055C33.971 20.2538 34.1365 19.4512 34.1178 18.4858V18.4885ZM29.3564 19.8015C29.8237 19.5146 30.219 19.2802 30.6062 19.0292C30.6729 18.985 30.7504 18.883 30.745 18.8113C30.721 18.3782 30.737 17.9258 30.6222 17.5176C30.4593 16.9411 29.9412 16.8805 29.5914 17.3714C29.0733 18.1024 29.1802 18.905 29.3564 19.8015Z" fill="#FFEB61"/>
</svg>
