<svg width="41" height="41" viewBox="0 0 41 41" fill="none" xmlns="http://www.w3.org/2000/svg">
<path d="M21.3812 0C21.9041 0.0561239 22.424 0.118156 22.9468 0.168372C24.5457 0.324928 26.0479 0.824135 27.5319 1.39128C29.7142 2.22428 31.7513 3.28768 33.5225 4.81484C37.213 7.99618 39.5917 11.9189 40.583 16.6363C40.8732 18.0187 41.0364 19.4159 40.9941 20.822C40.8279 26.3812 38.9902 31.2994 34.928 35.2872C32.0082 38.1525 28.4508 39.8982 24.3855 40.6308C19.8639 41.446 15.5055 40.9262 11.3707 38.9411C6.57404 36.6371 3.34603 32.93 1.44186 28.0885C0.402129 25.4566 -0.120761 22.7302 0.0243183 19.9033C0.254027 15.44 1.81363 11.4493 4.61245 7.92824C7.106 4.78826 10.2464 2.48718 14.0819 1.11952C15.7715 0.519885 17.5154 0.153602 19.3138 0.0590778C19.4226 0.05317 19.5314 0.0206772 19.6402 0C20.2206 0 20.8009 0 21.3812 0ZM33.7432 34.7821C33.4137 34.5162 33.1205 34.2829 32.8304 34.0436C29.8683 31.6391 26.9093 29.2317 23.9443 26.8302C23.3972 26.3871 23.3398 26.0415 23.7448 25.4803C24.6394 24.2396 25.525 22.996 26.4287 21.7643C26.6433 21.4689 26.6675 21.2296 26.4559 20.9165C25.2802 19.1796 24.1256 17.4309 22.9529 15.6911C22.6234 15.2037 22.5872 14.7311 22.8743 14.2141C24.7785 10.7669 26.6313 7.29315 28.3601 3.7603C28.4357 3.6067 28.5022 3.44719 28.5868 3.29654C28.7137 3.075 28.6291 2.95389 28.4175 2.8446C27.9883 2.6201 27.5743 2.68804 27.1693 2.87414C23.6843 4.4781 20.1994 6.08206 16.7175 7.69784C16.2279 7.92529 15.7533 8.16455 15.1881 7.94892C15.1458 8.25908 15.1126 8.53084 15.0702 8.79964C14.8133 10.4361 14.5413 12.0696 14.3025 13.709C14.2088 14.3559 14.0124 14.8669 13.2477 14.9526C13.0512 14.9733 12.9938 15.0826 13.0331 15.2952C13.3021 16.7338 13.5348 18.1812 13.8159 19.6168C14.7529 24.4139 15.8531 29.1785 16.5513 34.017C16.7447 35.361 16.9533 35.2576 15.6596 36.1999C14.7257 36.8793 13.8189 37.5971 12.8517 38.3385C16.7115 39.9425 20.6226 40.3147 24.6485 39.4669C28.1062 38.7373 31.1378 37.1954 33.7492 34.7821H33.7432ZM1.31794 20.9519C1.3663 21.463 1.3935 22.4791 1.56881 23.4716C1.78643 24.6916 2.1189 25.8909 2.42115 27.096C2.5088 27.4416 2.57832 27.4505 2.8987 27.2733C4.71521 26.266 6.57706 25.3444 8.48123 24.5055C8.97087 24.2898 9.45145 24.0535 9.95016 23.8645C10.2585 23.7493 10.5486 23.8792 10.6756 24.1097C10.8085 24.3519 10.7693 24.6443 10.5214 24.8511C10.328 25.0135 10.0983 25.1406 9.87157 25.2528C7.74979 26.3162 5.62196 27.3767 3.49715 28.4371C3.12539 28.6232 3.07098 28.7561 3.27349 29.1076C3.76313 29.9495 4.22859 30.812 4.77869 31.6155C6.45919 34.0672 8.59609 36.0463 11.2498 37.476C11.5188 37.6208 11.7334 37.6355 11.9843 37.4435C13.0663 36.6135 14.1635 35.7982 15.2456 34.9682C15.4873 34.7821 15.569 34.5369 15.5055 34.2149C14.9101 31.264 14.3176 28.316 13.7494 25.3591C13.1268 22.1158 12.5314 18.8695 11.9208 15.6231C11.8271 15.118 11.7788 15.0767 11.2438 15.121C10.068 15.2184 8.89531 15.3307 7.72259 15.437C5.96048 15.5936 4.20139 15.7531 2.43928 15.9037C1.96173 15.9451 1.84688 16.0249 1.74713 16.4827C1.46302 17.7913 1.33305 19.1176 1.31794 20.9519ZM33.6283 6.91506C33.6132 6.53105 33.4318 6.23566 33.1447 6.02298C32.2652 5.37017 31.3826 4.71441 30.4789 4.09114C29.8411 3.65101 29.829 3.67759 29.4754 4.34813C28.1848 6.79986 26.8942 9.24863 25.6006 11.6974C25.1412 12.5658 24.6757 13.4343 24.2072 14.2998C23.9956 14.6867 24.0138 15.0442 24.2858 15.4016C24.4823 15.6615 24.6455 15.9451 24.8238 16.2169C25.7729 17.6524 26.7189 19.0851 27.668 20.5207C28.0367 21.079 28.0609 21.6107 27.6468 22.1749C26.8035 23.3239 25.9875 24.4937 25.1653 25.6604C24.8963 26.0385 24.9054 26.0474 25.2651 26.3457C27.0574 27.8138 28.8498 29.2819 30.6391 30.753C31.8178 31.7218 32.9906 32.7025 34.1693 33.6743C34.523 33.9638 34.5622 33.9697 34.8312 33.6241C35.4116 32.8857 36.0161 32.1649 36.5329 31.388C38.3766 28.6291 39.365 25.5748 39.7156 22.3078C39.7579 21.9031 39.6461 21.5664 39.362 21.2857C38.9569 20.8811 38.5489 20.4793 38.1258 20.0924C36.2035 18.3259 34.2781 16.5625 32.3468 14.8079C31.9055 14.4061 31.7785 13.9542 31.9357 13.3841C32.3558 11.8658 32.7578 10.3416 33.1598 8.82032C33.3261 8.18523 33.4742 7.54424 33.6253 6.91801L33.6283 6.91506ZM2.17633 14.6306C2.20957 14.6543 2.24282 14.6779 2.27909 14.7015C3.04076 14.6572 3.80545 14.6306 4.56711 14.5656C7.30548 14.3323 10.0439 14.0841 12.7822 13.8449C13.0603 13.8213 13.2114 13.7001 13.2386 13.4195C13.2719 13.0887 13.3172 12.7579 13.3686 12.427C13.6285 10.7906 13.8885 9.15706 14.1575 7.52356C14.23 7.08343 14.2602 6.65807 13.9822 6.27111C13.3686 5.40857 12.758 4.54604 12.1324 3.68941C11.8966 3.36448 11.8483 3.37039 11.5007 3.57125C8.08226 5.53264 5.40132 8.19409 3.56365 11.6354C3.0468 12.6042 2.63272 13.6292 2.17331 14.6306H2.17633ZM26.1295 2.07363C23.3791 1.22882 20.6286 1.06931 17.8388 1.46513C16.1735 1.70144 14.5625 2.13566 13.024 2.8121C13.0452 2.88595 13.0482 2.9214 13.0633 2.94503C13.8945 4.12659 14.7287 5.30814 15.5569 6.49265C15.7382 6.75259 15.9286 6.7585 16.2097 6.62558C18.2922 5.63602 20.3747 4.65533 22.4693 3.68941C23.6632 3.13999 24.8722 2.62601 26.1295 2.07659V2.07363ZM39.6189 20.0185C39.6551 19.9919 39.6944 19.9624 39.7307 19.9358C39.507 15.3071 37.8447 11.2248 34.7648 7.61808C34.4746 8.7701 34.1965 9.85418 33.9275 10.9383C33.7099 11.8215 33.4983 12.7047 33.2928 13.5879C33.2384 13.8213 33.3109 14.0221 33.4983 14.1846C33.8761 14.5154 34.2479 14.8522 34.6227 15.186C36.2911 16.657 37.9535 18.131 39.4526 19.7704C39.5191 19.8442 39.5614 19.9358 39.6158 20.0185H39.6189Z" fill="#FFEB61"/>
<path d="M15.9556 22.1719C15.9556 20.2991 17.4306 18.8251 19.2985 18.8281C21.2299 18.8281 22.7895 20.3287 22.7985 22.1955C22.8076 24.0063 21.1815 25.5068 19.226 25.4891C17.4034 25.4743 15.9526 24.0033 15.9526 22.1719H15.9556ZM21.3236 22.1778C21.3236 21.1351 20.438 20.2519 19.3831 20.2401C18.295 20.2282 17.343 21.1558 17.3581 22.2073C17.3702 23.2264 18.2739 24.1037 19.3106 24.1097C20.4017 24.1126 21.3236 23.2294 21.3266 22.1778H21.3236Z" fill="#FFEB61"/>
<path d="M19.4496 13.9837C18.0291 14.0044 16.7505 12.7608 16.7264 11.3282C16.6961 9.71239 17.8296 8.53674 19.4375 8.51016C20.973 8.48357 22.2817 9.72125 22.2938 11.2041C22.3059 12.7283 21.0485 13.9601 19.4496 13.9808V13.9837ZM20.8853 11.2839C20.9034 10.5543 20.2717 9.92803 19.4919 9.89849C18.7665 9.8719 18.1167 10.4745 18.0865 11.2012C18.0593 11.8776 18.7696 12.5924 19.4859 12.6102C20.175 12.6279 20.8672 11.9721 20.8853 11.2839Z" fill="#FFEB61"/>
<path d="M19.1867 36.8616C19.2894 36.8616 19.3922 36.8586 19.498 36.8616C19.8577 36.8734 20.0571 37.0152 20.1478 37.3135C20.2385 37.6148 20.1206 37.928 19.8456 38.1052C19.1685 38.5453 17.7601 38.4981 17.1253 38.0107C16.7808 37.7478 16.8442 37.1806 17.2493 37.0034C17.3581 36.9561 17.488 36.9295 17.6089 36.9266C18.1348 36.9177 18.6608 36.9236 19.1867 36.9236C19.1867 36.903 19.1867 36.8793 19.1867 36.8586V36.8616Z" fill="#FFEB61"/>
<path d="M31.0741 35.1454C31.0741 35.5708 30.7326 35.9282 30.3064 35.94C29.8832 35.9518 29.5236 35.5826 29.5205 35.1336C29.5205 34.6875 29.8379 34.3774 30.3004 34.3774C30.7447 34.3774 31.0711 34.6994 31.0711 35.1454H31.0741Z" fill="#FFEB61"/>
<path d="M11.2073 32.4249C9.99832 32.4219 9.0281 31.4235 9.03112 30.1917C9.03415 28.9629 10.0437 27.9438 11.2496 27.9497C12.4798 27.9556 13.4802 28.9688 13.4802 30.2153C13.4802 31.4383 12.4616 32.4308 11.2073 32.4249ZM12.0143 30.1769C12.0173 29.7427 11.7121 29.4503 11.2527 29.4503C10.8174 29.4503 10.4728 29.7693 10.4608 30.1769C10.4517 30.5816 10.7993 30.9213 11.2254 30.9272C11.6849 30.9331 12.0113 30.623 12.0143 30.1769Z" fill="#FFEB61"/>
<path d="M3.19471 20.1189C3.22795 19.794 3.22493 19.4159 3.30956 19.0555C3.40628 18.6361 4.07123 18.3909 4.42486 18.645C4.56389 18.7454 4.65457 18.9817 4.66666 19.1619C4.70595 19.6936 4.65457 20.2371 4.72106 20.7629C4.80569 21.4423 4.95379 22.1128 5.10794 22.7804C5.23488 23.3239 5.14119 23.6075 4.70293 23.7759C4.31907 23.9206 3.88383 23.7375 3.72666 23.2619C3.53625 22.6888 3.41535 22.0921 3.31258 21.4984C3.23702 21.0612 3.234 20.6152 3.19773 20.1219L3.19471 20.1189Z" fill="#FFEB61"/>
<path d="M11.1287 34.8943C11.1287 34.4571 11.4552 34.1322 11.9085 34.1322C12.3468 34.1322 12.6762 34.463 12.6793 34.9061C12.6793 35.3403 12.3166 35.7037 11.8813 35.6978C11.4672 35.6919 11.1318 35.3344 11.1287 34.8943Z" fill="#FFEB61"/>
<path d="M9.26385 17.4604C9.2699 17.0203 9.60237 16.7102 10.0588 16.7161C10.497 16.722 10.8204 17.0587 10.8144 17.5048C10.8114 17.9301 10.4577 18.2728 10.0285 18.2757C9.59028 18.2757 9.25781 17.9213 9.26385 17.4604Z" fill="#FFEB61"/>
<path d="M33.3289 30.2567C31.3764 30.2567 29.7775 28.6911 29.7775 26.777C29.7775 24.8274 31.3582 23.2619 33.3259 23.2648C35.2844 23.2648 36.8501 24.8009 36.8501 26.7209C36.8501 28.6793 35.2814 30.2537 33.3289 30.2567ZM35.4265 26.7386C35.4325 25.622 34.4593 24.6709 33.3107 24.6709C32.1531 24.6709 31.198 25.6191 31.198 26.777C31.198 27.867 32.1652 28.8418 33.2533 28.8477C34.3988 28.8536 35.4204 27.867 35.4265 26.7416V26.7386Z" fill="#FFEB61"/>
<path d="M32.0866 10.1909C32.0836 11.4434 31.056 12.5038 29.853 12.492C28.5987 12.4802 27.5922 11.4345 27.5952 10.1466C27.6013 8.93552 28.5745 8.01981 29.856 8.01981C31.0953 8.01981 32.0897 8.98869 32.0866 10.188V10.1909ZM29.8591 9.4554C29.4148 9.4554 29.0339 9.82168 29.043 10.2382C29.0521 10.6222 29.4208 10.9885 29.7986 10.9885C30.1946 10.9885 30.6389 10.569 30.6419 10.1968C30.6449 9.79805 30.2822 9.4554 29.8621 9.4554H29.8591Z" fill="#FFEB61"/>
<path d="M30.4605 21.0701C29.2213 21.0701 28.2813 20.0983 28.2844 18.8251C28.2844 17.6052 29.2757 16.6009 30.4757 16.5979C31.7179 16.5979 32.7123 17.614 32.7062 18.8842C32.7002 20.113 31.7149 21.0731 30.4575 21.0701H30.4605ZM30.4847 19.5843C30.923 19.5784 31.2706 19.2328 31.2675 18.8074C31.2645 18.3939 30.92 18.0867 30.4726 18.0955C30.0434 18.1044 29.7019 18.4382 29.7049 18.8458C29.7049 19.2505 30.0676 19.5902 30.4877 19.5843H30.4847Z" fill="#FFEB61"/>
<path d="M8.89511 7.367C8.89511 6.11751 9.85626 5.17522 11.1318 5.17817C12.3649 5.18112 13.3533 6.15295 13.3563 7.36405C13.3563 8.58105 12.3468 9.58833 11.1257 9.58833C9.9016 9.58833 8.89813 8.58991 8.89813 7.367H8.89511ZM11.0864 8.09366C11.5247 8.09366 11.9267 7.73329 11.9327 7.33156C11.9388 6.96823 11.564 6.61967 11.159 6.61376C10.7237 6.60785 10.3096 6.983 10.3187 7.37586C10.3247 7.75987 10.6814 8.09071 11.0864 8.09366Z" fill="#FFEB61"/>
<path d="M4.68177 13.3102C4.14679 13.3161 3.772 12.7342 4.07123 12.2705C4.59714 11.4611 5.16537 10.6783 5.75173 9.91326C6.0298 9.55288 6.39854 9.26045 6.71288 8.9237C6.94561 8.67853 7.24181 8.62241 7.55313 8.61059C7.82213 8.59877 8.03975 8.71693 8.16972 8.94733C8.3027 9.18365 8.25737 9.417 8.11229 9.63559C8.05486 9.7183 7.98232 9.7951 7.90676 9.86009C6.8912 10.7285 6.18092 11.8421 5.39205 12.8908C5.20768 13.136 4.99913 13.3014 4.67875 13.3073L4.68177 13.3102Z" fill="#FFEB61"/>
</svg>
