<svg width="48" height="30" viewBox="0 0 48 30" fill="none" xmlns="http://www.w3.org/2000/svg">
<path d="M24.4437 0.0160114C28.0688 0.0946772 31.2108 1.44458 33.9766 3.73533C34.2212 3.93672 34.4345 3.97133 34.7261 3.91154C36.6703 3.50248 38.6145 3.08398 40.5681 2.72212C42.1486 2.42948 43.751 2.25327 45.3628 2.36969C45.8865 2.40745 46.4258 2.4987 46.9182 2.67177C47.8746 3.00531 48.2164 3.79826 47.8589 4.75169C47.4889 5.73974 46.821 6.53584 46.1154 7.29417C44.4597 9.07517 42.55 10.5604 40.5901 11.9795C40.0821 12.3477 39.5741 12.7221 39.0535 13.0714C38.856 13.2036 38.8152 13.342 38.834 13.5717C39.0943 16.6586 38.58 19.5975 37.0936 22.3288C34.9676 26.2369 31.653 28.6441 27.3726 29.5975C22.1232 30.7649 17.5042 29.3867 13.5656 25.7146C13.2865 25.4534 13.0137 25.1828 12.7471 24.9059C12.5903 24.7423 12.4273 24.7139 12.2046 24.758C10.3043 25.1199 8.40716 25.51 6.49745 25.7995C4.97344 26.0292 3.42748 26.1457 1.89093 25.8467C1.53972 25.7775 1.18537 25.6642 0.871789 25.4943C0.116056 25.0884 -0.200661 24.308 0.122328 23.5056C0.366922 22.8983 0.68364 22.3036 1.06307 21.7718C2.17315 20.2143 3.56546 18.921 5.06752 17.7536C6.26853 16.819 7.51659 15.9411 8.73329 15.0286C8.83991 14.9468 8.93398 14.7832 8.94339 14.6479C9.28206 10.101 11.0287 6.24949 14.5753 3.32627C16.9178 1.39738 19.6491 0.358994 22.6595 0.0695041C23.0734 0.0285979 23.4873 0.019158 23.9013 0.00342482C24.0831 -0.00286845 24.2619 0.0128647 24.4437 0.0160114ZM10.7245 10.6139C10.8688 10.5918 10.9848 10.5856 11.0914 10.5572C12.2611 10.2583 13.6408 10.9443 13.7726 12.4326C13.8541 13.3798 14.6412 13.921 15.5913 13.8392C16.0837 13.7951 16.6011 13.7762 17.084 13.8769C19.6585 14.4056 21.3456 15.9694 22.2205 18.4395C22.2487 18.5151 22.2863 18.5874 22.3271 18.6818C22.4462 18.6441 22.5466 18.6158 22.6438 18.578C27.7489 16.5956 32.6 14.1066 37.2536 11.2212C37.448 11.1016 37.4386 10.9883 37.379 10.8027C36.5041 8.11545 34.9801 5.86875 32.8415 4.03426C32.6815 3.89896 32.5185 3.7668 32.3052 3.59059C32.4338 4.78631 32.0795 5.77435 31.4178 6.67114C32.1547 6.9386 32.5216 7.68436 32.3711 8.5308C32.2206 9.3741 31.3865 9.99084 30.4896 9.91532C29.6994 9.84924 29.0597 9.10978 29.0471 8.26334C29.0377 7.4106 29.4924 6.87567 30.1917 6.48549C30.3548 6.39424 30.5398 6.29354 30.6433 6.1488C31.2108 5.32438 31.5025 4.41815 31.3708 3.39864C31.3394 3.14376 31.2547 2.94867 31.0164 2.83854C30.1509 2.43577 29.2823 2.03615 28.4168 1.63023C28.166 1.51066 28.0311 1.57674 27.8806 1.81589C26.7893 3.54339 24.6789 4.21362 22.8633 3.40179C22.4619 3.22243 22.1013 2.95182 21.7093 2.71582C21.3644 4.67303 20.3672 6.17083 18.492 6.95434C16.5446 7.76932 14.8387 7.19663 13.3116 5.88134C12.3175 6.92602 10.8845 9.53143 10.7245 10.6233V10.6139ZM37.9685 13.7857C37.8556 13.8486 37.7835 13.8832 37.7145 13.9273C33.0829 16.8285 28.2036 19.2325 23.1204 21.2275C22.4619 21.4855 22.4776 21.4823 22.4431 22.2092C22.4023 23.0368 22.487 23.7794 22.948 24.544C23.779 25.9222 23.1926 27.87 21.8285 28.729C21.7877 28.7542 21.725 28.7511 21.6748 28.7605C21.703 28.8014 21.7313 28.8392 21.7563 28.8801C24.1364 29.2703 26.4695 29.0689 28.7461 28.2413C30.3109 27.6718 31.7596 26.8883 33.0296 25.809C31.7628 24.1444 31.2986 22.3728 32.3868 20.5321C33.5564 18.5528 35.3344 17.9361 37.5546 18.6976C37.9372 17.0708 38.0626 15.4597 37.9654 13.7825L37.9685 13.7857ZM21.4804 19.0846C21.2483 18.2602 20.894 17.5459 20.3829 16.9229C19.1568 15.4251 17.639 14.5598 15.6384 14.736C15.3655 14.7611 15.0833 14.736 14.8136 14.6856C13.7914 14.4811 12.7691 13.5182 12.7409 12.3854C12.7221 11.7215 12.3332 11.3879 11.6716 11.4446C11.2075 11.4855 10.7528 11.668 10.2981 11.8033C10.2416 11.819 10.1914 11.9355 10.1789 12.011C9.85278 13.7983 9.75557 15.5918 10.0629 17.3917C10.3294 18.965 10.9252 20.4219 11.6496 21.8316C11.7562 22.0361 11.8503 22.1148 12.0855 22.0456C14.0705 21.454 16.0648 20.8908 18.0435 20.2803C19.1881 19.9248 20.3107 19.4937 21.4804 19.0815V19.0846ZM13.6597 24.4905C15.2966 26.2086 17.2408 27.505 19.5017 28.3231C20.3358 28.6252 21.032 28.3735 21.6215 27.7756C22.4745 26.9071 22.6093 25.6202 21.9288 24.5723C21.609 24.0815 21.471 23.5749 21.5243 23.0022C21.5525 22.7158 21.5557 22.4263 21.5651 22.14C21.5651 22.0613 21.5462 21.9858 21.54 21.9386C18.8996 22.7945 16.2843 23.6441 13.6597 24.4937V24.4905ZM38.2288 10.4691C38.3166 10.4314 38.3605 10.4219 38.3919 10.3999C39.7152 9.38354 41.0636 8.39235 42.3524 7.33508C42.873 6.91028 43.2837 6.34704 43.7134 5.8184C43.936 5.54779 43.8419 5.36843 43.4907 5.32123C43.2085 5.28347 42.92 5.26774 42.6346 5.26774C41.0511 5.27718 39.5114 5.59814 37.9685 5.91595C37.379 6.03867 36.7957 6.18027 36.1592 6.32186C37.0936 7.61198 37.7208 8.99336 38.2257 10.4691H38.2288ZM35.0115 4.71393C34.9801 4.76113 34.9456 4.80833 34.9142 4.85239C35.0428 4.94679 35.2027 5.01601 35.2937 5.13873C35.4912 5.40305 35.7013 5.45339 36.0275 5.38102C37.9968 4.93735 39.9755 4.5157 41.9918 4.35522C42.6785 4.30173 43.3778 4.2325 44.0458 4.47794C44.7231 4.72652 44.9802 5.33697 44.698 6.00405C44.6259 6.17083 44.5443 6.3376 44.4283 6.4729C44.0708 6.89455 43.7196 7.32564 43.3245 7.70953C41.9354 9.05629 40.3831 10.1985 38.7839 11.281C38.6929 11.3439 38.5863 11.4635 38.5832 11.5579C38.58 11.7372 38.6459 11.9229 38.6866 12.1305C38.787 12.0708 38.8528 12.0393 38.9093 11.9984C39.919 11.2684 40.9476 10.5635 41.9322 9.80204C43.45 8.6252 44.8924 7.36025 46.1029 5.85616C46.4572 5.41563 46.7394 4.90273 46.9903 4.38983C47.1565 4.05314 47.006 3.76994 46.6642 3.59688C46.4948 3.51192 46.3098 3.42696 46.1279 3.40494C45.5384 3.33571 44.9395 3.22243 44.3531 3.25704C43.1552 3.32627 41.9542 3.42067 40.772 3.61576C38.8434 3.93357 36.9306 4.33949 35.0115 4.71079V4.71393ZM11.8409 23.8958C11.6245 23.2728 11.4646 23.1784 10.897 23.2822C9.94685 23.4584 8.99983 23.6755 8.04027 23.7888C6.98664 23.9115 5.92673 23.965 4.86682 23.9902C4.41527 24.0028 3.9543 23.8832 3.58741 23.5717C3.09822 23.1532 2.97279 22.4987 3.3679 21.8599C3.68775 21.3407 4.08287 20.8499 4.51561 20.4156C5.76053 19.1664 7.17479 18.1217 8.61726 17.118C9.06569 16.8064 9.13467 16.5642 8.90576 16.0103C8.37267 16.4068 7.83958 16.7939 7.3159 17.1903C5.52221 18.5465 3.75361 19.9373 2.31427 21.6837C1.85644 22.2375 1.44878 22.848 1.10698 23.4805C0.749492 24.1444 0.95332 24.5912 1.67769 24.802C2.18256 24.9468 2.71879 25.0349 3.2456 25.0412C6.15565 25.0727 8.99356 24.5283 11.844 23.8927L11.8409 23.8958ZM14.0454 5.14817C15.2903 6.4257 16.9178 6.72778 18.4167 5.95685C19.8215 5.23313 20.571 4.04056 20.7748 2.48926C20.8219 2.11796 20.8407 1.74351 20.8783 1.30613C18.169 1.9449 15.9237 3.18782 14.0454 5.14817ZM10.9001 22.354C10.1444 20.8971 9.55174 19.4402 9.21307 17.848C9.02178 17.9864 8.88381 18.084 8.74583 18.1815C7.33785 19.1979 5.94241 20.2363 4.76648 21.5295C4.53129 21.7876 4.31492 22.0708 4.13304 22.3697C3.96998 22.6372 4.04524 22.8102 4.34001 22.9204C4.52815 22.9896 4.72885 23.0368 4.9264 23.0525C6.24345 23.1626 7.53541 22.9581 8.82736 22.741C9.5047 22.6277 10.1758 22.4893 10.897 22.354H10.9001ZM37.2379 19.6888C35.808 18.9053 34.1491 19.5188 33.2899 20.8247C32.4025 22.1715 32.6345 24.2797 33.801 25.1167C35.4599 23.6346 36.4916 21.753 37.2379 19.6888ZM37.771 11.989C37.6173 12.0834 37.517 12.1431 37.4166 12.2029C32.7411 15.1136 27.8367 17.5679 22.7034 19.5629C22.6156 19.5975 22.4933 19.6793 22.4839 19.7517C22.4588 19.9751 22.4839 20.2017 22.487 20.4471C22.5811 20.4219 22.6124 20.4188 22.6406 20.4062C25.7388 19.2042 28.7743 17.8637 31.6969 16.281C33.6976 15.1954 35.6606 14.0343 37.633 12.8983C37.7365 12.8385 37.8494 12.7064 37.8588 12.5994C37.8713 12.4169 37.8055 12.2281 37.7647 11.989H37.771ZM21.5462 20.0349C18.539 21.1425 15.5255 22.1683 12.4304 22.9455C12.7377 23.5906 12.8412 23.6346 13.4778 23.4742C16.0272 22.8291 18.5108 21.9795 20.9818 21.0859C21.6905 20.831 21.6936 20.8373 21.5713 20.0852C21.5713 20.0758 21.5619 20.0664 21.5462 20.038V20.0349ZM26.99 1.25893C25.974 0.900215 22.9354 0.818403 22.0104 1.12363C22.2393 2.05818 23.2804 2.7882 24.4218 2.81651C25.4974 2.84169 26.7392 2.0865 26.99 1.25893ZM30.7875 7.44521C30.3548 7.42004 30.0036 7.73785 29.9847 8.16894C29.9659 8.59059 30.2607 8.93986 30.6495 8.96189C31.076 8.98392 31.4429 8.66925 31.4743 8.2476C31.5056 7.82595 31.2014 7.47039 30.7875 7.44521Z" fill="#FFEB61"/>
<path d="M29.7465 13.9807C29.019 13.9587 28.3667 13.2507 28.3981 12.5112C28.4294 11.7277 29.0503 11.1047 29.781 11.1204C30.5399 11.1393 31.1921 11.8379 31.1545 12.5962C31.12 13.3451 30.4521 13.9996 29.7465 13.9807ZM29.7496 12.1179C29.527 12.1179 29.3765 12.2815 29.3671 12.5333C29.3608 12.7944 29.5395 13.0021 29.7841 12.9927C30.0413 12.9832 30.1636 12.8259 30.1698 12.5805C30.1792 12.3256 29.9848 12.1179 29.7496 12.1179Z" fill="#FFEB61"/>
<path d="M16.7454 10.8215C16.0524 10.9159 15.7795 11.3407 15.6541 11.9637C15.6196 11.24 15.1869 10.9159 14.544 10.7302C15.2621 10.6862 15.6039 10.3086 15.6855 9.62577C15.8109 10.2362 16.021 10.7302 16.7422 10.8215H16.7454Z" fill="#FFEB61"/>
<path d="M27.404 26.3596C27.0779 26.4445 26.7549 26.5358 26.4288 26.6113C26.2626 26.6491 26.1905 26.7246 26.156 26.9008C26.0619 27.3759 25.9365 27.8416 25.8236 28.3136C25.7797 28.3136 25.7358 28.3105 25.6919 28.3073C25.6198 27.8574 25.5288 27.4074 25.4818 26.9543C25.4567 26.7151 25.3752 26.5987 25.14 26.5389C24.8389 26.4603 24.5473 26.3375 24.2525 26.2337C24.2525 26.2022 24.2557 26.1676 24.2588 26.1362C24.5598 26.0638 24.8609 25.9631 25.1651 25.9285C25.4253 25.897 25.5257 25.7743 25.5821 25.5383C25.6605 25.2205 25.7703 24.9121 25.8675 24.6006C25.8957 24.6006 25.9239 24.6006 25.9522 24.6006C26.0274 24.9027 26.1215 25.2016 26.1748 25.5068C26.2187 25.7649 26.3128 25.919 26.5887 25.982C26.8647 26.0449 27.1218 26.1708 27.3884 26.2715C27.3946 26.2998 27.3978 26.3312 27.404 26.3596Z" fill="#FFEB61"/>
</svg>
