<svg width="36" height="38" viewBox="0 0 36 38" fill="none" xmlns="http://www.w3.org/2000/svg">
<path d="M19.3118 19.3851C18.5073 19.1284 17.691 18.9806 16.9776 18.6228C14.7663 17.5221 13.5219 15.1417 13.8231 12.6408C14.2471 9.15195 16.0899 6.46433 18.868 4.35625C20.3581 3.22831 22.0344 2.45041 23.8852 2.06147C23.9327 2.0498 23.9803 2.02646 24.0239 1.96423C21.5351 1.2758 19.0186 1.163 16.4783 1.6064C11.9446 2.39985 8.17181 4.51572 5.32637 8.06679C-0.257517 15.0484 -0.0316248 25.0987 6.67379 31.5863C13.4149 38.1051 23.2748 37.8328 29.576 33.6983C28.9538 33.675 28.3554 33.6983 27.7768 33.6166C26.905 33.4961 26.0371 33.321 25.1771 33.1305C24.6421 33.0099 24.4519 32.6754 24.5826 32.2398C24.7015 31.843 25.0225 31.6991 25.5615 31.8392C27.2101 32.267 28.8746 32.4381 30.5708 32.2203C30.9195 32.1736 31.2643 32.0959 31.613 32.0297C31.613 31.9908 31.6051 31.952 31.6011 31.9131C31.3198 31.9131 31.0344 31.9131 30.753 31.9092C30.4162 31.9092 30.115 31.8353 29.9367 31.5124C29.687 31.0574 29.901 30.5829 30.4162 30.4895C30.5985 30.4545 30.7887 30.4584 30.975 30.4584C32.5126 30.4662 33.8125 30.015 34.6923 28.6848C34.9935 28.2297 35.3145 28.1675 35.7068 28.4203C36.0357 28.6304 36.0992 28.9999 35.8416 29.4277C35.041 30.7618 34.0225 31.9286 32.8455 32.9515C28.1454 37.0199 22.6487 38.6768 16.4822 37.755C9.2339 36.6738 4.09387 32.6637 1.35543 26.0166C-2.3698 16.9698 1.85477 6.39432 10.7557 2.06147C15.5153 -0.248868 20.4651 -0.641704 25.5298 1.01132C26.5404 1.34192 27.5073 1.81254 28.4862 2.22483C28.8072 2.36096 29.0569 2.5671 29.0529 2.95993C29.049 3.36833 28.831 3.61336 28.4664 3.76894C27.3528 4.24734 26.3501 4.88133 25.5377 5.79535C25.189 6.18429 24.8283 6.20374 24.5192 5.93537C24.2101 5.66311 24.1546 5.23138 24.4875 4.88133C24.9631 4.38736 25.4981 3.95175 26.0133 3.49279C26.1282 3.39166 26.263 3.30998 26.4571 3.16996C25.0305 3.13107 23.7544 3.36833 22.5338 3.87007C19.4941 5.11858 17.1916 7.1411 15.8759 10.1399C15.1546 11.7851 14.8534 13.4848 15.5549 15.2312C16.2009 16.8414 17.8574 17.9538 19.613 17.841C20.5998 17.7788 20.9723 18.4322 20.7623 19.2295C20.3779 20.6764 19.7121 21.9016 18.2933 22.5939C17.9406 22.7651 17.5483 22.8584 17.1718 22.9867C17.3026 23.364 17.7623 23.6518 18.2022 23.6324C19.0741 23.5935 19.1454 23.6441 19.5258 24.4064C19.7319 24.8187 19.9657 25.2154 20.2035 25.6121C20.2788 25.7405 20.4017 25.8455 20.5047 25.9622C22.3871 24.3675 23.9406 24.1536 25.3396 25.2699C26.6791 26.3395 26.7504 27.8136 25.51 29.9489C26.2194 30.1511 26.905 30.3612 27.5985 30.5401C27.9671 30.6334 28.082 30.8823 28.1176 31.2013C28.1494 31.5047 27.975 31.7225 27.7055 31.808C27.5311 31.8664 27.3052 31.8508 27.1229 31.8041C24.3766 31.0924 22.0067 29.7466 20.1282 27.6424C19.5219 26.9657 19.0344 26.1878 18.5153 25.441C18.3607 25.2154 18.2022 25.0987 17.9287 25.0404C16.7517 24.7876 15.9155 24.1458 15.6183 22.9556C15.4281 22.205 15.7451 21.711 16.5298 21.6877C17.7504 21.6527 19.0106 20.5131 19.3158 19.389L19.3118 19.3851ZM21.44 27.0707C22.2048 27.8486 22.9816 28.5331 23.9129 29.0387C24.0159 29.0932 24.2299 29.0971 24.3132 29.0271C24.864 28.5798 25.1176 27.9886 25.0146 27.2885C24.9155 26.6078 24.4281 26.1178 23.7425 25.9894C22.7438 25.8066 22.0741 26.3356 21.44 27.0707Z" fill="#FFEB61"/>
<path d="M7.77153 18.9533C9.39637 19.3345 10.4624 21.0381 10.0701 22.6172C9.64604 24.3247 7.90231 25.3943 6.21011 24.9859C4.58527 24.5931 3.52318 22.8467 3.92345 21.2209C4.32371 19.5951 6.08725 18.5527 7.77153 18.9533ZM8.74643 22.3372C8.97233 21.3959 8.40561 20.4936 7.43864 20.2602C6.4677 20.0268 5.48091 20.618 5.25106 21.571C5.02517 22.5122 5.62754 23.4885 6.56678 23.6946C7.50601 23.9007 8.52054 23.2706 8.74643 22.3372Z" fill="#FFEB61"/>
<path d="M18.4875 30.5712C18.0952 32.2397 16.4149 33.2588 14.7187 32.8582C13.0899 32.4731 12.0635 30.824 12.4479 29.2215C12.8521 27.549 14.473 26.5572 16.1771 26.9384C17.8495 27.3118 18.8759 28.922 18.4836 30.5712H18.4875ZM15.8838 28.2764C14.9406 28.043 13.9816 28.5798 13.7517 29.4704C13.5179 30.3689 14.1203 31.3413 15.0476 31.563C15.9591 31.7808 16.9142 31.2051 17.148 30.3028C17.3739 29.4238 16.7993 28.5059 15.8838 28.2803V28.2764Z" fill="#FFEB61"/>
<path d="M12.4598 11.8745C12.1031 13.477 10.4228 14.5077 8.7504 14.146C7.1969 13.8115 6.13085 12.1351 6.47959 10.5793C6.84419 8.94967 8.46506 7.91896 10.1137 8.26512C11.7821 8.61517 12.8283 10.2254 12.4598 11.8745ZM11.1242 11.6256C11.3501 10.7077 10.8032 9.79368 9.89571 9.58754C9.01196 9.38528 8.04894 9.94537 7.83098 10.7894C7.59716 11.6956 8.17972 12.6446 9.09122 12.8586C9.97893 13.0647 10.9023 12.5046 11.1203 11.6256H11.1242Z" fill="#FFEB61"/>
<path d="M16.1335 10.9644C16.6249 9.59531 17.3422 8.31568 18.3567 7.20719C18.654 6.88047 18.9829 6.87658 19.3118 7.15273C19.6606 7.44444 19.724 7.77894 19.4386 8.11343C18.7332 8.94189 18.0873 9.80923 17.683 10.8244C17.5958 11.0461 17.5205 11.2717 17.4254 11.4856C17.2431 11.8901 16.9182 12.0573 16.5734 11.9329C16.189 11.7929 16.0106 11.4234 16.1335 10.9644Z" fill="#FFEB61"/>
<path d="M7.96176 28.7587C8.07669 28.2842 8.48091 28.0352 8.95647 28.1441C9.436 28.253 9.73322 28.7042 9.6183 29.1476C9.50733 29.5755 9.03574 29.8633 8.5998 29.766C8.11632 29.661 7.84683 29.2332 7.96176 28.7548V28.7587Z" fill="#FFEB61"/>
<path d="M20.8336 5.37136C21.2418 5.47249 21.5192 5.93533 21.4241 6.3554C21.333 6.74823 20.9089 7.0166 20.5126 6.93104C20.1163 6.84547 19.7913 6.34373 19.8904 5.96645C19.9974 5.56195 20.4532 5.27413 20.8376 5.36747L20.8336 5.37136Z" fill="#FFEB61"/>
<path d="M4.78738 15.1339C4.90231 14.6594 5.30654 14.4105 5.7821 14.5194C6.26163 14.6283 6.55885 15.0794 6.44392 15.5228C6.33296 15.9507 5.86136 16.2385 5.42543 16.1413C4.94194 16.0363 4.67246 15.6084 4.78738 15.13V15.1339Z" fill="#FFEB61"/>
<path d="M16.2762 3.7728C16.3673 3.39941 16.7557 3.2166 17.2312 3.32551C17.7108 3.43441 18.0278 3.81169 17.9327 4.16174C17.8415 4.50012 17.3898 4.71016 16.9538 4.61292C16.4703 4.5079 16.185 4.15007 16.2762 3.7728Z" fill="#FFEB61"/>
</svg>
