<svg width="40" height="37" viewBox="0 0 40 37" fill="none" xmlns="http://www.w3.org/2000/svg">
<path d="M7.73911 25.7092C6.66413 27.0771 5.58137 28.3846 4.71282 29.8656C4.66997 29.9382 4.63492 30.0189 4.59597 30.0956C4.48692 30.3135 4.41681 30.487 4.77903 30.5031C5.07504 30.5193 5.23862 30.7412 5.22694 31.0197C5.21525 31.3062 5.03998 31.4313 4.78682 31.4797C4.08964 31.6129 3.47036 30.9672 3.58721 30.2207C3.66121 29.7405 3.88322 29.3248 4.13249 28.9253C5.01272 27.521 6.04096 26.2297 7.08478 24.9545C7.2211 24.7851 7.17436 24.321 6.99519 24.1959C6.89003 24.1192 6.84719 24.2363 6.79656 24.2847C6.34865 24.7487 5.90464 25.2249 5.45673 25.689C5.07504 26.0844 4.76735 26.149 4.51418 25.8948C4.2766 25.6607 4.3506 25.3944 4.76735 24.9707C5.31652 24.4098 5.8579 23.8408 6.41486 23.292C6.57845 23.1306 6.6135 22.9974 6.55118 22.7634C5.24641 17.8443 5.88906 13.2359 8.97767 9.22077C13.6476 3.14759 21.78 1.88453 27.9455 6.2669C28.1792 6.43235 28.3428 6.43235 28.5882 6.30726C30.8355 5.15315 33.1257 4.09589 35.5405 3.3655C36.4597 3.08706 37.3905 2.86108 38.3681 2.98617C39.6573 3.15162 40.261 4.08782 39.891 5.37509C39.6378 6.25883 39.1471 7.00941 38.6369 7.74787C37.3516 9.60413 35.817 11.2344 34.2747 12.8566C33.9903 13.1552 33.5541 13.4094 33.4567 13.7605C33.3633 14.1076 33.6203 14.5555 33.7177 14.959C34.5317 18.3931 34.3681 21.7666 32.9231 24.9828C31.0809 29.0948 27.9611 31.7097 23.7391 32.8477C20.0234 33.8484 16.4947 33.227 13.1607 31.3102C12.8413 31.1286 12.5259 30.9389 12.2221 30.7291C12.0273 30.5959 11.8754 30.5879 11.6534 30.7009C9.55021 31.7904 7.4431 32.8719 5.19188 33.6063C4.33502 33.8847 3.47036 34.1107 2.57066 34.1793C2.05654 34.2197 1.55021 34.1995 1.06335 34.0098C0.249332 33.691 -0.140152 32.9607 0.0390111 32.0769C0.225963 31.1407 0.685554 30.3296 1.1802 29.5427C1.61253 28.8527 2.09938 28.207 2.60961 27.5815C2.68361 27.4928 2.7615 27.404 2.85109 27.3273C3.04193 27.1619 3.26004 27.1619 3.45868 27.2991C3.66121 27.4403 3.66511 27.6542 3.595 27.8802C3.52489 28.1021 3.3691 28.2676 3.22888 28.437C2.44213 29.4055 1.72158 30.4184 1.22304 31.5806C1.14125 31.7662 1.07893 31.9639 1.0322 32.1617C0.903665 32.6984 1.07504 32.9808 1.60084 33.1059C2.11107 33.227 2.61739 33.1665 3.11983 33.0777C4.53366 32.8275 5.86569 32.2948 7.17825 31.7218C8.40513 31.1851 9.61642 30.6121 10.8082 29.9987C11.038 29.8777 11.0341 29.8333 10.8511 29.6436C10.5044 29.2804 10.2045 29.2724 9.77611 29.5225C8.88809 30.0391 7.94943 30.4628 7.00688 30.8623C6.59792 31.0358 6.30191 30.8784 6.22012 30.4708C6.17338 30.2287 6.24349 30.0471 6.48108 29.9584C7.48984 29.575 8.43629 29.0544 9.41 28.5904C9.65147 28.4734 9.64758 28.3967 9.47231 28.2191C9.29315 28.0375 9.13346 27.8398 8.98156 27.634C8.85303 27.4605 8.77124 27.4887 8.6544 27.6421C8.44797 27.9124 8.23375 28.1788 8.00785 28.433C7.75858 28.7074 7.595 28.7074 7.33794 28.4734C7.08088 28.2393 7.06141 28.0254 7.28341 27.751C7.56384 27.404 7.84816 27.057 8.12859 26.714C8.18702 26.6413 8.2727 26.5848 8.1987 26.4678C8.0468 26.2257 7.8988 25.9836 7.73521 25.7172L7.73911 25.7092ZM14.6641 9.72519C14.4538 9.72519 14.2162 9.72519 13.9747 9.72519C13.2347 9.73729 12.7245 10.1691 12.5531 10.9277C12.4441 11.42 12.5103 11.9164 12.4986 12.4127C12.4869 12.8041 12.4713 13.1875 12.335 13.5588C11.6846 15.2939 9.45284 15.988 7.85595 14.9348C7.65732 14.8016 7.59889 14.8097 7.54437 15.0639C7.11983 17.0574 7.04972 19.0589 7.43921 21.0685C7.91827 23.522 8.93482 25.693 10.6057 27.5251C10.7771 27.7107 10.8978 27.743 11.1315 27.6098C12.1598 27.0166 13.1568 26.3709 14.1461 25.7132C18.6797 22.6948 22.8784 19.2244 26.9601 15.5885C28.3039 14.3941 29.5775 13.1229 30.8939 11.9002C31.0887 11.7186 31.0731 11.5976 30.9446 11.3958C29.9592 9.85432 28.7751 8.52266 27.3224 7.42504C25.4918 6.04092 23.4353 5.3186 21.2153 5.02402C20.2221 4.89085 19.2211 4.94735 18.224 5.07244C18.0254 5.09665 17.9903 5.18543 17.9903 5.36299C17.9942 5.89162 17.9981 6.42025 17.9825 6.94887C17.9592 7.8084 17.6671 8.54283 17.0127 9.10374C16.3311 9.68483 15.5327 9.80186 14.6602 9.73729L14.6641 9.72519ZM13.2737 29.8292C13.297 29.8655 13.3087 29.8978 13.3321 29.914C13.3905 29.9543 13.4567 29.9906 13.519 30.027C14.6096 30.6726 15.7586 31.1649 16.9699 31.5079C19.0069 32.085 21.0556 32.1092 23.1237 31.6936C23.4158 31.633 23.5755 31.4756 23.6768 31.1972C23.8521 30.717 23.9338 30.2207 23.9338 29.7082C23.9377 28.8002 23.9377 27.8963 23.9416 26.9884C23.9416 26.7301 23.9533 26.4718 24.0312 26.2216C24.4519 24.8093 25.6203 23.9619 27.1393 23.974C28.448 23.982 28.6232 23.8529 29.0672 22.5858C29.3749 21.7061 29.9631 21.1533 30.8628 20.9797C31.3925 20.8789 31.9222 20.9152 32.448 20.9797C32.6544 21.004 32.7401 20.9596 32.7673 20.7255C32.9076 19.5512 32.9192 18.381 32.7946 17.2067C32.7128 16.4561 32.5804 15.7177 32.4012 14.9832C32.3389 14.725 32.2532 14.7411 32.1052 14.8985C32.0702 14.9348 32.0312 14.9711 31.9923 15.0074C29.6203 17.1865 27.2445 19.3616 24.7673 21.4156C23.0848 22.8118 21.3594 24.1475 19.6067 25.4388C17.5385 26.9601 15.4392 28.4411 13.2698 29.8252L13.2737 29.8292ZM25.149 31.0277C25.1997 31.0277 25.2347 31.0318 25.262 31.0197C25.4334 30.9389 25.6047 30.8623 25.7722 30.7735C29.1101 29.0222 31.3535 26.3145 32.4246 22.5858C32.4869 22.3719 32.4674 22.271 32.2182 22.2832C31.9494 22.2993 31.6768 22.271 31.408 22.2751C30.8745 22.2791 30.5044 22.5576 30.2785 23.0458C30.1968 23.2194 30.1539 23.409 30.0877 23.5906C29.7683 24.4542 29.1646 24.9788 28.3078 25.2047C27.8443 25.3258 27.3769 25.2733 26.9095 25.2733C25.9085 25.2774 25.2659 25.9271 25.2464 26.9601C25.2425 27.295 25.2464 27.63 25.2464 27.9649C25.2386 28.9778 25.2815 29.9906 25.1568 31.0277H25.149ZM11.4898 28.4895C11.6885 28.659 11.8832 28.8043 12.0546 28.9737C12.2532 29.1715 12.4246 29.1513 12.6544 29.006C14.4071 27.9205 16.1247 26.7826 17.7995 25.576C20.448 23.6673 23.0575 21.698 25.5268 19.5432C27.5405 17.7878 29.5307 16.0042 31.4392 14.1277C32.0156 13.5588 32.0195 13.5709 31.6651 12.8485C31.5755 12.6669 31.5171 12.6669 31.3808 12.8041C30.002 14.1842 28.5298 15.4554 27.0926 16.7628C25.1997 18.4819 23.2445 20.1242 21.2386 21.7021C18.4928 23.861 15.6729 25.9109 12.7167 27.751C12.3194 27.9972 11.9144 28.2272 11.4859 28.4814L11.4898 28.4895ZM11.2133 11.9002C11.225 11.4483 11.1744 10.9923 11.2873 10.5484C11.6223 9.25305 12.6232 8.45405 13.9163 8.43791C14.4265 8.42984 14.9329 8.51459 15.447 8.45002C16.1052 8.36931 16.6154 7.877 16.6972 7.2031C16.7673 6.6543 16.7206 6.10549 16.7284 5.55265C16.7284 5.39931 16.67 5.36299 16.5375 5.41141C16.3 5.49615 16.0624 5.56879 15.8287 5.65757C12.2026 7.03362 9.60863 9.52746 8.13638 13.248C8.06627 13.4216 8.09743 13.5144 8.23765 13.6233C8.5765 13.8937 8.9543 14.0591 9.37494 14.1156C10.3681 14.2488 11.1432 13.5991 11.2094 12.5741C11.225 12.3482 11.2094 12.1222 11.2094 11.8962L11.2133 11.9002ZM37.8306 3.95869C37.706 3.96676 37.5814 3.96676 37.4567 3.9829C37.2815 4.00711 37.1062 4.03536 36.9348 4.07168C35.1354 4.43083 33.4528 5.14912 31.7781 5.89162C30.9757 6.24673 30.1734 6.60587 29.3983 7.02958C29.3321 7.0659 29.188 7.0659 29.2308 7.20714C29.3048 7.44522 29.7917 7.64699 30.0137 7.55014C31.4898 6.91256 32.9504 6.22655 34.5122 5.81898C34.9446 5.70599 35.3808 5.58897 35.8365 5.69792C36.4441 5.84319 36.7167 6.31129 36.5414 6.93273C36.4519 7.24749 36.3039 7.52996 36.1247 7.7963C35.225 9.11181 34.1734 10.2901 33.0828 11.4362C32.6583 11.8841 32.6583 11.876 32.8959 12.4652C32.9777 12.671 33.0322 12.7113 33.1997 12.5378C34.8745 10.8349 36.4674 9.06339 37.854 7.09415C38.3448 6.39603 38.8005 5.67371 39.0186 4.82225C39.1004 4.5075 38.9874 4.30169 38.7381 4.14835C38.4577 3.97887 38.15 3.95062 37.8345 3.95466L37.8306 3.95869ZM35.5522 6.79553C35.5366 6.6664 35.447 6.63815 35.3496 6.65026C35.186 6.67447 35.0186 6.70272 34.8628 6.74711C33.4061 7.16678 32.0351 7.81647 30.633 8.38142C30.5005 8.43388 30.4772 8.49844 30.5746 8.61143C30.7888 8.86162 30.9991 9.11585 31.2016 9.37411C31.3068 9.50728 31.3613 9.43868 31.4353 9.33779C31.6339 9.06339 31.8365 8.78899 32.0507 8.52266C32.2688 8.25632 32.4519 8.26036 32.7362 8.52266C32.9387 8.70828 32.9543 8.94233 32.7751 9.17235C32.5531 9.45885 32.335 9.74536 32.1013 10.0198C31.9261 10.2296 31.8793 10.3991 32.0546 10.6614C32.2026 10.8833 32.2766 10.843 32.4168 10.6896C32.6933 10.3829 32.9816 10.0884 33.2581 9.78168C33.9747 8.98672 34.668 8.16755 35.2912 7.29188C35.4003 7.1345 35.5132 6.97712 35.5599 6.78746L35.5522 6.79553Z" fill="#FFEB61"/>
<path d="M31.7547 31.4555C31.7547 30.6968 32.3584 30.0714 33.0828 30.0754C33.8423 30.0754 34.4733 30.7251 34.4811 31.512C34.4889 32.2787 33.893 32.8921 33.1568 32.888C32.3895 32.8799 31.7547 32.2343 31.7547 31.4555Z" fill="#FFEB61"/>
<path d="M9.88127 5.30649C9.88127 6.09338 9.29704 6.6664 8.50639 6.65833C7.78195 6.65026 7.15099 6.01268 7.15488 5.28632C7.15488 4.5196 7.76248 3.9143 8.52976 3.91027C9.26978 3.91027 9.88906 4.54381 9.88516 5.30649H9.88127Z" fill="#FFEB61"/>
<path d="M20.1169 37C19.4976 36.996 19.0419 36.5319 19.0458 35.9064C19.0497 35.2931 19.5093 34.833 20.1052 34.8411C20.7206 34.8492 21.149 35.2931 21.1529 35.9145C21.1529 36.54 20.7128 37.0041 20.1169 37Z" fill="#FFEB61"/>
<path d="M20.0702 2.52472e-05C20.6544 0.00406058 21.1257 0.500407 21.1179 1.0936C21.1101 1.67873 20.6349 2.15489 20.0702 2.15489C19.4743 2.15489 19.0147 1.6868 19.0108 1.07746C19.0108 0.476195 19.4859 -0.00401009 20.0702 2.52472e-05Z" fill="#FFEB61"/>
<path d="M3.98838 20.3664C3.41973 20.3623 2.96404 19.8862 2.96014 19.297C2.95625 18.6957 3.43142 18.2034 4.00396 18.2115C4.58429 18.2236 5.05946 18.7159 5.05167 19.3051C5.04388 19.9184 4.58818 20.3704 3.98838 20.3664Z" fill="#FFEB61"/>
<path d="M37.3282 18.4294C37.3282 19.0428 36.8998 19.5028 36.3194 19.5068C35.7391 19.5109 35.2639 19.0387 35.2717 18.4617C35.2756 17.8604 35.7547 17.3721 36.3272 17.3721C36.8803 17.3721 37.3282 17.8483 37.3321 18.4294H37.3282Z" fill="#FFEB61"/>
<path d="M12.7167 33.1665C13.0205 33.1624 13.2503 33.3884 13.262 33.7032C13.2737 33.9856 13.0322 34.2439 12.7518 34.2479C12.4791 34.2479 12.2026 33.9776 12.1987 33.6951C12.1948 33.4045 12.4207 33.1745 12.7167 33.1665Z" fill="#FFEB61"/>
<path d="M29.371 3.96273C29.3788 4.2452 29.1568 4.5075 28.9076 4.51557C28.6154 4.52767 28.3584 4.27748 28.3506 3.97887C28.3428 3.70043 28.5843 3.45427 28.8725 3.4462C29.1374 3.44217 29.3672 3.67622 29.371 3.95869V3.96273Z" fill="#FFEB61"/>
</svg>
