<svg width="47" height="33" viewBox="0 0 47 33" fill="none" xmlns="http://www.w3.org/2000/svg">
<path d="M10.007 7.66228C10.3002 7.30526 11.2727 5.84217 11.5025 5.57615C13.491 3.25901 15.8492 1.53691 18.7336 0.703858C23.0136 -0.531717 27.1104 -0.0451875 30.9907 2.25095C33.3189 3.62654 35.224 5.48165 36.6429 7.87229C39.9937 13.5216 39.8638 21.8731 35.0175 27.4595C32.1831 30.7287 28.6558 32.5733 24.4624 32.9058C20.4922 33.2208 16.925 31.9818 13.7708 29.4756C12.7616 28.6741 11.8723 27.694 10.9696 26.7559C10.6099 26.3849 10.8031 25.8074 11.2761 25.6079C11.7224 25.4224 11.8989 25.4819 12.262 25.9159C13.7908 27.7395 15.6093 29.1536 17.731 30.1301C24.9654 33.4518 32.7493 29.9376 35.9168 23.3187C38.2017 18.5444 38.0085 13.7211 35.5871 9.01336C35.3739 8.60034 35.1241 8.20831 34.8876 7.80229C33.532 8.64234 32.2097 8.73335 30.9407 7.78479C29.4119 6.64022 29.1255 5.07562 29.7317 3.23801C28.839 2.88099 27.973 2.53097 27.107 2.18445C26.5475 3.33952 25.7314 4.08856 24.5757 4.37908C23.4366 4.6626 22.3807 4.34758 21.3782 3.76304C20.7353 6.54571 16.7151 8.08231 14.5035 4.7081C12.2353 6.66822 10.6032 9.06936 9.71727 12.0025C8.67809 15.4398 8.94787 18.8245 10.1469 22.1847C10.3201 22.1322 10.45 22.0972 10.5766 22.0517C12.2753 21.4181 13.974 20.7846 15.6693 20.1475C15.9924 20.025 16.2988 19.8605 16.6219 19.738C16.925 19.6225 17.2481 19.6715 17.4179 19.9515C17.5478 20.165 17.6444 20.5256 17.5578 20.7251C17.4546 20.9666 17.1681 21.1871 16.915 21.2816C14.3537 22.2477 11.799 23.2312 9.211 24.1133C7.45903 24.7083 5.64711 25.0618 3.79189 25.1108C2.90925 25.1318 2.02327 25.1038 1.18393 24.7608C0.201363 24.3618 -0.214981 23.4377 0.211353 22.4227C0.434513 21.8906 0.767586 21.3866 1.1373 20.9491C2.2864 19.591 3.67865 18.5339 5.10754 17.5364C5.22744 17.4524 5.37066 17.3929 5.51056 17.3649C5.85029 17.2914 6.19669 17.4804 6.33991 17.7919C6.48646 18.1174 6.39986 18.4709 6.09676 18.716C5.93356 18.849 5.74371 18.9505 5.57717 19.0835C4.75447 19.731 3.90181 20.3435 3.12908 21.0506C2.5895 21.5441 2.12986 22.1427 1.68687 22.7377C1.35047 23.1892 1.44706 23.3922 1.97665 23.4832C2.28973 23.5392 2.60948 23.5777 2.9259 23.5847C4.87105 23.6337 6.75292 23.2452 8.6148 22.7027C8.66809 22.6887 8.71472 22.6467 8.76468 22.6187C6.87616 17.4454 7.27584 12.4891 10.0104 7.66578" fill="#FFEB61"/>
<path d="M46.3787 11.8485C46.5652 11.4215 46.7584 11.0715 46.8683 10.697C47.1314 9.81141 46.7717 9.01686 45.9623 8.62834C45.113 8.22231 44.2004 8.11731 43.3011 8.19431C41.8522 8.32032 40.41 8.54783 38.9678 8.75785C38.5181 8.82435 38.285 9.19187 38.325 9.6364C38.3683 10.0984 38.6614 10.3609 39.101 10.2839C39.8138 10.1614 40.5199 9.95842 41.236 9.89192C42.2952 9.79741 43.361 9.77641 44.4235 9.76941C44.7433 9.76941 45.0664 9.90942 45.3861 9.99342C45.6592 10.0669 45.6825 10.2489 45.5227 10.452C45.1663 10.907 44.8166 11.3725 44.4202 11.7925C43.3544 12.9196 42.132 13.8437 40.853 14.6872C40.7397 14.7607 40.6232 14.8377 40.5166 14.9182C40.0969 15.2402 39.997 15.6848 40.2435 16.0873C40.4733 16.4583 40.8796 16.5458 41.306 16.2308C42.4351 15.3942 43.5709 14.5647 44.6467 13.6546C45.2895 13.1121 45.8258 12.4296 46.3787 11.845V11.8485Z" fill="#FFEB61"/>
<path d="M12.1021 11.131C11.839 10.865 11.4026 10.9 11.2094 11.201C11.1195 11.341 11.0562 11.509 11.0029 11.67C10.5999 12.9441 10.4367 14.2532 10.4967 15.5938C10.5033 15.7653 10.53 15.9403 10.5833 16.1013C10.6699 16.3673 10.9397 16.5143 11.1861 16.4688C11.4826 16.4128 11.6491 16.2203 11.6558 15.9053C11.6657 15.3557 11.6058 14.7957 11.6857 14.2567C11.8023 13.4551 12.0022 12.6641 12.182 11.873C12.2453 11.5965 12.3152 11.334 12.1021 11.131Z" fill="#FFEB61"/>
<path d="M34.9709 19.717C35.2507 20.0075 35.5771 20.0145 35.8302 19.7275C35.9268 19.619 36.0101 19.479 36.0534 19.339C36.3731 18.2679 36.5197 17.1689 36.4631 16.0488C36.4531 15.8703 36.3765 15.6323 36.2532 15.5413C36.1 15.4292 35.8635 15.3977 35.667 15.4117C35.4472 15.4257 35.3606 15.6358 35.334 15.8528C35.3206 15.9543 35.3173 16.0558 35.3206 16.1573C35.3506 17.1584 35.1941 18.1314 34.891 19.0765C34.8177 19.3075 34.7744 19.535 34.9676 19.71L34.9709 19.717Z" fill="#FFEB61"/>
<path d="M14.377 25.2788C14.3803 26.7734 15.5294 27.9985 16.9183 27.995C18.3272 27.995 19.473 26.7804 19.473 25.2963C19.473 23.7808 18.3339 22.5732 16.915 22.5802C15.4928 22.5872 14.3736 23.7808 14.377 25.2823V25.2788ZM15.3895 25.2648C15.3895 24.3828 16.0756 23.6547 16.915 23.6477C17.771 23.6407 18.4605 24.3758 18.4605 25.2998C18.4605 26.1679 17.761 26.9169 16.9583 26.9134C16.1123 26.9099 15.3895 26.1504 15.3895 25.2648Z" fill="#FFEB61"/>
<path d="M31.7301 12.0935C31.7101 10.655 30.621 9.51039 29.292 9.52789C27.8864 9.54539 26.7706 10.739 26.7973 12.2021C26.8239 13.6091 27.9864 14.7152 29.4086 14.6872C30.7042 14.6627 31.7501 13.4936 31.7301 12.0935ZM27.8298 12.1321C27.8265 11.3165 28.4826 10.62 29.252 10.6165C30.0614 10.6165 30.7209 11.3025 30.7242 12.1426C30.7242 12.9441 30.0814 13.6336 29.3153 13.6441C28.5159 13.6546 27.8365 12.9616 27.8298 12.1321Z" fill="#FFEB61"/>
<path d="M18.4505 9.03786C18.4638 10.2419 19.3831 11.18 20.5355 11.166C21.5847 11.152 22.474 10.1439 22.4507 8.98186C22.4274 7.78129 21.578 6.91673 20.4389 6.93074C19.3364 6.94824 18.4371 7.90029 18.4505 9.03786ZM19.4397 9.04836C19.4397 8.46033 19.9093 7.9878 20.4889 7.9878C21.0418 7.9878 21.4781 8.45683 21.4781 9.04136C21.4781 9.5839 20.9652 10.1124 20.4422 10.1089C19.9193 10.1054 19.4397 9.5944 19.4397 9.04836Z" fill="#FFEB61"/>
<path d="M12.9114 9.20937C12.9114 10.1789 13.6375 10.998 14.5035 11.005C15.4095 11.012 16.1556 10.2034 16.1523 9.21637C16.1523 8.27482 15.4461 7.55377 14.5269 7.55027C13.6542 7.55027 12.9114 8.30982 12.9114 9.20937ZM15.1197 9.26188C15.1197 9.5839 14.8599 9.86391 14.5602 9.86041C14.2504 9.86041 13.944 9.54189 13.9473 9.23388C13.9506 8.91536 14.2104 8.64234 14.5169 8.63884C14.8366 8.63884 15.1231 8.92936 15.1197 9.25838V9.26188Z" fill="#FFEB61"/>
<path d="M16.1156 17.2774C16.1156 16.3218 15.4062 15.5483 14.5368 15.5518C13.6342 15.5518 12.9248 16.3323 12.9314 17.3159C12.9348 18.2504 13.6675 19.017 14.5468 19.0135C15.4228 19.0135 16.1189 18.2434 16.1156 17.2809V17.2774ZM13.954 17.2704C13.9506 16.9343 14.1738 16.6998 14.5169 16.6893C14.8466 16.6788 15.1064 16.9343 15.1131 17.2739C15.1197 17.5889 14.8566 17.8654 14.5468 17.8654C14.2204 17.8654 13.9606 17.6064 13.9573 17.2669L13.954 17.2704Z" fill="#FFEB61"/>
<path d="M26.0712 5.16663C25.1785 5.16663 24.4758 5.92267 24.4824 6.87123C24.4891 7.80929 25.2085 8.57584 26.0845 8.57584C26.9572 8.57584 27.6833 7.79879 27.6833 6.86773C27.6833 5.89117 26.9938 5.16663 26.0712 5.17013V5.16663ZM26.0678 6.25869C26.3909 6.25869 26.6674 6.53521 26.6674 6.85373C26.6674 7.17225 26.3976 7.44877 26.0945 7.43827C25.7714 7.42777 25.485 7.12675 25.4916 6.80473C25.4983 6.50721 25.7648 6.25519 26.0712 6.25519L26.0678 6.25869Z" fill="#FFEB61"/>
<path d="M34.2548 9.42989C34.0849 9.36338 33.9151 9.23388 33.7485 9.24088C33.3355 9.25488 33.1457 9.6574 33.3555 10.0319C33.4987 10.2909 33.7019 10.5185 33.8285 10.788C34.1249 11.4145 34.3947 12.0585 34.6745 12.6956C34.7144 12.7866 34.7311 12.8881 34.7777 12.9756C34.8943 13.2136 35.1841 13.3466 35.3939 13.2731C35.6604 13.1786 35.8269 12.8916 35.747 12.6011C35.4339 11.467 34.9376 10.4239 34.2581 9.42989H34.2548Z" fill="#FFEB61"/>
<path d="M32.3529 24.5438C32.4729 24.8903 32.736 25.0303 33.0457 24.9008C33.1623 24.8518 33.2822 24.7748 33.3688 24.6768C34.0183 23.9383 34.5412 23.1087 34.9043 22.1777C34.9609 22.0306 34.9876 21.8066 34.9209 21.6841C34.8377 21.5336 34.6578 21.4111 34.4946 21.3446C34.3114 21.2676 34.1649 21.4041 34.0649 21.5686C34.0183 21.6456 33.975 21.7261 33.9417 21.8101C33.602 22.6327 33.119 23.3572 32.5261 24.0013C32.3829 24.1588 32.263 24.3268 32.3563 24.5473L32.3529 24.5438Z" fill="#FFEB61"/>
<path d="M22.8803 31.0892C23.1301 30.9912 23.4299 30.9072 23.6964 30.7567C23.8895 30.6482 23.9695 30.4137 23.8796 30.1791C23.7963 29.9586 23.6098 29.8956 23.3899 29.8886C22.9936 29.8816 22.5972 29.8606 22.2009 29.8361C21.8578 29.8116 21.6646 29.9096 21.588 30.1686C21.5081 30.4347 21.6313 30.7392 21.9277 30.8547C22.2075 30.9632 22.514 31.0017 22.8837 31.0892H22.8803Z" fill="#FFEB61"/>
<path d="M30.4344 17.0744C30.4344 16.7383 30.1946 16.5003 29.8649 16.5003C29.5518 16.5003 29.3253 16.7628 29.3253 17.1059C29.3253 17.4244 29.5884 17.6939 29.8949 17.6904C30.1913 17.6904 30.4344 17.4069 30.4311 17.0709L30.4344 17.0744Z" fill="#FFEB61"/>
<path d="M31.6502 26.6614C31.6502 25.7059 30.9407 24.9323 30.0714 24.9358C29.1688 24.9358 28.4593 25.7164 28.466 26.6999C28.4693 27.6345 29.2021 28.401 30.0814 28.3975C30.9574 28.3975 31.6535 27.6275 31.6502 26.6649V26.6614ZM29.4885 26.6544C29.4852 26.3184 29.7083 26.0839 30.0514 26.0734C30.3812 26.0629 30.6409 26.3184 30.6476 26.6579C30.6543 26.973 30.3911 27.2495 30.0814 27.2495C29.755 27.2495 29.4952 26.9905 29.4918 26.6509L29.4885 26.6544Z" fill="#FFEB61"/>
<path d="M28.2561 29.2131C28.2561 28.8771 28.0163 28.639 27.6866 28.639C27.3735 28.639 27.147 28.9016 27.147 29.2446C27.147 29.5631 27.4101 29.8326 27.7166 29.8291C28.013 29.8291 28.2561 29.5456 28.2528 29.2096L28.2561 29.2131Z" fill="#FFEB61"/>
<path d="M19.5629 29.2586C19.5629 28.9226 19.3231 28.6846 18.9934 28.6846C18.6803 28.6846 18.4538 28.9471 18.4538 29.2901C18.4538 29.6086 18.7169 29.8781 19.0233 29.8746C19.3198 29.8746 19.5629 29.5911 19.5596 29.2551L19.5629 29.2586Z" fill="#FFEB61"/>
</svg>
