<svg width="44" height="32" viewBox="0 0 44 32" fill="none" xmlns="http://www.w3.org/2000/svg">
<path d="M21.9521 0C26.5775 0.0374138 30.4516 1.85198 33.6997 5.13317C34.0164 5.45493 34.0091 5.46241 34.4068 5.27908C36.4138 4.34748 38.4393 3.45329 40.5604 2.81352C41.2344 2.61148 41.9377 2.50298 42.6301 2.36455C42.759 2.33836 42.9026 2.35333 43.0389 2.36455C43.7864 2.44312 44.1657 3.01181 43.9374 3.74512C43.7238 4.42979 43.2745 4.97229 42.8142 5.49608C41.1939 7.34058 39.3268 8.90074 37.4118 10.4085C36.9662 10.7602 36.9662 10.7527 37.1282 11.2952C37.8684 13.7196 38.0415 16.1815 37.6107 18.6882C36.9478 22.553 35.066 25.6958 32.1309 28.21C30.2086 29.8562 28.0248 30.9861 25.5758 31.5735C23.8082 32 22.0147 32.101 20.2176 31.8653C16.4208 31.364 13.2059 29.6542 10.4955 26.9379C10.3298 26.7733 10.2083 26.7284 9.97256 26.8332C8.41113 27.5178 6.85338 28.2324 5.2588 28.8311C4.17611 29.2389 3.03818 29.4933 1.91866 29.7814C1.61301 29.8599 1.27052 29.8562 0.953817 29.8188C0.209926 29.7365 -0.202528 29.0518 0.10313 28.3559C0.287262 27.9331 0.548728 27.5365 0.839655 27.1774C2.0586 25.6771 3.49114 24.39 4.95315 23.1404C5.57919 22.6054 6.21629 22.0854 6.86075 21.5728C7.01542 21.4493 7.05224 21.352 6.98596 21.165C6.39305 19.4851 6.15736 17.7454 6.15736 15.9607C6.15736 12.7469 7.04119 9.81363 8.842 7.17222C10.8785 4.18286 13.5852 2.06524 16.9585 0.84181C18.5678 0.265638 20.236 0 21.9521 0ZM7.79245 13.3567C7.77035 13.4577 7.74458 13.54 7.73353 13.6224C7.57518 14.6774 7.52362 15.74 7.57518 16.8063C7.67829 18.8116 8.18649 20.7123 9.02613 22.5268C9.09978 22.6877 9.16239 22.7551 9.3502 22.654C10.838 21.8459 12.3515 21.0827 13.8135 20.2371C17.6619 18.0072 21.5139 15.7849 25.3181 13.4802C28.1721 11.7517 30.9562 9.90717 33.7697 8.11505C34.2116 7.83444 34.1785 7.89431 33.8765 7.49772C32.4182 5.60084 30.6431 4.08933 28.5293 2.9931C25.8299 1.59009 22.9685 1.06255 19.9746 1.519C16.2183 2.09143 13.1801 3.97708 10.7643 6.93277C10.5323 7.21338 10.3261 7.51643 10.1051 7.81574C11.7844 8.59394 12.4952 10.0344 11.998 11.5646C11.7476 12.3316 11.2762 12.9152 10.5912 13.3118C9.68164 13.8356 8.74625 13.7383 7.79245 13.353V13.3567ZM36.2628 13.5849C28.754 18.546 21.1714 23.2826 13.2501 27.4505C17.7613 31.132 24.7215 32.0037 30.3743 27.8433C33.3462 25.6584 35.3164 22.77 36.1155 19.1035C36.5132 17.2777 36.5611 15.4444 36.2628 13.5849ZM1.61301 28.4045C1.70507 28.4195 1.73822 28.4345 1.76399 28.4307C1.90762 28.4083 2.05124 28.3858 2.19118 28.3522C3.95884 27.9369 5.63075 27.2447 7.2953 26.5264C11.7071 24.6295 15.9126 22.3248 20.0409 19.8742C23.6314 17.7454 27.1631 15.5155 30.7057 13.2969C33.1805 11.7479 35.6 10.1092 37.8685 8.26096C39.4078 7.0076 40.8919 5.69438 42.1219 4.11926C42.1918 4.02572 42.2581 3.92845 42.3244 3.83491C42.3097 3.80872 42.295 3.78253 42.2766 3.75634C39.7024 4.38489 37.3013 5.48486 34.8671 6.58482C35.0255 6.79434 35.147 6.95522 35.2648 7.1161C35.773 6.73448 36.0014 6.68958 36.3843 6.87291C36.6753 7.01508 36.8336 7.2882 36.8005 7.60996C36.771 7.91675 36.5722 8.1375 36.2555 8.21981C36.1671 8.24225 36.0713 8.2647 35.994 8.31334C35.2391 8.80346 34.4878 9.29732 33.7402 9.79118C30.1018 12.1894 26.4192 14.5203 22.6703 16.7352C19.7904 18.4338 16.8959 20.1099 13.9793 21.7486C12.079 22.8149 10.1309 23.7989 8.20122 24.8091C7.82191 25.0074 7.40577 24.8727 7.23637 24.5285C7.04488 24.1431 7.1885 23.7353 7.59727 23.5258C7.70775 23.4697 7.82928 23.4322 7.97658 23.3761C7.84401 23.1666 7.72248 22.9758 7.58991 22.7663C5.44294 24.5023 3.36594 26.2458 1.60564 28.4083L1.61301 28.4045ZM35.7399 11.6432C27.9438 16.8661 19.9856 21.7786 11.6739 26.0849C11.8949 26.3879 12.0238 26.4441 12.2337 26.3356C13.4932 25.6808 14.7637 25.0523 16.0084 24.3676C19.993 22.1677 23.9076 19.8443 27.7596 17.4161C30.3927 15.7549 32.9853 14.0189 35.5926 12.3166C35.9535 12.0809 35.9535 12.0772 35.7399 11.6469V11.6432Z" fill="#FFEB61"/>
<path d="M23.2999 9.96329C23.2999 11.7105 21.9189 13.1285 20.2285 13.1248C18.5235 13.121 17.1609 11.7292 17.1609 10.0007C17.1609 8.24974 18.5419 6.84298 20.2617 6.84298C21.9446 6.84298 23.3035 8.23851 23.2999 9.96329ZM20.1844 11.7068C21.0976 11.7292 21.8968 10.951 21.9152 10.0232C21.9336 9.08781 21.1934 8.27967 20.2948 8.26096C19.3815 8.24225 18.5935 9.01298 18.5677 9.95206C18.5419 10.8986 19.2674 11.6843 20.1844 11.7068Z" fill="#FFEB61"/>
<path d="M21.3333 1.81083C22.0956 1.81083 22.7217 2.42815 22.7217 3.17269C22.7217 3.95838 22.0809 4.60938 21.3112 4.61312C20.5084 4.61686 19.9192 4.00702 19.9266 3.17643C19.9303 2.40945 20.5489 1.81083 21.337 1.81083H21.3333Z" fill="#FFEB61"/>
<path d="M28.7207 7.69601C28.7096 8.38068 28.1278 8.92693 27.4207 8.9157C26.7542 8.90448 26.2312 8.34701 26.2423 7.66608C26.257 6.96644 26.8425 6.38653 27.5165 6.40898C28.2014 6.43143 28.7317 6.99638 28.7207 7.69601Z" fill="#FFEB61"/>
<path d="M14.1007 17.562C13.4157 17.562 12.9075 17.027 12.9075 16.3087C12.9075 15.5941 13.4157 15.0665 14.108 15.0665C14.7856 15.0665 15.338 15.6165 15.338 16.2974C15.338 16.9746 14.7672 17.562 14.1007 17.5583V17.562Z" fill="#FFEB61"/>
<path d="M15.1576 4.62808C15.1576 3.94715 15.71 3.40465 16.3912 3.40839C17.032 3.41214 17.5697 3.96212 17.5623 4.60189C17.555 5.28657 16.9989 5.859 16.3471 5.85526C15.6731 5.85526 15.1539 5.3165 15.1576 4.62808Z" fill="#FFEB61"/>
<path d="M33.2135 21.1537C33.1987 22.3697 32.2597 23.3125 31.0776 23.3013C29.8881 23.2901 28.9048 22.3136 28.9232 21.1612C28.9416 19.9378 29.8954 18.9725 31.0702 18.9837C32.2891 18.995 33.2282 19.9453 33.2135 21.1537Z" fill="#FFEB61"/>
<path d="M25.4984 24.1132C25.4984 24.854 24.8834 25.4713 24.1616 25.4601C23.4693 25.4526 22.8911 24.8465 22.8911 24.1356C22.8911 23.3948 23.5024 22.7738 24.2242 22.7812C24.957 22.7887 25.5021 23.3574 25.4984 24.1132Z" fill="#FFEB61"/>
<path d="M21.6169 29.6916C20.9724 29.6916 20.409 29.1266 20.4016 28.4644C20.3943 27.7423 20.9503 27.1661 21.6537 27.1624C22.3313 27.1624 22.8653 27.7049 22.8653 28.4008C22.8653 29.0892 22.2871 29.6878 21.6132 29.6878L21.6169 29.6916Z" fill="#FFEB61"/>
</svg>
