<svg width="41" height="42" viewBox="0 0 41 42" fill="none" xmlns="http://www.w3.org/2000/svg">
<path d="M28.8601 40.0578C27.5314 37.2952 26.2209 34.567 24.9311 31.8891C24.1578 32.1087 23.4571 32.323 22.7461 32.5003C22.3594 32.5956 21.9597 32.6326 21.5627 32.6803C21.298 32.712 21.1916 32.8549 21.1942 33.1143C21.202 33.7387 21.2124 34.3632 21.215 34.9877C21.215 35.2603 21.2072 35.5302 21.1916 35.8028C21.1682 36.2447 20.958 36.4881 20.5999 36.5013C20.1068 36.5199 19.7902 36.287 19.7747 35.8239C19.7487 34.9454 19.7591 34.0669 19.7565 33.1883C19.7565 32.6988 19.7331 32.6565 19.2582 32.6221C18.2877 32.548 17.3405 32.3892 16.4633 31.9288C16.2479 31.815 16.0896 31.9049 15.9625 32.1749C15.5992 32.9396 15.2462 33.707 14.8777 34.4691C14.0084 36.2685 13.1286 38.0626 12.2593 39.862C12.1788 40.026 12.1036 40.071 11.9323 39.9758C11.5871 39.7773 11.229 39.6027 10.8579 39.4068C10.9254 39.2692 10.9773 39.1581 11.0318 39.047C12.2515 36.586 13.4686 34.1251 14.6883 31.6668C14.8959 31.2487 14.8803 31.2117 14.4962 30.9497C14.0758 30.6612 13.6632 30.3649 13.248 30.0712C12.9625 29.8674 12.8457 29.8648 12.5966 30.1108C11.9089 30.7936 11.229 31.4842 10.5439 32.1669C10.3856 32.3257 10.2065 32.4606 10.0404 32.6115C9.77055 32.8576 9.65637 32.8682 9.30084 32.6697C9.0569 32.5347 8.90639 32.2807 8.98683 32.0161C9.05171 31.8017 9.16071 31.5715 9.31382 31.4154C10.082 30.6374 10.8735 29.8833 11.6546 29.1159C11.9063 28.8698 11.9037 28.7957 11.7039 28.5205C11.2913 27.9542 10.8839 27.3853 10.4583 26.7926C9.99114 27.0307 9.52402 27.2662 9.06209 27.5044C7.06905 28.5284 5.07602 29.5552 3.08298 30.5819C3.05962 30.5951 3.03627 30.6057 3.01291 30.6189C2.49908 30.8915 2.56655 30.9814 2.25774 30.3516C2.13058 30.095 2.00601 29.8356 1.86588 29.5472C2.32002 29.3144 2.76638 29.0762 3.21793 28.8539C5.14868 27.9066 7.08203 26.9619 9.01278 26.0146C9.21261 25.9167 9.40205 25.7976 9.5889 25.6759C9.78094 25.5489 9.82246 25.3663 9.73422 25.1546C9.34236 24.2046 9.13995 23.2096 9.07507 22.1829C9.07247 22.1379 9.06988 22.093 9.0595 22.048C9.04133 21.9606 9.01798 21.8733 8.98424 21.7304C8.50674 21.7304 8.02146 21.7304 7.53617 21.7304C7.01975 21.7304 6.50592 21.7384 5.98949 21.7331C5.17982 21.7251 5.14089 21.0927 5.38743 20.582C5.45231 20.4497 5.68587 20.3306 5.84417 20.328C6.73169 20.3121 7.61922 20.328 8.50934 20.3412C8.86487 20.3465 8.98164 20.2539 9.02317 19.886C9.14514 18.817 9.30603 17.7559 9.74979 16.7636C9.87176 16.491 9.81467 16.3746 9.52662 16.229C7.08722 14.9986 4.64783 13.7708 2.20843 12.5429C1.88923 12.3815 1.88664 12.3842 2.04234 12.064C2.16172 11.8205 2.2785 11.5797 2.39268 11.3336C2.47573 11.1537 2.57174 11.0981 2.76638 11.1987C5.1383 12.4212 7.51541 13.6384 9.89252 14.8557C9.99633 14.9086 10.0949 14.9695 10.2013 15.0118C10.383 15.0859 10.5387 15.0621 10.6685 14.8848C11.0136 14.4138 11.3691 13.9507 11.7195 13.4823C11.9193 13.2177 11.9063 13.1172 11.6676 12.8816C10.8683 12.0957 10.0638 11.3178 9.27489 10.5213C8.90898 10.1534 8.90639 9.77768 9.2178 9.47867C9.52662 9.1823 9.94702 9.20876 10.2844 9.54482C11.0655 10.3228 11.8466 11.1008 12.6278 11.8787C12.8821 12.1328 13.0041 12.1275 13.2895 11.9026C13.6969 11.5824 14.1148 11.2754 14.53 10.9658C14.7999 10.7647 14.8362 10.6562 14.6883 10.3493C13.9357 8.77479 13.1935 7.19502 12.4227 5.62849C11.9375 4.64412 11.4133 3.68091 10.9046 2.70977C10.889 2.67801 10.8839 2.64097 10.8761 2.61186C11.2524 2.40281 11.6183 2.19376 11.992 1.99795C12.1632 1.90798 12.2203 2.04558 12.28 2.17524C12.7419 3.1702 13.1987 4.17045 13.6736 5.16012C14.4262 6.72665 15.1917 8.28524 15.9495 9.84648C16.0481 10.0476 16.1753 10.1111 16.401 10.0476C17.1692 9.82796 17.9399 9.62156 18.7133 9.42839C18.9261 9.37547 19.1518 9.37017 19.3724 9.35959C19.7228 9.34107 19.7591 9.30667 19.7617 8.93885C19.7669 8.03386 19.7669 7.12622 19.785 6.22123C19.7928 5.90369 19.9018 5.60732 20.2029 5.45384C20.4676 5.31889 20.7426 5.3824 20.9399 5.58351C21.067 5.71052 21.1786 5.91692 21.1864 6.09157C21.2201 6.76899 21.2124 7.44906 21.2175 8.12912C21.2175 8.40961 21.2175 8.69011 21.2175 8.9706C21.2175 9.20082 21.3239 9.32254 21.5549 9.33313C22.567 9.37811 23.5324 9.63214 24.477 9.98938C24.7443 10.0899 24.8922 9.99202 25.009 9.75387C25.5721 8.60543 26.1456 7.46493 26.7062 6.3165C27.3679 4.95636 28.0219 3.59359 28.6785 2.23081C28.7174 2.15143 28.7615 2.07469 28.8186 1.96884C29.2572 2.18583 29.6828 2.39487 30.1421 2.62244C30.0331 2.83678 29.9293 3.04054 29.8281 3.24694C28.6655 5.59409 27.5029 7.94124 26.3429 10.2884C26.1534 10.6694 26.1975 10.7779 26.5505 11.0267C26.9657 11.3178 27.3783 11.6168 27.7909 11.9184C28.0297 12.0931 28.1465 12.0878 28.393 11.847C29.1378 11.1219 29.8774 10.3889 30.6248 9.66654C30.7519 9.54482 30.9051 9.44162 31.0608 9.36224C31.3748 9.20082 31.6083 9.25904 31.8445 9.52894C32.0391 9.74858 32.091 10.0079 31.8808 10.2699C31.5357 10.7012 31.1438 11.0981 30.7571 11.4924C30.2796 11.9767 29.7866 12.4503 29.2909 12.916C29.0911 13.1039 29.0989 13.2627 29.2598 13.4744C29.566 13.874 29.8514 14.2868 30.1447 14.6969C30.4172 15.0753 30.5599 15.115 30.9751 14.9033C33.3548 13.694 35.7319 12.4847 38.1117 11.2754C38.4516 11.1034 38.4542 11.1061 38.6229 11.458C38.7682 11.765 38.9213 12.0693 39.0822 12.3974C38.3634 12.7573 37.6549 13.1039 36.949 13.4612C35.0832 14.4058 33.2199 15.3558 31.354 16.3031C31.1698 16.3958 31.1127 16.5254 31.1957 16.7212C31.6057 17.695 31.7978 18.7217 31.9223 19.7643C31.995 20.3624 32.008 20.365 32.6126 20.3571C33.4301 20.3465 34.245 20.3306 35.0624 20.3174C35.3427 20.3121 35.5607 20.4179 35.6956 20.6825C35.828 20.9419 35.8046 21.188 35.6645 21.4288C35.5321 21.6537 35.3271 21.7304 35.078 21.7304C34.1905 21.7278 33.3003 21.7304 32.4128 21.7304C32.2649 21.7304 32.1144 21.749 32.0132 21.7569C31.8601 22.5984 31.7251 23.4081 31.5616 24.2099C31.4993 24.5168 31.3748 24.8106 31.271 25.1096C31.1386 25.4853 31.1749 25.5938 31.5357 25.7711C32.6905 26.3453 33.8479 26.9143 35.0027 27.4858C36.2536 28.1051 37.5044 28.7243 38.7552 29.3435C39.1263 29.526 39.1237 29.5234 38.9421 29.8939C38.7838 30.2167 38.6333 30.5422 38.4724 30.8835C37.8599 30.5766 37.2605 30.2855 36.6688 29.9785C34.7432 28.9783 32.8202 27.9701 30.8947 26.9646C30.5677 26.7926 30.4587 26.8349 30.2537 27.1339C29.9552 27.5705 29.6412 27.9992 29.3298 28.4279C29.117 28.7216 29.1274 28.8513 29.3843 29.1053C30.181 29.8939 30.9803 30.6798 31.7718 31.4736C32.1403 31.8414 32.1507 32.1166 31.8289 32.5109C31.6083 32.7782 31.1905 32.8258 30.8687 32.5533C30.4068 32.159 29.976 31.725 29.54 31.299C29.1248 30.8915 28.7174 30.4734 28.3151 30.05C28.1776 29.9044 28.0375 29.8886 27.8895 29.9918C27.3653 30.3622 26.8385 30.7327 26.3299 31.127C26.2546 31.1878 26.2183 31.4048 26.2624 31.5054C26.5141 32.0822 26.7944 32.6432 27.0669 33.2095C27.4406 33.9875 27.8039 34.7734 28.1906 35.5461C28.7511 36.6654 29.3272 37.7742 29.8956 38.8882C30.1499 39.383 30.1499 39.383 29.6568 39.6423C29.3973 39.7799 29.1378 39.9123 28.8549 40.0631L28.8601 40.0578ZM30.63 20.2803C30.2744 14.9589 25.6059 10.0661 19.2271 10.7382C14.3639 11.249 10.5439 15.676 10.409 20.2618C10.6373 20.2777 10.8657 20.3068 11.0941 20.3068C15.0568 20.3094 19.0195 20.3041 22.9822 20.3121C25.2477 20.3174 27.5133 20.3438 29.7762 20.3544C30.0539 20.3544 30.3341 20.3094 30.6274 20.283L30.63 20.2803ZM30.6689 21.7675C30.4379 21.7516 30.2277 21.7251 30.0201 21.7251C25.5514 21.7251 21.0852 21.7251 16.6164 21.7251C14.7428 21.7251 12.8665 21.7251 10.9928 21.7251C10.8942 21.7251 10.7982 21.7304 10.6996 21.7357C10.5179 21.749 10.4245 21.8416 10.4479 22.0374C10.492 22.4052 10.5076 22.7783 10.5854 23.1382C11.2627 26.1786 12.921 28.4914 15.5966 30.0103C17.5247 31.1058 19.5852 31.5848 21.7911 31.172C22.7487 30.992 23.7114 30.8333 24.6145 30.4363C27.2148 29.2905 28.8964 27.2636 29.9604 24.6465C30.3315 23.7362 30.521 22.7704 30.6663 21.7648L30.6689 21.7675Z" fill="#FFEB61"/>
<path d="M19.7617 40.3304C19.7617 39.8779 19.7643 39.4254 19.7617 38.9755C19.7617 38.7003 19.8473 38.4674 20.1042 38.3563C20.3975 38.2293 20.7323 38.1737 20.9866 38.3934C21.1241 38.5124 21.2046 38.7718 21.2098 38.9702C21.2357 39.8726 21.2227 40.7776 21.2279 41.6799C21.2279 41.8651 21.1605 41.9657 20.9658 41.9683C20.657 41.971 20.3456 41.9763 20.0368 41.9974C19.8214 42.0133 19.7591 41.9154 19.7617 41.7117C19.7695 41.2512 19.7617 40.7908 19.7617 40.3277V40.3304Z" fill="#FFEB61"/>
<path d="M20.4805 8.95321e-05C20.9598 -0.00520281 21.1994 0.224132 21.1994 0.688094C21.1994 1.45548 21.215 2.22552 21.1942 2.99291C21.1786 3.56713 20.7141 3.8635 20.1899 3.66768C19.9382 3.57242 19.7902 3.38983 19.7876 3.11992C19.7799 2.16995 19.785 1.21997 19.7799 0.272645C19.7799 0.100644 19.8577 0.0291974 20.0212 0.0239051C20.1899 0.0212589 20.3586 0.00802804 20.4805 8.95321e-05Z" fill="#FFEB61"/>
<path d="M39.3391 20.3068C39.7751 20.3068 40.2085 20.3068 40.6445 20.3068C40.9299 20.3068 40.9974 20.3968 40.987 20.6878C40.9792 20.9313 40.9844 21.1747 40.9974 21.4182C41.0078 21.6272 40.9507 21.741 40.7197 21.7384C39.8945 21.7304 39.0692 21.7357 38.2414 21.7225C38.0701 21.7198 37.8833 21.6907 37.7328 21.6166C37.4188 21.4605 37.3357 21.1853 37.4343 20.7858C37.5122 20.4709 37.7172 20.3121 38.0572 20.3121C38.4827 20.3121 38.9109 20.3121 39.3365 20.3121L39.3391 20.3068Z" fill="#FFEB61"/>
<path d="M0 21.6881C0 21.3044 0 20.9339 0 20.5635C0 20.3703 0.13235 20.3094 0.280271 20.3094C1.2197 20.3121 2.16172 20.3174 3.10115 20.3412C3.40218 20.3491 3.63574 20.6878 3.62795 21.0477C3.62017 21.4155 3.39958 21.7119 3.09596 21.7146C2.08387 21.7225 1.07178 21.7146 0.0622824 21.7146C0.0467118 21.7146 0.0311412 21.7013 0 21.6881Z" fill="#FFEB61"/>
<path d="M33.5936 8.4546C33.2614 8.38845 32.9759 8.32229 32.8488 8.02063C32.7138 7.70573 32.758 7.39349 32.9967 7.14739C33.4612 6.6605 33.9413 6.18948 34.4136 5.71052C34.5122 5.60997 34.5875 5.62584 34.6809 5.72375C34.943 5.99631 35.2077 6.26357 35.4776 6.52554C35.5918 6.63668 35.5685 6.71607 35.4646 6.81662C34.9664 7.29558 34.4785 7.78247 33.9751 8.25349C33.8635 8.35669 33.7 8.40432 33.5936 8.45989V8.4546Z" fill="#FFEB61"/>
<path d="M34.4422 36.4405C33.9699 35.9324 33.482 35.4111 32.9993 34.8845C32.7061 34.567 32.719 34.1516 33.0175 33.8446C33.3496 33.5032 33.6429 33.4821 33.9932 33.8049C34.4603 34.2336 34.9093 34.6808 35.3712 35.1174C35.5243 35.2629 35.5477 35.39 35.3816 35.5461C35.0598 35.8425 34.7484 36.1494 34.4422 36.4405Z" fill="#FFEB61"/>
<path d="M6.48775 5.59938C6.61232 5.71846 6.71612 5.81372 6.81474 5.91428C7.22476 6.34031 7.63219 6.7637 8.03703 7.19502C8.3718 7.55226 8.31989 7.94389 7.90987 8.21644C7.5725 8.44137 7.27407 8.47312 7.06646 8.29318C6.89518 8.145 6.7291 7.99152 6.5682 7.83275C6.23084 7.49933 5.90126 7.16062 5.56649 6.82456C5.47307 6.73194 5.41338 6.64197 5.53276 6.52819C5.84676 6.22388 6.15817 5.91957 6.49035 5.59674L6.48775 5.59938Z" fill="#FFEB61"/>
<path d="M7.39604 33.6038C7.77233 33.6541 8.00848 33.7864 8.14083 34.0801C8.26799 34.3606 8.2109 34.6199 8.01367 34.8316C7.54136 35.3344 7.05089 35.8186 6.57339 36.3161C6.47218 36.422 6.39433 36.3955 6.30609 36.3055C6.05177 36.0409 5.79226 35.7816 5.53535 35.5196C5.42895 35.4111 5.41598 35.3106 5.53535 35.1968C6.02842 34.7311 6.5137 34.2521 7.01715 33.7943C7.13393 33.6885 7.3078 33.6461 7.39863 33.6038H7.39604Z" fill="#FFEB61"/>
</svg>
