<svg width="46" height="30" viewBox="0 0 46 30" fill="none" xmlns="http://www.w3.org/2000/svg">
<path d="M28.6737 7.80654C31.7091 9.41283 33.6399 11.8397 34.5831 15.0681C34.6211 15.0586 34.6496 15.0618 34.6686 15.046C35.9568 14.0068 37.2292 12.9422 38.2136 11.5926C38.5016 11.1965 38.7359 10.7498 38.9258 10.2936C39.103 9.86272 38.9416 9.54273 38.5206 9.33046C37.8686 9.00096 37.1596 8.91542 36.4443 8.89008C35.0262 8.83938 33.6335 9.04215 32.244 9.28611C31.8642 9.35264 31.6458 9.22591 31.5857 8.90909C31.516 8.54791 31.6901 8.26593 32.0478 8.20574C33.5829 7.94911 35.1212 7.71466 36.6816 7.81921C37.2799 7.8604 37.8749 7.9998 38.4637 8.13604C38.7295 8.19623 38.9859 8.3388 39.2233 8.48454C39.9513 8.93126 40.2204 9.6061 40.0178 10.4393C39.8405 11.168 39.4512 11.7858 38.9954 12.3656C37.4729 14.2887 35.5991 15.8095 33.5513 17.1306C29.9303 19.4625 26.0117 21.1733 21.9698 22.6149C19.4661 23.5051 16.9244 24.2687 14.3226 24.8104C12.8413 25.1178 11.3505 25.3364 9.83117 25.273C9.09684 25.2413 8.37517 25.1336 7.70415 24.7978C6.68495 24.2877 6.29246 23.4133 6.61848 22.3202C6.87486 21.4585 7.34964 20.7108 7.88456 20.0011C8.96074 18.5722 10.1793 17.2796 11.5435 16.1232C11.8537 15.8602 12.1006 15.8443 12.3285 16.0788C12.5849 16.3481 12.5722 16.6491 12.2779 16.9342C11.6385 17.5489 10.9833 18.1445 10.3598 18.7718C9.47034 19.6652 8.66321 20.6284 8.04283 21.7309C7.86241 22.0509 7.7263 22.3994 7.62185 22.7543C7.49208 23.1946 7.62502 23.502 8.00801 23.7586C8.48279 24.0786 9.03037 24.1641 9.58112 24.1958C11.0371 24.2814 12.4646 24.0691 13.8858 23.7934C14.5758 23.6604 15.2595 23.4861 15.9464 23.3309C16.0255 23.3119 16.0983 23.2834 16.1426 23.2675C16.0033 22.7923 15.8229 22.3424 15.7406 21.8767C15.5982 21.0783 15.7185 20.3021 16.1932 19.6209C16.6205 19.0062 17.2156 18.6863 17.9753 18.7338C18.7412 18.7813 19.2477 19.209 19.5484 19.887C19.6718 20.1658 19.7478 20.4668 19.8047 20.7678C19.8649 21.0814 19.656 21.3444 19.3553 21.4046C19.1021 21.4553 18.8615 21.2905 18.7697 20.9959C18.7033 20.7805 18.6684 20.5523 18.583 20.3464C18.3456 19.7666 17.7505 19.6272 17.2821 20.0423C16.7788 20.4858 16.7028 21.0751 16.8168 21.6834C16.8833 22.0446 17.0415 22.3867 17.1555 22.7384C17.2188 22.9349 17.3264 22.9729 17.5226 22.9063C18.8552 22.4755 20.2004 22.0921 21.5203 21.6295C25.0717 20.3781 28.5091 18.8732 31.7629 16.9659C32.3326 16.6332 32.8802 16.2657 33.4436 15.9204C33.5766 15.838 33.6399 15.7493 33.5924 15.5909C33.4785 15.2012 33.3645 14.8115 33.2601 14.4186C33.1999 14.1905 33.0543 14.1113 32.8264 14.0955C32.2535 14.0511 31.7249 14.2 31.2596 14.5169C30.8355 14.8083 30.4399 15.1378 30.0569 15.48C29.6232 15.8697 29.2466 15.8792 28.8319 15.4578C28.6673 15.2899 28.5122 15.1157 28.3508 14.9414C28.0343 14.5992 27.971 14.2507 28.221 13.8547C28.392 13.5822 28.6357 13.3573 28.8383 13.107C28.949 12.9676 29.0693 12.825 29.1421 12.6634C29.4048 12.09 29.1738 11.6433 28.5566 11.4944C27.9014 11.336 27.2113 11.6433 26.9423 12.3276C26.7049 12.9359 26.5846 13.5917 26.4327 14.2317C26.2618 14.9319 26.1542 15.6543 25.9421 16.3386C25.5749 17.5172 24.7266 18.1128 23.4985 18.1698C23.22 18.1825 22.9383 18.2015 22.6629 18.1762C22.3717 18.1477 22.2071 17.9385 22.204 17.6629C22.2008 17.3999 22.3749 17.1687 22.6503 17.1306C22.9003 17.0958 23.1535 17.1053 23.4068 17.0926C24.2234 17.0546 24.7456 16.6934 24.9545 15.9014C25.1793 15.046 25.3375 14.1747 25.5116 13.3066C25.6667 12.5367 25.8756 11.789 26.4169 11.1902C27.0246 10.5154 27.7811 10.2112 28.6832 10.4045C30.2246 10.7308 30.8165 12.2516 29.9113 13.541C29.7562 13.7628 29.5726 13.9624 29.3922 14.1652C29.3004 14.2666 29.2434 14.3743 29.3732 14.4567C29.4302 14.4947 29.5694 14.4662 29.6359 14.4186C29.8543 14.2571 30.0505 14.067 30.2594 13.8991C30.9463 13.3414 31.7154 13.0119 32.6618 13.0373C31.8009 11.6528 30.8102 10.4457 29.4903 9.54273C27.876 8.43385 26.0845 7.8509 24.1284 7.8002C19.8965 7.68615 16.5731 10.2112 15.1424 12.9232C15.2595 12.9042 15.3513 12.8916 15.4431 12.8757C16.63 12.6666 18.0006 13.2686 18.6178 14.2634C19.1369 15.0998 18.9596 15.9521 18.1493 16.5128C16.9339 17.3588 15.2817 17.0356 14.3638 15.7746C14.3131 15.7049 14.2625 15.6321 14.1643 15.4958C14.1137 15.8919 14.0567 16.2182 14.0282 16.5445C13.8795 18.3061 14.0599 20.0296 14.6328 21.7056C14.6961 21.8925 14.7499 22.0858 14.7752 22.2822C14.8069 22.5357 14.6581 22.6941 14.4334 22.7733C14.2055 22.8525 13.9998 22.7955 13.8636 22.5863C13.8003 22.4881 13.7465 22.3836 13.7054 22.2727C12.664 19.3484 12.5564 16.3956 13.6832 13.4904C14.829 10.5376 17.013 8.57008 19.9535 7.4517C22.4604 6.49806 24.9957 6.4442 27.5342 7.35348C27.6007 7.37883 27.6703 7.39784 27.7336 7.41685C27.7589 7.40101 27.7842 7.39784 27.7874 7.38517C27.9045 6.9131 28.2654 6.77053 28.6927 6.65647C31.4274 5.92778 34.1906 5.34166 37.0013 5.00582C38.9163 4.77454 40.8407 4.66682 42.7525 4.99632C43.3507 5.10087 43.9521 5.27512 44.506 5.52224C45.7975 6.09886 46.2279 7.07468 45.8703 8.44969C45.655 9.2766 45.2467 10.0085 44.7783 10.7086C43.6926 12.3339 42.3537 13.7406 40.9547 15.0966C39.3404 16.6586 37.5932 18.0589 35.7669 19.3643C35.5612 19.51 35.4789 19.6621 35.4757 19.9155C35.4472 22.3772 34.5483 24.5 32.9056 26.3059C31.0887 28.2987 28.8667 29.566 26.17 29.9081C23.5239 30.244 21.0962 29.6262 18.8742 28.1656C18.5956 27.9818 18.3203 27.7886 18.0639 27.5795C17.9056 27.4496 17.7632 27.4401 17.5669 27.4813C15.7343 27.8868 13.908 28.3304 12.0626 28.663C9.79319 29.0717 7.49841 29.2808 5.18464 29.1383C4.23191 29.0812 3.29817 28.9387 2.41825 28.549C1.08886 27.9597 0.588755 26.8983 0.984406 25.498C1.27244 24.481 1.83268 23.6065 2.45623 22.7701C3.68117 21.1258 5.12134 19.6747 6.57733 18.2427C7.24836 17.5837 7.93204 16.9374 8.6094 16.2879C8.82463 16.082 9.10317 16.0281 9.3279 16.1485C9.56213 16.2752 9.66974 16.4843 9.6191 16.7378C9.59378 16.874 9.49882 17.0198 9.3912 17.1116C7.30533 18.9239 5.37455 20.8882 3.62419 23.0267C3.0228 23.7618 2.47522 24.538 2.11439 25.4283C2.10173 25.4631 2.08906 25.4948 2.0764 25.5296C1.67126 26.629 1.92764 27.2151 3.01964 27.6428C3.9597 28.0104 4.95358 28.0832 5.94746 28.1054C7.94154 28.1529 9.91663 27.9343 11.8791 27.6048C17.1903 26.7114 22.2736 25.0576 27.1892 22.8873C30.5538 21.4014 33.7507 19.605 36.6722 17.3524C39.1284 15.461 41.4073 13.3731 43.3096 10.9082C43.7939 10.2841 44.1737 9.57441 44.5694 8.89008C44.7118 8.64612 44.7941 8.35464 44.8605 8.07584C45.022 7.37883 44.8099 6.90993 44.18 6.55826C43.5945 6.22876 42.9488 6.09569 42.2904 6.01649C40.5938 5.80738 38.9005 5.91511 37.2071 6.09253C34.4154 6.384 31.6806 6.96696 28.9775 7.70516C28.8921 7.72733 28.8098 7.75902 28.661 7.80971L28.6737 7.80654ZM23.4669 28.7549C23.4827 28.7866 23.4985 28.8151 23.5175 28.8468C26.3156 29.1287 28.8446 28.4698 31.0254 26.6195C32.9657 24.9752 34.2128 22.9507 34.4154 20.283C34.0704 20.4858 33.7792 20.6379 33.5069 20.8248C33.4057 20.8945 33.3139 21.0307 33.2854 21.1511C33.1904 21.582 33.0575 21.9876 32.7505 22.317C32.1269 22.9887 31.4147 23.1566 30.5665 22.805C30.3006 22.6941 30.0822 22.6846 29.8321 22.8461C29.5663 23.0172 29.2751 23.144 28.9902 23.2834C28.6104 23.4671 28.2274 23.6414 27.8412 23.822C27.8982 24.1166 28.0343 24.2655 28.335 24.3194C28.6768 24.3827 29.025 24.4841 29.332 24.6425C29.9967 24.9879 30.3069 25.7736 30.1233 26.4928C29.9904 27.0124 29.3384 27.5922 28.5724 27.5098C28.2305 27.4749 27.8887 27.4401 27.5563 27.3609C26.2206 27.0472 25.0305 27.3165 23.9955 28.2258C23.8087 28.3905 23.641 28.5775 23.4669 28.7549ZM26.7777 24.3447C24.2265 25.2572 21.6944 26.1601 19.1401 27.0726C20.0959 27.6872 21.074 28.248 22.1692 28.5553C22.2325 28.5743 22.3464 28.5141 22.3939 28.4539C22.5616 28.2416 22.6851 27.9914 22.8718 27.7981C24.1917 26.4389 25.7838 25.9162 27.6545 26.2837C27.9805 26.347 28.3128 26.3946 28.642 26.4231C28.8762 26.4421 29.0408 26.3027 29.0978 26.0777C29.1579 25.8306 29.0092 25.6785 28.7939 25.6025C28.5471 25.517 28.2907 25.4568 28.0406 25.3839C27.6007 25.254 27.186 25.0797 26.9455 24.652C26.879 24.5348 26.8189 24.4176 26.7777 24.3415V24.3447ZM15.7913 13.9181C15.5729 13.9656 15.2468 14.0353 14.924 14.1018C14.7847 14.1303 14.7594 14.2127 14.8005 14.3426C14.9588 14.8273 15.2025 15.2487 15.6235 15.5497C16.2186 15.9742 16.8991 16.0091 17.4752 15.6511C17.8993 15.3881 17.9531 15.1347 17.6302 14.7481C17.184 14.2127 16.5921 13.9592 15.7881 13.9149L15.7913 13.9181ZM31.4306 21.9876C31.4496 22.0256 31.4717 22.0636 31.4907 22.1016C31.649 22.0097 31.8072 21.9147 31.9686 21.8228C31.9528 21.7943 31.937 21.7658 31.9212 21.7373C31.7566 21.8196 31.5952 21.9052 31.4306 21.9876Z" fill="#FFEB61"/>
<path d="M21.2291 13.728C20.403 13.6963 19.5484 13.3193 18.9248 12.4892C18.507 11.9347 18.4722 11.3993 18.8457 10.8005C19.4218 9.8754 20.2795 9.41283 21.3557 9.40333C22.2768 9.39383 23.0871 9.72332 23.7581 10.3665C24.5399 11.1173 24.5367 12.0393 23.7518 12.7838C23.0966 13.4048 22.2958 13.7311 21.2323 13.728H21.2291ZM21.5108 12.6539C22.1407 12.6381 22.7009 12.3593 23.1345 11.8175C23.277 11.6401 23.2707 11.4754 23.1251 11.3074C22.1407 10.1764 20.634 10.2239 19.8206 11.2884C19.618 11.5546 19.6085 11.6433 19.8301 11.8999C20.2574 12.391 20.7986 12.6381 21.5108 12.6539Z" fill="#FFEB61"/>
<path d="M4.34269 16.0725C3.26969 16.0725 2.42141 15.2392 2.42141 14.1779C2.42141 13.1038 3.26969 12.2579 4.35219 12.2611C5.44735 12.2611 6.2798 13.0943 6.27664 14.181C6.27664 15.2265 5.40937 16.0756 4.34586 16.0756L4.34269 16.0725ZM4.35536 14.9826C4.81748 14.9794 5.18781 14.6151 5.18781 14.162C5.18781 13.7058 4.81431 13.3414 4.35219 13.3478C3.87424 13.3509 3.49442 13.7248 3.50391 14.1842C3.51024 14.6341 3.89007 14.9889 4.35536 14.9858V14.9826Z" fill="#FFEB61"/>
<path d="M37.3843 1.19761C37.3812 0.535445 37.8876 0.0031823 38.5238 1.40714e-05C39.16 -0.00315416 39.6981 0.529109 39.7108 1.16592C39.7234 1.82492 39.2075 2.34134 38.527 2.34767C37.8813 2.35401 37.3875 1.85977 37.3843 1.19761Z" fill="#FFEB61"/>
<path d="M1.13634 19.5227C1.13001 19.8648 0.914772 20.0834 0.582425 20.0834C0.243747 20.0834 -0.00630434 19.8173 0.00319129 19.4751C0.0126869 19.1647 0.272234 18.927 0.595086 18.9397C0.908441 18.9492 1.14267 19.2058 1.1395 19.5258L1.13634 19.5227Z" fill="#FFEB61"/>
<path d="M10.23 10.1542C10.23 10.4615 9.97044 10.7308 9.67291 10.7372C9.35322 10.7435 9.08735 10.4774 9.09051 10.1574C9.09051 9.84688 9.35006 9.59026 9.66025 9.59659C9.9831 9.60293 10.2332 9.84688 10.2332 10.1574L10.23 10.1542Z" fill="#FFEB61"/>
<path d="M33.8709 3.4724C33.8709 3.79873 33.6051 4.06169 33.2854 4.05852C33.01 4.05852 32.7505 3.77972 32.7441 3.48507C32.7378 3.18726 33.01 2.90212 33.3044 2.89895C33.6051 2.89261 33.8709 3.16508 33.8678 3.4724H33.8709Z" fill="#FFEB61"/>
<path d="M15.4811 6.92894C15.7976 6.92894 16.0571 7.20141 16.0508 7.52774C16.0445 7.82872 15.8039 8.06317 15.5096 8.05366C15.1994 8.04733 14.924 7.78753 14.9145 7.49289C14.905 7.1824 15.1582 6.92894 15.4811 6.92577V6.92894Z" fill="#FFEB61"/>
<path d="M20.1434 3.19042C20.1498 2.86726 20.3966 2.61697 20.7037 2.62331C21.0139 2.62965 21.2418 2.86726 21.2386 3.17775C21.2354 3.51358 20.998 3.75437 20.6847 3.74487C20.3745 3.73536 20.1403 3.49458 20.1434 3.19042Z" fill="#FFEB61"/>
<path d="M27.1892 4.52425C26.42 4.52425 25.8155 3.92862 25.8155 3.16825C25.8155 2.40153 26.4232 1.7964 27.1955 1.7964C27.9773 1.7964 28.5724 2.39203 28.5724 3.16825C28.5724 3.91595 27.952 4.52108 27.1923 4.52425H27.1892ZM27.1987 3.74487C27.531 3.7417 27.7937 3.4819 27.7937 3.15557C27.7937 2.82925 27.5279 2.56945 27.1987 2.57262C26.8568 2.57579 26.5846 2.84192 26.591 3.17142C26.5973 3.49458 26.8663 3.74803 27.1987 3.74487Z" fill="#FFEB61"/>
</svg>
