<svg width="44" height="34" viewBox="0 0 44 34" fill="none" xmlns="http://www.w3.org/2000/svg">
<path d="M34.5217 14.2247C34.0359 14.6489 33.5535 15.0766 33.0644 15.4973C32.4796 15.9986 31.8951 16.4929 31.3003 16.9834C31.1728 17.091 31.0178 17.1943 30.8582 17.2242C30.5945 17.2752 30.3525 17.1805 30.2263 16.915C30.0968 16.6459 30.1462 16.3894 30.3729 16.1978C30.9186 15.7336 31.4809 15.2874 32.0268 14.8162C35.1035 12.1645 38.0834 9.40868 40.5244 6.12688C41.1437 5.2919 41.6587 4.37693 42.1936 3.48351C42.3283 3.25757 42.389 2.97004 42.4353 2.70298C42.5151 2.24518 42.3336 1.98147 41.8853 1.86982C41.1939 1.69827 40.505 1.78136 39.8182 1.90287C38.0841 2.21135 36.4342 2.80142 34.8034 3.4444C33.3228 4.02581 31.8547 4.64947 30.3838 5.25211C30.3559 5.2617 30.3344 5.28544 30.2992 5.30875C30.9391 6.02267 31.6111 6.70621 32.2088 7.44672C32.803 8.18711 33.3265 8.98458 33.8986 9.7731C33.9198 9.75633 33.9828 9.72691 34.0223 9.67584C34.7516 8.74316 35.4912 7.81429 36.2002 6.86704C36.3981 6.60471 36.5119 6.27699 36.6557 5.97811C36.7589 5.76514 36.6664 5.63671 36.4492 5.63341C36.2114 5.62598 35.9564 5.61801 35.7335 5.68776C34.7929 5.98616 33.8588 6.29871 32.9343 6.63597C32.6447 6.742 32.455 6.73956 32.2667 6.47563C32.1146 6.26514 31.9237 6.08133 31.7006 5.82678C32.6706 5.47002 33.593 5.09085 34.5369 4.79604C35.1151 4.61534 35.7346 4.54752 36.3347 4.44073C36.4595 4.42022 36.5968 4.44195 36.7238 4.45987C37.6068 4.57114 38.0616 5.2479 37.8378 6.11966C37.6298 6.92565 37.1775 7.60196 36.7017 8.26011C35.4255 10.0265 33.9381 11.5981 32.3134 13.0398C31.4442 13.8112 30.5617 14.5717 29.6758 15.3251C29.3463 15.6043 29.0057 15.5797 28.7662 15.2967C28.6264 15.1319 28.5596 14.952 28.6595 14.7354C28.7741 14.4914 28.7708 14.2647 28.5632 14.0664C28.3387 13.8536 28.0825 13.7759 27.7863 13.8712C27.4169 13.9922 27.1731 14.288 27.1915 14.6931C27.2706 16.467 25.5693 17.9307 24.2526 18.1232C23.9512 18.1661 23.6311 18.1456 23.3253 18.1082C22.5933 18.0225 22.0357 18.427 21.9975 19.0989C21.9739 19.5235 22.1457 19.7626 22.5526 19.8764C23.0896 20.0222 23.2347 20.5672 22.8386 20.9907C22.646 21.1939 22.4164 21.3681 22.1969 21.5461C18.8463 24.245 15.2922 26.6133 11.3668 28.3876C10.0689 28.9747 8.74217 29.4877 7.31621 29.6454C6.90788 29.6884 6.46813 29.6329 6.07147 29.5228C5.39099 29.3342 4.99158 28.7603 5.05169 28.0508C5.09493 27.55 5.17683 27.026 5.38061 26.5756C5.80248 25.6577 6.31953 24.7847 6.78577 23.8821C6.84072 23.7792 6.84584 23.6155 6.80442 23.5061C6.2213 21.9675 5.83612 20.3863 5.68743 18.7427C5.4485 16.1234 5.85497 13.601 6.94345 11.2184C8.74983 7.27517 11.6364 4.41528 15.6614 2.87421C20.3181 1.09483 24.7722 1.71522 28.9584 4.39857C29.1173 4.50117 29.2373 4.52236 29.4227 4.44097C32.1061 3.22413 34.815 2.07782 37.6321 1.22084C38.6942 0.898339 39.7717 0.632117 40.8864 0.611152C41.266 0.605577 41.6554 0.617742 42.0257 0.688593C43.3219 0.931343 43.8605 1.79554 43.5508 3.09701C43.3602 3.90006 42.9688 4.61314 42.5369 5.30055C41.2595 7.32849 39.6894 9.11713 38.0288 10.8227C37.2876 11.5842 36.5063 12.306 35.7316 13.035C35.5716 13.1869 35.5264 13.3111 35.5781 13.5324C36.6231 17.7286 36.1495 21.7379 33.8821 25.4227C31.2694 29.672 27.4499 32.1436 22.5174 32.7043C19.3641 33.0626 16.4233 32.2489 13.704 30.6366C13.3112 30.4046 13.0243 30.4235 12.6389 30.6172C10.6664 31.5982 8.63642 32.431 6.50458 32.9921C5.53785 33.2443 4.56241 33.444 3.5585 33.451C2.96852 33.457 2.39493 33.3798 1.85446 33.1258C0.970644 32.7111 0.599925 31.9916 0.737329 31.016C0.861348 30.1377 1.17992 29.3247 1.56321 28.5381C2.58763 26.4395 3.89605 24.5241 5.34303 22.7002C5.36102 22.6764 5.38902 22.6633 5.43157 22.6263C5.57886 22.9901 5.74037 23.3403 5.85665 23.7031C5.88796 23.8052 5.80692 23.9701 5.7313 24.0723C4.65175 25.5067 3.64971 26.9992 2.8406 28.6094C2.48749 29.3132 2.24313 30.0693 1.95118 30.8029C1.9362 30.8408 1.93144 30.8825 1.92336 30.9206C1.78461 31.7183 2.02559 32.064 2.81474 32.1968C3.75829 32.3553 4.68074 32.1958 5.59448 31.9838C8.24514 31.3761 10.7205 30.3062 13.1127 29.0315C16.3327 27.3118 19.3358 25.2471 22.2567 23.0543C22.4757 22.8903 22.6913 22.7227 22.9135 22.5658C23.2415 22.3354 23.5439 22.3727 23.766 22.6586C23.9947 22.9552 23.9685 23.2438 23.6293 23.5017C22.6932 24.2083 21.7507 24.9006 20.8013 25.5893C18.8357 27.0134 16.7879 28.3059 14.6909 29.5202C14.5995 29.5731 14.5113 29.6366 14.3669 29.7332C14.9108 29.9873 15.393 30.229 15.8865 30.4432C22.6684 33.3925 29.3473 30.2571 32.6225 25.2229C34.1986 22.7998 34.9958 20.1362 34.9072 17.2321C34.8764 16.2304 34.7247 15.2353 34.6317 14.2386C34.5938 14.2374 34.5561 14.2292 34.5182 14.228L34.5217 14.2247ZM29.7982 13.6168C29.8294 13.6108 29.8535 13.6115 29.8677 13.6015C30.8684 12.7017 31.8657 11.8018 32.8665 10.9021C32.98 10.801 33.0036 10.7076 32.922 10.5621C31.8697 8.69496 30.5906 7.02304 28.8468 5.76202C25.5481 3.37491 21.912 2.51506 17.9248 3.40174C15.358 3.97363 13.1485 5.2541 11.2594 7.09903C7.77973 10.5053 6.3126 14.63 6.9746 19.4943C7.37011 22.4009 8.56721 24.9316 10.5629 27.0723C10.7631 27.2877 10.9065 27.3341 11.1761 27.2065C14.8098 25.4928 18.1379 23.2953 21.2657 20.7742C21.3187 20.734 21.3584 20.676 21.4048 20.6251C21.3683 20.5787 21.3453 20.5431 21.3221 20.5144C20.7316 19.7637 20.6588 18.7816 21.1253 17.9801C21.6026 17.1651 22.4563 16.7768 23.4174 16.9254C23.6234 16.9563 23.8403 16.97 24.0482 16.9382C25.1365 16.7699 25.9845 15.7921 26.0656 14.63C26.1455 13.5096 26.9583 12.6633 28.0081 12.6228C28.8058 12.592 29.4019 12.9419 29.8048 13.6274L29.7982 13.6168ZM9.57432 27.9131C8.85138 26.8758 8.17816 25.9028 7.48826 24.9118C7.3345 25.1965 7.15362 25.4663 7.03044 25.7658C6.74668 26.4579 6.46971 27.1536 6.23021 27.8645C6.11994 28.1923 6.33285 28.443 6.67731 28.4573C6.92541 28.465 7.18405 28.4661 7.42711 28.4144C8.14237 28.2624 8.84806 28.0857 9.57087 27.913L9.57432 27.9131Z" fill="#FFEB61"/>
<path d="M26.7746 26.2711C26.7321 27.2985 25.8231 28.1314 24.7759 28.0917C23.7939 28.0575 22.9612 27.1109 23.0006 26.073C23.0391 25.0595 23.9429 24.1741 24.9041 24.2076C25.9688 24.2409 26.8157 25.1775 26.7713 26.2675L26.7746 26.2711ZM24.2251 26.181C24.2199 26.5679 24.4835 26.8516 24.8491 26.8526C25.2457 26.8545 25.5624 26.5401 25.5645 26.1426C25.5658 25.7696 25.2721 25.457 24.9067 25.4491C24.5208 25.437 24.2316 25.7523 24.2251 26.181Z" fill="#FFEB61"/>
<path d="M29.0067 19.3004C30.0056 19.3421 30.8156 20.2427 30.7834 21.2738C30.7503 22.3329 29.8828 23.1636 28.853 23.114C27.7923 23.0634 27.0322 22.2202 27.0765 21.1336C27.1169 20.0608 27.9629 19.2574 29.0101 19.3005L29.0067 19.3004ZM28.2578 21.1914C28.2459 21.5712 28.5061 21.8548 28.8748 21.8663C29.2676 21.8786 29.5837 21.5851 29.5887 21.2051C29.59 20.832 29.3265 20.5448 28.9615 20.5265C28.5689 20.5072 28.2704 20.7873 28.2579 21.188L28.2578 21.1914Z" fill="#FFEB61"/>
<path d="M31.3002 23.1695C31.6791 23.1849 31.9611 23.5424 31.8845 23.8957C31.8483 24.0619 31.7742 24.2235 31.6971 24.3745C31.0739 25.5546 30.2555 26.5786 29.259 27.4507C29.1314 27.5618 28.9867 27.6653 28.8329 27.7338C28.5809 27.8479 28.284 27.748 28.1391 27.5273C27.968 27.2639 27.9865 27.0029 28.2071 26.7866C28.5951 26.4012 29.0368 26.0628 29.3641 25.6337C29.8565 24.997 30.2749 24.3022 30.7135 23.622C30.8658 23.3826 31.0042 23.1498 31.3001 23.173L31.3002 23.1695Z" fill="#FFEB61"/>
<path d="M33.8843 18.0684C33.7064 19.0149 33.5456 19.9653 33.3403 20.9074C33.2278 21.4165 32.8019 21.581 32.4309 21.3114C32.2285 21.1656 32.1728 20.9616 32.201 20.7218C32.3469 19.5826 32.486 18.4432 32.632 17.304C32.6734 16.9705 32.8796 16.7747 33.1866 16.7739C33.5108 16.7735 33.7792 17.0155 33.8203 17.3551C33.8339 17.4741 33.8265 17.5994 33.8261 17.7214C33.8226 17.8329 33.8192 17.9444 33.8157 18.0558C33.8397 18.0601 33.8637 18.0643 33.8877 18.0686L33.8843 18.0684Z" fill="#FFEB61"/>
<path d="M20.6906 30.4573C20.3805 30.4476 20.0663 30.4588 19.7571 30.4212C19.3103 30.3689 19.0977 30.1077 19.1574 29.7434C19.2217 29.3409 19.5128 29.1861 19.9503 29.2033C20.7426 29.235 21.5371 29.197 22.3298 29.2148C22.5366 29.2213 22.8013 29.2505 22.9283 29.38C23.0553 29.5095 23.1385 29.8259 23.0683 29.9772C22.9831 30.1628 22.7331 30.3294 22.5246 30.3786C22.1666 30.4651 21.7873 30.4637 21.4141 30.4834C21.1724 30.4933 20.9316 30.4718 20.6904 30.4643C20.6904 30.4643 20.6906 30.4573 20.6907 30.4539L20.6906 30.4573Z" fill="#FFEB61"/>
<path d="M18.0155 11.6481C17.9602 13.3062 16.5911 14.6234 14.9854 14.5732C13.359 14.5224 12.078 13.1329 12.1329 11.4852C12.1855 9.80256 13.5402 8.50236 15.1802 8.56057C16.8201 8.61879 18.0744 9.98307 18.0154 11.6515L18.0155 11.6481ZM16.8445 11.594C16.875 10.6151 16.1078 9.78214 15.1397 9.74492C14.151 9.70705 13.3295 10.5009 13.2975 11.5251C13.2674 12.4866 14.0476 13.3478 14.9782 13.3699C15.957 13.3935 16.8137 12.5799 16.8479 11.5941L16.8445 11.594Z" fill="#FFEB61"/>
<path d="M9.89974 20.4784C9.97371 18.8836 11.2711 17.6513 12.804 17.7167C14.4262 17.7883 15.6701 19.1522 15.5919 20.7748C15.5121 22.3345 14.1333 23.5224 12.4906 23.4397C10.996 23.3651 9.82718 22.0279 9.89974 20.4784ZM14.3987 20.6573C14.4304 19.7516 13.7001 18.9512 12.8111 18.9234C11.8773 18.8942 11.0921 19.6299 11.0594 20.5634C11.0316 21.4552 11.752 22.2414 12.6338 22.2794C13.5535 22.3186 14.3666 21.5734 14.3988 20.6538L14.3987 20.6573Z" fill="#FFEB61"/>
<path d="M25.2368 8.14947C25.1778 9.48667 24.0875 10.4918 22.7579 10.4363C21.5454 10.3844 20.5571 9.23071 20.6249 7.94261C20.6942 6.60922 21.7028 5.67829 23.0185 5.74032C24.2894 5.79747 25.2935 6.88892 25.2403 8.14958L25.2368 8.14947ZM24.0924 8.12767C24.1128 7.47622 23.5882 6.93327 22.9163 6.91228C22.2788 6.89236 21.756 7.39909 21.7392 8.04717C21.7204 8.64985 22.2947 9.25362 22.8979 9.26898C23.501 9.28434 24.0734 8.73731 24.0924 8.12767Z" fill="#FFEB61"/>
<path d="M30.3839 9.77487C30.3502 10.8513 29.4845 11.7344 28.485 11.7102C27.4407 11.6845 26.6074 10.7588 26.645 9.66503C26.6777 8.61992 27.5193 7.84418 28.5773 7.87375C29.5835 7.90519 30.415 8.77853 30.3873 9.77498L30.3839 9.77487ZM27.8323 9.75094C27.8211 10.1098 28.1112 10.4292 28.4558 10.4365C28.8109 10.4441 29.1801 10.1069 29.1873 9.76538C29.195 9.40994 28.9011 9.10087 28.5532 9.08651C28.1845 9.07499 27.8436 9.38864 27.8356 9.75453L27.8323 9.75094Z" fill="#FFEB61"/>
<path d="M21.0827 13.1631C21.1158 12.1041 21.9593 11.2691 22.9654 11.3006C24.0061 11.3331 24.799 12.2262 24.7581 13.3163C24.7189 14.3508 23.8514 15.178 22.8351 15.1428C21.822 15.1111 21.0493 14.2326 21.0828 13.1597L21.0827 13.1631ZM23.5743 13.2305C23.5929 12.8545 23.3391 12.5885 22.9466 12.5658C22.5645 12.5434 22.2593 12.8163 22.2406 13.1958C22.2227 13.5475 22.5164 13.86 22.8712 13.8746C23.2468 13.8863 23.5556 13.6066 23.5742 13.234L23.5743 13.2305Z" fill="#FFEB61"/>
<path d="M18.8862 15.0194C19.9165 15.0516 20.7 15.9165 20.6603 16.9683C20.6208 18.0097 19.7638 18.8338 18.7508 18.8021C17.7446 18.7707 16.9342 17.8841 16.9631 16.8493C16.9969 15.7659 17.8182 14.9825 18.8828 15.0193L18.8862 15.0194ZM18.8517 16.2353C18.4761 16.2236 18.153 16.5203 18.1419 16.8757C18.1309 17.2275 18.4348 17.5439 18.7831 17.5478C19.1556 17.549 19.5002 17.225 19.5011 16.8658C19.5046 16.5347 19.2067 16.2429 18.8517 16.2353Z" fill="#FFEB61"/>
<path d="M20.0634 4.05788C20.2465 4.15775 20.4829 4.21047 20.6058 4.36077C20.9081 4.72938 20.7246 5.19441 20.2526 5.28776C19.9264 5.3508 19.5853 5.34014 19.2687 5.42788C18.5243 5.6278 17.7891 5.86636 17.0509 6.09088C16.9464 6.12249 16.848 6.18218 16.7402 6.2102C16.4551 6.28149 16.1254 6.12822 16.0259 5.88799C15.9009 5.58419 16.0086 5.22839 16.3097 5.08436C17.4861 4.52483 18.7209 4.19377 20.0598 4.06125L20.0634 4.05788Z" fill="#FFEB61"/>
<path d="M7.90701 16.5873C8.0487 15.6955 8.17326 14.7997 8.33551 13.9121C8.4148 13.4717 8.73758 13.297 9.14102 13.4107C9.48287 13.5086 9.60329 13.739 9.54341 14.1103C9.4014 15.0125 9.2595 15.9112 9.13805 16.8175C9.1021 17.0849 9.15197 17.3654 9.15037 17.6374C9.15142 18.0454 8.94761 18.2762 8.58527 18.2823C8.21592 18.2917 7.96467 18.0537 7.95985 17.656C7.95372 17.3001 7.97861 16.9452 7.98971 16.5899C7.96215 16.589 7.93469 16.5847 7.90723 16.5803L7.90701 16.5873Z" fill="#FFEB61"/>
<path d="M10.6057 11.3503C10.1991 11.3376 9.96189 11.0931 9.98431 10.7067C9.99233 10.5605 10.0318 10.4013 10.1014 10.271C10.6389 9.29394 11.3178 8.42943 12.158 7.70247C12.2926 7.58812 12.5166 7.48353 12.6675 7.51265C12.856 7.54993 13.0476 7.70935 13.1772 7.86683C13.3234 8.04575 13.2342 8.25219 13.0978 8.42228C13.0333 8.50047 12.9654 8.57506 12.8909 8.64248C12.1527 9.30637 11.5729 10.0903 11.1108 10.972C10.9971 11.1882 10.8636 11.3758 10.6023 11.3502L10.6057 11.3503Z" fill="#FFEB61"/>
<path d="M11.3552 25.7789C11.0726 25.662 10.7275 25.557 10.4261 25.3802C10.2059 25.2513 10.1244 24.9907 10.2359 24.7327C10.34 24.4918 10.5594 24.4254 10.811 24.4298C11.2696 24.4337 11.7286 24.4271 12.1843 24.4134C12.5813 24.4014 12.7986 24.5128 12.8791 24.8048C12.9594 25.1037 12.8076 25.4372 12.4626 25.552C12.1349 25.6638 11.7821 25.6946 11.3518 25.7788L11.3552 25.7789Z" fill="#FFEB61"/>
<path d="M11.1268 16.6425C11.1384 16.2698 11.4223 16.0136 11.8047 16.0291C12.1631 16.0403 12.4193 16.3377 12.4039 16.7208C12.3928 17.0761 12.0803 17.3628 11.7254 17.3517C11.3843 17.341 11.1116 17.0187 11.1268 16.6425Z" fill="#FFEB61"/>
</svg>
