<svg width="46" height="38" viewBox="0 0 46 38" fill="none" xmlns="http://www.w3.org/2000/svg">
<path d="M41.7083 10.8111C41.7083 10.7171 41.7083 10.6207 41.7083 10.5242C41.7058 10.0174 41.5995 9.86158 41.1124 9.72311C41.0382 9.70333 40.9344 9.74784 40.8577 9.78987C40.4621 9.9951 40.0764 10.2152 39.6807 10.4204C39.4384 10.5465 39.2184 10.5094 39.0898 10.2522C38.9662 10.005 39.0354 9.80224 39.2802 9.6613C39.6387 9.45607 39.9923 9.24095 40.3533 9.04562C40.4967 8.96897 40.5536 8.88985 40.519 8.72171C40.4918 8.59066 40.472 8.43736 40.514 8.31373C40.6278 7.96757 40.4596 7.81427 40.1753 7.68816C39.8959 7.56453 39.6214 7.41865 39.3618 7.25793C39.0774 7.0799 39.0082 6.81534 39.159 6.58291C39.3321 6.31587 39.5621 6.35296 39.797 6.48154C40.1407 6.66945 40.4844 6.85737 40.8182 7.06012C40.969 7.15161 41.0926 7.2159 41.2286 7.05023C41.241 7.03293 41.2607 7.01809 41.2781 7.01314C41.7602 6.92166 41.733 6.5656 41.7182 6.19966C41.7058 5.93509 41.7132 5.67052 41.733 5.40596C41.7503 5.16611 41.8838 5.00539 42.1311 4.98561C42.3685 4.96583 42.6034 5.18589 42.6133 5.4381C42.6281 5.82877 42.6281 6.22191 42.6182 6.61506C42.6132 6.77577 42.6948 6.82523 42.8185 6.91671C43.1869 7.1887 43.4811 7.0799 43.805 6.84748C44.0449 6.67687 44.3218 6.55571 44.5839 6.42219C44.7867 6.31834 44.9771 6.32329 45.1056 6.54088C45.2391 6.76341 45.2738 7.00078 45.0339 7.1615C44.71 7.37909 44.3663 7.57195 44.0177 7.74998C43.8075 7.8563 43.6962 7.96262 43.7902 8.21235C43.8298 8.3162 43.8446 8.45467 43.81 8.55605C43.7037 8.85523 43.8693 8.9665 44.0968 9.08271C44.4059 9.24343 44.7075 9.42145 44.9993 9.61432C45.2565 9.78245 45.3158 10.0371 45.1773 10.272C45.0166 10.544 44.7867 10.5391 44.5468 10.4055C44.2031 10.2176 43.8619 10.0248 43.5306 9.8146C43.3699 9.71322 43.2611 9.74289 43.0806 9.79482C42.586 9.9407 42.5564 10.277 42.586 10.6924C42.6034 10.9545 42.5836 11.2215 42.5687 11.4861C42.5539 11.7556 42.4179 11.9361 42.136 11.9311C41.8591 11.9262 41.7182 11.7482 41.7058 11.4762C41.7033 11.2561 41.7108 11.0336 41.7083 10.8111C41.7132 10.8111 41.7108 10.8111 41.7083 10.8111ZM42.8407 8.4695C42.8482 8.07389 42.5465 7.7574 42.1558 7.74998C41.7923 7.74503 41.4857 8.05905 41.4783 8.43983C41.4709 8.79341 41.7651 9.08024 42.1558 9.0926C42.5514 9.10743 42.8333 8.85276 42.8407 8.4695Z" fill="#FFEB61"/>
<path d="M3.39769 9.38643C3.39769 9.30237 3.38533 9.21582 3.40016 9.13176C3.46445 8.72625 3.34329 8.45674 2.92048 8.3158C2.73998 8.25646 2.62871 8.23668 2.46305 8.34547C2.12925 8.568 1.77567 8.76828 1.42456 8.96115C1.19461 9.08725 0.969598 9.08478 0.826187 8.82268C0.690194 8.57295 0.734705 8.34053 0.97702 8.18475C1.29846 7.97953 1.64215 7.81139 1.95617 7.5938C2.06249 7.51962 2.10946 7.35396 2.16881 7.22538C2.18859 7.18335 2.15645 7.11659 2.17376 7.06714C2.33942 6.57014 2.08968 6.31794 1.65945 6.14239C1.44434 6.05584 1.249 5.91985 1.05119 5.79869C0.81877 5.65776 0.734703 5.37093 0.850915 5.14593C0.967127 4.92339 1.21686 4.85911 1.48142 5.00252C1.82512 5.19044 2.16634 5.38577 2.49767 5.59347C2.65097 5.69237 2.7746 5.7171 2.92543 5.59594C2.99713 5.53907 3.09109 5.49704 3.18257 5.47726C3.35071 5.4377 3.39522 5.34126 3.39027 5.18054C3.38038 4.80965 3.38286 4.43877 3.3878 4.06788C3.39275 3.74397 3.55593 3.54368 3.80814 3.52885C4.06776 3.51649 4.25321 3.72171 4.26805 4.06293C4.28288 4.42393 4.27793 4.78493 4.28782 5.14346C4.29277 5.45995 4.83427 5.75913 5.11862 5.60336C5.48951 5.39813 5.85298 5.17807 6.23376 4.9951C6.57745 4.83191 6.85438 4.97779 6.90878 5.31407C6.9434 5.52918 6.85438 5.68001 6.66646 5.78386C6.31288 5.97425 5.96177 6.177 5.60819 6.36739C5.44994 6.45146 5.35351 6.54295 5.44006 6.74075C5.47467 6.82235 5.48951 6.93856 5.45984 7.02016C5.32138 7.41825 5.53402 7.58391 5.85793 7.73227C6.15711 7.86826 6.43652 8.04629 6.71097 8.22679C6.96812 8.39739 7.02747 8.65207 6.88158 8.8845C6.72087 9.14165 6.49586 9.11198 6.27085 8.99082C5.89996 8.78559 5.53649 8.57048 5.16807 8.36031C4.86147 8.18475 4.29771 8.49383 4.28782 8.84741C4.27793 9.23808 4.28288 9.63122 4.27546 10.0244C4.27052 10.3137 4.09496 10.5065 3.83534 10.4991C3.55099 10.4917 3.41747 10.3161 3.4051 10.0491C3.39521 9.82656 3.40264 9.60402 3.40264 9.38149C3.40264 9.38643 3.40016 9.38643 3.39769 9.38643ZM3.84523 7.65314C4.25568 7.64572 4.52519 7.37127 4.51283 6.97071C4.50294 6.59982 4.17903 6.30063 3.80072 6.31299C3.42736 6.32536 3.16279 6.63196 3.17021 7.04488C3.17763 7.39105 3.47681 7.66056 3.84523 7.65314Z" fill="#FFEB61"/>
<path d="M4.10244 23.557C4.02332 22.8796 4.12223 22.2812 4.4585 21.7397C4.5574 21.5839 4.68846 21.4108 4.84917 21.3367C4.98269 21.2748 5.22253 21.2823 5.33133 21.3663C5.43518 21.4504 5.45001 21.668 5.46485 21.8312C5.47227 21.9128 5.39067 22.0018 5.34616 22.0859C4.92582 22.8499 4.83187 23.6288 5.35853 24.3656C5.88272 25.1049 6.66901 25.1914 7.4998 25.0851C7.63332 25.0678 7.79898 25.0159 7.89541 25.0728C8.02646 25.1494 8.17481 25.3126 8.18223 25.4461C8.18965 25.5772 8.06108 25.7725 7.93745 25.8442C7.3465 26.1805 6.71846 26.1508 6.09289 25.9357C5.99151 25.9011 5.89508 25.859 5.79618 25.8219C5.78876 25.8195 5.77393 25.8219 5.72942 25.8244C5.72447 26.0198 5.72942 26.2176 5.71458 26.4154C5.67255 27.0137 5.51677 27.5651 5.03956 27.9731C4.87637 28.1116 4.66125 28.166 4.52773 27.9954C4.42141 27.8594 4.4041 27.6418 4.38927 27.4563C4.38185 27.3772 4.4857 27.2956 4.51537 27.2066C4.61675 26.8975 4.76263 26.5885 4.79724 26.272C4.92582 25.0901 4.0159 24.1752 2.79691 24.2271C2.62878 24.2345 2.4557 24.2518 2.29498 24.3038C2.00816 24.3953 1.8153 24.3038 1.69661 24.0466C1.60018 23.8365 1.7238 23.5768 1.99084 23.4557C2.54223 23.2035 3.10599 23.248 3.66727 23.4136C3.79585 23.4483 3.92195 23.4952 4.10244 23.557Z" fill="#FFEB61"/>
<path d="M40.2073 27.8248C40.64 27.8718 41.0628 27.8841 41.4708 27.9731C41.7428 28.0325 42.0098 28.171 42.2447 28.3218C42.5068 28.4899 42.5587 28.7718 42.4153 28.9844C42.2447 29.2416 42.0197 29.2193 41.7749 29.0957C41.1073 28.757 40.4199 28.6482 39.7325 29.0191C38.9388 29.4468 38.6001 30.3369 38.8127 31.326C38.8424 31.4669 38.8968 31.645 38.8399 31.7537C38.7707 31.8873 38.6001 32.043 38.4691 32.0455C38.3256 32.048 38.1204 31.9219 38.0462 31.7908C37.7174 31.2147 37.7273 30.5966 37.9201 29.976C37.9597 29.8474 38.0116 29.7237 38.0289 29.6768C37.485 29.5878 36.9558 29.5235 36.439 29.3998C36.2239 29.3479 36.0286 29.1847 35.8481 29.0413C35.6626 28.893 35.6132 28.6927 35.764 28.48C35.9074 28.2773 36.0879 28.2352 36.3204 28.3292C36.6146 28.4479 36.9064 28.5913 37.213 28.6506C38.5408 28.9078 39.5718 27.9905 39.4878 26.6379C39.4754 26.4377 39.4284 26.2399 39.3889 26.042C39.3394 25.78 39.4111 25.5648 39.6658 25.4684C39.9402 25.3646 40.1183 25.5327 40.2221 25.7626C40.4916 26.3511 40.4916 26.9544 40.2938 27.5627C40.2691 27.6567 40.232 27.7531 40.2073 27.8248Z" fill="#FFEB61"/>
<path d="M35.4846 36.5656C34.4462 36.9093 33.5659 36.7584 32.8142 36.0266C32.703 35.9178 32.6041 35.7818 32.5447 35.6384C32.4656 35.4381 32.4953 35.2328 32.6955 35.1043C32.8884 34.9806 33.0788 34.998 33.2519 35.1513C33.3384 35.2279 33.4175 35.3144 33.5016 35.396C33.9739 35.8436 34.5302 35.9474 35.1187 35.7051C35.7047 35.4628 36.0336 35.0004 36.0731 34.3576C36.0904 34.0732 36.0978 33.7963 36.4514 33.7097C36.669 33.6578 36.8421 33.7122 36.9187 33.9248C36.9756 34.0905 37.0201 34.2784 37.0053 34.4515C36.9113 35.4776 36.3624 36.1724 35.4846 36.5656Z" fill="#FFEB61"/>
<path d="M4.19137 17.6795C4.14439 17.9787 4.13697 18.31 3.72157 18.3199C3.44464 18.3249 3.31607 18.1592 3.24931 17.7116C2.96002 17.6325 2.61385 17.5633 2.65094 17.1578C2.67814 16.8438 2.93776 16.7424 3.24931 16.7251C3.27156 16.6336 3.29134 16.5446 3.31607 16.4556C3.37541 16.2355 3.51387 16.1094 3.7463 16.1069C3.97872 16.1069 4.09741 16.2652 4.12708 16.463C4.15428 16.6484 4.2161 16.7325 4.41638 16.7572C4.6488 16.7869 4.84413 16.9179 4.83424 17.1924C4.82435 17.4545 4.65621 17.5831 4.41143 17.635C4.34219 17.6474 4.27049 17.6647 4.19137 17.6795Z" fill="#FFEB61"/>
<path d="M6.42432 14.2825C6.20178 14.2603 6.06332 14.1367 5.98172 13.9092C5.94216 13.8029 5.83831 13.6941 5.73198 13.6446C5.52181 13.5432 5.31165 13.4419 5.3339 13.1748C5.35368 12.9226 5.54407 12.8114 5.77402 12.7322C5.86551 12.7026 5.97677 12.5962 5.99655 12.5048C6.05342 12.2575 6.16716 12.0943 6.43668 12.0918C6.69383 12.0894 6.80015 12.2402 6.85702 12.48C6.88175 12.5814 7.01032 12.6976 7.11417 12.7273C7.3639 12.799 7.56171 12.9103 7.56171 13.1872C7.55924 13.4715 7.3466 13.5605 7.09686 13.6199C7.01032 13.6397 6.91636 13.7633 6.88175 13.8573C6.80015 14.0773 6.71361 14.2702 6.42432 14.2825Z" fill="#FFEB61"/>
<path d="M40.479 15.5261C40.4617 15.6498 40.4518 15.7437 40.432 15.8377C40.385 16.0602 40.2564 16.2086 40.0215 16.2086C39.7866 16.2061 39.5987 16.08 39.5715 15.8402C39.5493 15.6226 39.4479 15.5583 39.2649 15.4717C39.1264 15.4074 38.9979 15.2096 38.9657 15.0514C38.9237 14.8239 39.0992 14.7003 39.3168 14.636C39.4058 14.6088 39.5196 14.5272 39.5443 14.4481C39.616 14.2082 39.6976 13.9956 39.9943 13.9981C40.3108 14.0005 40.4369 14.2033 40.4691 14.4876C40.474 14.5173 40.4913 14.5445 40.5012 14.5717C40.9636 14.6731 41.107 14.7992 41.0897 15.0934C41.0699 15.4668 40.7905 15.5088 40.479 15.5261Z" fill="#FFEB61"/>
<path d="M41.6119 20.1077C41.6144 20.3847 41.3968 20.6121 41.1174 20.622C40.8157 20.6319 40.5586 20.3896 40.5635 20.0954C40.5685 19.8036 40.796 19.5811 41.0927 19.5811C41.3845 19.5811 41.6095 19.8085 41.6119 20.1077Z" fill="#FFEB61"/>
<path d="M10.0416 34.4363C9.75723 34.4388 9.52481 34.2064 9.51986 33.9146C9.51491 33.6327 9.72756 33.4176 10.0144 33.4127C10.3037 33.4077 10.5584 33.6402 10.5658 33.9146C10.5682 34.1915 10.3309 34.4314 10.0416 34.4363Z" fill="#FFEB61"/>
<path d="M27.5451 35.5615C27.5426 35.8607 27.3127 36.0833 27.016 36.0734C26.7415 36.0635 26.5165 35.8385 26.5115 35.5615C26.5066 35.2896 26.7637 35.0176 27.0283 35.02C27.2929 35.0176 27.5476 35.2846 27.5451 35.5615Z" fill="#FFEB61"/>
<path d="M21.2151 1.96881C20.9357 1.9787 20.7008 1.76358 20.686 1.48665C20.6687 1.19241 20.8888 0.952571 21.1855 0.942681C21.4674 0.932791 21.7146 1.17016 21.7171 1.45945C21.722 1.73144 21.497 1.95892 21.2151 1.96881Z" fill="#FFEB61"/>
<path d="M32.0895 2.43868C31.7878 2.43374 31.5727 2.21121 31.5826 1.91202C31.5925 1.63262 31.815 1.41503 32.0944 1.4175C32.3788 1.41997 32.6013 1.6524 32.5989 1.95653C32.5964 2.24335 32.3862 2.44363 32.0895 2.43868Z" fill="#FFEB61"/>
<path d="M14.0843 1.82807C14.0794 2.11984 13.8321 2.37204 13.5651 2.36215C13.2931 2.35226 13.0706 2.11984 13.0706 1.84291C13.0706 1.54372 13.303 1.30388 13.5824 1.31377C13.8568 1.32366 14.0893 1.56103 14.0843 1.82807Z" fill="#FFEB61"/>
<path d="M16.2651 35.166C16.5346 35.1636 16.7522 35.4034 16.7448 35.6878C16.7399 35.9672 16.5346 36.165 16.2577 36.1625C15.9857 36.1575 15.7483 35.9276 15.7459 35.6581C15.7434 35.3935 15.9808 35.166 16.2651 35.166Z" fill="#FFEB61"/>
<path d="M7.61587 32.5178C6.85925 33.3041 6.00621 33.5811 5.00234 33.2843C4.85398 33.2398 4.70068 33.1657 4.58447 33.0668C4.42128 32.9258 4.35205 32.7305 4.47073 32.5253C4.582 32.325 4.76249 32.2533 4.98503 32.3101C5.09877 32.3398 5.20756 32.3769 5.3213 32.4115C5.94686 32.5871 6.48837 32.4214 6.89635 31.9318C7.30433 31.4447 7.38097 30.8835 7.11393 30.295C6.99772 30.0353 6.87656 29.7881 7.14855 29.5458C7.31669 29.3974 7.49472 29.3653 7.66038 29.5186C7.78895 29.6397 7.91505 29.7856 7.98181 29.9439C8.37001 30.8909 8.20929 31.7637 7.61587 32.5178Z" fill="#FFEB61"/>
<path d="M42.7986 24.8773C42.7516 25.1764 42.7442 25.5078 42.3288 25.5177C42.0518 25.5226 41.9233 25.3569 41.8565 24.9094C41.5672 24.8303 41.221 24.761 41.2581 24.3555C41.2853 24.0415 41.5449 23.9401 41.8565 23.9228C41.8787 23.8314 41.8985 23.7423 41.9232 23.6533C41.9826 23.4333 42.121 23.3072 42.3535 23.3047C42.5859 23.3047 42.7046 23.4629 42.7343 23.6607C42.7615 23.8462 42.8233 23.9303 43.0236 23.955C43.256 23.9847 43.4513 24.1157 43.4414 24.3902C43.4315 24.6523 43.2634 24.7808 43.0186 24.8328C42.9494 24.8451 42.8777 24.86 42.7986 24.8773Z" fill="#FFEB61"/>
<path d="M22.6345 36.4168C22.5875 36.716 22.5801 37.0473 22.1647 37.0572C21.8878 37.0622 21.7592 36.8965 21.6924 36.449C21.4031 36.3698 21.057 36.3006 21.0941 35.8951C21.1213 35.5811 21.3809 35.4797 21.6924 35.4624C21.7147 35.3709 21.7345 35.2819 21.7592 35.1929C21.8185 34.9728 21.957 34.8467 22.1894 34.8442C22.4218 34.8442 22.5405 35.0025 22.5702 35.2003C22.5974 35.3857 22.6592 35.4698 22.8595 35.4945C23.0919 35.5242 23.2873 35.6553 23.2774 35.9297C23.2675 36.1918 23.0993 36.3204 22.8545 36.3723C22.7853 36.3847 22.7136 36.3995 22.6345 36.4168Z" fill="#FFEB61"/>
<path d="M14.4231 17.3361C13.4291 16.6462 12.8208 15.7957 12.6082 14.6632C11.5796 16.352 10.5658 18.0185 9.58171 19.6356C9.96497 19.8062 10.3729 19.9299 10.7092 20.1549C11.4609 20.6543 11.765 21.6409 11.5054 22.5286C11.2384 23.4385 10.4842 24.0294 9.54215 24.0715C8.6446 24.111 7.82864 23.6041 7.50226 22.7635C7.21296 22.0167 7.31682 21.3021 7.74705 20.6247C9.07484 18.5378 10.3927 16.4484 11.7106 14.3566C11.9554 13.9659 12.1878 13.5703 12.4153 13.1698C12.5043 13.014 12.6082 12.9398 12.801 12.9398C14.6505 12.9472 16.5025 12.9423 18.352 12.9448C18.6982 12.9448 18.8589 13.0659 18.8935 13.333C18.9331 13.647 18.7674 13.8398 18.4336 13.8423C17.8699 13.8473 17.3036 13.8448 16.7053 13.8448C16.7003 13.9635 16.6904 14.0673 16.6904 14.1662C16.6979 15.3753 16.7077 16.582 16.7152 17.7911C16.7152 17.8207 16.7176 17.8479 16.7176 17.8776C16.7053 18.2089 16.5174 18.4488 16.2676 18.4512C15.9956 18.4562 15.7583 18.1966 15.7583 17.8652C15.7583 16.6957 15.7657 15.5262 15.7682 14.3566C15.7682 14.2503 15.7904 14.139 15.7583 14.0426C15.7335 13.9684 15.647 13.8572 15.5852 13.8572C14.8854 13.8448 14.1857 13.8522 13.4859 13.8547C13.4587 13.8547 13.434 13.8745 13.387 13.8918C13.4662 14.7275 13.753 15.4767 14.3464 16.08C14.606 16.3446 14.9349 16.5399 15.2069 16.7946C15.3429 16.9232 15.4566 17.0963 15.5258 17.2718C15.6074 17.4795 15.5209 17.6625 15.3181 17.7836C15.1871 17.8628 15.0659 17.9567 14.9448 18.0507C14.156 18.654 13.7382 19.4254 13.748 20.4442C13.7654 22.5162 13.748 24.5858 13.7456 26.6578C13.7431 28.3268 13.748 29.9933 13.7357 31.6623C13.7332 31.9195 13.8099 31.9862 14.0596 31.9862C14.8731 31.9813 14.878 31.9912 14.878 31.1802C14.883 27.9015 14.8854 24.6228 14.8805 21.3417C14.8805 20.7285 15.0808 20.229 15.6247 19.915C16.4481 19.4378 17.5089 19.9669 17.6622 20.9337C17.7042 21.1958 17.6993 21.4678 17.6993 21.7373C17.6968 25.016 17.6943 28.2947 17.6918 31.5758C17.6918 31.6969 17.7017 31.8206 17.7091 31.9566C18.0306 31.9566 18.3273 31.9566 18.624 31.9566C18.8268 31.9566 18.7822 31.8008 18.7822 31.6871C18.7872 30.5744 18.7897 29.4617 18.7897 28.3515C18.7897 25.6663 18.7798 22.981 18.7872 20.2983C18.7921 19.3265 18.3545 18.6144 17.583 18.0754C17.4891 18.0086 17.3976 17.9345 17.2937 17.89C16.8314 17.6946 16.8784 17.0839 17.2962 16.8342C17.677 16.6067 18.0306 16.305 18.3273 15.9762C18.9281 15.3036 19.2075 14.5074 19.0691 13.5876C19.0023 13.1352 19.1705 12.9448 19.6353 12.9349C20.335 12.9176 21.0323 12.9126 21.7321 12.9003C21.7395 12.9003 21.7494 12.8904 21.7692 12.878C21.7667 12.8483 21.7716 12.8112 21.7593 12.7791C20.9309 10.9148 20.0804 9.05784 19.2768 7.18361C18.7724 6.00665 17.8254 5.51461 16.6509 5.36872C15.2984 5.20059 14.067 5.55664 12.9716 6.37507C12.9346 6.40227 12.8999 6.43441 12.8678 6.46408C13.1521 6.652 13.4192 6.84486 13.706 7.00558C13.7629 7.03525 13.9112 6.95119 13.9854 6.88443C15.1327 5.87808 16.8141 5.82121 18.0108 6.75091C19.3806 7.8166 19.5933 9.76253 18.488 11.1323C17.4174 12.4577 15.4517 12.6159 14.1189 11.4785C13.931 11.3178 13.753 11.1348 13.6096 10.9345C13.4835 10.7615 13.3648 10.7466 13.1719 10.7961C12.1433 11.0606 11.1098 11.3153 10.0738 11.5626C9.5199 11.6961 9.29984 11.4785 9.42594 10.9321C9.62869 10.0642 9.83887 9.19878 10.0565 8.33584C10.1084 8.13062 10.0787 8.0416 9.85864 7.96495C8.77812 7.58417 8.19459 6.53826 8.41465 5.43054C8.62235 4.38957 9.56441 3.66016 10.6499 3.69725C11.5079 3.72692 12.3411 4.32776 12.6329 5.13135C12.6576 5.20306 12.6848 5.27229 12.7244 5.37614C12.8703 5.30196 13.0013 5.23273 13.1348 5.1635C14.611 4.38957 16.144 4.16951 17.7487 4.69618C18.8515 5.05718 19.6724 5.70994 20.1199 6.82756C20.6392 8.12567 21.2252 9.39906 21.7815 10.6823C21.8235 10.7763 21.8681 10.8703 21.9447 11.0359C21.967 10.8999 21.9843 10.8431 21.9843 10.7862C21.9917 9.68341 22.0016 8.58063 21.9966 7.47785C21.9966 7.37895 21.92 7.27015 21.8557 7.18361C20.8493 5.86324 21.4749 4.02858 23.0524 3.68241C23.9376 3.48708 24.9019 3.88764 25.3742 4.6492C25.8539 5.42065 25.7995 6.48386 25.2209 7.18114C25.075 7.35669 25.0725 7.50752 25.08 7.72016C25.1096 8.65975 25.1022 9.59934 25.1096 10.5365C25.1096 10.6848 25.1096 10.8307 25.1616 10.9889C25.2753 10.7219 25.3841 10.4499 25.5003 10.1829C25.975 9.09246 26.4918 8.02182 26.9196 6.91162C27.4438 5.5517 28.4823 4.87173 29.8224 4.56018C31.2466 4.22886 32.6016 4.45633 33.8849 5.14124C34.0258 5.21789 34.1668 5.29702 34.3349 5.39098C34.5673 4.67887 34.958 4.1349 35.6503 3.85797C36.0929 3.67994 36.538 3.63543 37.0028 3.74917C37.9004 3.96676 38.6001 4.77036 38.6718 5.66049C38.7633 6.82014 38.249 7.55697 36.9534 8.09105C37.0251 8.39024 37.1017 8.6919 37.171 8.99602C37.3169 9.63148 37.4652 10.2645 37.6061 10.9024C37.7397 11.5107 37.5369 11.7184 36.9188 11.5725C35.8926 11.3326 34.8715 11.0705 33.8503 10.8109C33.7093 10.7738 33.6154 10.759 33.514 10.9098C32.4705 12.4478 30.3491 12.695 28.9323 11.4513C27.6564 10.3288 27.4982 8.56332 28.5564 7.24543C29.59 5.95967 31.5211 5.71983 32.8513 6.71382C33.0046 6.82756 33.1481 6.95119 33.2618 7.04267C33.5832 6.84239 33.8799 6.65695 34.1915 6.46408C34.1692 6.43689 34.1495 6.39238 34.1124 6.36765C32.6016 5.31185 30.9895 4.99783 29.2463 5.71736C28.6504 5.96215 28.1979 6.37013 27.9284 6.97591C27.0679 8.91196 26.1976 10.8431 25.3322 12.7742C25.3124 12.8162 25.3074 12.8607 25.2802 12.9547C25.4113 12.9547 25.5102 12.9547 25.6116 12.9547C26.2446 12.9547 26.8775 12.9497 27.5105 12.9571C27.8295 12.9596 28.0644 13.2167 28.0149 13.5159C27.8394 14.5495 28.2078 15.4025 28.9125 16.1221C29.1771 16.3916 29.5034 16.6092 29.8175 16.8243C30.2897 17.1482 30.2749 17.5487 29.8199 17.8801C29.4218 18.1694 29.0509 18.5081 28.727 18.879C28.3809 19.2721 28.2721 19.7766 28.2721 20.3007C28.2721 24.069 28.2671 27.8372 28.2671 31.6055C28.2671 31.9813 28.2671 31.9813 28.6405 31.9862C29.3872 31.9961 29.3848 31.9961 29.3848 31.2642C29.3848 27.946 29.3922 24.6303 29.3798 21.312C29.3773 20.4887 29.8966 19.9521 30.4381 19.8136C31.343 19.5812 32.1887 20.2463 32.2109 21.223C32.2233 21.856 32.2085 22.489 32.2085 23.122C32.206 25.9605 32.206 28.7991 32.1936 31.6351C32.1912 31.9269 32.2678 32.011 32.562 32.006C33.3409 31.9887 33.3409 32.0011 33.3409 31.2247C33.3384 27.6567 33.3211 24.0912 33.3409 20.5257C33.3459 19.3537 32.8538 18.5081 31.892 17.8949C31.4049 17.5834 31.3876 17.2199 31.8697 16.8811C32.5744 16.3841 33.1604 15.7932 33.4571 14.9649C33.5783 14.6261 33.6549 14.2701 33.7662 13.8819C33.6178 13.8695 33.5165 13.8522 33.4176 13.8522C32.8241 13.8497 32.2282 13.8621 31.6348 13.8473C31.3974 13.8423 31.3208 13.9091 31.3233 14.1514C31.343 15.3506 31.3455 16.5473 31.3554 17.7465C31.3554 17.843 31.3628 17.9394 31.3455 18.0334C31.2985 18.2856 31.0587 18.4957 30.8535 18.476C30.6136 18.4537 30.4084 18.2238 30.4035 17.9592C30.401 17.7095 30.4232 17.4622 30.4232 17.2125C30.4232 16.1863 30.4183 15.1602 30.4109 14.1341C30.4109 14.0599 30.401 13.9857 30.3936 13.8819C30.2823 13.8769 30.1809 13.867 30.0796 13.867C29.5999 13.867 29.1202 13.872 28.6405 13.8695C28.3018 13.867 28.1979 13.7681 28.1905 13.4541C28.1831 13.1376 28.3364 12.967 28.6479 12.9645C30.5469 12.9571 32.4434 12.9497 34.3423 12.9547C34.4462 12.9547 34.5896 13.0461 34.6464 13.1401C35.9544 15.2814 37.2526 17.4325 38.5606 19.5763C38.7707 19.9175 39.0328 20.2266 39.2603 20.5579C39.8612 21.4307 39.8611 22.4791 39.2652 23.2679C38.7361 23.9701 37.8559 24.2792 37.0449 24.0541C36.1893 23.8168 35.5514 23.0379 35.455 22.1676C35.3239 20.9881 36.13 19.8161 37.5493 19.737C36.533 18.0655 35.5242 16.4015 34.4882 14.6954C34.2533 15.8229 33.6599 16.6883 32.7351 17.3583C33.3236 17.7861 33.7538 18.3029 33.9788 18.9482C34.1148 19.3389 34.2286 19.7642 34.231 20.1746C34.2508 23.98 34.2434 27.7878 34.2434 31.5931C34.2434 31.7167 34.2434 31.8379 34.2434 31.9788C34.3423 31.9887 34.414 31.9961 34.4882 32.0011C34.78 32.0233 34.9308 32.1766 34.9308 32.456C34.9308 32.7379 34.7824 32.9085 34.4882 32.911C33.5684 32.9209 32.6461 32.9209 31.7263 32.9159C31.3925 32.9135 31.2911 32.7973 31.2886 32.4165C31.2788 30.8637 31.2738 29.3109 31.2738 27.7556C31.2738 25.733 31.2788 23.7105 31.2812 21.6854C31.2812 21.5222 31.2812 21.359 31.259 21.1983C31.2219 20.9041 31.0513 20.7582 30.7818 20.7656C30.532 20.773 30.3392 20.951 30.307 21.2181C30.2996 21.2848 30.3021 21.3516 30.3021 21.4184C30.3046 25.0333 30.307 28.6482 30.3095 32.2632C30.3095 32.8195 30.2081 32.9234 29.6642 32.9234C29.0707 32.9234 28.4748 32.9258 27.8814 32.9209C27.4833 32.9184 27.3547 32.7997 27.3547 32.414C27.3547 28.4158 27.3572 24.4176 27.3523 20.4194C27.3498 19.146 27.827 18.1298 28.8902 17.4103C28.9026 17.4004 28.9075 17.3806 28.8952 17.4004C28.5317 17.0295 28.0965 16.7204 27.8493 16.3001C27.5723 15.8253 27.2385 15.7388 26.7564 15.7709C26.252 15.8056 25.7426 15.7784 25.1986 15.7784C25.1888 15.897 25.1764 15.9984 25.1764 16.0998C25.169 20.8942 25.1616 25.6885 25.1541 30.4829C25.1541 31.1258 25.1566 31.7687 25.1467 32.4091C25.1418 32.8071 25.0206 32.9209 24.6275 32.9209C23.9376 32.9209 23.2478 32.9209 22.5554 32.9184C22.0288 32.9159 21.9373 32.822 21.9373 32.2928C21.9373 27.2314 21.9373 22.1676 21.9373 17.1061C21.9373 16.6784 21.9373 16.2482 21.9373 15.7907C21.3785 15.7907 20.8518 15.8229 20.3326 15.7808C19.8306 15.7413 19.4993 15.855 19.2248 16.3298C18.9875 16.7377 18.5721 17.0443 18.2234 17.4103C18.2358 17.4202 18.2754 17.4671 18.3248 17.5018C19.2347 18.1619 19.6971 19.0521 19.6996 20.1771C19.7045 22.6992 19.707 25.2212 19.707 27.7408C19.707 29.2664 19.7021 30.7895 19.6946 32.3151C19.6922 32.8195 19.5883 32.9209 19.0864 32.9234C18.5202 32.9258 17.9539 32.9234 17.3902 32.9209C16.8858 32.9184 16.7794 32.822 16.777 32.3151C16.7696 30.8563 16.7696 29.3999 16.7671 27.9435C16.7646 25.8245 16.7671 23.7055 16.7671 21.5865C16.7671 21.4629 16.7646 21.3368 16.7597 21.2131C16.7498 20.9411 16.599 20.7878 16.3393 20.7458C16.1242 20.7112 15.8943 20.8892 15.8399 21.1365C15.8077 21.2848 15.8102 21.4406 15.8102 21.5939C15.8028 25.1025 15.7978 28.6136 15.7904 32.1222C15.7879 32.8986 15.7558 32.9283 14.9794 32.9258C14.2228 32.9234 13.4637 32.9258 12.7071 32.9283C12.4944 32.9283 12.2991 32.8566 12.2645 32.644C12.2348 32.4733 12.2571 32.2558 12.3486 32.1198C12.4203 32.011 12.628 31.9937 12.8357 31.9145C12.8357 31.8552 12.8357 31.7439 12.8357 31.6351C12.8381 27.9435 12.8579 24.2544 12.8307 20.5628C12.8233 19.2796 13.2535 18.246 14.245 17.4424C14.2821 17.3855 14.3341 17.3757 14.4231 17.3361ZM22.8991 7.92786C22.8991 8.14545 22.8991 8.37293 22.8991 8.60041C22.8942 15.5138 22.8868 22.4247 22.8818 29.3381C22.8818 30.1145 22.8744 30.8909 22.8843 31.6673C22.8843 31.7588 22.9609 31.9244 23.0079 31.9269C23.4035 31.9492 23.8016 31.9393 24.1775 31.9393C24.1775 23.9033 24.1775 15.9144 24.1775 7.92786C23.7398 7.92786 23.3516 7.92786 22.8991 7.92786ZM30.9425 11.2807C32.1096 11.2881 33.1406 10.2719 33.1456 9.10976C33.1505 7.96001 32.1887 7.02784 30.9919 7.02289C29.8076 7.01795 28.7963 7.98721 28.779 9.14438C28.7641 10.2669 29.7804 11.2733 30.9425 11.2807ZM16.1242 11.2782C17.2715 11.2659 18.2803 10.2892 18.2754 9.19631C18.2704 7.98968 17.2839 7.00558 16.097 7.02536C14.8904 7.04267 13.9162 7.99462 13.931 9.13944C13.9458 10.3016 14.9621 11.2906 16.1242 11.2782ZM33.9591 9.84413C34.8517 10.0815 35.6948 10.3065 36.5602 10.5389C36.5602 10.4623 36.5676 10.4227 36.5602 10.3881C36.397 9.68835 36.2388 8.98861 36.0608 8.29381C36.036 8.19243 35.9223 8.10094 35.8283 8.03418C35.4921 7.7894 35.1459 7.5545 34.7997 7.32208C34.7453 7.28499 34.6539 7.24048 34.6094 7.26273C34.3225 7.40614 34.0431 7.56686 33.7489 7.73005C34.0777 8.41249 34.1495 9.10482 33.9591 9.84413ZM13.0879 9.85896C12.895 9.09493 12.9939 8.38777 13.3203 7.71769C12.9741 7.54708 12.6675 7.39625 12.4598 7.2924C11.9752 7.5817 11.5524 7.82896 11.1345 8.09105C11.0677 8.13309 11.0134 8.22952 10.9911 8.31111C10.8798 8.71662 10.7784 9.12707 10.6771 9.53505C10.6029 9.83671 10.5337 10.1408 10.4422 10.5167C11.362 10.2892 12.2101 10.079 13.0879 9.85896ZM10.5732 4.61953C9.83392 4.62447 9.26522 5.18822 9.27758 5.90775C9.28995 6.57782 9.90315 7.18114 10.5831 7.18608C11.2557 7.19103 11.9109 6.52095 11.8961 5.84099C11.8812 5.1907 11.2581 4.61458 10.5732 4.61953ZM35.2028 5.84346C35.1904 6.55557 35.7715 7.16136 36.4762 7.17372C37.1561 7.18608 37.7693 6.59019 37.7842 5.90528C37.799 5.21542 37.2105 4.61953 36.5083 4.61705C35.811 4.61211 35.2151 5.17339 35.2028 5.84346ZM23.5247 7.03278C24.2121 7.03773 24.8006 6.46903 24.8104 5.79401C24.8203 5.12641 24.2269 4.5404 23.542 4.53793C22.8398 4.53546 22.2785 5.06707 22.2686 5.74456C22.2563 6.45419 22.8151 7.02784 23.5247 7.03278ZM37.6259 20.6296C36.9113 20.6321 36.3624 21.1934 36.3674 21.9178C36.3723 22.5978 36.9212 23.1714 37.5715 23.1739C38.2342 23.1764 38.7905 22.5978 38.793 21.9055C38.793 21.1958 38.2762 20.6271 37.6259 20.6296ZM9.43831 20.6543C8.76576 20.6617 8.23909 21.2354 8.25146 21.9475C8.26382 22.62 8.83252 23.1838 9.48529 23.1714C10.1381 23.1591 10.7067 22.5706 10.6969 21.9178C10.682 21.2032 10.1282 20.6469 9.43831 20.6543ZM27.0432 13.8028C26.4473 13.8028 25.8934 13.7978 25.3396 13.8102C25.2778 13.8126 25.169 13.9239 25.164 13.9931C25.1418 14.2305 25.1467 14.4704 25.1616 14.7102C25.1665 14.7695 25.2506 14.8734 25.3 14.8734C25.8885 14.8858 26.4795 14.8808 27.0951 14.8808C27.0778 14.5149 27.0605 14.1761 27.0432 13.8028ZM20.0111 14.8882C20.3944 14.8882 20.7752 14.8956 21.1559 14.8858C22.1252 14.8586 21.9274 15.086 21.9546 14.0352C21.9595 13.8596 21.8878 13.8028 21.7172 13.8052C21.3241 13.8126 20.9309 13.8052 20.5378 13.8052C20.3697 13.8052 20.204 13.8052 20.0111 13.8052C20.0111 14.1835 20.0111 14.5074 20.0111 14.8882Z" fill="#FFEB61"/>
</svg>
