<svg width="47" height="40" viewBox="0 0 47 40" fill="none" xmlns="http://www.w3.org/2000/svg">
<path d="M39.506 7.51131C39.506 7.4155 39.506 7.32278 39.506 7.22697C39.506 6.72321 39.3979 6.56868 38.9126 6.4296C38.8385 6.40796 38.7365 6.45432 38.6592 6.4945C38.2667 6.70157 37.8804 6.91791 37.4878 7.12189C37.2468 7.2486 37.0274 7.21152 36.9006 6.955C36.777 6.70775 36.8481 6.50686 37.0923 6.36779C37.4508 6.16381 37.8 5.94746 38.1616 5.75276C38.3038 5.67549 38.3625 5.59822 38.3254 5.43133C38.2976 5.29843 38.279 5.147 38.3192 5.02646C38.4336 4.68031 38.2667 4.52888 37.9793 4.40216C37.7011 4.27854 37.4291 4.13328 37.1695 3.97257C36.8852 3.79641 36.8141 3.5337 36.9686 3.3019C37.1417 3.03611 37.3704 3.0732 37.6053 3.20301C37.9483 3.39153 38.2914 3.57697 38.6221 3.78095C38.7736 3.87367 38.8972 3.93548 39.0301 3.77168C39.0424 3.75622 39.0641 3.73768 39.0795 3.73459C39.5586 3.64187 39.5338 3.28955 39.5184 2.92486C39.506 2.66215 39.5153 2.39636 39.5338 2.13366C39.5493 1.89568 39.6822 1.73497 39.9294 1.71643C40.1674 1.69788 40.4023 1.91731 40.4085 2.16765C40.4239 2.55707 40.4239 2.94958 40.4147 3.33899C40.4116 3.49971 40.4919 3.54916 40.6155 3.63878C40.9833 3.90767 41.2739 3.80258 41.5984 3.5677C41.8363 3.39771 42.1114 3.27718 42.3772 3.14429C42.5781 3.0423 42.7697 3.04848 42.8964 3.26173C43.0293 3.48425 43.0633 3.71914 42.8253 3.87985C42.5008 4.09619 42.1608 4.28781 41.8116 4.46706C41.6014 4.57214 41.4902 4.68032 41.5829 4.92756C41.6231 5.02955 41.6385 5.16863 41.6014 5.27062C41.4964 5.57041 41.6602 5.67858 41.8858 5.79602C42.1948 5.95674 42.4946 6.13599 42.7851 6.32452C43.0417 6.49141 43.1004 6.74484 42.9644 6.97972C42.8037 7.24861 42.575 7.24551 42.337 7.11262C41.9939 6.92409 41.654 6.73248 41.3233 6.52232C41.1626 6.42033 41.0544 6.45123 40.8752 6.50068C40.3807 6.64594 40.3529 6.98281 40.3807 7.39695C40.3992 7.65966 40.3776 7.92545 40.3621 8.18815C40.3467 8.45703 40.2107 8.63629 39.9294 8.63319C39.6544 8.62701 39.5122 8.45085 39.5029 8.17888C39.5029 7.95636 39.5091 7.73383 39.506 7.51131C39.5122 7.51131 39.5091 7.51131 39.506 7.51131ZM40.6341 5.1779C40.6403 4.78231 40.3405 4.46706 39.9511 4.46088C39.5895 4.4547 39.2835 4.76685 39.2742 5.147C39.268 5.50241 39.5616 5.78366 39.948 5.79911C40.3467 5.81147 40.6248 5.55805 40.6341 5.1779Z" fill="#FFEB61"/>
<path d="M39.506 7.51131C39.506 7.4155 39.506 7.32278 39.506 7.22697C39.506 6.72321 39.3979 6.56868 38.9126 6.4296C38.8385 6.40796 38.7365 6.45432 38.6592 6.4945C38.2667 6.70157 37.8804 6.91791 37.4878 7.12189C37.2468 7.2486 37.0274 7.21152 36.9006 6.955C36.777 6.70775 36.8481 6.50686 37.0923 6.36779C37.4508 6.16381 37.8 5.94746 38.1616 5.75276C38.3038 5.67549 38.3625 5.59822 38.3254 5.43133C38.2976 5.29843 38.279 5.147 38.3192 5.02646C38.4336 4.68031 38.2667 4.52888 37.9793 4.40216C37.7011 4.27854 37.4291 4.13328 37.1695 3.97257C36.8852 3.79641 36.8141 3.5337 36.9686 3.3019C37.1417 3.03611 37.3704 3.0732 37.6053 3.20301C37.9483 3.39153 38.2914 3.57697 38.6221 3.78095C38.7736 3.87367 38.8972 3.93548 39.0301 3.77168C39.0424 3.75622 39.0641 3.73768 39.0795 3.73459C39.5586 3.64187 39.5338 3.28955 39.5184 2.92486C39.506 2.66215 39.5153 2.39636 39.5338 2.13366C39.5493 1.89568 39.6822 1.73497 39.9294 1.71643C40.1674 1.69788 40.4023 1.91731 40.4085 2.16765C40.4239 2.55707 40.4239 2.94958 40.4147 3.33899C40.4116 3.49971 40.4919 3.54916 40.6155 3.63878C40.9833 3.90767 41.2739 3.80258 41.5984 3.5677C41.8363 3.39771 42.1114 3.27718 42.3772 3.14429C42.5781 3.0423 42.7697 3.04848 42.8964 3.26173C43.0293 3.48425 43.0633 3.71914 42.8253 3.87985C42.5008 4.09619 42.1608 4.28781 41.8116 4.46706C41.6014 4.57214 41.4902 4.68032 41.5829 4.92756C41.6231 5.02955 41.6385 5.16863 41.6014 5.27062C41.4964 5.57041 41.6602 5.67858 41.8858 5.79602C42.1948 5.95673 42.4946 6.13599 42.7851 6.32452C43.0417 6.49141 43.1004 6.74484 42.9644 6.97973C42.8037 7.24861 42.575 7.24551 42.337 7.11262C41.9939 6.92409 41.654 6.73248 41.3233 6.52232C41.1626 6.42033 41.0544 6.45123 40.8752 6.50068C40.3807 6.64594 40.3529 6.98281 40.3807 7.39695C40.3992 7.65965 40.3776 7.92545 40.3621 8.18815C40.3467 8.45703 40.2107 8.63629 39.9294 8.63319C39.6544 8.62701 39.5122 8.45085 39.5029 8.17888C39.5029 7.95636 39.5091 7.73383 39.506 7.51131ZM39.506 7.51131C39.5091 7.51131 39.5122 7.51131 39.506 7.51131ZM40.6341 5.1779C40.6403 4.78231 40.3405 4.46706 39.9511 4.46088C39.5895 4.4547 39.2835 4.76685 39.2742 5.147C39.268 5.50241 39.5616 5.78366 39.948 5.79911C40.3467 5.81147 40.6248 5.55805 40.6341 5.1779Z" stroke="#FFEB61" stroke-width="0.1" stroke-miterlimit="10"/>
<path d="M3.85913 7.53302C3.85913 7.44957 3.84676 7.36304 3.85913 7.27959C3.92094 6.87781 3.8004 6.60893 3.38317 6.46676C3.20392 6.40804 3.09265 6.3864 2.92885 6.49457C2.59507 6.7171 2.24583 6.9149 1.89659 7.1096C1.66789 7.23632 1.44228 7.23323 1.30011 6.97053C1.16412 6.72019 1.20739 6.49149 1.45154 6.33387C1.76988 6.12989 2.11602 5.9599 2.42818 5.74356C2.53326 5.66938 2.57962 5.50558 2.64143 5.37578C2.66306 5.33251 2.62906 5.26761 2.64761 5.21816C2.81141 4.72366 2.56416 4.47023 2.13456 4.29715C1.92131 4.21062 1.72661 4.07463 1.52881 3.95719C1.29701 3.81811 1.21357 3.53069 1.32792 3.30507C1.44227 3.08255 1.69261 3.01765 1.9584 3.1629C2.30146 3.35143 2.64142 3.54305 2.97212 3.75321C3.12665 3.84902 3.25027 3.87683 3.39862 3.75321C3.4697 3.69449 3.56552 3.65431 3.65515 3.63577C3.82204 3.59868 3.8653 3.49978 3.86221 3.33907C3.85294 2.9682 3.85604 2.60042 3.85913 2.22955C3.86531 1.90812 4.02601 1.70723 4.27635 1.69487C4.53596 1.68251 4.7214 1.88649 4.73376 2.22955C4.74922 2.58806 4.74303 2.94965 4.75231 3.30816C4.75849 3.6234 5.29934 3.92319 5.58059 3.76557C5.95146 3.56159 6.31306 3.34216 6.6932 3.15981C7.03626 2.99601 7.31133 3.14436 7.36387 3.47815C7.39787 3.6914 7.31133 3.84284 7.1228 3.94792C6.77047 4.13954 6.42123 4.34042 6.06891 4.52895C5.91129 4.6124 5.81547 4.70203 5.90201 4.90291C5.93601 4.98636 5.95146 5.10071 5.92365 5.18107C5.78457 5.57666 5.99782 5.74356 6.31924 5.89191C6.61594 6.02789 6.8941 6.20406 7.16916 6.38331C7.42568 6.55329 7.4844 6.80673 7.33914 7.03852C7.17843 7.29504 6.9559 7.26723 6.73029 7.1436C6.35942 6.93962 5.99782 6.72328 5.63004 6.51312C5.32407 6.33695 4.76467 6.64601 4.7554 6.99834C4.74613 7.38776 4.74922 7.78026 4.74303 8.16968C4.73685 8.45711 4.56378 8.65182 4.30416 8.64255C4.01983 8.63636 3.88694 8.4602 3.87767 8.19441C3.8684 7.97188 3.87458 7.74936 3.87458 7.52993C3.86221 7.53302 3.85913 7.53302 3.85913 7.53302ZM4.30108 5.80846C4.70904 5.80228 4.97792 5.52722 4.96556 5.12853C4.95629 4.75766 4.63178 4.46096 4.25472 4.47332C3.88076 4.48568 3.61806 4.79165 3.62733 5.2027C3.63969 5.54576 3.93639 5.81155 4.30108 5.80846Z" fill="#FFEB61" stroke="#FFEB61" stroke-width="0.1" stroke-miterlimit="10"/>
<path d="M9.56783 35.1229C9.89852 34.5326 10.3312 34.1061 10.9184 33.865C11.0884 33.7939 11.2955 33.7352 11.4685 33.7692C11.6138 33.797 11.8023 33.9454 11.8394 34.0752C11.8734 34.205 11.7591 34.3873 11.6756 34.5295C11.6323 34.6006 11.5149 34.6253 11.4315 34.6655C10.6464 35.0332 10.1149 35.6081 10.1056 36.5106C10.0963 37.413 10.6804 37.9415 11.4098 38.3433C11.5273 38.4082 11.6942 38.4607 11.7374 38.5658C11.7992 38.7049 11.8209 38.9243 11.7498 39.0356C11.6787 39.1468 11.4593 39.2272 11.3202 39.2117C10.6464 39.1376 10.1581 38.7451 9.77799 38.2073C9.71618 38.1208 9.66364 38.0311 9.60491 37.9415C9.59873 37.9353 9.58945 37.9291 9.54928 37.9044C9.43183 38.059 9.31749 38.2228 9.19078 38.3711C8.80754 38.8285 8.3594 39.1839 7.73509 39.2303C7.52184 39.2457 7.31786 39.1623 7.30859 38.949C7.30241 38.7791 7.41677 38.5936 7.50949 38.4329C7.54966 38.3649 7.68256 38.3587 7.75982 38.3062C8.02253 38.1177 8.31922 37.9539 8.53556 37.7159C9.32984 36.8382 9.13205 35.5679 8.11834 34.8973C7.97926 34.8045 7.82782 34.718 7.67019 34.6655C7.38586 34.5727 7.28387 34.3842 7.3395 34.1061C7.38586 33.8805 7.6362 33.7445 7.92363 33.8001C8.51393 33.9175 8.94352 34.2853 9.30203 34.7458C9.38548 34.8571 9.45966 34.9683 9.56783 35.1229Z" fill="#FFEB61" stroke="#FFEB61" stroke-width="0.1" stroke-miterlimit="10"/>
<path d="M34.8393 35.0765C35.1422 34.7674 35.4141 34.4429 35.7325 34.1771C35.9457 34.0009 36.2177 33.8773 36.4835 33.7846C36.774 33.6826 37.0274 33.8155 37.1078 34.0597C37.2036 34.3533 37.0491 34.514 36.8018 34.6314C36.125 34.9467 35.6181 35.4195 35.4852 36.1829C35.3338 37.0668 35.8252 37.8827 36.7277 38.3216C36.8575 38.3834 37.0274 38.4514 37.08 38.5627C37.1418 38.6987 37.1572 38.9304 37.08 39.0324C36.9934 39.1468 36.7709 39.2302 36.6226 39.2055C35.9674 39.1097 35.4914 38.7203 35.1205 38.1887C35.0464 38.0774 34.9784 37.96 34.9537 37.9198C34.5488 38.2907 34.1717 38.6678 33.7576 38.9954C33.5845 39.1313 33.3342 39.1839 33.1147 39.2364C32.886 39.2921 32.6975 39.2055 32.6233 38.9552C32.5522 38.7172 32.6295 38.5503 32.8459 38.4267C33.1209 38.2691 33.4114 38.1269 33.6463 37.926C34.6631 37.0452 34.5797 35.6699 33.4671 34.9034C33.3033 34.789 33.1178 34.7056 32.9417 34.6129C32.7068 34.4893 32.5832 34.3007 32.6635 34.0442C32.75 33.7661 32.9911 33.729 33.2353 33.7877C33.8627 33.936 34.3355 34.31 34.6909 34.8385C34.7435 34.925 34.796 35.0147 34.8393 35.0765Z" fill="#FFEB61" stroke="#FFEB61" stroke-width="0.1" stroke-miterlimit="10"/>
<path d="M44.1607 15.8465C44.3184 16.9221 44.0186 17.7627 43.1717 18.3747C43.0481 18.4643 42.8967 18.5385 42.7452 18.5725C42.5351 18.6157 42.3404 18.5508 42.2477 18.3345C42.158 18.1243 42.2106 17.9389 42.3898 17.7967C42.4825 17.7256 42.5784 17.6638 42.6742 17.5927C43.1934 17.2064 43.3912 16.6779 43.2552 16.0598C43.1192 15.4417 42.7205 15.0399 42.0962 14.8915C41.8212 14.8266 41.5523 14.771 41.5244 14.4094C41.509 14.1869 41.5955 14.0262 41.815 13.9891C41.988 13.9613 42.1797 13.9489 42.3466 13.9922C43.3386 14.258 43.9289 14.9194 44.1607 15.8465Z" fill="#FFEB61" stroke="#FFEB61" stroke-width="0.1" stroke-miterlimit="10"/>
<path d="M4.47115 13.7854C4.42479 14.0851 4.41861 14.4128 4.00447 14.422C3.72632 14.4282 3.60269 14.2613 3.5316 13.8163C3.24418 13.7359 2.89803 13.6679 2.93512 13.263C2.96293 12.9509 3.22254 12.8489 3.5316 12.8304C3.55324 12.7407 3.57487 12.6511 3.59959 12.5615C3.65832 12.342 3.7974 12.2153 4.02919 12.2153C4.26099 12.2153 4.37843 12.373 4.40934 12.5707C4.43716 12.7562 4.49897 12.8396 4.69676 12.8644C4.92856 12.8953 5.12327 13.0251 5.114 13.297C5.10473 13.5567 4.93474 13.6865 4.69058 13.7359C4.62258 13.7514 4.54841 13.7668 4.47115 13.7854Z" fill="#FFEB61" stroke="#FFEB61" stroke-width="0.1" stroke-miterlimit="10"/>
<path d="M12.7598 4.18283C12.5373 4.16119 12.4013 4.03757 12.3179 3.80886C12.2808 3.70378 12.1726 3.59561 12.0706 3.54617C11.8605 3.44418 11.6503 3.34528 11.6719 3.07949C11.6905 2.82915 11.8821 2.71788 12.1108 2.64062C12.2035 2.60971 12.3117 2.50463 12.3333 2.415C12.3921 2.16776 12.5033 2.00704 12.7722 2.00395C13.0287 2.00086 13.1338 2.1523 13.1894 2.39028C13.2142 2.48918 13.3409 2.60662 13.446 2.63444C13.6963 2.70552 13.891 2.81678 13.891 3.09185C13.891 3.37618 13.6777 3.46581 13.4274 3.52144C13.3409 3.54307 13.2482 3.66361 13.2142 3.75632C13.1338 3.97576 13.0473 4.16738 12.7598 4.18283Z" fill="#FFEB61" stroke="#FFEB61" stroke-width="0.1" stroke-miterlimit="10"/>
<path d="M44.8931 25.9838C44.8745 26.1074 44.8652 26.2002 44.8467 26.2929C44.8003 26.5154 44.6736 26.6638 44.4387 26.6607C44.2038 26.6576 44.0153 26.534 43.9906 26.2929C43.969 26.0765 43.867 26.0116 43.6846 25.9251C43.5456 25.8602 43.4188 25.6624 43.3879 25.5079C43.3447 25.2823 43.5208 25.1586 43.7372 25.0937C43.8268 25.069 43.9381 24.9856 43.9628 24.9052C44.0339 24.6641 44.1142 24.454 44.4109 24.4571C44.7262 24.4602 44.8498 24.661 44.8838 24.9454C44.8869 24.9763 44.9054 25.0041 44.9178 25.0288C45.3783 25.1308 45.5204 25.2575 45.505 25.548C45.4803 25.9251 45.2052 25.9653 44.8931 25.9838Z" fill="#FFEB61" stroke="#FFEB61" stroke-width="0.1" stroke-miterlimit="10"/>
<path d="M33.3126 6.43898C33.3157 6.71713 33.0994 6.94275 32.8212 6.95202C32.5215 6.96129 32.2649 6.72022 32.2711 6.42661C32.2742 6.13609 32.5029 5.91357 32.7996 5.91357C33.087 5.91357 33.3095 6.14228 33.3126 6.43898Z" fill="#FFEB61" stroke="#FFEB61" stroke-width="0.1" stroke-miterlimit="10"/>
<path d="M2.46539 31.9921C2.18106 31.9952 1.94927 31.7634 1.94618 31.4729C1.93999 31.1916 2.15324 30.9784 2.44066 30.9722C2.72809 30.9691 2.98153 31.2009 2.98771 31.4698C2.9908 31.751 2.75282 31.989 2.46539 31.9921Z" fill="#FFEB61" stroke="#FFEB61" stroke-width="0.1" stroke-miterlimit="10"/>
<path d="M25.7156 37.6634C25.7156 37.9601 25.4838 38.1826 25.1902 38.1734C24.9151 38.1641 24.6926 37.9385 24.6864 37.6634C24.6802 37.3945 24.9367 37.1226 25.1994 37.1226C25.4652 37.1226 25.7156 37.3853 25.7156 37.6634Z" fill="#FFEB61" stroke="#FFEB61" stroke-width="0.1" stroke-miterlimit="10"/>
<path d="M1.97386 20.492C1.6957 20.5013 1.46081 20.288 1.44536 20.0099C1.42991 19.7163 1.64625 19.4783 1.94295 19.469C2.2242 19.4597 2.46835 19.6977 2.47453 19.9851C2.48072 20.2571 2.2551 20.4827 1.97386 20.492Z" fill="#FFEB61" stroke="#FFEB61" stroke-width="0.1" stroke-miterlimit="10"/>
<path d="M43.4032 33.2128C43.1004 33.2066 42.8902 32.9872 42.8995 32.6874C42.9087 32.4092 43.1313 32.1929 43.4094 32.1929C43.6938 32.1929 43.9132 32.4278 43.9101 32.7275C43.9039 33.015 43.6968 33.2159 43.4032 33.2128Z" fill="#FFEB61" stroke="#FFEB61" stroke-width="0.1" stroke-miterlimit="10"/>
<path d="M11.9352 7.77421C11.929 8.06473 11.6849 8.31507 11.4191 8.30889C11.1471 8.29962 10.9246 8.06782 10.9246 7.79276C10.9246 7.49606 11.1564 7.25808 11.4345 7.26735C11.7096 7.27353 11.9414 7.51151 11.9352 7.77421Z" fill="#FFEB61" stroke="#FFEB61" stroke-width="0.1" stroke-miterlimit="10"/>
<path d="M17.4952 37.4224C17.7641 37.4224 17.9804 37.6572 17.9742 37.9416C17.968 38.2197 17.764 38.4175 17.489 38.4144C17.217 38.4114 16.9821 38.1796 16.979 37.9138C16.9759 37.6511 17.2139 37.4255 17.4952 37.4224Z" fill="#FFEB61" stroke="#FFEB61" stroke-width="0.1" stroke-miterlimit="10"/>
<path d="M22.8785 8.45996C24.1395 8.76593 24.9399 9.47678 25.079 10.781C25.2181 12.0883 24.5103 12.9197 23.4163 13.5224C23.4348 13.5471 23.4534 13.5718 23.4719 13.5965C23.5646 13.5965 23.6573 13.5965 23.75 13.5965C25.9227 13.5935 28.0985 13.5873 30.2743 13.5873C30.4227 13.5873 30.5772 13.5904 30.7225 13.6151C30.9543 13.6553 31.0779 13.8098 31.0717 14.0416C31.0655 14.2703 30.9543 14.431 30.7194 14.4712C30.5988 14.4928 30.4721 14.4928 30.3485 14.4928C28.2345 14.4959 26.1236 14.4959 24.0097 14.4959C23.9077 14.4959 23.8026 14.4959 23.6882 14.4959C23.7717 14.975 23.8644 15.4169 23.9231 15.862C24.26 18.4921 24.0622 21.0634 23.0485 23.539C22.9558 23.7646 22.965 23.9408 23.0732 24.1602C23.7099 25.4583 24.362 26.7532 24.943 28.0791C25.3664 29.0434 25.6044 30.0726 25.762 31.1172C25.7744 31.2099 25.83 31.3181 25.898 31.3799C26.6738 32.0722 27.3135 32.8572 27.6998 33.8338C27.7277 33.908 27.8667 33.9822 27.9564 33.9822C28.4045 33.9976 28.8588 33.9883 29.31 33.9914C29.7026 33.9945 29.8849 34.146 29.888 34.4519C29.888 34.7579 29.6995 34.9155 29.3131 34.9155C26.2194 34.9155 23.1257 34.9155 20.0321 34.9155C18.6444 34.9155 17.2567 34.9186 15.869 34.9217C15.7639 34.9217 15.6558 34.9217 15.5507 34.9063C15.288 34.8692 15.1273 34.7023 15.1273 34.4767C15.1242 34.2232 15.2942 34.0223 15.5692 34.01C16.0452 33.9914 16.5242 33.9853 17.0002 34.0007C17.2165 34.0069 17.3061 33.9296 17.3803 33.7349C17.7141 32.8696 18.2395 32.134 18.938 31.5251C19.1327 31.3582 19.247 31.1821 19.2903 30.9132C19.6241 28.793 20.4276 26.8398 21.4599 24.9731C21.6144 24.6949 21.7504 24.4075 21.9173 24.1355C22.0317 23.947 22.0193 23.7832 21.939 23.5885C20.7769 20.7698 20.6687 17.8585 21.2127 14.8946C21.2343 14.7741 21.2683 14.6566 21.3085 14.4866C21.1879 14.4866 21.0859 14.4866 20.987 14.4866C18.9349 14.4866 16.8858 14.4866 14.8367 14.4836C14.6791 14.4836 14.5153 14.4836 14.3608 14.4557C14.129 14.4125 14.0146 14.2394 14.0146 14.0169C14.0146 13.7882 14.1414 13.6305 14.3793 13.6027C14.5462 13.5842 14.7131 13.5842 14.8831 13.5873C17.0311 13.5904 19.179 13.5965 21.327 13.5996C21.4012 13.5996 21.4754 13.5811 21.565 13.5038C21.4568 13.4389 21.3487 13.374 21.2405 13.306C20.1155 12.6199 19.6334 11.4857 19.9981 10.268C20.2793 9.32843 20.9407 8.75975 21.8895 8.52178C21.9668 8.50323 22.044 8.49087 22.1213 8.46924C22.1368 8.46615 22.1491 8.45069 22.1862 8.42288C22.1244 8.01183 22.0595 7.58533 21.9946 7.15882C21.9699 6.98575 21.9235 6.80958 21.9173 6.63651C21.9111 6.43562 21.8122 6.36145 21.6268 6.33672C21.0581 6.25946 20.4926 6.16674 19.9239 6.08638C19.6828 6.05239 19.4788 5.96894 19.485 5.68769C19.4912 5.40954 19.7075 5.33536 19.9393 5.30137C20.4709 5.22101 21.0056 5.14066 21.5372 5.0603C21.7752 5.02321 21.9204 4.94286 21.9328 4.64616C21.9451 4.3062 22.0409 3.96623 22.1089 3.62936C22.1522 3.42228 22.2573 3.26157 22.4953 3.26775C22.7425 3.27393 22.8723 3.40374 22.9094 3.65717C22.9619 4.0404 23.0454 4.42364 23.101 4.80687C23.1196 4.94286 23.169 5.00467 23.3112 5.02322C23.8891 5.10048 24.464 5.19011 25.0388 5.27974C25.1686 5.30137 25.3293 5.30755 25.4097 5.3879C25.4993 5.48062 25.5766 5.66915 25.5395 5.77732C25.4993 5.89786 25.3386 6.03384 25.2119 6.05548C24.7174 6.15128 24.2167 6.19764 23.7161 6.27182C23.1443 6.35526 23.1443 6.36145 23.0763 6.92703C23.0021 7.44625 22.9403 7.95002 22.8785 8.45996ZM18.1901 33.9976C21.0829 33.9976 23.9448 33.9976 26.819 33.9976C26.0989 32.3225 24.4732 31.1419 22.5509 31.1203C20.6409 31.0955 18.8824 32.2576 18.1901 33.9976ZM24.8287 30.7648C24.8132 29.7419 23.1196 25.5819 22.4613 24.9391C21.4661 26.7811 20.5482 28.6447 20.1526 30.7587C21.7381 30.122 23.2834 30.1035 24.8287 30.7648ZM24.2445 11.0252C24.2569 10.1073 23.4657 9.31915 22.52 9.30988C21.5619 9.29752 20.7274 10.0702 20.7151 10.985C20.6996 11.9369 21.5372 12.8023 22.4829 12.8115C23.4286 12.8177 24.2322 12.0049 24.2445 11.0252ZM22.3933 22.6087C22.4335 22.6087 22.4736 22.6057 22.5138 22.6057C22.5509 22.5006 22.5942 22.3986 22.6282 22.2904C23.4317 19.5583 23.407 16.82 22.7054 14.0756C22.6714 13.9458 22.5663 13.8376 22.4953 13.7171C22.4211 13.8345 22.3129 13.9396 22.2789 14.0694C21.6824 16.2483 21.5712 18.4581 21.9606 20.6833C22.0657 21.3292 22.2449 21.9659 22.3933 22.6087Z" fill="#FFEB61"/>
<path d="M8.46711 16.0168C6.73019 14.8022 6.75492 12.7624 7.78719 11.6776C8.90598 10.497 10.8562 10.5402 11.9688 11.7672C12.9887 12.8953 12.9021 14.9814 11.1838 16.0322C11.2827 16.2238 11.3846 16.4155 11.4866 16.6071C13.1401 19.7873 14.7936 22.9675 16.4532 26.1447C16.6356 26.4939 16.7159 26.8246 16.5954 27.2295C15.8475 29.7329 14.33 31.5069 11.7926 32.2764C8.95852 33.1356 5.94828 32.0415 4.24226 29.6062C3.71995 28.8613 3.36144 28.0392 3.08638 27.1769C2.98748 26.8586 2.99984 26.5774 3.15128 26.2868C3.68595 25.2515 4.20517 24.21 4.74294 23.1715C5.96373 20.8196 7.1907 18.4738 8.41767 16.1249C8.43621 16.0971 8.44857 16.0631 8.46711 16.0168ZM15.6744 27.2542C11.7802 27.2542 7.90771 27.2542 4.02592 27.2542C5.00873 30.1501 7.4194 31.8128 10.1422 31.6923C12.9145 31.5687 15.0006 29.5474 15.6744 27.2542ZM9.39429 16.3722C9.35412 16.3567 9.31394 16.3444 9.27376 16.3289C7.54612 19.6575 5.81538 22.983 4.06919 26.3425C5.89265 26.3425 7.64501 26.3425 9.39739 26.3425C9.3943 23.0046 9.39429 19.6884 9.39429 16.3722ZM15.6064 26.3641C15.5693 26.2868 15.5539 26.2467 15.5353 26.2065C14.5711 24.3583 13.6099 22.5101 12.6456 20.665C11.9286 19.2866 11.2116 17.9082 10.4884 16.5329C10.4544 16.4649 10.3864 16.4155 10.3307 16.3598C10.3091 16.3722 10.2875 16.3846 10.2658 16.4C10.2658 19.7162 10.2658 23.0324 10.2658 26.3641C12.0399 26.3641 13.8015 26.3641 15.6064 26.3641ZM9.85171 11.6528C8.78236 11.659 7.89227 12.5337 7.89536 13.5783C7.89845 14.6105 8.83799 15.5346 9.87952 15.5315C10.884 15.5285 11.8173 14.5673 11.805 13.5505C11.7864 12.4997 10.9087 11.6467 9.85171 11.6528Z" fill="#FFEB61"/>
<path d="M33.7666 16.029C33.3122 15.7323 32.929 15.3707 32.6694 14.8947C32.1316 13.9119 32.1595 12.9353 32.7899 12.0174C33.4266 11.0933 34.3476 10.7008 35.454 10.8368C36.6439 10.9851 37.4907 11.7671 37.7751 12.8982C38.0532 14.0016 37.6422 15.1327 36.6903 15.8157C36.4863 15.961 36.477 16.0599 36.5883 16.2762C38.2634 19.4441 39.92 22.6243 41.6136 25.786C41.9536 26.4227 41.9968 26.9883 41.7403 27.662C41.0202 29.5349 39.8798 31.0184 38.044 31.9054C34.5361 33.6022 30.3422 31.9796 28.8 28.3234C28.6609 27.9896 28.5527 27.6435 28.4291 27.3035C28.2838 26.9141 28.3457 26.5525 28.5404 26.1878C29.0194 25.273 29.4706 24.3427 29.9466 23.4279C31.1983 21.0049 32.4562 18.5818 33.7109 16.1588C33.7264 16.1217 33.7418 16.0815 33.7666 16.029ZM29.3223 27.2448C30.0362 29.7451 32.4809 31.856 35.4108 31.6984C38.149 31.55 40.3186 29.4886 40.9491 27.2448C37.0797 27.2448 33.2133 27.2448 29.3223 27.2448ZM34.703 16.3597C34.4125 16.5142 30.1196 24.6889 29.4366 26.3516C31.1983 26.3516 32.9475 26.3516 34.703 26.3516C34.703 23.0168 34.703 19.6944 34.703 16.3597ZM40.946 26.3547C39.1751 22.9921 37.432 19.6759 35.6858 16.3566C35.658 16.369 35.6271 16.3782 35.5962 16.3906C35.5962 19.7068 35.5962 23.023 35.5962 26.3547C37.3671 26.3547 39.138 26.3547 40.946 26.3547ZM37.0179 13.5998C37.0148 12.5243 36.1432 11.6403 35.0924 11.6465C34.0354 11.6527 33.1423 12.5366 33.1546 13.5658C33.1639 14.6042 34.088 15.5283 35.1048 15.5252C36.1123 15.519 37.021 14.6104 37.0179 13.5998Z" fill="#FFEB61"/>
</svg>
