<svg width="46" height="40" viewBox="0 0 46 40" fill="none" xmlns="http://www.w3.org/2000/svg">
<path d="M40.4761 7.87983C40.4761 7.77778 40.4761 7.67573 40.4761 7.57368C40.4736 7.03356 40.3591 6.86679 39.8414 6.71994C39.7643 6.69754 39.6523 6.74732 39.5701 6.78963C39.1495 7.01116 38.7363 7.24264 38.3156 7.46167C38.0568 7.59608 37.8228 7.55626 37.6859 7.28246C37.554 7.01862 37.6287 6.80208 37.89 6.65274C38.2733 6.4337 38.6492 6.20471 39.035 5.99563C39.1868 5.91349 39.249 5.82887 39.2117 5.64966C39.1818 5.51027 39.1619 5.34599 39.2042 5.21408C39.3262 4.8457 39.147 4.68142 38.8408 4.54702C38.5421 4.4151 38.2509 4.26078 37.9746 4.08654C37.671 3.89738 37.5963 3.61611 37.7581 3.36721C37.9423 3.08346 38.1887 3.12328 38.4401 3.26018C38.806 3.46179 39.1744 3.66092 39.5303 3.87746C39.6921 3.97703 39.824 4.04423 39.9659 3.86751C39.9783 3.85008 40.0007 3.83266 40.0206 3.82768C40.5359 3.73061 40.506 3.34978 40.4911 2.96149C40.4786 2.68023 40.4861 2.39648 40.506 2.11522C40.5234 1.85885 40.6653 1.68711 40.9291 1.6672C41.183 1.64729 41.4344 1.88126 41.4444 2.15007C41.4593 2.56823 41.4593 2.98638 41.4493 3.40454C41.4444 3.57629 41.5315 3.62856 41.6634 3.72563C42.0567 4.01436 42.3703 3.89986 42.7163 3.65096C42.9726 3.46926 43.2663 3.34232 43.5476 3.19796C43.7641 3.08844 43.9658 3.09342 44.1051 3.3249C44.247 3.56385 44.2844 3.81524 44.028 3.98698C43.682 4.21846 43.3161 4.42505 42.9452 4.61422C42.7212 4.72871 42.6018 4.84072 42.7013 5.10705C42.7436 5.21657 42.7586 5.36591 42.7212 5.47294C42.6067 5.79153 42.7859 5.911 43.0274 6.03545C43.3584 6.2072 43.6795 6.39885 43.9906 6.60295C44.2644 6.78216 44.3292 7.05347 44.1798 7.30486C44.0081 7.59359 43.7641 7.58861 43.5078 7.44922C43.1419 7.2501 42.7785 7.04102 42.425 6.8195C42.2533 6.70998 42.1363 6.74234 41.9471 6.7971C41.4195 6.95142 41.3871 7.31233 41.4195 7.75538C41.4394 8.03415 41.417 8.32039 41.3996 8.60165C41.3846 8.88789 41.2378 9.08203 40.9366 9.07705C40.6404 9.06959 40.4911 8.88043 40.4786 8.5917C40.4711 8.35524 40.4786 8.11878 40.4761 7.87983C40.4811 7.87983 40.4786 7.87983 40.4761 7.87983ZM41.6833 5.38333C41.6908 4.96268 41.3697 4.62418 40.954 4.61671C40.5682 4.61173 40.2372 4.94526 40.2297 5.35346C40.2222 5.73179 40.5359 6.03545 40.9515 6.05039C41.3771 6.06283 41.6758 5.79153 41.6833 5.38333Z" fill="#FFEB61"/>
<path d="M5.45039 7.07304C5.45039 6.98094 5.43795 6.89134 5.45288 6.80173C5.52009 6.37113 5.39065 6.0824 4.94262 5.93305C4.75097 5.86834 4.6315 5.84842 4.45478 5.96292C4.09884 6.20187 3.723 6.41344 3.34716 6.62003C3.10323 6.75444 2.8618 6.75195 2.70748 6.47069C2.56311 6.20187 2.6104 5.95546 2.86926 5.79118C3.21026 5.57215 3.57864 5.39294 3.91466 5.16146C4.02916 5.0843 4.07644 4.90508 4.14116 4.76819C4.16356 4.72089 4.12871 4.65121 4.14614 4.60143C4.32286 4.07126 4.05404 3.80244 3.59855 3.61576C3.36956 3.52367 3.16297 3.3793 2.94891 3.24987C2.7025 3.10053 2.6104 2.79438 2.73485 2.55295C2.85681 2.31649 3.12564 2.24679 3.40939 2.40111C3.77527 2.60023 4.13867 2.80932 4.49211 3.03333C4.65639 3.13787 4.78831 3.16525 4.94761 3.03582C5.02228 2.97359 5.12433 2.93128 5.2214 2.90888C5.40061 2.86905 5.4479 2.76452 5.44292 2.59277C5.43297 2.19702 5.43545 1.80125 5.44043 1.4055C5.44541 1.05952 5.61965 0.845468 5.88846 0.833023C6.16723 0.820578 6.36387 1.03962 6.3788 1.40301C6.39374 1.78633 6.38876 2.17213 6.39871 2.55544C6.40618 2.89395 6.98363 3.21254 7.28481 3.04578C7.68056 2.82923 8.06885 2.59277 8.47457 2.39863C8.84045 2.2244 9.13665 2.3812 9.1939 2.73713C9.23124 2.96612 9.13665 3.12792 8.93504 3.23992C8.55671 3.44402 8.18335 3.65808 7.80501 3.86218C7.63576 3.95428 7.53371 4.04885 7.6258 4.26042C7.66314 4.34754 7.67808 4.47199 7.64821 4.55911C7.49887 4.98473 7.72537 5.16145 8.07383 5.31826C8.39243 5.46263 8.69111 5.6518 8.98233 5.84345C9.25861 6.02515 9.31835 6.29646 9.16403 6.54536C8.99229 6.82164 8.75334 6.78928 8.51439 6.65736C8.11863 6.44082 7.73035 6.20934 7.33708 5.98284C7.00853 5.79367 6.40867 6.1272 6.39871 6.50304C6.38876 6.9212 6.39374 7.33936 6.38627 7.75752C6.38129 8.06616 6.19212 8.27274 5.91584 8.26528C5.61218 8.25781 5.4703 8.06865 5.45786 7.7849C5.4479 7.54844 5.45537 7.30949 5.45537 7.07304C5.45537 7.07304 5.45288 7.07304 5.45039 7.07304ZM5.92829 5.22617C6.36636 5.2187 6.65259 4.925 6.64015 4.49937C6.63019 4.10362 6.28422 3.78253 5.881 3.79746C5.48275 3.80991 5.20149 4.13846 5.20895 4.57653C5.21642 4.94491 5.53502 5.23115 5.92829 5.22617Z" fill="#FFEB61"/>
<path d="M3.06862 24.5241C2.98399 23.8023 3.08853 23.1626 3.44695 22.5851C3.55149 22.4184 3.69336 22.2342 3.86262 22.1545C4.00449 22.0873 4.26335 22.0973 4.37785 22.1869C4.48986 22.2765 4.50479 22.508 4.51973 22.6822C4.52719 22.7693 4.44256 22.8639 4.39278 22.9535C3.94476 23.7674 3.8452 24.5988 4.40523 25.3853C4.96527 26.1743 5.80158 26.2639 6.68767 26.1519C6.82955 26.1345 7.00876 26.0773 7.11081 26.137C7.2502 26.2191 7.40949 26.3934 7.41696 26.5352C7.42443 26.6746 7.28753 26.8837 7.15561 26.9584C6.52589 27.3168 5.85634 27.2844 5.18928 27.0579C5.08225 27.0206 4.98019 26.9758 4.87317 26.936C4.86321 26.9335 4.85076 26.936 4.80347 26.9385C4.79849 27.1475 4.80347 27.3591 4.78854 27.5682C4.74374 28.2054 4.57946 28.7953 4.06672 29.2309C3.89249 29.3802 3.6635 29.435 3.52162 29.2558C3.40962 29.1114 3.3897 28.8799 3.37228 28.6808C3.36232 28.5962 3.47682 28.509 3.50918 28.4145C3.6187 28.0834 3.77053 27.7573 3.81035 27.4164C3.94725 26.1569 2.97652 25.1812 1.67725 25.236C1.49804 25.2434 1.31136 25.2633 1.1446 25.3181C0.838445 25.4177 0.631856 25.3181 0.507404 25.0418C0.405354 24.8178 0.53727 24.5415 0.823509 24.4096C1.41092 24.1408 2.01327 24.1856 2.61313 24.3648C2.74256 24.4071 2.87945 24.4594 3.06862 24.5241Z" fill="#FFEB61"/>
<path d="M42.0048 28.3622C42.4677 28.412 42.9182 28.4269 43.3513 28.5215C43.6425 28.5837 43.9263 28.7306 44.1777 28.8948C44.4564 29.074 44.5112 29.3727 44.3594 29.6017C44.1752 29.8755 43.9387 29.8531 43.6749 29.7212C42.963 29.3603 42.2288 29.2433 41.497 29.6391C40.6507 30.0946 40.2898 31.0454 40.5163 32.1007C40.5487 32.2525 40.6059 32.4392 40.5462 32.5587C40.474 32.7006 40.2898 32.8673 40.1504 32.8698C39.9986 32.8723 39.7796 32.7379 39.6999 32.5985C39.349 31.9837 39.3614 31.3241 39.5655 30.6621C39.6078 30.5252 39.6626 30.3932 39.6825 30.3435C39.105 30.2464 38.5375 30.1792 37.985 30.0473C37.756 29.9925 37.5469 29.8158 37.3552 29.664C37.1561 29.5071 37.1038 29.2906 37.2656 29.0641C37.4199 28.8476 37.6116 28.8027 37.8605 28.9023C38.1741 29.0292 38.4853 29.1811 38.8113 29.2458C40.2251 29.5221 41.3277 28.5414 41.2381 27.0978C41.2257 26.8837 41.1734 26.6746 41.1336 26.4631C41.0813 26.1843 41.1585 25.9528 41.4298 25.8508C41.721 25.7412 41.9127 25.9204 42.0247 26.1644C42.3134 26.7916 42.3109 27.4363 42.1018 28.0834C42.0695 28.183 42.0321 28.285 42.0048 28.3622Z" fill="#FFEB61"/>
<path d="M36.9695 37.6836C35.8618 38.0494 34.9235 37.8901 34.1195 37.1086C34 36.9941 33.8955 36.8497 33.8333 36.6954C33.7486 36.4814 33.781 36.2648 33.9951 36.1279C34.1992 35.996 34.4058 36.0159 34.5875 36.1777C34.6796 36.2598 34.7642 36.3519 34.8538 36.439C35.359 36.9144 35.949 37.0265 36.5787 36.7676C37.2034 36.5087 37.5544 36.0159 37.5967 35.3314C37.6141 35.0278 37.6241 34.7341 37.9999 34.6395C38.2339 34.5822 38.4181 34.642 38.4977 34.8685C38.5599 35.0452 38.6072 35.2468 38.5898 35.4285C38.4903 36.5237 37.9028 37.2654 36.9695 37.6836Z" fill="#FFEB61"/>
<path d="M3.59392 17.5424C3.54414 17.8609 3.53667 18.2144 3.09363 18.2243C2.79743 18.2318 2.66302 18.0526 2.58835 17.5747C2.27971 17.4901 1.91133 17.4154 1.94867 16.9848C1.97854 16.6488 2.25482 16.5418 2.58835 16.5218C2.61324 16.4248 2.63565 16.3302 2.66054 16.2356C2.72525 16.0016 2.87211 15.8647 3.12101 15.8647C3.36991 15.8647 3.49685 16.0315 3.52672 16.2456C3.55658 16.4447 3.6213 16.5318 3.83536 16.5592C4.08178 16.5915 4.29335 16.7309 4.2809 17.0221C4.27094 17.3009 4.09173 17.4403 3.82789 17.4926C3.75322 17.5075 3.67606 17.5249 3.59392 17.5424Z" fill="#FFEB61"/>
<path d="M4.59488 12.8626C4.35594 12.8402 4.20909 12.7083 4.12197 12.4643C4.08215 12.3498 3.96765 12.2353 3.85564 12.1806C3.63163 12.0711 3.40762 11.964 3.43002 11.6803C3.44993 11.4115 3.65403 11.292 3.90044 11.2099C4 11.1775 4.11699 11.063 4.13939 10.9684C4.20162 10.7046 4.32109 10.5303 4.60982 10.5279C4.88361 10.5254 4.99562 10.6872 5.05785 10.941C5.08274 11.0481 5.21963 11.1725 5.33164 11.2024C5.59796 11.2771 5.80953 11.3965 5.80704 11.6927C5.80455 11.9964 5.57805 12.091 5.31173 12.1532C5.21963 12.1756 5.11758 12.305 5.08273 12.4071C4.99562 12.6435 4.90352 12.8476 4.59488 12.8626Z" fill="#FFEB61"/>
<path d="M43.8741 14.0303C43.8541 14.1622 43.8442 14.2643 43.8243 14.3613C43.777 14.5978 43.6376 14.7571 43.3887 14.7571C43.1373 14.7546 42.9357 14.6202 42.9108 14.3638C42.8859 14.1323 42.7789 14.0627 42.5822 13.9706C42.4354 13.9009 42.296 13.6918 42.2636 13.5225C42.2164 13.2811 42.4055 13.1492 42.6395 13.0795C42.7341 13.0521 42.856 12.9625 42.8809 12.8779C42.9556 12.6215 43.0452 12.395 43.3588 12.4C43.6948 12.4025 43.8292 12.619 43.8666 12.9227C43.8716 12.955 43.889 12.9849 43.9014 13.0148C44.3943 13.1243 44.5486 13.2587 44.5287 13.5698C44.5038 13.9681 44.2076 14.0129 43.8741 14.0303Z" fill="#FFEB61"/>
<path d="M43.2219 18.8935C43.2243 19.1897 42.9929 19.4312 42.6967 19.4436C42.3756 19.4536 42.1018 19.1947 42.1068 18.8836C42.1117 18.5725 42.3557 18.3335 42.6718 18.3335C42.9804 18.331 43.2194 18.575 43.2219 18.8935Z" fill="#FFEB61"/>
<path d="M10.2498 37.8403C9.9461 37.8428 9.6972 37.5939 9.69222 37.2828C9.68724 36.9816 9.91374 36.7526 10.2199 36.7476C10.5285 36.7427 10.7998 36.9916 10.8073 37.2828C10.8123 37.5839 10.5584 37.8378 10.2498 37.8403Z" fill="#FFEB61"/>
<path d="M28.5017 36.6131C28.4992 36.9317 28.2553 37.1682 27.9367 37.1582C27.643 37.1483 27.4041 36.9068 27.3991 36.6131C27.3916 36.3244 27.6679 36.0357 27.9491 36.0357C28.2329 36.0332 28.5017 36.3169 28.5017 36.6131Z" fill="#FFEB61"/>
<path d="M19.7205 1.46069C19.4218 1.47065 19.1729 1.24415 19.1555 0.945467C19.138 0.629359 19.372 0.375474 19.6881 0.365518C19.9893 0.355561 20.2531 0.609443 20.2556 0.918084C20.2631 1.20681 20.0216 1.45074 19.7205 1.46069Z" fill="#FFEB61"/>
<path d="M33.3478 1.28646C33.0242 1.28148 32.7977 1.04502 32.8077 0.726425C32.8176 0.42774 33.0566 0.196261 33.3528 0.19875C33.6565 0.201239 33.8929 0.45014 33.8904 0.771225C33.8879 1.07987 33.6639 1.29144 33.3478 1.28646Z" fill="#FFEB61"/>
<path d="M14.1423 0.636611C14.1348 0.945251 13.8734 1.21656 13.5897 1.2066C13.2985 1.19665 13.062 0.947742 13.062 0.654036C13.062 0.33544 13.3084 0.0815607 13.6096 0.0890278C13.9008 0.0989839 14.1497 0.350372 14.1423 0.636611Z" fill="#FFEB61"/>
<path d="M15.2252 38.6416C15.5115 38.6391 15.7454 38.8955 15.738 39.1992C15.7305 39.4979 15.514 39.7094 15.2178 39.7044C14.9266 39.6995 14.6752 39.453 14.6702 39.1668C14.6677 38.8831 14.9216 38.6416 15.2252 38.6416Z" fill="#FFEB61"/>
<path d="M8.2881 32.6429C7.47917 33.4817 6.57067 33.7755 5.4979 33.4593C5.3386 33.4121 5.17681 33.3324 5.05236 33.2254C4.87813 33.076 4.80595 32.8694 4.9304 32.6479C5.04987 32.4339 5.24153 32.3567 5.47799 32.4189C5.59746 32.4488 5.71445 32.4911 5.83641 32.526C6.50347 32.7126 7.08093 32.5384 7.51651 32.0157C7.9496 31.4955 8.03173 30.8956 7.75047 30.2709C7.62602 29.9921 7.4966 29.7283 7.78781 29.4719C7.96702 29.3126 8.15868 29.2803 8.33291 29.442C8.46981 29.569 8.60421 29.7258 8.67639 29.8951C9.09455 30.9056 8.92032 31.8365 8.2881 32.6429Z" fill="#FFEB61"/>
<path d="M44.8398 24.932C44.79 25.2506 44.7825 25.604 44.3395 25.614C44.0433 25.6215 43.9089 25.4423 43.8342 24.9644C43.5256 24.8797 43.1572 24.8051 43.1945 24.3745C43.2244 24.0384 43.5007 23.9314 43.8342 23.9115C43.8591 23.8144 43.8815 23.7198 43.9064 23.6253C43.9711 23.3913 44.118 23.2544 44.3669 23.2544C44.6158 23.2544 44.7427 23.4212 44.7726 23.6352C44.8024 23.8343 44.8672 23.9215 45.0812 23.9488C45.3276 23.9812 45.5392 24.1206 45.5267 24.4118C45.5168 24.6906 45.3376 24.83 45.0738 24.8822C45.0016 24.8972 44.9244 24.9146 44.8398 24.932Z" fill="#FFEB61"/>
<path d="M23.7675 39.2289C23.7177 39.5475 23.7103 39.9009 23.2672 39.9109C22.971 39.9183 22.8366 39.7391 22.7619 39.2612C22.4533 39.1766 22.0849 39.1019 22.1223 38.6713C22.1521 38.3353 22.4284 38.2283 22.7619 38.2084C22.7868 38.1113 22.8092 38.0167 22.8341 37.9221C22.8988 37.6882 23.0457 37.5513 23.2946 37.5513C23.5435 37.5513 23.6704 37.718 23.7003 37.9321C23.7302 38.1312 23.7949 38.2183 24.0089 38.2457C24.2554 38.2781 24.4669 38.4175 24.4545 38.7087C24.4445 38.9874 24.2653 39.1268 24.0015 39.1791C23.9293 39.194 23.8521 39.2115 23.7675 39.2289Z" fill="#FFEB61"/>
<path d="M26.3113 19.8298C26.946 20.0463 27.5633 20.2131 28.1457 20.462C31.6005 21.9355 33.5718 24.5789 34.2115 28.2502C34.5201 30.0224 34.3633 31.812 34.3882 33.5941C34.3932 33.9252 34.3807 34.2562 34.3708 34.5848C34.3583 35.0527 34.0721 35.3315 33.5967 35.3315C32.5612 35.334 31.5258 35.334 30.4904 35.3265C29.7934 35.3215 29.5669 35.0851 29.5644 34.3857C29.5595 33.3179 29.6217 32.2451 29.5396 31.1823C29.3479 28.6932 27.5633 26.5825 25.1589 25.8956C24.2031 25.6243 24.1807 25.6342 24.1931 26.6398C24.2031 27.608 24.1483 28.5887 24.2802 29.542C24.5341 31.3615 25.5198 32.7852 26.9286 33.9351C27.16 34.1243 27.399 34.301 27.6056 34.5126C27.6977 34.6072 27.8047 34.8212 27.7599 34.8934C27.6628 35.0552 27.4786 35.1647 27.3193 35.2817C27.2745 35.3141 27.1899 35.2942 27.1252 35.2942C24.437 35.2942 21.7489 35.2966 19.0607 35.2942C18.9512 35.2942 18.8268 35.319 18.7347 35.2767C18.5978 35.2145 18.421 35.1299 18.3738 35.0079C18.324 34.8835 18.3688 34.6819 18.4459 34.5599C18.5355 34.418 18.7048 34.3284 18.8442 34.2189C20.4471 32.9569 21.5722 31.3814 21.8061 29.323C21.9331 28.2253 21.8584 27.1027 21.8584 25.9901C21.8584 25.7213 21.6269 25.6641 21.4253 25.7238C20.92 25.8756 20.3973 26.0001 19.9344 26.2415C17.7266 27.389 16.512 29.1836 16.4871 31.7149C16.4796 32.5512 16.4896 33.39 16.4796 34.2264C16.4771 34.4429 16.4746 34.6794 16.395 34.876C16.278 35.1697 16.0366 35.3365 15.6956 35.3365C14.6153 35.334 13.5351 35.3439 12.4573 35.3365C11.8699 35.3315 11.6384 35.0851 11.6434 34.5051C11.6558 32.8425 11.6135 31.1748 11.7031 29.5171C11.855 26.7169 12.8481 24.2628 14.9439 22.3263C16.2183 21.149 17.7241 20.4023 19.3943 19.9717C19.4789 19.9493 19.566 19.9293 19.6506 19.9044C19.6805 19.8945 19.7079 19.8746 19.7701 19.8397C19.6705 19.7028 19.5859 19.5659 19.4789 19.4465C18.7172 18.5877 18.202 17.6021 17.9531 16.4845C17.8984 16.2406 17.7714 16.1261 17.5499 16.029C15.7478 15.2524 15.0633 13.077 16.1262 11.5363C16.4348 11.0883 16.8654 10.7921 17.3582 10.5706C17.4727 10.5183 17.6121 10.3665 17.6146 10.2569C17.637 9.46543 17.627 8.67143 17.6246 7.87743C17.6246 7.83761 17.6046 7.79779 17.5947 7.75796C15.5512 8.05416 12.9327 11.036 12.9302 13.1144C13.219 13.1144 13.5102 13.1119 13.8014 13.1144C14.4685 13.1218 14.7198 13.3707 14.7198 14.0353C14.7198 15.3122 14.7149 16.5915 14.7124 17.8684C14.7099 18.3339 14.5332 18.5056 14.0777 18.5056C13.1742 18.5006 12.2706 18.5131 11.3671 18.4932C11.0535 18.4857 10.9539 18.5678 10.9589 18.8964C10.9838 20.8229 10.9863 22.7519 10.9963 24.6809C10.9963 24.8128 10.9987 24.9447 10.9888 25.0767C10.9689 25.343 10.8494 25.5247 10.5582 25.5098C10.2794 25.4923 10.1102 25.343 10.1102 25.0443C10.1077 24.2951 10.1052 23.5459 10.1027 22.7967C10.0952 21.475 10.0803 20.1534 10.0853 18.8317C10.0853 18.5653 9.99566 18.4981 9.74178 18.5031C8.90546 18.5181 8.06666 18.5106 7.23034 18.5106C6.7624 18.5106 6.59564 18.3488 6.59315 17.8784C6.58319 16.5791 6.57822 15.2773 6.57324 13.9781C6.57324 13.8785 6.57822 13.7789 6.58568 13.6819C6.62302 13.311 6.7873 13.1467 7.15817 13.1368C7.60868 13.1268 8.06169 13.1318 8.5122 13.1393C8.70137 13.1442 8.77853 13.082 8.79844 12.8804C9.23402 8.4748 12.5793 4.46496 17.8834 3.40463C18.0875 3.36481 18.3016 3.37477 18.5082 3.34739C19.6083 3.21049 20.7085 3.07609 21.8036 2.92177C21.9256 2.90435 22.065 2.77989 22.1322 2.66788C22.3413 2.30697 22.5105 1.92366 22.7146 1.55777C22.9237 1.18442 23.1179 1.18193 23.3269 1.55031C23.5485 1.94358 23.7351 2.35675 23.9641 2.74504C24.0288 2.85207 24.1881 2.95412 24.3126 2.96657C24.9597 3.02631 25.6168 3.0064 26.2565 3.10845C28.1009 3.40215 29.9428 3.6859 31.6204 4.61431C34.8064 6.37655 36.6756 9.0423 37.2655 12.624C37.3576 13.1865 37.2655 13.1119 37.8505 13.1144C38.1591 13.1168 38.4677 13.1069 38.7764 13.1094C39.202 13.1144 39.4335 13.306 39.4385 13.7217C39.4509 15.1429 39.4509 16.5642 39.4409 17.9854C39.4385 18.3588 39.2518 18.5106 38.8784 18.5131C38.0297 18.5181 37.1809 18.5305 36.3346 18.5131C36.0235 18.5056 35.9488 18.6126 35.9513 18.9088C35.9613 20.915 35.9563 22.9187 35.9414 24.9248C35.9389 25.0966 35.8791 25.3032 35.7696 25.4251C35.695 25.5073 35.451 25.5346 35.3515 25.4724C35.2245 25.3977 35.0976 25.2111 35.0901 25.0667C35.0602 24.5614 35.0802 24.0537 35.0826 23.5459C35.0851 22.0152 35.0777 20.4819 35.0951 18.9512C35.0976 18.6201 34.993 18.5006 34.6595 18.5106C33.7684 18.5355 32.8749 18.533 31.9838 18.5429C31.6752 18.5454 31.4088 18.3214 31.4063 17.9854C31.3939 16.5965 31.3889 15.2101 31.4038 13.8212C31.4088 13.3633 31.6552 13.1542 32.1232 13.1318C32.4617 13.1169 32.8027 13.1293 33.1362 13.1293C33.4946 11.3845 30.6522 8.13629 28.4967 7.80774C28.4842 7.86498 28.4568 7.92473 28.4568 7.98446C28.4593 8.74362 28.4568 9.50527 28.4767 10.2644C28.4792 10.3665 28.5688 10.5133 28.6584 10.5531C29.7636 11.0758 30.4655 11.8773 30.4655 13.1567C30.4655 14.5456 29.7362 15.4715 28.534 16.0614C28.3125 16.1709 28.2079 16.2954 28.1507 16.5318C27.8794 17.6768 27.3567 18.6973 26.5652 19.5759C26.4681 19.6481 26.3909 19.7352 26.3113 19.8298ZM27.4662 10.2121C27.4986 10.1798 27.5309 10.1474 27.5608 10.1176C27.5608 10.008 27.5608 9.90102 27.5608 9.79399C27.5558 9.01243 27.5882 8.22838 27.5384 7.44932C27.5085 6.97391 27.9441 6.66029 28.3623 6.81959C28.8153 6.99133 29.2832 7.12823 29.7213 7.32985C31.9689 8.37524 33.4175 10.0852 33.97 12.522C34.102 13.1019 34.092 13.1019 34.6819 13.1019C35.2619 13.0994 35.8418 13.1019 36.4317 13.1019C36.4317 13.0073 36.4392 12.9526 36.4317 12.9003C36.0235 10.0354 34.6495 7.74551 32.3024 6.05795C30.6049 4.83832 28.6784 4.23349 26.605 4.06423C26.2839 4.03685 26.0474 4.08415 25.7438 4.29074C24.8826 4.88064 24.7681 5.5925 25.0942 6.50099C25.1489 6.65531 25.0693 6.92911 24.9498 7.05108C24.8602 7.14317 24.5889 7.14068 24.4395 7.08094C24.0438 6.92165 23.663 6.71754 23.2871 6.50846C23.1004 6.40392 22.9511 6.40393 22.7644 6.50598C22.3886 6.71257 22.0077 6.91666 21.612 7.07845C21.4651 7.1357 21.2162 7.12575 21.1067 7.03365C20.9972 6.94156 20.9524 6.7051 20.9698 6.54082C21.0171 6.1376 21.1316 5.74184 21.1864 5.33862C21.2038 5.21417 21.1565 5.03496 21.0694 4.95033C20.7558 4.64169 20.4197 4.35794 20.0812 4.07917C20.014 4.02441 19.897 4.00449 19.8074 4.01196C18.538 4.14886 17.2736 4.30318 16.0739 4.80099C13.3061 5.95341 11.2974 7.8625 10.1724 10.6602C9.86374 11.4268 9.70196 12.2332 9.63227 13.0646C9.69698 13.087 9.7368 13.1094 9.77663 13.1094C10.4487 13.1144 11.1207 13.1268 11.7903 13.1119C11.8674 13.1094 11.9944 12.9675 12.0068 12.8754C12.1362 11.9794 12.4424 11.148 12.8929 10.369C13.9931 8.46484 15.713 7.39207 17.759 6.76483C18.1174 6.65531 18.4733 6.93657 18.4758 7.3174C18.4833 8.12136 18.4783 8.92531 18.4808 9.72927C18.4808 9.85372 18.5007 9.97818 18.5131 10.1275C19.1205 10.013 19.6407 9.78901 20.0738 9.4281C20.9424 8.70379 21.7862 7.94464 22.63 7.18797C23.0208 6.83951 23.0482 6.84448 23.434 7.19295C24.2653 7.94712 25.0842 8.71375 25.9628 9.40819C26.4084 9.75417 26.9634 9.94831 27.4662 10.2121ZM18.553 12.731C18.4833 14.3614 18.5579 15.927 19.2101 17.4055C19.8771 18.9213 20.9524 19.9891 22.6126 20.3599C22.8714 20.4172 23.1676 20.4222 23.424 20.3599C25.0867 19.9642 26.2117 18.9287 26.8912 17.3781C27.521 15.9444 27.5384 14.4236 27.5185 12.9003C27.5185 12.8306 27.3567 12.7062 27.2671 12.7012C26.595 12.6713 25.923 12.6564 25.2534 12.6638C25.0892 12.6663 24.9249 12.7659 24.7332 12.8281C25.1041 13.2861 25.6168 13.3434 26.0375 13.0198C26.1968 12.8978 26.3511 12.7709 26.5253 12.9451C26.6697 13.0895 26.8763 13.2861 26.8638 13.4479C26.8514 13.6346 26.6597 13.9084 26.4905 13.9606C26.1346 14.0677 25.7388 14.0801 25.3605 14.0751C25.1215 14.0726 24.8826 13.9681 24.6138 13.9009C24.6138 14.7248 24.6237 15.5163 24.6063 16.3078C24.6013 16.482 24.549 16.6886 24.447 16.8255C23.7526 17.7365 22.3861 17.7639 21.6643 16.8753C21.5448 16.7284 21.4801 16.497 21.4726 16.3003C21.4502 15.6283 21.4626 14.9563 21.4602 14.2842C21.4602 14.1697 21.4502 14.0552 21.4477 13.9905C20.9574 14.0353 20.5019 14.11 20.0464 14.11C19.6631 14.11 19.3445 13.9283 19.1951 13.5425C19.0856 13.2637 19.2623 13.0969 19.459 12.97C19.6357 12.8555 19.8348 12.7933 20.0265 12.9924C20.3052 13.2786 20.7533 13.3384 21.0818 13.1368C21.1565 13.092 21.2585 12.97 21.2411 12.9252C21.2088 12.8431 21.0968 12.741 21.0171 12.7385C20.2082 12.7261 19.3968 12.731 18.553 12.731ZM18.4957 11.8126C19.2101 11.8126 19.8697 11.8126 20.5293 11.8126C21.6269 11.8126 22.2566 12.4199 22.2766 13.5151C22.289 14.2967 22.2865 15.0807 22.2915 15.8623C22.294 16.2804 22.6449 16.6413 23.0531 16.6513C23.4464 16.6612 23.7849 16.2879 23.7849 15.8473C23.7824 15.0757 23.7675 14.3041 23.7849 13.5325C23.8098 12.405 24.447 11.7902 25.572 11.7827C25.913 11.7802 26.254 11.8001 26.5975 11.8051C26.9111 11.8101 27.2272 11.8051 27.5857 11.8051C27.5857 11.5886 27.6056 11.4119 27.5782 11.2426C27.5658 11.158 27.4811 11.036 27.4065 11.0161C25.7413 10.5531 24.4644 9.51024 23.2971 8.29559C23.2224 8.21843 23.1403 8.15372 23.0706 8.09398C23.0208 8.11389 22.9959 8.11638 22.981 8.13132C22.8291 8.27568 22.6848 8.42751 22.5304 8.5669C21.3755 9.60731 20.243 10.6851 18.6475 11.0335C18.5878 11.046 18.5107 11.148 18.5057 11.2152C18.4833 11.4069 18.4957 11.6035 18.4957 11.8126ZM25.4924 22.5453C25.6766 22.61 25.8284 22.6673 25.9827 22.7195C29.7437 23.9964 32.2402 27.3641 32.3696 31.3316C32.397 32.1455 32.397 32.1381 33.2159 32.1306C33.4225 32.1281 33.517 32.0858 33.5096 31.8593C33.4772 30.9035 33.5121 29.9402 33.4175 28.9894C33.1711 26.5278 32.1705 24.427 30.2863 22.7743C29.1413 21.7712 27.8172 21.134 26.3461 20.7955C26.2441 20.7731 26.04 20.8329 26.0151 20.9026C25.8234 21.4352 25.6666 21.9853 25.4924 22.5453ZM20.584 22.5677C20.589 22.5329 20.5915 22.5204 20.589 22.5105C20.4247 22.0326 20.243 21.5597 20.1011 21.0743C20.0215 20.8005 19.8896 20.7308 19.6208 20.803C16.6513 21.592 14.5108 23.3543 13.326 26.2067C12.6465 27.842 12.4847 29.5694 12.527 31.3266C12.5494 32.1754 12.5345 32.1654 13.3733 32.1455C13.6172 32.1405 13.6645 32.041 13.667 31.8269C13.672 31.3864 13.672 30.9433 13.7267 30.5077C14.1524 27.1102 16.4199 23.7625 20.3202 22.6573C20.4148 22.6324 20.5044 22.5951 20.584 22.5677ZM21.8086 23.2622C21.8584 23.4339 21.8858 23.5733 21.9405 23.7027C22.5777 25.1837 22.8789 26.6995 22.8067 28.3398C22.7047 30.672 21.8708 32.6085 20.1932 34.204C20.126 34.2687 20.0663 34.3384 19.9543 34.4603C22.0501 34.4603 24.0687 34.4603 26.1843 34.4603C25.9877 34.2811 25.8409 34.1791 25.7313 34.0447C25.2534 33.4572 24.7382 32.8922 24.33 32.2575C23.765 31.3814 23.3618 30.4007 23.3269 29.3528C23.2772 27.8494 23.0158 26.3187 23.7102 24.8701C23.9044 24.4644 24.0239 24.0238 24.1732 23.5982C24.2081 23.4986 24.228 23.3916 24.2628 23.2597C23.434 23.2622 22.6474 23.2622 21.8086 23.2622ZM24.6934 24.8078C24.8502 24.8527 24.9647 24.885 25.0792 24.9174C28.1432 25.7238 30.3186 28.3373 30.4456 31.3714C30.4779 32.153 30.4779 32.143 31.262 32.1306C31.491 32.1256 31.5482 32.0385 31.5308 31.8344C31.4959 31.4063 31.5034 30.9732 31.4387 30.5525C30.9832 27.6752 29.5545 25.4625 26.946 24.0835C26.3984 23.7948 25.801 23.6007 25.1987 23.3518C25.0145 23.8769 24.8577 24.33 24.6934 24.8078ZM21.3855 24.8078C21.2561 24.4445 21.1042 24.1159 21.0246 23.7699C20.9449 23.4165 20.7782 23.404 20.4845 23.5011C19.5859 23.7923 18.7471 24.2005 17.9929 24.7655C15.7802 26.4183 14.7298 28.6833 14.5456 31.3913C14.4958 32.1306 14.4983 32.1181 15.2201 32.1356C15.5139 32.143 15.591 32.0534 15.586 31.7597C15.5487 29.1661 16.7385 27.2347 18.8467 25.8184C19.6058 25.3081 20.4496 24.997 21.3855 24.8078ZM7.45685 15.352C7.50414 15.3719 7.5141 15.3794 7.52406 15.3794C9.56009 15.3794 11.5986 15.3844 13.6346 15.3719C13.7068 15.3719 13.8338 15.2226 13.8412 15.133C13.8686 14.8617 13.8362 14.5829 13.8537 14.3091C13.8711 14.0502 13.779 13.9681 13.5176 13.9706C12.2632 13.9855 11.0062 13.9805 9.75174 13.9805C9.0797 13.9805 8.40766 13.9706 7.73811 13.9855C7.64353 13.988 7.47427 14.095 7.4693 14.1622C7.44441 14.5555 7.45685 14.9488 7.45685 15.352ZM13.8338 17.622C13.8338 17.2586 13.8163 16.9176 13.8387 16.5816C13.8562 16.3153 13.7641 16.2406 13.5052 16.2431C12.415 16.2555 11.3248 16.2481 10.2371 16.253C9.41074 16.2555 8.58687 16.258 7.76051 16.2829C7.65597 16.2854 7.46929 16.4024 7.46431 16.477C7.43444 16.8554 7.44938 17.2387 7.44938 17.6245C9.58248 17.622 11.6807 17.622 13.8338 17.622ZM38.5424 13.983C38.3856 13.983 38.2661 13.983 38.1491 13.983C37.2904 13.983 36.4317 13.983 35.573 13.983C34.5724 13.983 33.5693 13.9781 32.5662 13.993C32.4567 13.9955 32.2576 14.0926 32.2526 14.1573C32.2227 14.558 32.2377 14.9637 32.2377 15.3968C32.392 15.3968 32.499 15.3968 32.6085 15.3968C33.6315 15.3943 34.657 15.3943 35.68 15.3918C36.5288 15.3893 37.375 15.3918 38.2238 15.3744C38.3308 15.3719 38.5225 15.2674 38.5275 15.2002C38.5573 14.8069 38.5424 14.4111 38.5424 13.983ZM35.4037 16.2456C35.4037 16.2505 35.4037 16.258 35.4037 16.263C34.4579 16.263 33.5121 16.268 32.5637 16.258C32.3099 16.2555 32.2053 16.3377 32.2252 16.599C32.2451 16.8504 32.2402 17.1068 32.2302 17.3582C32.2203 17.5722 32.3049 17.6519 32.5189 17.6444C32.9471 17.632 33.3777 17.6369 33.8058 17.6369C35.2693 17.6369 36.7329 17.632 38.1964 17.6444C38.4553 17.6469 38.5548 17.5697 38.5349 17.3084C38.5175 17.067 38.5125 16.823 38.5349 16.5816C38.5598 16.2953 38.4354 16.2331 38.174 16.2381C37.2531 16.253 36.3296 16.2456 35.4037 16.2456ZM21.164 3.89C21.5 4.21357 21.9007 4.4351 22.0277 4.76365C22.1521 5.08723 22.0028 5.51783 21.9754 5.89118C22.3164 5.74433 22.6848 5.46058 23.0506 5.46555C23.414 5.47053 23.775 5.76922 24.1707 5.95341C24.1309 5.7966 24.1185 5.66468 24.0687 5.5477C23.8471 5.02749 23.9965 4.63671 24.4594 4.33554C24.6163 4.23349 24.7507 4.10157 24.9796 3.91489C24.5814 3.87756 24.2902 3.82279 23.999 3.82777C23.6356 3.83275 23.4265 3.67843 23.312 3.3449C23.2523 3.17316 23.1477 3.01884 23.0332 2.79233C22.9237 3.00141 22.8391 3.13831 22.7818 3.28765C22.64 3.64856 22.3861 3.81781 21.9953 3.81781C21.7364 3.81533 21.4875 3.85764 21.164 3.89ZM20.9051 20.5889C20.9399 20.7756 20.9449 20.8577 20.9723 20.9374C21.1042 21.3332 21.2536 21.7264 21.3681 22.1272C21.4353 22.3586 21.5672 22.396 21.7812 22.391C22.6599 22.3736 23.541 22.3761 24.4221 22.3636C24.4968 22.3636 24.6187 22.3213 24.6337 22.2715C24.8054 21.7687 24.9573 21.261 25.1166 20.7532C25.0991 20.7283 25.0817 20.7009 25.0668 20.6761C23.6854 21.5298 22.3139 21.49 20.9051 20.5889ZM28.4245 11.4268C28.4245 12.6663 28.4245 13.866 28.4245 15.0732C28.9895 14.9164 29.5221 14.0876 29.5794 13.311C29.6391 12.4971 29.2185 11.7877 28.4245 11.4268ZM17.637 15.133C17.637 13.8909 17.637 12.6862 17.637 11.4666C17.0496 11.6458 16.512 12.3652 16.5095 13.1741C16.507 14.0453 16.945 14.6451 17.637 15.133ZM13.6695 33.7933C13.6396 32.8176 13.8412 32.9943 12.8332 32.9694C12.6116 32.9644 12.5121 33.0316 12.527 33.2681C12.5444 33.5294 12.5295 33.7933 12.532 34.0571C12.532 34.5076 12.5345 34.5076 12.9725 34.5076C13.672 34.5076 13.672 34.5076 13.6695 33.7933ZM33.5071 33.731C33.5071 32.9619 33.5071 32.9619 32.7479 32.9669C32.7031 32.9669 32.6583 32.9719 32.616 32.9669C32.4443 32.9495 32.3795 33.0341 32.382 33.1984C32.387 33.4946 32.3995 33.7933 32.3746 34.0895C32.3497 34.3881 32.4443 34.4902 32.7579 34.4827C33.5071 34.4653 33.5071 34.4802 33.5071 33.731ZM30.4107 32.9619C30.4107 33.2233 30.4057 33.4324 30.4107 33.6389C30.4331 34.6346 30.2041 34.4504 31.2943 34.4753C31.3043 34.4753 31.3192 34.4802 31.3267 34.4728C31.3964 34.4105 31.5208 34.3483 31.5233 34.2836C31.5408 33.9103 31.5408 33.5369 31.5208 33.166C31.5159 33.0938 31.4039 32.9769 31.3342 32.9719C31.0454 32.9495 30.7517 32.9619 30.4107 32.9619ZM14.5158 33.7485C14.5406 34.6346 14.3341 34.4877 15.3098 34.5002C15.3197 34.5002 15.3322 34.4977 15.3421 34.5002C15.5288 34.5176 15.5935 34.4255 15.591 34.2488C15.586 33.9102 15.5835 33.5693 15.596 33.2307C15.6035 33.0266 15.5139 32.9744 15.3222 32.9669C14.5182 32.9395 14.5182 32.9345 14.5158 33.7485Z" fill="#FFEB61"/>
<path d="M33.5695 21.6244C33.5695 21.1191 33.5645 20.6138 33.572 20.1086C33.577 19.7576 33.7089 19.6108 34.0001 19.6033C34.2863 19.5958 34.4506 19.7402 34.4531 20.0862C34.463 21.139 34.4581 22.1944 34.4431 23.2497C34.4382 23.5136 34.3212 23.7227 34.0051 23.7202C33.7387 23.7177 33.5769 23.5385 33.5695 23.2074C33.562 22.6773 33.5695 22.1521 33.5695 21.6244Z" fill="#FFEB61"/>
<path d="M36.5736 21.5997C36.5736 21.0844 36.5761 20.5667 36.5736 20.0515C36.5712 19.7677 36.6931 19.5811 36.9893 19.5661C37.3104 19.5512 37.41 19.7802 37.4149 20.039C37.4274 21.1143 37.4274 22.1921 37.4249 23.2673C37.4224 23.5386 37.2631 23.7029 36.9893 23.7029C36.7205 23.7054 36.5861 23.5187 36.5786 23.2773C36.5612 22.7172 36.5736 22.1572 36.5736 21.5972C36.5712 21.5997 36.5736 21.5997 36.5736 21.5997Z" fill="#FFEB61"/>
<path d="M9.47765 21.6345C9.47765 22.1298 9.48263 22.6226 9.47516 23.118C9.47019 23.4963 9.28848 23.7153 9.00473 23.7079C8.7409 23.7004 8.59156 23.5112 8.58907 23.1454C8.58658 22.1348 8.58907 21.1242 8.59654 20.1137C8.59902 19.7603 8.73592 19.6109 9.01967 19.6084C9.32084 19.6059 9.46769 19.7677 9.47018 20.1212C9.47516 20.6264 9.47018 21.1317 9.47018 21.637C9.47516 21.6345 9.47765 21.6345 9.47765 21.6345Z" fill="#FFEB61"/>
<path d="M12.4027 21.6345C12.4027 22.1398 12.4077 22.6451 12.4002 23.1529C12.3952 23.5536 12.2683 23.7253 12.0044 23.7204C11.7232 23.7154 11.5465 23.5063 11.544 23.1529C11.5415 22.1423 11.5415 21.1293 11.5489 20.1187C11.5514 19.7578 11.6784 19.6134 11.9646 19.606C12.2533 19.596 12.4002 19.7304 12.4077 20.0515C12.4201 20.5792 12.4101 21.1069 12.4101 21.6345C12.4101 21.6345 12.4052 21.6345 12.4027 21.6345Z" fill="#FFEB61"/>
<path d="M22.8865 19.3147C22.6824 19.2574 22.2991 19.1778 21.9332 19.0434C21.7042 18.9588 21.4952 18.7746 21.5375 18.5008C21.5574 18.3689 21.7018 18.2145 21.8287 18.1523C22.0527 18.0428 22.2916 18.0652 22.4982 18.2544C22.7895 18.5207 23.2425 18.4933 23.5436 18.2569C23.6681 18.1598 23.8697 18.0727 24.0066 18.1025C24.1858 18.1424 24.4173 18.2718 24.4795 18.4236C24.5318 18.5481 24.4198 18.8044 24.3003 18.9289C23.9742 19.2674 23.5187 19.2798 22.8865 19.3147Z" fill="#FFEB61"/>
</svg>
