<svg width="46" height="38" viewBox="0 0 46 38" fill="none" xmlns="http://www.w3.org/2000/svg">
<path d="M41.4533 6.36298C41.4533 6.26228 41.4533 6.16158 41.4533 6.06087C41.4508 5.52296 41.3378 5.36085 40.822 5.21348C40.7434 5.19138 40.6353 5.24051 40.5518 5.28226C40.1343 5.50086 39.7241 5.73174 39.3065 5.95034C39.0486 6.08543 38.8177 6.04368 38.6827 5.77104C38.55 5.50823 38.6262 5.29453 38.8865 5.14716C39.2672 4.92856 39.6406 4.70014 40.0237 4.49382C40.1736 4.41276 40.235 4.32925 40.2006 4.14994C40.1711 4.00994 40.1515 3.84783 40.1932 3.72011C40.3136 3.35414 40.1367 3.19204 39.8322 3.05695C39.535 2.92431 39.2476 2.77202 38.9725 2.60008C38.6728 2.41341 38.5967 2.13341 38.7588 1.88534C38.9406 1.60287 39.1862 1.64217 39.4343 1.77972C39.7978 1.97867 40.1638 2.17763 40.5174 2.39377C40.6771 2.49202 40.8097 2.55833 40.9522 2.38394C40.9645 2.36674 40.9866 2.34956 41.0062 2.34464C41.5171 2.24885 41.4876 1.8706 41.4729 1.48497C41.4606 1.20497 41.468 0.924966 41.4876 0.644959C41.5048 0.391971 41.6473 0.220037 41.9076 0.200388C42.1606 0.180738 42.4087 0.411624 42.4185 0.679349C42.4333 1.09445 42.4333 1.50953 42.4235 1.92463C42.4185 2.09411 42.5045 2.14815 42.6347 2.24149C43.0252 2.52886 43.3347 2.41342 43.681 2.1678C43.934 1.98605 44.2263 1.86078 44.5063 1.71832C44.72 1.60779 44.9214 1.61516 45.059 1.84358C45.199 2.07938 45.2383 2.32991 44.9828 2.49939C44.6389 2.73027 44.2754 2.93413 43.907 3.12325C43.6859 3.23624 43.5656 3.34922 43.6663 3.61449C43.708 3.72502 43.7228 3.86995 43.6859 3.97802C43.5729 4.29487 43.7498 4.41276 43.9881 4.53557C44.3147 4.70505 44.6365 4.89664 44.9435 5.09805C45.2161 5.27735 45.28 5.54506 45.1326 5.79314C44.9632 6.08052 44.72 6.07561 44.4646 5.9356C44.101 5.73665 43.74 5.53033 43.3887 5.30928C43.2193 5.2012 43.1038 5.23313 42.9147 5.28716C42.3891 5.4419 42.3596 5.79805 42.3891 6.23771C42.4087 6.51526 42.3866 6.79774 42.3694 7.07774C42.3522 7.36266 42.2098 7.5567 41.9101 7.54933C41.6178 7.54196 41.468 7.35528 41.4557 7.06791C41.4483 6.83211 41.4557 6.59632 41.4533 6.36298C41.4582 6.36298 41.4557 6.36298 41.4533 6.36298ZM42.6519 3.88223C42.6593 3.46222 42.3399 3.12816 41.9273 3.1208C41.5441 3.11588 41.2175 3.44748 41.2101 3.85029C41.2027 4.22609 41.5147 4.52821 41.9273 4.54294C42.3473 4.55768 42.6445 4.2875 42.6519 3.88223Z" fill="#FFEB61"/>
<path d="M3.56899 6.38498C3.56899 6.2941 3.55671 6.20321 3.57145 6.11725C3.63777 5.68987 3.51004 5.4025 3.06301 5.25268C2.87143 5.18881 2.75353 5.16916 2.57914 5.28215C2.22545 5.51794 1.85211 5.72917 1.48122 5.93549C1.23806 6.07058 0.999811 6.06813 0.847527 5.78813C0.705068 5.52286 0.751734 5.27724 1.00718 5.11267C1.34613 4.89407 1.71211 4.71723 2.04369 4.48634C2.15668 4.40774 2.20581 4.23335 2.26967 4.0958C2.29177 4.04913 2.25738 3.98036 2.27458 3.92878C2.44897 3.40316 2.1837 3.13543 1.73176 2.95122C1.50579 2.85788 1.29701 2.71542 1.08824 2.59015C0.842617 2.44032 0.751734 2.13821 0.877 1.8975C0.99981 1.66171 1.26508 1.59294 1.54509 1.74768C1.9086 1.94663 2.26967 2.15295 2.6209 2.374C2.78547 2.47716 2.91565 2.50664 3.07284 2.37646C3.14653 2.31506 3.24968 2.27084 3.34548 2.25119C3.52478 2.21189 3.569 2.10874 3.56654 1.93681C3.55672 1.54382 3.55917 1.15081 3.56408 0.757822C3.56899 0.413954 3.74338 0.202734 4.00865 0.187997C4.28375 0.175716 4.48025 0.391861 4.49498 0.755378C4.50972 1.13609 4.5048 1.51925 4.51463 1.89996C4.522 2.23646 5.09429 2.5533 5.3964 2.38628C5.78939 2.17014 6.17502 1.93434 6.57783 1.74276C6.94135 1.57083 7.2361 1.72556 7.29259 2.07926C7.32943 2.30523 7.2361 2.46734 7.03469 2.57787C6.65889 2.78174 6.29046 2.99297 5.91466 3.19438C5.74764 3.28526 5.64448 3.38105 5.73536 3.58983C5.7722 3.67825 5.78694 3.79861 5.75746 3.88703C5.61009 4.3095 5.83606 4.48387 6.17993 4.64107C6.49678 4.78353 6.79153 4.97266 7.08136 5.16424C7.35645 5.346 7.4154 5.61619 7.26312 5.86181C7.09364 6.1369 6.85539 6.10252 6.61713 5.97234C6.22414 5.75619 5.83852 5.5253 5.44799 5.30425C5.12377 5.11758 4.52691 5.4467 4.51709 5.8225C4.50726 6.2376 4.51217 6.6527 4.5048 7.06779C4.49989 7.37482 4.31322 7.5787 4.03813 7.57133C3.73601 7.56396 3.59601 7.37728 3.58373 7.09237C3.5739 6.85657 3.58128 6.62077 3.58128 6.38498C3.57391 6.38498 3.57145 6.38498 3.56899 6.38498ZM4.04058 4.55019C4.47533 4.54282 4.76025 4.25299 4.74797 3.82807C4.73815 3.43508 4.39428 3.11824 3.99392 3.13052C3.59847 3.1428 3.31846 3.46946 3.32583 3.90421C3.33565 4.27264 3.65251 4.55756 4.04058 4.55019Z" fill="#FFEB61"/>
<path d="M11.6621 26.2877C11.1119 25.8235 10.7508 25.288 10.6182 24.6273C10.5789 24.4357 10.5568 24.2073 10.6256 24.0329C10.6821 23.888 10.8761 23.7185 11.021 23.7062C11.1635 23.694 11.333 23.8536 11.4607 23.969C11.5245 24.0255 11.527 24.1533 11.5516 24.2515C11.78 25.1456 12.2737 25.8136 13.2144 26.0028C14.1551 26.1919 14.8232 25.6884 15.3881 25.0056C15.479 24.895 15.5674 24.7329 15.6829 24.7084C15.8376 24.6715 16.0734 24.6912 16.1741 24.7894C16.2748 24.8852 16.3166 25.1308 16.2724 25.2733C16.0587 25.961 15.5552 26.3933 14.9166 26.6831C14.8158 26.7298 14.7102 26.7666 14.6046 26.8084C14.5948 26.8133 14.5874 26.8231 14.5555 26.8575C14.6955 27.0098 14.8404 27.1621 14.973 27.3242C15.3734 27.8154 15.6559 28.3534 15.5822 29.0165C15.5576 29.2425 15.4299 29.439 15.2039 29.4046C15.0246 29.3776 14.8527 29.2204 14.7053 29.0902C14.6415 29.0362 14.6636 28.8937 14.6218 28.8053C14.4769 28.4909 14.3639 28.1495 14.16 27.8793C13.4035 26.8747 12.0379 26.8281 11.134 27.7516C11.0087 27.8793 10.8884 28.0193 10.8024 28.174C10.6477 28.4541 10.4315 28.5228 10.154 28.4074C9.92801 28.3141 9.83468 28.0242 9.95258 27.7368C10.1933 27.1424 10.6624 26.7666 11.2151 26.4891C11.3477 26.4252 11.4803 26.3712 11.6621 26.2877Z" fill="#FFEB61"/>
<path d="M34.979 25.4425C35.3008 25.1133 35.5882 24.7695 35.9296 24.487C36.1556 24.3004 36.4454 24.1677 36.7278 24.0695C37.0373 23.9614 37.3075 24.1014 37.391 24.3618C37.4917 24.6737 37.3296 24.8456 37.0643 24.9684C36.3471 25.3025 35.8043 25.806 35.6643 26.619C35.5022 27.5597 36.0254 28.4243 36.9857 28.8934C37.1233 28.9598 37.305 29.031 37.3615 29.1513C37.4279 29.2938 37.445 29.5394 37.364 29.6499C37.2731 29.7703 37.0349 29.8587 36.8777 29.8366C36.1826 29.7359 35.6741 29.3208 35.2811 28.7559C35.2001 28.638 35.1313 28.5152 35.1043 28.471C34.6745 28.864 34.2741 29.2643 33.8344 29.6156C33.6527 29.7605 33.3874 29.817 33.1492 29.871C32.9035 29.9275 32.7046 29.8391 32.626 29.5738C32.5523 29.3208 32.6334 29.144 32.8642 29.0113C33.1565 28.8443 33.466 28.6945 33.7165 28.4784C34.7997 27.5425 34.7064 26.0811 33.525 25.2656C33.3506 25.1453 33.1541 25.0569 32.965 24.9586C32.7144 24.8284 32.5818 24.627 32.6677 24.3544C32.7611 24.0596 33.0165 24.0203 33.2769 24.0817C33.9425 24.2414 34.446 24.6368 34.8218 25.1969C34.8783 25.2804 34.9348 25.3762 34.979 25.4425Z" fill="#FFEB61"/>
<path d="M27.156 1.18013C28.2981 1.3668 29.0497 1.94155 29.3985 2.99526C29.4501 3.15 29.4771 3.32684 29.4599 3.4914C29.4378 3.71983 29.3076 3.89667 29.0571 3.91878C28.8163 3.94089 28.6444 3.82791 28.5609 3.60194C28.5167 3.48649 28.4872 3.36614 28.4455 3.2507C28.222 2.59981 27.7528 2.22893 27.0798 2.16752C26.4117 2.10612 25.8738 2.37875 25.5226 2.96333C25.3679 3.22123 25.2229 3.47667 24.8496 3.38579C24.6187 3.3293 24.4836 3.19175 24.518 2.95595C24.545 2.77174 24.5966 2.57279 24.6949 2.4205C25.2843 1.50434 26.1416 1.11872 27.156 1.18013Z" fill="#FFEB61"/>
<path d="M4.21977 13.0291C4.17065 13.3459 4.16327 13.6972 3.72361 13.707C3.42887 13.7143 3.29623 13.5375 3.22255 13.0635C2.91552 12.9799 2.54955 12.9063 2.58885 12.4764C2.61833 12.1424 2.89342 12.0368 3.22255 12.0171C3.24711 11.9213 3.26922 11.8255 3.29378 11.7322C3.35764 11.5013 3.50256 11.3638 3.75064 11.3638C3.99871 11.3638 4.12152 11.5308 4.15345 11.742C4.18292 11.9385 4.24678 12.0269 4.46047 12.054C4.70609 12.0859 4.91487 12.2234 4.90259 12.5133C4.89277 12.7908 4.71346 12.9284 4.45556 12.9799C4.37942 12.9947 4.30328 13.0119 4.21977 13.0291Z" fill="#FFEB61"/>
<path d="M18.2644 4.46417C18.0286 4.44206 17.8813 4.30943 17.7953 4.06873C17.756 3.95574 17.643 3.8403 17.5325 3.78872C17.309 3.68064 17.0854 3.57502 17.11 3.29256C17.1297 3.02483 17.3335 2.90694 17.5767 2.82589C17.6749 2.79396 17.7904 2.68096 17.8125 2.58517C17.8739 2.32236 17.9918 2.15043 18.2792 2.14798C18.5518 2.14552 18.6623 2.30517 18.7237 2.55816C18.7483 2.66377 18.8834 2.78904 18.9939 2.81851C19.2592 2.8922 19.468 3.01255 19.468 3.30484C19.4655 3.60695 19.242 3.7003 18.9767 3.7617C18.8834 3.78381 18.7851 3.91152 18.7507 4.01222C18.6623 4.24556 18.569 4.44943 18.2644 4.46417Z" fill="#FFEB61"/>
<path d="M43.5583 14.2373C43.5387 14.3675 43.5289 14.4682 43.5092 14.5665C43.4601 14.8023 43.3225 14.9594 43.0745 14.9594C42.8239 14.957 42.6274 14.8244 42.6004 14.5714C42.5759 14.3405 42.4678 14.2742 42.2762 14.1833C42.1288 14.1145 41.9937 13.9057 41.9594 13.7387C41.9127 13.498 42.0994 13.3678 42.3302 13.2991C42.4236 13.2696 42.5439 13.1836 42.5709 13.1001C42.6446 12.8447 42.733 12.6211 43.045 12.6261C43.379 12.6285 43.5117 12.8447 43.5485 13.1443C43.5534 13.1763 43.5706 13.2057 43.5829 13.2352C44.0717 13.3433 44.224 13.4759 44.2068 13.7878C44.1871 14.1735 43.8899 14.2177 43.5583 14.2373Z" fill="#FFEB61"/>
<path d="M34.8732 5.22309C34.8756 5.51783 34.6448 5.75853 34.35 5.76836C34.0307 5.77818 33.7605 5.52028 33.7654 5.2108C33.7704 4.90132 34.0135 4.66553 34.3255 4.66553C34.6325 4.66553 34.8707 4.90624 34.8732 5.22309Z" fill="#FFEB61"/>
<path d="M7.56029 33.4548C7.25818 33.4573 7.01256 33.2092 7.00765 32.9022C7.00273 32.6025 7.22871 32.3766 7.53328 32.3692C7.8403 32.3643 8.11048 32.6099 8.11539 32.8998C8.12031 33.197 7.86486 33.4524 7.56029 33.4548Z" fill="#FFEB61"/>
<path d="M29.2165 33.5655C29.214 33.8823 28.9708 34.1181 28.6564 34.1058C28.3642 34.096 28.1284 33.8553 28.121 33.5655C28.1136 33.2781 28.3887 32.9907 28.6663 32.9932C28.9487 32.9907 29.2165 33.2732 29.2165 33.5655Z" fill="#FFEB61"/>
<path d="M2.49817 20.7905C2.20097 20.8003 1.95535 20.5744 1.93816 20.2796C1.92096 19.9677 2.15184 19.7147 2.46624 19.7024C2.76589 19.6926 3.02625 19.9431 3.03116 20.2502C3.03607 20.54 2.79537 20.7807 2.49817 20.7905Z" fill="#FFEB61"/>
<path d="M43.8212 21.093C43.4994 21.088 43.2759 20.8522 43.2857 20.5354C43.2955 20.2382 43.5338 20.0098 43.8261 20.0098C44.1282 20.0122 44.3615 20.2603 44.3591 20.5796C44.3591 20.8866 44.1356 21.0954 43.8212 21.093Z" fill="#FFEB61"/>
<path d="M12.5389 4.97767C12.5316 5.2847 12.2712 5.55488 11.9887 5.54505C11.6989 5.53523 11.4656 5.2896 11.4656 4.99485C11.4656 4.678 11.7112 4.42502 12.0084 4.43485C12.2982 4.44467 12.5438 4.69521 12.5389 4.97767Z" fill="#FFEB61"/>
<path d="M19.404 32.7793C19.6889 32.7769 19.9198 33.0298 19.9124 33.332C19.905 33.6292 19.6913 33.8379 19.3966 33.833C19.1068 33.8281 18.8587 33.5825 18.8538 33.3C18.8513 33.02 19.1019 32.7818 19.404 32.7793Z" fill="#FFEB61"/>
<path d="M38.2872 36.6185C37.4841 37.4511 36.5826 37.7434 35.5191 37.429C35.3619 37.3824 35.2023 37.3038 35.077 37.1982C34.9026 37.0508 34.8314 36.8445 34.9566 36.6234C35.0745 36.4122 35.2661 36.336 35.4995 36.395C35.6198 36.4245 35.7353 36.4662 35.8532 36.5006C36.5163 36.6873 37.0886 36.5129 37.5209 35.9922C37.9507 35.4764 38.0318 34.882 37.7518 34.2581C37.6265 33.983 37.4988 33.7202 37.7886 33.4647C37.9679 33.3075 38.1571 33.2756 38.3314 33.4353C38.4665 33.563 38.6016 33.7177 38.6729 33.8847C39.088 34.8942 38.916 35.8178 38.2872 36.6185Z" fill="#FFEB61"/>
<path d="M17.1663 37.1341C17.1172 37.4509 17.1098 37.8021 16.6701 37.812C16.3754 37.8193 16.2428 37.6425 16.1691 37.1684C15.8621 37.0849 15.4961 37.0112 15.5354 36.5814C15.5649 36.2474 15.84 36.1418 16.1691 36.1221C16.1936 36.0263 16.2157 35.9305 16.2403 35.8372C16.3042 35.6063 16.4491 35.4688 16.6972 35.4688C16.9452 35.4688 17.0681 35.6358 17.1 35.847C17.1295 36.0435 17.1933 36.1319 17.407 36.1589C17.6526 36.1909 17.8614 36.3284 17.8491 36.6182C17.8393 36.8958 17.66 37.0334 17.4021 37.0849C17.326 37.0997 17.2498 37.1169 17.1663 37.1341Z" fill="#FFEB61"/>
<path d="M30.8326 11.3881C31.5744 12.2821 32.1074 13.2499 32.4021 14.333C33.1341 17.0152 32.5102 19.4518 31.0414 21.7336C30.7 22.2641 30.4224 22.8438 30.0491 23.3497C29.3859 24.2512 28.6687 25.1084 27.9834 25.9926C27.9048 26.0958 27.8262 26.253 27.8459 26.3709C28.2413 29.053 29.3663 31.3299 31.567 32.9952C31.8618 33.2187 32.2056 33.3809 32.5274 33.5675C32.6649 33.6461 32.8098 33.7149 32.9425 33.7984C33.1292 33.9163 33.2028 34.0907 33.0972 34.2946C32.9892 34.5033 32.8025 34.5205 32.6011 34.4297C31.7881 34.0661 31.0561 33.5823 30.3954 32.9854C29.6414 32.3026 29.047 31.4945 28.514 30.6324C28.4476 30.5292 28.3838 30.4236 28.3027 30.2983C26.9813 31.5338 25.4462 32.2019 23.6409 32.1994C21.8306 32.197 20.3004 31.5043 19.0134 30.3204C18.5614 30.9468 18.1488 31.5854 17.6698 32.165C16.8814 33.118 15.9063 33.85 14.7936 34.3977C14.6831 34.4542 14.5554 34.5303 14.4473 34.5156C14.3294 34.5009 14.182 34.4124 14.1305 34.3142C14.0813 34.2184 14.1084 34.0539 14.155 33.9433C14.1894 33.8623 14.3024 33.8058 14.3908 33.7616C17.1516 32.3984 18.6081 30.0797 19.2909 27.1593C19.4506 26.4716 19.3573 25.9951 18.8464 25.4817C17.9572 24.5877 17.2769 23.5266 16.6874 22.409C16.3656 21.8023 15.9235 21.2571 15.6214 20.643C14.6192 18.6216 14.2361 16.5141 14.8649 14.2937C15.1473 13.2892 15.6263 12.3853 16.26 11.5575C16.2944 11.5133 16.3214 11.4642 16.3067 11.4863C16.0316 11.0442 15.7859 10.6389 15.5207 10.2435C15.4642 10.1599 15.3487 10.101 15.248 10.0617C14.4645 9.75468 13.6859 9.78416 12.895 10.0715C10.5911 10.9116 9.29421 13.1 9.66755 15.5243C9.82721 16.5633 9.98194 17.6047 10.1097 18.6486C10.3823 20.8985 9.45877 22.6325 7.7468 24.008C7.18188 24.4624 6.59731 24.8898 6.02992 25.3393C5.80887 25.5161 5.59763 25.7077 5.41096 25.9165C4.94674 26.4519 4.76252 27.0439 5.08429 27.7316C5.42815 28.4685 5.76465 29.2102 6.09133 29.9569C6.20431 30.2173 6.34432 30.2639 6.58257 30.1092C6.7324 30.0109 6.90678 29.9495 7.07626 29.8832C7.26047 29.812 7.43241 29.8145 7.54048 30.0232C7.6461 30.2271 7.56259 30.3794 7.39557 30.4875C6.79134 30.8804 6.15519 31.1359 5.41096 30.9836C3.58355 30.6103 2.61335 29.392 2.16878 27.6726C1.73649 25.9951 2.41686 24.6761 3.58846 23.5634C4.21971 22.9666 4.93446 22.4581 5.61237 21.9129C5.7622 21.7925 5.91448 21.6746 6.06431 21.5543C7.1131 20.7069 7.49873 19.6458 7.24083 18.2998C7.03451 17.224 6.87977 16.131 6.81099 15.038C6.52116 10.6586 9.53 7.75779 12.9883 6.91777C14.6192 6.52232 16.0512 6.88339 17.3088 7.9985C17.6011 8.25886 17.9474 8.45535 18.2569 8.69606C18.4779 8.86799 18.6769 9.0694 18.8636 9.23642C19.566 8.96379 20.2538 8.63712 20.9759 8.4308C23.4493 7.72096 25.8367 7.99114 28.121 9.16766C28.3543 9.28801 28.4697 9.27818 28.6441 9.06449C28.8087 8.86308 29.0617 8.73536 29.2778 8.57816C29.3687 8.51185 29.4743 8.46027 29.548 8.38167C30.9407 6.89567 32.6232 6.46338 34.5587 7.0455C37.091 7.80446 38.9995 9.28555 39.982 11.8179C40.5444 13.2695 40.542 14.758 40.316 16.2661C40.1907 17.1061 40.0753 17.9461 39.9648 18.7861C39.842 19.7072 40.0606 20.5374 40.763 21.1662C41.4115 21.7458 42.1066 22.2739 42.7943 22.8069C43.5999 23.4308 44.3171 24.1382 44.7863 25.047C45.6067 26.6312 45.2137 28.1025 44.2607 29.478C43.6638 30.3376 42.8041 30.8215 41.7799 31.0057C41.0848 31.131 40.4609 30.9026 39.8837 30.5317C39.7118 30.4211 39.5669 30.2295 39.7142 30.0527C39.8076 29.9422 40.0409 29.9397 40.2128 29.9102C40.2693 29.9004 40.3357 29.9594 40.3971 29.9888C40.9693 30.259 40.9767 30.2639 41.2493 29.7064C41.5588 29.0751 41.8462 28.4365 42.1508 27.8053C42.4995 27.0856 42.3424 26.4421 41.8094 25.9091C41.3795 25.4793 40.8785 25.1207 40.4167 24.7228C39.7437 24.1382 39.0191 23.5978 38.4198 22.9445C37.3538 21.7827 36.9535 20.3581 37.1303 18.7959C37.258 17.6612 37.4496 16.5338 37.6068 15.4015C37.9801 12.7193 36.1675 10.2484 33.5074 9.89468C32.9818 9.82591 32.4218 10.0126 31.8814 10.1108C31.7979 10.1256 31.6996 10.2705 31.6726 10.3736C31.5425 10.8108 31.3116 11.167 30.8326 11.3881ZM18.1685 17.73C19.1141 17.3247 20.0745 17.2485 21.0397 17.5236C21.5457 17.6661 22.0271 17.9043 22.5036 18.1352C22.7026 18.2335 22.8205 18.4447 22.678 18.6781C22.5356 18.9114 22.3293 18.8917 22.118 18.7689C22.0492 18.7296 21.9805 18.6903 21.9142 18.6486C21.3541 18.3072 20.7499 18.1131 20.0917 18.0615C18.6007 17.9486 17.3628 18.8524 17.1393 20.2918C17.0656 20.7683 16.9747 21.3479 17.1688 21.7458C17.9818 23.4283 19.0969 24.9094 20.4896 26.1695C21.165 26.7786 21.9043 27.2919 22.7517 27.6456C23.3756 27.906 23.9946 27.9207 24.584 27.6014C25.1588 27.2895 25.7483 26.98 26.2567 26.5772C27.7771 25.3761 28.8898 23.8262 29.9017 22.188C30.2063 21.6943 30.3266 21.2153 30.2308 20.6528C30.0933 19.8447 29.9115 19.0686 29.1378 18.6019C27.9883 17.9068 26.8216 17.9461 25.6427 18.5184C25.4388 18.6166 25.2472 18.7419 25.0409 18.8303C24.8272 18.9212 24.6307 18.8254 24.5669 18.6314C24.5276 18.5086 24.6012 18.317 24.6823 18.1966C24.7511 18.0935 24.8984 18.0394 25.0212 17.978C26.3525 17.3149 27.7083 17.0766 29.1428 17.7472C28.8922 17.3836 28.6294 17.0373 28.3298 16.7254C27.6199 15.9836 26.7111 15.5415 25.8244 15.0625C24.9205 14.5737 24.1444 13.9523 23.6875 13.0018C23.6777 12.9797 23.6335 12.9723 23.5795 12.9428C23.0907 14.1316 22.0787 14.7432 21.0176 15.3131C20.551 15.5636 20.0966 15.8436 19.6594 16.1457C19.0551 16.5657 18.5393 17.0791 18.1685 17.73ZM30.9481 20.2844C32.3186 17.9461 32.4488 14.9201 30.6238 12.3091C28.8161 9.7203 25.6402 8.70588 23.97 8.8336C23.97 9.61222 23.9479 10.3933 23.9749 11.1719C24.0142 12.3484 24.4907 13.3235 25.4732 13.9965C25.9841 14.3478 26.5441 14.6302 27.0869 14.9299C29.2066 16.1064 30.4863 17.8847 30.9481 20.2844ZM16.3116 20.2844C16.3337 20.2107 16.3509 20.1616 16.3607 20.1125C16.7832 17.9338 17.9597 16.2784 19.8436 15.1239C20.3938 14.7874 20.9611 14.4829 21.5163 14.1537C22.1156 13.8025 22.5773 13.326 22.8844 12.6898C23.4886 11.4396 23.2159 10.1207 23.27 8.8287C21.1257 8.49466 17.6993 10.4498 16.3312 12.734C14.774 15.3401 15.135 18.2703 16.3116 20.2844ZM16.7439 8.4529C16.1347 7.88797 15.4666 7.62271 14.7249 7.50727C13.7055 7.35007 12.7697 7.65464 11.8658 8.05991C9.18122 9.26836 7.61908 11.3119 7.52329 14.2839C7.48399 15.4899 7.68048 16.7254 7.92856 17.9166C8.31173 19.7588 7.77628 21.1883 6.30011 22.3034C6.138 22.4262 5.97834 22.5515 5.81869 22.6792C5.28815 23.1017 4.73305 23.4996 4.23198 23.954C2.79265 25.2607 2.45615 26.4691 3.04073 28.073C3.44846 29.1881 4.22707 29.9004 5.42324 30.2762C5.33973 30.0969 5.2857 29.9766 5.23166 29.8587C4.92709 29.1513 4.61024 28.4537 4.32777 27.7365C4.04777 27.0267 4.17794 26.3463 4.62743 25.747C4.88287 25.4056 5.18008 25.0838 5.50675 24.8112C6.14045 24.2806 6.82327 23.8115 7.45943 23.2834C8.94297 22.0529 9.66019 20.5006 9.37772 18.5479C9.25246 17.6858 9.13701 16.8212 8.98964 15.964C8.69244 14.2299 8.93315 12.6088 10.0605 11.2186C11.2125 9.79644 12.6739 8.96133 14.5775 9.15782C14.9189 9.19221 15.2529 9.31257 15.6165 9.39854C15.8007 8.88765 16.1789 8.5929 16.7439 8.4529ZM41.8143 30.2615C41.9174 30.2418 41.9616 30.2394 42.0009 30.2271C44.042 29.5787 45.3758 26.7147 43.7817 24.7793C43.1455 24.008 42.3596 23.4259 41.5932 22.8094C41.0578 22.3771 40.5199 21.9374 40.0507 21.4339C39.3777 20.7118 39.11 19.8202 39.2353 18.8303C39.3605 17.8208 39.4932 16.8089 39.6356 15.8043C39.8297 14.4436 39.756 13.1123 39.2082 11.84C38.2307 9.57046 36.4328 8.27605 34.1018 7.64481C32.9302 7.32796 31.8372 7.51954 30.8277 8.18762C30.7319 8.25148 30.6459 8.33255 30.6238 8.34974C30.9431 8.64448 31.26 8.89256 31.5154 9.19221C31.6456 9.3445 31.7316 9.35678 31.906 9.32976C32.4046 9.25116 32.913 9.11853 33.4092 9.15046C35.9661 9.31257 38.7146 11.8204 38.3388 15.2467C38.2479 16.0794 38.103 16.9047 37.9851 17.7324C37.8549 18.6412 37.7075 19.5451 37.9212 20.4637C38.2209 21.7557 39.0142 22.7013 40.0163 23.5045C40.7139 24.0645 41.4434 24.5877 42.1017 25.187C43.1185 26.113 43.2683 26.9088 42.7599 28.1762C42.6617 28.4169 42.5585 28.6551 42.448 28.8909C42.2515 29.3306 42.0452 29.7678 41.8143 30.2615ZM20.0818 26.7368C19.9688 27.2207 19.8853 27.6628 19.765 28.0976C19.6422 28.5446 19.4727 28.9769 19.3499 29.4239C19.3229 29.5222 19.3622 29.7015 19.4359 29.7555C19.8878 30.092 20.3397 30.4432 20.831 30.7183C23.1226 32.0005 25.9251 31.6198 27.7869 29.7825C27.8753 29.6966 27.9343 29.5001 27.9024 29.3871C27.6641 28.5323 27.3988 27.6849 27.1606 26.8965C26.5809 27.2674 25.9521 27.6997 25.2939 28.0877C24.2967 28.6723 23.2675 28.7264 22.2114 28.2179C21.4303 27.8397 20.7204 27.3681 20.0818 26.7368ZM18.2692 9.61467C17.9204 9.428 17.633 9.22414 17.3137 9.11361C16.9354 8.98098 16.4786 9.2266 16.3165 9.57292C16.1519 9.93153 16.2674 10.4031 16.6112 10.6291C16.7119 10.6954 16.9256 10.7249 17.0067 10.6635C17.4119 10.3614 17.7877 10.0224 18.2692 9.61467ZM30.9923 9.98066C30.9873 9.52872 30.7123 9.20695 30.2873 9.11115C29.8845 9.02028 29.295 9.24134 29.1673 9.55818C29.1378 9.63433 29.1968 9.79153 29.268 9.85785C29.5701 10.1428 29.8894 10.4129 30.2112 10.6782C30.2726 10.7298 30.4077 10.7715 30.4617 10.7396C30.7614 10.5628 31.0095 10.3393 30.9923 9.98066Z" fill="#FFEB61" stroke="#FFEB61" stroke-width="0.2" stroke-miterlimit="10"/>
<path d="M23.9799 20.8347C23.9799 21.3775 23.9823 21.9203 23.9774 22.4607C23.9774 22.64 24.002 22.7579 24.1911 22.8635C24.4834 23.0256 24.4392 23.4014 24.1272 23.5291C23.8006 23.6642 23.4616 23.6642 23.1448 23.4947C22.8451 23.3375 22.796 23.1263 23.0539 22.9126C23.2799 22.7235 23.2995 22.5122 23.2971 22.2593C23.2897 21.2645 23.2921 20.2697 23.2897 19.2774C23.2897 19.1767 23.2553 19.049 23.3044 18.9778C23.3953 18.8451 23.5206 18.683 23.6557 18.6609C23.7416 18.6462 23.9406 18.8476 23.9602 18.9729C24.0069 19.2823 23.9799 19.6041 23.9823 19.9185C23.9774 20.2231 23.9774 20.5301 23.9799 20.8347C23.9774 20.8347 23.9774 20.8347 23.9799 20.8347Z" fill="#FFEB61"/>
<path d="M23.9799 20.8347C23.9799 21.3775 23.9823 21.9203 23.9774 22.4607C23.9774 22.64 24.002 22.7579 24.1911 22.8635C24.4834 23.0256 24.4392 23.4014 24.1272 23.5291C23.8006 23.6642 23.4616 23.6642 23.1448 23.4947C22.8451 23.3375 22.796 23.1263 23.0539 22.9126C23.2799 22.7235 23.2995 22.5122 23.2971 22.2593C23.2897 21.2645 23.2921 20.2697 23.2897 19.2774C23.2897 19.1767 23.2553 19.049 23.3044 18.9778C23.3953 18.8451 23.5206 18.683 23.6557 18.6609C23.7416 18.6462 23.9406 18.8476 23.9602 18.9729C24.0069 19.2823 23.9799 19.6041 23.9823 19.9185C23.9774 20.2231 23.9774 20.5301 23.9799 20.8347ZM23.9799 20.8347C23.9774 20.8347 23.9774 20.8347 23.9799 20.8347Z" stroke="#FFEB61" stroke-width="0.2" stroke-miterlimit="10"/>
<path d="M20.2341 20.434C19.7478 20.4119 19.2934 20.2695 18.9274 19.9108C18.7481 19.734 18.6155 19.5228 18.8243 19.2894C19.0404 19.0487 19.2443 19.1715 19.4408 19.341C20.045 19.8666 20.4061 19.8691 21.0324 19.3508C21.2289 19.1887 21.445 19.1249 21.6366 19.3214C21.8282 19.5203 21.7054 19.7291 21.5556 19.8912C21.2092 20.2694 20.7598 20.4242 20.2341 20.434Z" fill="#FFEB61" stroke="#FFEB61" stroke-width="0.2" stroke-miterlimit="10"/>
<path d="M23.6656 26.0415C23.1646 25.8573 22.7077 25.7051 22.2656 25.5135C22.1796 25.4766 22.0863 25.2728 22.1182 25.1868C22.1624 25.0566 22.2975 24.9117 22.4228 24.8724C22.5554 24.8306 22.7568 24.8601 22.8698 24.9412C23.3783 25.3022 23.8572 25.2801 24.3804 24.951C24.5278 24.8601 24.7979 24.8798 24.9748 24.9461C25.1885 25.0247 25.2302 25.3489 25.0411 25.4447C24.5941 25.6756 24.12 25.8475 23.6656 26.0415Z" fill="#FFEB61" stroke="#FFEB61" stroke-width="0.2" stroke-miterlimit="10"/>
<path d="M27.001 20.5375C26.5146 20.5154 26.0602 20.373 25.6943 20.0144C25.515 19.8375 25.3823 19.6263 25.5911 19.3929C25.8073 19.1522 26.0111 19.275 26.2076 19.4445C26.8118 19.9702 27.1729 19.9726 27.7992 19.4543C27.9957 19.2922 28.2119 19.2284 28.4035 19.4249C28.595 19.6238 28.4722 19.8326 28.3224 19.9947C27.9761 20.3705 27.5266 20.5277 27.001 20.5375Z" fill="#FFEB61" stroke="#FFEB61" stroke-width="0.2" stroke-miterlimit="10"/>
</svg>
