<svg width="47" height="40" viewBox="0 0 47 40" fill="none" xmlns="http://www.w3.org/2000/svg">
<path d="M41.5391 6.3392C41.5391 6.23865 41.5391 6.1381 41.5391 6.03503C41.5365 5.49707 41.4226 5.33116 40.9011 5.18535C40.8226 5.16273 40.7112 5.21301 40.6276 5.25574C40.2048 5.47444 39.7921 5.70572 39.3693 5.92442C39.1086 6.06017 38.8756 6.01744 38.7389 5.74594C38.6073 5.4845 38.6807 5.26832 38.944 5.12C39.3288 4.9013 39.7061 4.67254 40.0934 4.4664C40.2453 4.38345 40.3086 4.30048 40.2706 4.12452C40.2403 3.98374 40.22 3.82034 40.2631 3.69214C40.3846 3.32512 40.2048 3.16172 39.901 3.02597C39.5997 2.89525 39.3086 2.73939 39.0326 2.56845C38.7288 2.37992 38.6528 2.10089 38.8149 1.85202C38.9997 1.57047 39.2453 1.60817 39.4985 1.74643C39.8656 1.94754 40.2352 2.14614 40.5922 2.36233C40.7542 2.46036 40.8859 2.52824 41.0302 2.35227C41.0428 2.33467 41.0656 2.31707 41.0833 2.31205C41.5998 2.21401 41.5695 1.83693 41.5543 1.4498C41.5416 1.16825 41.5492 0.886703 41.5695 0.607668C41.5872 0.353771 41.729 0.182833 41.9948 0.162722C42.2505 0.142612 42.5012 0.376399 42.5113 0.642865C42.5265 1.05765 42.5265 1.47494 42.5163 1.89224C42.5113 2.06318 42.5999 2.11597 42.7315 2.21149C43.1265 2.50058 43.4404 2.38495 43.7873 2.13608C44.043 1.95509 44.3392 1.82688 44.6203 1.6861C44.838 1.5755 45.0405 1.58304 45.1798 1.8118C45.3216 2.0481 45.3595 2.29948 45.1038 2.47042C44.757 2.70169 44.3899 2.90782 44.0177 3.09636C43.7949 3.20948 43.6734 3.32261 43.7721 3.58908C43.8152 3.69969 43.8303 3.84548 43.7924 3.95358C43.6784 4.27032 43.8557 4.39099 44.0987 4.51416C44.4304 4.68511 44.7519 4.87364 45.0633 5.07978C45.3393 5.25826 45.4026 5.52975 45.2557 5.77862C45.0836 6.06771 44.838 6.06017 44.5823 5.92191C44.2152 5.72332 43.8506 5.51719 43.4961 5.29345C43.324 5.18536 43.2075 5.21803 43.0176 5.27082C42.486 5.42668 42.4581 5.78365 42.486 6.22357C42.5062 6.5026 42.4834 6.78667 42.4657 7.0657C42.4505 7.35228 42.3037 7.54585 42.0024 7.5383C41.7062 7.53076 41.5543 7.34222 41.5416 7.05565C41.5315 6.8118 41.5391 6.5755 41.5391 6.3392C41.5441 6.3392 41.5441 6.3392 41.5391 6.3392ZM42.7493 3.85303C42.7569 3.43322 42.4353 3.09636 42.0176 3.08882C41.6302 3.08379 41.3011 3.41562 41.291 3.82286C41.2834 4.19994 41.5998 4.5041 42.015 4.51667C42.4429 4.52924 42.7417 4.25775 42.7493 3.85303Z" fill="#FFEB61"/>
<path d="M3.26598 6.36184C3.26598 6.27134 3.25333 6.18084 3.26852 6.09285C3.33688 5.66299 3.20522 5.37641 2.75457 5.22558C2.56215 5.16273 2.44315 5.14011 2.26593 5.25574C1.90895 5.49204 1.53171 5.70572 1.15701 5.90934C0.911424 6.04509 0.670905 6.04006 0.516466 5.76103C0.372154 5.49456 0.417726 5.2482 0.6785 5.08229C1.02282 4.86358 1.38993 4.6851 1.72666 4.45383C1.84059 4.3759 1.88869 4.19993 1.95452 4.06167C1.97731 4.01642 1.94186 3.94604 1.95958 3.89577C2.13681 3.36786 1.86844 3.09888 1.41019 2.91286C1.18233 2.81985 0.972185 2.67655 0.759515 2.54835C0.5114 2.40003 0.420254 2.09334 0.544312 1.85453C0.668369 1.61823 0.936742 1.54785 1.2203 1.7037C1.58741 1.9023 1.95199 2.11095 2.30644 2.33216C2.47354 2.43523 2.60266 2.46288 2.76469 2.33467C2.84064 2.27183 2.94192 2.22909 3.04065 2.20898C3.22041 2.16876 3.26852 2.06569 3.26345 1.89475C3.25333 1.50008 3.25586 1.10793 3.26092 0.713254C3.26599 0.371373 3.44068 0.155179 3.70905 0.142609C3.98754 0.13004 4.18502 0.346232 4.20021 0.710738C4.2154 1.09284 4.21034 1.47746 4.22047 1.85956C4.22806 2.19641 4.80784 2.51316 5.11166 2.34725C5.50915 2.13106 5.89651 1.89475 6.30413 1.70119C6.67124 1.52773 6.96999 1.68359 7.02569 2.03804C7.06113 2.26429 6.96746 2.42768 6.76492 2.53829C6.38515 2.74191 6.01297 2.95559 5.63321 3.1567C5.46358 3.2472 5.35978 3.34272 5.45345 3.55388C5.49143 3.64187 5.50662 3.76253 5.47624 3.85303C5.32686 4.27535 5.55472 4.45384 5.90158 4.60969C6.22058 4.75298 6.51933 4.94152 6.81302 5.13257C7.08899 5.31356 7.14975 5.58506 6.99531 5.83141C6.82315 6.10542 6.58263 6.07525 6.34211 5.94202C5.94462 5.72583 5.55472 5.49456 5.16229 5.27083C4.83316 5.0848 4.23313 5.41412 4.223 5.78868C4.21288 6.20346 4.21794 6.62076 4.21034 7.03806C4.20528 7.34474 4.01793 7.55087 3.73943 7.54333C3.43308 7.53579 3.29383 7.34725 3.27864 7.06319C3.26852 6.82689 3.27611 6.59059 3.27611 6.35429C3.27358 6.36184 3.27105 6.36184 3.26598 6.36184ZM3.7445 4.52422C4.18503 4.51668 4.47112 4.22508 4.45846 3.80024C4.44833 3.40557 4.10148 3.08883 3.69639 3.10139C3.29637 3.11396 3.01281 3.44076 3.02293 3.87817C3.03053 4.24267 3.35207 4.52925 3.7445 4.52422Z" fill="#FFEB61"/>
<path d="M6.2234 32.1362C6.15504 31.4172 6.27656 30.7812 6.64874 30.2156C6.7576 30.0522 6.90445 29.8737 7.07408 29.7983C7.21839 29.7355 7.47663 29.7505 7.58803 29.8435C7.6969 29.9366 7.70703 30.1678 7.71968 30.3413C7.72475 30.4268 7.63614 30.5198 7.5855 30.6078C7.11459 31.4072 6.99812 32.2317 7.53993 33.0286C8.08173 33.8255 8.91975 33.9361 9.81094 33.8456C9.95525 33.8305 10.1325 33.7777 10.2363 33.8405C10.373 33.926 10.53 34.102 10.5325 34.2453C10.5376 34.3835 10.3933 34.5897 10.2616 34.66C9.62106 35.0019 8.95013 34.9542 8.2868 34.7128C8.18047 34.6751 8.0792 34.6274 7.97286 34.5846C7.96274 34.5796 7.95008 34.5846 7.90197 34.5846C7.89185 34.7933 7.89184 35.0019 7.87159 35.2106C7.81083 35.8441 7.6336 36.4273 7.10952 36.8471C6.92977 36.9904 6.69937 37.0406 6.56266 36.8597C6.45379 36.7139 6.44113 36.4826 6.42594 36.2865C6.41835 36.2035 6.53481 36.1181 6.56772 36.0251C6.68671 35.6983 6.84622 35.3765 6.89179 35.0396C7.05889 33.7878 6.10947 32.7923 4.80559 32.8174C4.62584 32.8224 4.43849 32.835 4.26886 32.8853C3.95998 32.9758 3.7549 32.8727 3.63591 32.5962C3.5397 32.3699 3.67642 32.0985 3.96757 31.9753C4.56254 31.7214 5.16511 31.7817 5.76261 31.9728C5.89933 32.013 6.03351 32.0658 6.2234 32.1362Z" fill="#FFEB61"/>
<path d="M43.638 21.4222C44.0684 21.2437 44.4709 21.0376 44.8963 20.9119C45.1824 20.8264 45.5014 20.8189 45.8027 20.839C46.1343 20.8591 46.3267 21.0954 46.3039 21.3694C46.2761 21.6962 46.0558 21.7917 45.7621 21.8018C44.9621 21.8295 44.2608 22.0808 43.8101 22.7772C43.2886 23.5816 43.4329 24.5846 44.1443 25.3941C44.2456 25.5097 44.3874 25.648 44.3899 25.7787C44.395 25.9371 44.314 26.1708 44.195 26.2412C44.0633 26.3166 43.8051 26.3066 43.6684 26.2211C43.0607 25.8541 42.7518 25.2734 42.6101 24.5997C42.5822 24.4614 42.5645 24.3181 42.5569 24.2654C42.0024 24.4614 41.4733 24.6726 40.9239 24.8259C40.696 24.8888 40.4277 24.836 40.1846 24.7958C39.934 24.753 39.7846 24.5922 39.815 24.3156C39.8454 24.0542 39.9922 23.921 40.258 23.8883C40.5948 23.8481 40.9416 23.8305 41.2606 23.7299C42.6354 23.29 43.1265 21.9049 42.3493 20.6882C42.2354 20.5072 42.086 20.3488 41.9493 20.1854C41.767 19.9667 41.7239 19.7304 41.9113 19.5092C42.1138 19.2729 42.367 19.3357 42.5848 19.4966C43.1417 19.9039 43.4532 20.4644 43.5823 21.1306C43.6076 21.2362 43.6253 21.3443 43.638 21.4222Z" fill="#FFEB61"/>
<path d="M23.0418 6.53531C21.8747 6.50011 21.0442 6.02499 20.5556 5.02197C20.4847 4.87366 20.4341 4.7002 20.429 4.53681C20.4214 4.30805 20.5278 4.11448 20.7759 4.06169C21.0139 4.0089 21.2012 4.09688 21.3151 4.31307C21.3734 4.42117 21.4215 4.53681 21.4772 4.64742C21.7886 5.26582 22.3051 5.57251 22.9886 5.54486C23.6672 5.5172 24.1685 5.17783 24.4419 4.54937C24.5634 4.27285 24.6748 4.00136 25.0597 4.04158C25.2976 4.06923 25.4521 4.18738 25.4495 4.4262C25.447 4.61222 25.4217 4.81584 25.3432 4.98175C24.8748 5.96969 24.0672 6.46492 23.0418 6.53531Z" fill="#FFEB61"/>
<path d="M11.1098 24.4614C11.0592 24.7782 11.0516 25.1301 10.6085 25.1427C10.3123 25.1502 10.1756 24.9717 10.1021 24.4966C9.79326 24.4111 9.42362 24.3382 9.46159 23.9084C9.49197 23.574 9.77047 23.4659 10.1021 23.4483C10.1275 23.3528 10.1477 23.2573 10.173 23.1618C10.2363 22.928 10.3832 22.7922 10.6338 22.7922C10.8845 22.7922 11.0085 22.9581 11.0414 23.1718C11.0718 23.3704 11.1351 23.4584 11.3503 23.4835C11.5984 23.5162 11.8086 23.6545 11.7984 23.9461C11.7883 24.2226 11.606 24.3609 11.3452 24.4137C11.2718 24.4287 11.1933 24.4438 11.1098 24.4614Z" fill="#FFEB61"/>
<path d="M12.8237 2.78966C12.5857 2.76703 12.4363 2.6338 12.3502 2.39248C12.3097 2.27935 12.1958 2.16372 12.0844 2.11093C11.859 2.00283 11.6337 1.89725 11.6565 1.61319C11.6768 1.34421 11.8818 1.22606 12.1274 1.14562C12.2262 1.11294 12.3426 0.999809 12.3654 0.904283C12.4287 0.642845 12.5477 0.466876 12.8363 0.464362C13.1123 0.461849 13.2237 0.622738 13.2844 0.876635C13.3098 0.982216 13.4465 1.10791 13.5579 1.13808C13.8237 1.21349 14.0364 1.33163 14.0364 1.62575C14.0339 1.92993 13.8085 2.02294 13.5402 2.08579C13.4465 2.10841 13.3477 2.23662 13.3123 2.33717C13.2287 2.57096 13.1325 2.77709 12.8237 2.78966Z" fill="#FFEB61"/>
<path d="M35.911 28.7575C35.8908 28.8883 35.8806 28.9888 35.8604 29.0868C35.8123 29.3231 35.673 29.4815 35.4224 29.479C35.1692 29.4765 34.9692 29.3433 34.9413 29.0894C34.916 28.8581 34.8097 28.7902 34.6122 28.6997C34.4654 28.6318 34.3261 28.4207 34.2932 28.2548C34.2476 28.0134 34.435 27.8827 34.6679 27.8148C34.7616 27.7872 34.8856 27.6992 34.911 27.6137C34.9869 27.3573 35.0755 27.1336 35.392 27.1361C35.7287 27.1386 35.8629 27.3548 35.9009 27.6565C35.9059 27.6892 35.9237 27.7193 35.9363 27.747C36.43 27.8551 36.5845 27.9908 36.5667 28.3C36.544 28.6972 36.2452 28.7399 35.911 28.7575Z" fill="#FFEB61"/>
<path d="M34.8907 5.19791C34.8932 5.49202 34.6603 5.73335 34.3641 5.74592C34.04 5.75597 33.7666 5.49705 33.7716 5.18785C33.7767 4.87865 34.0223 4.63983 34.3388 4.63983C34.6476 4.63732 34.8881 4.88116 34.8907 5.19791Z" fill="#FFEB61"/>
<path d="M2.79788 22.3724C2.49153 22.375 2.24595 22.1286 2.23835 21.8169C2.23329 21.5177 2.46115 21.289 2.77003 21.2839C3.07891 21.2789 3.35234 21.5278 3.3574 21.8169C3.36246 22.1135 3.10676 22.3674 2.79788 22.3724Z" fill="#FFEB61"/>
<path d="M37.3794 35.4192C37.3768 35.736 37.1312 35.9723 36.8148 35.9622C36.5211 35.9522 36.2806 35.7108 36.2755 35.4192C36.2679 35.1301 36.5464 34.8436 36.8274 34.8436C37.111 34.8436 37.3794 35.1251 37.3794 35.4192Z" fill="#FFEB61"/>
<path d="M1.55216 13.7449C1.25088 13.755 1.00276 13.5287 0.985042 13.2321C0.96732 12.9179 1.20024 12.6665 1.51925 12.6539C1.82053 12.6439 2.08384 12.8978 2.0889 13.202C2.0965 13.491 1.85345 13.7349 1.55216 13.7449Z" fill="#FFEB61"/>
<path d="M43.8658 13.8757C43.5417 13.8706 43.3139 13.6343 43.324 13.3176C43.3341 13.0184 43.5746 12.7897 43.8709 12.7897C44.1772 12.7922 44.4127 13.0411 44.4101 13.3603C44.4076 13.667 44.1823 13.8807 43.8658 13.8757Z" fill="#FFEB61"/>
<path d="M11.9373 6.62076C11.9297 6.92996 11.6664 7.19894 11.3828 7.18888C11.0917 7.17883 10.8537 6.93247 10.8537 6.63835C10.8537 6.32161 11.1018 6.06772 11.4006 6.07777C11.6943 6.08532 11.9449 6.33921 11.9373 6.62076Z" fill="#FFEB61"/>
<path d="M14.8693 36.4851C15.158 36.4826 15.3909 36.7365 15.3833 37.0406C15.3757 37.3398 15.1605 37.5484 14.8617 37.5434C14.5706 37.5384 14.3174 37.292 14.3149 37.008C14.3123 36.7264 14.5655 36.4876 14.8693 36.4851Z" fill="#FFEB61"/>
<path d="M31.169 37.4454C30.931 37.4228 30.7816 37.2895 30.6955 37.0482C30.655 36.9351 30.5411 36.8194 30.4297 36.7666C30.2044 36.6585 29.979 36.553 30.0018 36.2689C30.0221 35.9999 30.2271 35.8818 30.4727 35.8013C30.5715 35.7687 30.6879 35.6555 30.7107 35.56C30.774 35.2986 30.893 35.1226 31.1816 35.1201C31.4576 35.1176 31.569 35.2785 31.6298 35.5323C31.6551 35.6379 31.7918 35.7636 31.9032 35.7938C32.169 35.8692 32.3817 35.9874 32.3817 36.2815C32.3792 36.5856 32.1538 36.6787 31.8855 36.7415C31.7918 36.7641 31.6931 36.8923 31.6576 36.9929C31.5715 37.2267 31.4779 37.4328 31.169 37.4454Z" fill="#FFEB61"/>
<path d="M27.4701 36.2488C27.1637 36.2513 26.9181 36.0049 26.9105 35.6932C26.9055 35.3941 27.1333 35.1653 27.4422 35.1603C27.7511 35.1553 28.0245 35.4041 28.0296 35.6932C28.0372 35.9898 27.7789 36.2463 27.4701 36.2488Z" fill="#FFEB61"/>
<path d="M22.437 37.8476C21.2698 37.8777 20.4394 38.2774 19.9507 39.1246C19.8799 39.2503 19.8292 39.3961 19.8242 39.5343C19.8166 39.7279 19.9229 39.8913 20.171 39.9366C20.409 39.9818 20.5963 39.9064 20.7103 39.7254C20.7685 39.6324 20.8166 39.5369 20.8723 39.4413C21.1837 38.921 21.7002 38.6595 22.3838 38.6821C23.0623 38.7048 23.5636 38.9913 23.837 39.5218C23.9586 39.7556 24.07 39.9868 24.4548 39.9516C24.6928 39.929 24.8472 39.8285 24.8447 39.6273C24.8422 39.469 24.8168 39.298 24.7384 39.1573C24.2674 38.3252 23.4598 37.9079 22.437 37.8476Z" fill="#FFEB61"/>
<path d="M18.1278 11.1582C18.2418 11.0351 18.3506 10.9119 18.4646 10.7962C19.5887 9.68011 20.9229 9.29046 22.4496 9.76055C22.9889 9.92646 23.4674 9.91641 24.0016 9.75301C25.508 9.29046 26.8271 9.67256 27.9512 10.7485C28.0828 10.8742 28.1917 11.0275 28.3335 11.1934C28.4727 11.0476 28.5664 10.9546 28.655 10.8591C30.1437 9.24773 31.9793 8.36537 34.192 8.40811C36.8428 8.4609 39.6101 10.2809 39.9848 13.4685C40.1519 14.8938 39.7974 16.2337 39.1543 17.5057C38.6986 18.4056 38.1214 19.2126 37.377 19.8988C37.0251 20.2231 36.7896 20.286 36.5517 20.1376C36.3187 19.9918 36.2732 19.743 36.4301 19.2955C36.7694 18.3201 36.934 17.3222 36.7441 16.299C36.5669 15.3488 36.1213 14.5469 35.2756 14.019C34.2401 13.3754 33.1743 13.7299 32.7363 14.8611C32.5717 15.2834 32.4578 15.7259 32.321 16.1608C32.3008 16.2261 32.278 16.289 32.2552 16.3518C31.7691 17.6992 30.9792 18.0889 29.5918 17.7068C29.1082 17.5735 28.6019 17.4403 28.1107 17.4554C27.7284 17.468 27.3385 17.6816 26.9739 17.8526C26.6321 18.0135 26.4954 18.0386 26.3612 17.8375C26.1992 17.5962 26.2524 17.3749 26.5714 17.1889C27.4955 16.6484 28.4677 16.5177 29.4905 16.8873C29.8779 17.028 30.2576 17.1713 30.683 17.0708C30.9868 16.9979 31.2425 16.847 31.3539 16.5655C31.5033 16.1909 31.6096 15.7988 31.7159 15.4066C31.7337 15.3463 31.6653 15.2131 31.6071 15.1879C30.2171 14.6324 29.1791 13.6319 28.2145 12.5408C28.2094 12.5333 28.1968 12.5308 28.1537 12.5107C27.8879 12.7495 27.6119 13.0009 27.3309 13.2472C26.4422 14.0366 25.5359 14.7907 24.4219 15.2658C23.6092 15.6127 22.8218 15.6077 22.0167 15.2558C20.9381 14.7832 20.0571 14.0366 19.1785 13.2824C18.8722 13.0185 18.581 12.7344 18.2772 12.4579C17.9456 12.8224 17.6417 13.1894 17.3025 13.5187C16.5733 14.2276 15.7733 14.841 14.8061 15.2055C14.7479 15.2281 14.6745 15.3614 14.6922 15.4142C14.8239 15.8164 14.9353 16.2337 15.1327 16.6057C15.3884 17.0884 15.8594 17.2367 16.4493 17.0859C16.7784 17.0004 17.0974 16.8747 17.4265 16.7892C18.2367 16.5856 19.014 16.7063 19.7507 17.0783C19.8773 17.1437 20.0317 17.2317 20.0798 17.3498C20.1381 17.4881 20.1406 17.6892 20.0798 17.8249C20.0014 18.0059 19.8013 17.9783 19.6418 17.9054C19.3963 17.7948 19.1608 17.6464 18.9076 17.5559C18.4165 17.3775 17.9177 17.3749 17.4189 17.5434C17.105 17.649 16.7885 17.747 16.467 17.8249C15.6796 18.016 14.8897 17.7294 14.5125 17.018C14.2289 16.4775 14.077 15.8641 13.8618 15.2885C13.7504 14.9918 13.6592 14.6776 13.4921 14.4111C13.0314 13.6645 12.1781 13.4735 11.3426 13.9134C10.2616 14.484 9.778 15.4418 9.64128 16.5982C9.53495 17.5057 9.65648 18.393 9.96789 19.2553C10.016 19.391 10.0616 19.5343 10.0717 19.6751C10.1071 20.0572 9.7856 20.2985 9.42355 20.1552C9.30962 20.11 9.19316 20.0421 9.10455 19.9541C7.42851 18.3327 6.41832 16.3971 6.38541 14.0441C6.3525 11.5479 8.09437 9.35331 10.6034 8.68715C13.2187 7.99584 15.4619 8.74999 17.424 10.5046C17.6595 10.7108 17.8797 10.927 18.1278 11.1582ZM27.8373 11.7389C26.9182 10.5675 25.7156 10.0496 24.5155 10.3991C23.6294 10.6555 22.8243 10.6555 21.9382 10.4041C20.6875 10.0522 19.3178 10.663 18.6696 11.7188C18.6823 11.7415 18.6899 11.7716 18.7102 11.7917C19.7735 12.8651 20.9052 13.8506 22.2698 14.5419C22.923 14.8712 23.5509 14.8687 24.2016 14.5519C25.6017 13.8606 26.7157 12.8098 27.8373 11.7389ZM37.5416 18.3579C37.5694 18.3252 37.6024 18.2925 37.6226 18.2548C38.0809 17.3272 38.2632 16.3518 38.1391 15.3237C38.0454 14.5444 37.8429 13.8053 37.3036 13.197C36.6048 12.4051 35.5339 12.1965 34.6933 12.6992C34.5971 12.757 34.5186 12.845 34.392 12.9556C35.706 13.1743 36.5744 13.8681 37.1137 14.9818C37.6327 16.0552 37.7062 17.1839 37.5416 18.3579ZM12.0718 12.8827C11.9604 12.8149 11.8895 12.7646 11.8161 12.7269C10.735 12.1763 9.61091 12.4353 8.94505 13.4458C8.11968 14.7002 8.11209 16.0703 8.50451 17.4654C8.59313 17.7822 8.74757 18.0838 8.86909 18.393C8.66908 15.8315 9.09442 13.6696 12.0718 12.8827ZM12.0541 9.73289C12.0693 9.16728 12.049 9.12958 11.6465 9.22008C11.1274 9.33823 10.6186 9.50163 10.1097 9.65246C9.92485 9.70776 9.87928 9.8058 9.96536 9.99937C10.1552 10.4317 10.3249 10.8742 10.4768 11.3216C10.6084 11.7088 10.8565 11.7817 11.1781 11.5051C11.7655 11.0024 12.0161 10.3438 12.0541 9.73289ZM36.5719 9.77312C35.9668 9.41112 35.2731 9.24521 34.5516 9.17985C34.506 9.17483 34.4047 9.27538 34.4022 9.32817C34.3794 10.1854 34.6832 10.9194 35.3035 11.5127C35.4883 11.6912 35.8428 11.6208 35.9263 11.4096C36.144 10.8742 36.3517 10.3362 36.5719 9.77312ZM29.9538 10.6957C30.445 11.7414 31.1843 12.5333 32.1894 13.0788C32.6299 13.3176 32.6299 13.3151 32.992 12.9858C33.3034 12.6992 33.3084 12.6515 32.9388 12.4604C31.9843 11.9652 31.1767 11.294 30.4906 10.4745C30.4576 10.4343 30.4045 10.4066 30.3538 10.3639C30.2146 10.4795 30.088 10.5826 29.9538 10.6957ZM13.2314 12.6665C13.2162 12.7068 13.201 12.747 13.1833 12.7872C13.2997 12.8727 13.4491 12.938 13.5301 13.0486C13.7073 13.295 13.8922 13.2749 14.1276 13.1492C15.0542 12.6615 15.791 11.9828 16.2999 11.0703C16.5151 10.6831 16.4594 10.5675 15.9986 10.4116C15.2644 11.3769 14.2795 12.0582 13.2314 12.6665ZM32.2527 13.9411C30.9438 13.3679 30.0045 12.4302 29.3107 11.2236C29.2399 11.2789 29.1943 11.3015 29.1639 11.3342C29.0525 11.4549 28.9259 11.5705 28.8449 11.7088C28.7993 11.7867 28.7841 11.94 28.8297 12.0079C29.5791 13.0662 30.5539 13.8656 31.7387 14.4011C31.8046 14.4312 31.9438 14.3885 31.997 14.3307C32.0982 14.2327 32.1565 14.0944 32.2527 13.9411ZM17.1455 11.1708C16.4569 12.4855 15.4593 13.3704 14.1909 13.9813C14.2365 14.0567 14.2795 14.1095 14.3023 14.1723C14.4213 14.4891 14.6011 14.484 14.8846 14.3433C16.0087 13.7852 16.8873 12.9531 17.6519 11.9853C17.6924 11.9325 17.6924 11.7942 17.6519 11.7415C17.5076 11.5504 17.3354 11.3795 17.1455 11.1708ZM33.8199 12.3071C34.0857 12.1512 34.3237 12.0104 34.5743 11.8621C33.8629 11.0929 33.635 10.1829 33.6376 9.17483C33.3819 9.19745 33.154 9.19745 32.9413 9.24522C32.8679 9.2603 32.7692 9.39102 32.7692 9.46894C32.7666 9.72787 32.792 9.98931 32.8249 10.2482C32.9185 11.0401 33.2401 11.7264 33.8199 12.3071ZM11.892 11.9149C12.0819 12.028 12.2541 12.1185 12.4085 12.2316C12.5579 12.3423 12.644 12.3247 12.7706 12.1839C13.4871 11.3996 13.6466 10.4393 13.6668 9.43375C13.6668 9.37594 13.5985 9.27789 13.5529 9.27035C13.3276 9.23516 13.0972 9.2251 12.8465 9.20248C12.8161 10.2181 12.5959 11.1331 11.892 11.9149ZM7.71207 14.1472C8.00322 13.6419 8.27919 13.1592 8.55262 12.6741C8.5754 12.6313 8.58806 12.5484 8.56528 12.5207C8.31969 12.2417 8.06399 11.9727 7.81081 11.7012C7.77536 11.7063 7.74245 11.7088 7.707 11.7138C7.55256 12.1562 7.39559 12.5987 7.24369 13.0436C7.06899 13.5489 7.21584 13.9209 7.71207 14.1472C7.73232 14.1522 7.72219 14.1497 7.71207 14.1472ZM38.6277 11.6987C38.367 11.9727 38.129 12.2141 37.9062 12.4654C37.8682 12.5082 37.8581 12.6163 37.8859 12.6665C38.1619 13.1492 38.448 13.6293 38.7442 14.1271C38.9012 13.9486 39.2607 13.9184 39.2404 13.5489C39.1999 12.9003 38.9923 12.302 38.6277 11.6987ZM9.22354 10.1502C8.89441 10.4368 8.61592 10.6706 8.35261 10.9219C8.30957 10.9622 8.31463 11.113 8.35767 11.1658C8.61591 11.4876 8.89188 11.7942 9.16531 12.111C9.41596 11.9878 9.64635 11.8747 9.8894 11.754C9.6742 11.2387 9.46913 10.7435 9.22354 10.1502ZM37.2555 10.1502C37.0757 10.5449 36.9188 10.8641 36.7846 11.1909C36.5441 11.7641 36.5466 11.7691 37.1264 12.0104C37.1998 12.0406 37.3441 12.023 37.3948 11.9677C37.6302 11.7239 37.8505 11.4649 38.0555 11.1934C38.1036 11.1306 38.1188 10.9672 38.0733 10.9194C37.8277 10.6655 37.5618 10.4343 37.2555 10.1502ZM14.4694 9.50917C14.3605 10.11 14.2618 10.6555 14.1631 11.2035C14.1808 11.2186 14.196 11.2362 14.2137 11.2513C14.6087 10.834 15.0036 10.4167 15.4517 9.94406C15.0694 9.77815 14.7758 9.64743 14.4694 9.50917ZM31.9514 9.52173C31.6248 9.66251 31.3387 9.78318 30.9615 9.94406C31.4147 10.4066 31.8147 10.8164 32.2122 11.2236C32.235 11.2035 32.2552 11.1834 32.2755 11.1633C32.1742 10.6404 32.0704 10.1175 31.9514 9.52173ZM38.8986 16.0652C38.9214 16.0678 38.9467 16.0703 38.9695 16.0753C39.0784 15.6178 39.1873 15.1577 39.2961 14.7002C39.2657 14.6801 39.2328 14.66 39.2024 14.6399C39.0733 14.7304 38.8353 14.8159 38.8328 14.9114C38.8151 15.2935 38.8708 15.6806 38.8986 16.0652ZM7.11963 14.6349C7.23862 15.1452 7.33989 15.5826 7.44116 16.02C7.47408 16.015 7.50699 16.0074 7.5399 16.0024C7.5399 15.7485 7.48927 15.482 7.55256 15.2457C7.64118 14.9064 7.49433 14.7731 7.11963 14.6349Z" fill="#FFEB61"/>
<path d="M16.7984 19.5494C16.5351 19.5695 16.325 19.4815 16.292 19.2201C16.2769 19.0919 16.3376 18.8757 16.4313 18.8279C16.9452 18.5539 17.4744 18.2925 18.0845 18.3126C18.8871 18.3352 19.515 18.7601 19.7327 19.5519C19.8821 20.0924 20.1505 20.4117 20.6391 20.7058C21.6594 21.3141 22.1481 22.3373 22.3835 23.4534C22.5228 24.1095 22.5304 24.7958 22.5759 25.4695C22.5962 25.7686 22.3785 25.8943 22.1228 25.9974C21.6822 26.1709 21.2214 26.3217 20.8265 26.5756C20.1176 27.0331 19.7277 27.7244 19.7758 28.5665C19.8112 29.2151 19.9606 29.8612 20.0999 30.5022C20.1758 30.8642 20.4518 31.1005 20.7986 31.2287C21.3227 31.4222 21.8493 31.4298 22.3633 31.1935C22.7987 30.9949 22.9025 30.746 22.6645 30.3388C22.4418 29.9592 22.1784 29.5947 21.8898 29.2604C21.6797 29.019 21.3911 28.9411 21.0695 29.1196C20.8417 29.2478 20.6518 29.1623 20.5328 28.9411C20.4062 28.7073 20.5277 28.5364 20.7252 28.4383C21.1987 28.2045 21.6746 28.2649 22.1253 28.5037C22.5152 28.7098 22.781 29.0442 22.9912 29.4237C23.0494 29.5318 23.1101 29.6399 23.181 29.7681C23.3279 29.5243 23.4418 29.3006 23.5887 29.097C24.057 28.4383 24.8267 28.1241 25.49 28.3202C25.6141 28.3554 25.7736 28.4258 25.8242 28.5263C25.8901 28.652 25.923 28.8682 25.8546 28.9687C25.7888 29.0693 25.5407 29.1548 25.4394 29.107C24.9406 28.8732 24.5988 29.0919 24.3254 29.4564C24.0849 29.7807 23.8975 30.1427 23.6925 30.4946C23.5912 30.6706 23.6469 30.824 23.7836 30.9672C24.5128 31.7239 26.1052 31.3896 26.3913 30.3941C26.5357 29.8963 26.6319 29.371 26.6521 28.8556C26.7103 27.473 25.8116 26.3418 24.4343 25.9924C23.9178 25.8617 23.819 25.741 23.8747 25.2231C23.9532 24.4966 24.0089 23.7601 24.1583 23.0436C24.3052 22.3549 24.6571 21.7314 25.1584 21.2312C25.4672 20.9245 25.8521 20.6806 26.2369 20.4619C26.4192 20.3589 26.5179 20.2659 26.5508 20.0673C26.5863 19.8586 26.6395 19.65 26.7154 19.4514C27.0623 18.5389 27.8978 18.114 28.8877 18.3604C29.2067 18.4383 29.513 18.574 29.8143 18.7073C30.027 18.8028 30.2599 18.931 30.1713 19.2251C30.0903 19.4966 29.8624 19.5469 29.632 19.5042C29.5105 19.8234 29.427 20.1427 29.2725 20.4267C28.8016 21.3066 27.8421 21.5806 26.9483 21.1281C26.8597 21.0829 26.7205 21.0803 26.6293 21.1155C26.1432 21.299 25.7635 21.6158 25.4622 22.0457C24.7989 22.9959 24.6064 24.0643 24.652 25.193C24.6545 25.2684 24.7482 25.384 24.8216 25.4016C26.3255 25.7862 27.356 27.0406 27.4167 28.5967C27.4294 28.931 27.4192 29.2679 27.4192 29.6223C27.4522 29.6022 27.4977 29.5871 27.5256 29.557C29.3864 27.3976 31.0068 25.0849 32.1107 22.4479C32.5841 21.3192 32.5841 20.1251 32.5208 18.931C32.5157 18.8254 32.5031 18.7173 32.5081 18.6118C32.5233 18.29 32.7335 18.1115 33.0601 18.109C33.2018 18.109 33.3614 18.1014 33.4829 18.0386C34.1589 17.6741 34.769 17.2392 35.1058 16.5127C35.2399 16.2211 35.5007 16.1055 35.7134 16.2236C35.9438 16.3543 35.9995 16.6459 35.8248 16.9074C35.2298 17.7998 34.5007 18.5313 33.4297 18.843C33.1917 18.9109 33.2803 19.0894 33.293 19.2251C33.412 20.5449 33.217 21.8194 32.6828 23.026C32.336 23.8129 31.9537 24.5897 31.5182 25.3312C30.0447 27.8375 28.2801 30.1176 26.0622 32.0281C25.6597 32.375 25.2166 32.6867 24.7583 32.9532C23.6747 33.5867 22.581 33.5288 21.5176 32.8878C20.5252 32.2895 19.6922 31.4977 18.9023 30.6656C16.9402 28.5967 15.2667 26.3217 14.0337 23.7425C13.3298 22.2694 12.983 20.7334 13.1298 19.0969C13.1374 19.0165 13.0564 18.8732 12.983 18.8481C12.0184 18.5037 11.2867 17.8752 10.7246 17.0406C10.6462 16.9225 10.5246 16.8068 10.5094 16.6786C10.4867 16.4775 10.5221 16.2563 10.7753 16.1884C11.031 16.1206 11.2234 16.2462 11.3196 16.47C11.631 17.1864 12.2083 17.6289 12.8716 17.9808C13.0007 18.0487 13.1653 18.0788 13.3147 18.0838C13.7349 18.0964 13.9375 18.2925 13.9274 18.7198C13.9147 19.2503 13.8767 19.7832 13.8919 20.3136C13.9223 21.5203 14.335 22.6238 14.8641 23.6922C15.892 25.7737 17.2237 27.6515 18.7555 29.3986C18.8314 29.4841 18.8618 29.6073 18.915 29.7128C18.9656 29.6751 19.0188 29.6374 19.0694 29.5997C19.0568 29.5017 19.0492 29.4036 19.034 29.3081C18.7504 27.4705 19.7555 25.917 21.5582 25.3966C21.6493 25.3715 21.7784 25.2684 21.781 25.198C21.8265 23.8707 21.5683 22.6263 20.6062 21.6359C20.3784 21.3996 20.0442 21.2639 19.7505 21.0979C19.6897 21.0653 19.5732 21.0728 19.5074 21.108C18.5732 21.6233 17.4136 21.3041 16.9275 19.9391C16.8794 19.8159 16.8414 19.6877 16.7984 19.5494ZM21.7607 32.1261C22.4544 32.8275 24.1178 32.83 24.6672 32.1487C24.2292 31.9677 23.7811 31.7792 23.3279 31.6007C23.2671 31.5781 23.1785 31.5982 23.1101 31.6208C22.657 31.7868 22.2088 31.9577 21.7607 32.1261ZM18.5884 20.5826C19.0973 20.5901 19.2213 20.4368 19.0846 19.9944C19.0441 19.8662 18.9985 19.738 18.9428 19.6148C18.7479 19.1925 18.2643 18.9662 17.8035 19.0668C17.6187 19.107 17.52 19.1925 17.5934 19.391C17.6845 19.6449 17.7554 19.9064 17.8769 20.1452C18.0213 20.4368 18.2947 20.56 18.5884 20.5826ZM28.4168 19.0642C27.8572 19.0668 27.5509 19.3433 27.3332 20.0472C27.2015 20.467 27.3028 20.5977 27.7458 20.5876C28.2902 20.5751 28.6345 20.2458 28.8016 19.5746C28.913 19.117 28.87 19.0617 28.4168 19.0642Z" fill="#FFEB61"/>
</svg>
