<svg width="49" height="42" viewBox="0 0 49 42" fill="none" xmlns="http://www.w3.org/2000/svg">
<path d="M40.8147 6.12269C40.8147 6.02285 40.8147 5.92299 40.8147 5.82315C40.8123 5.29229 40.7003 5.12914 40.1889 4.98546C40.111 4.96354 40.0038 5.01226 39.921 5.05365C39.507 5.27038 39.1028 5.49929 38.6888 5.71358C38.4331 5.84752 38.2042 5.80611 38.0703 5.53581C37.9388 5.27768 38.0143 5.06339 38.2724 4.91728C38.6474 4.70299 39.0176 4.47652 39.3975 4.27196C39.546 4.1916 39.6069 4.10881 39.5728 3.93347C39.5436 3.79467 39.5241 3.63395 39.5655 3.50732C39.6848 3.14449 39.5095 2.98378 39.2099 2.84984C38.9153 2.71835 38.6304 2.56736 38.3576 2.3969C38.0606 2.21182 37.9851 1.93423 38.1458 1.69071C38.326 1.41067 38.5695 1.44963 38.8155 1.586C39.1759 1.78325 39.5363 1.97806 39.8869 2.19479C40.0452 2.29219 40.1767 2.35793 40.3155 2.18504C40.3277 2.16799 40.3496 2.15095 40.3691 2.14608C40.8732 2.05111 40.8464 1.6761 40.8293 1.29378C40.8171 1.01617 40.8244 0.738571 40.8439 0.460964C40.861 0.210143 40.9998 0.0421184 41.2603 0.0202021C41.5112 0.000720888 41.7571 0.229613 41.7644 0.495044C41.779 0.906585 41.779 1.31569 41.7693 1.72723C41.7644 1.89525 41.8496 1.9464 41.9787 2.04137C42.3659 2.32629 42.6727 2.21184 43.0136 1.96832C43.2645 1.78812 43.5543 1.66392 43.8319 1.52269C44.0437 1.4131 44.2434 1.42041 44.3798 1.64688C44.5186 1.88065 44.5575 2.1266 44.3043 2.29706C43.9634 2.52353 43.6054 2.72809 43.2401 2.91316C43.021 3.02518 42.9016 3.13719 43.0015 3.39775C43.0429 3.50734 43.0575 3.651 43.021 3.75815C42.9089 4.07229 43.0843 4.18918 43.3205 4.31094C43.6444 4.47896 43.9609 4.66646 44.2653 4.86858C44.5356 5.04634 44.5965 5.31178 44.4528 5.55773C44.2848 5.84264 44.0437 5.83776 43.7929 5.69896C43.4325 5.50171 43.0745 5.2996 42.7287 5.08044C42.5607 4.97329 42.4463 5.00495 42.2588 5.05853C41.7401 5.21194 41.7108 5.56504 41.7401 5.99849C41.7595 6.27366 41.7376 6.5537 41.7206 6.83131C41.706 7.11379 41.5623 7.30372 41.2652 7.29885C40.9754 7.29155 40.8269 7.10649 40.8147 6.82157C40.805 6.59023 40.8123 6.35403 40.8123 6.12269C40.8171 6.12269 40.8171 6.12269 40.8147 6.12269ZM42.0006 3.66561C42.0079 3.25164 41.6914 2.91803 41.2823 2.91072C40.9024 2.90585 40.5785 3.23459 40.5712 3.63396C40.5639 4.00653 40.8732 4.30606 41.2823 4.31823C41.6987 4.33528 41.9909 4.06741 42.0006 3.66561Z" fill="#FFEB61"/>
<path d="M3.14388 23.2674C3.14388 23.1773 3.13171 23.0873 3.14632 23.002C3.21207 22.5783 3.08544 22.2958 2.64468 22.1473C2.45717 22.084 2.33785 22.0645 2.16495 22.1765C1.81429 22.4103 1.44658 22.6197 1.07887 22.8218C0.837794 22.9557 0.601585 22.9533 0.450606 22.6757C0.309367 22.4127 0.355635 22.1716 0.60889 22.0085C0.944941 21.7942 1.30534 21.6164 1.63409 21.39C1.74611 21.312 1.79481 21.1391 1.85812 21.0028C1.88004 20.9565 1.84595 20.8883 1.86299 20.8372C2.03589 20.3161 1.77289 20.0506 1.32482 19.868C1.10079 19.7755 0.896238 19.6366 0.686815 19.51C0.4433 19.3615 0.355635 19.0619 0.477392 18.8257C0.59915 18.5944 0.862146 18.5238 1.13975 18.6772C1.50016 18.8744 1.85812 19.079 2.20391 19.2982C2.36707 19.4004 2.4937 19.4297 2.65198 19.3006C2.72504 19.2397 2.82731 19.1959 2.92228 19.1764C3.10005 19.1374 3.14388 19.0352 3.14145 18.8647C3.13171 18.4751 3.13414 18.0879 3.13901 17.6983C3.14388 17.3598 3.31678 17.1479 3.57977 17.1333C3.85251 17.1211 4.04732 17.3354 4.0595 17.6934C4.07411 18.0708 4.06924 18.4483 4.07898 18.8282C4.08628 19.1594 4.65367 19.4735 4.95076 19.3103C5.34039 19.096 5.72027 18.8647 6.11963 18.6748C6.48004 18.5043 6.76982 18.6577 6.82583 19.0084C6.86236 19.2324 6.76982 19.3931 6.57014 19.5027C6.19999 19.7048 5.83229 19.9143 5.45971 20.1115C5.29412 20.2016 5.19184 20.2941 5.28194 20.5036C5.31847 20.5888 5.33308 20.7105 5.30386 20.7982C5.15775 21.217 5.38178 21.3899 5.72271 21.5458C6.0344 21.687 6.32906 21.8745 6.61641 22.062C6.88671 22.2422 6.94759 22.5077 6.79661 22.7512C6.62858 23.0215 6.39237 22.9898 6.15616 22.8608C5.76654 22.6465 5.38422 22.42 4.99947 22.1984C4.67803 22.0133 4.08872 22.3397 4.07898 22.7098C4.06924 23.1213 4.07411 23.5329 4.0668 23.942C4.06193 24.2439 3.87686 24.4485 3.60656 24.4412C3.30704 24.4339 3.17067 24.2488 3.15606 23.9688C3.14632 23.7374 3.15362 23.5012 3.15362 23.2674C3.14875 23.2674 3.14632 23.2674 3.14388 23.2674ZM3.61143 21.4508C4.04245 21.4435 4.32249 21.1562 4.31275 20.7349C4.30301 20.3453 3.96209 20.0311 3.56516 20.0457C3.1731 20.0579 2.89793 20.3794 2.90524 20.8104C2.91254 21.1757 3.22424 21.4581 3.61143 21.4508Z" fill="#FFEB61"/>
<path d="M12.4517 38.8867C11.9062 38.4265 11.5507 37.898 11.4168 37.243C11.3778 37.053 11.3559 36.8265 11.4241 36.6561C11.4801 36.5124 11.67 36.3468 11.8137 36.3346C11.9549 36.3225 12.1205 36.4808 12.2496 36.5928C12.3129 36.6488 12.3153 36.7754 12.3397 36.8728C12.5661 37.7568 13.0532 38.4191 13.9834 38.6066C14.9161 38.7942 15.576 38.2949 16.1361 37.6204C16.2262 37.5108 16.3138 37.3501 16.4283 37.3258C16.5817 37.2892 16.813 37.3087 16.9153 37.4061C17.0152 37.5011 17.0566 37.7422 17.0127 37.8858C16.8009 38.5677 16.3017 38.9938 15.671 39.2812C15.5711 39.3275 15.4664 39.364 15.3641 39.4054C15.3544 39.4102 15.3471 39.42 15.3154 39.4541C15.4518 39.6051 15.5979 39.756 15.727 39.9168C16.1239 40.4038 16.4039 40.9371 16.3284 41.5921C16.3041 41.8162 16.1775 42.011 15.9534 41.9769C15.7757 41.9501 15.6052 41.7967 15.4615 41.6676C15.3982 41.6141 15.4201 41.4728 15.3787 41.3851C15.2351 41.0759 15.123 40.7374 14.9209 40.4695C14.1709 39.476 12.8194 39.4297 11.9257 40.3429C11.8015 40.4695 11.6822 40.6083 11.5994 40.7617C11.446 41.0394 11.2317 41.1075 10.9565 40.9931C10.7325 40.9006 10.6399 40.6156 10.7568 40.3283C10.9955 39.7414 11.4581 39.3688 12.0061 39.0912C12.14 39.0231 12.2715 38.9671 12.4517 38.8867Z" fill="#FFEB61"/>
<path d="M45.5771 29.8762C45.8961 29.5499 46.181 29.209 46.517 28.9314C46.7411 28.7463 47.0284 28.6148 47.306 28.5174C47.6128 28.4103 47.8783 28.5491 47.9635 28.8072C48.0633 29.1164 47.9026 29.2869 47.6396 29.4087C46.9286 29.7398 46.3928 30.2366 46.254 31.0426C46.0933 31.9729 46.6096 32.83 47.5617 33.2927C47.6981 33.3585 47.8783 33.4291 47.9318 33.5484C47.9976 33.6896 48.0146 33.9332 47.9343 34.0428C47.8442 34.1621 47.608 34.2497 47.4521 34.2254C46.763 34.1255 46.2613 33.714 45.8741 33.1564C45.7938 33.0395 45.7256 32.9177 45.6988 32.8739C45.2727 33.2635 44.8782 33.6604 44.4423 34.0062C44.2621 34.1499 43.9991 34.2059 43.7653 34.2595C43.5242 34.3155 43.3245 34.2278 43.2491 33.9648C43.176 33.714 43.2564 33.5387 43.4853 33.4072C43.775 33.2416 44.0819 33.093 44.3278 32.8787C45.3993 31.951 45.3092 30.5069 44.1403 29.7009C43.9674 29.5816 43.7726 29.4939 43.5851 29.3965C43.3392 29.2674 43.2052 29.0677 43.2905 28.7974C43.383 28.5052 43.6362 28.4663 43.8919 28.5271C44.5519 28.683 45.0486 29.0751 45.4212 29.6327C45.4772 29.7155 45.5332 29.808 45.5771 29.8762Z" fill="#FFEB61"/>
<path d="M31.1997 3.52825C32.3296 3.71332 33.0748 4.28315 33.4181 5.32539C33.4693 5.47881 33.4961 5.65414 33.479 5.81486C33.4571 6.03889 33.328 6.21422 33.0797 6.23614C32.841 6.25805 32.6705 6.14846 32.5878 5.92199C32.5464 5.80754 32.5147 5.69066 32.4733 5.57377C32.2517 4.92845 31.7866 4.56319 31.1218 4.50231C30.4594 4.44143 29.9286 4.71173 29.5803 5.2913C29.4269 5.54699 29.2833 5.80024 28.9131 5.71014C28.6842 5.65413 28.5503 5.51776 28.5844 5.28398C28.6112 5.10135 28.6599 4.90654 28.7597 4.75312C29.3466 3.84725 30.1964 3.46737 31.1997 3.52825Z" fill="#FFEB61"/>
<path d="M8.49693 15.256C8.44823 15.5701 8.44092 15.9159 8.00503 15.9281C7.71525 15.9354 7.58132 15.7601 7.50826 15.2901C7.2063 15.2073 6.84347 15.1342 6.87999 14.7081C6.90921 14.3794 7.18195 14.2722 7.50826 14.2527C7.53261 14.1578 7.55453 14.0652 7.57888 13.9703C7.64219 13.7413 7.78587 13.605 8.03182 13.605C8.27777 13.605 8.39953 13.7706 8.43118 13.9776C8.4604 14.1724 8.52372 14.26 8.73314 14.2868C8.97666 14.3185 9.18121 14.4548 9.17147 14.7422C9.16173 15.0149 8.98396 15.1537 8.72827 15.2049C8.65522 15.2244 8.57973 15.239 8.49693 15.256Z" fill="#FFEB61"/>
<path d="M22.3992 6.77879C22.1654 6.75688 22.0193 6.62538 21.9341 6.38674C21.8951 6.27472 21.7831 6.16027 21.6735 6.10913C21.4544 6.00198 21.2328 5.89726 21.2547 5.61722C21.2742 5.35423 21.4738 5.23491 21.7149 5.15455C21.8123 5.1229 21.9268 5.01088 21.9487 4.91591C22.0096 4.65779 22.1265 4.48488 22.4089 4.48245C22.6792 4.48001 22.7888 4.63829 22.8497 4.88912C22.8741 4.99383 23.0104 5.11558 23.1176 5.14724C23.3806 5.2203 23.5875 5.33963 23.5851 5.62697C23.5827 5.9265 23.3611 6.01903 23.0981 6.07991C23.0055 6.10182 22.9081 6.22846 22.8741 6.3283C22.7937 6.56451 22.7036 6.76418 22.3992 6.77879Z" fill="#FFEB61"/>
<path d="M47.4396 16.4515C47.4201 16.5806 47.4104 16.6804 47.3909 16.7778C47.3446 17.0092 47.2083 17.1675 46.9623 17.165C46.7164 17.1626 46.5191 17.0311 46.4923 16.7803C46.468 16.5538 46.3608 16.4856 46.1709 16.3955C46.0272 16.3273 45.8908 16.1203 45.8592 15.9548C45.8129 15.7161 45.998 15.5871 46.2269 15.5189C46.3194 15.4896 46.4388 15.4044 46.4655 15.3216C46.5386 15.0684 46.6263 14.8468 46.9355 14.8516C47.2667 14.8541 47.3982 15.0659 47.4347 15.3655C47.4396 15.3971 47.4566 15.4263 47.4688 15.4556C47.9534 15.5627 48.1044 15.6942 48.0849 16.001C48.0581 16.3906 47.7659 16.4345 47.4396 16.4515Z" fill="#FFEB61"/>
<path d="M27.0038 0.569408C27.0063 0.859191 26.7774 1.09783 26.4876 1.10757C26.171 1.11731 25.9032 0.861629 25.908 0.557235C25.9129 0.250406 26.154 0.0190614 26.4632 0.0190614C26.7652 0.0166263 27.0014 0.255273 27.0038 0.569408Z" fill="#FFEB61"/>
<path d="M11.183 30.6848C10.8835 30.6872 10.64 30.4437 10.6351 30.1369C10.6302 29.8398 10.8543 29.6158 11.1538 29.6109C11.4557 29.606 11.7236 29.8495 11.7309 30.1369C11.7382 30.4291 11.4874 30.6799 11.183 30.6848Z" fill="#FFEB61"/>
<path d="M33.9026 37.7178C33.9002 38.0295 33.6591 38.2633 33.3474 38.2535C33.0576 38.2438 32.8263 38.0076 32.819 37.7178C32.8117 37.4329 33.082 37.148 33.3596 37.1504C33.6396 37.148 33.9026 37.4256 33.9026 37.7178Z" fill="#FFEB61"/>
<path d="M9.85811 24.4414C9.56346 24.4511 9.31994 24.2271 9.30289 23.9349C9.28585 23.6256 9.51475 23.3748 9.82645 23.365C10.1235 23.3553 10.3817 23.6037 10.3841 23.9081C10.389 24.193 10.1528 24.4316 9.85811 24.4414Z" fill="#FFEB61"/>
<path d="M46.1076 23.9152C45.791 23.9104 45.567 23.6766 45.5767 23.3649C45.5865 23.0702 45.8227 22.8438 46.1125 22.8462C46.412 22.8486 46.6433 23.0922 46.6409 23.4112C46.6384 23.7107 46.4193 23.9201 46.1076 23.9152Z" fill="#FFEB61"/>
<path d="M16.7302 7.28796C16.7229 7.59235 16.4672 7.85778 16.1871 7.84804C15.9022 7.8383 15.6685 7.59479 15.6685 7.305C15.6685 6.99331 15.912 6.74004 16.2066 6.74978C16.494 6.75952 16.7375 7.00791 16.7302 7.28796Z" fill="#FFEB61"/>
<path d="M20.6046 37.0674C20.8871 37.065 21.116 37.3158 21.1086 37.6153C21.1013 37.91 20.8895 38.1169 20.5973 38.1121C20.3124 38.1072 20.064 37.8661 20.0591 37.5837C20.0567 37.306 20.3075 37.0698 20.6046 37.0674Z" fill="#FFEB61"/>
<path d="M42.2456 39.8265C41.179 40.2429 40.2488 40.1309 39.4209 39.4076C39.2991 39.3005 39.1871 39.1641 39.1189 39.0156C39.0239 38.811 39.0458 38.5943 39.248 38.4506C39.4428 38.3094 39.6449 38.3191 39.8324 38.4701C39.9274 38.5456 40.015 38.6333 40.1076 38.7136C40.6263 39.1568 41.2131 39.2347 41.817 38.9498C42.4185 38.6649 42.7375 38.1633 42.7424 37.4887C42.7448 37.1892 42.7375 36.9019 43.1028 36.7898C43.3293 36.7217 43.5119 36.7704 43.602 36.9895C43.6726 37.16 43.7286 37.3548 43.7213 37.535C43.6799 38.6089 43.1418 39.3687 42.2456 39.8265Z" fill="#FFEB61"/>
<path d="M28.6234 40.7131C28.5747 41.0272 28.5674 41.373 28.1315 41.3851C27.8417 41.3924 27.7078 41.2171 27.6347 40.7471C27.3328 40.6643 26.9699 40.5913 27.0065 40.1651C27.0357 39.8364 27.3084 39.7292 27.6347 39.7098C27.6591 39.6148 27.681 39.5223 27.7053 39.4273C27.7687 39.1984 27.9123 39.062 28.1583 39.062C28.4042 39.062 28.526 39.2276 28.5576 39.4346C28.5869 39.6294 28.6502 39.7171 28.8596 39.7439C29.1031 39.7755 29.3077 39.9119 29.2979 40.1992C29.2882 40.472 29.1104 40.6108 28.8547 40.6619C28.7817 40.679 28.7062 40.696 28.6234 40.7131Z" fill="#FFEB61"/>
<path d="M40.3754 36.0398C37.5482 35.7402 34.7234 35.4407 31.8962 35.1509C31.7794 35.1388 31.6113 35.2118 31.531 35.3019C29.2955 37.8247 25.5916 37.8126 23.3732 35.2703C23.2953 35.1802 23.1273 35.1095 23.0104 35.1217C20.6507 35.3628 18.2935 35.6234 15.9338 35.8644C15.2812 35.9326 14.6237 35.9765 13.9662 35.9886C13.4524 35.9984 13.1407 35.6331 13.2625 35.1875C13.3136 35.0024 13.467 34.8246 13.6156 34.6931C14.4873 33.9212 15.0206 32.9666 15.2252 31.8245C15.3859 30.9211 15.2082 30.0615 14.894 29.214C14.3291 27.6896 13.5474 26.2724 12.734 24.8697C12.4662 24.4071 12.1959 23.9493 11.967 23.4695C11.8866 23.3015 11.8598 23.0434 11.9304 22.8802C13.1261 20.1796 14.6578 17.7055 16.8787 15.7111C18.4859 14.2671 20.322 13.2443 22.4235 12.7232C22.6621 12.6648 22.9446 12.6721 23.1857 12.7329C24.5835 13.0836 25.7645 13.8507 26.8823 14.7225C27.4399 15.1584 27.435 15.1608 27.9951 14.7152C29.125 13.8142 30.3377 13.069 31.7599 12.7183C31.9717 12.6648 32.2201 12.655 32.4295 12.711C35.2616 13.444 37.5994 14.9635 39.4842 17.1893C40.9209 18.8841 42.024 20.786 42.9445 22.8023C43.0565 23.0482 43.0346 23.2479 42.908 23.4768C42.1799 24.804 41.4201 26.119 40.7529 27.4753C40.3511 28.296 40.0248 29.1678 39.791 30.0493C39.3283 31.8075 39.9274 33.2978 41.162 34.5616C41.6027 35.0121 41.744 35.2654 41.5735 35.599C41.3495 36.0398 40.9428 36.0178 40.5361 35.9813C40.4826 35.9764 40.4314 35.9716 40.3803 35.9643C40.3803 35.9911 40.3779 36.0154 40.3754 36.0398ZM21.5103 26.1531C21.8245 26.3065 22.0436 26.4282 22.275 26.5208C22.4576 26.5938 22.4698 26.6888 22.4186 26.8593C22.2311 27.468 22.0461 28.0793 21.8829 28.6929C21.5517 29.9373 21.6004 31.1354 22.3651 32.2361C23.0639 33.2418 24.3278 33.6801 25.4942 33.3197C26.8774 32.8887 27.4813 31.2766 26.7142 30.0956C26.5925 29.9105 26.4853 29.6889 26.461 29.4722C26.3465 28.4616 25.353 28.0086 24.6541 28.0086C24.038 28.0086 23.8237 27.7822 23.7945 27.1636C23.7287 25.744 23.6386 24.3267 23.5656 22.907C23.5558 22.7365 23.4925 22.6659 23.3196 22.6684C23.0786 22.6708 22.8375 22.6635 22.5988 22.644C21.3569 22.549 20.322 21.7186 20.0833 20.5522C19.9908 20.0993 20.0395 19.6171 20.0492 19.1496C20.0517 19.0862 20.21 18.9767 20.3001 18.9742C20.8845 18.9523 21.4714 18.945 22.0558 18.9548C23.2515 18.9767 24.3741 19.9288 24.4958 21.1172C24.6297 22.4151 24.6614 23.7252 24.7418 25.028C24.7759 25.5857 24.8148 26.1458 24.8538 26.7083C26.6217 26.7083 28.3434 26.7083 30.0747 26.7083C30.0918 26.511 30.1137 26.3357 30.1234 26.1579C30.2135 24.6019 30.3036 23.0482 30.3864 21.4922C30.4692 19.9897 31.5529 18.9596 33.0651 18.9523C33.3695 18.9499 33.6715 18.9523 33.9759 18.9548C34.9012 18.9596 34.9085 18.9596 34.8915 19.9069C34.8696 21.0904 34.3095 21.9281 33.2307 22.4175C32.7412 22.6391 32.2201 22.6805 31.6966 22.6562C31.4433 22.644 31.3483 22.7195 31.3362 22.9776C31.2704 24.4387 31.1949 25.8998 31.117 27.3633C31.1121 27.4534 31.0853 27.5435 31.0512 27.6288C30.9051 28.0013 30.5837 28.0233 30.2452 28.033C29.1616 28.0695 28.5893 28.5663 28.3847 29.6134C28.3531 29.7717 28.28 29.93 28.1924 30.0663C27.5373 31.0842 27.8977 32.5965 28.957 33.1468C29.8288 33.5998 30.7152 33.5803 31.5626 33.0835C32.8021 32.3603 33.4279 30.8846 33.1114 29.3358C32.9482 28.5419 32.6682 27.77 32.4588 26.9834C32.4271 26.8568 32.4417 26.6376 32.5245 26.5792C32.7607 26.4014 33.0432 26.2846 33.3646 26.1117C33.6057 27.0321 33.8346 27.9015 34.0635 28.7782C34.1049 28.7562 34.1366 28.7489 34.1585 28.7294C34.2048 28.688 34.2486 28.6442 34.2924 28.598C35.5977 27.1685 36.4987 25.5077 37.0807 23.6716C37.1659 23.3989 37.1635 23.0653 37.1026 22.7828C36.8372 21.592 36.3818 20.4719 35.7681 19.415C34.553 17.3256 32.8508 15.6892 30.9587 14.2281C30.815 14.1186 30.703 14.1259 30.5691 14.2233C29.6681 14.8832 28.7598 15.5334 27.8661 16.2006C27.5738 16.4198 27.3182 16.4052 27.0332 16.1909C26.1566 15.5334 25.2629 14.9002 24.3765 14.2549C24.1744 14.1088 24.0088 14.1258 23.8237 14.2963C22.8984 15.1584 21.9292 15.9741 21.0452 16.8751C19.3674 18.5846 18.2375 20.6082 17.7699 22.9752C17.7237 23.2065 17.7505 23.4768 17.8186 23.7057C18.3568 25.5053 19.2749 27.0979 20.5022 28.5152C20.5923 28.6174 20.697 28.7075 20.7968 28.8049C21.0355 27.9088 21.2644 27.0541 21.5103 26.1531ZM40.0223 34.9147C39.9615 34.8003 39.9444 34.754 39.9152 34.7175C38.5101 32.8668 38.2982 30.8675 39.1116 28.71C39.8153 26.8422 40.7675 25.1035 41.8024 23.4087C41.9266 23.2065 41.9388 23.0409 41.8365 22.8291C40.9014 20.9151 39.8324 19.0863 38.3932 17.501C36.7714 15.7136 34.8184 14.4351 32.4782 13.7776C32.3614 13.746 32.2372 13.7435 32.1178 13.7289C32.1032 13.7606 32.091 13.7922 32.0764 13.8239C32.1349 13.8653 32.2031 13.8969 32.2542 13.9456C33.2039 14.871 34.2023 15.7525 35.0863 16.7339C36.6131 18.4239 37.6067 20.4134 38.1205 22.6367C38.1789 22.8851 38.2276 23.1651 38.1716 23.4062C37.5628 25.9802 36.2405 28.145 34.3509 29.9762C34.2023 30.1199 34.1366 30.2514 34.1317 30.456C34.0976 31.8927 33.4766 33.0226 32.3126 33.8579C32.2323 33.9163 32.1495 33.9723 32.0667 34.0283C32.0716 34.06 32.0764 34.0917 32.0813 34.1233C34.6967 34.5105 37.3218 34.7711 40.0223 34.9147ZM22.8886 34.0795C22.7669 33.9748 22.7084 33.9188 22.6451 33.8725C21.4007 33.0104 20.7384 31.8294 20.6775 30.3099C20.6726 30.1954 20.5874 30.0615 20.4997 29.9787C18.7148 28.2692 17.4899 26.2237 16.7959 23.8543C16.6741 23.4354 16.6619 23.019 16.7545 22.588C17.071 21.1439 17.6336 19.8022 18.4128 18.5505C19.4989 16.8094 20.9186 15.3727 22.4893 14.0747C22.6037 13.9797 22.7303 13.8969 22.8497 13.8093C22.8204 13.7703 22.7912 13.7289 22.7596 13.69C22.6427 13.7143 22.5233 13.7314 22.4113 13.763C20.6093 14.2768 19.0265 15.19 17.636 16.4319C15.6002 18.2437 14.1781 20.4962 13.0433 22.9435C12.9897 23.0604 13.0092 23.2504 13.0652 23.3746C13.1943 23.6595 13.3647 23.9225 13.523 24.1952C14.407 25.7123 15.2496 27.2489 15.8656 28.9023C16.6352 30.9649 16.4184 32.8789 15.0547 34.6347C15.006 34.6956 14.9744 34.7686 14.8965 34.9025C17.5946 34.737 20.2124 34.4983 22.8886 34.0795ZM30.8004 34.435C30.16 34.5105 29.5536 34.452 28.9594 34.2499C28.3531 34.0429 27.849 33.685 27.4058 33.1979C26.5389 34.2694 25.392 34.53 24.0307 34.3985C24.9561 35.6355 26.1347 36.164 27.569 36.1469C28.9327 36.1274 30.009 35.543 30.8004 34.435ZM23.5144 21.6261C23.5193 21.5458 23.5266 21.4946 23.5242 21.4435C23.4877 20.6618 22.7084 19.8265 21.7076 19.9459C21.4884 19.9726 21.2717 20.014 21.0525 20.0506C21.128 20.3136 21.1864 20.5839 21.2863 20.8396C21.3326 20.9564 21.4543 21.049 21.5517 21.1415C22.1094 21.6505 22.779 21.6967 23.5144 21.6261ZM31.4043 21.6505C31.7964 21.6261 32.1738 21.6359 32.5367 21.5725C33.2404 21.4483 33.7932 20.8517 33.8663 20.2113C33.8882 20.0384 33.8395 19.9483 33.6568 19.958C33.3135 19.9751 32.9653 19.9605 32.6292 20.0141C31.8889 20.1285 31.3483 20.8396 31.4043 21.6505ZM28.4846 27.7457C28.4675 27.714 28.4529 27.6823 28.4359 27.6507C27.7419 27.6507 27.0454 27.6507 26.2613 27.6507C26.8993 27.9892 27.1794 28.52 27.4497 29.1288C27.7078 28.559 27.9196 28.0208 28.4846 27.7457Z" fill="#FFEB61"/>
<path d="M41.1325 16.0912C41.6974 15.2974 42.1187 14.5084 42.0335 13.5636C41.8825 11.8687 40.7575 10.7291 39.0699 10.5683C38.0058 10.4685 37.1023 10.8971 36.3401 11.6057C36.1331 11.7981 36.0016 11.7859 35.7752 11.6861C34.7524 11.2356 33.7223 10.8046 32.6947 10.3638C32.271 10.1812 31.8448 10.1787 31.4089 10.3053C29.7141 10.7948 28.4429 11.803 27.6491 13.3907C27.6028 13.4832 27.559 13.5782 27.5103 13.6707C27.5005 13.6878 27.4835 13.7024 27.4518 13.7365C27.2814 13.4467 27.1255 13.1545 26.9477 12.8769C26.0808 11.5181 24.8584 10.639 23.2974 10.2591C22.9906 10.186 22.6132 10.1958 22.3234 10.3078C21.2349 10.7339 20.1658 11.2088 19.1017 11.6885C18.8728 11.7908 18.7437 11.8151 18.544 11.613C17.0805 10.13 14.7963 10.2274 13.5155 11.8054C12.5657 12.9767 12.6583 14.9224 13.7176 15.989C13.7297 16.0012 13.7541 16.006 13.8077 16.0255C13.9392 15.6895 14.0609 15.3485 14.2095 15.0198C14.4238 14.5449 14.6186 14.053 14.8962 13.6171C15.3491 12.9061 16.0358 12.626 16.7445 12.8014C17.2485 12.9256 17.5943 13.2421 17.7624 13.7316C17.7916 13.8168 17.738 13.9605 17.6771 14.0433C17.5505 14.2162 17.3922 14.3647 17.2144 14.5595C17.1243 14.4183 17.0732 14.3331 17.0196 14.2478C16.6397 13.6244 16.0139 13.6147 15.6779 14.2698C15.3321 14.9467 15.0569 15.6627 14.7598 16.364C14.5528 16.851 14.3604 17.3454 14.1486 17.8689C13.3937 17.3283 12.8214 16.6733 12.4123 15.8891C11.6574 14.4402 11.599 12.967 12.461 11.557C13.3304 10.1349 14.6697 9.49687 16.3207 9.54071C17.2144 9.56262 18.0059 9.92059 18.7218 10.4368C18.9239 10.5829 19.0652 10.5659 19.2819 10.4685C20.1707 10.0789 21.0717 9.71847 21.9679 9.35076C22.6351 9.07802 23.295 9.16812 23.9574 9.38242C25.2748 9.8037 26.3779 10.5489 27.2911 11.5814C27.3301 11.6276 27.3739 11.6715 27.4177 11.7177C27.7757 11.3768 28.1069 11.031 28.4721 10.7242C29.4365 9.91085 30.5371 9.36538 31.7986 9.23875C32.1784 9.19979 32.5973 9.28014 32.9601 9.4092C33.8733 9.73551 34.767 10.113 35.6607 10.4953C35.8726 10.5854 36.0041 10.5805 36.1891 10.4417C38.0593 9.05368 40.4482 9.27041 42.0018 10.958C43.1269 12.1804 43.3777 14.0019 42.6423 15.6164C42.2356 16.5077 41.6414 17.2455 40.8451 17.8884C40.6114 17.3527 40.3922 16.8486 40.1706 16.347C39.9052 15.7455 39.6397 15.1415 39.3694 14.5425C39.3086 14.411 39.2282 14.2868 39.1454 14.1651C38.8191 13.6853 38.3077 13.6805 37.9644 14.1504C37.8864 14.2576 37.828 14.3793 37.7428 14.5255C37.5479 14.3404 37.3361 14.1821 37.1851 13.9775C37.1218 13.8923 37.1486 13.6951 37.2022 13.5806C37.5212 12.8744 38.4587 12.5505 39.1819 12.8866C39.6787 13.1179 40.0147 13.5173 40.2412 14.0019C40.5091 14.579 40.7429 15.1732 40.9912 15.7601C41.0205 15.8477 41.0643 15.9403 41.1325 16.0912Z" fill="#FFEB61"/>
</svg>
