<svg width="48" height="42" viewBox="0 0 48 42" fill="none" xmlns="http://www.w3.org/2000/svg">
<path d="M36.3422 18.9093C35.536 18.3097 34.6904 18.0283 33.7188 18.3202C33.409 18.4122 33.2777 18.6069 33.2488 18.9619C33.0991 20.9554 32.9704 22.9541 32.7157 24.9345C32.4479 27.0305 31.4474 28.8557 30.3234 30.6098C29.9164 31.2463 29.4621 31.8538 29.0446 32.485C28.9369 32.648 28.8686 32.8453 28.8109 33.0347C28.585 33.7658 28.4275 34.5258 28.136 35.228C27.5189 36.7087 26.4081 37.7606 25.0347 38.5522C24.3519 38.9467 23.6744 38.9441 22.9943 38.5628C21.1771 37.545 19.9114 36.0827 19.3705 34.0419C19.2602 33.6264 19.2129 33.1924 19.1236 32.7717C19.1079 32.6875 19.0448 32.6112 18.9923 32.5402C18.0968 31.3199 17.2355 30.076 16.5186 28.7373C15.5444 26.9227 15.0717 24.9844 14.9614 22.9357C14.8932 21.6549 14.7802 20.3768 14.6804 19.0987C14.6647 18.8883 14.6752 18.5911 14.5491 18.4938C14.3338 18.3281 14.0266 18.2281 13.7456 18.2018C12.942 18.1282 12.2514 18.4096 11.6212 18.9514C11.6737 18.9882 11.6947 19.0145 11.721 19.0198C12.9158 19.1881 13.89 20.3373 14.0922 21.7996C14.3916 23.964 12.7031 26.0995 10.4474 26.4309C8.73784 26.6834 7.36446 26.0154 6.24841 24.7714C5.07722 23.467 4.53365 21.8864 4.36558 20.169C3.89816 15.472 6.98894 11.3956 11.3087 9.93861C13.3464 9.2522 15.4157 9.12333 17.4981 9.7361C18.9687 10.17 20.1582 11.0195 21.0432 12.2819C21.5027 12.9341 21.9623 13.5863 22.4245 14.2359C22.4822 14.3175 22.5426 14.3937 22.6293 14.5042C22.9681 14.2175 23.291 13.9493 23.6088 13.6731C23.9659 13.3654 24.0788 13.3628 24.4281 13.6863C24.7222 13.9571 25.0163 14.2307 25.3367 14.5278C25.4286 14.4042 25.4969 14.3201 25.5573 14.2333C26.0247 13.5627 26.4895 12.8894 26.9595 12.2214C28.0625 10.6487 29.6144 9.75715 31.4684 9.49942C34.9872 9.01025 38.1121 9.92809 40.6934 12.4344C43.4612 15.1222 44.3567 19.2196 42.957 22.7043C42.3452 24.2244 41.4025 25.4604 39.8558 26.139C37.3348 27.2435 34.3674 25.6656 33.8738 22.9541C33.6164 21.534 34.2362 20.0533 35.4178 19.3275C35.6909 19.1591 36.0008 19.0618 36.3422 18.9093ZM27.7631 33.0241C27.9364 32.7059 28.0887 32.3877 28.2752 32.0905C28.3828 31.9222 28.375 31.796 28.2883 31.6224C27.6502 30.3206 27.1381 28.9767 26.8598 27.5486C26.5972 26.2021 26.6024 24.8714 27.1906 23.6011C27.8419 22.1941 29.0656 21.5655 30.6202 21.7181C30.8696 21.7417 31.0377 21.8837 31.043 22.1494C31.0508 22.5333 31.0561 22.9173 31.0272 23.2986C30.9826 23.8878 30.7725 24.419 30.3576 24.8529C29.6354 25.6051 28.7426 25.6866 27.6476 25.0686C27.4243 27.1962 28.1071 29.0819 28.9789 30.936C29.3177 30.4915 29.6118 30.047 29.8928 29.5947C30.8539 28.0483 31.6417 26.423 31.8675 24.5926C32.0776 22.8989 32.2141 21.1973 32.3953 19.501C32.4216 19.2564 32.2798 19.2196 32.1091 19.1644C29.2231 18.236 26.6077 16.8159 24.3178 14.8171C23.9764 14.5199 23.9738 14.5199 23.6219 14.8224C21.3294 16.7738 18.756 18.2334 15.8884 19.1644C15.6468 19.2433 15.5759 19.359 15.5969 19.601C15.6757 20.4662 15.723 21.3341 15.8122 22.1967C15.9225 23.2592 15.9934 24.3348 16.2009 25.3789C16.5633 27.2146 17.5034 28.8005 18.5301 30.3337C18.6667 30.5415 18.8164 30.7387 18.9634 30.9518C19.83 29.884 20.6336 26.1284 20.2502 25.1028C20.0033 25.2211 19.767 25.3868 19.5044 25.4578C18.4356 25.7445 17.246 24.9871 16.9861 23.7931C16.8626 23.2224 16.9099 22.6122 16.8968 22.0205C16.8915 21.8049 17.0596 21.7444 17.246 21.7181C18.9608 21.4814 20.4025 22.3992 20.9382 24.0561C21.2664 25.0686 21.3006 26.0969 21.1561 27.141C20.9382 28.7189 20.4077 30.1943 19.7197 31.6197C19.6646 31.7328 19.6252 31.9012 19.6698 32.0037C19.8169 32.3509 20.0086 32.6849 20.2003 33.0557C21.5343 32.2404 22.8157 32.2693 23.9712 33.4476C25.1397 32.2983 26.4081 32.2273 27.7631 33.0241ZM5.73634 16.353C5.25054 17.6206 5.07197 19.0224 5.2768 20.4557C5.51839 22.1283 6.19326 23.5958 7.501 24.703C9.26829 26.1968 11.6921 25.7524 12.8265 23.7536C13.483 22.5991 13.3228 21.2158 12.43 20.3137C12.1516 20.0323 11.8313 19.8403 11.4347 19.7851C10.8623 19.7088 10.471 20.1164 10.6391 20.6687C10.71 20.9054 10.9069 21.1421 11.1091 21.292C11.7446 21.7601 11.9205 22.3493 11.5792 23.0593C11.1879 23.8799 10.1979 24.3033 9.23941 24.035C8.22053 23.7484 7.62443 23.012 7.26992 22.0573C6.78674 20.7634 6.87602 19.4853 7.41172 18.2229C7.45111 18.1308 7.46949 17.9599 7.41697 17.9099C6.86552 17.3813 6.2983 16.8685 5.73634 16.353ZM42.1509 16.1768C41.5994 16.7685 41.1031 17.3103 40.5937 17.8389C40.4571 17.9783 40.444 18.0782 40.5254 18.2544C41.0138 19.309 41.1267 20.4031 40.851 21.534C40.591 22.5991 40.0737 23.4827 39.0312 23.9614C38.1909 24.3454 37.1772 24.1192 36.6022 23.4433C35.9483 22.6754 36.2293 21.5918 36.9146 21.2736C36.9698 21.2473 37.0171 21.2079 37.0643 21.171C37.3742 20.9291 37.4766 20.5083 37.3164 20.1638C37.1799 19.8719 36.8464 19.7193 36.4682 19.8035C36.2949 19.8403 36.1164 19.906 35.9667 19.9981C35.3076 20.4057 34.953 21.0316 34.8086 21.7707C34.3937 23.8746 36.5102 25.9601 38.6452 25.5578C39.8873 25.3237 40.8221 24.6215 41.4944 23.5774C42.7023 21.7075 42.9859 19.6641 42.5316 17.5049C42.4345 17.0657 42.2848 16.6423 42.1509 16.1768ZM30.5361 17.6285C31.0981 17.8626 31.576 18.0677 32.0645 18.2544C32.1222 18.2781 32.2352 18.2255 32.2929 18.1729C33.2199 17.3129 34.3044 17.1341 35.473 17.4891C36.7387 17.8731 37.7156 18.6305 38.1804 19.9218C38.4824 20.7581 38.141 21.6865 37.4188 22.1178C37.1011 22.3072 37.0459 22.465 37.277 22.7569C37.411 22.9278 37.6158 23.0856 37.8206 23.1566C38.2775 23.3197 38.6951 23.1671 39.0574 22.8673C39.777 22.273 40.0737 21.4656 40.0895 20.5661C40.1183 18.7489 39.3043 17.3576 37.797 16.3898C35.7855 15.0959 33.1963 15.3431 31.2451 16.971C31.0141 17.1657 30.804 17.3787 30.5361 17.6285ZM17.4325 17.6653C17.1436 17.4024 16.9283 17.1814 16.6893 16.9921C14.8433 15.5404 12.8344 15.1038 10.6443 16.1216C8.6932 17.0289 7.5614 19.1355 7.93429 21.129C8.0866 21.9442 8.44111 22.6675 9.23416 23.0672C9.80137 23.3539 10.4211 23.2119 10.7126 22.7385C10.9043 22.4308 10.8596 22.2414 10.5576 22.0652C9.8854 21.6707 9.60179 21.0474 9.72521 20.2716C9.85914 19.4326 10.3528 18.8199 10.9726 18.2939C12.5429 16.9579 14.6095 17.0473 15.6862 18.1677C15.7282 18.2097 15.8201 18.2571 15.8674 18.2387C16.3663 18.0677 16.86 17.8784 17.4325 17.6653ZM21.8704 15.0854C21.852 15.0249 21.852 14.9907 21.8363 14.9697C21.1456 14.0255 20.4839 13.0577 19.7486 12.1504C19.2103 11.485 18.4855 11.0379 17.6478 10.7092C16.8521 12.1951 16.0643 13.6678 15.2844 15.1275C15.3186 15.1695 15.3291 15.1932 15.3448 15.1985C16.4294 15.6219 17.3379 16.2873 18.1152 17.1446C18.1625 17.1972 18.3043 17.2288 18.3673 17.1998C19.6015 16.6134 20.7622 15.9059 21.8704 15.0854ZM26.0326 15.0012C26.093 15.088 26.1035 15.1196 26.1271 15.1354C27.2642 15.8218 28.4012 16.5108 29.5461 17.1841C29.6092 17.2209 29.7825 17.1762 29.8376 17.1131C30.5388 16.2925 31.3948 15.6876 32.3796 15.2563C32.4584 15.2221 32.5319 15.1748 32.5975 15.138C32.5897 15.088 32.5923 15.067 32.5818 15.0486C31.8596 13.6731 31.1375 12.3003 30.4206 10.9222C30.3313 10.7539 30.2158 10.7328 30.0792 10.8223C29.5173 11.1878 28.8529 11.4666 28.4196 11.9505C27.553 12.9131 26.8125 13.9913 26.0326 15.0012ZM35.1605 14.662C37.1379 14.8224 38.7266 15.6377 39.9687 17.1209C40.5438 16.5503 41.1057 16.0032 41.6467 15.4378C41.7018 15.3826 41.6782 15.1932 41.6257 15.1038C40.5306 13.1997 38.9445 11.8479 36.9278 11.0064C36.4499 10.8091 35.9457 10.6724 35.3916 10.4883C35.3128 11.9242 35.2366 13.2786 35.1605 14.662ZM12.5508 10.5645C12.4589 10.5724 12.4168 10.5698 12.3801 10.5803C9.71471 11.2641 7.69533 12.8026 6.29043 15.1669C6.20114 15.3168 6.23528 15.422 6.3482 15.5404C6.80512 16.0111 7.25416 16.4871 7.70846 16.9605C7.77936 17.0342 7.87127 17.0946 7.9448 17.1551C7.99206 17.1209 8.01307 17.1131 8.02358 17.0973C9.19739 15.6692 10.689 14.8434 12.5481 14.7277C12.7556 14.7146 12.7924 14.6094 12.7792 14.4305C12.7215 13.5337 12.6716 12.6369 12.6164 11.7401C12.5954 11.3509 12.5744 10.9722 12.5508 10.5645ZM31.2268 10.4409C31.2977 10.5856 31.3449 10.696 31.4001 10.8012C32.0093 11.9952 32.6185 13.1892 33.2278 14.3806C33.4746 14.8618 33.472 14.8513 34.0103 14.7724C34.2099 14.7409 34.2703 14.662 34.2782 14.4647C34.3307 13.2865 34.399 12.1083 34.4594 10.9301C34.4909 10.3252 34.4856 10.3147 33.879 10.2674C33.0046 10.2042 32.1327 10.2253 31.2268 10.4409ZM13.6878 14.7304C13.8139 14.7514 13.9242 14.7593 14.0292 14.7908C14.3128 14.8803 14.473 14.7961 14.6122 14.5121C15.0166 13.6889 15.4551 12.8815 15.8805 12.0688C16.1615 11.535 16.4399 11.0011 16.7313 10.4409C15.6127 10.1884 14.5281 10.1569 13.4226 10.3568C13.5145 11.8269 13.6012 13.2734 13.6878 14.7304ZM21.8599 36.0775C21.8704 36.1038 21.8809 36.1301 21.8914 36.1537C22.2301 36.0144 22.6004 35.9276 22.8972 35.7277C23.8451 35.086 23.7427 34.0393 22.7028 33.5475C21.8756 33.1556 21.0222 33.5107 20.4051 33.9998C20.3473 34.0445 20.3184 34.1944 20.3473 34.2628C20.5495 34.7204 20.7465 35.1833 20.9933 35.6172C21.1745 35.9302 21.4844 36.088 21.8599 36.0775ZM25.9801 33.3844C25.5757 33.3897 25.1161 33.5896 24.7458 33.9814C24.4176 34.3286 24.3808 34.8362 24.6356 35.2412C24.8903 35.6462 25.2579 35.896 25.7096 36.0249C26.2637 36.1827 26.7547 36.017 27.0383 35.5147C27.2642 35.1123 27.4243 34.6731 27.5924 34.2444C27.6239 34.1681 27.5872 34.0077 27.5241 33.9604C27.1066 33.6395 26.6602 33.3923 25.9801 33.3844ZM22.2617 36.8796C22.3509 36.9874 22.4008 37.0742 22.477 37.1268C22.8341 37.3661 23.1939 37.6055 23.5641 37.8264C23.6876 37.9 23.8556 37.9631 23.9922 37.9474C24.7038 37.8553 25.2211 37.424 25.7516 36.9007C25.0242 36.7534 24.4649 36.4404 24.0001 35.9223C23.5431 36.4246 22.9969 36.7402 22.2617 36.8796ZM18.0391 22.5754C17.9866 22.6043 17.7975 22.6438 17.7739 22.7306C17.6032 23.3302 18.0364 24.2218 18.6063 24.5058C18.9792 24.6925 19.4098 24.6268 19.7355 24.3533C19.9272 24.1902 19.9718 24.0114 19.8563 23.7904C19.4886 23.0856 18.9162 22.678 18.0391 22.5754ZM29.8192 22.6622C29.0735 22.6885 28.2988 23.2276 28.0677 23.893C28.0309 23.9982 28.0782 24.1744 28.1517 24.2691C28.4117 24.6084 28.9238 24.7004 29.3308 24.4979C29.94 24.1928 30.1107 23.6458 30.1475 23.0199C30.1606 22.7569 30.0871 22.5991 29.8192 22.6622Z" fill="#FFEB61"/>
<path d="M40.2351 8.0665C40.2351 7.97709 40.2351 7.88504 40.2351 7.79299C40.2325 7.30908 40.1301 7.16181 39.6679 7.03031C39.597 7.0119 39.4998 7.05398 39.4263 7.09343C39.0508 7.29067 38.6831 7.49844 38.3076 7.69305C38.0765 7.81403 37.8691 7.77721 37.7457 7.53263C37.6275 7.29593 37.6958 7.10395 37.9269 6.96982C38.2682 6.77521 38.6044 6.56744 38.9484 6.38334C39.0823 6.3097 39.1401 6.23607 39.1059 6.07565C39.0797 5.94941 39.0613 5.80476 39.1007 5.68905C39.2083 5.35767 39.0508 5.21303 38.7777 5.09205C38.5125 4.97371 38.2525 4.83694 38.0056 4.68178C37.7352 4.51346 37.6669 4.261 37.8139 4.04008C37.9768 3.78498 38.1973 3.82179 38.4232 3.9454C38.7514 4.12687 39.0797 4.30307 39.3948 4.49769C39.5392 4.58711 39.6574 4.64496 39.7834 4.48717C39.7966 4.47139 39.8149 4.45561 39.8307 4.45298C40.2902 4.36619 40.264 4.02693 40.2482 3.67978C40.2377 3.4273 40.243 3.17484 40.2614 2.92236C40.2771 2.69356 40.4032 2.54102 40.6395 2.52261C40.8653 2.5042 41.0886 2.7146 41.0991 2.95392C41.1122 3.32737 41.1122 3.70082 41.1043 4.07427C41.0991 4.2268 41.1778 4.27414 41.296 4.36093C41.6479 4.61866 41.9262 4.51609 42.2361 4.29518C42.4646 4.13212 42.7272 4.01904 42.9766 3.89017C43.1683 3.79024 43.3495 3.79813 43.4729 4.00326C43.599 4.21628 43.6331 4.43983 43.4047 4.59499C43.0948 4.80276 42.7692 4.98686 42.4383 5.15517C42.2387 5.25774 42.1311 5.35767 42.2203 5.597C42.2571 5.69693 42.2729 5.82843 42.2387 5.92574C42.1363 6.20977 42.2965 6.3176 42.5118 6.42806C42.8059 6.58059 43.0922 6.75153 43.3705 6.93563C43.6147 7.09606 43.6725 7.33801 43.5412 7.56155C43.3889 7.81929 43.171 7.81665 42.9425 7.69042C42.6142 7.51158 42.2913 7.32749 41.9761 7.12762C41.8238 7.03031 41.7188 7.05924 41.5481 7.10921C41.078 7.24859 41.0492 7.56944 41.078 7.96393C41.0938 8.21378 41.0754 8.46888 41.0623 8.72135C41.0492 8.97646 40.9179 9.15266 40.65 9.14477C40.3874 9.13951 40.2535 8.96856 40.2404 8.71083C40.2272 8.48992 40.2351 8.2769 40.2351 8.0665ZM41.3091 5.83632C41.317 5.46024 41.0282 5.1578 40.6579 5.15254C40.3139 5.14728 40.0198 5.44709 40.0119 5.81002C40.004 6.14928 40.285 6.42017 40.6553 6.43069C41.036 6.44384 41.3039 6.20188 41.3091 5.83632Z" fill="#FFEB61"/>
<path d="M5.8286 8.27676C5.8286 8.19523 5.81809 8.1137 5.83122 8.0348C5.89162 7.6482 5.77608 7.3931 5.3743 7.25897C5.20361 7.20112 5.09595 7.1827 4.94102 7.2879C4.62327 7.50092 4.28714 7.69028 3.95364 7.87438C3.73569 7.99535 3.52036 7.99272 3.38381 7.74025C3.25513 7.50092 3.29715 7.28001 3.52824 7.13273C3.83285 6.93812 4.1611 6.77507 4.46046 6.56993C4.56287 6.49893 4.60489 6.34113 4.66266 6.21752C4.68104 6.17545 4.65216 6.11233 4.66791 6.06762C4.82547 5.59423 4.58651 5.3549 4.17948 5.18659C3.97465 5.10243 3.79084 4.9762 3.59914 4.86048C3.37856 4.72635 3.29715 4.45284 3.40744 4.23981C3.51773 4.02942 3.7567 3.96631 4.00879 4.10569C4.33704 4.28453 4.66003 4.47125 4.97515 4.66849C5.12221 4.76054 5.24038 4.78684 5.38218 4.67112C5.45045 4.6159 5.53974 4.57645 5.6264 4.55804C5.78658 4.52122 5.8286 4.42917 5.82335 4.274C5.81284 3.91896 5.81547 3.56655 5.82072 3.21414C5.82597 2.90644 5.9809 2.71445 6.21987 2.7013C6.46671 2.68815 6.64265 2.8854 6.65578 3.21151C6.66891 3.5534 6.66628 3.89792 6.67416 4.24245C6.67941 4.54489 7.19411 4.82891 7.46459 4.68164C7.81909 4.48702 8.1631 4.27663 8.52548 4.10306C8.85373 3.94789 9.11633 4.08728 9.16622 4.4055C9.19773 4.61063 9.11633 4.75528 8.93513 4.85259C8.59901 5.03406 8.26551 5.22604 7.92676 5.4075C7.77708 5.48903 7.68517 5.57319 7.76657 5.76518C7.80071 5.84407 7.81384 5.95453 7.78496 6.03079C7.65103 6.4095 7.85586 6.5673 8.1631 6.70932C8.4467 6.83819 8.71193 7.0065 8.97453 7.18007C9.22137 7.34313 9.27389 7.58508 9.13734 7.806C8.98503 8.05321 8.7697 8.02428 8.557 7.90593C8.20249 7.71132 7.85848 7.50355 7.5066 7.30368C7.21512 7.13536 6.67942 7.43255 6.67154 7.76918C6.66366 8.14263 6.66629 8.51608 6.65841 8.88953C6.65316 9.16567 6.48509 9.34976 6.24088 9.34187C5.9704 9.33398 5.84435 9.16567 5.83122 8.91057C5.82072 8.70018 5.8286 8.48715 5.8286 8.27412C5.83385 8.27675 5.83122 8.27676 5.8286 8.27676ZM6.25401 6.62779C6.64528 6.6199 6.9 6.35954 6.8895 5.9782C6.87899 5.62316 6.57175 5.33913 6.21199 5.35228C5.85486 5.36543 5.60539 5.65734 5.61327 6.04657C5.61852 6.37531 5.90213 6.63305 6.25401 6.62779Z" fill="#FFEB61"/>
<path d="M11.9469 31.9695C12.2647 31.404 12.677 30.9964 13.2363 30.765C13.3991 30.6992 13.5961 30.6414 13.7615 30.6729C13.8981 30.6992 14.0792 30.8412 14.116 30.9675C14.1502 31.0911 14.0399 31.2673 13.9585 31.4014C13.9191 31.4672 13.8061 31.4908 13.7247 31.5303C12.9737 31.8827 12.4669 32.4323 12.459 33.295C12.4511 34.1576 13.0052 34.6625 13.7037 35.0465C13.8166 35.107 13.9742 35.1596 14.0162 35.2569C14.074 35.3884 14.0976 35.5988 14.0294 35.704C13.9611 35.8092 13.7536 35.8881 13.6197 35.8723C12.9763 35.8013 12.5115 35.4278 12.1491 34.9124C12.0914 34.8308 12.0415 34.7441 11.9863 34.6573C11.9811 34.6494 11.9706 34.6441 11.9338 34.6204C11.8209 34.7677 11.7132 34.9229 11.5924 35.0675C11.2248 35.5041 10.7994 35.8434 10.2007 35.8907C9.99584 35.9065 9.80152 35.8276 9.79364 35.6224C9.78839 35.4594 9.89605 35.2832 9.98534 35.1306C10.0221 35.0649 10.1508 35.0596 10.2217 35.0097C10.4738 34.8282 10.7574 34.6704 10.9622 34.4469C11.7211 33.6079 11.532 32.3929 10.5657 31.7512C10.4318 31.6618 10.2873 31.5802 10.1376 31.5303C9.86454 31.4409 9.76738 31.262 9.82253 30.9964C9.86717 30.7808 10.1061 30.6493 10.3819 30.7045C10.9464 30.8176 11.3561 31.1673 11.6975 31.6118C11.771 31.7144 11.8445 31.8222 11.9469 31.9695Z" fill="#FFEB61"/>
<path d="M36.0718 31.9249C36.3606 31.6277 36.618 31.3174 36.9252 31.0649C37.13 30.8966 37.3874 30.7783 37.6421 30.6888C37.9205 30.5915 38.162 30.7178 38.2382 30.9518C38.3301 31.2332 38.183 31.3858 37.9441 31.4962C37.2981 31.796 36.8123 32.2484 36.6862 32.9821C36.5418 33.8263 37.0092 34.6048 37.8732 35.0256C37.9966 35.0861 38.1594 35.1492 38.2093 35.257C38.2697 35.3859 38.2828 35.6068 38.2119 35.7067C38.1305 35.8146 37.9152 35.8961 37.7734 35.8724C37.1484 35.7804 36.6915 35.4095 36.3396 34.8993C36.2687 34.7941 36.2057 34.6811 36.1794 34.6416C35.7934 34.9967 35.4336 35.3543 35.0397 35.6699C34.8769 35.8014 34.6353 35.8514 34.4253 35.9014C34.2073 35.954 34.0261 35.8724 33.9552 35.6331C33.8896 35.4069 33.9631 35.2465 34.1679 35.1255C34.4305 34.9756 34.7089 34.8415 34.9321 34.6469C35.9037 33.8053 35.8223 32.4903 34.7614 31.7566C34.6038 31.6488 34.4279 31.5672 34.2572 31.4804C34.034 31.3647 33.9132 31.1833 33.992 30.9361C34.076 30.6704 34.3045 30.6362 34.5382 30.6915C35.1369 30.8335 35.5886 31.1911 35.9273 31.6961C35.9799 31.7802 36.0297 31.867 36.0718 31.9249Z" fill="#FFEB61"/>
<path d="M24.0792 5.7462C23.0419 5.71464 22.3014 5.28859 21.8707 4.38915C21.8077 4.25503 21.763 4.10249 21.7578 3.95521C21.7525 3.75008 21.8471 3.5765 22.0676 3.52654C22.2804 3.4792 22.4458 3.5581 22.5482 3.75008C22.6007 3.84739 22.6427 3.94996 22.6926 4.0499C22.9684 4.60481 23.4305 4.88095 24.0371 4.85465C24.6411 4.83098 25.0849 4.52328 25.3291 3.9631C25.4368 3.71326 25.5366 3.4713 25.8779 3.50812C26.0906 3.53179 26.2272 3.63963 26.2246 3.85265C26.2219 4.02097 26.2009 4.20243 26.13 4.35234C25.7073 5.23862 24.9904 5.68308 24.0792 5.7462Z" fill="#FFEB61"/>
<path d="M1.80028 17.3311C1.75563 17.6151 1.75038 17.9307 1.35386 17.9412C1.08864 17.9465 0.967838 17.7887 0.904815 17.36C0.629086 17.2838 0.300839 17.218 0.334977 16.8314C0.361236 16.5316 0.608078 16.4343 0.904815 16.4185C0.925822 16.3317 0.946832 16.2476 0.96784 16.1634C1.02561 15.953 1.15691 15.832 1.37749 15.832C1.59808 15.832 1.71099 15.9819 1.73988 16.1713C1.76614 16.3501 1.82391 16.4264 2.0156 16.4527C2.23619 16.4816 2.42263 16.6052 2.41213 16.8682C2.40425 17.1181 2.24144 17.2417 2.00773 17.289C1.94208 17.3022 1.8738 17.3179 1.80028 17.3311Z" fill="#FFEB61"/>
<path d="M14.9931 2.388C14.7804 2.36696 14.6491 2.24861 14.5703 2.03033C14.5335 1.92776 14.4337 1.8252 14.3339 1.77786C14.1344 1.68055 13.9322 1.58587 13.9532 1.33077C13.9715 1.09144 14.1527 0.983623 14.3707 0.909985C14.46 0.881056 14.5624 0.778487 14.5834 0.694329C14.6386 0.457636 14.7462 0.30247 15.0009 0.29984C15.2452 0.29721 15.3449 0.441855 15.4001 0.668028C15.4237 0.762706 15.5445 0.875797 15.6443 0.902096C15.8806 0.970474 16.0697 1.07566 16.0697 1.33866C16.0671 1.60954 15.8649 1.69633 15.6285 1.75156C15.5445 1.76997 15.4552 1.88569 15.4237 1.97774C15.3502 2.19076 15.2688 2.37485 14.9931 2.388Z" fill="#FFEB61"/>
<path d="M47.0828 23.1748C47.067 23.2905 47.0565 23.3826 47.0382 23.4693C46.9961 23.6797 46.8727 23.8244 46.6495 23.8217C46.4263 23.8191 46.2451 23.7008 46.2215 23.472C46.2005 23.2642 46.1033 23.2037 45.93 23.1222C45.7987 23.0617 45.6753 22.8723 45.6464 22.7224C45.6044 22.5068 45.7724 22.3884 45.9799 22.3279C46.0639 22.3016 46.1716 22.2227 46.1952 22.1465C46.2635 21.9177 46.3396 21.7152 46.6232 21.7178C46.9226 21.7204 47.0434 21.9124 47.0749 22.1859C47.0802 22.2149 47.0959 22.2412 47.1064 22.2675C47.545 22.3648 47.6841 22.4857 47.6658 22.7645C47.6474 23.1169 47.3822 23.1564 47.0828 23.1748Z" fill="#FFEB61"/>
<path d="M34.6145 4.54724C34.6171 4.81286 34.4096 5.02852 34.1444 5.03641C33.8582 5.04693 33.614 4.8155 33.6192 4.53409C33.6245 4.25532 33.8398 4.04492 34.1234 4.04492C34.3991 4.04492 34.6118 4.26058 34.6145 4.54724Z" fill="#FFEB61"/>
<path d="M6.26179 28.4401C5.99132 28.4428 5.77073 28.2219 5.76548 27.9431C5.76023 27.6748 5.96243 27.4697 6.23553 27.4644C6.51126 27.4592 6.75285 27.6827 6.7581 27.9405C6.76598 28.2087 6.53752 28.4375 6.26179 28.4401Z" fill="#FFEB61"/>
<path d="M27.5844 41.2137C27.5818 41.4978 27.3639 41.7108 27.0803 41.7003C26.8177 41.6924 26.6076 41.4767 26.5997 41.2137C26.5944 40.956 26.8387 40.6956 27.0908 40.6983C27.3481 40.6956 27.5871 40.9507 27.5844 41.2137Z" fill="#FFEB61"/>
<path d="M4.43643 34.7149C4.1712 34.7228 3.94799 34.5203 3.93224 34.2546C3.91648 33.9732 4.12393 33.747 4.40754 33.7365C4.67539 33.7286 4.91173 33.9548 4.91436 34.2283C4.91961 34.4887 4.70428 34.707 4.43643 34.7149Z" fill="#FFEB61"/>
<path d="M44.2466 30.1416C43.9577 30.1363 43.7555 29.9259 43.766 29.6392C43.7765 29.3736 43.9866 29.1659 44.2518 29.1685C44.5223 29.1711 44.7324 29.392 44.7298 29.6813C44.7271 29.9548 44.5276 30.1468 44.2466 30.1416Z" fill="#FFEB61"/>
<path d="M14.2054 5.82287C14.2002 6.09901 13.9665 6.34096 13.7118 6.33307C13.4518 6.32518 13.2417 6.10164 13.2417 5.83864C13.2417 5.55461 13.4623 5.3258 13.7301 5.33369C13.9901 5.34421 14.2107 5.57039 14.2054 5.82287Z" fill="#FFEB61"/>
<path d="M16.1876 37.482C16.4423 37.4793 16.6497 37.7081 16.6445 37.979C16.6392 38.2446 16.4449 38.434 16.1823 38.4314C15.9223 38.4261 15.6991 38.2078 15.6939 37.9527C15.6912 37.6976 15.9171 37.482 16.1876 37.482Z" fill="#FFEB61"/>
</svg>
