<svg width="47" height="39" viewBox="0 0 47 39" fill="none" xmlns="http://www.w3.org/2000/svg">
<path d="M31.879 23.6941C32.4491 23.5691 32.981 23.4517 33.5104 23.3395C34.0219 23.2323 34.1187 23.291 34.2612 23.8013C34.3044 23.9518 34.3452 24.1048 34.3859 24.2579C34.4266 24.411 34.4648 24.5615 34.4953 24.6788C34.6353 24.7834 34.7829 24.8523 34.872 24.9671C35.8442 26.2044 36.8088 27.4468 37.7658 28.6943C37.8268 28.7759 37.8472 28.9188 37.8294 29.026C37.6996 29.8219 37.552 30.6128 37.4145 31.4062C37.3865 31.572 37.3305 31.7429 37.1397 31.725C37.0175 31.7148 36.8648 31.6256 36.7986 31.5235C35.9587 30.248 35.1316 28.9622 34.3044 27.679C34.0907 27.3473 34.1237 27.207 34.4521 27.008C34.7447 26.832 35.04 26.6611 35.3708 26.4672C35.0832 26.1304 34.8084 25.7988 34.5208 25.4824C34.4775 25.434 34.3681 25.4161 34.2968 25.4314C33.518 25.5947 32.7418 25.7631 31.9655 25.934C31.9248 25.9442 31.8866 25.9748 31.8154 26.0131C32.019 26.1381 32.1946 26.2503 32.3753 26.3575C32.6069 26.4927 32.8334 26.6381 33.0777 26.7504C33.4875 26.9442 33.6427 27.2223 33.658 27.7045C33.7165 29.5566 33.8361 31.4062 33.9329 33.2557C33.9583 33.7481 33.943 33.7609 33.4595 33.8348C33.2482 33.868 33.0395 33.9037 32.8308 33.9394C32.6552 33.97 32.5534 33.9037 32.5025 33.7277C32.0495 32.1511 31.5939 30.5796 31.1409 29.0055C31.1155 28.9163 31.0747 28.8168 31.0926 28.7351C31.174 28.3933 30.9297 28.2912 30.7057 28.1662C30.3418 27.9621 29.9804 27.758 29.6215 27.5463C29.4815 27.4647 29.3746 27.4749 29.2474 27.5744C27.4734 28.9647 25.4577 29.5796 23.213 29.4239C21.4518 29.3015 19.8662 28.6841 18.4817 27.5795C18.3086 27.4392 18.1864 27.4213 17.9981 27.5386C17.5833 27.7963 17.1531 28.0336 16.7281 28.2785C16.606 28.3474 16.522 28.4111 16.5652 28.5821C16.5907 28.6816 16.5601 28.8015 16.5296 28.9061C16.0791 30.5107 15.621 32.1128 15.1731 33.7175C15.1171 33.919 15.028 33.993 14.8193 33.9445C14.5953 33.8935 14.3637 33.8654 14.1347 33.8323C13.7402 33.7736 13.6817 33.6996 13.7071 33.3118C13.7606 32.4878 13.8089 31.6664 13.8573 30.8424C13.9234 29.6969 13.9947 28.5489 14.0481 27.4009C14.0583 27.1585 14.155 27.0055 14.3561 26.8907C14.7073 26.6866 15.0535 26.4723 15.3996 26.2605C15.5396 26.1738 15.677 26.0845 15.8679 25.9595C15.2952 25.8345 14.7786 25.7222 14.2619 25.6126C14.0176 25.559 13.7707 25.5182 13.5315 25.4493C13.3177 25.3855 13.1675 25.4263 13.0276 25.6075C12.8061 25.8932 12.5644 26.1585 12.3073 26.4621C12.5975 26.6381 12.8723 26.8014 13.1396 26.9723C13.5595 27.2402 13.5849 27.3295 13.3177 27.7453C12.5211 28.9953 11.7219 30.2403 10.9101 31.4801C10.8337 31.5949 10.6454 31.7378 10.5538 31.7097C10.4316 31.6766 10.2992 31.498 10.2712 31.3628C10.1033 30.5745 9.96075 29.7811 9.82077 28.9902C9.80295 28.8958 9.83858 28.7632 9.89712 28.6841C10.821 27.4698 11.7169 26.2299 12.7094 25.0692C13.0428 24.6788 13.2846 24.3089 13.3864 23.8242C13.4042 23.7349 13.4424 23.6482 13.4704 23.5589C13.5519 23.3191 13.6893 23.2375 13.9565 23.3038C14.5368 23.4466 15.1273 23.5512 15.7457 23.6788C15.733 23.5921 15.733 23.5308 15.7126 23.4747C15.4199 22.5997 15.2367 21.7042 15.196 20.7833C15.1883 20.62 15.1145 20.5919 14.9796 20.569C13.8038 20.3751 12.6305 20.1684 11.4547 19.9746C11.0195 19.9006 10.9762 19.8623 10.8872 19.4337C10.6581 18.3367 10.4392 17.2372 10.1873 16.1479C9.96329 15.1759 9.96075 14.2345 10.2992 13.2779C10.625 12.3518 10.877 11.4028 11.1748 10.4665C11.2155 10.3364 11.3046 10.1935 11.4114 10.1145C12.3531 9.4129 13.3126 8.7343 14.2543 8.03274C14.7735 7.64242 15.3818 7.65518 15.9748 7.59905C16.9419 7.50721 17.909 7.44599 18.8787 7.37455C19.0492 7.3618 19.2376 7.31588 19.3419 7.52507C19.4463 7.73681 19.3139 7.86947 19.1841 8.00978C18.3671 8.89502 17.5553 9.78282 16.7408 10.6681C16.4965 10.9334 16.3107 10.9461 16.1377 10.6247C15.962 10.2956 15.6974 10.2242 15.3792 10.1782C14.8778 10.1043 14.3816 10.0124 13.8496 9.92057C13.7351 10.4691 13.6206 10.9997 13.5111 11.5329C13.2363 12.8671 12.9614 14.1988 12.6942 15.5331C12.6789 15.6121 12.7145 15.7422 12.7731 15.7882C13.6664 16.4948 14.5648 17.1887 15.4658 17.8852C15.4785 17.8954 15.5014 17.8954 15.5319 17.903C15.5497 17.8801 15.5803 17.8546 15.5905 17.824C16.4074 15.2907 18.2323 13.857 20.7239 13.2345C23.4497 12.5559 26.1373 12.6911 28.7104 13.9105C30.329 14.6784 31.403 15.9514 31.9884 17.6454C32.0215 17.7398 32.0571 17.8316 32.1029 17.9541C32.1869 17.9082 32.2531 17.8826 32.3066 17.8393C33.1312 17.1836 33.9532 16.5203 34.7829 15.8698C34.9789 15.7167 35.0222 15.5586 34.9713 15.3213C34.6022 13.6197 34.2408 11.9181 33.8921 10.2114C33.8489 9.99711 33.7776 9.93078 33.5664 9.9716C33.0294 10.0711 32.4923 10.1578 31.9553 10.2471C31.795 10.2752 31.6856 10.3339 31.6041 10.5048C31.3903 10.9512 31.1944 10.9742 30.8686 10.617C30.0643 9.73434 29.2601 8.85166 28.4686 7.95621C28.3871 7.86437 28.326 7.65518 28.3744 7.57099C28.4329 7.46639 28.6238 7.3669 28.7485 7.37455C30.0389 7.4664 31.3292 7.56844 32.6171 7.7011C32.869 7.72661 33.1312 7.86692 33.3449 8.01488C34.3146 8.69348 35.2716 9.38995 36.226 10.0941C36.3481 10.1833 36.4423 10.3415 36.4881 10.4895C36.7706 11.3696 36.9997 12.2702 37.3178 13.1401C37.6818 14.1376 37.697 15.1249 37.468 16.1453C37.216 17.2755 36.9895 18.4107 36.763 19.5434C36.7121 19.8036 36.5747 19.9235 36.3252 19.9644C35.1494 20.1531 33.9736 20.3547 32.7978 20.5358C32.556 20.5741 32.4567 20.6557 32.4465 20.9108C32.4058 21.8471 32.192 22.7578 31.879 23.6941ZM23.7754 13.4717C22.8287 13.4717 21.8946 13.5712 20.9733 13.8059C19.4641 14.1912 18.1457 14.8927 17.1633 16.1351C16.3591 17.1479 15.9773 18.3265 15.8755 19.5995C15.6719 22.1277 16.3005 24.4237 18.0261 26.3065C19.7746 28.2121 22.0168 29.0004 24.5797 28.7989C26.3969 28.656 28.0257 27.9723 29.3084 26.6636C31.4412 24.485 32.1844 21.8267 31.6728 18.8444C31.3165 16.7729 30.1432 15.2652 28.2242 14.3697C26.8117 13.709 25.3152 13.4819 23.7754 13.4717ZM10.6199 14.8162C10.6301 14.9565 10.6276 15.0866 10.653 15.2091C10.9126 16.4974 11.1824 17.7806 11.4343 19.0715C11.4725 19.2653 11.5565 19.3342 11.7296 19.3648C12.348 19.4694 12.9665 19.5842 13.5849 19.6888C14.1169 19.7807 14.6513 19.8623 15.1909 19.9465C15.2443 19.5868 15.28 19.2577 15.3461 18.9312C15.3919 18.7092 15.336 18.574 15.1527 18.4413C14.6895 18.1046 14.2365 17.7525 13.7911 17.3928C12.7425 16.5484 11.7016 15.6938 10.6199 14.8162ZM32.4822 19.9771C33.6631 19.7577 34.8415 19.5434 36.0198 19.3164C36.086 19.3036 36.1751 19.2067 36.1878 19.1352C36.4576 17.8775 36.7172 16.6173 36.9742 15.357C37.0073 15.1937 37.0073 15.0279 37.0226 14.8621C36.5212 15.2218 36.0987 15.6096 35.6559 15.9693C34.62 16.8086 33.574 17.6326 32.5356 18.4668C32.4338 18.5485 32.2887 18.6735 32.2964 18.7679C32.3269 19.1608 32.4084 19.5485 32.4822 19.9771ZM11.5132 11.5482C11.47 11.6553 11.4343 11.7293 11.4089 11.8059C11.2333 12.362 11.0628 12.9181 10.8897 13.4717C10.7039 14.0636 10.7065 14.0636 11.1798 14.4565C11.4827 14.7065 11.783 14.959 12.0884 15.2142C12.1215 15.1657 12.1368 15.1504 12.1393 15.1351C12.3404 14.1759 12.5415 13.2166 12.7298 12.2549C12.7425 12.186 12.6738 12.0559 12.6102 12.0253C12.264 11.8594 11.9026 11.7166 11.5132 11.5482ZM35.5923 15.2269C36.0529 14.8417 36.4652 14.5024 36.8648 14.1478C36.9157 14.1019 36.9182 13.9616 36.8928 13.8825C36.6994 13.2447 36.4958 12.612 36.2947 11.9793C36.2514 11.8416 36.2082 11.7038 36.1547 11.5329C35.7068 11.7293 35.2894 11.9105 34.8771 12.0916C35.1163 13.1375 35.3479 14.1529 35.5923 15.2269ZM14.6539 28.2632C14.6361 28.3831 14.6259 28.4443 14.6208 28.5055C14.5673 29.4112 14.5139 30.3168 14.463 31.2225C14.4299 31.8041 14.3968 32.3883 14.379 32.97C14.3765 33.0669 14.4528 33.169 14.491 33.2659C14.5648 33.1817 14.6437 33.1052 14.7048 33.0159C14.743 32.9572 14.7506 32.8756 14.7709 32.8042C15.0305 31.9164 15.2927 31.0286 15.5523 30.1408C15.6694 29.7454 15.7864 29.3474 15.9061 28.9469C15.4887 28.7198 15.0942 28.503 14.6539 28.2632ZM31.7135 28.9775C31.7186 29.0158 31.7212 29.0515 31.7314 29.0846C31.9986 29.9316 32.2684 30.7786 32.5331 31.6256C32.6909 32.1281 32.8385 32.6358 32.9988 33.1384C33.0192 33.2047 33.1006 33.2506 33.1541 33.3042C33.1999 33.2328 33.2559 33.1664 33.2839 33.0899C33.3017 33.044 33.2813 32.9802 33.2788 32.9241C33.1973 31.4623 33.1184 30.003 33.037 28.5412C33.0344 28.4724 33.0141 28.4035 32.9963 28.3142C32.5534 28.5438 32.1386 28.7606 31.7135 28.9775ZM12.7654 27.4494C12.4804 27.2835 12.2208 27.133 11.9383 26.9723C11.5616 27.4749 11.2206 27.98 10.8235 28.4417C10.5028 28.8142 10.3858 29.179 10.5563 29.651C10.653 29.9188 10.6785 30.2122 10.7523 30.5719C11.4496 29.4903 12.0986 28.4851 12.7654 27.4494ZM34.9076 27.4468C35.5744 28.4851 36.226 29.503 36.9157 30.5821C37.0251 30.0286 37.1193 29.5591 37.2033 29.0872C37.216 29.0209 37.1982 28.9316 37.1575 28.8805C36.6917 28.2504 36.2183 27.6279 35.7399 26.9927C35.4548 27.1483 35.1901 27.2912 34.9076 27.4468ZM29.8913 26.9544C30.1305 27.1024 30.3468 27.2198 30.5479 27.3626C30.9297 27.633 31.2987 27.9188 31.6779 28.1892C31.7288 28.2249 31.8357 28.2173 31.8993 28.1892C32.2022 28.054 32.5025 27.9111 32.7978 27.7606C32.8716 27.7223 32.9835 27.6381 32.9759 27.5871C32.9632 27.4927 32.897 27.3805 32.8181 27.3295C32.1768 26.9136 31.5252 26.5054 30.8762 26.1049C30.8202 26.0692 30.6955 26.0539 30.665 26.0871C30.4079 26.3549 30.1661 26.6432 29.8913 26.9544ZM16.9317 26.0003C16.2344 26.4391 15.5447 26.8703 14.86 27.3039C14.7989 27.3422 14.7277 27.3958 14.7073 27.457C14.6895 27.5182 14.7099 27.6356 14.7531 27.6611C15.1273 27.8728 15.5116 28.0693 15.8526 28.2504C16.0104 28.1076 16.1275 27.9774 16.2675 27.8831C16.5958 27.6611 16.9394 27.457 17.2753 27.2478C17.4356 27.1458 17.5985 27.0488 17.7741 26.9391C17.4738 26.6075 17.204 26.3065 16.9317 26.0003ZM32.0826 8.25469C31.1384 8.1705 30.2552 8.09397 29.2957 8.00723C29.9498 8.70369 30.5454 9.33637 31.174 10.0048C31.4819 9.4129 31.767 8.86186 32.0826 8.25469ZM16.4812 9.99711C17.1099 9.33127 17.7029 8.70624 18.2933 8.07866C18.2806 8.05825 18.2653 8.03784 18.2526 8.01488C17.3771 8.09142 16.5016 8.17051 15.5777 8.25214C15.8882 8.85676 16.1733 9.40525 16.4812 9.99711ZM31.0926 25.434C31.1078 25.4544 31.1256 25.4773 31.1409 25.4977C32.0699 25.286 32.9963 25.0717 33.9558 24.8523C33.887 24.6074 33.8183 24.3906 33.7674 24.1686C33.7242 23.9798 33.6249 23.9467 33.4467 23.9926C32.8919 24.1278 32.3345 24.2477 31.7772 24.3753C31.7085 24.3906 31.6117 24.411 31.5837 24.4594C31.4158 24.7783 31.2554 25.1074 31.0926 25.434ZM13.7147 24.8625C14.6691 25.0692 15.6006 25.2707 16.6034 25.485C16.4074 25.0947 16.2547 24.7809 16.0918 24.4722C16.0664 24.4237 15.9977 24.3829 15.9442 24.3702C15.341 24.24 14.7353 24.115 14.1296 23.9849C13.9947 23.9569 13.9234 23.9926 13.8954 24.1354C13.8471 24.365 13.7835 24.5844 13.7147 24.8625ZM13.2872 9.65015C13.2694 9.63485 13.249 9.6221 13.2312 9.60679C12.7476 9.95374 12.2564 10.2879 11.7856 10.6502C11.6787 10.7344 11.5692 10.9232 11.7958 11.0252C12.1444 11.1859 12.5058 11.3237 12.8927 11.4844C13.0301 10.8594 13.1574 10.2548 13.2872 9.65015ZM34.7346 11.3977C34.7906 11.3977 34.8211 11.4053 34.844 11.3977C35.1469 11.2803 35.4446 11.1655 35.745 11.0456C36.0326 10.9283 36.0631 10.7931 35.8213 10.5992C35.5032 10.3466 35.1698 10.117 34.8415 9.87721C34.704 9.77771 34.564 9.68587 34.3604 9.54556C34.4928 10.2165 34.6124 10.8058 34.7346 11.3977ZM32.0495 9.62975C32.7138 9.49709 33.3119 9.37719 33.9074 9.25729C33.9074 9.22157 33.91 9.18841 33.91 9.15269C33.5206 8.88737 33.1312 8.6246 32.7239 8.34398C32.4873 8.79298 32.2836 9.1782 32.0495 9.62975ZM14.9237 8.34398C14.5037 8.64246 14.122 8.91288 13.7402 9.1833C13.7504 9.21136 13.7606 9.23942 13.7733 9.26749C14.3612 9.38484 14.9491 9.49964 15.6032 9.6272C15.3665 9.1833 15.1629 8.79553 14.9237 8.34398Z" fill="#FFEB61" stroke="#FFEB61" stroke-width="0.1" stroke-miterlimit="10"/>
<path d="M23.8088 22.4006C24.1295 21.8317 24.5087 21.3954 25.0355 21.1072C25.2239 21.0026 25.4198 20.9413 25.5751 21.1633C25.6871 21.3214 25.7074 21.4567 25.4911 21.5638C25.0228 21.7934 24.6563 22.1378 24.3942 22.5919C24.3331 22.6965 24.2796 22.8036 24.2364 22.9159C24.0378 23.4363 24.0506 23.4567 24.5367 23.7144C25.145 24.0384 25.4962 24.5461 25.5445 25.2374C25.5725 25.6328 25.57 26.0359 25.5471 26.4314C25.542 26.5359 25.4122 26.6354 25.3409 26.7375C25.2289 26.6559 25.0584 26.5946 25.0202 26.4849C24.9566 26.3089 24.9821 26.1023 24.9719 25.9109C24.9541 25.6354 24.9795 25.3497 24.9159 25.0844C24.7759 24.4899 24.2593 24.1175 23.7248 24.1762C23.1776 24.2374 22.7195 24.7349 22.6839 25.3395C22.6635 25.6533 22.6813 25.9696 22.6686 26.2834C22.6635 26.3905 22.6533 26.5232 22.5922 26.5946C22.5261 26.6712 22.3912 26.74 22.297 26.7273C22.2181 26.7171 22.0883 26.587 22.0909 26.513C22.1087 25.9237 22.0807 25.3216 22.2054 24.7527C22.3301 24.1838 22.7831 23.8139 23.3354 23.6226C23.5365 23.5537 23.5568 23.4644 23.5136 23.2782C23.3481 22.5715 22.9562 22.0383 22.3505 21.6531C22.1698 21.5357 21.9229 21.4413 22.068 21.1454C22.157 20.9617 22.3912 20.9643 22.6813 21.1352C23.1725 21.426 23.5314 21.8419 23.8088 22.4006Z" fill="#FFEB61" stroke="#FFEB61" stroke-width="0.1" stroke-miterlimit="10"/>
<path d="M25.2261 18.2704C25.2261 19.0995 24.6051 19.7424 23.8111 19.7424C23.0221 19.7424 22.3655 19.0919 22.3731 18.3163C22.3807 17.5025 23.0119 16.8673 23.8162 16.8648C24.6051 16.8622 25.2261 17.4821 25.2261 18.2704ZM22.989 18.3112C22.989 18.7704 23.3352 19.1276 23.7882 19.1302C24.2336 19.1327 24.6611 18.7194 24.6535 18.2857C24.6459 17.8393 24.2845 17.4796 23.8365 17.477C23.3479 17.4745 22.989 17.8265 22.989 18.3112Z" fill="#FFEB61" stroke="#FFEB61" stroke-width="0.1" stroke-miterlimit="10"/>
<path d="M21.1158 22.5562C21.1158 22.9439 21.1158 23.3343 21.1158 23.722C21.1158 23.9236 21.0497 24.0766 20.8282 24.0868C20.5788 24.097 20.5177 23.921 20.5152 23.7195C20.5126 22.9414 20.5126 22.1633 20.5203 21.3852C20.5228 21.1173 20.673 20.9541 20.8715 20.9821C21.126 21.0178 21.1489 21.2041 21.1464 21.4184C21.1387 21.7985 21.1438 22.1786 21.1438 22.5562C21.1362 22.5562 21.126 22.5562 21.1158 22.5562Z" fill="#FFEB61" stroke="#FFEB61" stroke-width="0.1" stroke-miterlimit="10"/>
<path d="M27.1223 22.6023C27.1223 22.9901 27.1401 23.3804 27.1121 23.7656C27.1044 23.8804 26.967 24.0794 26.8957 24.0768C26.771 24.0717 26.6387 23.9544 26.5369 23.8549C26.4911 23.8115 26.5063 23.6967 26.5063 23.6151C26.5063 22.8931 26.5089 22.1737 26.5114 21.4517C26.5114 21.4135 26.5114 21.3752 26.5165 21.3395C26.5445 21.1609 26.57 20.9594 26.8016 20.967C27.023 20.9747 27.1146 21.143 27.1172 21.3522C27.1223 21.7681 27.1172 22.1839 27.1172 22.5997C27.1197 22.6023 27.1197 22.6023 27.1223 22.6023Z" fill="#FFEB61" stroke="#FFEB61" stroke-width="0.1" stroke-miterlimit="10"/>
<path d="M21.2711 15.5611C21.2661 15.7627 21.0752 15.9361 20.8665 15.931C20.6451 15.9259 20.4618 15.7372 20.4669 15.5178C20.472 15.3162 20.6807 15.1274 20.8945 15.1274C21.0981 15.1325 21.2788 15.3392 21.2711 15.5611Z" fill="#FFEB61" stroke="#FFEB61" stroke-width="0.1" stroke-miterlimit="10"/>
<path d="M26.4044 15.505C26.4248 15.2805 26.5978 15.1249 26.8116 15.1402C27.0356 15.1555 27.1908 15.3468 27.1679 15.5815C27.145 15.8035 26.972 15.9464 26.748 15.9285C26.5368 15.9132 26.384 15.7244 26.4044 15.505Z" fill="#FFEB61" stroke="#FFEB61" stroke-width="0.1" stroke-miterlimit="10"/>
<path d="M23.8034 15.3032C23.587 15.3057 23.4089 15.1374 23.4012 14.9282C23.3961 14.7343 23.5692 14.5659 23.7754 14.5659C24.0121 14.5659 24.1724 14.7164 24.1698 14.9358C24.1724 15.1425 24.0146 15.3006 23.8034 15.3032Z" fill="#FFEB61" stroke="#FFEB61" stroke-width="0.1" stroke-miterlimit="10"/>
<path d="M41.7971 6.81309C41.7971 6.7085 41.7971 6.60645 41.7971 6.50186C41.7946 5.95336 41.6801 5.78499 41.1532 5.63447C41.0743 5.61151 40.9624 5.66254 40.8784 5.70591C40.4508 5.9304 40.0359 6.16511 39.6084 6.38706C39.3462 6.52482 39.1095 6.484 38.9721 6.20338C38.8372 5.93551 38.9136 5.71611 39.1783 5.5656C39.5651 5.34365 39.9469 5.10894 40.3388 4.8972C40.4915 4.81301 40.5551 4.72882 40.517 4.54769C40.4864 4.40483 40.4661 4.23901 40.5093 4.10635C40.6315 3.73134 40.4508 3.56551 40.1428 3.42775C39.84 3.29254 39.5447 3.13692 39.2648 2.96089C38.9568 2.76956 38.8805 2.48383 39.0459 2.23127C39.2317 1.943 39.4811 1.98382 39.7356 2.12158C40.1072 2.32567 40.4788 2.5272 40.8402 2.74915C41.0031 2.84865 41.138 2.91752 41.283 2.73895C41.2958 2.72109 41.3187 2.70323 41.339 2.69813C41.8582 2.59863 41.8302 2.21342 41.815 1.81799C41.8022 1.53227 41.8099 1.24398 41.8302 0.958256C41.848 0.698041 41.9931 0.524565 42.2578 0.504156C42.5149 0.483747 42.7694 0.721005 42.777 0.993976C42.7923 1.41746 42.7923 1.8435 42.7821 2.26699C42.777 2.44046 42.8661 2.49404 42.9984 2.59353C43.398 2.88691 43.7136 2.76956 44.0674 2.517C44.327 2.33077 44.6247 2.20321 44.9098 2.0578C45.1287 1.94555 45.3348 1.9532 45.4748 2.1879C45.6199 2.43026 45.658 2.68537 45.3959 2.85885C45.0447 3.09355 44.6756 3.3053 44.299 3.49663C44.0724 3.61143 43.9503 3.72623 44.0521 3.9992C44.0954 4.11145 44.1106 4.26197 44.0724 4.37166C43.9579 4.69566 44.1361 4.81812 44.3829 4.94312C44.7164 5.1166 45.0447 5.31048 45.3577 5.51713C45.6351 5.70081 45.7013 5.97377 45.5511 6.22888C45.3781 6.52226 45.1287 6.51716 44.8716 6.3743C44.5 6.17021 44.131 5.96101 43.7747 5.73396C43.6016 5.62427 43.482 5.65488 43.2886 5.71101C42.7516 5.86917 42.7236 6.23399 42.7516 6.68298C42.7719 6.96871 42.749 7.25699 42.7312 7.54272C42.7159 7.83355 42.5683 8.03253 42.2629 8.02488C41.9651 8.01722 41.8099 7.82589 41.7997 7.53251C41.7895 7.29526 41.7971 7.0529 41.7971 6.81309C41.8022 6.81309 41.8022 6.81309 41.7971 6.81309ZM43.0213 4.27727C43.029 3.84868 42.7032 3.50429 42.2807 3.49918C41.8888 3.49408 41.5554 3.83338 41.5477 4.24666C41.5401 4.63188 41.8582 4.94057 42.2807 4.95332C42.7083 4.96863 43.0111 4.69311 43.0213 4.27727Z" fill="#FFEB61"/>
<path d="M3.13747 6.83616C3.13747 6.74432 3.12474 6.64994 3.14001 6.56065C3.20873 6.12185 3.07639 5.83102 2.62082 5.67795C2.42739 5.61417 2.30523 5.59122 2.12707 5.70857C1.76567 5.95093 1.38645 6.16522 1.00724 6.37697C0.760363 6.51473 0.516035 6.51218 0.360785 6.22645C0.21317 5.95348 0.261527 5.70601 0.52367 5.53509C0.869801 5.31314 1.24393 5.12947 1.58242 4.89476C1.69695 4.81568 1.74785 4.63454 1.81148 4.49423C1.83439 4.44831 1.79876 4.37688 1.81657 4.3233C1.99473 3.78502 1.72495 3.51205 1.26174 3.32327C1.03014 3.22888 0.8189 3.08346 0.605113 2.95335C0.355695 2.80028 0.261527 2.4916 0.388781 2.24669C0.51349 2.00689 0.785814 1.93545 1.07086 2.09362C1.44244 2.29771 1.81148 2.50946 2.16779 2.73396C2.33577 2.83855 2.46811 2.86916 2.62845 2.7365C2.7048 2.67273 2.80661 2.62936 2.90586 2.6064C3.08911 2.56558 3.13492 2.45843 3.12983 2.28496C3.11965 1.88188 3.1222 1.48135 3.12729 1.07827C3.13238 0.728768 3.31053 0.509371 3.58031 0.496615C3.86027 0.48386 4.06133 0.705813 4.0766 1.07573C4.09187 1.46605 4.08678 1.85637 4.09696 2.24669C4.1046 2.59109 4.68742 2.91508 4.99538 2.74416C5.3975 2.52221 5.78944 2.28241 6.20174 2.08597C6.57333 1.90994 6.87365 2.06811 6.92964 2.43037C6.96781 2.66253 6.8711 2.82835 6.66749 2.9406C6.28573 3.14724 5.90651 3.36664 5.52475 3.57073C5.35423 3.66257 5.24988 3.75951 5.34151 3.97635C5.37968 4.06564 5.39495 4.19065 5.36441 4.27994C5.21425 4.71108 5.44331 4.88966 5.79453 5.05293C6.11521 5.2009 6.42062 5.39223 6.71585 5.58611C6.99581 5.77235 7.05689 6.04787 6.90164 6.29788C6.72858 6.5785 6.48425 6.54534 6.24247 6.41268C5.84034 6.19073 5.4484 5.95603 5.05137 5.72898C4.72051 5.53764 4.11223 5.87439 4.10205 6.25706C4.09187 6.68055 4.09696 7.10659 4.08933 7.53262C4.08424 7.84641 3.89336 8.0556 3.6134 8.04795C3.30544 8.0403 3.16292 7.84897 3.15019 7.55814C3.14001 7.31833 3.14765 7.07598 3.14765 6.83362C3.14256 6.83617 3.14001 6.83616 3.13747 6.83616ZM3.61849 4.96109C4.06388 4.95343 4.35402 4.6575 4.34129 4.22126C4.33111 3.81818 3.97989 3.49419 3.57013 3.50949C3.16546 3.52225 2.88041 3.85645 2.89059 4.30034C2.89823 4.67536 3.22146 4.96874 3.61849 4.96109Z" fill="#FFEB61"/>
<path d="M5.37455 31.9419C5.30583 31.2072 5.428 30.5592 5.80467 29.9827C5.91411 29.8143 6.06172 29.6332 6.23479 29.5566C6.37986 29.4929 6.63946 29.5082 6.75398 29.6026C6.86597 29.697 6.87615 29.9317 6.88633 30.1102C6.89142 30.197 6.80234 30.2939 6.75144 30.3832C6.27805 31.1996 6.15589 32.0389 6.70563 32.8527C7.25282 33.6665 8.09779 33.7788 8.99874 33.6869C9.14381 33.6716 9.32451 33.618 9.42632 33.6818C9.5663 33.7686 9.72155 33.9497 9.72664 34.0925C9.73173 34.2354 9.58666 34.442 9.45177 34.516C8.80532 34.863 8.12833 34.8171 7.45643 34.5696C7.34953 34.5288 7.24518 34.4829 7.13829 34.4395C7.12811 34.4344 7.11539 34.4395 7.06703 34.4395C7.05685 34.6512 7.05685 34.8655 7.03649 35.0773C6.97541 35.7227 6.7947 36.3171 6.26533 36.7457C6.08463 36.8937 5.85048 36.9447 5.71305 36.7585C5.60106 36.6105 5.59088 36.3733 5.57561 36.1717C5.56798 36.085 5.68505 35.9982 5.71814 35.9038C5.83776 35.5722 6.00064 35.2405 6.04645 34.8987C6.21443 33.6231 5.25748 32.6078 3.93913 32.6333C3.75588 32.6384 3.57009 32.6512 3.39702 32.7022C3.08398 32.794 2.87783 32.6894 2.75821 32.4063C2.6615 32.1766 2.79893 31.8986 3.09416 31.7736C3.6948 31.5159 4.30307 31.5771 4.90626 31.771C5.04623 31.8169 5.18112 31.8705 5.37455 31.9419Z" fill="#FFEB61"/>
<path d="M43.393 26.7069C43.8282 26.5232 44.2354 26.314 44.6655 26.1865C44.9531 26.0997 45.2764 26.0921 45.5818 26.1099C45.9177 26.1304 46.1137 26.3702 46.0882 26.6508C46.0602 26.985 45.8388 27.0819 45.541 27.0921C44.7342 27.1202 44.0242 27.3779 43.5712 28.0896C43.0443 28.9111 43.1919 29.9341 43.9071 30.7581C44.0114 30.8755 44.1514 31.0158 44.1565 31.151C44.1616 31.3117 44.0802 31.5515 43.958 31.6229C43.8231 31.6995 43.5635 31.6893 43.4261 31.6025C42.8127 31.2275 42.5022 30.6382 42.3571 29.9468C42.3266 29.804 42.3113 29.6586 42.3037 29.6075C41.7438 29.8065 41.2093 30.0234 40.6545 30.179C40.4254 30.2428 40.1531 30.1892 39.9088 30.1484C39.6568 30.105 39.5041 29.9417 39.5372 29.6586C39.5677 29.3907 39.7154 29.2555 39.9851 29.2223C40.3262 29.1815 40.6774 29.1636 40.9981 29.0591C42.3877 28.6101 42.884 27.1967 42.0975 25.9569C41.983 25.7732 41.8329 25.6125 41.6929 25.4441C41.5096 25.2222 41.4638 24.9798 41.6547 24.7553C41.8583 24.5155 42.1154 24.5793 42.3342 24.7425C42.8967 25.1584 43.2123 25.7324 43.3421 26.4084C43.3625 26.513 43.3803 26.6253 43.393 26.7069Z" fill="#FFEB61"/>
<path d="M23.1111 7.01232C21.9327 6.97405 21.0928 6.49189 20.6016 5.47144C20.5278 5.32092 20.4795 5.14489 20.4718 4.97652C20.4642 4.74437 20.5711 4.54794 20.823 4.48926C21.0648 4.43313 21.2506 4.52498 21.3677 4.74437C21.4262 4.85662 21.4746 4.97142 21.5306 5.08622C21.8436 5.71635 22.3679 6.03014 23.0576 6.00208C23.7422 5.97401 24.2487 5.62706 24.5261 4.98672C24.6483 4.70355 24.7603 4.42548 25.1522 4.46885C25.394 4.49691 25.5493 4.61681 25.5442 4.86172C25.5416 5.05306 25.5162 5.2597 25.4373 5.42807C24.9639 6.43577 24.1469 6.94089 23.1111 7.01232Z" fill="#FFEB61"/>
<path d="M8.4566 23.2348C8.4057 23.5588 8.39807 23.916 7.95013 23.9287C7.64981 23.9364 7.51238 23.7552 7.43857 23.2705C7.12552 23.1838 6.7514 23.1098 6.79212 22.671C6.82266 22.3317 7.10262 22.2195 7.43857 22.2016C7.46402 22.1047 7.48438 22.0077 7.51238 21.9108C7.576 21.6735 7.72616 21.5358 7.97813 21.5332C8.23009 21.5332 8.35734 21.7041 8.38788 21.9184C8.41843 22.12 8.4846 22.2092 8.70093 22.2373C8.95035 22.2705 9.16413 22.4108 9.15395 22.7093C9.14377 22.9924 8.96053 23.1328 8.69584 23.1863C8.61949 23.1991 8.54059 23.2169 8.4566 23.2348Z" fill="#FFEB61"/>
<path d="M12.7908 3.19316C12.549 3.1702 12.3989 3.03499 12.3123 2.78753C12.2716 2.67273 12.1571 2.55538 12.0451 2.5018C11.8186 2.39211 11.5895 2.28241 11.6124 1.99413C11.6328 1.72116 11.8389 1.60125 12.0884 1.51707C12.1876 1.4839 12.3072 1.3691 12.3301 1.27216C12.3938 1.00429 12.5134 0.825713 12.8061 0.825713C13.0835 0.823162 13.198 0.986432 13.2591 1.24665C13.2845 1.35635 13.4245 1.48135 13.5365 1.51197C13.8063 1.5885 14.0201 1.70841 14.0175 2.00944C14.015 2.31813 13.7859 2.41507 13.5161 2.47885C13.422 2.50181 13.3202 2.63191 13.2845 2.7365C13.198 2.97121 13.1038 3.1804 12.7908 3.19316Z" fill="#FFEB61"/>
<path d="M38.1678 23.6326C38.1474 23.7653 38.1372 23.8699 38.1169 23.9694C38.0685 24.2092 37.9285 24.3725 37.674 24.3699C37.4195 24.3674 37.2159 24.2322 37.1879 23.9719C37.1625 23.7372 37.053 23.6684 36.8571 23.574C36.7069 23.5051 36.5669 23.2882 36.5364 23.1199C36.4906 22.875 36.6814 22.7397 36.9156 22.6709C37.0123 22.6428 37.1345 22.5535 37.1599 22.4668C37.2363 22.2066 37.3254 21.977 37.646 21.9795C37.9871 21.9821 38.122 22.2015 38.1601 22.5101C38.1652 22.5433 38.183 22.5739 38.1958 22.602C38.6946 22.7142 38.8499 22.8494 38.832 23.1658C38.8066 23.5689 38.5063 23.6122 38.1678 23.6326Z" fill="#FFEB61"/>
<path d="M35.0808 5.64998C35.0833 5.95101 34.8492 6.19592 34.5488 6.20612C34.2231 6.21633 33.9457 5.95357 33.9508 5.63723C33.9558 5.32089 34.2027 5.08107 34.5234 5.08107C34.8364 5.07852 35.0782 5.32599 35.0808 5.64998Z" fill="#FFEB61"/>
<path d="M2.66153 23.1635C2.35357 23.1661 2.10161 22.9135 2.09652 22.5972C2.09143 22.291 2.32049 22.0589 2.63353 22.0538C2.94658 22.0487 3.22144 22.3012 3.22908 22.5972C3.23162 22.9008 2.97457 23.161 2.66153 23.1635Z" fill="#FFEB61"/>
<path d="M37.595 36.4701C37.5924 36.7915 37.3456 37.0339 37.0223 37.0237C36.7246 37.0135 36.4853 36.7686 36.4777 36.4701C36.4701 36.1767 36.75 35.8833 37.0351 35.8833C37.3227 35.8808 37.595 36.169 37.595 36.4701Z" fill="#FFEB61"/>
<path d="M1.4044 14.3645C1.10153 14.3747 0.849569 14.1426 0.831753 13.8416C0.813938 13.5201 1.05063 13.2625 1.37131 13.2522C1.67672 13.242 1.94395 13.4997 1.9465 13.8135C1.95413 14.1094 1.70981 14.3543 1.4044 14.3645Z" fill="#FFEB61"/>
<path d="M44.1488 14.4998C43.8205 14.4947 43.5915 14.2549 43.6016 13.9309C43.6118 13.6273 43.8536 13.3926 44.1539 13.3926C44.4619 13.3951 44.7011 13.6477 44.6986 13.9742C44.696 14.288 44.4695 14.5049 44.1488 14.4998Z" fill="#FFEB61"/>
<path d="M11.8952 7.10172C11.8875 7.41551 11.6228 7.69103 11.3352 7.68082C11.04 7.67062 10.8008 7.41806 10.8008 7.11958C10.8008 6.79814 11.0502 6.53792 11.3556 6.54557C11.6508 6.55578 11.9028 6.81344 11.8952 7.10172Z" fill="#FFEB61"/>
<path d="M14.8549 37.5567C15.1451 37.5541 15.3818 37.8143 15.3741 38.123C15.3665 38.4266 15.1476 38.6409 14.8473 38.6358C14.5521 38.6307 14.2976 38.3807 14.2925 38.0898C14.2925 37.8016 14.5495 37.5567 14.8549 37.5567Z" fill="#FFEB61"/>
<path d="M43.836 21.263C43.5942 21.24 43.444 21.1048 43.3575 20.8573C43.3168 20.7425 43.2022 20.6252 43.0903 20.5716C42.8637 20.4619 42.6347 20.3522 42.6576 20.0639C42.678 19.791 42.8841 19.6711 43.1335 19.5869C43.2328 19.5537 43.3524 19.4389 43.3753 19.342C43.4389 19.0741 43.5586 18.8955 43.8512 18.8955C44.1286 18.893 44.2432 19.0563 44.3043 19.3165C44.3297 19.4262 44.4697 19.5512 44.5817 19.5818C44.8515 19.6583 45.0652 19.7782 45.0627 20.0793C45.0602 20.3879 44.8311 20.4849 44.5613 20.5487C44.4671 20.5716 44.3653 20.7017 44.3297 20.8063C44.2432 21.041 44.149 21.2477 43.836 21.263Z" fill="#FFEB61"/>
<path d="M29.652 34.6997C29.3441 34.7022 29.0921 34.4497 29.087 34.1333C29.0819 33.8272 29.311 33.595 29.624 33.5899C29.9371 33.5848 30.2119 33.8374 30.2196 34.1333C30.2246 34.4369 29.9651 34.6971 29.652 34.6997Z" fill="#FFEB61"/>
<path d="M21.1667 31.8984C19.9884 31.9291 19.1485 32.3372 18.6573 33.1995C18.5835 33.3271 18.5351 33.475 18.5275 33.6179C18.5198 33.8143 18.6267 33.9801 18.8787 34.0286C19.1205 34.0745 19.3063 33.998 19.4233 33.8143C19.4819 33.7199 19.5302 33.6204 19.5862 33.526C19.8993 32.9929 20.4236 32.7301 21.1133 32.7531C21.7979 32.776 22.3044 33.0694 22.5818 33.6102C22.704 33.85 22.8159 34.0847 23.2079 34.0465C23.4497 34.0235 23.6049 33.9215 23.5998 33.7174C23.5973 33.5567 23.5718 33.3806 23.4929 33.2378C23.017 32.3857 22.2 31.9597 21.1667 31.8984Z" fill="#FFEB61"/>
</svg>
