<svg width="44" height="45" viewBox="0 0 44 45" fill="none" xmlns="http://www.w3.org/2000/svg">
<path d="M38.9306 8.67036C38.9306 8.57718 38.9306 8.48399 38.9306 8.38842C38.9282 7.88904 38.823 7.73612 38.3428 7.59992C38.2711 7.58081 38.1683 7.62381 38.0919 7.66443C37.7024 7.86753 37.3225 8.08258 36.9354 8.28567C36.6965 8.40992 36.4814 8.37408 36.3548 8.12081C36.2329 7.87709 36.3022 7.67638 36.5436 7.54019C36.8972 7.33709 37.2436 7.12443 37.6021 6.93328C37.7406 6.85682 37.8004 6.78036 37.7669 6.61549C37.7383 6.48647 37.7215 6.33355 37.7598 6.21408C37.8721 5.8724 37.7072 5.72187 37.4252 5.59762C37.1505 5.47576 36.8805 5.3324 36.6248 5.17231C36.3452 4.99788 36.2759 4.73744 36.4265 4.50806C36.5961 4.24523 36.8231 4.28346 37.0573 4.41009C37.3966 4.59647 37.7359 4.78045 38.0632 4.98116C38.2113 5.07195 38.3332 5.13408 38.467 4.9716C38.479 4.95488 38.5005 4.93815 38.5172 4.93576C38.9927 4.84496 38.9664 4.49372 38.9497 4.13532C38.9377 3.87487 38.9449 3.61443 38.964 3.35399C38.9807 3.11744 39.1121 2.95974 39.3559 2.94063C39.59 2.92151 39.8218 3.13894 39.8313 3.38505C39.8457 3.76974 39.8457 4.15682 39.8361 4.54151C39.8314 4.69921 39.9126 4.74939 40.0344 4.8378C40.3976 5.10541 40.6867 4.99788 41.0069 4.7685C41.2435 4.59886 41.5159 4.48178 41.7739 4.35036C41.9722 4.24762 42.161 4.25479 42.2876 4.46744C42.4191 4.68726 42.4525 4.91903 42.216 5.07912C41.8958 5.29178 41.5589 5.48293 41.2148 5.65974C41.0093 5.76487 40.897 5.87001 40.9902 6.11611C41.0284 6.21886 41.0452 6.35505 41.0093 6.45541C40.9042 6.7493 41.069 6.85921 41.2913 6.97629C41.5971 7.13399 41.8934 7.31081 42.1801 7.49957C42.4334 7.66444 42.4931 7.91532 42.3569 8.14709C42.1992 8.4147 41.9722 8.40992 41.7357 8.27851C41.3964 8.09452 41.0619 7.90337 40.7345 7.69788C40.5768 7.59753 40.4693 7.62621 40.2925 7.67877C39.8051 7.82213 39.7764 8.15426 39.8051 8.56284C39.8218 8.8209 39.8027 9.08373 39.7883 9.34417C39.774 9.60939 39.6402 9.78859 39.3606 9.78143C39.0883 9.77426 38.9497 9.59984 38.9377 9.33222C38.9258 9.11001 38.9329 8.89019 38.9306 8.67036C38.9353 8.67036 38.9329 8.67036 38.9306 8.67036ZM40.0464 6.36461C40.0536 5.97514 39.7573 5.66213 39.3726 5.65735C39.0142 5.65257 38.7131 5.9608 38.7036 6.33594C38.6964 6.68479 38.9879 6.96673 39.3702 6.97868C39.7621 6.99302 40.0368 6.74213 40.0464 6.36461Z" fill="#FFEB61"/>
<path d="M3.35754 12.3932C3.35754 12.3096 3.3456 12.2235 3.35993 12.1447C3.42206 11.7457 3.30259 11.4804 2.88922 11.3419C2.71241 11.2821 2.6025 11.263 2.44002 11.3705C2.11029 11.5904 1.76383 11.7863 1.41976 11.9774C1.19515 12.1017 0.970551 12.0993 0.829577 11.8389C0.695772 11.5904 0.738781 11.3634 0.977719 11.2104C1.29312 11.0073 1.63241 10.8425 1.94064 10.6298C2.04577 10.5581 2.09117 10.3933 2.15091 10.2666C2.17002 10.2236 2.13896 10.1591 2.15568 10.1113C2.31816 9.62151 2.07206 9.37301 1.64914 9.20098C1.43887 9.11496 1.24533 8.98354 1.0494 8.86407C0.82002 8.72549 0.736391 8.44354 0.851082 8.22133C0.965772 8.00389 1.21188 7.93699 1.47232 8.08274C1.81161 8.26672 2.14613 8.46027 2.47347 8.66575C2.62639 8.76133 2.74825 8.78761 2.894 8.66814C2.9633 8.6108 3.05887 8.57018 3.14728 8.55106C3.31215 8.51283 3.35515 8.41726 3.35277 8.25956C3.34321 7.89398 3.3456 7.52841 3.35038 7.16283C3.35515 6.84504 3.51524 6.64672 3.76374 6.63478C4.0194 6.62283 4.201 6.82593 4.21533 7.16283C4.22967 7.51646 4.22489 7.87248 4.23445 8.22849C4.24162 8.5415 4.77445 8.8354 5.05401 8.68248C5.41958 8.48177 5.77799 8.26434 6.15312 8.08513C6.49241 7.92505 6.7648 8.06841 6.81737 8.39814C6.85082 8.60841 6.7648 8.75894 6.57843 8.86168C6.22958 9.05044 5.88551 9.24876 5.53666 9.43513C5.38135 9.51876 5.28578 9.60717 5.37179 9.8031C5.40763 9.88434 5.41958 9.99903 5.39091 10.0779C5.25232 10.4697 5.46259 10.6322 5.78277 10.7804C6.07666 10.9142 6.35144 11.0886 6.62144 11.2654C6.8771 11.435 6.93206 11.6835 6.79109 11.9129C6.63339 12.1686 6.41117 12.1375 6.19135 12.0157C5.82578 11.815 5.46737 11.5999 5.10418 11.3944C4.80312 11.22 4.24639 11.5258 4.23923 11.8747C4.22967 12.2594 4.23445 12.6489 4.22728 13.0335C4.2225 13.3179 4.04808 13.509 3.7948 13.5019C3.51285 13.4947 3.38383 13.3203 3.37188 13.0574C3.36232 12.84 3.36949 12.6202 3.36949 12.4004C3.36232 12.3932 3.35993 12.3932 3.35754 12.3932ZM3.79719 10.6872C4.201 10.68 4.46622 10.41 4.45427 10.0158C4.44471 9.65018 4.12454 9.35628 3.75179 9.36823C3.38383 9.38018 3.12338 9.68363 3.13055 10.0874C3.14011 10.4267 3.434 10.6943 3.79719 10.6872Z" fill="#FFEB61"/>
<path d="M41.7023 15.2674C42.0225 14.6796 42.443 14.2495 43.0188 14.0034C43.1861 13.9317 43.3892 13.8696 43.5612 13.8983C43.7046 13.9245 43.8934 14.0679 43.9316 14.1969C43.9698 14.3236 43.8551 14.5076 43.7763 14.6485C43.7357 14.7178 43.621 14.7441 43.535 14.7847C42.7632 15.1599 42.2471 15.7357 42.2519 16.6269C42.2566 17.5206 42.8396 18.0343 43.5684 18.419C43.6855 18.4811 43.8504 18.5337 43.8958 18.634C43.9579 18.7702 43.9842 18.9853 43.9149 19.0976C43.8456 19.2075 43.6305 19.2911 43.4919 19.2792C42.8253 19.2146 42.3379 18.8347 41.9556 18.3091C41.8934 18.2254 41.8409 18.1346 41.7811 18.0486C41.7764 18.0415 41.7644 18.0367 41.7262 18.0128C41.6115 18.1681 41.5016 18.3306 41.3797 18.4811C41.007 18.9375 40.5697 19.2959 39.9533 19.3532C39.743 19.3723 39.5399 19.2935 39.528 19.0832C39.5184 18.916 39.6283 18.7296 39.7191 18.5719C39.7573 18.505 39.8888 18.4978 39.9628 18.4429C40.2209 18.2517 40.51 18.0845 40.7203 17.8479C41.4944 16.971 41.2794 15.7166 40.2687 15.0691C40.1301 14.9807 39.9796 14.8946 39.8219 14.8468C39.5375 14.7584 39.4348 14.5745 39.4873 14.2997C39.5303 14.0751 39.7765 13.9365 40.0608 13.9914C40.6462 14.1014 41.0763 14.455 41.4347 14.909C41.5183 15.0045 41.5924 15.1145 41.7023 15.2674Z" fill="#FFEB61"/>
<path d="M6.20326 39.4694C6.24626 39.8971 6.32033 40.3057 6.31795 40.7167C6.31556 40.9915 6.23671 41.2758 6.13874 41.5339C6.03122 41.8206 5.77078 41.9281 5.53423 41.8325C5.24989 41.7178 5.226 41.5004 5.29529 41.2376C5.48644 40.5255 5.4506 39.8398 4.95361 39.2544C4.38016 38.5782 3.45069 38.4324 2.54511 38.8386C2.41369 38.896 2.25599 38.9844 2.13653 38.9533C1.99555 38.9151 1.80918 38.7789 1.78051 38.657C1.74944 38.5185 1.82829 38.2962 1.93821 38.1983C2.42564 37.7634 3.02538 37.6487 3.66095 37.7061C3.79237 37.718 3.92378 37.7443 3.97157 37.7515C3.94768 37.2091 3.89989 36.6858 3.91423 36.1625C3.919 35.9451 4.03847 35.7229 4.13883 35.5222C4.24396 35.3143 4.42794 35.2235 4.6621 35.3286C4.8867 35.4266 4.96555 35.5915 4.92016 35.8328C4.8652 36.141 4.78635 36.4516 4.79113 36.7575C4.81263 38.0884 5.90936 38.8936 7.19485 38.54C7.386 38.4874 7.5652 38.4014 7.74919 38.3249C7.99051 38.2246 8.21512 38.2509 8.35848 38.4755C8.51379 38.7168 8.38715 38.9247 8.18883 39.0728C7.6775 39.4527 7.09688 39.5746 6.47087 39.5077C6.37768 39.4933 6.27733 39.479 6.20326 39.4694Z" fill="#FFEB61"/>
<path d="M22.9339 43.957C21.8946 44.2365 21.0368 44.0382 20.3367 43.2784C20.2339 43.1661 20.1431 43.0275 20.093 42.8817C20.0261 42.681 20.0667 42.4803 20.2698 42.3656C20.4657 42.2533 20.6545 42.2844 20.8122 42.4445C20.8934 42.5257 20.9651 42.6141 21.0439 42.7002C21.4836 43.1661 22.0236 43.2999 22.6162 43.0944C23.2063 42.8889 23.5552 42.454 23.6293 41.8232C23.6627 41.5437 23.6866 41.2737 24.0378 41.2068C24.2553 41.1662 24.4225 41.2307 24.4847 41.4433C24.5324 41.6106 24.5659 41.797 24.542 41.9642C24.3962 42.9654 23.818 43.6201 22.9339 43.957Z" fill="#FFEB61"/>
<path d="M3.19895 17.7159C3.15358 18.0096 3.14641 18.3368 2.73805 18.3463C2.46343 18.3535 2.33925 18.1887 2.27238 17.7469C1.9882 17.6681 1.64671 17.6012 1.68253 17.2024C1.71119 16.8944 1.96671 16.7917 2.27238 16.775C2.29388 16.6866 2.31537 16.5983 2.33925 16.5099C2.39895 16.295 2.53507 16.1684 2.76432 16.166C2.99358 16.166 3.11059 16.3212 3.13925 16.5171C3.16791 16.7009 3.22761 16.7821 3.42343 16.806C3.65268 16.8347 3.84612 16.9636 3.83418 17.2335C3.82462 17.4914 3.65746 17.618 3.41626 17.6681C3.34701 17.6848 3.27776 17.6992 3.19895 17.7159Z" fill="#FFEB61"/>
<path d="M22.7251 29.4519C22.5054 29.4304 22.3693 29.3086 22.2881 29.0841C22.2499 28.9791 22.1448 28.8716 22.0445 28.8239C21.8367 28.7236 21.629 28.6256 21.6505 28.363C21.6696 28.1146 21.8582 28.0047 22.0827 27.9283C22.1734 27.8997 22.2809 27.7946 22.3024 27.7038C22.3597 27.4603 22.4696 27.3003 22.7346 27.2979C22.9878 27.2955 23.0929 27.4435 23.1478 27.68C23.1717 27.7779 23.2982 27.8925 23.4009 27.9212C23.6469 27.9904 23.8427 28.1003 23.8403 28.3725C23.8379 28.6543 23.6302 28.7403 23.3842 28.7976C23.2982 28.8167 23.2051 28.9361 23.174 29.0316C23.0952 29.2489 23.0093 29.44 22.7251 29.4519Z" fill="#FFEB61"/>
<path d="M12.9834 25.8518C12.9667 25.9736 12.9547 26.0667 12.938 26.1574C12.8926 26.3748 12.7661 26.5228 12.5344 26.5228C12.3028 26.5204 12.1165 26.3963 12.0926 26.1622C12.0711 25.9497 11.9708 25.8852 11.7917 25.8016C11.6556 25.7371 11.5291 25.5437 11.498 25.3885C11.455 25.164 11.6294 25.0446 11.8443 24.9801C11.9326 24.9539 12.0425 24.8727 12.0688 24.7939C12.138 24.5574 12.2192 24.3497 12.5106 24.3521C12.821 24.3545 12.9452 24.5551 12.9786 24.8345C12.9834 24.8631 13.0001 24.8918 13.012 24.918C13.4658 25.0183 13.6091 25.1425 13.5923 25.4315C13.5661 25.7945 13.2914 25.8327 12.9834 25.8518Z" fill="#FFEB61"/>
<path d="M36.0149 15.9313C36.0173 16.2059 35.8024 16.428 35.5301 16.4376C35.234 16.4471 34.9809 16.2083 34.9857 15.9194C34.9904 15.6328 35.2149 15.4131 35.5063 15.4131C35.7928 15.4131 36.0125 15.6376 36.0149 15.9313Z" fill="#FFEB61"/>
<path d="M1.93807 23.4385C1.65628 23.4409 1.42942 23.2116 1.42464 22.9251C1.41986 22.6457 1.63001 22.4355 1.91181 22.4307C2.19598 22.426 2.44673 22.6552 2.4539 22.9251C2.45867 23.2021 2.22225 23.4361 1.93807 23.4385Z" fill="#FFEB61"/>
<path d="M21.4039 1.57113C21.4015 1.86486 21.1747 2.08456 20.8833 2.07501C20.6135 2.06546 20.3938 1.84337 20.3866 1.57113C20.3795 1.30366 20.635 1.0362 20.8953 1.03859C21.158 1.0362 21.4063 1.2965 21.4039 1.57113Z" fill="#FFEB61"/>
<path d="M21.1841 15.9455C20.9095 15.955 20.6778 15.7449 20.6635 15.4703C20.6468 15.1789 20.8617 14.9449 21.1555 14.9353C21.4349 14.9258 21.676 15.1598 21.6784 15.444C21.6832 15.7115 21.4611 15.9359 21.1841 15.9455Z" fill="#FFEB61"/>
<path d="M13.5358 42.4248C13.2373 42.42 13.0271 42.2004 13.0391 41.9066C13.0486 41.632 13.2683 41.4171 13.5429 41.4195C13.8247 41.4218 14.0397 41.6511 14.0373 41.9472C14.0349 42.2314 13.8271 42.4296 13.5358 42.4248Z" fill="#FFEB61"/>
<path d="M17.7817 17.7902C17.7745 18.0767 17.5333 18.3251 17.2706 18.3179C17.0031 18.3084 16.7834 18.0791 16.7834 17.8069C16.7834 17.5132 17.0127 17.2791 17.2873 17.2863C17.5596 17.2935 17.7888 17.5275 17.7817 17.7902Z" fill="#FFEB61"/>
<path d="M4.5567 28.1846C4.82177 28.1822 5.0367 28.4186 5.02954 28.698C5.02237 28.9727 4.82416 29.1685 4.54954 29.1661C4.28207 29.1613 4.04804 28.9344 4.04565 28.6718C4.04565 28.4067 4.2773 28.1846 4.5567 28.1846Z" fill="#FFEB61"/>
<path d="M12.8984 1.04106C13.9186 0.704155 14.7884 0.854685 15.5291 1.57389C15.639 1.67902 15.737 1.81521 15.7943 1.95619C15.8732 2.15451 15.8421 2.35522 15.6462 2.48186C15.4574 2.60371 15.2687 2.5846 15.099 2.43406C15.013 2.3576 14.9365 2.27159 14.8529 2.19274C14.387 1.75309 13.8422 1.64796 13.2592 1.8869C12.6809 2.12345 12.356 2.57982 12.3178 3.21301C12.301 3.49256 12.2915 3.76495 11.945 3.85097C11.73 3.90354 11.5603 3.84858 11.4863 3.6407C11.4289 3.47584 11.3859 3.29185 11.4002 3.12221C11.4934 2.1115 12.0334 1.42575 12.8984 1.04106Z" fill="#FFEB61"/>
<path d="M40.5639 28.2623C40.5186 28.556 40.5114 28.8832 40.103 28.8927C39.8284 28.8999 39.7042 28.7351 39.6374 28.2933C39.3532 28.2145 39.0117 28.1476 39.0475 27.7488C39.0762 27.4408 39.3317 27.3381 39.6374 27.3214C39.6589 27.233 39.6804 27.1446 39.7042 27.0563C39.7639 26.8414 39.9001 26.7148 40.1293 26.7124C40.3586 26.7124 40.4756 26.8676 40.5042 27.0634C40.5329 27.2473 40.5926 27.3285 40.7884 27.3524C41.0177 27.3811 41.2111 27.51 41.1992 27.7799C41.1896 28.0378 41.0224 28.1643 40.7813 28.2145C40.712 28.2312 40.6427 28.2479 40.5639 28.2623Z" fill="#FFEB61"/>
<path d="M31.0735 3.53716C31.0281 3.83089 31.0209 4.15805 30.6126 4.16761C30.3379 4.17477 30.2138 4.00999 30.1469 3.5682C29.8627 3.48939 29.5212 3.42253 29.557 3.02372C29.5857 2.71566 29.8412 2.61298 30.1469 2.59626C30.1684 2.5079 30.1899 2.41954 30.2138 2.33119C30.2735 2.11626 30.4096 1.98969 30.6388 1.9873C30.8681 1.9873 30.9851 2.14253 31.0138 2.33835C31.0424 2.52223 31.1021 2.60343 31.2979 2.62731C31.5272 2.65596 31.7206 2.78492 31.7087 3.05477C31.6991 3.31268 31.532 3.43925 31.2908 3.4894C31.2215 3.50611 31.1499 3.52044 31.0735 3.53716Z" fill="#FFEB61"/>
<path d="M32.1968 40.9742C32.1514 41.2679 32.1442 41.5951 31.7359 41.6046C31.4612 41.6118 31.3371 41.447 31.2702 41.0052C30.986 40.9264 30.6445 40.8595 30.6803 40.4607C30.709 40.1527 30.9645 40.05 31.2702 40.0333C31.2917 39.9449 31.3132 39.8566 31.3371 39.7682C31.3968 39.5533 31.5329 39.4267 31.7621 39.4243C31.9914 39.4243 32.1084 39.5795 32.1371 39.7754C32.1657 39.9592 32.2254 40.0404 32.4212 40.0643C32.6505 40.093 32.8439 40.2219 32.832 40.4918C32.8224 40.7497 32.6553 40.8763 32.4141 40.9264C32.3472 40.9431 32.2756 40.9575 32.1968 40.9742Z" fill="#FFEB61"/>
<path d="M36.3904 34.2888C36.1158 34.2983 35.8841 34.0882 35.8698 33.8135C35.8531 33.5222 36.068 33.2882 36.3617 33.2786C36.6412 33.2691 36.8823 33.5031 36.8847 33.7873C36.8895 34.0547 36.6674 34.2792 36.3904 34.2888Z" fill="#FFEB61"/>
<path d="M32.4674 12.2497C32.8091 13.1672 32.8497 14.068 32.6395 14.9712C32.5582 15.3129 32.4077 15.6426 32.2596 15.9604C32.1234 16.2543 32.0206 16.2734 31.7387 16.1062C30.685 15.4849 29.8367 14.6797 29.3684 13.4444C29.3206 13.5925 29.28 13.6905 29.2537 13.7932C28.9909 14.8255 28.4389 15.6928 27.7388 16.4765C27.5812 16.6533 27.4473 16.6079 27.2944 16.4789C26.4677 15.7788 25.9803 14.8756 25.9134 13.8124C25.8656 13.0239 25.985 12.2258 26.0352 11.4325C26.04 11.368 26.0543 11.3035 26.0735 11.184C25.5287 11.1363 24.9958 11.055 24.4654 11.0502C22.2648 11.0263 20.3318 11.7885 18.6807 13.2102C17.1706 14.5101 15.9449 16.0393 15.3045 17.9747C15.1826 18.3474 15.0178 18.7082 14.8577 19.0666C14.786 19.2267 14.7908 19.3366 14.9198 19.4728C15.228 19.8002 15.5363 20.1371 15.8063 20.4955C16.4084 21.2935 17.1563 21.91 18.0236 22.3926C18.0642 22.4165 18.1072 22.438 18.1479 22.4667C18.5445 22.7391 18.5254 23.1979 18.0905 23.3938C17.3522 23.7235 16.5804 23.8167 15.7824 23.6447C14.872 23.4487 14.0692 23.0282 13.3094 22.5097C13.1373 22.3926 13.0561 22.4094 12.9103 22.5599C11.4409 24.0867 9.68945 25.0998 7.57724 25.42C6.94166 25.5156 6.60715 25.1261 6.75768 24.4977C6.96317 23.6399 7.1806 22.7821 7.38609 21.9219C7.40998 21.824 7.40998 21.714 7.39326 21.6137C7.32158 21.1764 7.37653 20.7774 7.55096 20.3545C7.76122 19.8432 7.85202 19.284 7.99538 18.7464C8.49954 16.8421 9.0037 14.9401 9.50547 13.0358C9.55804 12.8375 9.67512 12.6774 9.87344 12.6917C10.0359 12.7013 10.2103 12.7921 10.3441 12.8948C10.4397 12.9689 10.4756 13.1218 10.5687 13.2939C10.6094 13.1577 10.6452 13.0669 10.6667 12.9737C11.0992 11.0789 11.957 9.40395 13.2425 7.94642C13.4145 7.75049 13.5913 7.56412 13.878 7.68359C14.1648 7.80306 14.1504 8.07306 14.1528 8.32395C14.1552 8.41713 14.1361 8.51271 14.1241 8.65129C14.2173 8.58439 14.2818 8.54855 14.332 8.49837C16.363 6.52235 18.836 5.46863 21.6005 5.03376C23.0222 4.80916 24.4511 4.79483 25.8823 4.96447C26.1141 4.99315 26.2288 5.12217 26.2718 5.32288C26.3196 5.54032 26.2598 5.71713 26.0304 5.81748C25.9086 5.87005 25.8011 5.95846 25.6864 6.03253C25.6935 6.05642 25.7031 6.08031 25.7103 6.10421C26.0997 6.18545 26.4916 6.25713 26.8787 6.34793C29.6623 7.01934 32.1568 8.28094 34.3933 10.0562C35.3777 10.84 36.3263 11.6715 37.2868 12.4839C37.3466 12.534 37.3991 12.5914 37.4517 12.6439C37.6094 12.8064 37.6596 12.9952 37.5449 13.1959C37.4278 13.4038 37.239 13.4253 37.0192 13.3703C35.7911 13.0549 34.5605 12.7467 33.33 12.4409C33.0576 12.3716 32.7781 12.319 32.4674 12.2497ZM9.0706 17.86C9.1399 17.8552 9.16857 17.86 9.19246 17.8504C9.96662 17.492 10.7814 17.4155 11.6153 17.5159C11.8256 17.5422 11.9164 17.4848 11.9904 17.2841C12.5639 15.7215 13.1899 14.1827 14.1695 12.8184C15.737 10.6369 17.7417 9.07421 20.3891 8.43147C22.4535 7.9297 24.5227 8.00377 26.5919 8.42669C28.7997 8.87828 30.9287 9.59748 33.0528 10.3262C33.1508 10.3597 33.2512 10.3836 33.3491 10.4099C33.3611 10.3812 33.373 10.3525 33.3874 10.3262C33.0098 10.0682 32.6395 9.80058 32.2548 9.55209C30.2644 8.25704 28.1092 7.38014 25.7652 6.98111C25.285 6.89987 24.7904 6.87837 24.3053 6.83058C24.0592 6.80669 23.837 6.7374 23.8274 6.43872C23.8179 6.17111 23.9923 6.04447 24.2336 5.99669C24.2719 5.98952 24.3173 5.9943 24.3459 5.97279C24.42 5.91784 24.4869 5.85093 24.6231 5.73146C24.377 5.70996 24.2241 5.67412 24.0759 5.68607C23.1584 5.75536 22.2265 5.75775 21.3234 5.925C19.1657 6.31925 17.1706 7.12209 15.4885 8.57722C14.9963 9.00253 14.5757 9.50908 14.1265 9.98218C13.8757 10.2498 13.6224 10.245 13.4264 9.92961C13.3548 9.81492 13.3404 9.662 13.3118 9.52342C13.2974 9.44696 13.3094 9.36811 13.3094 9.2582C13.2425 9.30359 13.2138 9.31315 13.1971 9.33465C13.1517 9.38483 13.1134 9.43979 13.0752 9.49474C12.3942 10.4839 11.8829 11.5544 11.5651 12.7156C11.3787 13.4014 11.2163 14.0919 11.0418 14.7824C10.9941 14.9688 10.9152 15.1361 10.6858 15.1337C10.4636 15.1289 10.2987 15.0309 10.2342 14.804C10.2056 14.7012 10.1912 14.5961 10.1626 14.4957C10.1434 14.4312 10.11 14.3715 10.0813 14.307C10.0574 14.3093 10.0359 14.3117 10.012 14.3117C9.70379 15.4778 9.39078 16.6509 9.0706 17.86ZM34.422 11.1506C34.195 11.5162 33.9082 11.4923 33.5785 11.3824C32.1162 10.883 30.6539 10.3669 29.1773 9.91288C27.0579 9.25819 24.9003 8.79704 22.659 8.90934C20.4011 9.02165 18.4011 9.79342 16.6832 11.2629C14.6641 12.988 13.534 15.2723 12.6738 17.7166C13.1708 18.0248 13.663 18.3283 14.1767 18.6437C14.3034 18.3068 14.4348 17.9699 14.559 17.6282C15.4096 15.3105 16.8624 13.442 18.8551 12.0108C20.6185 10.7444 22.6017 10.1112 24.7927 10.2832C25.9707 10.374 27.1558 10.4577 28.3171 10.6536C30.2835 10.9857 32.2404 11.4015 34.1974 11.7933C34.6776 11.8889 35.1483 12.0394 35.6238 12.1637C35.3251 11.8602 35.005 11.6046 34.6824 11.3489C34.6131 11.2868 34.5366 11.2342 34.422 11.1506ZM8.72175 19.4561C9.99051 19.2601 10.7169 19.5421 11.1589 20.3855C11.5197 21.0737 11.374 21.9984 10.8196 22.5814C10.5257 22.8896 10.1673 23.076 9.74919 23.1668C9.10644 23.3078 8.56883 23.064 8.04078 22.7032C7.89503 23.3508 7.75883 23.9672 7.61786 24.5933C7.70388 24.5933 7.73255 24.598 7.76122 24.5909C10.5831 23.9266 12.5495 22.2158 13.8111 19.6425C13.8876 19.4895 13.8518 19.3892 13.7084 19.3103C13.2401 19.0499 12.7933 18.7345 12.2987 18.5338C11.2282 18.0989 10.1721 18.2064 9.17335 18.7918C8.93441 18.9376 8.7122 19.1025 8.72175 19.4561ZM28.8953 11.5448C28.2621 11.4564 27.6552 11.368 27.0483 11.2963C26.9934 11.2892 26.8787 11.3871 26.8715 11.4445C26.8046 12.178 26.6971 12.9139 26.7114 13.6499C26.7234 14.3285 27.0149 14.9449 27.4378 15.5279C28.3911 14.3715 28.7758 13.043 28.8953 11.5448ZM31.7387 15.0668C31.7793 14.9401 31.8151 14.8446 31.8414 14.7466C32.0732 13.9008 31.9155 13.0716 31.7124 12.2497C31.6933 12.1756 31.581 12.0944 31.495 12.0729C31.1628 11.9845 30.8235 11.9152 30.4866 11.8459C30.2143 11.7909 29.9395 11.7479 29.636 11.693C29.9371 13.0932 30.4484 14.2926 31.7387 15.0668ZM10.5114 21.2744C10.5042 20.6269 10.0168 20.149 9.37406 20.1562C8.72414 20.1609 8.20326 20.6747 8.21282 21.2935C8.22237 21.91 8.72414 22.4046 9.33821 22.4022C9.99052 22.4022 10.521 21.8932 10.5114 21.2744ZM17.0368 22.7988C16.5709 22.3902 16.0834 22.0175 15.6629 21.5779C15.2424 21.1382 14.8911 20.634 14.4897 20.1347C14.1528 20.7033 13.8613 21.1956 13.5626 21.6997C14.6379 22.4165 15.6844 23.1238 17.0368 22.7988Z" fill="#FFEB61"/>
<path d="M10.7381 31.4483C10.4514 30.6479 10.3797 29.869 10.547 29.102C10.6521 28.6241 10.8863 28.1725 11.0726 27.7114C11.1443 27.5369 11.2614 27.5154 11.4382 27.611C12.5302 28.1964 13.4142 28.9729 13.8706 30.1605C13.8754 30.1772 13.8945 30.1891 13.9375 30.2321C13.9662 30.1151 13.9877 30.0171 14.014 29.9239C14.2768 28.9204 14.7762 28.0411 15.4309 27.243C15.5862 27.0519 15.7152 27.1068 15.8657 27.2311C16.6829 27.9073 17.1751 28.7866 17.2683 29.826C17.3376 30.5834 17.2349 31.3552 17.2062 32.1222C17.2014 32.2153 17.1847 32.3085 17.1703 32.4017C18.518 32.5475 19.825 32.5761 21.1296 32.1914C23.6527 31.446 25.4902 29.8403 26.9381 27.709C27.5474 26.8129 27.8389 25.7831 28.2571 24.8035C28.4148 24.4331 28.4219 24.1894 28.0874 23.8955C27.7099 23.5634 27.4112 23.1381 27.0863 22.7462C26.5893 22.1441 25.9824 21.6805 25.2966 21.315C25.2035 21.2648 25.1079 21.2194 25.0195 21.1621C24.6515 20.9207 24.673 20.4787 25.072 20.2947C25.9657 19.8861 26.8808 19.7499 27.8485 20.0271C28.6394 20.2541 29.3347 20.6531 29.9798 21.1406C30.1614 21.2767 30.2546 21.2529 30.4027 21.0952C31.7623 19.6663 33.4062 18.7177 35.3177 18.2327C35.4563 18.1968 35.5997 18.1682 35.743 18.1514C36.3141 18.0845 36.6558 18.4501 36.5243 19.0116C36.3356 19.8144 36.1229 20.6149 35.9151 21.4129C35.8338 21.7283 35.7502 22.027 35.841 22.3663C35.8912 22.5551 35.8267 22.7868 35.7741 22.9875C35.5471 23.8692 35.2962 24.7461 35.0692 25.6254C34.6391 27.2884 34.2234 28.9562 33.7813 30.6192C33.7431 30.7674 33.595 30.9418 33.4564 30.9991C33.2461 31.0852 33.0454 30.9609 32.9116 30.7722C32.8351 30.6646 32.773 30.5476 32.6703 30.3779C32.6273 30.526 32.5938 30.6192 32.5747 30.7148C32.1518 32.6215 31.3155 34.3156 30.0037 35.7707C29.9392 35.8424 29.8771 35.9165 29.8006 35.9738C29.4924 36.2008 29.1173 36.0503 29.0671 35.668C29.0408 35.4721 29.0623 35.2714 29.0623 35.042C28.993 35.0898 28.9142 35.1328 28.852 35.1949C27.2583 36.8006 25.2966 37.7157 23.1366 38.27C21.4545 38.7025 19.7485 38.8411 18.0186 38.7288C17.7892 38.7145 17.5598 38.6834 17.3304 38.6595C17.0963 38.6356 16.9338 38.5257 16.8908 38.2772C16.8478 38.0263 16.9816 37.8758 17.1871 37.773C17.3209 37.7061 17.4595 37.6464 17.5933 37.5222C17.2253 37.4505 16.8549 37.3836 16.487 37.3047C13.9877 36.7695 11.7034 35.7397 9.66529 34.2081C8.39175 33.2499 7.18989 32.1962 5.96175 31.1807C5.70131 30.9657 5.65591 30.7435 5.78972 30.5284C5.91874 30.3182 6.09795 30.3134 6.31538 30.3683C7.67494 30.71 9.03689 31.0421 10.3988 31.3743C10.492 31.4006 10.5852 31.4173 10.7381 31.4483ZM34.2043 25.7998C33.3536 26.1774 32.5484 26.2992 31.7121 26.1726C31.3203 26.1129 31.3227 26.1081 31.196 26.4904C30.6847 28.01 30.0396 29.4628 29.1005 30.7745C27.4351 33.097 25.2775 34.6955 22.4437 35.3024C20.4605 35.7253 18.4893 35.582 16.5204 35.1877C14.4512 34.772 12.4585 34.1029 10.4753 33.3981C10.265 33.3216 10.0476 33.2738 9.83016 33.2117C9.8206 33.2332 9.80866 33.2547 9.80149 33.2762C9.87795 33.3407 9.94963 33.4148 10.0333 33.4674C10.7381 33.919 11.4191 34.4088 12.1526 34.8078C14.2816 35.9595 16.5228 36.7456 18.9743 36.8101C19.2204 36.8173 19.4068 36.9057 19.4307 37.1876C19.4546 37.4648 19.2921 37.5843 19.0532 37.6464C18.9265 37.6799 18.8047 37.73 18.678 37.773C18.6828 37.8184 18.6852 37.8638 18.69 37.9092C18.9958 37.9307 19.3041 37.9905 19.6051 37.9642C20.3984 37.8949 21.1965 37.8352 21.9778 37.6894C24.1139 37.288 26.1043 36.5306 27.7697 35.0778C28.2547 34.6549 28.692 34.1794 29.1507 33.7278C29.349 33.5295 29.502 33.5128 29.6764 33.7302C29.7767 33.8568 29.8197 34.036 29.8723 34.1985C29.901 34.2941 29.8962 34.3992 29.9177 34.5904C30.0826 34.3825 30.2235 34.2511 30.3072 34.0886C30.6919 33.3288 31.1339 32.5857 31.4206 31.7876C31.7408 30.8868 31.92 29.9359 32.1542 29.004C32.1996 28.8272 32.245 28.6647 32.4576 28.6337C32.6846 28.6002 32.859 28.6838 32.9594 28.8869C33.0239 29.0136 33.055 29.1569 33.1028 29.2931C33.1266 29.3576 33.1529 29.4222 33.1768 29.4843C33.2127 29.4891 33.2485 29.4891 33.2843 29.4938C33.5806 28.2848 33.8841 27.0734 34.2043 25.7998ZM29.0647 24.9731C29.0384 25.009 29.0193 25.0209 29.0145 25.04C28.5223 26.8894 27.5904 28.4975 26.3002 29.8976C24.2358 32.1365 21.7126 33.3718 18.6255 33.3121C15.72 33.2547 12.8718 32.7888 10.05 32.1222C9.25432 31.9334 8.45866 31.747 7.66299 31.5583C7.65582 31.5726 7.64627 31.5869 7.6391 31.6037C8.04768 31.9262 8.45627 32.2512 8.89591 32.6C9.11574 32.0911 9.45264 32.1771 9.84689 32.3109C11.5481 32.8796 13.2446 33.4745 14.9697 33.9715C16.9123 34.533 18.8931 34.9153 20.9408 34.7075C22.3911 34.5593 23.7794 34.2033 25.041 33.4554C26.9764 32.3109 28.3646 30.6479 29.3897 28.6814C29.858 27.783 30.2116 26.8249 30.6082 25.9098C30.0563 25.5705 29.5665 25.2766 29.0647 24.9731ZM34.5125 24.328C33.4205 24.5717 32.5866 24.2898 32.1159 23.5275C31.6882 22.8322 31.7026 21.9577 32.2139 21.3723C33.0812 20.3736 34.0824 20.3712 35.1624 21.0975C35.344 20.3998 35.5136 19.738 35.6881 19.0666C35.6116 19.0594 35.5829 19.0522 35.5567 19.0546C35.4993 19.0618 35.4443 19.0761 35.3894 19.0905C32.6822 19.7858 30.7635 21.4559 29.4757 23.8955C29.4351 23.9744 29.4589 24.1536 29.5211 24.2061C30.8042 25.3267 32.3262 25.8214 34.0083 24.9851C34.2831 24.8465 34.4862 24.6768 34.5125 24.328ZM16.3508 32.3706C16.6184 30.8916 16.6972 29.4891 15.7463 28.2036C14.9028 29.3744 14.5014 30.6718 14.3628 32.0911C15.0342 32.1843 15.6841 32.2775 16.3508 32.3706ZM13.5887 32.0027C13.5337 30.6646 12.3916 28.8893 11.4788 28.6886C11.4549 28.7579 11.4263 28.8272 11.4072 28.9013C11.2112 29.6348 11.2495 30.3564 11.4334 31.0923C11.5266 31.4675 11.6748 31.6562 12.0762 31.7016C12.5756 31.759 13.0678 31.8952 13.5887 32.0027ZM33.8602 21.4153C33.2079 21.4105 32.6559 21.9075 32.6416 22.5121C32.6297 23.1237 33.1386 23.6136 33.7981 23.6207C34.4743 23.6279 34.9951 23.1333 34.9928 22.481C34.9928 21.8932 34.4934 21.4225 33.8602 21.4153ZM26.1735 20.8944C27.2918 21.4918 27.9202 22.5694 28.7517 23.463C29.091 22.9326 29.4064 22.4356 29.7218 21.941C28.6609 21.1405 27.5666 20.5265 26.1735 20.8944Z" fill="#FFEB61"/>
</svg>
