<svg width="46" height="36" viewBox="0 0 46 36" fill="none" xmlns="http://www.w3.org/2000/svg">
<path d="M42.0914 6.70191C42.0914 6.60363 42.0914 6.50535 42.0914 6.40455C42.0888 5.87786 41.978 5.71909 41.474 5.57545C41.3984 5.55529 41.29 5.60065 41.2094 5.64349C40.8011 5.8577 40.4004 6.08449 39.9897 6.2987C39.7377 6.42974 39.5109 6.39194 39.3773 6.12481C39.2488 5.86777 39.3219 5.65861 39.5764 5.51245C39.9493 5.29824 40.3147 5.07649 40.6902 4.87236C40.8364 4.79172 40.8994 4.71108 40.8616 4.5372C40.8314 4.40111 40.8137 4.24235 40.854 4.11383C40.9725 3.75347 40.7986 3.5947 40.5012 3.46366C40.2114 3.33514 39.9267 3.18394 39.657 3.0151C39.3622 2.83114 39.2891 2.55645 39.4479 2.31453C39.6268 2.03732 39.8662 2.07765 40.1106 2.21121C40.466 2.40777 40.8238 2.5993 41.1716 2.8135C41.3278 2.90926 41.4563 2.97477 41.5949 2.80341C41.6075 2.78577 41.6302 2.76814 41.6479 2.76562C42.1468 2.67238 42.1191 2.30193 42.104 1.9214C42.0914 1.64924 42.0989 1.37204 42.1191 1.09735C42.1367 0.84787 42.2753 0.681553 42.5299 0.661393C42.7768 0.641233 43.0213 0.870552 43.0288 1.13012C43.0439 1.53584 43.044 1.94408 43.0339 2.34981C43.0288 2.51613 43.1145 2.56905 43.243 2.66229C43.6261 2.94454 43.9285 2.83114 44.2687 2.58922C44.5182 2.41281 44.8029 2.28933 45.0776 2.14821C45.2868 2.03985 45.4859 2.04741 45.6194 2.27169C45.758 2.50353 45.7933 2.74797 45.5438 2.91429C45.2061 3.13858 44.8533 3.34019 44.4904 3.52415C44.2737 3.63504 44.1553 3.74591 44.2536 4.00295C44.2939 4.11131 44.3115 4.25496 44.2737 4.35828C44.1628 4.66825 44.3367 4.78416 44.5711 4.90513C44.8911 5.07145 45.2061 5.25793 45.5085 5.45701C45.7757 5.6309 45.8361 5.89549 45.695 6.13993C45.5287 6.42218 45.2893 6.41715 45.0398 6.27855C44.6845 6.0845 44.3292 5.8829 43.9864 5.66618C43.8201 5.56034 43.7067 5.59058 43.5202 5.64602C43.0062 5.79722 42.9759 6.14751 43.0061 6.57843C43.0238 6.85059 43.0036 7.12779 42.9885 7.40247C42.9734 7.6822 42.8323 7.8712 42.5374 7.86364C42.2501 7.85608 42.104 7.67212 42.0914 7.3924C42.0813 7.16307 42.0889 6.93123 42.0889 6.70191C42.0939 6.70191 42.0939 6.70191 42.0914 6.70191ZM43.2632 4.27007C43.2708 3.85931 42.9583 3.53171 42.5525 3.52415C42.1771 3.51911 41.857 3.84419 41.8495 4.23983C41.8419 4.60776 42.1493 4.90512 42.5525 4.91772C42.9658 4.93284 43.2556 4.66824 43.2632 4.27007Z" fill="#FFEB61"/>
<path d="M2.97302 7.04191C2.97302 6.95371 2.96042 6.86551 2.97554 6.77983C3.04106 6.35899 2.91506 6.07927 2.47909 5.93311C2.29261 5.87011 2.17669 5.84994 2.00532 5.96335C1.65756 6.19519 1.29468 6.40183 0.929273 6.60343C0.69239 6.73447 0.458021 6.73195 0.30934 6.45978C0.168218 6.20022 0.216105 5.96082 0.465588 5.79701C0.798232 5.58281 1.15608 5.40893 1.48116 5.18465C1.59204 5.10905 1.63992 4.93516 1.70292 4.8016C1.72308 4.75624 1.69032 4.68821 1.70796 4.63781C1.87932 4.1212 1.61976 3.85912 1.17623 3.67767C0.954468 3.58695 0.752866 3.44834 0.546223 3.32234C0.3043 3.17618 0.218622 2.87882 0.337064 2.64445C0.458025 2.41513 0.71759 2.34458 0.992274 2.4983C1.3476 2.69234 1.70292 2.89647 2.04565 3.11319C2.20693 3.21399 2.33293 3.2417 2.48917 3.1157C2.56225 3.05522 2.66053 3.01238 2.7563 2.99222C2.93018 2.9519 2.97554 2.8511 2.97302 2.68478C2.96293 2.29922 2.96546 1.91617 2.9705 1.5306C2.97554 1.19544 3.14438 0.986277 3.40646 0.973677C3.6761 0.961077 3.86763 1.17276 3.88275 1.52809C3.89787 1.90105 3.89283 2.27653 3.90291 2.6495C3.91047 2.9771 4.46992 3.28959 4.76476 3.12831C5.15033 2.91663 5.52581 2.6873 5.92146 2.4983C6.27678 2.32946 6.56658 2.48066 6.62202 2.82842C6.6573 3.05019 6.56658 3.20895 6.37002 3.31731C6.0021 3.51639 5.63921 3.72555 5.27128 3.91959C5.10748 4.00779 5.00668 4.10104 5.0974 4.30768C5.1352 4.39336 5.1478 4.5118 5.11756 4.59748C4.97392 5.01076 5.19316 5.18214 5.53085 5.33586C5.84081 5.47698 6.13062 5.66094 6.41538 5.84742C6.68502 6.02382 6.74299 6.28843 6.59178 6.53035C6.42546 6.8 6.1911 6.76723 5.95925 6.63871C5.57369 6.42703 5.19568 6.20274 4.81516 5.98349C4.49763 5.79953 3.91299 6.1221 3.90291 6.49002C3.89283 6.89575 3.89787 7.304 3.89031 7.70973C3.88527 8.00961 3.70131 8.2112 3.43419 8.20364C3.13934 8.19608 3.00074 8.01212 2.98813 7.73492C2.97805 7.5056 2.98562 7.27375 2.98562 7.04191C2.97806 7.04191 2.97554 7.04191 2.97302 7.04191ZM3.4367 5.24513C3.86259 5.23757 4.14231 4.9528 4.12971 4.537C4.11963 4.15143 3.78195 3.84148 3.39134 3.85408C3.00326 3.86668 2.72857 4.18671 2.73613 4.6126C2.74369 4.97296 3.05366 5.25269 3.4367 5.24513Z" fill="#FFEB61"/>
<path d="M5.16798 21.0535C4.62869 20.5973 4.27588 20.0757 4.14484 19.4255C4.10704 19.2365 4.08688 19.0148 4.1524 18.8434C4.21036 18.7023 4.39685 18.5359 4.53797 18.5259C4.67657 18.5158 4.84289 18.6695 4.9689 18.7829C5.0319 18.8384 5.03441 18.9643 5.05961 19.0601C5.2839 19.9371 5.76775 20.5898 6.68756 20.7762C7.60989 20.9602 8.26258 20.4688 8.81698 19.7985C8.90518 19.6901 8.99338 19.5314 9.10678 19.5062C9.26051 19.4709 9.48983 19.4885 9.58811 19.5843C9.68639 19.6775 9.72672 19.9169 9.6864 20.058C9.47723 20.7309 8.9833 21.1543 8.35833 21.439C8.25753 21.4844 8.15673 21.5222 8.05341 21.5625C8.04585 21.5675 8.0383 21.5776 8.00302 21.6104C8.1391 21.7616 8.28274 21.9103 8.41126 22.0665C8.80439 22.5478 9.07907 23.0745 9.00598 23.7247C8.98078 23.9465 8.8573 24.1405 8.63554 24.1052C8.45914 24.0775 8.29282 23.9263 8.14918 23.7978C8.08617 23.7448 8.10886 23.6062 8.06602 23.518C7.9249 23.2106 7.81401 22.878 7.61493 22.6108C6.87404 21.628 5.5359 21.5801 4.65137 22.4874C4.53041 22.6134 4.41196 22.7494 4.32628 22.9006C4.17508 23.1753 3.9634 23.2434 3.69124 23.13C3.46947 23.0367 3.37875 22.7545 3.49468 22.4722C3.73156 21.8901 4.18769 21.5222 4.73201 21.2475C4.86053 21.1895 4.98906 21.1341 5.16798 21.0535Z" fill="#FFEB61"/>
<path d="M37.7418 27.3007C38.1904 27.3486 38.6288 27.3637 39.0522 27.4544C39.3344 27.5149 39.6091 27.6585 39.8561 27.8173C40.1283 27.9912 40.1812 28.2835 40.03 28.5052C39.8511 28.7724 39.6192 28.7497 39.3647 28.6212C38.6742 28.2684 37.9585 28.155 37.2453 28.5405C36.4213 28.9841 36.071 29.9089 36.2928 30.9346C36.3255 31.0807 36.3785 31.2647 36.3205 31.3781C36.2499 31.5167 36.071 31.678 35.9374 31.6805C35.7888 31.683 35.5771 31.552 35.499 31.4184C35.1562 30.8212 35.1688 30.1786 35.3679 29.5359C35.4082 29.4024 35.4637 29.2739 35.4813 29.226C34.9194 29.1327 34.3675 29.0672 33.8307 28.9387C33.6089 28.8858 33.4048 28.7144 33.2183 28.5657C33.0268 28.412 32.9739 28.2029 33.1326 27.9836C33.2813 27.7745 33.4703 27.7291 33.7097 27.8274C34.0147 27.9509 34.3171 28.0995 34.6346 28.1625C36.0105 28.4322 37.0815 27.4771 36.9959 26.0734C36.9833 25.8668 36.9329 25.6601 36.8951 25.456C36.8447 25.1839 36.9203 24.9596 37.1823 24.8613C37.4671 24.7529 37.6511 24.9293 37.7594 25.1662C38.0391 25.7761 38.0392 26.4035 37.835 27.031C37.8048 27.1268 37.767 27.2276 37.7418 27.3007Z" fill="#FFEB61"/>
<path d="M39.9648 19.4987C39.3071 20.4211 38.4755 20.8343 37.3994 20.6831C37.2406 20.6605 37.0743 20.6075 36.9382 20.5219C36.7492 20.4034 36.6484 20.2144 36.7366 19.9826C36.8223 19.7608 36.9937 19.66 37.2306 19.6827C37.3515 19.6953 37.47 19.718 37.5909 19.7331C38.2613 19.8188 38.7879 19.5668 39.1332 19.0023C39.4759 18.4403 39.4684 17.8532 39.108 17.2887C38.9492 17.0392 38.7854 16.8023 39.0299 16.515C39.1811 16.3361 39.36 16.2781 39.5515 16.4092C39.7027 16.5125 39.8539 16.6435 39.9472 16.7973C40.4915 17.7146 40.4587 18.6344 39.9648 19.4987Z" fill="#FFEB61"/>
<path d="M3.79455 15.6456C3.74667 15.9556 3.73911 16.3008 3.30819 16.3109C3.0209 16.3185 2.88734 16.1446 2.81678 15.6809C2.51689 15.5977 2.15905 15.5272 2.19685 15.1063C2.22709 14.7812 2.49673 14.6754 2.81678 14.6552C2.83946 14.562 2.86214 14.4688 2.88734 14.3755C2.95034 14.1487 3.09146 14.0151 3.3359 14.0151C3.57783 14.0151 3.70131 14.1789 3.73155 14.3856C3.76179 14.5796 3.82479 14.6653 4.03144 14.6905C4.27336 14.7208 4.47496 14.8568 4.46488 15.1416C4.4548 15.4138 4.27839 15.5473 4.02639 15.6002C3.95331 15.6128 3.87771 15.628 3.79455 15.6456Z" fill="#FFEB61"/>
<path d="M17.6673 16.966C17.4355 16.9433 17.2918 16.8148 17.2061 16.5779C17.1658 16.467 17.0575 16.3536 16.9491 16.3032C16.7299 16.1974 16.5131 16.094 16.5333 15.8168C16.5534 15.5548 16.7525 15.4388 16.9894 15.3582C17.0852 15.328 17.1986 15.2171 17.2213 15.1213C17.2817 14.8643 17.3977 14.6954 17.6774 14.6929C17.9445 14.6904 18.0529 14.8466 18.1134 15.0961C18.1386 15.1994 18.2721 15.3204 18.378 15.3506C18.6375 15.4237 18.8416 15.5396 18.8416 15.8269C18.8391 16.1218 18.6199 16.215 18.3603 16.2755C18.2696 16.2956 18.1713 16.4216 18.1385 16.5199C18.0579 16.7518 17.9672 16.9534 17.6673 16.966Z" fill="#FFEB61"/>
<path d="M42.6461 12.5534C42.6284 12.6819 42.6158 12.7802 42.5982 12.8759C42.5503 13.1053 42.4167 13.2615 42.1748 13.259C41.9304 13.2565 41.7363 13.1254 41.7086 12.8785C41.6859 12.6542 41.5801 12.5861 41.3911 12.4979C41.2475 12.4299 41.1139 12.2258 41.0811 12.062C41.0358 11.8251 41.2197 11.6991 41.4465 11.6311C41.5398 11.6033 41.6557 11.5176 41.6834 11.4345C41.7565 11.185 41.8422 10.9658 42.1496 10.9683C42.4772 10.9708 42.6083 11.1825 42.6435 11.4773C42.6486 11.5076 42.6662 11.5378 42.6788 11.5655C43.1576 11.6714 43.3088 11.8024 43.2887 12.1048C43.261 12.4929 42.9712 12.5357 42.6461 12.5534Z" fill="#FFEB61"/>
<path d="M30.0054 16.5781C30.0079 16.8654 29.7811 17.1023 29.4938 17.1124C29.1813 17.1224 28.9142 16.8704 28.9193 16.5655C28.9243 16.2631 29.1612 16.0312 29.4686 16.0312C29.771 16.0312 30.0029 16.2681 30.0054 16.5781Z" fill="#FFEB61"/>
<path d="M9.86293 33.0235C9.56809 33.026 9.32617 32.7841 9.32113 32.4817C9.31609 32.1894 9.53785 31.9651 9.83522 31.96C10.1351 31.955 10.3997 32.1969 10.4073 32.4792C10.4123 32.774 10.1628 33.021 9.86293 33.0235Z" fill="#FFEB61"/>
<path d="M28.0197 34.1928C28.0172 34.5028 27.7778 34.7321 27.4704 34.7221C27.1856 34.712 26.9538 34.4776 26.9462 34.1928C26.9386 33.9106 27.2083 33.6309 27.4804 33.6309C27.7602 33.6284 28.0197 33.9056 28.0197 34.1928Z" fill="#FFEB61"/>
<path d="M23.4283 10.1341C23.1385 10.1442 22.8965 9.92246 22.8789 9.63265C22.8613 9.32521 23.0881 9.07825 23.398 9.06817C23.6903 9.05809 23.9474 9.30504 23.9499 9.60492C23.9524 9.88717 23.7181 10.1241 23.4283 10.1341Z" fill="#FFEB61"/>
<path d="M32.339 25.7734C32.024 25.7683 31.8047 25.5365 31.8148 25.2265C31.8249 24.9367 32.0567 24.7099 32.344 24.7124C32.6388 24.7149 32.8682 24.9569 32.8656 25.2694C32.8656 25.5718 32.6489 25.7784 32.339 25.7734Z" fill="#FFEB61"/>
<path d="M23.2567 3.0227C23.2492 3.32258 22.9947 3.58719 22.7175 3.57711C22.4352 3.56703 22.2034 3.3251 22.2034 3.03782C22.2034 2.72785 22.4453 2.48089 22.7351 2.48845C23.0224 2.50105 23.2643 2.74801 23.2567 3.0227Z" fill="#FFEB61"/>
<path d="M13.6733 25.2617C13.953 25.2592 14.1773 25.5062 14.1722 25.8036C14.1647 26.0934 13.9555 26.3 13.6682 26.295C13.386 26.2899 13.1415 26.0505 13.1365 25.7733C13.134 25.4986 13.3784 25.2643 13.6733 25.2617Z" fill="#FFEB61"/>
<path d="M7.62764 30.229C6.84139 31.0455 5.95939 31.3303 4.91609 31.0228C4.76237 30.9775 4.60361 30.9019 4.48265 30.796C4.31129 30.6499 4.24325 30.4483 4.36421 30.2341C4.48013 30.0274 4.66661 29.9518 4.89593 30.0098C5.01185 30.04 5.12777 30.0803 5.2437 30.1131C5.89386 30.2945 6.45331 30.1232 6.87668 29.6166C7.30004 29.1126 7.37816 28.528 7.10348 27.9182C6.98252 27.6485 6.85651 27.3915 7.13876 27.1395C7.31264 26.9857 7.49913 26.953 7.67049 27.1117C7.80405 27.2352 7.93509 27.3864 8.00565 27.5527C8.41137 28.5406 8.24253 29.4453 7.62764 30.229Z" fill="#FFEB61"/>
<path d="M43.8404 23.1099C43.7926 23.4199 43.785 23.7652 43.3541 23.7752C43.0668 23.7828 42.9332 23.6089 42.8627 23.1452C42.5628 23.0621 42.205 22.9915 42.2428 22.5707C42.273 22.2456 42.5426 22.1397 42.8627 22.1196C42.8853 22.0263 42.908 21.9331 42.9332 21.8399C42.9962 21.6131 43.1374 21.4795 43.3818 21.4795C43.6237 21.4795 43.7472 21.6433 43.7774 21.8499C43.8077 22.044 43.8707 22.1297 44.0773 22.1549C44.3192 22.1851 44.5209 22.3212 44.5108 22.6059C44.5007 22.8781 44.3243 23.0117 44.0723 23.0646C43.9967 23.0772 43.9236 23.0923 43.8404 23.1099Z" fill="#FFEB61"/>
<path d="M19.3732 34.6593C19.3253 34.9692 19.3177 35.3145 18.8868 35.3246C18.5995 35.3321 18.466 35.1582 18.3954 34.6946C18.0955 34.6114 17.7377 34.5408 17.7755 34.12C17.8057 33.7949 18.0753 33.6891 18.3954 33.6689C18.4181 33.5757 18.4408 33.4824 18.466 33.3892C18.529 33.1624 18.6701 33.0288 18.9145 33.0288C19.1564 33.0288 19.2799 33.1926 19.3102 33.3993C19.3404 33.5933 19.4034 33.679 19.61 33.7042C19.852 33.7344 20.0536 33.8705 20.0435 34.1553C20.0334 34.4274 19.857 34.561 19.605 34.6139C19.5294 34.6265 19.4563 34.6416 19.3732 34.6593Z" fill="#FFEB61"/>
<path d="M26.8881 21.8169C27.7575 21.2575 28.5791 20.7308 29.4006 20.2041C29.514 20.131 29.6173 20.0378 29.7383 19.9823C30.4666 19.6421 30.8295 19.0373 31.1268 18.309C32.2205 15.6378 33.4453 13.027 34.8136 10.4843C34.8867 10.3482 35.048 10.2273 35.1942 10.1693C35.4336 10.0761 35.5822 10.1945 35.6503 10.4516C36.0207 11.8149 36.4088 13.1757 36.7767 14.5391C36.807 14.6499 36.7616 14.8112 36.6961 14.912C34.8892 17.7143 33.0748 20.5115 31.2654 23.3113C31.0991 23.5658 30.9 23.7195 30.5749 23.775C29.5896 23.9413 28.6144 24.158 27.6341 24.342C27.4098 24.3823 27.3443 24.4806 27.3518 24.7023C27.3619 25.0829 27.3644 25.4709 27.3115 25.8439C27.2611 26.1866 27.3972 26.3076 27.6946 26.416C28.9672 26.8872 30.2297 27.3912 31.4998 27.87C31.7694 27.9708 31.908 28.1321 31.9912 28.4043C32.6036 30.4228 33.2336 32.4363 33.851 34.4524C33.9493 34.7774 33.8787 34.8883 33.5435 34.9362C32.5884 35.0698 31.6308 35.1983 30.6732 35.3268C30.3078 35.3747 30.2196 35.3041 30.1491 34.8959C29.9223 33.5577 29.7005 32.2171 29.4636 30.8789C29.4409 30.7504 29.3704 30.5866 29.2696 30.5261C28.3447 29.9516 27.4073 29.3997 26.4144 28.8024C26.0817 29.5988 25.2451 30.1406 25.4139 31.1461C25.5626 32.0382 25.2627 32.779 24.6856 33.4595C24.2875 33.9282 23.9674 34.4624 23.602 34.9614C23.3651 35.284 23.1434 35.2789 22.9166 34.9538C22.3748 34.1802 21.833 33.4116 21.3063 32.6278C21.208 32.4792 21.1651 32.2826 21.1349 32.1012C21.1072 31.9273 21.0971 31.7383 21.1299 31.5644C21.334 30.4354 20.6435 29.6643 20.0589 28.8024C19.4213 29.193 18.7888 29.5736 18.1663 29.9667C17.7908 30.2036 17.312 30.3875 17.0903 30.7303C16.8735 31.0654 16.9264 31.5745 16.8559 32.0079C16.687 33.026 16.5258 34.0466 16.3292 35.0597C16.3065 35.1731 16.0671 35.3394 15.9462 35.3268C14.9306 35.221 13.9175 35.0773 12.907 34.9438C12.6273 34.906 12.6424 34.6968 12.6878 34.5078C12.786 34.092 12.902 33.6812 13.0254 33.273C13.5118 31.6501 14.0083 30.0297 14.4896 28.4043C14.5727 28.1245 14.7088 27.9633 15.0011 27.8574C16.309 27.3811 17.6018 26.8671 18.9072 26.3857C19.1668 26.29 19.2373 26.1589 19.2121 25.8918C19.1743 25.4785 19.1819 25.0627 19.1869 24.6469C19.1894 24.468 19.1416 24.3924 18.9551 24.3571C17.9622 24.1681 16.9718 23.9741 15.9865 23.7523C15.7899 23.7069 15.5556 23.586 15.4472 23.4247C14.1569 21.5347 12.8793 19.6346 11.6167 17.7244C11.022 16.8272 10.4726 15.8974 9.89052 14.9901C9.75444 14.7785 9.75696 14.5819 9.81744 14.3526C10.1501 13.0951 10.4726 11.8325 10.8053 10.575C10.8507 10.4037 10.8355 10.1769 11.1077 10.1542C11.3824 10.1315 11.6016 10.1668 11.7402 10.4616C12.5441 12.1551 13.3808 13.8334 14.1721 15.5319C14.729 16.7315 15.2305 17.9587 15.7597 19.1709C15.7975 19.2591 15.8554 19.3548 15.9336 19.4052C17.1532 20.2041 18.3755 20.9954 19.6279 21.8068C19.7791 21.4112 19.885 21.0332 20.0614 20.693C20.3562 20.131 20.4873 19.6068 20.3915 18.9289C20.1874 17.485 21.15 16.235 22.5764 15.8948C22.8107 15.8394 22.8611 15.7361 22.8536 15.5269C22.841 15.2371 22.851 14.9423 22.8485 14.6499C22.8435 14.3652 22.9468 14.161 23.2593 14.1434C23.5214 14.1283 23.66 14.3097 23.665 14.6474C23.6701 15.038 23.665 15.4312 23.665 15.8066C23.9951 15.9301 24.3101 16.0158 24.5949 16.1594C25.7793 16.7516 26.369 18.0747 26.0666 19.3649C26.0263 19.5388 26.0616 19.758 26.1246 19.9319C26.3211 20.4561 26.5505 20.9702 26.7647 21.4868C26.8025 21.5775 26.8327 21.6682 26.8881 21.8169ZM26.4774 24.1051C26.2758 22.8678 25.9734 21.6758 25.4996 20.5141C23.7734 21.8346 22.9619 21.8371 21.024 20.5594C21.0064 20.572 20.9787 20.5796 20.9711 20.5947C20.5377 21.6582 20.2554 22.7619 20.0967 23.8985C20.0841 23.9791 20.2075 24.1303 20.3008 24.1605C21.2256 24.468 22.1555 24.7603 23.0879 25.0476C23.1988 25.0804 23.3324 25.0904 23.4407 25.0577C24.4387 24.7553 25.4316 24.4352 26.4774 24.1051ZM25.2955 18.6896C25.3005 17.5833 24.3807 16.6634 23.2618 16.6584C22.1706 16.6534 21.1979 17.5707 21.1803 18.6266C21.1626 19.6673 22.148 20.6224 23.2618 20.6426C24.3505 20.6627 25.2879 19.7656 25.2955 18.6896ZM19.9959 24.972C20.0311 25.4407 20.079 25.8313 20.084 26.2219C20.0891 26.5067 20.2126 26.6428 20.4772 26.7184C21.3189 26.9553 22.158 27.2098 22.9997 27.4441C23.1333 27.4819 23.2971 27.4845 23.4306 27.4492C24.3404 27.2022 25.2451 26.9427 26.1498 26.6755C26.243 26.6478 26.369 26.5546 26.3816 26.4764C26.4497 26.0052 26.4875 25.5289 26.5379 25.0274C26.4043 25.0451 26.3363 25.0451 26.2733 25.0627C25.4038 25.3324 24.5344 25.5919 23.6726 25.8792C23.3803 25.9775 23.1182 25.98 22.8233 25.8792C21.9111 25.5718 20.9887 25.2895 19.9959 24.972ZM35.8544 14.6827C35.2395 14.5139 34.6725 14.3475 34.1005 14.2064C34.0249 14.1888 33.8787 14.2896 33.8333 14.3727C33.6796 14.6575 33.5511 14.9599 33.4201 15.2573C32.8606 16.5173 32.2986 17.7798 31.7518 19.0449C31.7064 19.1507 31.7039 19.3498 31.772 19.4178C31.9736 19.622 32.218 19.7832 32.4876 19.9949C33.6116 18.2158 34.7204 16.4694 35.8544 14.6827ZM14.0536 19.9924C14.2905 19.8084 14.4719 19.6371 14.6811 19.5136C14.9029 19.38 14.923 19.2465 14.8197 19.0197C14.1645 17.5807 13.5244 16.1368 12.8768 14.6928C12.6222 14.1232 12.6222 14.1233 12.0099 14.3123C11.589 14.4408 11.1682 14.5769 10.7221 14.718C11.8511 16.5072 12.9448 18.2385 14.0536 19.9924ZM27.3367 23.5406C28.3296 23.339 29.3401 23.1399 30.3481 22.9232C30.4515 22.9005 30.5523 22.7896 30.6203 22.6964C30.9555 22.2327 31.2831 21.7615 31.6082 21.2902C31.7468 21.0911 31.8753 20.887 32.0164 20.6703C31.7694 20.4863 31.5477 20.3326 31.3436 20.1638C31.205 20.0478 31.1041 20.0705 30.9605 20.1688C29.8668 20.8946 28.7681 21.6153 27.6618 22.3234C27.0116 22.7392 27.0041 22.7292 27.2586 23.4751C27.2611 23.4801 27.2762 23.4877 27.3367 23.5406ZM19.2625 23.5658C19.318 23.334 19.391 23.1298 19.4036 22.9207C19.4087 22.8048 19.3457 22.6309 19.255 22.5704C18.0075 21.7514 16.7526 20.9475 15.4925 20.1461C15.4195 20.1008 15.2657 20.0932 15.1977 20.1411C14.9759 20.2873 14.7769 20.4687 14.5324 20.6653C14.9104 21.2045 15.3136 21.7161 15.6412 22.2705C15.9336 22.7644 16.3141 23.0064 16.8811 23.0845C17.6749 23.2004 18.4586 23.3995 19.2625 23.5658ZM13.6378 34.1651C14.2653 34.2507 14.8499 34.3389 15.4371 34.3969C15.5001 34.4019 15.6286 34.2457 15.6463 34.1499C15.8328 33.0915 16.0066 32.0306 16.1755 30.9697C16.1982 30.8311 16.2385 30.637 16.1704 30.5463C15.8454 30.1305 15.485 29.7449 15.0868 29.2913C14.5879 30.9646 14.1217 32.5396 13.6378 34.1651ZM31.4116 29.3392C31.0336 29.755 30.6858 30.128 30.3481 30.5135C30.2977 30.5715 30.2776 30.6824 30.2902 30.763C30.4817 31.9248 30.6783 33.0814 30.8849 34.2407C30.8975 34.3087 31.0134 34.4146 31.0739 34.407C31.6586 34.344 32.2432 34.2608 32.8631 34.1777C32.3793 32.5573 31.9055 30.9747 31.4116 29.3392ZM26.0994 27.5777C25.8952 27.6256 25.7995 27.6432 25.7088 27.6709C25.0863 27.8549 24.4538 28.0212 23.8414 28.2379C23.4407 28.3791 23.0728 28.374 22.6721 28.2405C21.964 28.0061 21.2433 27.8171 20.5276 27.6079C20.5049 27.6306 20.4847 27.6483 20.4646 27.6709C20.8224 28.2883 21.1853 28.9007 21.5356 29.5232C21.6389 29.7071 21.7674 29.7626 21.969 29.7601C22.6419 29.75 23.3223 29.7021 23.9876 29.7726C24.6579 29.8432 25.0536 29.6063 25.3232 29.0091C25.5298 28.5454 25.8045 28.1119 26.0994 27.5777ZM21.9413 30.6143C21.9035 31.4258 21.8304 32.1642 22.4176 32.7891C22.7326 33.1268 22.967 33.5401 23.2643 33.9584C23.7179 33.3259 24.1363 32.7463 24.5495 32.1642C24.5848 32.1112 24.6075 32.0407 24.61 31.9777C24.6176 31.5972 24.6277 31.2141 24.6075 30.8336C24.6025 30.758 24.4689 30.6269 24.3933 30.6244C23.5869 30.6093 22.7805 30.6143 21.9413 30.6143ZM19.3154 27.1216C18.0428 27.6054 16.8005 28.0767 15.5077 28.5656C15.8983 28.9965 16.246 29.3896 16.6064 29.7701C16.6467 29.8104 16.7803 29.8105 16.8357 29.7752C17.7329 29.2182 18.6275 28.6588 19.5095 28.0842C19.5901 28.0313 19.638 27.8348 19.6078 27.7314C19.5498 27.5223 19.4238 27.3333 19.3154 27.1216ZM31.0613 28.5958C29.7055 28.0716 28.4581 27.5903 27.1855 27.0964C27.0822 27.3408 27.0041 27.5601 26.8957 27.7642C26.7974 27.9507 26.8554 28.0389 27.0192 28.1372C27.8684 28.6588 28.7101 29.1956 29.5619 29.7096C29.6451 29.76 29.8366 29.7475 29.9097 29.6845C30.2751 29.3619 30.6228 29.0116 31.0613 28.5958ZM34.2592 13.4227C34.7557 13.5436 35.2042 13.652 35.6982 13.773C35.5016 13.0548 35.3202 12.3995 35.116 11.6561C34.8086 12.2912 34.5415 12.8406 34.2592 13.4227ZM11.4781 11.7242C11.4504 11.7191 11.4202 11.7166 11.3899 11.7116C11.2035 12.3895 11.0145 13.0674 10.8154 13.7956C11.3345 13.6344 11.7679 13.4983 12.2367 13.3546C11.9771 12.7927 11.7276 12.2609 11.4781 11.7242Z" fill="#FFEB61"/>
<path d="M7.41089 9.31515C7.55957 6.77496 8.96826 4.58506 11.5085 3.12848C14.8425 1.21829 18.8922 2.47831 20.7419 5.42674C22.138 7.64941 21.9616 10.4139 20.3034 12.2434C19.0837 13.5891 17.3373 14.0528 15.8177 13.4304C15.2658 13.2036 14.7845 12.8785 14.5023 12.3316C14.4191 12.1703 14.3737 11.9687 14.3813 11.7873C14.3914 11.5378 14.6409 11.3665 14.8576 11.4698C15.3087 11.6789 15.7522 11.7445 16.2209 11.5504C16.6846 11.3614 17.0399 11.0439 17.3096 10.6306C17.8489 9.80151 17.7758 8.68767 17.0954 7.86866C16.2612 6.86568 15.1524 6.59604 13.9327 6.87829C11.768 7.38229 10.3341 8.76327 9.51007 10.7969C9.27319 11.3791 9.08671 11.9788 8.89267 12.5761C8.82211 12.7903 8.70367 12.9768 8.4819 12.9415C8.3307 12.9188 8.14421 12.7701 8.07617 12.629C7.63265 11.7193 7.42601 10.7491 7.41089 9.31515ZM15.8656 12.5332C15.9588 12.5786 16.047 12.629 16.1428 12.6693C17.1886 13.0902 18.1487 12.886 19.0358 12.246C20.7343 11.0212 21.324 8.67003 20.4747 6.68676C19.2853 3.91221 15.5229 1.70465 11.7781 3.96764C9.32863 5.4469 8.04342 7.62673 8.30046 10.5726C8.31558 10.7541 8.37102 10.933 8.4063 11.1119C8.50962 11.0162 8.5449 10.9255 8.57766 10.8322C9.23287 8.98251 10.3492 7.50072 12.1309 6.61619C13.648 5.86018 15.2129 5.66614 16.7804 6.50783C18.6452 7.51081 19.0963 10.0208 17.68 11.5378C17.1962 12.0569 16.6115 12.4123 15.8656 12.5332Z" fill="#FFEB61"/>
<path d="M31.4117 2.22134C33.201 2.19866 34.7886 2.78331 36.1721 3.89464C38.1074 5.45202 39.1003 7.48821 39.1029 9.98556C39.1029 10.923 38.8257 11.8 38.4703 12.6543C38.3922 12.8408 38.2637 12.9844 38.0646 12.9189C37.9184 12.871 37.742 12.75 37.6866 12.6139C37.359 11.8403 37.1045 11.0339 36.7441 10.2754C36.0158 8.74067 34.8616 7.62681 33.2438 7.05476C32.0871 6.64651 30.9405 6.64148 29.9073 7.41261C28.5515 8.42567 28.549 10.3888 29.9022 11.3287C30.4037 11.6765 30.948 11.8126 31.5579 11.5505C31.7091 11.485 31.9611 11.5203 32.1022 11.6085C32.3265 11.7471 32.2358 11.989 32.1299 12.183C31.5655 13.2339 30.6179 13.6547 29.489 13.6976C27.7526 13.7656 26.1348 12.6492 25.3964 10.923C24.1893 8.09806 25.2225 4.97322 27.9089 3.27976C28.9799 2.60439 30.1442 2.25158 31.4117 2.22134ZM38.052 11.1826C38.0823 11.1826 38.11 11.1826 38.1402 11.1851C38.1906 10.7592 38.2864 10.3308 38.2864 9.90491C38.2788 8.01489 37.5581 6.41216 36.2325 5.07906C34.0401 2.87403 31.0211 2.42546 28.5011 3.91984C26.4145 5.15717 25.3259 7.4252 25.8349 9.62267C26.2003 11.2103 27.1302 12.3519 28.7481 12.8055C29.4083 12.992 30.0635 12.8886 30.7313 12.5358C30.5801 12.4955 30.4944 12.4754 30.4088 12.4527C28.5187 11.9588 27.5158 9.89988 28.297 8.11065C28.9446 6.62131 30.6557 5.73174 32.3618 6.00139C34.8289 6.38947 36.5072 7.81078 37.5782 10.0108C37.7622 10.3863 37.8958 10.7894 38.052 11.1826Z" fill="#FFEB61"/>
<path d="M23.2821 17.9464C23.6954 17.9514 23.9978 18.2488 23.9852 18.6368C23.9751 18.9947 23.6424 19.3047 23.2745 19.3021C22.8864 19.2971 22.5513 18.977 22.5513 18.6091C22.5513 18.2236 22.8638 17.9413 23.2821 17.9464Z" fill="#FFEB61"/>
</svg>
