<svg width="48" height="48" viewBox="0 0 48 48" fill="none" xmlns="http://www.w3.org/2000/svg">
<path d="M35.0188 7.14305C35.0188 7.03664 35.0188 6.93023 35.0188 6.82381C35.0161 6.25957 34.8892 6.08634 34.3103 5.9329C34.2231 5.91063 34.0988 5.9626 34.0063 6.00714C33.5358 6.2373 33.0758 6.47982 32.6053 6.70997C32.3145 6.85103 32.0554 6.80897 31.9021 6.5219C31.7541 6.24473 31.8387 6.01951 32.1294 5.8636C32.5577 5.63345 32.978 5.39341 33.4089 5.17563C33.5781 5.08901 33.6468 5.00239 33.6071 4.81431C33.5754 4.6683 33.5516 4.49506 33.5992 4.36142C33.734 3.97536 33.5358 3.8046 33.1948 3.66354C32.8617 3.52495 32.5365 3.36409 32.2272 3.18344C31.8889 2.98546 31.8043 2.69097 31.9867 2.43112C32.1929 2.13414 32.4678 2.17621 32.748 2.31975C33.1578 2.5301 33.5675 2.73799 33.964 2.96567C34.1438 3.06961 34.2918 3.13889 34.4531 2.95329C34.4689 2.93596 34.4927 2.91617 34.5139 2.9137C35.0875 2.81223 35.0558 2.41379 35.0373 2.00793C35.0241 1.71343 35.032 1.41647 35.0531 1.12197C35.0716 0.8547 35.2302 0.674039 35.5263 0.654241C35.8118 0.631968 36.0894 0.876964 36.1 1.15909C36.1158 1.59464 36.1158 2.03269 36.1052 2.46824C36.1 2.6489 36.1978 2.70334 36.3432 2.80233C36.782 3.10425 37.1309 2.98546 37.5195 2.72561C37.805 2.53506 38.1328 2.40143 38.4474 2.25294C38.6879 2.13663 38.9153 2.14405 39.0712 2.38657C39.2299 2.63652 39.2722 2.89884 38.984 3.07702C38.5981 3.31955 38.191 3.53486 37.7733 3.73284C37.5248 3.85163 37.39 3.97042 37.501 4.2476C37.5486 4.36391 37.5671 4.51734 37.5248 4.63118C37.3979 4.96527 37.5962 5.08901 37.8658 5.22017C38.2359 5.39836 38.5928 5.59881 38.9417 5.81164C39.2484 5.99973 39.3197 6.28184 39.1532 6.54416C38.9629 6.84608 38.6879 6.84113 38.4024 6.69512C37.9927 6.48477 37.5856 6.26947 37.1917 6.03684C37.0014 5.923 36.8692 5.95517 36.6577 6.01456C36.0682 6.1779 36.0339 6.55407 36.0682 7.01685C36.0894 7.30887 36.0656 7.60831 36.0471 7.9028C36.0286 8.20225 35.8673 8.40765 35.5316 8.39775C35.2012 8.39033 35.032 8.19235 35.0188 7.89043C35.0135 7.63801 35.0214 7.39053 35.0188 7.14305C35.0241 7.14305 35.0214 7.14305 35.0188 7.14305ZM36.367 4.53218C36.3749 4.09168 36.0154 3.73779 35.5501 3.73036C35.1192 3.72541 34.7518 4.07435 34.7412 4.50001C34.7333 4.89597 35.0849 5.21522 35.5475 5.22759C36.0233 5.24244 36.3564 4.95784 36.367 4.53218Z" fill="#FFEB61"/>
<path d="M13.0408 13.2184C13.0408 13.1244 13.0276 13.0279 13.0434 12.9363C13.1201 12.4859 12.9747 12.184 12.4724 12.0281C12.2583 11.9612 12.1261 11.939 11.9279 12.0602C11.5287 12.3102 11.111 12.5304 10.6934 12.7482C10.4211 12.8893 10.1515 12.8868 9.97963 12.5923C9.81838 12.3126 9.87124 12.0553 10.1594 11.882C10.54 11.6519 10.9524 11.4663 11.3252 11.2238C11.4521 11.1421 11.5076 10.9565 11.5789 10.8129C11.6027 10.7659 11.5657 10.6917 11.5842 10.6372C11.7798 10.0829 11.4838 9.80077 10.9736 9.60774C10.7172 9.51122 10.4845 9.36027 10.2493 9.22663C9.97434 9.07072 9.87124 8.749 10.0113 8.49905C10.1488 8.25157 10.4475 8.17733 10.7647 8.34066C11.1745 8.55102 11.5816 8.76632 11.9755 9.00142C12.1605 9.11031 12.3059 9.14001 12.4857 9.0039C12.5702 8.93955 12.6839 8.89501 12.7923 8.87026C12.9932 8.82819 13.0434 8.7193 13.0408 8.53864C13.0276 8.12536 13.0329 7.71207 13.0381 7.29878C13.0434 6.93747 13.2391 6.71474 13.5378 6.6999C13.8471 6.68505 14.0665 6.91521 14.085 7.29632C14.1008 7.69723 14.0982 8.10062 14.1088 8.50153C14.1167 8.85542 14.7617 9.1895 15.1001 9.01379C15.5415 8.78611 15.9751 8.53864 16.4297 8.33571C16.8395 8.15258 17.1699 8.31838 17.2334 8.6896C17.2757 8.92965 17.1699 9.09795 16.9426 9.21426C16.5223 9.42709 16.1046 9.65229 15.6816 9.86264C15.494 9.95669 15.3776 10.0581 15.4807 10.2784C15.523 10.37 15.5389 10.4987 15.5045 10.5902C15.338 11.0332 15.5918 11.2188 15.9777 11.3846C16.3319 11.5356 16.665 11.7336 16.9928 11.934C17.3021 12.1246 17.3682 12.4092 17.1964 12.6665C17.0034 12.9561 16.7364 12.9214 16.4694 12.7853C16.0279 12.5577 15.5944 12.3151 15.1556 12.08C14.7908 11.882 14.1193 12.231 14.1088 12.6245C14.0982 13.06 14.1035 13.5005 14.0929 13.9361C14.0876 14.2578 13.8761 14.4756 13.5695 14.4657C13.2285 14.4583 13.0725 14.2603 13.0566 13.9608C13.0434 13.7134 13.054 13.4659 13.054 13.2159C13.0461 13.2184 13.0434 13.2184 13.0408 13.2184ZM13.5721 11.2881C14.0612 11.2807 14.381 10.9738 14.3678 10.5284C14.3546 10.1151 13.9687 9.78097 13.5193 9.79582C13.0752 9.81067 12.7606 10.1522 12.7685 10.61C12.7791 10.9936 13.136 11.2955 13.5721 11.2881Z" fill="#FFEB61"/>
<path d="M6.91006 20.0093C6.15667 20.2865 5.43235 20.3508 4.70803 20.1429C4.49655 20.0835 4.26128 19.9895 4.12646 19.8385C4.01544 19.7123 3.95199 19.45 4.01544 19.3089C4.07888 19.1728 4.32737 19.0936 4.50977 19.0318C4.59965 19.0021 4.72918 19.0615 4.84021 19.0887C5.84738 19.3263 6.7726 19.205 7.46255 18.4279C8.15514 17.6509 8.01504 16.7822 7.6423 15.916C7.5815 15.7775 7.47048 15.6141 7.50749 15.4929C7.55507 15.3295 7.70046 15.1241 7.85114 15.0771C7.99918 15.0325 8.26353 15.1167 8.38248 15.2281C8.94819 15.77 9.10416 16.4531 9.04864 17.1905C9.04071 17.3093 9.01957 17.4232 9.00635 17.542C9.00635 17.5519 9.01163 17.5642 9.0275 17.6137C9.25484 17.5618 9.48218 17.5024 9.71216 17.4628C10.4127 17.339 11.0947 17.3465 11.7106 17.7474C11.9221 17.8835 12.0464 18.1013 11.893 18.2918C11.7688 18.4453 11.523 18.5244 11.3168 18.5962C11.2295 18.6284 11.1 18.5368 10.989 18.5294C10.6004 18.5071 10.2039 18.4403 9.82583 18.4923C8.42742 18.6903 7.64759 19.9301 8.07848 21.2294C8.13928 21.41 8.21066 21.5907 8.31904 21.7466C8.51202 22.0312 8.46443 22.2638 8.20273 22.4643C7.98861 22.6276 7.65288 22.5682 7.43083 22.3133C6.9735 21.7911 6.8519 21.17 6.87305 20.5166C6.8757 20.3706 6.89156 20.2197 6.91006 20.0093Z" fill="#FFEB61"/>
<path d="M39.7084 33.2098C40.2239 33.2617 40.7288 33.2766 41.2126 33.3756C41.5351 33.4424 41.8549 33.5958 42.1351 33.7641C42.4471 33.9497 42.5079 34.264 42.3361 34.504C42.1325 34.7911 41.8655 34.7664 41.5721 34.6278C40.7764 34.2491 39.9569 34.1279 39.1401 34.5412C38.1964 35.0188 37.7919 36.0112 38.0457 37.1125C38.0827 37.2708 38.1435 37.4663 38.0774 37.5901C37.9954 37.7386 37.7919 37.9118 37.6359 37.9167C37.4667 37.9192 37.2209 37.7806 37.1337 37.6321C36.7424 36.9887 36.7556 36.3007 36.983 35.6078C37.0306 35.4643 37.0914 35.3257 37.1125 35.2762C36.4649 35.1747 35.8357 35.1054 35.2171 34.9668C34.9607 34.9099 34.7281 34.7268 34.514 34.5659C34.2946 34.4001 34.2338 34.1774 34.4162 33.9398C34.588 33.7146 34.8047 33.6651 35.0797 33.7715C35.4286 33.9052 35.7776 34.0636 36.1424 34.1304C37.7205 34.4199 38.9524 33.3929 38.8519 31.8858C38.8387 31.663 38.7806 31.4428 38.7356 31.2225C38.6775 30.9305 38.7647 30.6905 39.0661 30.584C39.3912 30.4677 39.6053 30.6558 39.7296 30.9107C40.0521 31.564 40.0494 32.2396 39.8142 32.9153C39.7824 33.0217 39.7375 33.1306 39.7084 33.2098Z" fill="#FFEB61"/>
<path d="M24.1672 4.16832C25.4467 3.95301 26.4618 4.25988 27.2257 5.18296C27.3394 5.31908 27.4346 5.48489 27.4769 5.65317C27.5377 5.8858 27.4663 6.10852 27.2099 6.21741C26.9614 6.32383 26.7393 6.27433 26.5622 6.07635C26.4723 5.97736 26.3957 5.87094 26.3084 5.767C25.8273 5.20028 25.1902 4.99736 24.4527 5.17059C23.7205 5.34383 23.2552 5.80414 23.0992 6.50697C23.0305 6.81879 22.975 7.1207 22.5441 7.16277C22.2771 7.18752 22.0841 7.09843 22.0313 6.85343C21.9916 6.66039 21.9705 6.4451 22.0181 6.25949C22.3036 5.14585 23.0702 4.46529 24.1672 4.16832Z" fill="#FFEB61"/>
<path d="M8.93818 28.0026C8.88266 28.3367 8.87473 28.7055 8.3804 28.7178C8.04996 28.7253 7.89928 28.5372 7.81733 28.0397C7.47368 27.9506 7.0613 27.8739 7.10359 27.421C7.13531 27.0696 7.44724 26.9583 7.81733 26.9385C7.84377 26.837 7.86756 26.738 7.89664 26.639C7.96801 26.394 8.13191 26.2505 8.40948 26.2505C8.68704 26.2505 8.82715 26.4262 8.86416 26.6489C8.89588 26.8568 8.9699 26.9484 9.20781 26.9781C9.48274 27.0127 9.71801 27.1563 9.70743 27.4631C9.69686 27.7551 9.49595 27.8987 9.20252 27.9556C9.11793 27.968 9.0307 27.9853 8.93818 28.0026Z" fill="#FFEB61"/>
<path d="M1.71341 27.9557C1.44641 27.931 1.28252 27.7924 1.18471 27.54C1.13977 27.4212 1.01288 27.2999 0.888637 27.2455C0.637506 27.1316 0.386373 27.0203 0.412808 26.7233C0.436599 26.4412 0.663939 26.3174 0.936218 26.2308C1.04724 26.1962 1.17677 26.0774 1.20321 25.9784C1.27194 25.7012 1.40412 25.5206 1.72662 25.5181C2.03327 25.5156 2.15751 25.6839 2.22624 25.9512C2.25532 26.0625 2.40864 26.1937 2.53024 26.2259C2.82631 26.3051 3.06423 26.4288 3.06159 26.7382C3.05894 27.0574 2.80517 27.1539 2.50909 27.2207C2.406 27.243 2.29233 27.3791 2.25268 27.4855C2.1628 27.7281 2.0597 27.9434 1.71341 27.9557Z" fill="#FFEB61"/>
<path d="M45.8966 17.1832C45.8754 17.3193 45.8648 17.4257 45.841 17.5297C45.7855 17.7771 45.6322 17.9429 45.352 17.9429C45.0718 17.9405 44.8471 17.7994 44.818 17.5321C44.7916 17.2896 44.67 17.2178 44.4532 17.1213C44.2893 17.0495 44.1333 16.8293 44.099 16.6536C44.0461 16.4012 44.2576 16.2626 44.5167 16.1908C44.6224 16.1611 44.7572 16.0695 44.7863 15.9805C44.8709 15.7132 44.9687 15.4756 45.3203 15.4805C45.6956 15.483 45.8463 15.7107 45.886 16.0275C45.8913 16.0621 45.9124 16.0918 45.9256 16.1215C46.4755 16.2354 46.6473 16.3764 46.6262 16.7031C46.6024 17.1164 46.2693 17.1634 45.8966 17.1832Z" fill="#FFEB61"/>
<path d="M47.6968 22.15C47.6995 22.4593 47.4404 22.7118 47.11 22.7241C46.7504 22.7365 46.4464 22.4643 46.4517 22.1376C46.457 21.8134 46.7293 21.5635 47.0835 21.5635C47.4272 21.5635 47.6942 21.8184 47.6968 22.15Z" fill="#FFEB61"/>
<path d="M12.5277 41.5126C12.1867 41.515 11.9118 41.3195 11.9039 41.0745C11.8986 40.837 12.1524 40.6588 12.4934 40.6538C12.837 40.6514 13.141 40.8444 13.149 41.0745C13.1595 41.3072 12.874 41.5101 12.5277 41.5126Z" fill="#FFEB61"/>
<path d="M8.27942 47.1947C8.27678 47.5263 8.0045 47.7762 7.65027 47.7639C7.32248 47.754 7.05549 47.5015 7.0502 47.1947C7.04227 46.8928 7.35155 46.5884 7.66349 46.5908C7.98071 46.5884 8.28206 46.8853 8.27942 47.1947Z" fill="#FFEB61"/>
<path d="M7.82218 37.6842C7.4891 37.6941 7.21153 37.4565 7.19039 37.1447C7.17188 36.8155 7.43094 36.5507 7.78517 36.5384C8.12089 36.5285 8.41432 36.7933 8.41961 37.115C8.42489 37.4218 8.15526 37.6767 7.82218 37.6842Z" fill="#FFEB61"/>
<path d="M44.5086 27.9358C44.149 27.9308 43.8953 27.6833 43.9058 27.3492C43.9191 27.0374 44.1834 26.7949 44.5138 26.7974C44.8548 26.7999 45.1166 27.0597 45.1139 27.3963C45.1113 27.718 44.8628 27.9382 44.5086 27.9358Z" fill="#FFEB61"/>
<path d="M14.6055 18.8835C14.5976 19.2077 14.3042 19.4898 13.987 19.4799C13.6618 19.47 13.3975 19.2101 13.3975 18.9008C13.3975 18.5692 13.6724 18.3019 14.0081 18.3118C14.3359 18.3217 14.6108 18.5865 14.6055 18.8835Z" fill="#FFEB61"/>
<path d="M23.0701 38.1074C23.39 38.105 23.649 38.3722 23.6437 38.6915C23.6358 39.0033 23.3953 39.2236 23.0648 39.2211C22.7397 39.2161 22.4595 38.9588 22.4542 38.6593C22.4489 38.3599 22.7317 38.1074 23.0701 38.1074Z" fill="#FFEB61"/>
<path d="M32.7769 42.7992C31.8728 43.6753 30.8604 43.9846 29.6629 43.653C29.4858 43.6035 29.306 43.5218 29.1632 43.4105C28.9676 43.2546 28.8883 43.0368 29.0258 42.8066C29.1606 42.5839 29.3721 42.5047 29.6391 42.5666C29.7739 42.5987 29.9034 42.6433 30.0382 42.6779C30.7837 42.8734 31.4261 42.6903 31.9151 42.1434C32.3989 41.6014 32.4914 40.9728 32.1742 40.3195C32.0341 40.0299 31.8913 39.7528 32.2138 39.483C32.4147 39.3172 32.6289 39.2826 32.8245 39.4533C32.9778 39.587 33.1285 39.7503 33.2078 39.926C33.6757 40.9852 33.4827 41.9578 32.7769 42.7992Z" fill="#FFEB61"/>
<path d="M19.3693 45.5436C19.3138 45.8777 19.3059 46.2465 18.8116 46.2588C18.4811 46.2663 18.3304 46.0782 18.2485 45.5807C17.9048 45.4917 17.4924 45.4149 17.5347 44.9621C17.5665 44.6106 17.8784 44.4993 18.2485 44.4795C18.2749 44.378 18.3014 44.279 18.3278 44.18C18.3992 43.935 18.5631 43.7915 18.8406 43.7915C19.1182 43.7915 19.2583 43.9672 19.2953 44.1899C19.327 44.3978 19.4011 44.4894 19.639 44.5191C19.9139 44.5537 20.1492 44.6973 20.1386 45.0041C20.128 45.2962 19.9271 45.4397 19.6337 45.4966C19.5491 45.509 19.4645 45.5263 19.3693 45.5436Z" fill="#FFEB61"/>
<path d="M2.1413 40.7282C2.08579 41.0623 2.07786 41.431 1.58352 41.4434C1.25309 41.4508 1.10241 41.2628 1.02046 40.7653C0.676809 40.6762 0.264421 40.5995 0.306717 40.1466C0.338439 39.7952 0.650374 39.6839 1.02046 39.6641C1.0469 39.5626 1.07069 39.4636 1.09976 39.3646C1.17114 39.1196 1.33504 38.9761 1.6126 38.9761C1.89017 38.9761 2.03027 39.1518 2.06728 39.3745C2.09901 39.5824 2.17302 39.674 2.41094 39.7037C2.68586 39.7383 2.92113 39.8818 2.91056 40.1887C2.89998 40.4807 2.69908 40.6243 2.40565 40.6812C2.32106 40.6936 2.23382 40.7084 2.1413 40.7282Z" fill="#FFEB61"/>
<path d="M28.1193 26.7997C29.3591 26.7997 30.5963 26.8047 31.8361 26.7973C32.0449 26.7948 32.1771 26.8468 32.2828 27.0299C32.6714 27.6882 33.2689 28.0322 34.0831 27.9678C34.8708 27.9035 35.3599 27.4654 35.685 26.8072C36.2243 25.7183 37.0993 24.8942 38.1514 24.2309C39.1639 23.5949 40.253 23.1767 41.506 23.2534C42.3255 23.3029 42.8674 23.8251 42.8542 24.5601C42.8436 25.0996 42.4682 25.5475 41.8655 25.602C40.2609 25.7455 39.1506 26.6042 38.2175 27.7352C38.0589 27.9282 37.9426 28.1633 37.8553 28.396C37.4905 29.3809 36.8852 30.1852 35.8595 30.643C34.8497 31.0934 33.8187 31.1454 32.8063 30.6232C32.6635 30.549 32.5816 30.5663 32.4652 30.6752C30.7232 32.311 28.9732 33.9444 27.2232 35.5728C27.1439 35.6445 27.0382 35.7113 26.9324 35.7336C24.6643 36.2112 22.3962 36.679 20.1281 37.1541C17.0352 37.8025 13.9423 38.4534 10.8521 39.1092C10.7146 39.1389 10.5692 39.2156 10.4688 39.3072C8.51257 41.1335 6.56431 42.9673 4.61342 44.7962C4.54469 44.8605 4.47067 44.9471 4.38608 44.9595C4.2962 44.9744 4.1746 44.9348 4.10587 44.8803C4.06093 44.8432 4.053 44.7195 4.08208 44.6601C4.13495 44.5586 4.22218 44.467 4.30941 44.3854C6.11492 42.6902 7.92307 40.9949 9.73122 39.3022C9.85811 39.1834 9.9427 39.0919 9.8581 38.8963C9.80523 38.7751 9.85811 38.5994 9.9004 38.4608C10.6617 36.0999 11.4151 33.7365 12.1923 31.378C13.1281 28.542 14.0824 25.7133 15.0341 22.8822C15.0684 22.7783 15.1451 22.6743 15.227 22.5951C16.6254 21.2488 18.0265 19.9051 19.4328 18.5687C19.5729 18.4351 19.5941 18.3262 19.528 18.1505C18.9411 16.5938 19.5491 15.0199 21.085 14.1884C22.3275 13.5152 23.3267 12.6342 23.9717 11.4216C24.1753 11.038 24.318 10.6495 24.2519 10.1991C24.1779 9.68431 24.6299 9.14234 25.1798 8.99386C25.764 8.83547 26.4381 9.10522 26.75 9.62739C27.017 10.0753 27.017 10.5628 26.9298 11.0429C26.5623 13.0525 25.5076 14.6512 23.6333 15.74C22.9407 16.141 22.4411 16.6805 22.3407 17.4551C22.301 17.752 22.3645 18.0688 22.4226 18.3707C22.8852 20.7737 23.3584 23.1767 23.829 25.5797C23.8924 25.9088 23.9664 26.2355 24.0061 26.5646C24.0299 26.7676 24.1277 26.8072 24.318 26.8072C25.5842 26.8022 26.8505 26.8047 28.1141 26.8047C28.1193 26.7973 28.1193 26.7973 28.1193 26.7997ZM14.2093 35.9712C14.2225 35.991 14.2357 36.0108 14.2516 36.0331C14.6534 35.9366 15.0552 35.8351 15.457 35.7435C17.0299 35.3822 18.6054 35.0258 20.1783 34.662C20.3686 34.6175 20.5193 34.6126 20.5748 34.8229C20.633 35.0333 20.4849 35.105 20.3025 35.1446C20.1968 35.1669 20.0964 35.1966 19.9933 35.2189C18.0027 35.6693 16.0148 36.1345 14.0216 36.5651C13.3845 36.7037 12.8426 36.9413 12.4091 37.414C12.0813 37.7703 11.7059 38.0896 11.3517 38.4262C11.653 38.4138 11.928 38.3618 12.2002 38.3049C17.0299 37.2927 21.8622 36.2781 26.6919 35.2659C26.7606 35.251 26.8452 35.2411 26.8901 35.1991C27.2734 34.8551 27.6462 34.5037 28.0321 34.1448C27.3078 33.4841 26.6073 32.853 25.9147 32.2145C25.534 31.8631 25.1613 31.5067 24.7885 31.1454C24.6617 31.0242 24.5824 30.8732 24.7436 30.7296C24.9049 30.5861 25.037 30.695 25.1533 30.8064C25.3913 31.0291 25.6265 31.2617 25.8671 31.482C26.6496 32.1997 27.4347 32.9149 28.2224 33.6301C28.3229 33.7216 28.4154 33.8206 28.574 33.6697C29.6949 32.5956 30.8263 31.529 31.9498 30.4574C32.0291 30.3807 32.0846 30.2817 32.185 30.1506C32 30.1506 31.8863 30.1506 31.77 30.1506C29.7477 30.1481 27.7228 30.1506 25.7006 30.1456C24.1858 30.1407 22.6711 30.1283 21.1537 30.111C20.9687 30.1085 20.8259 30.1184 20.6806 30.2545C19.5386 31.3087 18.386 32.3531 17.2361 33.3999C17.1911 33.4395 17.1568 33.4915 17.0854 33.5756C17.1832 33.5558 17.2255 33.5509 17.2652 33.541C19.4963 33.0238 21.7247 32.5065 23.9532 31.9918C24.0484 31.9695 24.1541 31.9349 24.2413 31.9547C24.3312 31.9769 24.4502 32.0462 24.4713 32.118C24.4925 32.1873 24.4317 32.316 24.3629 32.3655C24.2599 32.4372 24.1224 32.4694 23.9929 32.4991C21.7274 33.0213 19.4672 33.5558 17.1964 34.0508C16.369 34.2314 15.6183 34.4839 15.0816 35.1397C14.9653 35.2832 14.8014 35.397 14.664 35.5257C14.5107 35.6742 14.3626 35.8227 14.2093 35.9712ZM16.2659 33.5608C16.295 33.5806 16.3267 33.6004 16.3558 33.6202C16.4351 33.5311 16.5038 33.4346 16.5911 33.3529C17.9419 32.1031 19.2927 30.8559 20.6488 29.6111C20.7652 29.5022 20.8312 29.4032 20.8022 29.2399C20.6673 28.4826 20.5563 27.7228 20.4083 26.968C20.0223 25.0179 19.6232 23.0678 19.2293 21.1177C19.1394 20.6772 19.0495 20.2392 18.9808 19.9125C17.8996 20.8677 16.792 21.8502 15.6209 22.8847C15.7716 22.9936 15.8853 23.0604 15.9831 23.1445C17.1224 24.1295 18.2591 25.1169 19.3985 26.1019C19.5465 26.2305 19.6681 26.3642 19.4831 26.5448C19.3324 26.6908 19.1923 26.6513 19.0442 26.5201C17.926 25.5252 16.8078 24.5329 15.687 23.5405C15.613 23.4737 15.5337 23.4118 15.3989 23.3004C13.715 28.4083 12.0496 33.4593 10.3815 38.5128C10.4132 38.5276 10.445 38.5425 10.4767 38.5573C10.5375 38.5029 10.5983 38.4484 10.6591 38.394C11.1508 37.9337 11.6372 37.4684 12.1342 37.0131C12.3906 36.778 12.5968 36.5379 12.7131 36.1989C13.0699 35.1595 13.4797 34.1374 13.863 33.1054C14.2675 32.0116 14.664 30.9128 15.0658 29.8165C15.1477 29.5888 15.3698 29.4873 15.494 29.6309C15.5654 29.715 15.5707 29.8981 15.531 30.012C14.9495 31.623 14.3547 33.2292 13.7652 34.8378C13.6304 35.2065 13.5008 35.5728 13.3449 36.0108C13.4533 35.9316 13.5035 35.9019 13.5458 35.8648C14.0692 35.3871 14.5847 34.9021 15.1187 34.4344C15.3777 34.2067 15.5548 33.9567 15.6817 33.64C16.2263 32.264 16.7973 30.8979 17.3683 29.5319C17.7304 28.6608 18.1137 27.7995 18.4759 26.9309C18.5552 26.7403 18.7006 26.671 18.8645 26.7577C18.9438 26.8022 18.957 26.973 18.9782 27.0918C18.9861 27.1413 18.9359 27.2006 18.9147 27.2526C18.2697 28.7622 17.622 30.2718 16.9823 31.7814C16.7312 32.3778 16.5038 32.9693 16.2659 33.5608ZM21.3124 29.0023C21.3652 28.9775 21.3943 28.9726 21.4102 28.9552C22.0843 28.3341 22.761 27.7179 23.4192 27.0868C23.5038 27.0051 23.5408 26.8294 23.5197 26.7082C23.0015 24.0181 22.4728 21.3305 21.9494 18.6405C21.8569 18.1579 21.7327 17.6802 21.8569 17.1803C22.0763 16.2993 22.6738 15.7079 23.4694 15.2451C25.1401 14.2725 26.0601 12.8273 26.4064 11.0479C26.4724 10.7089 26.4381 10.3302 26.3535 9.99118C26.253 9.60016 25.7666 9.36259 25.3913 9.44179C24.9842 9.52593 24.7198 9.86992 24.7727 10.3104C24.8123 10.6569 24.7542 10.9811 24.5956 11.283C24.3762 11.6988 24.1594 12.1269 23.8765 12.5055C23.2606 13.3247 22.5046 14.0102 21.5397 14.4779C20.2576 15.0991 19.2584 16.6755 20.1598 18.2594C20.1994 18.3286 20.1783 18.4722 20.1254 18.5365C19.9615 18.7419 19.7738 18.935 19.5809 19.1206C19.4302 19.2666 19.4011 19.4175 19.4434 19.618C19.8928 21.7958 20.3343 23.9736 20.7678 26.1538C20.9581 27.0967 21.1326 28.0396 21.3124 29.0023ZM21.4736 29.6457C21.5873 29.6507 21.6745 29.6581 21.7591 29.6581C23.5858 29.6581 25.4151 29.6581 27.2417 29.6581C28.8569 29.6581 30.4694 29.6581 32.0819 29.6705C32.2247 29.6705 32.4071 29.72 32.5049 29.809C32.8988 30.1629 33.3535 30.3931 33.8874 30.4673C35.3731 30.6777 36.9433 29.663 37.361 28.2499C37.4324 28.0074 37.5593 27.7674 37.7099 27.5595C37.9214 27.2724 38.1646 27.0002 38.421 26.7478C39.3119 25.8717 40.3508 25.2505 41.6752 25.1342C41.7862 25.1243 41.9052 25.0897 42.0056 25.0427C42.2567 24.9214 42.3836 24.6813 42.3493 24.4413C42.299 24.1047 42.0453 23.7904 41.7016 23.7583C41.3342 23.7236 40.9456 23.7038 40.5913 23.7805C38.5109 24.2408 37.0094 25.404 36.0578 27.1809C35.2409 28.7103 33.1605 28.928 32.0529 27.5694C31.881 27.3566 31.7092 27.2873 31.4343 27.2897C29.0023 27.2947 26.5676 27.2873 24.133 27.2897C24.0325 27.2897 23.9135 27.3491 23.8369 27.416C23.4615 27.7476 23.0914 28.0866 22.7293 28.4331C22.3142 28.8266 21.9098 29.225 21.4736 29.6457Z" fill="#FFEB61" stroke="#FFEB61" stroke-width="0.4" stroke-miterlimit="10"/>
<path d="M35.7456 16.3317C35.1984 15.8417 34.7226 15.4235 34.26 14.9978C34.1304 14.879 33.9031 14.7404 34.1172 14.5449C34.3313 14.3494 34.4847 14.5474 34.6274 14.6785C35.0345 15.0522 35.439 15.4284 35.8461 15.8046C35.9016 15.8565 35.9624 15.9036 35.9967 15.9308C37.033 14.9805 38.0534 14.0425 39.1346 13.0526C38.7433 13.0279 38.4208 13.0007 38.101 12.9858C36.9881 12.9363 35.8751 12.8918 34.7622 12.8348C34.6195 12.8274 34.4635 12.7804 34.3446 12.7111C32.4307 11.5777 30.419 10.6397 28.2064 10.1275C28.1138 10.1052 28.0134 10.0681 27.95 10.0087C27.8971 9.95918 27.8627 9.85029 27.8839 9.78842C27.905 9.72655 28.0055 9.65479 28.0742 9.65231C28.2222 9.64736 28.3756 9.6746 28.5209 9.70924C30.4824 10.1992 32.3144 10.9639 34.0273 11.9761C34.5058 12.2582 34.979 12.3943 35.5447 12.4018C36.6127 12.4117 37.6806 12.4859 38.7513 12.5329C38.8544 12.5379 38.9574 12.5329 39.1187 12.5329C38.9997 12.4018 38.9231 12.3028 38.8332 12.2186C38.4552 11.8548 38.0666 11.496 37.6912 11.1298C37.4665 10.912 37.5035 10.7684 37.8022 10.6719C39.8642 10.0013 41.9235 9.33307 43.9907 8.67726C44.1176 8.63766 44.3422 8.65004 44.4163 8.72676C44.4903 8.80347 44.4797 9.00888 44.4242 9.12767C43.6126 10.9169 42.7905 12.6987 41.9684 14.483C41.9446 14.5375 41.9182 14.5895 41.8891 14.6414C41.7543 14.8815 41.593 14.9186 41.3868 14.7231C41.0934 14.4434 40.8185 14.1465 40.533 13.8594C40.3321 13.654 40.1232 13.4535 39.8615 13.1937C39.8615 13.4115 39.8615 13.5476 39.8615 13.6862C39.8589 14.879 39.8642 16.0743 39.8483 17.2671C39.8457 17.5715 39.917 17.8363 40.0677 18.1036C40.7762 19.3608 41.3498 20.6699 41.8045 22.0261C41.8494 22.1597 41.9076 22.3008 41.9076 22.4369C41.9076 22.526 41.8362 22.6646 41.7622 22.6893C41.6882 22.7141 41.556 22.6399 41.4767 22.5755C41.4159 22.526 41.3895 22.432 41.3683 22.3528C40.9269 20.8753 40.2237 19.4994 39.5152 18.1234C39.4227 17.9428 39.3619 17.7299 39.3593 17.5295C39.3408 16.3292 39.3434 15.1265 39.3381 13.9237C39.3381 13.8371 39.3381 13.748 39.3381 13.6391C38.3495 14.5474 37.3899 15.4234 36.4118 16.3168C36.6259 16.5173 36.8189 16.6979 37.0118 16.8761C37.2788 17.1236 37.5432 17.3686 37.8102 17.6161C37.945 17.7398 37.9794 17.8735 37.8419 18.0096C37.6886 18.1605 37.567 18.0492 37.456 17.9477C37.0674 17.5938 36.6814 17.2325 36.2955 16.8761C36.2267 16.8118 36.1527 16.7524 36.0575 16.6732C35.6875 17.0122 35.3253 17.3414 34.9684 17.6755C31.9786 20.4571 28.9888 23.2412 26.0017 26.0253C25.7638 26.248 25.6131 26.2555 25.4915 26.0525C25.3858 25.8793 25.51 25.7679 25.6237 25.6615C26.1286 25.1913 26.6388 24.7236 27.1463 24.2534C29.8163 21.7712 32.4835 19.289 35.1535 16.8093C35.3174 16.6559 35.5051 16.5247 35.7456 16.3317ZM41.5507 14.1613C42.2962 12.523 43.0284 10.912 43.7924 9.23903C41.942 9.8404 40.1576 10.422 38.3283 11.0159C39.4201 12.085 40.4722 13.1096 41.5507 14.1613Z" fill="#FFEB61" stroke="#FFEB61" stroke-width="0.2" stroke-miterlimit="10"/>
</svg>
