<svg width="44" height="44" viewBox="0 0 44 44" fill="none" xmlns="http://www.w3.org/2000/svg">
<path d="M39.9663 11.7141C39.9663 11.6145 39.9663 11.5149 39.9663 11.4154C39.9639 10.8859 39.8521 10.7257 39.3446 10.5799C39.2669 10.5581 39.16 10.6067 39.0799 10.6479C38.6695 10.8641 38.2663 11.0899 37.8535 11.3061C37.6009 11.4396 37.3726 11.3984 37.239 11.1288C37.1103 10.8714 37.1832 10.6601 37.4382 10.5144C37.8122 10.3007 38.1813 10.0748 38.5577 9.87081C38.7059 9.79067 38.7666 9.7081 38.7302 9.53325C38.701 9.39482 38.6816 9.23696 38.7229 9.10825C38.8419 8.7464 38.667 8.58856 38.3683 8.45499C38.0769 8.32627 37.7928 8.1757 37.5208 8.00571C37.2245 7.82114 37.1516 7.54672 37.3095 7.30144C37.4892 7.02458 37.7296 7.06343 37.9749 7.197C38.3319 7.39371 38.6937 7.588 39.041 7.80171C39.1989 7.89885 39.3276 7.96442 39.4684 7.792C39.4806 7.775 39.5024 7.758 39.5219 7.75314C40.0246 7.65843 39.9979 7.28686 39.9809 6.90558C39.9687 6.63116 39.976 6.35188 39.9954 6.07746C40.0124 5.82732 40.1509 5.65974 40.4083 5.64032C40.656 5.62089 40.9013 5.84917 40.911 6.11145C40.9256 6.51944 40.9256 6.92987 40.9158 7.33786C40.911 7.50543 40.996 7.55642 41.1247 7.65114C41.5084 7.93285 41.8144 7.82114 42.1544 7.57828C42.4045 7.401 42.6911 7.27472 42.9679 7.13629C43.1792 7.02701 43.3784 7.03429 43.5119 7.26015C43.6504 7.49329 43.6892 7.73857 43.4366 7.90614C43.0967 8.13199 42.7421 8.33356 42.3778 8.52055C42.1592 8.63227 42.0427 8.74155 42.1398 9.00383C42.1811 9.11311 42.1957 9.2564 42.1592 9.36083C42.0475 9.67411 42.2224 9.78824 42.458 9.9121C42.7809 10.0797 43.0942 10.2667 43.4002 10.4658C43.6698 10.6431 43.7305 10.9054 43.5872 11.1507C43.4196 11.4324 43.1792 11.4275 42.9291 11.2915C42.5721 11.0948 42.2151 10.8932 41.8703 10.6747C41.7027 10.5678 41.5885 10.5994 41.4015 10.6528C40.8843 10.8058 40.8551 11.1555 40.8843 11.5878C40.9037 11.8622 40.8818 12.1415 40.8648 12.4159C40.8503 12.6952 40.707 12.887 40.4131 12.8798C40.1241 12.8725 39.976 12.6879 39.9639 12.4038C39.9541 12.1731 39.9614 11.9399 39.9614 11.7092C39.9711 11.7141 39.9687 11.7141 39.9663 11.7141ZM41.1466 9.27098C41.1538 8.85813 40.8406 8.52784 40.4326 8.52055C40.0537 8.5157 39.7331 8.84112 39.7259 9.2394C39.7186 9.60854 40.027 9.90725 40.4326 9.91939C40.8454 9.93639 41.1368 9.67168 41.1466 9.27098Z" fill="#FFEB61"/>
<path d="M11.5404 8.42174C11.5404 8.33189 11.5283 8.24447 11.5429 8.15704C11.6084 7.73448 11.4821 7.45277 11.0426 7.30706C10.8556 7.24391 10.739 7.22448 10.5666 7.3362C10.2169 7.56934 9.85018 7.77575 9.4859 7.97975C9.2479 8.11332 9.00991 8.10847 8.86177 7.83404C8.72091 7.57176 8.76706 7.33134 9.01962 7.16863C9.35476 6.95492 9.71418 6.77763 10.0396 6.55177C10.1513 6.47406 10.1975 6.30164 10.2606 6.16808C10.2825 6.12193 10.2485 6.05392 10.2655 6.00292C10.4379 5.48322 10.1756 5.22094 9.72875 5.0388C9.50533 4.94895 9.30133 4.80809 9.09491 4.68181C8.85205 4.5361 8.76463 4.23739 8.88605 4.00183C9.00748 3.77112 9.26976 3.70068 9.54418 3.85368C9.90118 4.05039 10.2582 4.25439 10.603 4.47053C10.7633 4.57253 10.892 4.59924 11.0474 4.47295C11.1203 4.41224 11.2199 4.37096 11.317 4.3491C11.4943 4.31025 11.538 4.20824 11.5331 4.04068C11.5234 3.65211 11.5259 3.26598 11.5307 2.87984C11.5356 2.54227 11.708 2.33342 11.9679 2.31885C12.2398 2.30671 12.4317 2.52042 12.4463 2.87742C12.4608 3.25384 12.456 3.63026 12.4657 4.00668C12.473 4.33696 13.0364 4.65024 13.3327 4.48753C13.7213 4.27382 14.0977 4.04311 14.496 3.85368C14.8529 3.68368 15.1444 3.83668 15.2002 4.18639C15.2367 4.40981 15.1444 4.5701 14.9477 4.67696C14.5785 4.8761 14.2142 5.08738 13.8427 5.28409C13.6775 5.37394 13.578 5.46622 13.6654 5.67508C13.7018 5.76008 13.7164 5.88151 13.6873 5.9665C13.5415 6.38178 13.765 6.55421 14.1025 6.70963C14.4134 6.85049 14.7048 7.03505 14.9914 7.22448C15.2609 7.40176 15.3217 7.6689 15.1687 7.91176C15.0011 8.18132 14.7679 8.14974 14.5324 8.02103C14.1438 7.80732 13.765 7.58147 13.3813 7.36291C13.0607 7.17834 12.473 7.50376 12.4657 7.87289C12.456 8.28088 12.4608 8.6913 12.4536 9.0993C12.4487 9.40043 12.2641 9.60201 11.9946 9.59473C11.6983 9.58744 11.5599 9.40287 11.5453 9.12359C11.5356 8.89288 11.5429 8.65974 11.5429 8.4266C11.5477 8.42175 11.5453 8.42174 11.5404 8.42174ZM12.0067 6.61492C12.4341 6.60763 12.7158 6.32107 12.7037 5.90336C12.694 5.5148 12.354 5.20395 11.9606 5.21609C11.5696 5.22823 11.2952 5.54879 11.3024 5.97621C11.3122 6.34049 11.623 6.6222 12.0067 6.61492Z" fill="#FFEB61"/>
<path d="M4.349 29.6859C3.80501 29.2294 3.45045 28.7024 3.31931 28.0515C3.28045 27.8621 3.25859 27.6387 3.32659 27.4687C3.38245 27.3254 3.57187 27.1603 3.71516 27.1481C3.85358 27.136 4.02115 27.2914 4.14986 27.4056C4.213 27.4614 4.21543 27.5877 4.23972 27.6848C4.46557 28.5664 4.95128 29.2221 5.87655 29.4091C6.80424 29.5961 7.45995 29.1007 8.01608 28.4255C8.10593 28.3187 8.19336 28.1584 8.3075 28.1317C8.4605 28.0953 8.69121 28.1147 8.79321 28.2118C8.89278 28.3065 8.93406 28.547 8.89035 28.6878C8.67907 29.3654 8.18365 29.7904 7.55466 30.0769C7.45509 30.1231 7.35066 30.1595 7.24866 30.2008C7.23895 30.2056 7.23166 30.2154 7.20009 30.2494C7.33609 30.3999 7.47937 30.5481 7.61051 30.7083C8.00636 31.1941 8.28322 31.7211 8.21036 32.3743C8.18608 32.5978 8.05979 32.792 7.8388 32.758C7.66151 32.7313 7.49395 32.5783 7.34823 32.4496C7.28509 32.3962 7.30695 32.2577 7.26566 32.1679C7.12238 31.8595 7.0131 31.5243 6.81153 31.2548C6.06597 30.2664 4.72057 30.2202 3.83173 31.1309C3.7103 31.2572 3.5913 31.3932 3.5063 31.5462C3.35331 31.8206 3.14202 31.891 2.8676 31.7769C2.64418 31.6846 2.55432 31.4005 2.66846 31.1163C2.90646 30.5311 3.36545 30.1619 3.91187 29.8851C4.04058 29.8219 4.16929 29.7685 4.349 29.6859Z" fill="#FFEB61"/>
<path d="M37.2099 30.3457C37.6617 30.3943 38.1036 30.4089 38.5262 30.5011C38.8103 30.5619 39.0872 30.7051 39.3349 30.8654C39.6069 31.0403 39.6628 31.3341 39.5122 31.5575C39.3325 31.8271 39.0993 31.8028 38.8443 31.6741C38.1498 31.3196 37.4309 31.2054 36.7145 31.5915C35.8864 32.036 35.5343 32.9661 35.7553 33.9958C35.7868 34.1439 35.8427 34.3261 35.7844 34.4426C35.714 34.5811 35.5343 34.7438 35.3983 34.7486C35.2477 34.7511 35.034 34.6199 34.9587 34.4839C34.6138 33.8841 34.6284 33.2381 34.8276 32.5897C34.8688 32.4561 34.9247 32.3274 34.9417 32.2788C34.3759 32.1841 33.8221 32.1185 33.283 31.9898C33.0596 31.9364 32.8556 31.764 32.6686 31.6158C32.4743 31.4604 32.4233 31.2516 32.5812 31.0306C32.7317 30.8193 32.9212 30.7756 33.1616 30.8727C33.4676 30.9966 33.7736 31.1471 34.0917 31.2078C35.4735 31.4774 36.5518 30.5181 36.4644 29.1072C36.4522 28.8983 36.4012 28.6919 36.3624 28.4855C36.3114 28.2135 36.3867 27.9876 36.6514 27.888C36.9355 27.7812 37.1225 27.956 37.2318 28.194C37.5135 28.806 37.5111 29.4374 37.3071 30.0689C37.2755 30.1709 37.2367 30.2704 37.2099 30.3457Z" fill="#FFEB61"/>
<path d="M17.6308 12.5443C18.7552 12.7289 19.4959 13.2948 19.8383 14.3317C19.8893 14.4847 19.916 14.6596 19.899 14.8199C19.8771 15.0433 19.7484 15.2182 19.5031 15.24C19.2652 15.2619 19.0976 15.1526 19.0126 14.9267C18.9713 14.8126 18.9397 14.696 18.8984 14.5795C18.6775 13.9383 18.216 13.574 17.553 13.5133C16.8949 13.4526 16.3655 13.7222 16.0206 14.2977C15.8676 14.5527 15.7268 14.8029 15.3577 14.713C15.1294 14.6572 14.9982 14.5212 15.0298 14.2905C15.0565 14.1083 15.1051 13.914 15.2047 13.761C15.7875 12.8625 16.6326 12.4836 17.6308 12.5443Z" fill="#FFEB61"/>
<path d="M1.94603 15.315C1.89746 15.6283 1.89017 15.9732 1.45789 15.9829C1.1689 15.9902 1.03533 15.8153 0.964903 15.349C0.663766 15.2665 0.301915 15.1936 0.340771 14.771C0.369914 14.4432 0.641909 14.3363 0.964903 14.3193C0.989188 14.2246 1.01105 14.1323 1.03533 14.0401C1.09847 13.8118 1.24176 13.6782 1.48461 13.6758C1.72746 13.6758 1.85132 13.8409 1.88046 14.0474C1.9096 14.2416 1.97274 14.3266 2.1816 14.3533C2.42445 14.3849 2.62844 14.5209 2.61873 14.8075C2.60902 15.0795 2.43173 15.2155 2.17674 15.2665C2.10145 15.281 2.02617 15.298 1.94603 15.315Z" fill="#FFEB61"/>
<path d="M31.3277 14.1666C31.0946 14.1448 30.9513 14.0136 30.8639 13.7756C30.825 13.6639 30.7133 13.5498 30.604 13.4988C30.3855 13.3919 30.1645 13.2875 30.1863 13.0106C30.2057 12.7484 30.4049 12.6318 30.6453 12.5492C30.7424 12.5176 30.8566 12.4059 30.8784 12.3136C30.9392 12.0562 31.0557 11.8862 31.3374 11.8814C31.607 11.8789 31.7163 12.0368 31.7746 12.2869C31.7989 12.3914 31.9324 12.5128 32.0417 12.5444C32.3016 12.6172 32.508 12.7338 32.508 13.0228C32.5056 13.3191 32.2846 13.4138 32.0247 13.4745C31.9349 13.4963 31.8353 13.6226 31.8013 13.7222C31.7211 13.9529 31.6289 14.1545 31.3277 14.1666Z" fill="#FFEB61"/>
<path d="M41.8313 19.8177C41.8119 19.9465 41.8021 20.046 41.7827 20.1407C41.7366 20.3714 41.6006 20.5293 41.3553 20.5269C41.11 20.5244 40.9133 20.3933 40.8866 20.1432C40.8623 19.9173 40.7579 19.8493 40.566 19.7594C40.4227 19.6914 40.2867 19.485 40.2552 19.3223C40.209 19.0867 40.3936 18.958 40.6219 18.89C40.7142 18.8609 40.8332 18.7759 40.8574 18.6933C40.9303 18.4408 41.0177 18.2222 41.3261 18.2246C41.6564 18.2271 41.7851 18.4383 41.8216 18.737C41.8264 18.7686 41.8434 18.7978 41.8556 18.8269C42.3364 18.9338 42.487 19.0649 42.47 19.3709C42.4481 19.757 42.1567 19.7983 41.8313 19.8177Z" fill="#FFEB61"/>
<path d="M25.1791 16.5323C25.1815 16.8213 24.9532 17.0593 24.6642 17.069C24.351 17.0787 24.0838 16.8261 24.0887 16.5201C24.0935 16.2166 24.3315 15.9834 24.6424 15.9834C24.9411 15.981 25.1767 16.2214 25.1791 16.5323Z" fill="#FFEB61"/>
<path d="M12.3683 37.8133C12.072 37.8157 11.8292 37.5728 11.8243 37.2693C11.8194 36.973 12.0404 36.7496 12.3416 36.7447C12.6427 36.7398 12.9098 36.9827 12.9147 37.2668C12.922 37.5607 12.6719 37.8108 12.3683 37.8133Z" fill="#FFEB61"/>
<path d="M30.0821 33.5708C30.0796 33.8816 29.8392 34.1148 29.5308 34.1026C29.2442 34.0929 29.0111 33.8573 29.0038 33.5708C28.9965 33.2891 29.2661 33.0049 29.5405 33.0073C29.8198 33.0049 30.0821 33.2818 30.0821 33.5708Z" fill="#FFEB61"/>
<path d="M2.09683 23.2382C1.80541 23.248 1.56013 23.0245 1.54313 22.7355C1.52613 22.4271 1.75441 22.1794 2.06283 22.1673C2.35911 22.1576 2.61411 22.4053 2.61896 22.7064C2.62625 22.9905 2.39068 23.2285 2.09683 23.2382Z" fill="#FFEB61"/>
<path d="M42.0886 26.5691C41.7729 26.5642 41.5519 26.3335 41.5616 26.0202C41.5713 25.7288 41.8044 25.5005 42.0934 25.5029C42.3897 25.5054 42.6204 25.7482 42.618 26.0639C42.618 26.3651 42.3994 26.5739 42.0886 26.5691Z" fill="#FFEB61"/>
<path d="M24.6336 11.3226C24.6263 11.6262 24.3713 11.8909 24.092 11.8812C23.8079 11.8715 23.5771 11.6286 23.5771 11.3396C23.5771 11.0288 23.82 10.7786 24.1114 10.7884C24.398 10.7981 24.6408 11.0458 24.6336 11.3226Z" fill="#FFEB61"/>
<path d="M14.7508 32.7617C15.0301 32.7593 15.2584 33.0094 15.2511 33.3057C15.2438 33.5971 15.0325 33.8036 14.7435 33.8011C14.4594 33.7963 14.2141 33.5559 14.2092 33.2766C14.2068 32.9973 14.4545 32.7617 14.7508 32.7617Z" fill="#FFEB61"/>
<path d="M32.4597 40.164C31.668 40.9849 30.7816 41.2715 29.7324 40.963C29.577 40.9169 29.4191 40.8392 29.2953 40.7347C29.1253 40.589 29.0524 40.385 29.1763 40.1689C29.2929 39.96 29.4799 39.8848 29.713 39.943C29.8296 39.9722 29.9437 40.0135 30.0627 40.0475C30.716 40.2296 31.2794 40.0596 31.7044 39.5472C32.1294 39.0396 32.2071 38.4519 31.9327 37.8399C31.8112 37.5679 31.685 37.3105 31.9691 37.058C32.1464 36.9025 32.331 36.871 32.5034 37.0288C32.6369 37.1527 32.7705 37.3057 32.8385 37.4708C33.2465 38.4689 33.0765 39.3772 32.4597 40.164Z" fill="#FFEB61"/>
<path d="M24.6687 43.1295C24.6201 43.4428 24.6128 43.7876 24.1806 43.7973C23.8916 43.8046 23.758 43.6298 23.6876 43.1635C23.3864 43.0809 23.0246 43.0081 23.0634 42.5855C23.0926 42.2577 23.3646 42.1508 23.6876 42.1338C23.7118 42.0391 23.7337 41.9468 23.758 41.8545C23.8211 41.6262 23.9644 41.4927 24.2073 41.4902C24.4501 41.4902 24.574 41.6554 24.6031 41.8618C24.6323 42.0561 24.6954 42.1411 24.9043 42.1678C25.1471 42.1994 25.3511 42.3354 25.3414 42.6219C25.3317 42.8939 25.1544 43.0299 24.8994 43.0809C24.8265 43.0955 24.7513 43.1101 24.6687 43.1295Z" fill="#FFEB61"/>
<path d="M18.0852 40.5187C18.0366 40.8319 18.0293 41.1768 17.5971 41.1865C17.3081 41.1938 17.1745 41.0189 17.1041 40.5527C16.8029 40.4701 16.4411 40.3972 16.4799 39.9747C16.5091 39.6468 16.7811 39.5399 17.1041 39.5229C17.1283 39.4282 17.1502 39.336 17.1745 39.2437C17.2376 39.0154 17.3809 38.8818 17.6238 38.8794C17.8666 38.8794 17.9905 39.0445 18.0196 39.251C18.0488 39.4452 18.1119 39.5302 18.3208 39.5569C18.5636 39.5885 18.7676 39.7245 18.7579 40.0111C18.7482 40.2831 18.5709 40.4191 18.3159 40.4701C18.243 40.4846 18.1678 40.5017 18.0852 40.5187Z" fill="#FFEB61"/>
<path d="M31.7432 0.653977C31.9433 0.406453 32.2875 0.351464 32.5143 0.530804C32.7358 0.705743 32.7497 1.02424 32.548 1.27727C32.3464 1.53029 31.9856 1.60545 31.7731 1.43784C31.5518 1.26639 31.5381 0.907551 31.7432 0.653977Z" fill="#FFEB61"/>
<path d="M33.8387 5.68414C33.6502 5.91754 33.3105 5.95603 33.0973 5.77101C32.8877 5.58892 32.8797 5.28876 33.0785 5.05022C33.2757 4.81718 33.6198 4.75871 33.8287 4.92338C34.036 5.09007 34.0406 5.43808 33.8387 5.68414Z" fill="#FFEB61"/>
<path d="M19.4478 7.65831C19.2503 7.42873 19.0014 7.21437 19.2888 6.8495C19.4804 6.60509 19.7001 6.59979 20.0914 6.82296C20.3574 6.62274 20.6576 6.36624 20.9422 6.65377C21.1637 6.87601 21.057 7.16646 20.8494 7.44497C20.9026 7.52235 20.9557 7.59624 21.0071 7.67215C21.1321 7.86249 21.1328 8.06217 20.9691 8.26532C20.8036 8.46701 20.5976 8.47012 20.4258 8.36963C20.2629 8.27647 20.1573 8.27756 19.9953 8.43488C19.8066 8.61749 19.5675 8.70476 19.3631 8.52358C19.1695 8.35121 19.1902 8.12183 19.3264 7.87925C19.3653 7.80994 19.4059 7.73862 19.4478 7.65831Z" fill="#FFEB61"/>
<path d="M25.856 3.76768C25.6585 3.53811 25.4096 3.32374 25.697 2.95887C25.8886 2.71447 26.1083 2.70916 26.4996 2.93233C26.7656 2.73212 27.0658 2.47562 27.3504 2.76314C27.5719 2.98539 27.4652 3.27583 27.2576 3.55434C27.3108 3.63172 27.3639 3.70562 27.4153 3.78153C27.5403 3.97187 27.541 4.17154 27.3773 4.3747C27.2118 4.57638 27.0058 4.57949 26.834 4.479C26.6711 4.38584 26.5655 4.38694 26.4035 4.54425C26.2148 4.72687 25.9757 4.81413 25.7713 4.63296C25.5777 4.46059 25.5984 4.2312 25.7346 3.98863C25.7735 3.91932 25.8123 3.84653 25.856 3.76768Z" fill="#FFEB61"/>
<path d="M15.1564 23.7718C15.205 23.5387 15.2608 23.3201 15.29 23.0991C15.2973 23.0457 15.2244 22.9412 15.171 22.9291C14.8237 22.8392 14.4691 22.7154 14.117 22.7008C13.2379 22.6644 12.3588 22.6498 11.5161 22.3705C9.70195 21.7658 8.1914 20.7191 7.00871 19.2159C6.11016 18.072 5.86973 16.8092 6.35786 15.4177C6.79743 14.1597 7.49199 13.0644 8.42697 12.1221C8.5314 12.0177 8.64311 11.8939 8.82039 11.9813C8.99039 12.0639 9.0171 12.2144 9.00253 12.3844C8.99282 12.4743 8.98067 12.5666 8.9831 12.6564C8.99282 13.0353 8.97339 13.4165 9.02196 13.7881C9.16524 14.8567 9.80395 15.5804 10.7171 16.0879C11.6083 16.5833 12.5773 16.6805 13.5754 16.6562C14.2239 16.6416 14.8771 16.5809 15.5207 16.7266C16.7714 17.0132 17.6821 17.766 18.4058 18.786C18.4932 18.9099 18.5758 19.0362 18.6608 19.16C18.6681 19.1722 18.6851 19.177 18.7142 19.1989C19.6783 18.7399 20.7226 18.7399 21.7693 18.7472C22.6023 18.752 23.4328 18.7496 24.2683 18.7496C25.0017 18.7496 25.7181 18.8613 26.4054 19.1163C26.6021 19.1892 26.7016 19.1454 26.8061 18.9754C27.2821 18.2105 27.9086 17.596 28.6979 17.1516C29.3317 16.7946 30.0141 16.6368 30.7427 16.6441C31.515 16.6514 32.2921 16.6902 33.0547 16.6052C34.3248 16.4619 35.3788 15.8912 36.0175 14.7255C36.3793 14.0674 36.4425 13.3461 36.3745 12.6079C36.3647 12.501 36.3283 12.3917 36.3502 12.2946C36.3745 12.1877 36.4279 12.0444 36.5105 12.0056C36.593 11.9667 36.7655 12.0031 36.8335 12.0711C37.1322 12.3796 37.4333 12.6953 37.6883 13.0377C38.4217 14.0261 38.9706 15.1044 39.1648 16.3381C39.3348 17.4188 39.0143 18.378 38.361 19.2037C36.8942 21.0567 35.0193 22.271 32.6491 22.6304C32.2557 22.6911 31.8477 22.679 31.447 22.6838C30.9516 22.6911 30.4731 22.7809 29.9899 22.9509C30.0409 23.2205 30.0894 23.4852 30.1404 23.7548C30.1623 23.7524 30.189 23.7597 30.206 23.7475C31.0244 23.1039 31.9545 23.0141 32.9162 23.2691C33.7468 23.4876 34.5628 23.7766 35.3788 24.0486C35.7042 24.1579 35.7795 24.3668 35.5925 24.6485C34.9756 25.5835 34.3151 26.4869 33.5039 27.2689C32.4573 28.2743 31.2138 28.7041 29.7762 28.5876C29.5916 28.573 29.4969 28.6119 29.4313 28.8037C29.0525 29.8917 28.4793 30.8752 27.809 31.8078C27.3889 32.3955 27.0003 33.0099 26.9202 33.7482C26.8619 34.2946 26.8304 34.8532 26.8668 35.402C26.9421 36.5507 26.5146 37.4711 25.6938 38.2313C24.8462 39.0157 23.8603 39.5208 22.6824 39.5426C21.099 39.5694 19.2485 38.3162 18.6972 36.8348C18.5709 36.4949 18.5296 36.1136 18.5102 35.7493C18.4786 35.2223 18.5005 34.6905 18.4956 34.161C18.4859 33.3111 18.1168 32.5971 17.6311 31.9341C16.905 30.9408 16.2857 29.8893 15.8558 28.7284C15.8316 28.6604 15.7198 28.5754 15.6567 28.5803C13.947 28.7454 12.5482 28.1286 11.4408 26.856C10.8652 26.1955 10.3528 25.479 9.81609 24.7869C9.76023 24.7165 9.71652 24.6315 9.68738 24.5489C9.61452 24.3425 9.67038 24.1846 9.87437 24.1021C10.9211 23.6819 11.9799 23.2812 13.1116 23.1719C13.8232 23.1015 14.4983 23.2424 15.0641 23.7305C15.086 23.7402 15.1151 23.7499 15.1564 23.7718ZM19.0858 34.7682C19.1149 34.7949 19.1416 34.8216 19.1708 34.8483C19.2485 34.7366 19.3141 34.6152 19.4088 34.518C20.8149 33.0415 21.5823 31.3367 21.2107 29.2603C20.9582 27.8614 20.3098 26.6812 19.1222 25.8482C18.4932 25.4086 17.7938 25.1366 17.024 25.0468C16.7252 25.0128 16.5965 24.8622 16.633 24.6291C16.6645 24.4324 16.7908 24.3643 17.0774 24.4226C17.8594 24.5853 18.6292 24.8039 19.2922 25.2605C21.3079 26.6569 22.0559 28.6434 21.813 31.0161C21.6333 32.7816 20.7032 34.1877 19.4088 35.3389C19.0251 35.6813 18.9911 35.9849 19.1441 36.4001C19.1586 36.4414 19.1732 36.4851 19.1902 36.5289C19.5302 37.4371 20.215 38.0248 21.0286 38.4887C21.1962 38.5834 21.3759 38.6562 21.5653 38.7437C21.5653 38.2968 21.5653 37.8864 21.5653 37.4833C21.5289 37.4711 21.5143 37.4638 21.4997 37.4614C21.4706 37.459 21.439 37.459 21.4099 37.459C20.8343 37.4614 20.4118 37.187 20.113 36.7158C19.6371 35.963 20.1422 34.9066 21.0189 34.8799C22.1166 34.8459 23.2143 34.8532 24.3095 34.875C24.9531 34.8872 25.5019 35.5162 25.4339 36.1451C25.3684 36.7547 24.9944 37.1457 24.4358 37.3521C24.2294 37.4298 23.9987 37.4444 23.768 37.4905C23.768 37.8888 23.768 38.2944 23.768 38.7607C24.0958 38.5834 24.4018 38.4425 24.686 38.2628C25.4461 37.7795 25.9925 37.1287 26.2475 36.2447C26.3495 35.8901 26.3058 35.6376 26.0071 35.3704C25.1935 34.6467 24.5038 33.821 24.0448 32.8156C23.1123 30.7732 23.2653 28.794 24.414 26.8949C25.264 25.4863 26.5754 24.7359 28.1685 24.4421C28.5595 24.3692 28.6882 24.4032 28.7319 24.6145C28.778 24.8476 28.6323 24.9836 28.2729 25.0443C26.7599 25.2969 25.5772 26.0473 24.8122 27.3951C24.1954 28.4807 23.8724 29.6343 24.0594 30.8971C24.2901 32.4586 25.0891 33.7045 26.1989 34.7754C26.2111 34.7876 26.2378 34.7803 26.2305 34.7803C26.2815 34.3237 26.3034 33.8696 26.3884 33.4252C26.5414 32.6116 26.9639 31.9171 27.4472 31.2614C28.4696 29.8698 29.0937 28.3107 29.4216 26.6253C29.6256 25.5713 29.7082 24.5052 29.5042 23.4439C29.067 21.1563 26.9785 19.4053 24.601 19.3324C23.4887 19.2984 22.3764 19.3179 21.2642 19.3082C20.2636 19.3009 19.3068 19.466 18.4252 19.9663C16.9487 20.8066 15.9797 22.0281 15.7806 23.7354C15.5547 25.683 15.9748 27.5409 16.7471 29.3283C17.1065 30.1588 17.6335 30.8922 18.1459 31.6329C18.5734 32.2473 18.9085 32.9103 19.0154 33.6583C19.0639 34.0275 19.0639 34.399 19.0858 34.7682ZM8.14526 13.3121C8.10883 13.3655 8.08455 13.402 8.05541 13.4384C7.57699 14.0795 7.21756 14.7789 6.93343 15.5294C6.45258 16.8068 6.70272 17.9239 7.54541 18.9609C8.35897 19.959 9.3571 20.7143 10.4888 21.3068C11.3436 21.7537 12.2446 22.0548 13.2136 22.0888C13.9907 22.118 14.7703 22.0937 15.5037 22.4045C16.0234 21.1417 16.837 20.163 18.0318 19.5194C18.1435 19.4587 18.1484 19.3932 18.0804 19.3033C17.9565 19.1406 17.8399 18.973 17.7088 18.8152C16.8224 17.7296 15.7101 17.1346 14.2749 17.2148C13.8304 17.239 13.3812 17.2366 12.9367 17.2293C12.2033 17.2196 11.4918 17.0958 10.8191 16.7898C9.73109 16.2944 8.92239 15.5342 8.57511 14.3515C8.56054 14.3005 8.52897 14.2544 8.50468 14.2058C8.39783 14.5434 8.32011 14.8737 8.29097 15.2088C8.2254 16.0078 8.21812 16.8019 8.78153 17.4698C8.88839 17.596 8.8981 17.7539 8.76454 17.8777C8.62854 18.0016 8.46826 17.9822 8.35897 17.8583C8.22055 17.7029 8.0894 17.528 8.00198 17.3386C7.6547 16.5761 7.62313 15.7674 7.7567 14.9587C7.84898 14.4244 8.00441 13.895 8.14526 13.3121ZM36.8626 14.2131C36.6853 14.592 36.5566 14.9587 36.3526 15.2817C35.6605 16.3891 34.6089 16.9792 33.3461 17.137C32.5107 17.2415 31.6558 17.2196 30.8083 17.2172C29.1277 17.2075 28.0495 18.1473 27.1606 19.4563C28.3967 20.1436 29.2977 21.1077 29.8004 22.39C30.0846 22.3195 30.3299 22.2248 30.5824 22.2005C31.1458 22.1447 31.7141 22.135 32.2775 22.084C33.6739 21.9601 34.9028 21.4064 36.032 20.605C36.865 20.0124 37.6106 19.3276 38.1424 18.4412C38.5213 17.8097 38.7398 17.1346 38.599 16.3842C38.4411 15.5415 38.1424 14.7547 37.6834 14.031C37.5329 13.793 37.3629 13.5647 37.2026 13.3316C37.1832 13.3413 37.1662 13.3534 37.1467 13.3631C37.1735 13.4384 37.2026 13.5137 37.2293 13.589C37.5499 14.5167 37.7126 15.4638 37.562 16.4449C37.4892 16.9258 37.3556 17.3945 37.0423 17.783C36.8966 17.9652 36.7072 17.9895 36.5687 17.8656C36.4206 17.7345 36.4449 17.5548 36.5785 17.3629C36.7169 17.1613 36.8505 16.9452 36.9233 16.7145C37.1054 16.1414 37.0739 15.5488 36.9937 14.9587C36.967 14.7134 36.9087 14.4681 36.8626 14.2131ZM34.9878 24.5659C34.9101 24.5101 34.8882 24.4858 34.8615 24.4785C34.0868 24.2478 33.3218 23.9855 32.5374 23.7937C31.6704 23.5824 30.9006 23.8009 30.2983 24.4858C30.2327 24.5611 30.1841 24.6752 30.172 24.7748C30.0919 25.4645 30.0384 26.159 29.9437 26.8463C29.8903 27.23 29.7762 27.6064 29.6863 27.9999C30.495 28.0654 31.26 28.0023 31.9788 27.6356C32.5398 27.349 33.0231 26.9604 33.4287 26.4869C33.9629 25.8627 34.4656 25.2143 34.9878 24.5659ZM10.3552 24.5344C10.9939 25.411 11.5743 26.2197 12.3199 26.8973C12.9003 27.4267 13.5487 27.8347 14.3429 27.9416C14.763 27.9974 15.1904 28.0023 15.647 28.0339C15.613 27.8833 15.5984 27.8056 15.5766 27.7254C15.3361 26.8172 15.2098 25.8895 15.1467 24.9521C15.137 24.8088 15.1297 24.6363 15.0496 24.5319C14.7484 24.1336 14.3477 23.8811 13.8499 23.7791C13.2573 23.6577 12.689 23.7718 12.1305 23.9394C11.5452 24.1094 10.9745 24.3231 10.3552 24.5344ZM22.1287 38.9501C22.442 38.9501 22.7261 38.9477 23.0103 38.9501C23.1633 38.9525 23.2191 38.8845 23.2167 38.7291C23.207 38.2458 23.2143 37.7601 23.2143 37.2768C23.2143 36.8445 23.2677 36.796 23.7 36.8421C23.7461 36.847 23.7898 36.8518 23.836 36.8567C24.1323 36.8931 24.3873 36.8033 24.6058 36.6017C24.839 36.3856 24.9142 36.1233 24.8171 35.8659C24.7175 35.6036 24.4893 35.4506 24.176 35.4506C23.1778 35.4482 22.1797 35.453 21.1792 35.453C20.8756 35.453 20.6546 35.5866 20.5356 35.8659C20.4288 36.116 20.5138 36.3783 20.7445 36.5993C21.0165 36.8591 21.337 36.8956 21.694 36.8421C22.0486 36.7911 22.1311 36.8761 22.1311 37.2258C22.1287 37.7771 22.1287 38.3284 22.1287 38.9501Z" fill="#FFEB61" stroke="#FFEB61" stroke-width="0.4" stroke-miterlimit="10"/>
<path d="M19.5038 29.1559C18.7656 29.117 18.2434 28.8766 17.8792 28.3423C17.8282 28.2695 17.7723 28.1772 17.7772 28.0971C17.7844 27.9975 17.8257 27.8615 17.8986 27.8153C17.9739 27.7692 18.1074 27.8032 18.2094 27.8275C18.258 27.8396 18.2969 27.9076 18.3309 27.9562C18.7461 28.5318 19.2367 28.6823 19.8827 28.4298C20.1377 28.3302 20.3004 28.3642 20.3732 28.5342C20.4461 28.7066 20.3587 28.9082 20.1231 28.9956C19.8948 29.0806 19.6471 29.1195 19.5038 29.1559Z" fill="#FFEB61" stroke="#FFEB61" stroke-width="0.4" stroke-miterlimit="10"/>
<path d="M25.9802 29.1776C25.7325 29.1193 25.4751 29.0853 25.2395 28.993C25.1278 28.9493 25.0161 28.8084 24.9821 28.6894C24.9262 28.4903 25.1035 28.3397 25.3075 28.3834C25.395 28.4029 25.48 28.4393 25.5625 28.4733C26.0871 28.6821 26.6286 28.517 26.9589 28.0483C27.1581 27.7641 27.2892 27.7059 27.4592 27.82C27.6268 27.9317 27.6219 28.143 27.4471 28.4029C27.1508 28.8448 26.5558 29.146 25.9802 29.1776Z" fill="#FFEB61" stroke="#FFEB61" stroke-width="0.4" stroke-miterlimit="10"/>
<path d="M14.7341 17.9385C15.4602 17.9336 16.3199 18.6088 16.5093 19.3325C16.5555 19.5073 16.5555 19.6676 16.3588 19.7502C16.2009 19.8158 16.0358 19.7332 15.9605 19.5146C15.8196 19.1236 15.5768 18.8298 15.1906 18.6768C15.0328 18.6136 14.8579 18.5796 14.6879 18.5675C14.4257 18.5505 14.3164 18.4874 14.3067 18.2906C14.297 18.0915 14.4257 17.9652 14.6661 17.9409C14.6879 17.9409 14.7122 17.9409 14.7341 17.9385Z" fill="#FFEB61" stroke="#FFEB61" stroke-width="0.4" stroke-miterlimit="10"/>
<path d="M30.6359 18.5798C30.1283 18.5385 29.6135 18.9173 29.3997 19.5002C29.3439 19.6483 29.2856 19.7795 29.0986 19.7892C28.8728 19.7989 28.7416 19.6945 28.8072 19.4807C28.8873 19.2136 29.0015 18.9392 29.1642 18.7133C29.4847 18.2616 29.9486 18.0163 30.5023 17.9556C30.5679 17.9483 30.6383 17.9459 30.7039 17.9556C30.9443 17.9848 31.0681 18.1062 31.0536 18.2883C31.039 18.4972 30.8909 18.6016 30.6359 18.5798Z" fill="#FFEB61" stroke="#FFEB61" stroke-width="0.4" stroke-miterlimit="10"/>
</svg>
