<svg width="24" height="24" viewBox="0 0 24 24" fill="none" xmlns="http://www.w3.org/2000/svg">
<g clip-path="url(#clip0_3027_7195)">
<path d="M11.9998 16C11.7661 16.0005 11.5397 15.9191 11.3598 15.77L5.35979 10.77C5.15557 10.6003 5.02715 10.3564 5.00277 10.0919C4.97839 9.8275 5.06005 9.56422 5.22979 9.36C5.39953 9.15578 5.64344 9.02736 5.90786 9.00298C6.17229 8.9786 6.43557 9.06026 6.63979 9.23L11.9998 13.71L17.3598 9.39C17.4621 9.30694 17.5798 9.2449 17.7061 9.20747C17.8325 9.17004 17.9649 9.15795 18.096 9.17189C18.227 9.18582 18.354 9.22552 18.4696 9.2887C18.5853 9.35187 18.6873 9.43727 18.7698 9.54C18.8614 9.64282 18.9307 9.76345 18.9735 9.89432C19.0163 10.0252 19.0316 10.1635 19.0185 10.3006C19.0053 10.4376 18.964 10.5705 18.8971 10.6909C18.8303 10.8112 18.7392 10.9165 18.6298 11L12.6298 15.83C12.4447 15.9555 12.2229 16.0154 11.9998 16V16Z" fill="#F6F6F6"/>
</g>
<defs>
<clipPath id="clip0_3027_7195">
<rect width="24" height="24" fill="white"/>
</clipPath>
</defs>
</svg>
