<svg width="40" height="40" viewBox="0 0 40 40" fill="none" xmlns="http://www.w3.org/2000/svg">
<rect width="40" height="40" rx="20" fill="#111010"/>
<path d="M16.1325 20.39C15.9673 20.3535 15.9673 20.1179 16.1325 20.0814C18.0753 19.6511 19.5854 18.1219 19.991 16.1738L20.0023 16.1197C20.0378 15.9491 20.2815 15.9491 20.317 16.1197L20.3283 16.1738C20.7339 18.1219 22.244 19.6511 24.1868 20.0814C24.352 20.1179 24.352 20.3535 24.1868 20.39C22.244 20.8203 20.7339 22.3495 20.3283 24.2976L20.317 24.3517C20.2815 24.5223 20.0378 24.5223 20.0023 24.3517L19.991 24.2976C19.5854 22.3495 18.0753 20.8203 16.1325 20.39Z" fill="white"/>
<path d="M16.1768 20.3833L8.50011 20.2718V20.1995L16.1768 20.088V20.3833Z" fill="url(#paint0_linear_1781_5987)"/>
<path d="M24.1221 20.3833L31.7987 20.2718V20.1995L24.1221 20.088V20.3833Z" fill="url(#paint1_linear_1781_5987)"/>
<path d="M20.0117 16.1768L20.1232 8.50011L20.1955 8.50011L20.307 16.1768L20.0117 16.1768Z" fill="url(#paint2_linear_1781_5987)"/>
<path d="M20.0117 24.1528L20.1232 31.8295L20.1955 31.8295L20.307 24.1528L20.0117 24.1528Z" fill="url(#paint3_linear_1781_5987)"/>
<defs>
<linearGradient id="paint0_linear_1781_5987" x1="16.1768" y1="20.2357" x2="8.5001" y2="20.2357" gradientUnits="userSpaceOnUse">
<stop offset="0.357779" stop-color="white"/>
<stop offset="0.797844" stop-color="white" stop-opacity="0.29"/>
<stop offset="1" stop-color="white" stop-opacity="0"/>
</linearGradient>
<linearGradient id="paint1_linear_1781_5987" x1="24.1221" y1="20.2357" x2="31.7987" y2="20.2357" gradientUnits="userSpaceOnUse">
<stop offset="0.357779" stop-color="white"/>
<stop offset="0.797844" stop-color="white" stop-opacity="0.29"/>
<stop offset="1" stop-color="white" stop-opacity="0"/>
</linearGradient>
<linearGradient id="paint2_linear_1781_5987" x1="20.1594" y1="16.1768" x2="20.1594" y2="8.5001" gradientUnits="userSpaceOnUse">
<stop offset="0.357779" stop-color="white"/>
<stop offset="0.797844" stop-color="white" stop-opacity="0.29"/>
<stop offset="1" stop-color="white" stop-opacity="0"/>
</linearGradient>
<linearGradient id="paint3_linear_1781_5987" x1="20.1594" y1="24.1528" x2="20.1594" y2="31.8295" gradientUnits="userSpaceOnUse">
<stop offset="0.357779" stop-color="white"/>
<stop offset="0.797844" stop-color="white" stop-opacity="0.29"/>
<stop offset="1" stop-color="white" stop-opacity="0"/>
</linearGradient>
</defs>
</svg>
