<svg width="64" height="64" viewBox="0 0 64 64" fill="none" xmlns="http://www.w3.org/2000/svg">
<rect width="64" height="64" rx="32" fill="#1B1D1F"/>
<path d="M24.265 32.7796C23.9346 32.7064 23.9346 32.2354 24.265 32.1622C28.1506 31.3018 31.1707 28.2432 31.982 24.3471L32.0045 24.239C32.0756 23.8977 32.563 23.8977 32.634 24.239L32.6565 24.3471C33.4678 28.2432 36.488 31.3018 40.3736 32.1622C40.704 32.2354 40.704 32.7064 40.3736 32.7796C36.488 33.64 33.4678 36.6986 32.6565 40.5948L32.634 40.7029C32.563 41.0441 32.0756 41.0441 32.0045 40.7029L31.982 40.5948C31.1707 36.6986 28.1506 33.64 24.265 32.7796Z" fill="white"/>
<path d="M24.3535 32.7661L9.00021 32.5432V32.3985L24.3535 32.1756V32.7661Z" fill="url(#paint0_linear_1654_6067)"/>
<path d="M40.2441 32.7666L55.5974 32.5437V32.399L40.2441 32.1761V32.7666Z" fill="url(#paint1_linear_1654_6067)"/>
<path d="M32.0234 24.353L32.2463 8.99973L32.391 8.99973L32.6139 24.353L32.0234 24.353Z" fill="url(#paint2_linear_1654_6067)"/>
<path d="M32.0234 40.3057L32.2463 55.659L32.391 55.659L32.6139 40.3057L32.0234 40.3057Z" fill="url(#paint3_linear_1654_6067)"/>
<defs>
<linearGradient id="paint0_linear_1654_6067" x1="24.3535" y1="32.4708" x2="9.0002" y2="32.4708" gradientUnits="userSpaceOnUse">
<stop offset="0.357779" stop-color="white"/>
<stop offset="0.797844" stop-color="white" stop-opacity="0.29"/>
<stop offset="1" stop-color="white" stop-opacity="0"/>
</linearGradient>
<linearGradient id="paint1_linear_1654_6067" x1="40.2441" y1="32.4713" x2="55.5975" y2="32.4713" gradientUnits="userSpaceOnUse">
<stop offset="0.357779" stop-color="white"/>
<stop offset="0.797844" stop-color="white" stop-opacity="0.29"/>
<stop offset="1" stop-color="white" stop-opacity="0"/>
</linearGradient>
<linearGradient id="paint2_linear_1654_6067" x1="32.3187" y1="24.353" x2="32.3187" y2="8.99971" gradientUnits="userSpaceOnUse">
<stop offset="0.357779" stop-color="white"/>
<stop offset="0.797844" stop-color="white" stop-opacity="0.29"/>
<stop offset="1" stop-color="white" stop-opacity="0"/>
</linearGradient>
<linearGradient id="paint3_linear_1654_6067" x1="32.3187" y1="40.3057" x2="32.3187" y2="55.659" gradientUnits="userSpaceOnUse">
<stop offset="0.357779" stop-color="white"/>
<stop offset="0.797844" stop-color="white" stop-opacity="0.29"/>
<stop offset="1" stop-color="white" stop-opacity="0"/>
</linearGradient>
</defs>
</svg>
