<?xml version="1.0" encoding="UTF-8"?>
<svg id="_Слой_2" data-name="Слой 2" xmlns="http://www.w3.org/2000/svg" viewBox="0 0 2015.42 722.14">
  <defs>
    <style>
      .cls-1 {
        opacity: .3;
      }

      .cls-1, .cls-2, .cls-3, .cls-4 {
        fill: gray;
      }

      .cls-2 {
        opacity: .62;
      }

      .cls-5 {
        fill: #3a3a4c;
      }

      .cls-6 {
        opacity: .83;
      }

      .cls-6, .cls-7 {
        fill: #242628;
      }

      .cls-8 {
        fill: #353544;
      }

      .cls-9 {
        fill: #ffeb62;
        opacity: .47;
      }

      .cls-10 {
        opacity: .35;
      }

      .cls-11 {
        fill: #333;
      }

      .cls-12 {
        fill: #2a2a35;
      }

      .cls-4 {
        opacity: .39;
      }

      .cls-13 {
        fill: #111010;
      }

      .cls-14 {
        fill: #666;
      }
    </style>
  </defs>
  <g id="_Слой_2-2" data-name="Слой 2">
    <path class="cls-9" d="M490.46,470.04c-2.94-.09-6.5-.43-10.48-1.31-3.42-.76-6.4-1.75-8.89-2.75-3.8-9.61-4.94-26.47-4.76-30.87-.14,4.48-.66,9.92-2,15.98-1.28,5.79-3,10.73-4.69,14.76-2.29,.87-4.95,1.72-7.95,2.38-3.97,.88-7.54,1.22-10.48,1.31,2.64-.11,12.13,.5,18.54,2.52,1.65,3.98,3.33,8.83,4.58,14.48,1.34,6.06,1.86,11.5,2,15.98-.18-4.19,.85-19.75,4.25-29.51,6.35-2.38,17.04-3.1,19.87-2.98Z"/>
    <path class="cls-4" d="M1333.76,315.58c-3.27-.1-7.24-.48-11.66-1.46-3.81-.84-7.12-1.95-9.89-3.06-4.23-10.69-5.5-29.46-5.29-34.35-.15,4.98-.73,11.04-2.22,17.78-1.42,6.44-3.34,11.94-5.22,16.42-2.55,.97-5.51,1.91-8.85,2.65-4.42,.98-8.39,1.36-11.66,1.46,2.94-.12,13.5,.56,20.64,2.81,1.84,4.43,3.7,9.83,5.09,16.12,1.49,6.75,2.07,12.8,2.22,17.78-.2-4.67,.95-21.98,4.73-32.84,7.07-2.65,18.97-3.45,22.11-3.31Z"/>
    <path class="cls-1" d="M111.3,348.97c-1.23-.04-2.73-.18-4.39-.55-1.44-.32-2.68-.73-3.73-1.15-1.6-4.03-2.07-11.1-1.99-12.95-.06,1.88-.28,4.16-.84,6.7-.54,2.43-1.26,4.5-1.97,6.19-.96,.37-2.08,.72-3.34,1-1.67,.37-3.16,.51-4.39,.55,1.11-.05,5.09,.21,7.78,1.06,.69,1.67,1.39,3.7,1.92,6.08,.56,2.54,.78,4.82,.84,6.7-.07-1.76,.36-8.28,1.78-12.38,2.66-1,7.15-1.3,8.33-1.25Z"/>
    <path class="cls-1" d="M889.08,498.9c-3.54-.11-7.85-.52-12.64-1.58-4.13-.91-7.72-2.11-10.73-3.32-4.59-11.59-5.96-31.95-5.74-37.25-.17,5.41-.79,11.97-2.41,19.29-1.54,6.98-3.62,12.95-5.66,17.81-2.76,1.05-5.98,2.08-9.6,2.88-4.8,1.06-9.1,1.47-12.64,1.58,3.18-.14,14.64,.61,22.38,3.04,2,4.8,4.01,10.66,5.52,17.48,1.62,7.32,2.24,13.88,2.41,19.29-.21-5.06,1.03-23.84,5.13-35.62,7.66-2.87,20.57-3.74,23.98-3.59Z"/>
    <path class="cls-9" d="M1953.08,322.98c-5.75-.18-12.73-.84-20.52-2.56-6.7-1.48-12.53-3.43-17.41-5.39-7.45-18.81-9.68-51.84-9.31-60.45-.27,8.77-1.29,19.42-3.91,31.29-2.51,11.33-5.88,21.01-9.19,28.9-4.48,1.71-9.7,3.37-15.58,4.67-7.78,1.72-14.77,2.39-20.52,2.56,5.17-.22,23.75,.99,36.32,4.94,3.24,7.79,6.51,17.29,8.96,28.37,2.63,11.87,3.64,22.52,3.91,31.29-.35-8.22,1.67-38.68,8.32-57.79,12.44-4.66,33.38-6.06,38.91-5.83Z"/>
    <circle class="cls-7" cx="1834.08" cy="190.11" r="22"/>
    <circle class="cls-7" cx="79.08" cy="427.11" r="22"/>
    <circle class="cls-7" cx="1407.08" cy="258.11" r="14"/>
    <circle class="cls-7" cx="1850.08" cy="409.11" r="14"/>
    <circle class="cls-7" cx="726.08" cy="547.11" r="14"/>
    <circle class="cls-7" cx="1103.08" cy="399.11" r="14"/>
    <circle class="cls-7" cx="156.58" cy="401.61" r="9.5"/>
    <circle class="cls-7" cx="31.08" cy="488.11" r="11"/>
  </g>
  <g id="_Слой_4" data-name="Слой 4">
    <path class="cls-6" d="M965.08,617.11c-7.68-4.92-24.49-14.11-47-14-41.99,.2-67.6,32.56-71,37-30.19,9.72-33.16,16.7-33,20,.51,10.33,33.37,17.05,52,19,29.67,3.11,54.56-2.6,71-8,15.79,5.34,34.95,10.3,57,13,44.43,5.44,81.82-.6,107-7,28.67,.67,57.33,1.33,86,2,261.67-6.33,523.33-12.67,785-19-25.43-31.18-82.78-96.96-157-143-42.89-26.6-74-35.81-105-36-17.2-.1-31.41,2.59-41,5,.09-17.46-4.29-29.91-10-39-32.69-52.03-146.43-53.83-283-6-7.53-32.32-34.87-54-63-53-29.98,1.06-47.36,27.42-49,30-5.25,2.99-21.49,13.12-30,34-6.83,16.76-5.11,31.66-4,38-4.24,1.46-13.18,5.17-21,14-7.23,8.16-9.94,16.67-11,21-3.21-2.97-16.82-14.91-36-14-20.96,1-40.04,16.94-47,40-8.33,8.67-16.67,17.33-25,26-.91-10.45-4.31-31.95-20-52-3.08-3.94-29.82-38.1-55-32-21.39,5.19-38.8,38.74-32,81-3.55,3.29-8.99,9.17-13,18-4.76,10.47-5.15,19.92-5,25Z"/>
    <path class="cls-11" d="M1747.08,505.11c.24-4.57,.92-11.24,3-19,3.1-11.55,9.27-34.79,28-42,.93-.36,17.39-6.44,28,2,11.1,8.83,12.8,31.19-1,52,7.53-4.56,17.94-9.93,31-14,4.38-1.36,62.43-18.93,76,2,8.95,13.8-2.32,42.98-29,68,.85-.14,9.66-1.47,16,5,4.62,4.72,4.96,10.54,5,12,3.5-4.65,10.86-13.05,23-18,14.35-5.85,37.48-7.76,53,7,15.39,14.63,18.23,40.83,5,62,3.56,.86,14.15,3.92,22,14,5.45,7,9.59,17.4,8,24-3.81,15.77-43.51,23.01-97,20-36.46,7.94-78.77,14.47-126,17-83.85,4.5-155.89-5.07-211-17-28.14,3.01-57.5,5.4-88,7-61.06,3.2-118.28,2.76-171,0-10.45,3.02-25.21,6.08-43,6-20.37-.09-36.93-4.27-48-8-9.49,1.54-24.08,3.47-42,4-30.15,.89-59.43,1.75-65-11-5.58-12.77,15.49-32.61,17-34,25.7-23.74,62.37-18.3,70-17,.46-12.62,8.23-23.46,19-27,13.62-4.47,30.12,3.36,36,19,4.97-4.03,11.95-8.88,21-13,8.37-3.81,16.01-5.85,22-7,8.32-12.51,17.56-18.74,24-22,29.87-15.11,72.62-3.19,107,30,6.06-5.76,19.48-16.92,40-22,26.11-6.46,47.45,.96,55,4-.03-8.71,.97-21.2,6-35,9.77-26.84,37.85-67.14,79-66,36.2,1,58.9,33.43,62,38,.47-1.48,7.48-22.19,29-28,19.11-5.16,34.15,5.62,36,7Z"/>
    <path class="cls-14" d="M1683.57,115.91c1.72-.56,3.63-1.34,5.62-2.41,5.46-2.94,9.07-6.81,11.24-9.63-.56-1.19-1.11-2.53-1.61-4.01-.89-2.68-1.36-5.14-1.61-7.22-.8-2.94-1.61-5.89-2.41-8.83h4.82c.23,2.06,.69,4.53,1.61,7.22,1.75,5.15,4.42,8.89,6.42,11.24,1.47,.63,3.36,1.26,5.62,1.61,4.5,.68,8.24-.13,10.43-.8,.81-1.36,1.75-3.25,2.41-5.62,.51-1.83,.72-3.48,.8-4.82,1.61-.27,3.21-.54,4.82-.8,.32,1.89,.73,5.83-.8,10.43s-4.23,7.51-5.62,8.83c-2.21,.35-4.62,.64-7.22,.8-3.52,.22-6.75,.18-9.63,0-.96,1.31-2.02,2.66-3.21,4.01-4.03,4.6-8.28,7.98-12.04,10.43-3.21-3.48-6.42-6.96-9.63-10.43Z"/>
    <path class="cls-12" d="M1737.35,293.31c-1.23,4.52-1.08,8.18-.8,10.43,.39,3.16,1.14,9.21,4.82,10.43,1.79,.59,3.65-.16,4.82-.8-.05,1.45-.1,3.69,0,6.42,.62,17.28,6.04,26.88,7.22,28.9,1.91,3.27,3.98,6.8,5.62,6.42,2.38-.54,4.17-9.37,0-14.45-1.59-1.93-3.61-2.81-4.82-3.21-.99-1.34-2.75-4.12-3.21-8.03-.74-6.25,2.36-10.86,3.21-12.04,.31,2.53,.85,3.87,1.61,4.01,1.12,.21,2.72-2.2,4.82-7.22,.08,2.02,.67,3.78,1.61,4.01,1.12,.28,2.99-1.53,4.01-4.82-.3,1.92-.59,5.51,.8,9.63,2.06,6.1,6.45,9.37,8.03,10.43-.01,2.64-.02,6.53,0,11.24,.1,23,.69,25.52,1.61,25.69,1.46,.26,3.62-5.6,4.82-8.83,1.61-4.36,3.99-12.31,4.01-23.28,.01-4.79-.43-11.47-2.41-19.26,.85,.62,2.57,1.64,4.82,1.61,3.01-.05,6.3-1.99,6.42-4.01,.07-1.23-1.04-2.18-.8-2.41,.37-.35,2.45,2.5,4.82,2.41,2.08-.08,4.23-2.41,4.82-4.82,.78-3.18-1.2-6.33-4.82-12.04-.64-1.01-1.2-1.83-1.61-2.41-.27-.54-.54-1.07-.8-1.61-19.53-.8-39.06-1.61-58.6-2.41Z"/>
    <path class="cls-14" d="M1669.12,346.28c.18-.71,.59-1.97,1.61-3.21,1.16-1.43,2.51-2.11,3.21-2.41,2.58-1.37,5.28-2.96,8.03-4.82,8.46-5.71,14.73-12.09,19.26-17.66,.75-.33,1.85-.69,3.21-.8,2.19-.17,3.91,.42,4.82,.8,1.15,1.66,2.72,3.63,4.82,5.62,2.31,2.18,4.57,3.73,6.42,4.82,.83-.1,1.95-.32,3.21-.8,.24-.09,2.26-.89,4.01-2.41,2.77-2.4,3.76-5.67,4.01-6.42,1.09-3.23,5.03-9.14,17.66-20.87-1.07-1.07-2.14-2.14-3.21-3.21-3.15,2.99-6.38,6.2-9.63,9.63-4.41,4.65-8.41,9.23-12.04,13.65-.15,.13-1.07,.94-2.41,.8-1.57-.16-2.34-1.48-2.41-1.61-.9-.96-2.27-2.37-4.01-4.01-3.44-3.25-5.21-4.89-7.22-5.62-.46-.17-4.16-1.45-8.03,0-3.56,1.33-4.67,4.01-8.03,8.03,0,0-1.65,1.98-9.63,8.83-10.42,8.94-35.17,17.11-39.33,18.46,8.56,1.07,17.12,2.14,25.69,3.21Z"/>
    <path class="cls-14" d="M1506.98,298.12c-1.61,1.3-4.39,3.88-6.42,8.03-1.95,3.97-2.34,7.58-2.41,9.63,2.94,1.87,5.89,3.75,8.83,5.62,.12-1.41,.36-3.04,.8-4.82,.65-2.6,1.56-4.75,2.41-6.42,.64-.14,1.81-.31,3.21,0,1.61,.36,2.7,1.17,3.21,1.61,2.15,3.38,4.29,6.85,6.42,10.43,4.73,7.95,8.99,15.73,12.84,23.28,.22,.83,.66,2.04,1.61,3.21,2.28,2.81,5.66,3.15,6.42,3.21,2.77,1.35,5.74,2.94,8.83,4.82,2.64,1.61,5.05,3.23,7.22,4.82,.23,.32,.81,1.19,.8,2.41,0,1.9-1.41,3.05-1.61,3.21-2.24,1.69-4.72,3.81-7.22,6.42-3.54,3.69-6.14,7.34-8.03,10.43,1.07,.8,2.14,1.61,3.21,2.41,1.1-1.78,2.42-3.68,4.01-5.62,3.55-4.32,7.29-7.44,10.43-9.63,.8-.11,1.93-.34,3.21-.8,1.27-.46,2.38-.86,3.21-1.61,2.34-2.08,2.23-6.57,.8-9.63-.72-1.54-1.71-2.59-2.41-3.21-.71-.33-1.85-.87-3.21-1.61-4.66-2.51-6.68-4.38-11.24-7.22-1.27-.79-3.18-1.94-5.62-3.21-.66-.48-1.57-1.26-2.41-2.41-.89-1.23-1.36-2.4-1.61-3.21-5.62-10.7-11.24-21.41-16.86-32.11-2.43-1.35-5.11-2.71-8.03-4.01-3.69-1.65-7.2-2.96-10.43-4.01Z"/>
    <path class="cls-12" d="M1511.8,228.29c2.53,2.03,5.03,4,8.83,5.62,10.06,4.3,19.78,2.09,24.08,.8-.89,1.65-2.11,4.42-2.41,8.03-.16,2-.41,5,.8,5.62,.98,.5,3.21-.41,8.83-7.22,.11,4.99,2.9,8.14,4.82,8.03,1.77-.11,3.84-3.08,4.01-7.22,1.32,2.2,2.82,3.36,4.01,4.01,5.9,3.24,15.33,.11,23.28-8.03l4.01,4.01c-4.67,1.78-6.19,6.47-4.82,8.83,1.13,1.95,4.59,2.93,8.03,1.61,.32,1.43,1.37,5.18,4.82,8.03,6.05,5,13.85,2.6,14.45,2.41,.83-.55,2.83-2.05,4.01-4.82,1.04-2.44,.92-4.62,.8-5.62,.12,.71,.79,4.22,4.01,6.42,1.93,1.32,8.68,3.16,9.63,3.21-.21,7.15,5.62,17.66,.8,30.5-6.06,16.16,.2,40.24,3.21,40.13,1.4-.05,3.24-5.48,4.82-31.3,1.18,.7,2.87,1.46,4.01,.8,1.5-.86,1.41-3.76,.8-8.03-1.63-11.55-4.52-15.37-4.82-23.28-.07-1.92-.02-4.99,.8-8.83,1.75,1.4,3.41,2.08,4.82,2.41,7.69,1.8,17.22-4.72,24.08-16.05-.87,8.53-.5,15.38,0,20.07,.92,8.66,2.4,10.73,4.01,11.24,1.67,.53,3.54-.6,4.82-1.61v20.87c-1.62,.88-5.57,3.32-7.22,8.03-.97,2.78-1.25,6.66,0,7.22,1.83,.82,6.57-5.53,7.22-6.42,.72-.97,1.25-1.82,1.61-2.41-2.09,6.91-1.73,12.22,.8,13.65,.97,.54,2.3,.55,3.21,0,3.94-2.4,.11-15.51-1.61-20.87-.34-3.9-.71-9.42-.8-16.05-.09-6.64-.22-19.75,2.41-35.32,2.65-15.71,5.08-16.03,4.82-20.87-1.45-26.7-77.44-54.49-146.09-43.35-21.93,3.56-49.2,12.08-49.77,23.28-.43,8.64,14.94,20.94,16.86,22.48Z"/>
    <path class="cls-14" d="M1559.96,593.51c-.55-4.33-.88-9.17-.8-14.45,.18-11.93,2.41-22.04,4.82-29.7-2.96-3.87-5.94-8.14-8.83-12.84-8.53-13.89-13.67-27.3-16.86-38.53-.53-7.35-.55-16.35,.8-26.49,1.92-14.34,5.94-26.04,9.63-34.52-.29-2.28-.39-5.01,0-8.03,1.27-9.79,6.87-16.42,9.63-19.26,1.49-.55,4.42-1.38,8.03-.8,2.05,.33,3.69,1.01,4.82,1.61,2.64-1.51,6.75-3.67,12.04-5.62,9.98-3.68,13.29-2.61,22.48-5.62,11.01-3.6,8.74-5.94,20.07-9.63,6.52-2.12,11.07-2.59,20.07-6.42,6.69-2.85,8.99-4.65,9.63-7.22,1.07-4.29-2.97-8.58-4.01-9.63-2.97-.42-6.91-1.29-11.24-3.21-5.58-2.47-9.55-5.67-12.04-8.03-8.56-4.82-17.12-9.63-25.69-14.45-2.26-.07-5.29-.26-8.83-.8-1.73-.27-7.46-1.17-12.84-3.21-1.78-.68-7.36-2.93-16.05-10.43-11.14-9.62-11.58-14.2-20.87-21.67-5.63-4.53-10.96-7.26-14.45-8.83-.61,.2-2.73,.99-4.01,3.21-1.96,3.39-.13,6.98,0,7.22-7.22-1.07-14.45-2.14-21.67-3.21,1.57-2.03,3.22-4.44,4.82-7.22,1.3-2.27,2.35-4.43,3.21-6.42-.8-2.94-1.61-5.89-2.41-8.83,1.26-.83,3.16-1.84,5.62-2.41,4.77-1.1,8.74,.15,10.43,.8,1.67,1.07,4.2,2.72,7.22,4.82,7.03,4.88,9.41,7.11,14.45,10.43,2.57,1.69,6.35,4.02,11.24,6.42,2.1,1.72,4.25,3.59,6.42,5.62,4.67,4.36,8.66,8.72,12.04,12.84,2.06,.96,6.04,2.49,11.24,2.41,4.76-.07,8.42-1.47,10.43-2.41,1.7-3.48,3.38-7.5,4.82-12.04,3.02-9.57,3.9-18.21,4.01-24.88-.97-2.02-2.55-5.16-4.82-8.83-2.55-4.14-4.02-5.81-6.42-9.63,0,0-2.49-3.97-5.62-10.43-3.62-7.49-9.36-23.81-14.45-45.75h9.63c.64,5.4,1.83,11.67,4.01,18.46,4.52,14.04,11.41,24.48,16.86,31.3,.54,.97,4.09,7.13,10.43,8.03,7.21,1.02,18.73-8.32,20.87-18.46,2.68,.8,1.34,2.41,4.01,3.21-.64,2.67-2.76,8.14-5.62,12.04-5.8,7.92-12.37,11.28-15.25,12.04-.26,2.32-.74,5.99-1.61,10.43-2.48,12.7-5.27,17.05-5.62,25.69-.13,3.15,.04,7.84,1.61,13.65,1.05,2.57,4.29,9.52,12.04,14.45,6.69,4.26,13.21,4.76,16.05,4.82,4.82-1.07,9.63-2.14,14.45-3.21,1.04-.05,4.61-.09,8.03,2.41,3.58,2.61,4.58,6.25,4.82,7.22,.79,2.53,2.53,6.96,6.42,11.24,4.47,4.92,9.48,7.11,12.04,8.03,4.55,.8,9.1,1.61,13.65,2.41,1,.48,4.04,2.08,5.62,5.62,2.69,6.02-1.43,11.8-1.61,12.04-2.38,2.88-6.28,6.93-12.04,10.43-5.26,3.2-10.17,4.79-13.65,5.62-2.98-.46-6.49-.8-10.43-.8-3.01,0-6.54,.2-10.43,.8-11.21,3.68-22.73,7.68-34.52,12.04-11.38,4.21-22.36,8.5-32.91,12.84-2.54,1.6-6.26,4.38-9.63,8.83-4.02,5.3-5.68,10.53-6.42,13.65-1.24,5.23-2.29,11.75-2.41,19.26-.19,11.66,1.93,21.32,4.01,28.09,4.75,1.8,11.06,4.75,17.66,9.63,7.16,5.3,12.09,10.98,15.25,15.25,4.45-1.08,9.86-2.04,16.05-2.41,7.17-.42,13.43,.06,18.46,.8,4.12,1.71,9.16,4.25,14.45,8.03,6.55,4.68,11.25,9.68,14.45,13.65-4.92,7.78-11.65,16.29-20.87,24.08-35.82,30.29-81.43,26.37-93.91,24.88Z"/>
    <path class="cls-12" d="M1477.28,420.56c.88,4.31,1.69,8.79,2.41,13.45,2.8,18.23,3.55,35.09,3.21,49.94-.58,1.6-1.16,3.53-1.61,5.76-.67,3.34-.83,6.32-.8,8.64-1.19,1.54-2.86,4.09-4.01,7.68-.12,.37-2.35,7.46-.8,8.64,1.59,1.21,6.23-4.56,6.42-4.8-.87,3.39-1.79,8.38-1.61,14.41,.13,3.99,.83,11.34,2.41,11.53,.44,.05,1.78-.36,4.01-9.6-.38,2.59-.9,8.42,1.61,14.41,1.93,4.63,5.74,9.51,7.22,8.64,1.09-.64,1.32-4.62-2.41-19.21-1.53-3.68-3.66-10.01-4.01-18.25-.47-10.84,2.39-19.13,4.01-23.05,.43-4.66,.8-11.71,0-20.17-.83-8.79-2.41-13.83-3.21-18.25-1.46-8-1.49-20.14,5.62-37.46,1.04-.53,3.77-1.71,7.22-.96,3.4,.73,5.59,2.92,6.42,3.84-.68,4.76-1.48,9.9-2.41,15.37-3.61,21.18-6.11,28.62-3.21,38.42,1.34,4.53,3.66,9.01,4.82,8.64,2.13-.67-1.8-17.16,.8-38.42,1.01-8.24,2.71-14.85,4.01-19.21,1.8-2.07,4.45-4.63,8.03-6.72,6.27-3.67,12.09-3.97,15.25-3.84-1.16-4.07-5.4-17.31-16.86-24.97-9.44-6.31-26.59-10.72-36.92,1.92-10.32,12.62-5.88,32.5-5.62,33.62Z"/>
    <path class="cls-2" d="M1461.08,34c-2.02-.06-4.47-.3-7.21-.9-2.36-.52-4.4-1.2-6.12-1.89-2.62-6.61-3.4-18.22-3.27-21.25-.1,3.08-.45,6.83-1.37,11-.88,3.98-2.07,7.39-3.23,10.16-1.58,.6-3.41,1.18-5.48,1.64-2.74,.61-5.19,.84-7.21,.9,1.82-.08,8.35,.35,12.76,1.74,1.14,2.74,2.29,6.08,3.15,9.97,.92,4.17,1.28,7.92,1.37,11-.12-2.89,.59-13.59,2.92-20.31,4.37-1.64,11.73-2.13,13.68-2.05Z"/>
    <path class="cls-2" d="M1258.08,191c-2.02-.06-4.47-.3-7.21-.9-2.36-.52-4.4-1.2-6.12-1.89-2.62-6.61-3.4-18.22-3.27-21.25-.1,3.08-.45,6.83-1.37,11-.88,3.98-2.07,7.39-3.23,10.16-1.58,.6-3.41,1.18-5.48,1.64-2.74,.61-5.19,.84-7.21,.9,1.82-.08,8.35,.35,12.76,1.74,1.14,2.74,2.29,6.08,3.15,9.97,.92,4.17,1.28,7.92,1.37,11-.12-2.89,.59-13.59,2.92-20.31,4.37-1.64,11.73-2.13,13.68-2.05Z"/>
    <path class="cls-2" d="M331.08,488c-2.02-.06-4.47-.3-7.21-.9-2.36-.52-4.4-1.2-6.12-1.89-2.62-6.61-3.4-18.22-3.27-21.25-.1,3.08-.45,6.83-1.37,11-.88,3.98-2.07,7.39-3.23,10.16-1.58,.6-3.41,1.18-5.48,1.64-2.74,.61-5.19,.84-7.21,.9,1.82-.08,8.35,.35,12.76,1.74,1.14,2.74,2.29,6.08,3.15,9.97,.92,4.17,1.28,7.92,1.37,11-.12-2.89,.59-13.59,2.92-20.31,4.37-1.64,11.73-2.13,13.68-2.05Z"/>
    <path class="cls-2" d="M59.08,158c-2.02-.06-4.47-.3-7.21-.9-2.36-.52-4.4-1.2-6.12-1.89-2.62-6.61-3.4-18.22-3.27-21.25-.1,3.08-.45,6.83-1.37,11-.88,3.98-2.07,7.39-3.23,10.16-1.58,.6-3.41,1.18-5.48,1.64-2.74,.61-5.19,.84-7.21,.9,1.82-.08,8.35,.35,12.76,1.74,1.14,2.74,2.29,6.08,3.15,9.97,.92,4.17,1.28,7.92,1.37,11-.12-2.89,.59-13.59,2.92-20.31,4.37-1.64,11.73-2.13,13.68-2.05Z"/>
    <path class="cls-2" d="M1926.08,114c-2.02-.06-4.47-.3-7.21-.9-2.36-.52-4.4-1.2-6.12-1.89-2.62-6.61-3.4-18.22-3.27-21.25-.1,3.08-.45,6.83-1.37,11-.88,3.98-2.07,7.39-3.23,10.16-1.58,.6-3.41,1.18-5.48,1.64-2.74,.61-5.19,.84-7.21,.9,1.82-.08,8.35,.35,12.76,1.74,1.14,2.74,2.29,6.08,3.15,9.97,.92,4.17,1.28,7.92,1.37,11-.12-2.89,.59-13.59,2.92-20.31,4.37-1.64,11.73-2.13,13.68-2.05Z"/>
    <path class="cls-2" d="M1739.08,423c-2.02-.06-4.47-.3-7.21-.9-2.36-.52-4.4-1.2-6.12-1.89-2.62-6.61-3.4-18.22-3.27-21.25-.1,3.08-.45,6.83-1.37,11-.88,3.98-2.07,7.39-3.23,10.16-1.58,.6-3.41,1.18-5.48,1.64-2.74,.61-5.19,.84-7.21,.9,1.82-.08,8.35,.35,12.76,1.74,1.14,2.74,2.29,6.08,3.15,9.97,.92,4.17,1.28,7.92,1.37,11-.12-2.89,.59-13.59,2.92-20.31,4.37-1.64,11.73-2.13,13.68-2.05Z"/>
    <path class="cls-2" d="M1980.08,461c-2.02-.06-4.47-.3-7.21-.9-2.36-.52-4.4-1.2-6.12-1.89-2.62-6.61-3.4-18.22-3.27-21.25-.1,3.08-.45,6.83-1.37,11-.88,3.98-2.07,7.39-3.23,10.16-1.58,.6-3.41,1.18-5.48,1.64-2.74,.61-5.19,.84-7.21,.9,1.82-.08,8.35,.35,12.76,1.74,1.14,2.74,2.29,6.08,3.15,9.97,.92,4.17,1.28,7.92,1.37,11-.12-2.89,.59-13.59,2.92-20.31,4.37-1.64,11.73-2.13,13.68-2.05Z"/>
    <path class="cls-3" d="M1436.71,148.63c-2.9-.09-6.43-.43-10.35-1.29-3.38-.75-6.33-1.73-8.79-2.72-3.76-9.49-4.88-26.17-4.7-30.51-.14,4.43-.65,9.8-1.97,15.8-1.27,5.72-2.97,10.61-4.64,14.58-2.26,.86-4.89,1.7-7.86,2.36-3.93,.87-7.45,1.2-10.35,1.29,2.61-.11,11.99,.5,18.33,2.49,1.63,3.93,3.29,8.73,4.52,14.32,1.33,5.99,1.84,11.37,1.97,15.8-.18-4.15,.84-19.52,4.2-29.17,6.28-2.35,16.85-3.06,19.64-2.94Z"/>
    <circle class="cls-10" cx="1548.93" cy="44.04" r="27.29"/>
    <path class="cls-3" d="M1930.08,690.11c-2.11,11.68-37.71,13.83-43.43,14.18-10.89,.66-25.45,.23-42.54-4.01-12.18,7.36-43.23,23.85-85.09,21.67-28.7-1.49-50.51-11.13-62.61-17.66-1.88,1.54-19.92,15.76-42.54,9.63-15.8-4.28-24.2-15.87-26.49-19.26-1.65,1.68-30.14,29.82-65.82,20.87-17.37-4.36-28.27-15.45-32.91-20.87-2.61,1.66-15.15,9.28-30.5,5.62-8.88-2.12-14.52-7.01-18.46-10.43-5.12-4.45-9.72-8.44-8.83-12.84,.79-3.93,5.71-6.98,12.04-8.03-2.85-4.63-2.69-8-2.41-9.63,1.42-8.37,13.31-15.51,29.7-15.25-.37-.67-2.02-3.86-.8-7.22,1.4-3.87,6.06-6.42,11.24-5.62,.21-1.14,1.86-9.34,9.63-13.65,6.18-3.42,13.89-3.09,20.07,.8,1.57-5.99,4.37-14.3,9.63-23.28,3.03-5.17,13.06-21.81,32.91-32.91,27.5-15.38,55.26-9.76,62.61-8.03,4.64-3.72,12.36-8.43,21.67-8.03,16.91,.74,33.36,18.12,36.92,43.35,2.9-.59,16.86-3.1,30.5,5.62,15.1,9.65,18.04,25.55,18.46,28.09,2.81-1.21,15.17-6.16,28.9-.8,7.98,3.11,12.9,8.34,15.25,11.24,3.73-1.03,18.92-4.78,35.32,3.21,17.3,8.42,23.59,23.89,24.88,27.29,3.3-1.3,7.96-2.73,13.65-3.21,24.36-2.05,40.77,15.68,42.54,17.66,4.46,4.98,7.14,7.97,6.5,11.51Z"/>
    <path class="cls-5" d="M1534.27,120.73c-2.97-.47-9.11-1.02-16.05,1.61-9.77,3.7-14.62,11.21-16.05,13.65-1.34,.06-4.28,.39-7.22,2.41-4.07,2.79-5.31,6.87-5.62,8.03-.68-.16-3.25-.67-5.62,.8-2.7,1.67-4.03,5.23-3.21,8.83-.42-.88-2.53-4.98-7.22-6.42-2.83-.87-7.21-.96-8.03,.8-.64,1.38,.73,4.34,9.63,11.24-.37,.23-2.92,1.9-3.21,4.82-.3,3.04,1.98,6.2,5.62,7.22-1.46,1.07-6.41,4.99-8.03,12.04-2.28,9.98,4.09,17.62,4.82,18.46-1.01,3.53-2.05,8.83-1.61,15.25,.66,9.46,4.23,16.46,6.42,20.07-3.38,17.88-3.38,27.52,0,28.9,1.19,.49,2.79-.05,4.82-1.61-1.03,2.82-2.98,9.52,0,16.05,.42,.91,2.31,5.07,4.01,4.82,2.47-.37,2.96-9.85,3.21-15.25,.5-10.7,1.14-26.95,1.61-48.96-.99,5.55-1.59,14.04,1.61,23.28,.71,2.06,1.54,3.93,2.41,5.62,.61,14.89,1.68,22.38,3.21,22.48,1.28,.08,2.89-5,4.82-15.25,2.08-.63,3.31-1.66,4.01-2.41,3.28-3.51,3.31-9.94,0-16.05,1.54,0,3.46-.29,4.82-1.61,3.67-3.56,.46-11.95-.8-15.25-.99-2.58-2.67-6.02-5.62-9.63,.68,.39,3.24,1.75,5.62,.8,3.11-1.23,5.05-6.03,3.21-11.24,.17,.4,1.74,3.86,5.62,4.82,2.87,.71,5.94-.22,8.03-2.41-1.35,5.68-1.35,8.89,0,9.63,1.82,1,6.1-2.48,12.84-10.43-.05,3.02,.78,5.81,2.41,6.42,2.07,.78,5.95-1.75,8.03-7.22,2.75,1.26,6.56,2.62,11.24,3.21,8.63,1.1,15.59-.99,19.26-2.41-2.73,4.53-2.08,6.45-1.61,7.22,2.88,4.64,19.09-1.24,20.07-1.61-6.33,5.03-8.78,10.55-7.22,12.84,1.72,2.53,8.22,.96,8.83,.8,.27,5.48,1.88,7.33,3.21,8.03,6.71,3.5,21.93-14.17,24.88-17.66-2.7,2.99-3.66,7-2.41,10.43,1.01,2.77,3.13,4.27,4.01,4.82-.38,1.07-3.1,9.07,1.61,16.86,4.03,6.67,10.69,8.49,12.04,8.83,.26,.6,3.61,8.29,7.22,8.03,3.16-.23,6.33-6.55,6.42-16.05,2.76,.89,4.51,.53,5.62,0,5.38-2.58,6.47-14.45,2.41-29.7,2.44,21.24,5.38,31.94,8.83,32.11,2.42,.12,5.1-4.97,8.03-15.25-1.24,14.39-.7,21.88,1.61,22.48,1.31,.34,3.18-1.54,5.62-5.62-.76,2.87-2.19,9.89,.8,17.66,1.37,3.56,3.26,6.22,4.82,8.03-1.23,3.35-4.65,13.16-2.41,14.45,1.7,.98,6-3.3,8.83-6.42,1.48,2.28,2.82,3.35,4.01,3.21,4.2-.5,6.61-16.02,7.22-46.56,1.4,4.4,4.16,6.83,5.62,6.42,1.43-.4,2.47-3.77,1.61-8.03,5.19,3.26,8.4,4.33,9.63,3.21,1.86-1.69-.82-8.38-8.03-20.07,.35,.03,3.32,.27,4.82-1.61,1.66-2.08,1.06-6.22-2.41-8.83,.51-6.5,.54-17.7-4.01-30.5-3.69-10.37-8.99-17.86-12.84-22.48-.73-3.48-2.11-8.95-4.82-15.25-3.5-8.14-11.95-27.81-30.5-33.71-3.03-.96-7.63-1.97-13.65-1.61-3.12-1.75-8.05-3.99-14.45-4.82-11.02-1.42-19.66,2.22-23.28,4.01,.5-.35,6.45-4.59,5.62-6.42-.6-1.31-4.5-1.03-7.22,0-3.65,1.38-5.62,4.27-6.42,5.62,.25-1.16,.73-4.16-.8-7.22-1.95-3.9-6.61-6.78-8.83-5.62-2.26,1.18-2.44,6.75,0,13.65-3.24-2.23-8.4-5.13-15.25-6.42-15.21-2.87-27.27,4.34-30.5,6.42,.04-.97,.07-4.43-2.41-7.22-3.28-3.7-9.4-4.49-11.24-2.41-1.9,2.15,.18,8.09,5.62,14.45-1.31-.53-4.33-1.55-8.03-.8-6.18,1.25-9.17,6.4-9.63,7.22Z"/>
    <path class="cls-8" d="M1729.32,275.65c-.38-.53-1.94-2.55-4.82-3.21-1.71-.39-4.9-.53-5.62,.8-.63,1.16,.37,3.91,8.83,11.24-.72,2.92-1.56,7.37-1.61,12.84-.04,4.73-.07,8.96,1.61,9.63,1.41,.56,4.48-1.2,12.04-12.84,.13,.24,1.13,2.05,3.21,2.41,1.85,.32,3.79-.63,4.82-2.41-2.98,6.17-1.14,11.77,1.61,12.84,2.17,.84,5.53-.89,8.03-4.01,.45,3.01,3.4,4.7,5.62,4.01,2.2-.68,3.68-3.68,2.41-6.42,.62,.41,4.61,2.94,9.63,1.61,5.68-1.51,7.81-6.67,8.03-7.22-.79,1.47-2.72,5.56-1.61,10.43,.52,2.29,2.1,6.42,4.01,6.42,.86,0,3.08-.83,5.62-12.04,1.05,1.42,2.74,2.05,4.01,1.61,1.74-.6,2.87-3.22,1.61-5.62-.1-3.04-.42-7.86-1.61-13.65-1.35-6.59-6.06-29.66-18.46-32.11-1.5-.3-3.93-.45-7.22,.8-2.68-1.53-5.13-2.18-7.22-2.41-11.78-1.26-24.61,9.84-32.91,27.29Z"/>
    <path class="cls-5" d="M1433.13,318.19c.41-1.98,.8-5.14,0-8.83-1.08-4.98-4.31-10.79-6.42-10.43-1.47,.25-3.02,3.61-3.21,17.66-.5-.44-3.78-3.2-8.03-2.41-.51,.1-4.91,.97-5.62,4.01-.59,2.56,1.58,5.94,5.62,7.22-2.19,.72-5.96,2.28-9.63,5.62-3.58,3.25-5.48,6.74-6.42,8.83-2.45-1.09-6-2.42-10.43-3.21-8.44-1.5-18.8-.8-19.26,1.61-.19,.99,1.05,3.54,18.46,9.63-1.09-.12-5.35-.48-8.83,2.41-1.76,1.46-3.99,4.32-3.21,5.62,.61,1.03,3.26,1.35,12.04-1.61-4.29,2.52-11.02,7.24-16.86,15.25-7.97,10.94-9.88,21.99-10.43,27.29,.02,1.51,.29,4.46,2.41,6.42,2.27,2.1,5.5,1.97,8.83,1.61,4.82-.52,11.96-1.73,20.87-4.82-.96,.59-3.49,2.3-4.82,5.62-.79,1.97-.85,3.74-.8,4.82-.81-.09-6.06-.56-9.63,3.21-1.37,1.44-3.3,4.37-2.41,5.62,.78,1.09,3.87,1.11,13.65-3.21-.55,1.01-3.75,6.94-2.41,8.03,1.04,.84,4.5-1.46,6.42-3.21,1.6-1.46,2.61-2.97,3.21-4.01-.3,.54-1.44,2.77-.8,5.62,.65,2.93,2.72,4.47,3.21,4.82,.07,2.81,.59,7.38,3.21,12.04,3.51,6.23,12.2,15.18,22.48,12.84,7.03-1.6,12.62-7.98,14.45-16.05,2.59,3.68,4.89,3.98,5.62,4.01,4.44,.22,9.71-6.28,11.24-16.86,.22,5.02,.49,10.1,.8,15.25,.45,7.37,.99,14.6,1.61,21.67-1.64,1.5-3.85,3.86-5.62,7.22-2.95,5.63-4.06,12.88-2.41,13.65,.51,.23,2.41,.38,9.63-10.43-.91,.95-4.75,5.13-4.01,10.43,.33,2.4,1.69,5.61,3.21,5.62,1.55,0,3.08-3.31,4.01-8.03-.56,4.8-.91,11.45,0,19.26,1.06,9.08,3.97,21.05,5.62,20.87,2.09-.23,1.49-19.97,.8-42.54-.6-19.8-1.58-36.31-2.41-48.16,.64,.85,2.84,3.62,4.82,3.21,2.23-.46,3.93-4.9,3.21-11.24,1.22-.63,2.71-1.62,4.01-3.21,4.18-5.11,2.66-11.82,2.41-12.84,1.39,.27,4.57,.68,8.03-.8,6.07-2.6,7.8-8.79,8.03-9.63-1.98,2.42-1.62,6.05,.8,8.03s6.05,1.62,8.03-.8c.89,.71,2.52,1.81,4.82,2.41,2.86,.74,5.26,.3,6.42,0v30.5c-.86,.83-4.04,4.08-4.01,8.83,.02,2.95,1.27,6.45,2.41,6.42,.9-.02,2.04-2.26,3.21-11.24-.2,2.82,1.08,5.32,3.21,6.42,1.58,.81,4.04,1.07,4.82,0,1.44-2-3.69-7.67-4.01-8.03-.27-3.48-.54-6.96-.8-10.43,.08,.35,1.12,4.39,4.82,5.62,1.86,.62,4.75,.64,5.62-.8,1.34-2.25-2.92-6.85-4.01-8.03-2.29-2.47-4.71-3.95-6.42-4.82,1.34-5.35,2.68-10.7,4.01-16.05-1.22,4.82,1.36,9.69,5.62,11.24,3.61,1.32,7.88,.05,10.43-3.21,1.33,.39,6.15,1.62,11.24-.8,.74-.35,7.56-3.71,8.03-9.63,.57-7.24-8.82-12.33-11.24-13.65-4.46-2.42-8.68-3.04-11.24-3.21,.86-2.67,2.17-8.01,.8-14.45-2.25-10.62-10.09-16.32-12.04-17.66-.85-2.93-2.49-7.66-5.62-12.84-12.96-21.47-42.04-34.96-68.23-28.9-4.8,1.11-12.45,3.56-20.87,9.63Z"/>
    <path class="cls-8" d="M1704.44,24.41c-1.94-.26-4.7-.58-8.03-.8-10.68-.72-17.04-1.14-23.28,1.61-2.71,1.2-7.14,3.76-11.24,9.63-3.39,1.39-8.13,3.81-12.84,8.03-7.17,6.42-10.53,13.65-12.04,17.66-3.44-4.59-7.07-7.31-8.83-6.42-1.9,.96-1.52,6.11,0,9.63,2.27,5.26,7.3,7.43,8.83,8.03-3.67,.06-6.27,1.63-6.42,3.21-.17,1.77,2.76,3.45,4.82,4.01,3.02,.82,5.61-.38,6.42-.8,.18,.71,.59,1.97,1.61,3.21,1.16,1.43,2.51,2.11,3.21,2.41-6.89,.91-11.29,3.85-11.24,6.42,.05,2.31,3.7,4.76,7.22,4.82,4.49,.08,7.06-3.75,7.22-4.01,.71,.56,3.37,2.55,7.22,2.41,4.76-.18,7.58-3.48,8.03-4.01-.06,.6-.3,3.34,1.61,5.62,1.33,1.59,4.05,3.39,6.42,2.41,2.36-.98,3.79-4.5,2.41-8.03,1.15,.41,2.5,.73,4.01,.8,6.72,.34,11.6-4.34,12.84-5.62,2.51,.53,5.8,.96,9.63,.8,5.08-.21,9.21-1.36,12.04-2.41-1.04,1.38-3.39,4.89-3.21,9.63,.04,1.17,.21,5.5,2.41,6.42,2.15,.9,5.89-1.59,8.83-6.42-.62,3.23,1.21,6,3.21,6.42,2.23,.48,5.44-1.8,5.62-5.62,.77,4.53,2.02,11.24,4.01,19.26,.63,2.55,8.79,35.13,12.84,34.52,1.52-.23,1.99-5.08,2.41-12.84,.65-11.99,1.08-29.08,0-50.57,.96,.55,2.94,1.52,5.62,1.61,3.14,.1,5.46-1.05,6.42-1.61-2.98,2.51-4.24,6.33-3.21,9.63,.91,2.93,3.3,4.41,4.01,4.82-1.01,13.77-1.06,29.44,.8,46.56,.64,5.87,1.46,11.5,2.41,16.86-.72,1.27-2.19,4.31-1.61,8.03,.71,4.5,4.2,8.54,5.62,8.03,.58-.21,1.69-1.48,0-11.24,1.16,.32,3.6,.82,6.42,0,2.37-.68,5.81-2.52,5.62-4.01-.14-1.11-2.33-2.45-12.04-3.21-.62-3.92-1.16-7.93-1.61-12.04-3.33-30.73-.48-58.72,4.82-82.68,1.99-.47,4.9-1.37,8.03-3.21,.9-.53,8.01-4.71,7.22-7.22-.48-1.53-3.82-2.27-6.42-1.61-3.42,.88-5.44,4.17-5.62,4.01-.19-.16,2.94-2.78,3.21-6.42,.18-2.45-.94-5.37-2.41-5.62-2.48-.43-5.58,6.8-6.42,8.83,.2-1.52,.49-5.42-1.61-9.63-1.76-3.55-4.34-5.55-5.62-6.42,.33,.16,2.97,1.36,5.62,0,2.01-1.03,3.7-3.38,3.21-4.82-.5-1.47-3.54-2.76-15.25-1.61,1.71-1.48,2.87-3.41,2.41-4.82-.62-1.9-4.34-3.27-8.83-1.61-1.09-2.87-3.91-9.15-10.43-14.45-6.42-5.22-13.02-6.72-16.05-7.22-1.43-.98-5.76-3.65-10.43-2.41-7.01,1.87-9.05,11.04-9.63,13.65-.98,4.4-.49,8.16,0,10.43Z"/>
    <path class="cls-13" d="M1576.57,621.48c16.25-12.29,35.52-21.04,55.87-23.43,18.81-2.21,38.15,1.4,54.52,11.06,8.94,5.28,16.82,12.32,22.79,20.83,.31,.45,1.06,.02,.74-.43-10.71-15.25-27.26-25.62-45.19-30.22-19.45-4.99-40.03-2.8-58.65,4.36-10.93,4.2-21.18,10.04-30.52,17.1-.43,.33,0,1.07,.43,.74h0Z"/>
    <path class="cls-13" d="M1550.8,662.46c6.01-11.78,14.46-22.22,24.58-30.73s21.91-15.1,34.5-19.17c7.12-2.31,14.5-3.8,21.96-4.4,.55-.04,.55-.9,0-.86-13.3,1.08-26.27,4.95-38.09,11.11-11.88,6.2-22.59,14.7-31.24,24.94-4.84,5.73-9.03,11.99-12.44,18.67-.25,.49,.49,.92,.74,.43h0Z"/>
    <path class="cls-13" d="M1651.33,610.51h1.26c.22,0,.44-.2,.43-.43s-.19-.43-.43-.43h-1.26c-.22,0-.44,.2-.43,.43s.19,.43,.43,.43h0Z"/>
    <path class="cls-13" d="M1668.12,613.62c10.85,2.65,20.91,8.13,29.1,15.7s15.24,17.88,17.9,29.06c1.63,6.87,1.5,14.23-1.8,20.6-.25,.49,.49,.92,.74,.43,5.86-11.34,2.17-24.91-3.9-35.35-5.74-9.87-14.1-18.18-23.93-23.98-5.57-3.29-11.61-5.76-17.89-7.29-.54-.13-.76,.7-.23,.83h0Z"/>
    <path class="cls-13" d="M1585.98,653.25c19.39-11.44,43.31-17.97,65.09-9.33,4.97,1.97,9.92,4.66,13.52,8.7,3.38,3.79,5.49,9.15,2.74,13.91-2.3,3.97-6.96,5.93-11.2,7.03-5.23,1.36-10.77,1.85-16.16,1.94-12.86,.22-25.72-2.59-37.32-8.16-.49-.24-.93,.5-.43,.74,10.8,5.19,22.68,8.03,34.67,8.27,5.83,.12,11.72-.34,17.44-1.5,4.34-.88,8.99-2.44,12.12-5.74s3.8-8.16,1.9-12.38c-2.18-4.85-6.6-8.36-11.16-10.87-10.09-5.56-21.91-7.5-33.32-6.55-13.63,1.13-26.61,6.3-38.31,13.21-.47,.28-.04,1.02,.43,.74h0Z"/>
    <path class="cls-13" d="M1501.34,661.45c13.3,.55,26,7.53,33.58,18.47,.31,.45,1.06,.02,.74-.43-7.76-11.2-20.7-18.33-34.32-18.9-.55-.02-.55,.83,0,.86h0Z"/>
    <path class="cls-13" d="M1518.78,660.14c8.28,3.22,15.24,9.38,19.49,17.17,.26,.48,1,.05,.74-.43-4.36-8-11.52-14.26-20.01-17.56-.51-.2-.74,.63-.23,.83h0Z"/>
    <path class="cls-13" d="M1527.71,639.13c2.68-5.45,6.75-10.7,12.57-12.98,5.33-2.1,12-1.26,15.87,3.22,.36,.42,.97-.19,.61-.61-3.97-4.6-10.83-5.59-16.37-3.56-6.2,2.26-10.58,7.75-13.41,13.5-.24,.49,.5,.93,.74,.43h0Z"/>
    <path class="cls-13" d="M1553.87,634.88c1.64,.9,2.88,2.43,3.41,4.22,.16,.53,.98,.3,.83-.23-.59-2-1.97-3.73-3.8-4.74-.48-.27-.92,.47-.43,.74h0Z"/>
    <path class="cls-13" d="M1633.04,578.05c7.92-5.48,17.51-9.51,27.29-9.01s18.48,6.84,24.64,14.64c3.59,4.54,6.42,9.85,6.88,15.71,.04,.55,.9,.55,.86,0-.4-5.13-2.52-9.87-5.44-14.06s-6.43-7.93-10.43-10.98-8.86-5.26-14.01-5.95c-4.88-.65-9.86-.06-14.58,1.3-5.6,1.61-10.86,4.3-15.64,7.6-.45,.31-.02,1.05,.43,.74h0Z"/>
    <path class="cls-13" d="M1679.25,589.45c1.69,4.43,2.85,9.05,3.42,13.76,.07,.54,.92,.55,.86,0-.58-4.79-1.73-9.48-3.46-13.98-.19-.51-1.02-.29-.83,.23h0Z"/>
    <path class="cls-13" d="M1718.49,603.16c11.5,2.78,21.14,10.43,27.97,19.92,7.27,10.08,13.44,23.58,8.63,35.93-2.61,6.7-7.55,12.25-12.79,17.03-.41,.37,.2,.98,.61,.61,4.76-4.34,9.21-9.28,12.02-15.14s3.48-12.64,1.83-19.17c-1.6-6.33-4.65-12.42-8.27-17.83-3.36-5.02-7.42-9.61-12.15-13.38-5.19-4.14-11.16-7.23-17.63-8.8-.54-.13-.76,.7-.23,.83h0Z"/>
    <path class="cls-13" d="M1763.67,653.37c-.92,10.38-8.39,19.69-18.31,22.87-.52,.17-.3,1,.23,.83,10.31-3.3,17.98-12.92,18.94-23.69,.05-.55-.81-.55-.86,0h0Z"/>
    <path class="cls-13" d="M1773.32,671.83c6.13-6.42,14.26-10.73,23-12.25s17.75,0,25.59,4.04c4.39,2.27,8.34,5.3,11.67,8.96,.37,.41,.98-.2,.61-.61-6.03-6.63-14.18-11.24-22.97-13.01-8.81-1.77-18-.54-26.11,3.31-4.64,2.2-8.85,5.25-12.4,8.96-.38,.4,.22,1.01,.61,.61h0Z"/>
    <path class="cls-13" d="M1769.98,687.29c6.63-10.92,18.48-18.29,31.12-19.83,3.58-.44,7.2-.4,10.77,.12,.54,.08,.77-.75,.23-.83-12.96-1.91-26.45,2.58-35.95,11.55-2.68,2.53-5,5.41-6.91,8.55-.29,.47,.45,.9,.74,.43h0Z"/>
    <path class="cls-13" d="M1777.47,632.04c6.04-1.56,12.68,.52,16.78,5.22,.36,.42,.97-.19,.61-.61-4.29-4.93-11.29-7.08-17.61-5.44-.53,.14-.31,.97,.23,.83h0Z"/>
    <path class="cls-13" d="M1784.37,637.52c4.31,.53,8.29,2.75,11.07,6.07,.35,.42,.96-.19,.61-.61-2.93-3.51-7.14-5.77-11.67-6.33-.55-.07-.54,.79,0,.86h0Z"/>
    <path class="cls-13" d="M1791.12,648.26l1.89,.61c.21,.07,.48-.08,.53-.3,.05-.23-.07-.45-.3-.53l-1.89-.61c-.21-.07-.48,.08-.53,.3-.05,.23,.07,.45,.3,.53h0Z"/>
    <path class="cls-13" d="M1737.55,670.74c-3.72,7.39-9.87,13.38-17.36,16.91-.5,.24-.06,.97,.43,.74,7.6-3.59,13.88-9.71,17.66-17.22,.25-.49-.49-.93-.74-.43h0Z"/>
    <path class="cls-13" d="M1548.73,686.73c4.17-14.03,13.26-26.38,25.44-34.51,.46-.3,.03-1.05-.43-.74-12.36,8.25-21.6,20.77-25.83,35.02-.16,.53,.67,.76,.83,.23h0Z"/>
    <path class="cls-13" d="M1553.87,444.3c-4.33,17.24-8.71,35.26-5.03,53.04,.11,.54,.94,.31,.83-.23-3.65-17.62,.74-35.5,5.03-52.58,.13-.54-.69-.76-.83-.23h0Z"/>
    <path class="cls-13" d="M1551.19,504.14c.36,2.57,.97,5.09,1.8,7.55,.18,.52,1,.3,.83-.23-.84-2.45-1.44-4.98-1.8-7.55-.08-.54-.9-.31-.83,.23h0Z"/>
    <path class="cls-13" d="M1558.02,520.75c7.37,9.37,13.64,19.57,18.69,30.36,.23,.5,.97,.06,.74-.43-5.09-10.87-11.41-21.11-18.82-30.53-.34-.43-.94,.18-.61,.61h0Z"/>
    <path class="cls-13" d="M1557.23,468.24c-1.61,12.1-.3,24.47,3.81,35.96,.18,.52,1.01,.29,.83-.23-4.09-11.43-5.38-23.7-3.78-35.73,.07-.54-.79-.54-.86,0h0Z"/>
    <path class="cls-13" d="M1565.93,515.97c10.87,11.9,19.81,25.49,26.46,40.17,.23,.5,.97,.07,.74-.43-6.68-14.75-15.67-28.39-26.59-40.34-.37-.41-.98,.2-.61,.61h0Z"/>
    <path class="cls-13" d="M1556.98,420.96c-1.38,1.68-2.3,3.67-2.62,5.82-.24,1.62-.45,4.32,1.24,5.28,1.79,1.03,3.85-.82,5.12-1.9,1.67-1.42,3.16-3.04,4.45-4.81,1.45-1.98,2.61-4.14,3.5-6.42,.2-.51-.63-.74-.83-.23-1.71,4.39-4.57,8.31-8.23,11.27-.84,.68-2.05,1.74-3.22,1.49-1.26-.27-1.3-2-1.3-3.01,0-2.5,.91-4.96,2.5-6.89,.35-.42-.26-1.03-.61-.61h0Z"/>
    <path class="cls-13" d="M1565.09,442.11c.88-1.65,1.77-3.3,2.65-4.95,.26-.49-.48-.92-.74-.43-.88,1.65-1.77,3.3-2.65,4.95-.26,.49,.48,.92,.74,.43h0Z"/>
    <path class="cls-13" d="M1575.56,426.3c5.26-6.86,13.32-10.62,21.29-13.38,9.38-3.25,19.03-5.85,28.65-8.29,5.67-1.44,11.37-2.77,17.08-4.01,.54-.12,.31-.94-.23-.83-10.48,2.26-20.89,4.86-31.2,7.82-8.76,2.52-17.91,4.9-25.9,9.41-4.02,2.27-7.63,5.16-10.44,8.84-.34,.44,.41,.86,.74,.43h0Z"/>
    <path class="cls-13" d="M1625.03,399.41c6.07-1.43,12.15-2.86,18.22-4.29,.54-.13,.31-.95-.23-.83-6.07,1.43-12.15,2.86-18.22,4.29-.54,.13-.31,.95,.23,.83h0Z"/>
    <path class="cls-13" d="M1658.42,395.54c8.99-2.33,17.6-5.92,25.59-10.66,.47-.28,.04-1.02-.43-.74-7.92,4.7-16.46,8.26-25.38,10.57-.53,.14-.31,.97,.23,.83h0Z"/>
    <path class="cls-13" d="M1679.58,394.87c7.95-.62,15.29-5.39,19.06-12.43,.26-.49-.48-.92-.74-.43-3.62,6.76-10.67,11.4-18.32,12-.55,.04-.55,.9,0,.86h0Z"/>
    <path class="cls-13" d="M1634.52,352.65c5.01,6.99,15.47,9.02,22.7,4.31,.46-.3,.03-1.04-.43-.74-6.81,4.43-16.77,2.62-21.52-4-.32-.44-1.06-.02-.74,.43h0Z"/>
    <path class="cls-13" d="M1659.17,362.8c7.57,3.6,13.79,9.69,17.54,17.19,.25,.49,.99,.06,.74-.43-3.81-7.62-10.15-13.84-17.84-17.5-.5-.24-.93,.5-.43,.74h0Z"/>
    <path class="cls-13" d="M1673.67,366.74c2.11,3.72,5.11,6.87,8.72,9.17,.47,.3,.9-.44,.43-.74-3.48-2.22-6.37-5.27-8.41-8.86-.27-.48-1.01-.05-.74,.43h0Z"/>
    <path class="cls-13" d="M1566.32,486.18c-.83,.72-.9,1.77-.72,2.8,.28,1.58,.91,3.15,1.46,4.65,1.12,3.03,2.5,5.96,4.1,8.76,3.3,5.76,7.57,10.92,12.59,15.26,.42,.36,1.02-.24,.61-.61-4.55-3.94-8.49-8.54-11.63-13.68-1.57-2.58-2.95-5.27-4.11-8.07-.57-1.38-1.08-2.79-1.54-4.21-.39-1.22-1.34-3.27-.17-4.3,.42-.36-.19-.97-.61-.61h0Z"/>
    <path class="cls-13" d="M1586.47,518.11c10.35,7.99,21.77,17.39,23.61,31.2,.07,.54,.93,.55,.86,0-1.89-14.18-13.41-23.74-24.04-31.94-.44-.34-.86,.41-.43,.74h0Z"/>
    <path class="cls-13" d="M1595.12,531.38c4.62,3.76,8.43,8.42,11.19,13.7,.26,.49,1,.06,.74-.43-2.79-5.34-6.65-10.07-11.32-13.88-.42-.35-1.03,.26-.61,.61h0Z"/>
    <path class="cls-13" d="M1621.22,527.16c10.33-1.22,20.84,.98,29.8,6.26,.48,.28,.91-.46,.43-.74-9.08-5.35-19.77-7.61-30.23-6.38-.54,.06-.55,.92,0,.86h0Z"/>
    <path class="cls-13" d="M1635.63,532.16c5.45,.58,10.58,3.13,14.37,7.1,.38,.4,.99-.21,.61-.61-3.95-4.14-9.29-6.74-14.97-7.35-.55-.06-.54,.8,0,.86h0Z"/>
    <path class="cls-13" d="M1633.54,538.29c3.49,2.45,6.42,5.62,8.59,9.28,.28,.47,1.02,.04,.74-.43-2.25-3.79-5.29-7.06-8.9-9.59-.45-.32-.88,.43-.43,.74h0Z"/>
    <path class="cls-12" d="M1410.68,377.69c-3.5-5.04-9.16-8.32-15.28-8.87-.42-.04-.5,.47-.3,.73,4.04,5.2,9.17,9.49,15,12.55,.49,.26,.92-.48,.43-.74-5.77-3.03-10.83-7.27-14.82-12.42l-.3,.73c5.79,.51,11.22,3.66,14.54,8.44,.31,.45,1.06,.02,.74-.43h0Z"/>
    <path class="cls-12" d="M1411.98,383.71c-2.19,1.38-4.09,3.18-5.55,5.31-1.18,1.73-2.5,3.98-2.05,6.17,.17,.84,.7,1.59,1.55,1.86,1.27,.4,2.49-.4,3.48-1.11,2.18-1.57,4.18-3.38,5.96-5.39,2.02-2.29,3.76-4.82,5.15-7.54,.25-.49-.49-.92-.74-.43-2.12,4.11-5,7.78-8.5,10.8-1.08,.93-4.8,4.52-5.92,2.11-.83-1.79,.55-4.08,1.48-5.53,1.42-2.23,3.33-4.1,5.57-5.5,.47-.29,.04-1.03-.43-.74h0Z"/>
    <path class="cls-12" d="M1428.88,370.32c-1.06-2.69-1.69-5.52-1.8-8.41-.06-1.52,0-3.06,.22-4.57,.16-1.12,.25-3.02,1.12-3.85,1.32-1.27,2.46,1.24,2.73,2.21,.39,1.41,.6,2.86,.66,4.32,.12,2.98-.43,5.96-1.61,8.7-.22,.5,.52,.94,.74,.43,1.05-2.45,1.66-5.06,1.73-7.73,.04-1.33-.06-2.66-.27-3.97-.2-1.19-.43-2.48-1.05-3.53-.44-.75-1.15-1.53-2.07-1.61s-1.61,.55-1.98,1.33c-.52,1.1-.67,2.43-.84,3.63-.18,1.33-.27,2.67-.25,4.01,.05,3.17,.69,6.32,1.85,9.27,.2,.51,1.03,.29,.83-.23h0Z"/>
    <path class="cls-12" d="M1429.47,404.56c-2.29,2.41-4.42,4.97-6.37,7.67-.96,1.33-1.88,2.7-2.75,4.1-.79,1.27-1.81,2.66-2.07,4.17-.18,1.06,.12,2.25,1.03,2.91,1.02,.74,2.21,.33,3.16-.33,2.59-1.79,4.96-4.01,7.16-6.25,2.57-2.61,4.89-5.46,6.97-8.47,.31-.46-.43-.88-.74-.43-3.16,4.58-6.92,8.73-11.18,12.32-1.01,.85-2.08,1.9-3.28,2.48-1.94,.94-2.6-1.31-2.11-2.74,.47-1.35,1.38-2.6,2.14-3.79s1.5-2.29,2.3-3.41c1.93-2.69,4.05-5.23,6.33-7.63,.38-.4-.23-1.01-.61-.61h0Z"/>
    <path class="cls-12" d="M1439.31,405.53c-.02,1.36,.26,2.7,.83,3.94,.51,1.12,1.3,2.33,2.42,2.91,.98,.52,2.27,.44,3.02-.46,.94-1.12,0-2.5-.52-3.58-.8-1.64-1.61-3.27-2.41-4.91-.24-.49-.98-.06-.74,.43,.74,1.51,1.48,3.02,2.23,4.53,.17,.35,.35,.7,.52,1.06s.41,.75,.47,1.17c.09,.6-.37,1.04-.91,1.18-1.33,.36-2.4-1.08-2.97-2.07-.74-1.28-1.1-2.74-1.08-4.22,0-.55-.85-.55-.86,0h0Z"/>
    <path class="cls-12" d="M1440.42,389.5c-3.28,.59-6.46,1.6-9.46,3.05-2.34,1.13-5.76,2.63-6.76,5.25s1.55,3.6,3.64,3.32c3.34-.46,6.69-1.54,9.85-2.69,3.69-1.35,7.23-3.05,10.6-5.05,.47-.28,.04-1.02-.43-.74-3.19,1.9-6.53,3.52-10.01,4.82-1.69,.63-3.41,1.19-5.14,1.67s-3.53,1.03-5.31,1.19c-.84,.07-1.94,.02-2.39-.83-.54-1.02,.37-2.2,1.05-2.88,1.22-1.22,2.92-2.08,4.44-2.86,3.19-1.65,6.62-2.78,10.15-3.41,.54-.1,.31-.92-.23-.83h0Z"/>
    <path class="cls-12" d="M1451.56,390.56c.67,1.42,1.66,2.66,2.9,3.62,.98,.76,2.74,2.01,4.03,1.35s.83-2.28,.31-3.26c-.81-1.53-1.91-2.95-3.01-4.29-1.29-1.57-2.72-3.01-4.27-4.31-.42-.35-1.03,.25-.61,.61,1.43,1.2,2.76,2.52,3.96,3.94s2.42,2.96,3.25,4.61c.25,.49,.65,1.55,.01,1.93-.72,.43-1.95-.43-2.53-.8-1.45-.93-2.58-2.27-3.31-3.82-.23-.5-.97-.06-.74,.43h0Z"/>
    <path class="cls-12" d="M1470.8,335.64c-2.58-2.73-4.22-6.24-4.69-9.96-.21-1.7-.18-3.45,.12-5.14,.28-1.55,.85-3.92,2.57-4.48,2.08-.68,3.32,2.37,4.06,3.78,.95,1.79,1.8,3.63,2.53,5.51,1.51,3.84,2.56,7.84,3.17,11.92,.08,.54,.91,.31,.83-.23-.58-3.82-1.53-7.58-2.89-11.2-.65-1.72-1.38-3.41-2.19-5.06-.74-1.49-1.47-3.16-2.57-4.43-1.99-2.31-4.57-.91-5.63,1.47-1.21,2.7-1.2,6.08-.69,8.94,.63,3.55,2.3,6.86,4.77,9.48,.38,.4,.98-.21,.61-.61h0Z"/>
    <path class="cls-12" d="M1482.3,334.1c.82-2.25,2.74-4.35,5.21-4.65,.98-.12,2.19,.1,2.81,.94,.46,.62,.51,1.49,.3,2.22-.24,.8-.83,1.45-1.71,1.36-.55-.06-.54,.8,0,.86,2.24,.23,3.16-2.66,2.43-4.38-.49-1.14-1.68-1.75-2.87-1.87-1.4-.14-2.87,.38-3.99,1.2-1.39,1.01-2.41,2.47-2.99,4.08-.19,.52,.64,.74,.83,.23h0Z"/>
    <path class="cls-12" d="M1512.18,369.9c1.59-.31,3.52-.71,4.96,.27,.54,.37,1.01,.92,1.17,1.57,.2,.77-.14,1.44-.66,2-2.14,2.27-5.25,3.76-8.26,4.44-.54,.12-.31,.95,.23,.83,2.82-.64,5.46-1.94,7.68-3.79,1.02-.85,2.09-1.9,1.89-3.34-.16-1.2-1.08-2.23-2.15-2.72-1.61-.73-3.44-.39-5.11-.07-.54,.11-.31,.93,.23,.83h0Z"/>
    <path class="cls-12" d="M1410.04,356.38c-1.09-1.45-2.3-2.8-3.64-4.02s-2.76-2.39-4.33-3.19c-.67-.34-1.5-.61-2.22-.27-.63,.3-.95,.93-.95,1.62,0,.77,.33,1.49,.69,2.16,.4,.75,.86,1.46,1.37,2.13,1.17,1.53,2.61,2.84,4.24,3.87,.47,.29,.9-.45,.43-.74-1.23-.77-2.33-1.71-3.3-2.79s-1.83-2.29-2.35-3.6c-.2-.51-.44-1.34,.06-1.76,.57-.48,1.48,.04,2,.35,1.31,.8,2.55,1.74,3.69,2.77,1.31,1.18,2.51,2.49,3.57,3.9,.33,.44,1.07,0,.74-.43h0Z"/>
    <path class="cls-12" d="M1505.53,186.05c-1.82-2.3-4.21-4.08-6.93-5.18-2.53-1.03-5.62-1.66-8.32-1.01s-4.22,3.01-3.32,5.74,3.28,4.95,5.59,6.53c2.78,1.9,6.04,3,9.39,3.22,.55,.04,.55-.82,0-.86-5.12-.33-10.49-3.02-13.31-7.42-.74-1.16-1.37-2.62-1-4.01s1.6-2.07,2.88-2.38c2.39-.57,5.1-.03,7.35,.81,2.78,1.04,5.22,2.84,7.06,5.16,.34,.43,.95-.18,.61-.61h0Z"/>
    <path class="cls-12" d="M1492.96,203.19c-1.57,1.91-2.48,4.29-2.47,6.78,0,1.88,.69,4.2,2.57,5.02,.95,.41,1.94,.18,2.77-.4,1.15-.81,2.17-1.86,3.23-2.8,2.33-2.06,4.66-4.12,6.99-6.17,.41-.37-.19-.97-.61-.61-1.89,1.67-3.79,3.34-5.68,5.02-.95,.84-1.89,1.67-2.84,2.51-.79,.7-1.75,1.87-2.91,1.81-1.99-.09-2.66-2.81-2.67-4.38,0-2.24,.79-4.44,2.22-6.17,.35-.42-.25-1.03-.61-.61h0Z"/>
    <path class="cls-12" d="M1512.85,195.92c-1.36,1.75,.09,4.07,1.95,4.7,1.01,.34,2.05,.09,2.86-.58s1.26-1.67,1.4-2.68c.16-1.18-.07-2.42-.75-3.41-.31-.45-1.05-.03-.74,.43,.9,1.33,.96,3.34-.08,4.62-.48,.59-1.22,1.01-2,.91s-1.45-.59-1.88-1.19-.68-1.52-.16-2.19c.14-.18,.18-.43,0-.61-.15-.15-.46-.18-.61,0h0Z"/>
    <path class="cls-12" d="M1545.98,178.98c-4.7,3.87-8.58,9.21-10.35,15.08-.3,1-.27,2.2,.83,2.67,.94,.4,2.08,0,2.93-.44,1.35-.71,2.57-1.85,3.75-2.8,1.34-1.08,2.64-2.2,3.91-3.36,2.97-2.7,5.75-5.59,8.34-8.66,.35-.42-.25-1.03-.61-.61-3.85,4.55-8.13,8.73-12.79,12.44-1.07,.85-2.19,1.92-3.47,2.44-.46,.19-1.03,.36-1.53,.24-1.01-.24-.64-1.45-.39-2.16,.91-2.63,2.18-5.13,3.74-7.43,1.74-2.56,3.85-4.85,6.24-6.82,.43-.35-.18-.95-.61-.61h0Z"/>
    <path class="cls-12" d="M1555.3,185.43c.47,1.27,1.07,2.48,1.82,3.61,.67,1,1.46,2.19,2.61,2.68,1.02,.43,2.11,.13,2.94-.55,.91-.74,1.41-1.85,1.46-3.01,.07-1.63-.62-3.18-1.28-4.63-.23-.5-.97-.07-.74,.43,.63,1.38,1.29,2.86,1.15,4.41-.11,1.15-.93,2.36-2.1,2.64-1.35,.33-2.3-1-2.98-1.96-.85-1.19-1.54-2.49-2.05-3.86-.19-.51-1.02-.29-.83,.23h0Z"/>
    <path class="cls-12" d="M1523.5,173.61c-1.94-1.36-4.19-2.21-6.55-2.45-1.76-.18-4.45-.16-5.2,1.84s1.15,3.72,2.63,4.66c2.02,1.27,4.3,2.15,6.64,2.61,2.67,.52,5.41,.48,8.07-.09,.54-.12,.31-.94-.23-.83-4.87,1.05-10.61,.21-14.66-2.84-.94-.71-2.24-2.06-1.6-3.35,.54-1.09,2.02-1.22,3.08-1.21,2.65,0,5.21,.89,7.38,2.4,.45,.32,.88-.43,.43-.74h0Z"/>
    <path class="cls-12" d="M1502.85,156.72c-2.37-2.51-5.51-4.25-8.9-4.92-.33-.07-.6,.2-.53,.53,.78,3.68,2.95,6.97,6,9.17,.45,.32,.88-.42,.43-.74-2.87-2.07-4.87-5.2-5.61-8.66l-.53,.53c3.26,.65,6.24,2.29,8.52,4.7,.38,.4,.98-.21,.61-.61h0Z"/>
    <path class="cls-12" d="M1594.18,176.6c-3.96,1.32-7.27,4.34-8.94,8.17-.67,1.53-1.7,4.1-.51,5.61,1.29,1.64,3.6,.47,4.87-.57,2.25-1.83,4.28-3.99,6.12-6.22,.35-.42-.25-1.03-.61-.61-1.39,1.68-2.88,3.27-4.48,4.76-.73,.68-1.47,1.41-2.33,1.94-.69,.43-1.75,.94-2.55,.48-.89-.52-.74-1.76-.55-2.6,.2-.9,.49-1.79,.88-2.63,.75-1.63,1.81-3.11,3.11-4.36,1.48-1.42,3.26-2.51,5.2-3.16,.52-.17,.3-1-.23-.83h0Z"/>
    <path class="cls-12" d="M1609.36,190.27c1.4,6.68,5.68,12.58,11.59,16.01,.3,.18,.61-.06,.64-.37,.6-5.46,.32-10.97-.82-16.35-.11-.54-.94-.31-.83,.23,1.12,5.3,1.38,10.74,.79,16.12l.64-.37c-5.72-3.32-9.83-9.02-11.19-15.49-.11-.54-.94-.31-.83,.23h0Z"/>
    <path class="cls-12" d="M1647.81,208.08c-1.29,1.47-2.58,2.94-3.87,4.42-.96,1.09-2.25,2.24-2.49,3.75-.21,1.34,.92,2.26,2.21,1.89,.85-.24,1.59-.84,2.32-1.32,.83-.55,1.66-1.09,2.49-1.64,1.89-1.24,3.77-2.48,5.66-3.72,.46-.3,.03-1.04-.43-.74-1.79,1.18-3.58,2.35-5.37,3.53-.9,.59-1.79,1.18-2.69,1.77-.73,.48-1.7,1.39-2.62,1.36-1.04-.02-.76-1.2-.45-1.8,.41-.81,1.09-1.46,1.68-2.14l4.17-4.76c.36-.41-.24-1.02-.61-.61h0Z"/>
    <path class="cls-12" d="M1673,147.97c-.89,1.85-1.36,3.87-1.34,5.92,0,1.02,.13,2.04,.38,3.04,.2,.83,.47,1.7,1.04,2.36,1.31,1.5,2.97,.25,3.83-1.04,.92-1.39,1.17-3.12,1.07-4.75-.12-2.03-.7-4.01-1.37-5.92-.18-.52-1.01-.29-.83,.23,.93,2.64,1.89,5.74,1.08,8.52-.29,.99-1.71,3.72-3.01,2.52-.56-.52-.78-1.34-.96-2.05-.22-.85-.34-1.72-.36-2.6-.06-2,.35-3.99,1.22-5.8,.24-.49-.5-.93-.74-.43h0Z"/>
    <path class="cls-12" d="M1677.93,145.94c1.55,2.27,3.64,4.14,6.09,5.39,2.3,1.18,5.14,2.04,7.74,1.7,2.45-.32,4.26-2.27,3.33-4.79-.49-1.34-1.47-2.47-2.46-3.47-1.05-1.06-2.12-2.1-3.28-3.04-2.42-1.96-5.27-3.53-8.47-3.27-.55,.04-.55,.9,0,.86,2.51-.2,4.79,.79,6.81,2.21s3.89,3.14,5.4,5.01c.8,.99,1.68,2.35,1.33,3.68-.33,1.24-1.55,1.79-2.72,1.96-2.3,.33-4.86-.42-6.92-1.42-2.46-1.19-4.58-2.99-6.12-5.25-.31-.45-1.05-.02-.74,.43h0Z"/>
    <path class="cls-12" d="M1538.11,166.4c-1.47-.94-3.52-1.56-5.25-1.02-.65,.2-1.29,.58-1.6,1.21-.38,.77-.02,1.55,.41,2.21,1.82,2.75,4.91,4.5,8.15,4.93,1.87,.24,3.78,.03,5.53-.67,.51-.2,.28-1.03-.23-.83-3.26,1.31-7.03,.81-9.95-1.12-.7-.47-1.34-1.02-1.91-1.64-.53-.58-1.72-1.83-1.16-2.65,.49-.72,1.62-.79,2.39-.75,1.14,.06,2.22,.45,3.17,1.07,.47,.3,.9-.44,.43-.74h0Z"/>
    <path class="cls-12" d="M1650.26,230.78c-1.73,2.62-3.08,5.48-3.97,8.49-.67,2.25-1.46,4.96-.59,7.26,.76,2.02,2.72,2.45,4.38,1.11,2.34-1.9,4.28-4.52,5.88-7.06,.3-.47-.45-.9-.74-.43-1.39,2.19-3,4.23-4.85,6.05-.74,.73-1.85,1.88-2.98,1.23-.8-.46-1.07-1.56-1.17-2.41-.26-2.19,.56-4.62,1.25-6.68,.85-2.53,2.05-4.92,3.52-7.14,.31-.46-.44-.89-.74-.43h0Z"/>
    <path class="cls-12" d="M1701.15,37.64c-2.79-4.59-8.17-7.48-13.56-7.08-2.04,.15-4.78,1.4-3.65,3.91,.55,1.22,1.76,2.05,2.83,2.78,1.25,.86,2.6,1.57,4,2.15,3.21,1.32,6.7,1.88,10.16,1.62,.55-.04,.55-.9,0-.86-5.18,.39-10.44-1.1-14.58-4.27-.92-.7-2.36-1.99-1.59-3.27,.59-.98,2.05-1.18,3.08-1.23,2.32-.12,4.66,.38,6.75,1.4,2.4,1.17,4.43,2.99,5.82,5.27,.29,.47,1.03,.04,.74-.43h0Z"/>
    <path class="cls-12" d="M1698.18,43.98c-3.26,1.05-6.35,2.6-9.12,4.63-1.32,.97-2.57,2.04-3.72,3.2s-2.38,2.39-3.03,3.89c-1.14,2.6,.66,4.95,3.36,5.18,1.57,.13,3.09-.57,4.39-1.4,1.63-1.04,3.17-2.27,4.71-3.44,3.65-2.79,7.19-5.7,10.64-8.73,.41-.37-.19-.97-.61-.61-3.34,2.94-6.76,5.77-10.29,8.47-1.55,1.18-3.09,2.4-4.72,3.47s-3.72,1.97-5.6,.93c-4.2-2.32,2.07-7.6,4.09-9.26,3-2.46,6.45-4.31,10.14-5.5,.52-.17,.3-1-.23-.83h0Z"/>
    <path class="cls-12" d="M1718.05,40.07c-1.72-1.64-2-4.58-.52-6.48l-.67-.09c1.62,2.27,2.28,5.14,1.76,7.89-.1,.54,.72,.77,.83,.23,.56-2.97-.09-6.09-1.84-8.55-.14-.2-.49-.32-.67-.09-1.76,2.25-1.57,5.7,.52,7.69,.4,.38,1.01-.22,.61-.61h0Z"/>
    <path class="cls-12" d="M1728.88,28.97c-.17-4.93,2.88-9.72,7.47-11.58l-.53-.53c-1.23,5.07-2.57,10.1-4.03,15.11-.15,.53,.67,.76,.83,.23,1.46-5,2.8-10.04,4.03-15.11,.07-.29-.21-.66-.53-.53-4.94,2-8.29,7.07-8.1,12.41,.02,.55,.88,.55,.86,0h0Z"/>
    <path class="cls-12" d="M1663.62,53.88c-6.03,2.21-10.69,7.36-12.22,13.6-.05,.2,.04,.37,.2,.48,3.38,2.47,7.94-1.56,10.66-3.31,4.36-2.81,8.72-5.61,13.07-8.42,.46-.3,.03-1.04-.43-.74-3.84,2.48-7.69,4.95-11.53,7.43-1.86,1.2-3.7,2.47-5.61,3.6-1.7,1.01-3.93,2.03-5.73,.71l.2,.48c1.46-5.94,5.87-10.9,11.62-13,.51-.19,.29-1.02-.23-.83h0Z"/>
    <path class="cls-12" d="M1671.24,66.59c-.64,1.81-.94,3.74-.86,5.66,.06,1.44,.16,3.63,1.44,4.59,1.39,1.04,2.61-.68,3.32-1.71,.97-1.41,1.68-3.02,2.08-4.69,.46-1.91,.5-3.87,.16-5.8-.1-.54-.92-.31-.83,.23,.65,3.66-.32,7.59-2.65,10.5-.24,.3-.57,.79-.97,.89-.45,.12-.76-.21-.97-.56-.48-.78-.58-1.83-.67-2.72-.21-2.09,.07-4.19,.78-6.17,.19-.52-.64-.74-.83-.23h0Z"/>
    <path class="cls-12" d="M1684.46,67.45c-1.4,.58-2.59,1.52-3.44,2.77-.75,1.09-1.67,2.98-.8,4.23,.78,1.14,2.43,.89,3.53,.43,1.44-.61,2.76-1.53,3.89-2.6,1.31-1.25,2.37-2.76,3.09-4.42,.22-.5-.52-.94-.74-.43-1.06,2.43-2.83,4.51-5.1,5.89-.93,.57-2.18,1.31-3.32,1.05-1.49-.35-.6-2.38-.11-3.23,.73-1.28,1.88-2.31,3.24-2.87,.5-.21,.28-1.04-.23-.83h0Z"/>
    <path class="cls-12" d="M1657.26,47.74c-2.14,.93-4.28,1.87-6.43,2.8l-3.21,1.4c-.79,.34-1.79,.65-2.26,1.43-1.03,1.71,1.41,2.61,2.62,2.86,2,.43,4.08,.26,5.99-.48,.51-.2,.29-1.03-.23-.83-1.66,.64-3.47,.86-5.23,.54-.71-.13-1.61-.29-2.18-.78-.82-.7,.17-1.31,.8-1.6,3.5-1.6,7.05-3.08,10.57-4.61,.5-.22,.07-.96-.43-.74h0Z"/>
    <path class="cls-12" d="M1478.78,210.11c-3.33,8.98,1.4,17.96,5.75,25.64,.27,.48,1.01,.05,.74-.43-4.24-7.49-8.91-16.22-5.66-24.98,.19-.52-.64-.74-.83-.23h0Z"/>
    <path class="cls-12" d="M1482.74,219.75c-.43,4.48,.67,9.02,3.09,12.82,.3,.46,1.04,.03,.74-.43-2.35-3.68-3.39-8.04-2.97-12.38,.05-.55-.8-.55-.86,0h0Z"/>
    <path class="cls-12" d="M1460.84,414.92c.07,14.52,1.08,29.03,3.03,43.42,.07,.54,.9,.31,.83-.23-1.93-14.32-2.93-28.75-2.99-43.19,0-.55-.86-.55-.86,0h0Z"/>
    <path class="cls-12" d="M1480.87,352.37c-3.81,3.5-3.93,9.13-4.23,13.94-.4,6.42-.56,12.94,1.24,19.18,.15,.53,.98,.3,.83-.23-1.69-5.86-1.62-11.97-1.27-18.01,.28-4.82,.19-10.74,4.03-14.27,.41-.37-.2-.98-.61-.61h0Z"/>
    <path class="cls-12" d="M1651.56,157.41c10.47,8.98,16.92,22.2,17.52,35.98,.02,.55,.88,.55,.86,0-.61-14-7.13-27.46-17.77-36.59-.42-.36-1.03,.25-.61,.61h0Z"/>
    <path class="cls-12" d="M1672.27,180.95c1.63,4.92,2.92,9.95,3.88,15.04,.1,.54,.93,.31,.83-.23-.96-5.1-2.25-10.12-3.88-15.04-.17-.52-1-.3-.83,.23h0Z"/>
    <path class="cls-12" d="M1690.73,201.59c4.53,16.72,5.89,34.19,4.03,51.41-.06,.55,.8,.54,.86,0,1.87-17.29,.48-34.85-4.06-51.64-.14-.53-.97-.31-.83,.23h0Z"/>
    <path class="cls-12" d="M1699.43,224.21c2.72,11.51,2.42,23.58-.86,34.95-.15,.53,.67,.76,.83,.23,3.32-11.51,3.61-23.75,.86-35.41-.13-.54-.95-.31-.83,.23h0Z"/>
    <path class="cls-12" d="M1470.58,371.01c1.22,10.21,2.06,20.46,2.52,30.73,.02,.55,.88,.55,.86,0-.46-10.27-1.3-20.52-2.52-30.73-.06-.54-.92-.55-.86,0h0Z"/>
    <path class="cls-12" d="M1778.39,267.64c3.32,6.95,4.54,14.74,3.54,22.38-.07,.55,.79,.54,.86,0,1.02-7.79-.27-15.72-3.65-22.81-.24-.5-.98-.06-.74,.43h0Z"/>
    <path class="cls-12" d="M1779.03,259.6c3.84,4.62,6.37,10.2,7.36,16.13,.09,.54,.92,.31,.83-.23-1.02-6.07-3.65-11.77-7.58-16.5-.35-.42-.96,.18-.61,.61h0Z"/>
    <path class="cls-12" d="M1749.85,268.92c-1.42-.07-2.57-1.14-3.98-1.24-1.31-.09-2.2,1.1-1.91,2.35,.36,1.49,1.8,2.48,3.06,3.17,1.47,.81,3.09,1.31,4.75,1.51,1.92,.24,3.89,.04,5.72-.59,.52-.18,.3-1-.23-.83-3.47,1.18-7.4,.73-10.49-1.25-.74-.47-1.48-1.04-1.85-1.87-.32-.72-.1-1.64,.82-1.64,.69,0,1.39,.4,2,.66,.68,.29,1.36,.55,2.11,.58,.55,.03,.55-.83,0-.86h0Z"/>
    <path class="cls-12" d="M1755.08,265.46c-.73-1.03-.93-2.32-.62-3.54,.15-.6,.42-1.18,.8-1.67,.32-.41,1.18-1.34,1.77-1.07s.73,1.42,.87,1.94c.26,.91,.49,1.82,.69,2.74,.39,1.81,.67,3.64,.84,5.48,.05,.54,.91,.55,.86,0-.16-1.75-.41-3.49-.76-5.21-.18-.86-.38-1.71-.61-2.56-.2-.76-.38-1.57-.72-2.27-.24-.49-.63-.93-1.2-1-.67-.08-1.3,.34-1.78,.76-.89,.76-1.47,1.88-1.67,3.04-.22,1.32,.01,2.7,.79,3.81,.31,.45,1.06,.02,.74-.43h0Z"/>
    <path class="cls-12" d="M1733.36,56.01c4.85,19.14,8.22,38.63,10.07,58.28,.05,.54,.91,.55,.86,0-1.86-19.73-5.23-39.3-10.1-58.51-.14-.53-.96-.31-.83,.23h0Z"/>
    <path class="cls-12" d="M1737.28,47.99c2.57,8.35,5.14,16.7,7.72,25.04,.16,.53,.99,.3,.83-.23-2.57-8.35-5.14-16.7-7.72-25.04-.16-.53-.99-.3-.83,.23h0Z"/>
    <path class="cls-12" d="M1753.49,41.64c7.88,7.32,9.75,19.97,4.3,29.25-.28,.48,.46,.91,.74,.43,5.64-9.59,3.73-22.71-4.43-30.29-.4-.37-1.01,.23-.61,.61h0Z"/>
    <path class="cls-12" d="M1762.25,47.91c3.89,7.55,3.92,16.73,.08,24.3-.25,.49,.49,.93,.74,.43,3.99-7.85,3.96-17.34-.08-25.17-.25-.49-.99-.06-.74,.43h0Z"/>
    <path class="cls-12" d="M1745.24,39.39c5.01,3.08,8.42,8.35,9.22,14.17,.07,.54,.9,.31,.83-.23-.83-6.03-4.43-11.5-9.61-14.68-.47-.29-.9,.45-.43,.74h0Z"/>
    <path class="cls-12" d="M1718.17,59.82c-1.44-.78-3.17-.53-4.51,.33-1.51,.96-2.41,2.59-3.08,4.2-.43,1.01-1.21,2.8-.09,3.67,.69,.54,1.49,.12,2.13-.26,.95-.57,1.91-1.14,2.86-1.71,2.16-1.29,4.32-2.58,6.48-3.87,.47-.28,.04-1.02-.43-.74-1.97,1.17-3.94,2.35-5.91,3.52-.95,.57-1.91,1.14-2.86,1.71-.38,.23-.99,.76-1.46,.75-.41,0-.49-.38-.5-.72-.03-.79,.36-1.57,.67-2.27,.38-.86,.82-1.72,1.42-2.45,1.14-1.38,3.14-2.37,4.86-1.43,.48,.26,.92-.48,.43-.74h0Z"/>
    <path class="cls-13" d="M1515,281.27c-.34,1.27-.68,2.61-.4,3.92,.22,1.03,.91,1.95,1.88,2.38,.91,.41,1.98,.29,2.68-.46,.62-.66,.74-1.6,.74-2.47,0-1.06-.19-2.16,0-3.21,.06-.3-.12-.51-.41-.54-1.91-.21-3.38,2.22-2.39,3.83,.29,.47,1.03,.04,.74-.43-.68-1.1,.39-2.68,1.65-2.54l-.41-.54c-.16,.84-.11,1.7-.06,2.55,.04,.75,.12,1.58-.17,2.29-.26,.64-.92,1.02-1.6,.88-.8-.16-1.48-.84-1.72-1.6-.4-1.26-.03-2.6,.31-3.83,.14-.53-.68-.76-.83-.23h0Z"/>
    <path class="cls-13" d="M1568.87,319.94c9.61,7.08,23.29,7.65,33.47,1.43,.47-.29,.04-1.03-.43-.74-9.95,6.08-23.22,5.48-32.6-1.43-.44-.33-.87,.42-.43,.74h0Z"/>
    <path class="cls-13" d="M1598.18,327.4c2.49-1.3,4.97-2.6,7.46-3.9,.49-.26,.06-1-.43-.74l-7.46,3.9c-.49,.26-.06,1,.43,.74h0Z"/>
    <path class="cls-13" d="M1610.94,286.81c-1.24,9.12-3.27,18.12-6.06,26.89-.17,.53,.66,.75,.83,.23,2.79-8.77,4.82-17.77,6.06-26.89,.07-.54-.75-.77-.83-.23h0Z"/>
    <path class="cls-13" d="M1589.8,333.64c7.34,.45,14.53,2.15,21.31,4.99,.51,.21,.73-.62,.23-.83-6.85-2.87-14.13-4.56-21.54-5.02-.55-.03-.55,.82,0,.86h0Z"/>
    <path class="cls-13" d="M1616.81,342.61c1.72-.03,3.44,.54,4.78,1.62,.18,.15,.43,.18,.61,0,.15-.15,.18-.46,0-.61-1.52-1.23-3.42-1.91-5.38-1.87-.55,0-.55,.87,0,.86h0Z"/>
    <path class="cls-13" d="M1620.95,339.42c6.9,4.29,14.35,7.62,22.14,9.9,.53,.16,.76-.67,.23-.83-7.73-2.26-15.1-5.56-21.94-9.81-.47-.29-.9,.45-.43,.74h0Z"/>
    <path class="cls-13" d="M1647.57,353.92c3.59-.21,7.01-1.59,9.74-3.92,.42-.36-.19-.96-.61-.61-2.55,2.18-5.79,3.47-9.14,3.67-.55,.03-.55,.89,0,.86h0Z"/>
    <path class="cls-13" d="M1512.5,297.35c-5.25,2.8-9.1,7.96-10.27,13.8-.11,.54,.72,.77,.83,.23,1.13-5.64,4.8-10.58,9.87-13.28,.49-.26,.05-1-.43-.74h0Z"/>
    <path class="cls-13" d="M1511.67,301.62c-2.02,2.31-3.73,4.88-5.07,7.64-.24,.49,.5,.93,.74,.43,1.3-2.7,2.96-5.22,4.93-7.47,.36-.41-.24-1.02-.61-.61h0Z"/>
    <path class="cls-13" d="M1521.15,294.79c4.34-3.68,11.05-3.81,15.58-.4,.44,.33,.87-.41,.43-.74-4.85-3.65-12-3.38-16.62,.53-.42,.36,.19,.96,.61,.61h0Z"/>
    <path class="cls-13" d="M1541.75,298.21c4.76,2.98,9.17,6.48,13.17,10.42,.39,.39,1-.22,.61-.61-4.05-3.99-8.52-7.54-13.34-10.56-.47-.29-.9,.45-.43,.74h0Z"/>
    <path class="cls-13" d="M1594.24,254.2c3.84,8.35,8.39,17.66,17.27,21.59,.5,.22,.94-.52,.43-.74-8.75-3.87-13.17-13.06-16.96-21.28-.23-.5-.97-.07-.74,.43h0Z"/>
    <path class="cls-13" d="M1609.61,271.73l4.45,2.4c.49,.26,.92-.48,.43-.74l-4.45-2.4c-.49-.26-.92,.48-.43,.74h0Z"/>
    <path class="cls-13" d="M1567.15,468.24c-.21-7.12-.42-14.78,2.83-21.33,1.7-3.42,4.38-6.08,7.07-8.72,3.02-2.97,6.04-5.94,9.05-8.9,2.84-2.79,5.6-5.85,8.95-8.04s7.46-3.16,11.37-4.18c8.22-2.14,16.43-4.29,24.65-6.43,9.34-2.44,18.69-4.88,28.03-7.32,.53-.14,.31-.97-.23-.83-17.16,4.48-34.32,8.96-51.47,13.43-3.8,.99-7.76,1.82-11.25,3.67s-6.14,4.65-8.87,7.33c-3.2,3.14-6.39,6.28-9.59,9.43-2.7,2.66-5.58,5.26-7.57,8.52-4.23,6.94-4.06,15.51-3.83,23.35,.02,.55,.87,.55,.86,0h0Z"/>
    <path class="cls-13" d="M1574.94,416.72l14.38-5.79c.51-.2,.28-1.03-.23-.83l-14.38,5.79c-.51,.2-.28,1.03,.23,.83h0Z"/>
    <path class="cls-13" d="M1596.3,409.59c5-2.37,10.25-4.19,15.64-5.43,.54-.12,.31-.95-.23-.83-5.47,1.27-10.77,3.12-15.84,5.52-.5,.24-.06,.97,.43,.74h0Z"/>
    <path class="cls-13" d="M1381.41,670.28c3.69-.79,7.65,.58,10.09,3.45,.36,.42,.96-.19,.61-.61-2.64-3.1-6.95-4.53-10.92-3.67-.54,.12-.31,.94,.23,.83h0Z"/>
    <path class="cls-13" d="M1558.66,618.34c2.49-17.16,10.85-33.29,23.3-45.35,3.56-3.44,7.44-6.53,11.58-9.23,.46-.3,.03-1.04-.43-.74-14.7,9.56-25.94,24.07-31.73,40.6-1.65,4.71-2.83,9.56-3.55,14.49-.08,.54,.75,.77,.83,.23h0Z"/>
    <path class="cls-13" d="M1588.52,570.53c8.25-8.28,19.39-13.37,31.05-14.16,.55-.04,.55-.89,0-.86-11.89,.8-23.25,5.96-31.66,14.41-.39,.39,.22,1,.61,.61h0Z"/>
    <path class="cls-13" d="M1666.9,553c1.57-.95,3.3-1.57,5.11-1.85,.23-.04,.36-.32,.3-.53-.07-.24-.3-.34-.53-.3-1.88,.29-3.69,.96-5.32,1.94-.47,.28-.04,1.03,.43,.74h0Z"/>
    <path class="cls-13" d="M1666.94,557.63c5.57-4.83,13.34-6.72,20.51-5.02,.54,.13,.77-.7,.23-.83-7.48-1.77-15.54,.21-21.35,5.24-.42,.36,.19,.97,.61,.61h0Z"/>
    <path class="cls-13" d="M1702.4,571.25c3.92,11.46,2.71,24.34-3.29,34.87-.27,.48,.47,.91,.74,.43,6.11-10.71,7.37-23.85,3.38-35.53-.18-.52-1.01-.3-.83,.23h0Z"/>
    <path class="cls-13" d="M1707.76,588.36c1.16,8.37-2.13,17.01-8.5,22.54-.42,.36,.19,.97,.61,.61,6.61-5.75,9.92-14.71,8.72-23.37-.08-.54-.9-.31-.83,.23h0Z"/>
    <path class="cls-13" d="M1675.44,578.22c8.83,6.5,14.17,17.16,14.14,28.11,0,.55,.86,.55,.86,0,.03-11.28-5.48-22.17-14.56-28.85-.44-.33-.87,.42-.43,.74h0Z"/>
    <path class="cls-3" d="M1320.88,692.24c1.98,7.22,21.9,7.72,30.37,7.22,13.34-.77,23.66-5.46,29.7-8.83,12.03,4.76,31.29,10.58,55.39,10.43,15.92-.1,29.33-2.78,39.33-5.62,10.8,3.38,20.24,.44,22.48-4.82,2.92-6.85-7.1-16.03-8.03-16.86-7.94-7.11-17.74-7.3-20.87-7.22-3.72-9.42-11.76-16-20.87-16.86-7.42-.7-13.13,2.62-15.25,4.01-2.24-2.37-13.72-14.05-30.5-13.65-18.04,.43-34.83,14.65-40.13,35.32-2.81-1.79-6.61-3.56-11.24-4.01-15.95-1.55-32.39,13.51-30.37,20.87Z"/>
    <path class="cls-13" d="M1378.32,665.17c4.48-10.02,14.56-17.24,25.54-18.1,11.07-.87,22.27,4.96,28.14,14.35,2.89,4.63,4.92,11,2.46,16.25s-8.54,6.54-13.87,6.28-11-1.6-16-3.61-11.21-5.87-12.74-11.52c-.97-3.6,1.32-6.9,4.55-8.36s7.4-1.25,10.98-.73c7,1.03,13.66,3.96,19.18,8.38,.43,.34,1.04-.26,.61-.61-5.31-4.25-11.61-7.18-18.32-8.39-5.62-1.02-13.22-1.48-16.84,3.93s1.55,11.54,5.91,14.67c5.02,3.6,11.23,5.33,17.23,6.43,5.28,.97,11.61,1.48,16.3-1.68,4.91-3.31,5.71-9.49,4.26-14.86-3.1-11.45-14.49-19.79-25.95-21.24-13.28-1.67-26.72,6.23-32.16,18.38-.22,.5,.51,.94,.74,.43h0Z"/>
    <path class="cls-13" d="M1436.05,663.22c4.76,5.63,5.79,13.95,2.54,20.58-.24,.49,.5,.93,.74,.43,3.43-6.99,2.35-15.67-2.68-21.62-.36-.42-.96,.19-.61,.61h0Z"/>
    <path class="cls-13" d="M1447.62,657.06c6.6,1.47,12.15,6.72,13.78,13.32s-1.08,14.32-6.59,18.63c-.43,.34,.18,.94,.61,.61,5.75-4.49,8.58-12.35,6.81-19.46s-7.5-12.39-14.38-13.92c-.54-.12-.77,.71-.23,.83h0Z"/>
    <path class="cls-13" d="M1465.17,674.73c2.28,4.01-.09,9.77-4.54,11.02-.53,.15-.31,.98,.23,.83,4.98-1.39,7.61-7.78,5.05-12.28-.27-.48-1.01-.05-.74,.43h0Z"/>
    <path class="cls-7" d="M69.08,573.11c-18.71-14.2-43.89-12.5-58,2-10.97,11.27-14.11,29.08-8,44,7.01,17.13,23.31,23.07,26,24-6.01,3.83-19.17,13.18-18,23,1.79,14.96,35.65,20.98,47,23,14.34,2.55,38.74,4.66,70-4,13.27,6.77,31.88,14.29,55,18,44.67,7.16,80.97-3.99,99-11,21.51-7.13,52.18-14.25,89-13,15.64,.53,29.74,2.48,42,5,13.24,7.52,35.6,17.88,65,21,45.36,4.81,80.37-10.52,95-18,12.71,3.93,31.31,8.13,54,8,24.82-.14,44.86-5.42,58-10,9.31,2.18,28.82,5.31,50-3,11.06-4.34,33.27-15.99,32-27-1.23-10.67-24.28-18.83-56-21,3.09-12.67,.52-19.37-2-23-11.58-16.69-53.09-13.29-104,10,13.82-9.55,19.15-24.55,15-33-4.9-9.97-25.37-15.57-44-3,13.73-28.49,13.43-56.37,0-68-16.51-14.3-47.71,.42-68,10-19.74,9.32-56.2,30.89-87,81-5.86-4.01-18.41-11.4-36-13-22.28-2.02-38.96,6.52-45,10-.8-16.84-10.96-31.7-26-38-17.14-7.18-37.63-1.99-50,13,3.75-11.22,8.37-30.24,5-53-1.09-7.37-10.06-67.98-54-78-30.47-6.95-66.96,12.89-84,50-7.55,1.08-21.7,4.25-35,15-26.26,21.22-26.97,53.98-27,59Z"/>
    <path class="cls-14" d="M1312.56,617.59c9.11-14.52,24.12-25.17,40.87-28.88s33.99,.24,47.66,10.22c7.59,5.54,13.82,12.87,17.84,21.38,.24,.5,.97,.06,.74-.43-7.26-15.37-21.65-26.74-37.92-31.27s-34.78-1.32-49.39,7.96c-8.26,5.25-15.33,12.29-20.54,20.59-.29,.47,.45,.9,.74,.43h0Z"/>
    <path class="cls-14" d="M1403.65,613.04c3.17,4.29,5.48,9.15,6.79,14.33,.13,.53,.96,.31,.83-.23-1.32-5.24-3.66-10.19-6.87-14.54-.32-.44-1.07-.01-.74,.43h0Z"/>
    <path class="cls-14" d="M1280.57,644.85c9.3-8.52,21.38-13.56,33.83-15.2,12.5-1.64,26.43,.04,36.03,8.92,4.75,4.4,8.16,10.27,8.86,16.77,.06,.54,.92,.55,.86,0-1.31-12.14-11.13-21.36-22.35-24.94-12.68-4.05-27.28-2.3-39.5,2.51-6.73,2.65-12.98,6.44-18.32,11.33-.41,.37,.2,.98,.61,.61h0Z"/>
    <path class="cls-14" d="M1336.5,664.47c-5.46,5.45-12.81,8.89-20.51,9.49s-15.09-1.62-21.23-5.97c-1.59-1.13-3.08-2.41-4.44-3.81s-2.84-2.91-3.31-4.78c-.95-3.71,2.26-7.61,5.01-9.69s5.83-3.29,9.02-4.21c3.61-1.04,7.41-1.8,11.16-2.01,4.36-.25,9.04,.42,12.41,3.42,2.96,2.63,4.78,6.7,3.39,10.6-.19,.52,.64,.74,.83,.23,1.19-3.35,.18-6.92-1.96-9.66-2.42-3.1-5.97-4.76-9.81-5.28-4.25-.58-8.61,.12-12.77,1.01-3.59,.77-7.17,1.86-10.38,3.66s-5.73,4.18-7.15,7.43c-.8,1.83-1.07,3.78-.25,5.65,.76,1.73,2.16,3.2,3.48,4.53,5.73,5.77,13.64,9.34,21.76,9.8,9.36,.52,18.73-3.18,25.34-9.79,.39-.39-.22-1-.61-.61h0Z"/>
    <path class="cls-14" d="M1219.46,636.71c3.52-7.74,11.88-12.04,20.16-12.21,9.17-.19,17.34,5.03,22.6,12.3,3.06,4.24,5.19,9.09,6.37,14.18,.13,.54,.95,.31,.83-.23-2.17-9.31-7.6-18.2-15.87-23.25-7.59-4.64-17.13-5.13-25.1-1.1-4.23,2.14-7.75,5.54-9.72,9.87-.23,.5,.51,.93,.74,.43h0Z"/>
    <path class="cls-14" d="M1254.34,643.51c2.8,3.58,4.39,8.02,4.52,12.57,.02,.55,.87,.55,.86,0-.14-4.79-1.83-9.4-4.77-13.17-.34-.43-.94,.18-.61,.61h0Z"/>
    <path class="cls-14" d="M1281.55,632.8c1.94-2.76,4.21-5.27,6.75-7.49,.42-.36-.19-.97-.61-.61-2.6,2.27-4.91,4.84-6.89,7.66-.32,.45,.43,.88,.74,.43h0Z"/>
    <path class="cls-14" d="M1153.3,657.8c13.98-16.25,41.36-19,57.1-3.72,4.51,4.38,7.76,10.06,8.47,16.36,.06,.54,.92,.55,.86,0-1.27-11.41-10.25-20.51-20.6-24.6-10.08-3.98-21.69-3.51-31.62,.68-5.67,2.39-10.78,6.01-14.8,10.68-.36,.42,.25,1.02,.61,.61h0Z"/>
    <path class="cls-14" d="M1205.27,662.58c2.35,.74,4.41,2.29,5.77,4.35,.3,.46,1.05,.03,.74-.43-1.49-2.25-3.71-3.93-6.28-4.74-.53-.17-.75,.66-.23,.83h0Z"/>
    <path class="cls-14" d="M1447.36,627.59c4.65-11.41,12.75-21.45,23.27-27.94,11.24-6.94,25.18-9.6,38.12-6.67,6.21,1.4,13.01,4.56,15.41,10.91,.19,.51,1.02,.29,.83-.23-2.06-5.44-7.15-8.71-12.46-10.51-6.41-2.18-13.51-2.63-20.21-1.87-13.31,1.5-25.56,8.07-34.5,17.99-4.8,5.32-8.59,11.47-11.29,18.1-.21,.51,.62,.73,.83,.23h0Z"/>
    <path class="cls-14" d="M1510.04,603.63c3.46,.05,6.78,2.29,8.07,5.52,.2,.51,1.03,.29,.83-.23-1.43-3.59-5.02-6.09-8.89-6.15-.55,0-.55,.85,0,.86h0Z"/>
    <path class="cls-14" d="M1708.2,526.85c5.86-5.03,14.09-5.72,21.44-4.52,7.15,1.16,14.04,3.95,20.12,7.86,12.78,8.22,21.62,21.43,24.2,36.43,1.53,8.92,.85,18.16-2.03,26.75-.18,.52,.65,.75,.83,.23,5.19-15.5,3.21-33.19-5.53-47.05-7.95-12.6-21.2-21.85-35.84-24.76-8.09-1.61-17.28-1.13-23.8,4.47-.42,.36,.19,.96,.61,.61h0Z"/>
    <path class="cls-14" d="M1758.32,568.45c4.25,4.47,5.65,11.2,3.59,17.01-.18,.52,.64,.74,.83,.23,2.16-6.09,.63-13.16-3.82-17.84-.38-.4-.99,.21-.61,.61h0Z"/>
    <path class="cls-14" d="M1778.01,513.34c3.82-3.17,9.04-4.42,13.87-3.33,.54,.12,.77-.71,.23-.83-5.16-1.16-10.65,.17-14.71,3.55-.42,.35,.18,.96,.61,.61h0Z"/>
    <path class="cls-14" d="M1820.03,508.46c16.23-12.66,39.75-15.16,58.22-6,5.07,2.51,10.61,6.58,11.1,12.7,.04,.55,.9,.55,.86,0-.4-5.12-4.11-8.94-8.24-11.59-4.48-2.87-9.69-4.78-14.85-5.97-10.48-2.43-21.65-1.82-31.82,1.67-5.73,1.97-11.09,4.86-15.87,8.59-.43,.34,.18,.94,.61,.61h0Z"/>
    <path class="cls-14" d="M1860.1,513.73c6.72,.83,12.66,5.96,14.34,12.54s-1.24,14.17-6.91,18.06c-.45,.31-.02,1.05,.43,.74,6-4.11,9.12-11.93,7.31-19.03s-8.07-12.29-15.16-13.17c-.55-.07-.54,.79,0,.86h0Z"/>
    <path class="cls-14" d="M1822.21,552.75c15.72-3.31,33.18,.88,44.19,12.99,10.35,11.39,13.84,28.23,6.58,42.16-3.8,7.29-10.11,13.25-17.89,16.06-.51,.19-.29,1.01,.23,.83,14.23-5.14,23.4-20.2,22.39-35.16-1.11-16.31-12.66-30.3-27.79-35.86-8.9-3.27-18.68-3.79-27.93-1.84-.54,.11-.31,.94,.23,.83h0Z"/>
    <path class="cls-14" d="M1863.94,594.82c1.72,7.06-2.06,14.23-7.4,18.71-5.92,4.96-13.59,7.15-20.87,9.25-.53,.15-.3,.98,.23,.83,7.65-2.21,15.76-4.55,21.83-9.97,5.25-4.7,8.77-11.94,7.05-19.04-.13-.54-.96-.31-.83,.23h0Z"/>
    <path class="cls-14" d="M1796.7,571.79c8.13-3.59,17.31-7.46,26.22-4.25,3.84,1.39,7.12,4.16,8.49,8.08,1.25,3.58,.93,7.73-1.65,10.65-.36,.41,.24,1.02,.61,.61,4.09-4.64,3.08-12.05-1.08-16.31-4.97-5.1-12.76-5.84-19.4-4.44-4.74,1-9.21,2.97-13.62,4.92-.5,.22-.07,.96,.43,.74h0Z"/>
    <path class="cls-14" d="M1909.92,586.66c3.9-6.63,11.01-10.46,18.21-12.5,7.95-2.25,16.64-2.6,24.53,.09,14.24,4.85,23.36,20.23,20.41,35.04-1.64,8.23-6.57,15.7-13.61,20.3-.46,.3-.03,1.04,.43,.74,12.97-8.47,18.19-25.65,11.74-39.78-3.12-6.84-8.63-12.64-15.48-15.82-7.81-3.63-16.79-3.97-25.12-2.18s-17.3,5.9-21.86,13.67c-.28,.48,.46,.91,.74,.43h0Z"/>
    <path class="cls-14" d="M1958.26,620.45c.12,2.29-.4,4.57-1.5,6.59-.26,.48,.47,.92,.74,.43,1.17-2.14,1.74-4.58,1.62-7.02-.03-.55-.88-.55-.86,0h0Z"/>
    <path class="cls-14" d="M1875.82,643.32c.76-10.12,4.43-19.9,10.31-28.16,5.97-8.38,14.61-15.85,24.52-19.07,5.37-1.74,11.18-1.86,16.29,.73,4.33,2.19,7.75,5.87,10.23,9.99,5.64,9.39,6.92,21.58,3.78,32.03-3.36,11.14-12.49,20.41-24.11,22.59-.54,.1-.31,.93,.23,.83,10.34-1.94,19.02-9.53,23.19-19.07,4.53-10.37,4.21-22.95-.46-33.22-4.26-9.36-12.81-17.03-23.67-15.93-5.92,.6-11.49,3.3-16.37,6.6-4.31,2.91-8.19,6.43-11.53,10.42-7.61,9.08-12.37,20.44-13.27,32.27-.04,.55,.82,.55,.86,0h0Z"/>
    <path class="cls-14" d="M1925.93,638.62c-3.61,9.79-13.7,16.52-24.12,16.17-.55-.02-.55,.84,0,.86,10.82,.37,21.21-6.65,24.95-16.8,.19-.52-.64-.74-.83-.23h0Z"/>
    <path class="cls-14" d="M1965.47,642.24c2.48-.02,5.12,.06,7.4,1.17s3.63,3.06,4.2,5.42c1.27,5.28-1.72,10.21-4.39,14.51-.29,.47,.45,.9,.74,.43,2.9-4.67,6.06-10.09,4.31-15.78-.71-2.31-2.23-4.26-4.43-5.33-2.42-1.18-5.19-1.3-7.83-1.28-.55,0-.55,.86,0,.86h0Z"/>
  </g>
</svg>