<?xml version="1.0" encoding="UTF-8"?>
<svg id="_Слой_2" data-name="Слой 2" xmlns="http://www.w3.org/2000/svg" xmlns:xlink="http://www.w3.org/1999/xlink" viewBox="0 0 1663.85 611.31">
  <defs>
    <style>
      .cls-1 {
        opacity: .27;
      }

      .cls-1, .cls-2, .cls-3, .cls-4, .cls-5, .cls-6, .cls-7 {
        fill: #3f3d56;
      }

      .cls-8 {
        opacity: .69;
      }

      .cls-9, .cls-10, .cls-11, .cls-12, .cls-13, .cls-14, .cls-15 {
        fill: none;
      }

      .cls-9, .cls-10, .cls-11, .cls-12, .cls-13, .cls-15 {
        stroke-miterlimit: 10;
      }

      .cls-9, .cls-13 {
        stroke: #937e27;
      }

      .cls-10 {
        stroke-width: .5px;
      }

      .cls-10, .cls-11, .cls-12 {
        stroke: #111010;
        stroke-linecap: round;
      }

      .cls-16 {
        fill: #353544;
      }

      .cls-17 {
        fill: gray;
      }

      .cls-17, .cls-5 {
        opacity: .51;
      }

      .cls-18, .cls-19 {
        opacity: .47;
      }

      .cls-18, .cls-20 {
        fill: #ffeb62;
      }

      .cls-21 {
        opacity: .63;
      }

      .cls-22 {
        fill: #817636;
      }

      .cls-23 {
        fill: #222228;
      }

      .cls-11 {
        stroke-width: .75px;
      }

      .cls-3 {
        opacity: .49;
      }

      .cls-24 {
        fill: #4d4c63;
      }

      .cls-13 {
        stroke-width: 3px;
      }

      .cls-4 {
        opacity: .31;
      }

      .cls-25 {
        clip-path: url(#clippath);
      }

      .cls-26 {
        fill: #6a6a7f;
      }

      .cls-27 {
        opacity: .41;
      }

      .cls-6 {
        opacity: .72;
      }

      .cls-28 {
        fill: #5b5b75;
      }

      .cls-29 {
        fill: #111010;
      }

      .cls-7 {
        opacity: .38;
      }

      .cls-15 {
        stroke: #8e7b1c;
      }

      .cls-30 {
        fill: #666;
      }
    </style>
    <clipPath id="clippath">
      <path class="cls-14" d="M565.56,229.61c-34.52,0-62.5,27.98-62.5,62.5s27.98,62.5,62.5,62.5,62.5-27.98,62.5-62.5-27.98-62.5-62.5-62.5Zm0,103c-23.2,0-42-18.8-42-42s18.8-42,42-42,42,18.8,42,42-18.8,42-42,42Z"/>
    </clipPath>
  </defs>
  <g id="_Слой_2-2" data-name="Слой 2">
    <circle class="cls-13" cx="1062" cy="249.4" r="247.9"/>
    <circle class="cls-9" cx="1062" cy="249.4" r="233.95"/>
    <path class="cls-23" d="M225.81,517.61c-8.55-17.19-3.95-36.8,9-46,13.63-9.68,30.49-3.57,32-3-2.79-8.95-13.25-46.06,6-84,20.17-39.76,63.31-61.45,102-60,14.08,.53,25.49,4.04,33,7,9.48-9.82,19.03-16,27-20,51.8-25.98,109.2,4.2,118,9,2.39-3.96,10.7-16.59,27-22,25.64-8.5,47.42,8.71,49,10,3.65-15.05,15.46-23.03,24-21,6.77,1.61,10.24,9.22,11,11,29.25-50.42,83.88-73.4,128-59,38.37,12.52,55.46,48.97,59,57,.75-1.91,7.33-17.85,25-23,19.59-5.71,34.91,7.06,36,8,6.82-72.48,66.19-128.89,137-132,67.34-2.96,129.04,42.99,146,110,9.73-3.22,33.51-9.61,62-2,38.31,10.23,58.11,38.54,63,46,.74-1.91,6.65-16.36,22-21,13.44-4.06,28.63,1.06,38,13,5.63-10.71,19.01-32.39,45-46,20.97-10.98,65.53-24.78,87-1,14.99,16.61,10.55,42.51,9,50,4.98-1.32,21.8-5.12,37,4,13.76,8.26,18.24,22.33,21,31,14.54,45.69-14.02,100.27-21,113-.33,22.33-.67,44.67-1,67-394.34,25.96-787.67,29.96-1180,12-50.35-2.31-100.69-4.97-151-8Z"/>
    <circle class="cls-6" cx="216.81" cy="296.61" r="63"/>
    <path class="cls-23" d="M467.31,394.52c-6.12,2.41-15.43,5.13-26.91,4.96-17.26-.25-30.25-6.91-36.78-10.91-5.64,17.87-19.45,30.9-35.88,33.73-21.6,3.73-36.84-12.04-38.57-13.89-1.31,3.58-5.62,14.08-16.15,20.84-2.31,1.49-17.4,10.8-28.7,3.97-11.44-6.91-8.81-24.2-21.53-30.76-4.56-2.35-9.05-2.26-11.66-1.98-1.35,6.17-4.54,16.09-12.56,23.81-16.18,15.59-38.66,9.39-43.95,7.94-11.55-3.18-19.7-9.65-24.22-13.89-.39,.92-5.37,12.16-16.15,13.89-9.43,1.52-19.24-4.9-23.32-15.87-4.27,2.96-9.98,6.08-17.04,7.94-21.27,5.59-39.16-4.41-44.85-7.94-3.65,.47-7.55,.82-11.66,.99-8.27,.34-15.8-.14-22.42-.99,.92-3.05,2.9-8.2,7.18-12.9,2.46-2.7,8.82-9.67,17.94-8.93,10.84,.88,16.56,11.93,17.04,12.9,2.3-1.61,6.28-3.95,11.66-4.96,6.4-1.2,11.61,.09,14.35,.99-1.54-2.79-4.23-8.64-3.59-15.87,1.46-16.41,18.62-23.38,19.73-23.81,10.72-4.15,20.27-.38,23.32,.99-2.27-3.35-8.68-13.74-7.18-26.79,2.17-18.74,19.62-33.79,37.67-32.74,14.7,.85,27.89,12.26,33.19,28.77,7.19-15.34,21.15-25.06,35.88-24.8,18.27,.31,34.79,15.9,38.57,37.7,2.96-15.76,14.79-23.5,22.42-20.84,5.12,1.79,8.73,8.4,9.87,15.87,5.65-4.5,12.78-4.68,17.04-.99,5.7,4.93,6.55,17-.9,24.8,.07,.53,1.13,7.4,6.28,9.92,5.01,2.45,11.86-.2,15.25-6.95,.39-1,7.71-19.05,25.11-21.83,13.13-2.09,26.44,5.4,33.19,18.85,6.72-13.06,11.37-15.26,14.35-14.88,3.83,.49,5.56,5.35,12.56,14.88,4.48,6.11,8.65,10.75,11.66,13.89,4.63-2.91,12.36-6.89,22.42-7.94,7.37-.77,20.51-.44,21.53,3.97,.49,2.14-1.43,7.1-24.22,18.85Z"/>
    <polygon class="cls-16" points="1163.51 296.11 1083.81 291.35 1083.81 232.61 1162 239.54 1163.51 296.11"/>
    <polygon class="cls-28" points="1169.81 241.61 1083.81 232.35 1083.81 199.61 1169.81 211.61 1169.81 241.61"/>
    <polygon class="cls-24" points="1083.81 291.61 972.81 291.61 972.81 236.61 1083.81 232.61 1083.81 291.61"/>
    <polygon class="cls-26" points="1083.81 232.61 965.81 237.61 965.81 205.91 1083.81 199.61 1083.81 232.61"/>
    <g>
      <path class="cls-16" d="M1085.48,290.81l116.58,6.43c.64,1.41,1.3,2.81,2.08,4.08l.26,21.94-121.17-6.02-.08-22.66c.81-1.22,1.58-2.49,2.34-3.78Z"/>
      <path class="cls-16" d="M1072.84,316.73l141.68,7.04c.6,1.51,1.34,2.91,2.22,4.16l.27,21.89-146.71-6.48-.06-22.27c.92-1.39,1.75-2.86,2.6-4.33Z"/>
      <path class="cls-16" d="M1062.59,342.99l166.85,7.37c.03,.09,.05,.18,.09,.28,.56,1.43,1.22,2.78,1.94,4.07l.29,21.69-172.18-6.66-.05-22.23c1.18-1.3,2.13-2.9,3.05-4.52Z"/>
      <path class="cls-16" d="M1052.8,369.48l194.97,7.54c.05,.08,.1,.16,.15,.24,.04,.06,.08,.1,.12,.16,.82,1.28,1.64,2.56,2.41,3.89l.38,25.61-201.26-6.51-.04-26.5c1.19-1.34,2.29-2.82,3.27-4.42Z"/>
      <path class="cls-16" d="M1043.49,400.2l223.31,7.22c.82,1.37,1.7,2.68,2.61,3.95l.46,28.81-229.61-5.82-.03-29.63c1.14-1.45,2.24-2.95,3.26-4.54Z"/>
      <path class="cls-16" d="M1032.48,434.26s.05-.06,.08-.1l258.63,6.55c.85,1.51,1.76,2.96,2.74,4.31,.01,.01,.02,.02,.03,.04l.6,34.15-265.29-4.53v-36.31c1.09-1.34,2.13-2.75,3.2-4.12Z"/>
      <path class="cls-16" d="M1022.07,474.42c.37-.51,.77-1.13,1.07-1.79,.02-.03,.03-.06,.05-.09l288.74,5.05c.98,1.65,1.96,3.31,3.05,4.8l.67,35.62-295.86-2.59,.02-37.98c.77-.97,1.51-1.99,2.25-3.02Z"/>
      <path class="cls-24" d="M1032.48,434.26s.05-.06,.08-.1l258.63,6.55c.77,1.35,1.58,2.66,2.45,3.89l-264.17-6.48c1.02-1.27,2-2.59,3.01-3.88Z"/>
      <path class="cls-24" d="M1043.49,400.2l223.31,7.22c.82,1.36,1.68,2.66,2.58,3.92l-228.68-7.2c.97-1.26,1.91-2.56,2.79-3.93Z"/>
      <path class="cls-24" d="M1052.8,369.48l194.97,7.54c.05,.08,.1,.16,.15,.24,.04,.06,.08,.1,.12,.16,.75,1.16,1.49,2.34,2.2,3.54l-200.25-7.58c1.01-1.19,1.96-2.5,2.81-3.89Z"/>
      <path class="cls-24" d="M1062.59,342.99l166.85,7.37c.03,.09,.05,.18,.09,.28,.5,1.27,1.08,2.47,1.71,3.64l-171.14-7.42c.93-1.17,1.72-2.51,2.49-3.87Z"/>
      <path class="cls-24" d="M1072.84,316.73l141.68,7.04c.57,1.42,1.26,2.75,2.07,3.94l-146.02-7.13c.79-1.25,1.53-2.55,2.27-3.84Z"/>
      <path class="cls-24" d="M1085.48,290.81l116.58,6.43c.62,1.35,1.25,2.7,1.99,3.94l-120.91-6.57v-.02c.81-1.22,1.58-2.49,2.34-3.78Z"/>
      <path class="cls-24" d="M1022.07,474.42c.37-.51,.77-1.13,1.07-1.79,.02-.03,.03-.06,.05-.09l288.74,5.05c.88,1.47,1.74,2.96,2.7,4.32l-294.49-4.88c.66-.85,1.29-1.73,1.93-2.62Z"/>
      <path class="cls-16" d="M1010.35,517.25c.41-.52,.84-1.14,1.18-1.81,.02-.03,.04-.06,.06-.09l316.19,2.77c1.07,1.64,2.13,3.3,3.32,4.79l.71,35.69h-324s.05-38.29,.05-38.29c.85-.99,1.66-2.02,2.49-3.06Z"/>
      <path class="cls-24" d="M1010.35,517.25c.41-.52,.84-1.14,1.18-1.81,.02-.03,.04-.06,.06-.09l316.19,2.77c.95,1.46,1.89,2.95,2.93,4.31l-322.5-2.53c.73-.86,1.42-1.76,2.13-2.65Z"/>
    </g>
    <path class="cls-18" d="M1548.04,189.17c-3.33-.1-7.38-.49-11.9-1.49-3.89-.86-7.27-1.99-10.1-3.13-4.32-10.91-5.61-30.07-5.4-35.06-.16,5.09-.75,11.26-2.27,18.15-1.45,6.57-3.41,12.19-5.33,16.76-2.6,.99-5.62,1.95-9.04,2.71-4.51,1-8.56,1.38-11.9,1.49,3-.13,13.77,.57,21.06,2.86,1.88,4.52,3.78,10.03,5.2,16.45,1.52,6.89,2.11,13.06,2.27,18.15-.2-4.76,.97-22.43,4.83-33.52,7.21-2.7,19.36-3.52,22.57-3.38Z"/>
    <path class="cls-17" d="M1209.72,172.98c-1.82-.06-4.03-.27-6.49-.81-2.12-.47-3.96-1.08-5.5-1.7-2.35-5.95-3.06-16.39-2.94-19.11-.09,2.77-.41,6.14-1.24,9.89-.79,3.58-1.86,6.64-2.9,9.14-1.42,.54-3.07,1.06-4.93,1.48-2.46,.54-4.67,.75-6.49,.81,1.63-.07,7.51,.31,11.48,1.56,1.02,2.46,2.06,5.47,2.83,8.97,.83,3.75,1.15,7.12,1.24,9.89-.11-2.6,.53-12.23,2.63-18.27,3.93-1.47,10.55-1.92,12.3-1.84Z"/>
    <path class="cls-17" d="M1624.72,301.98c-1.82-.06-4.03-.27-6.49-.81-2.12-.47-3.96-1.08-5.5-1.7-2.35-5.95-3.06-16.39-2.94-19.11-.09,2.77-.41,6.14-1.24,9.89-.79,3.58-1.86,6.64-2.9,9.14-1.42,.54-3.07,1.06-4.93,1.48-2.46,.54-4.67,.75-6.49,.81,1.63-.07,7.51,.31,11.48,1.56,1.02,2.46,2.06,5.47,2.83,8.97,.83,3.75,1.15,7.12,1.24,9.89-.11-2.6,.53-12.23,2.63-18.27,3.93-1.47,10.55-1.92,12.3-1.84Z"/>
    <path class="cls-17" d="M780.81,166.02c-2.72-.08-6.02-.4-9.7-1.21-3.17-.7-5.92-1.62-8.23-2.55-3.52-8.89-4.58-24.51-4.4-28.58-.13,4.15-.61,9.18-1.85,14.79-1.19,5.36-2.78,9.93-4.34,13.66-2.12,.81-4.58,1.59-7.36,2.21-3.68,.81-6.98,1.13-9.7,1.21,2.44-.1,11.23,.47,17.17,2.33,1.53,3.68,3.08,8.17,4.24,13.41,1.24,5.61,1.72,10.65,1.85,14.79-.16-3.88,.79-18.29,3.93-27.32,5.88-2.2,15.78-2.87,18.4-2.76Z"/>
    <path class="cls-17" d="M909.81,172.88c-1.47-.05-3.25-.21-5.23-.65-1.71-.38-3.2-.87-4.44-1.37-1.9-4.8-2.47-13.22-2.37-15.41-.07,2.24-.33,4.95-1,7.98-.64,2.89-1.5,5.36-2.34,7.37-1.14,.44-2.47,.86-3.97,1.19-1.98,.44-3.77,.61-5.23,.65,1.32-.06,6.06,.25,9.26,1.26,.83,1.99,1.66,4.41,2.29,7.23,.67,3.03,.93,5.74,1,7.98-.09-2.09,.42-9.86,2.12-14.74,3.17-1.19,8.51-1.55,9.92-1.49Z"/>
    <path class="cls-17" d="M94.81,175.88c-1.47-.05-3.25-.21-5.23-.65-1.71-.38-3.2-.87-4.44-1.37-1.9-4.8-2.47-13.22-2.37-15.41-.07,2.24-.33,4.95-1,7.98-.64,2.89-1.5,5.36-2.34,7.37-1.14,.44-2.47,.86-3.97,1.19-1.98,.44-3.77,.61-5.23,.65,1.32-.06,6.06,.25,9.26,1.26,.83,1.99,1.66,4.41,2.29,7.23,.67,3.03,.93,5.74,1,7.98-.09-2.09,.42-9.86,2.12-14.74,3.17-1.19,8.51-1.55,9.92-1.49Z"/>
    <path class="cls-17" d="M106.81,467.88c-1.47-.05-3.25-.21-5.23-.65-1.71-.38-3.2-.87-4.44-1.37-1.9-4.8-2.47-13.22-2.37-15.41-.07,2.24-.33,4.95-1,7.98-.64,2.89-1.5,5.36-2.34,7.37-1.14,.44-2.47,.86-3.97,1.19-1.98,.44-3.77,.61-5.23,.65,1.32-.06,6.06,.25,9.26,1.26,.83,1.99,1.66,4.41,2.29,7.23,.67,3.03,.93,5.74,1,7.98-.09-2.09,.42-9.86,2.12-14.74,3.17-1.19,8.51-1.55,9.92-1.49Z"/>
    <path class="cls-17" d="M328.81,281.88c-1.47-.05-3.25-.21-5.23-.65-1.71-.38-3.2-.87-4.44-1.37-1.9-4.8-2.47-13.22-2.37-15.41-.07,2.24-.33,4.95-1,7.98-.64,2.89-1.5,5.36-2.34,7.37-1.14,.44-2.47,.86-3.97,1.19-1.98,.44-3.77,.61-5.23,.65,1.32-.06,6.06,.25,9.26,1.26,.83,1.99,1.66,4.41,2.29,7.23,.67,3.03,.93,5.74,1,7.98-.09-2.09,.42-9.86,2.12-14.74,3.17-1.19,8.51-1.55,9.92-1.49Z"/>
    <path class="cls-17" d="M288.81,132.36c-2.78-.09-6.15-.41-9.91-1.24-3.24-.72-6.05-1.66-8.41-2.6-3.6-9.09-4.68-25.05-4.5-29.21-.13,4.24-.62,9.38-1.89,15.12-1.21,5.47-2.84,10.15-4.44,13.96-2.17,.83-4.68,1.63-7.53,2.26-3.76,.83-7.13,1.15-9.91,1.24,2.5-.11,11.47,.48,17.55,2.39,1.56,3.76,3.15,8.35,4.33,13.7,1.27,5.74,1.76,10.88,1.89,15.12-.17-3.97,.8-18.69,4.02-27.92,6.01-2.25,16.13-2.93,18.8-2.82Z"/>
    <path class="cls-18" d="M120.81,321.36c-2.78-.09-6.15-.41-9.91-1.24-3.24-.72-6.05-1.66-8.41-2.6-3.6-9.09-4.68-25.05-4.5-29.21-.13,4.24-.62,9.38-1.89,15.12-1.21,5.47-2.84,10.15-4.44,13.96-2.17,.83-4.68,1.63-7.53,2.26-3.76,.83-7.13,1.15-9.91,1.24,2.5-.11,11.47,.48,17.55,2.39,1.56,3.76,3.15,8.35,4.33,13.7,1.27,5.74,1.76,10.88,1.89,15.12-.17-3.97,.8-18.69,4.02-27.92,6.01-2.25,16.13-2.93,18.8-2.82Z"/>
    <g>
      <path class="cls-15" d="M1056.68,46.33c0-12.91,0-25.82,0-38.73"/>
      <path class="cls-15" d="M1056.68,138.55V62.4"/>
      <g>
        <path class="cls-15" d="M1000.67,138.53c3.25,7.82,6.49,15.63,9.74,23.45l.58,1.4"/>
        <path class="cls-15" d="M978.67,84.82c5.22,12.07,10.3,24.2,14.84,36.48"/>
      </g>
      <path class="cls-15" d="M1021.34,93.15c7.32,28.49,13.41,58.08,21.33,86.08"/>
      <path class="cls-15" d="M1011,51.38c.61,8.98,5.48,17.43,6.45,26.02"/>
      <g>
        <path class="cls-15" d="M1123.65,136.42c-3.25,7.82-6.49,15.63-9.74,23.45l-.58,1.4"/>
        <path class="cls-15" d="M1145.66,82.71c-5.22,12.07-10.3,24.2-14.84,36.48"/>
      </g>
      <path class="cls-15" d="M1102.98,91.03c-7.32,28.49-13.41,58.08-21.33,86.08"/>
      <path class="cls-15" d="M1113.33,49.26c-.61,8.98-5.48,17.43-6.45,26.02"/>
      <g>
        <path class="cls-15" d="M1310.11,288.32h33.7"/>
        <path class="cls-15" d="M1203.79,288.32h87.8"/>
        <g>
          <path class="cls-15" d="M1203.81,239.75c-7.69,2.4-15.39,4.81-23.08,7.21"/>
          <path class="cls-15" d="M1265.73,220.66c-13.92,4.53-27.9,8.94-42.06,12.87"/>
        </g>
        <path class="cls-15" d="M1256.14,257.67c-24.41,5.58-49.18,9.26-73.82,13.62"/>
        <path class="cls-15" d="M1304.3,248.7c-10.36,.53-20.1,4.75-30.01,5.59"/>
        <path class="cls-15" d="M1268.17,365.49c-7.19-2.34-14.38-4.64-21.61-6.86"/>
        <path class="cls-15" d="M1258.57,328.48c-8.11-1.5-16.22-2.94-24.34-4.37"/>
        <path class="cls-15" d="M1306.74,337.45c-10.36-.53-20.1-4.75-30.01-5.59"/>
      </g>
      <g>
        <path class="cls-15" d="M799.92,280.01c-11.23,0-22.47,0-33.7,0"/>
        <path class="cls-15" d="M906.24,280.01c-29.24,0-58.48,0-87.8,0"/>
        <g>
          <path class="cls-15" d="M906.22,231.44c9.01,2.82,18.02,5.63,27.03,8.45l1.61,.5"/>
          <path class="cls-15" d="M844.3,212.36c13.92,4.53,27.9,8.94,42.06,12.87"/>
        </g>
        <path class="cls-15" d="M853.89,249.36c32.86,6.35,66.97,11.63,99.25,18.5"/>
        <path class="cls-15" d="M805.73,240.39c10.36,.53,20.1,4.75,30.01,5.59"/>
        <path class="cls-15" d="M841.86,357.18c13.92-4.53,27.9-8.94,42.06-12.87"/>
        <path class="cls-15" d="M851.45,320.17c12.81-2.47,25.65-4.76,38.5-7.04"/>
        <path class="cls-15" d="M803.29,329.14c10.36-.53,20.1-4.75,30.01-5.59"/>
      </g>
    </g>
    <path class="cls-24" d="M1084.72,290.61h-157.09c-.86,1.43-1.75,2.86-2.81,4.14v22.86h163v-23.02c-1.08-1.29-2.09-2.63-3.1-3.98Z"/>
    <path class="cls-24" d="M1101.41,317.61h-190.59c-.81,1.54-1.81,2.96-3,4.22v22.78h197v-22.49c-1.2-1.46-2.3-2.98-3.41-4.51Z"/>
    <path class="cls-24" d="M1114.84,344.61h-224.28c-.04,.09-.06,.19-.11,.28-.76,1.46-1.65,2.84-2.63,4.16v22.56h231v-22.32c-1.54-1.36-2.77-3.01-3.97-4.68Z"/>
    <path class="cls-24" d="M1127.59,371.61h-262.1c-.07,.08-.13,.16-.2,.24-.05,.06-.11,.1-.17,.16-1.13,1.3-2.24,2.61-3.3,3.96v26.64h270v-26.45c-1.54-1.38-2.96-2.91-4.23-4.55Z"/>
    <path class="cls-24" d="M1139.63,402.61h-300.23c-1.13,1.4-2.33,2.74-3.59,4.03v29.97h308v-29.39c-1.46-1.48-2.87-3-4.18-4.61Z"/>
    <path class="cls-24" d="M1153.73,436.7s-.07-.06-.1-.1h-347.98c-1.18,1.55-2.42,3.04-3.79,4.43-.01,.01-.03,.02-.05,.04v35.53h356v-35.76c-1.39-1.35-2.71-2.77-4.08-4.15Z"/>
    <path class="cls-24" d="M1166.97,476.47c-.47-.51-.97-1.12-1.36-1.77-.02-.03-.04-.06-.07-.09h-388.49c-1.36,1.7-2.71,3.41-4.24,4.95v37.05h397v-37.14c-.98-.97-1.91-1.98-2.85-3Z"/>
    <path class="cls-28" d="M1153.73,436.7s-.07-.06-.1-.1h-347.98c-1.06,1.39-2.18,2.73-3.39,4h355.3c-1.3-1.28-2.55-2.61-3.83-3.9Z"/>
    <path class="cls-28" d="M1139.63,402.61h-300.23c-1.12,1.39-2.31,2.72-3.56,4h307.36c-1.25-1.28-2.45-2.61-3.58-4Z"/>
    <path class="cls-28" d="M1127.59,371.61h-262.1c-.07,.08-.13,.16-.2,.24-.05,.06-.11,.1-.17,.16-1.03,1.18-2.04,2.38-3.02,3.6h269.12c-1.31-1.23-2.53-2.57-3.63-4Z"/>
    <path class="cls-28" d="M1114.84,344.61h-224.28c-.04,.09-.06,.19-.11,.28-.67,1.3-1.46,2.53-2.32,3.72h229.96c-1.21-1.21-2.24-2.6-3.24-4Z"/>
    <path class="cls-28" d="M1101.41,317.61h-190.59c-.76,1.45-1.7,2.8-2.8,4h196.37c-1.04-1.3-2-2.65-2.98-4Z"/>
    <path class="cls-28" d="M1084.72,290.61h-157.09c-.83,1.38-1.68,2.75-2.69,4h162.88v-.02c-1.08-1.29-2.09-2.63-3.1-3.98Z"/>
    <path class="cls-28" d="M1166.97,476.47c-.47-.51-.97-1.12-1.36-1.77-.02-.03-.04-.06-.07-.09h-388.49c-1.21,1.52-2.41,3.05-3.74,4.46h396.09c-.83-.84-1.63-1.72-2.44-2.6Z"/>
    <path class="cls-24" d="M1181.7,518.47c-.51-.51-1.06-1.12-1.48-1.77-.03-.03-.05-.06-.07-.09h-424.69c-1.49,1.7-2.96,3.41-4.63,4.95v37.05h434v-37.14c-1.07-.97-2.09-1.98-3.12-3Z"/>
    <path class="cls-28" d="M1181.7,518.47c-.51-.51-1.06-1.12-1.48-1.77-.03-.03-.05-.06-.07-.09h-424.69c-1.33,1.52-2.64,3.05-4.09,4.46h433.01c-.91-.84-1.78-1.72-2.67-2.6Z"/>
    <polygon class="cls-28" points="909.81 558.61 852.81 558.61 983.68 290.61 1021.81 290.61 909.81 558.61"/>
    <polygon class="cls-26" points="899.81 558.61 861.81 558.61 989.81 290.61 1015.81 290.61 899.81 558.61"/>
    <path class="cls-16" d="M1021.81,290.61s0,27-.45,26.96h-11c-.55,.04-.55,27.04-.44,27.03h-11c-.11,.02-.11,27.02-.45,26.88h-11c.34,2.13,.34,31.13-.06,31.01h-12c.4,.12,.4,33.12,.21,33.88h-15c.19-.76,.19,38.24,.61,38.05h-17c.59,.19,.59,42.19,.96,41.82h-19c31.88-75.21,63.75-150.42,95.63-225.64Z"/>
    <polygon class="cls-16" points="926.81 515.61 926.19 558.61 909.81 558.61 926.81 515.61"/>
    <polygon class="cls-16" points="1030.81 290.61 1009.81 290.61 1009.81 257.61 1030.81 256.61 1030.81 290.61"/>
    <path class="cls-30" d="M158.81,521.61c-.56-3.31-2.49-16.88,6-30,10.84-16.76,29.62-18.78,32-19-2.63-14.12-6.81-47.82,11-81,26.87-50.06,94.74-82.09,146-59,28.55,12.86,42.95,38.78,49,52,6.01,5.57,14.15,14.41,21,27,8,14.7,10.87,28.28,12,37,10.1-13.65,27.69-18.77,42-13,16.97,6.84,26.3,27.78,19,47,1.57-.07,12.09-.37,20,8,6.9,7.3,7.02,16.12,7,18,1.51-1.25,8.78-6.99,19-6,14.06,1.36,20.61,14.2,21,15,.87-.72,7-5.62,15-4,4.74,.96,7.77,3.73,9,5,.29-1.03,1.63-5.27,6-8,3.93-2.45,7.84-2.14,9-2,2.49-11.53,8.54-15.19,10-16,10.79-5.96,30.17,1.01,43,21,.34-19.43,11.94-36.51,29-43,20.65-7.85,39.04,3.72,41,5,7.65,.27,24.29,1.91,41,13,24.24,16.08,31.35,40.57,33,47,5.21-3.37,12.24-7.18,21-10,50.53-16.25,111.51,15.78,110,33-1.12,12.73-36.57,19.38-40,20-15.07,2.72-27.62,.74-35-1-10.15,3.65-23.75,7.24-40,8-35.09,1.64-62.05-10.83-75-18-10.89,3.51-23.27,6.71-37,9-31.52,5.27-59.1,3.91-80,1-7.3-4.76-22.69-13.36-44-15-16.77-1.29-30.21,2.28-38,5-6.56,5.58-15.16,11.49-26,16-37.82,15.73-74.17,2.44-85-2-16.66,7.22-35.35,13.85-56,19-89.61,22.36-168.46,5.08-215-10-7.89,3.42-36.69,14.78-66,2-3.8-1.66-33.14-14.46-33-34,.15-21.35,35.38-33.98,41-36,24.79-8.89,47.19-3.87,57-1Z"/>
    <path class="cls-30" d="M1610.81,445.61c2.45-7.3,8.37-28.06,1-53-7.66-25.94-24.97-40.39-31-45-15.29-14.95-27.82-16.05-33-16-28.31,.29-58.69,37.61-65,95-5.78-.02-22.89,.67-38,13-25.39,20.71-21.3,54.8-21,57,3.28-13.67-6.27-25.45-16-26-8.14-.46-17.22,6.89-19,18-9.24-12.77-19.45-17.86-25-20-25.21-9.71-57.72,1.68-81,29-12.19-2.2-36.14-4.81-64,4-35.51,11.23-56.22,34.32-64,44-3.64-1.77-20.83-9.65-38-2-10.28,4.58-21.17,15.01-19,21,2.19,6.04,17.52,7.16,37,4,14.76,.94,30.46,1.35,47,1,40.8-.87,77.13-6.18,108-13,9.37,4.38,21.12,8.63,35,11,41.88,7.14,76.1-7.44,91-15,13.63,9.02,42.76,25.56,83,28,26.54,1.61,48.19-3.5,62-8,16.11,6.04,39.48,11.35,65,5,9.28-2.31,36.92-9.19,38-24,.71-9.73-10.24-20.33-26-27,4.32-4.94,11.04-14.32,12-27,1.61-21.38-13.85-43.32-39-54Z"/>
    <path class="cls-16" d="M564.06,169.36c-67.65,0-122.5,54.85-122.5,122.5s54.85,122.5,122.5,122.5,122.5-54.85,122.5-122.5-54.85-122.5-122.5-122.5Zm0,223.5c-55.78,0-101-45.22-101-101s45.22-101,101-101,101,45.22,101,101-45.22,101-101,101Z"/>
    <circle class="cls-24" cx="566.06" cy="291.86" r="21.5"/>
    <g class="cls-25">
      <path class="cls-16" d="M565.56,229.61c-34.52,0-62.5,27.98-62.5,62.5s27.98,62.5,62.5,62.5,62.5-27.98,62.5-62.5-27.98-62.5-62.5-62.5Zm0,103c-23.2,0-42-18.8-42-42s18.8-42,42-42,42,18.8,42,42-18.8,42-42,42Z"/>
      <rect class="cls-24" x="563.81" y="224.61" width="4" height="134"/>
      <rect class="cls-24" x="498.81" y="292.61" width="134" height="4"/>
      <rect class="cls-24" x="561.61" y="227" width="4" height="134" transform="translate(27.95 636.29) rotate(-60.13)"/>
      <rect class="cls-24" x="499.22" y="293.5" width="134" height="4" transform="translate(27.98 639.33) rotate(-60.13)"/>
      <rect class="cls-24" x="563.13" y="226.93" width="4" height="134" transform="translate(-70.77 331.35) rotate(-30.85)"/>
      <rect class="cls-24" x="497.67" y="293.51" width="134" height="4" transform="translate(-72.11 321.87) rotate(-29.99)"/>
    </g>
    <rect class="cls-24" x="555.81" y="209.61" width="20" height="20" transform="translate(10.44 464.41) rotate(-45)"/>
    <rect class="cls-24" x="628.81" y="284.61" width="20" height="20" transform="translate(-21.21 538) rotate(-45)"/>
    <rect class="cls-24" x="481.81" y="284.61" width="20" height="20" transform="translate(-64.27 434.05) rotate(-45)"/>
    <rect class="cls-24" x="555.81" y="356.61" width="20" height="20" transform="translate(-93.51 507.47) rotate(-45)"/>
    <polygon class="cls-24" points="665.06 193.17 691.69 149.47 646.81 175.61 665.06 193.17"/>
    <polygon class="cls-24" points="644.84 410.3 682.81 434.61 663.88 393.6 644.84 410.3"/>
    <polygon class="cls-24" points="605.49 429.05 640.81 484.61 628.72 418.96 605.49 429.05"/>
    <polygon class="cls-24" points="625.22 163.21 640.81 102.61 601.87 153.41 625.22 163.21"/>
    <polygon class="cls-24" points="577.09 145.61 565.81 77.61 551.77 146.1 577.09 145.61"/>
    <polygon class="cls-24" points="527.16 149.45 487.81 81.61 503.69 158.97 527.16 149.45"/>
    <polygon class="cls-24" points="422.07 306.34 348.37 333.15 427.32 331.11 422.07 306.34"/>
    <polygon class="cls-24" points="478.88 170.04 403.81 102.61 459.46 186.31 478.88 170.04"/>
    <polygon class="cls-24" points="427.74 258.78 326.91 254.81 423.18 283.69 427.74 258.78"/>
    <polygon class="cls-24" points="444.12 206.75 342.81 167.61 431.76 228.85 444.12 206.75"/>
    <circle class="cls-16" cx="1367.81" cy="335.61" r="33"/>
    <path class="cls-24" d="M1400.81,335.61c0-18.23-14.77-33-33-33s-33,14.77-33,33h66Z"/>
    <path d="M1389.81,335.61c0,12.15-9.85,22-22,22s-22-9.85-22-22h44Z"/>
    <path class="cls-16" d="M1418.31,338.61c-1.38,0-2.5-1.12-2.5-2.5,0-26.74-21.76-48.5-48.5-48.5s-48.5,21.76-48.5,48.5c0,1.38-1.12,2.5-2.5,2.5s-2.5-1.12-2.5-2.5c0-29.5,24-53.5,53.5-53.5s53.5,24,53.5,53.5c0,1.38-1.12,2.5-2.5,2.5Z"/>
    <path class="cls-24" d="M1367.31,390.61c-25.06,0-46.5-17.03-52.13-41.41-.31-1.34,.53-2.69,1.87-3,1.35-.31,2.69,.53,3,1.87,5.11,22.1,24.54,37.54,47.26,37.54s42.15-15.44,47.26-37.54c.31-1.35,1.65-2.18,3-1.87,1.35,.31,2.18,1.65,1.87,3-5.63,24.38-27.07,41.41-52.13,41.41Z"/>
    <path class="cls-16" d="M1367.31,287.61c-1.38,0-2.5-1.12-2.5-2.5v-13c0-1.38,1.12-2.5,2.5-2.5s2.5,1.12,2.5,2.5v13c0,1.38-1.12,2.5-2.5,2.5Z"/>
    <path class="cls-16" d="M1335.31,299.61c-.64,0-1.28-.24-1.77-.73l-6.5-6.5c-.98-.98-.98-2.56,0-3.54s2.56-.98,3.54,0l6.5,6.5c.98,.98,.98,2.56,0,3.54-.49,.49-1.13,.73-1.77,.73Z"/>
    <path class="cls-16" d="M1401.31,300.61c-.64,0-1.28-.24-1.77-.73-.98-.98-.98-2.56,0-3.54l7.5-7.5c.98-.98,2.56-.98,3.54,0s.98,2.56,0,3.54l-7.5,7.5c-.49,.49-1.13,.73-1.77,.73Z"/>
    <path class="cls-16" d="M1316.31,338.61h-11c-1.38,0-2.5-1.12-2.5-2.5s1.12-2.5,2.5-2.5h11c1.38,0,2.5,1.12,2.5,2.5s-1.12,2.5-2.5,2.5Z"/>
    <path class="cls-16" d="M1427.31,338.61h-9c-1.38,0-2.5-1.12-2.5-2.5s1.12-2.5,2.5-2.5h9c1.38,0,2.5,1.12,2.5,2.5s-1.12,2.5-2.5,2.5Z"/>
    <path class="cls-24" d="M1458.05,365.1c-13.66-5.96-27.32-11.93-40.99-17.89-.52,3.01-1.5,6.91-3.42,11.19-.97,2.18-7.38,11.24-10.6,14.65-1.2,1.27-2.41,2.4-3.57,3.4l-.26-.52c-2.34,1.97-5.6,4.32-9.82,6.37-3.85,1.87-7.4,2.93-10.21,3.57l.04,.27c-3.74,.13-10.42-.2-14-.54-3.43-.32-5.87-.16-8.07-.45-.49-.09-.99-.19-1.51-.3-.27-.07-.55-.15-.82-.24,0,.02,0,.04,0,.05-2.26-.53-4.81-1.3-7.53-2.45-1.93-.81-3.66-1.7-5.22-2.6,.04-.07,.08-.15,.12-.22-2.44-1.54-5.42-3.73-8.43-6.78-3.29-3.34-5.58-6.65-7.12-9.29-.19,.19-.39,.38-.58,.56-1.08-1.65-2.18-3.54-3.2-5.7-2.01-4.24-3.07-8.12-3.66-11.12-13.53,6.25-27.07,12.5-40.6,18.74-3.93,6.51-3.79,14.7,.35,21.02,3.44,5.26,9.18,8.48,15.33,8.85-1.01,7.03,1.83,14.13,7.48,18.46,5.06,3.88,11.66,5,17.66,3.21,0,.02-.02,.04-.03,.06,1.41,7.47,6.98,13.49,14.28,15.43,5.86,1.56,12.03,.28,16.8-3.24,3.85,5.46,10.24,8.68,16.98,8.39,7.62-.34,14.39-5.12,17.32-12.19,.03,.23,.06,.46,.1,.69,5.21,5.83,13.39,8.06,20.78,5.67,6.67-2.16,11.66-7.74,13.16-14.55,5.91,1.48,12.27,.18,17.12-3.7,5.56-4.45,8.25-11.6,7.09-18.62,6.14-.5,11.81-3.84,15.15-9.16,4.01-6.4,3.97-14.6-.09-21.02Z"/>
    <path class="cls-24" d="M1440.81,340.61c-1.1,0-2-.9-2-2v-8c0-39.15-31.85-71-71-71s-71,31.85-71,71c0,1.1-.9,2-2,2s-2-.9-2-2c0-19.9,7.84-38.7,22.07-52.93,14.23-14.23,33.03-22.07,52.93-22.07s38.7,7.84,52.93,22.07c14.23,14.23,22.07,33.03,22.07,52.93v8c0,1.1-.9,2-2,2Z"/>
    <path class="cls-24" d="M1381.17,235.23c-3.66-10.29-7.72-19.52-11.78-27.65-4.06,8.13-8.12,17.36-11.78,27.65-3.06,8.62-5.42,16.77-7.25,24.3,4.88-.54,10.03-1.34,15.4-2.51,1.23-.27,2.44-.55,3.62-.84,1.19,.29,2.39,.57,3.62,.84,5.37,1.17,10.52,1.98,15.4,2.51-1.83-7.53-4.18-15.69-7.25-24.3Z"/>
    <path class="cls-24" d="M1332.42,241.98c-8.84-7.1-17.44-13.11-25.43-18.17,1.02,8.91,2.65,18.76,5.2,29.33,2.14,8.85,4.63,16.97,7.24,24.31,3.89-2.77,7.87-5.91,11.83-9.46,.91-.81,1.79-1.63,2.65-2.44,1.18-.31,2.37-.65,3.58-1,5.26-1.54,10.13-3.29,14.62-5.14-5.74-5.6-12.28-11.49-19.68-17.44Z"/>
    <path class="cls-24" d="M1293.48,269.38c-11.41-2.53-22.05-4.2-31.66-5.28,5.41,7.47,11.84,15.52,19.45,23.82,6.37,6.94,12.68,13.09,18.7,18.49,2.04-4.12,3.96-8.6,5.66-13.44,.39-1.11,.76-2.21,1.1-3.29,.88-.78,1.77-1.58,2.65-2.41,3.86-3.61,7.28-7.24,10.31-10.8-7.91-2.53-16.66-4.96-26.22-7.08Z"/>
    <path class="cls-24" d="M1294.63,323.49c-.09-.31-.18-.64-.28-.94,.22-.84,.42-1.7,.63-2.56,.38-3.12,.97-6.22,1.81-9.28,.3-1.98,.57-3.93,.76-5.83-8.1,1.86-16.86,4.22-26.1,7.25-11.04,3.62-20.93,7.58-29.62,11.52,8.88,3.57,18.95,7.11,30.16,10.27,8.1,2.28,15.81,4.08,23.03,5.5-.59-5.31-.76-10.63-.38-15.92Z"/>
    <path class="cls-24" d="M1407.21,242.82c8.84-7.1,17.44-13.11,25.43-18.17-1.02,8.91-2.65,18.76-5.2,29.33-2.14,8.85-4.63,16.97-7.24,24.31-3.89-2.77-7.87-5.91-11.83-9.46-.91-.81-1.79-1.63-2.65-2.44-1.18-.31-2.37-.65-3.58-1-5.26-1.54-10.13-3.29-14.62-5.14,5.74-5.6,12.28-11.49,19.68-17.44Z"/>
    <path class="cls-24" d="M1444.44,271.88c11.47-2.24,22.14-3.64,31.79-4.48-5.59,7.33-12.23,15.22-20.04,23.32-6.55,6.78-13.01,12.76-19.16,18.01-1.93-4.17-3.74-8.7-5.32-13.58-.36-1.12-.7-2.22-1.02-3.32-.86-.8-1.73-1.63-2.59-2.48-3.77-3.7-7.1-7.42-10.03-11.05,7.97-2.33,16.78-4.54,26.39-6.42Z"/>
    <path class="cls-24" d="M1462.19,313.96c-8.7-2.85-16.95-5.1-24.65-6.91,2.59,11.07,3.94,22.35,3.57,33.66,6.51-1.34,13.35-2.94,20.55-4.97,11.2-3.15,21.28-6.7,30.16-10.27-8.7-3.94-18.58-7.9-29.62-11.52Z"/>
    <path class="cls-24" d="M1294.81,339.61c-1.1,0-2-.9-2-2v-7c0-1.1,.9-2,2-2s2,.9,2,2v7c0,1.1-.9,2-2,2Z"/>
    <ellipse class="cls-27" cx="233.31" cy="262.11" rx="17.5" ry="26.5" transform="translate(-110.33 333.11) rotate(-60)"/>
    <ellipse class="cls-21" cx="190.81" cy="264.61" rx="10" ry="8"/>
    <circle class="cls-3" cx="313.81" cy="168.61" r="10"/>
    <circle class="cls-2" cx="151.31" cy="225.11" r="5.5"/>
    <circle class="cls-3" cx="135.31" cy="458.11" r="6.5"/>
    <circle class="cls-4" cx="834.81" cy="164.61" r="30"/>
    <circle class="cls-2" cx="722.31" cy="216.11" r="4.5"/>
    <circle class="cls-5" cx="707.81" cy="103.61" r="7"/>
    <circle class="cls-2" cx="797.31" cy="146.11" r="4.5"/>
    <circle class="cls-2" cx="1291.31" cy="213.11" r="5.5"/>
    <circle class="cls-7" cx="1349.31" cy="182.11" r="14.5"/>
    <circle class="cls-2" cx="1434.31" cy="151.11" r="6.5"/>
    <circle class="cls-7" cx="1598.81" cy="248.61" r="11"/>
    <circle class="cls-1" cx="1618.81" cy="166.61" r="9"/>
    <g>
      <path class="cls-22" d="M798.29,370.44c-.41-10.05-3.6-18.96-8.97-25.1-7.77-8.87-18.15-10.01-32.5-11.58-12.7-1.39-25.72-.71-38.7,2.04l-.2,.06c-5.16,1.88-14.5,6.57-19.02,16.93-2.95,6.77-2.5,13.12-2.03,19.84l1.5-.1-1.5,.11c.47,6.75,1.01,14.4,5.98,21.88,4.76,7.17,11.33,10.84,16,12.65l.31,.08c8.27,1.32,16.71,2.01,25.08,2.03,.16,0,.32,0,.48,0,8.53,0,17.13-.68,25.65-2.05,4.22-.94,18.5-5.09,24.93-18.96,3.43-7.4,3.14-14.44,3-17.82Zm-5.73,16.55c-5.85,12.62-18.98,16.43-22.77,17.28-8.43,1.35-17.03,2.02-25.56,2-8.16-.02-16.39-.69-24.46-1.97-4.25-1.68-10.16-5.02-14.44-11.46-4.53-6.82-5.02-13.74-5.49-20.43h0c-.46-6.62-.87-12.34,1.79-18.43,4.04-9.27,12.47-13.54,17.2-15.27,12.63-2.66,25.3-3.32,37.65-1.97,15.49,1.7,23.88,2.94,30.57,10.58,4.93,5.62,7.85,13.88,8.23,23.25,.13,3.15,.4,9.69-2.73,16.43Z"/>
      <path class="cls-22" d="M779.68,353.55c-6.28-6.8-14.6-7.67-26.11-8.86-10.16-1.05-20.57-.54-30.95,1.55l-.19,.05c-4.17,1.43-11.7,5.03-15.36,12.99-2.4,5.22-2.04,10.08-1.66,15.23,.38,5.16,.82,11.01,4.84,16.76,3.85,5.5,9.15,8.31,12.91,9.7l.29,.08c6.62,1,13.36,1.52,20.05,1.54,.12,0,.25,0,.37,0,6.83,0,13.71-.52,20.53-1.56,3.4-.72,14.9-3.89,20.1-14.54,2.78-5.7,2.55-11.09,2.44-13.69-.33-7.71-2.91-14.54-7.26-19.25Zm-40.71-5.8c.03-.17,.03-.34,.01-.49,.5-.02,1-.03,1.51-.05-.56,1.66-.51,3.4,.22,5.04,.75,1.67,2.29,2.91,4.02,3.45,2,.63,3.94,.09,5.77-.78,1.65-.78,3.37-1.81,4.28-3.46,.59-1.06,.8-2.38,.53-3.58,.04,0,.09,0,.13,.01,.22,.38,.56,.59,.95,.66,.12,.38,.22,.76,.3,1.15,.17,.87,.21,1.76,.16,2.65-.08,1.62-.57,3.19-1.44,4.55-1.65,2.57-4.7,4.12-7.61,4.75-3.17,.68-6.14-.51-7.87-3.25-2.03-3.22-1.66-7.09-.97-10.66Zm13.02,.16c.08,.06,.15,.13,.22,.2-.07-.12-.06-.1,.03,.04,.04,.07,.08,.13,.11,.2,0,.01,0,0,.01,.03,.01,.05,.06,.3,.08,.33,0,.15,.01,.3,0,.45,0,.02,0,.02,0,.03-.02,.08-.03,.17-.05,.25-.03,.1-.06,.2-.09,.29,.06-.12,.05-.1-.03,.06-.18,.34-.34,.56-.58,.81-.55,.56-1.21,.95-1.93,1.33-.76,.4-1.53,.76-2.36,.95-1.26,.29-2.58-.17-3.49-1.19-.83-.93-1.05-2.56-.55-3.67,.13-.28,.19-.59,.17-.88,2.75,0,5.48,.13,8.2,.37,.07,.14,.16,.27,.28,.37Zm-28.68,1.24c4.23-.84,8.47-1.41,12.69-1.72-.7,3.84-.98,7.79,.77,11.41,1.46,3.03,4.26,5.39,7.63,5.89,3.6,.53,7.57-.83,10.46-2.98,2.95-2.19,4.7-5.39,4.99-9.06,.11-1.44-.02-2.92-.38-4.33,8.48,1.08,13.72,2.55,18.03,7.22,2.5,2.71,4.33,6.24,5.4,10.28-3.17,.09-6.33,.48-9.41,1.24-2.7,.66-5.53,1.46-6.35,4.46-.34,1.26-.26,2.6-.35,3.88-.1,1.31-.59,2.49-1.44,3.5-1.9,2.26-4.79,3.17-7.6,3.69-6.44,1.19-13.67,1.97-20.09,.33-4.92-1.25-9.8-4.33-11.86-9.14-.58-1.37-.8-2.89-1.8-4.05-1.09-1.26-2.65-1.53-4.23-1.64-3.85-.25-7.71-.41-11.57-.61,.11-2.35,.54-4.64,1.62-7,3.17-6.89,9.79-10.08,13.52-11.38Zm40.56,48.92c-6.71,1.02-13.56,1.51-20.36,1.51-6.49-.02-13.03-.52-19.45-1.49-3.35-1.26-7.99-3.76-11.35-8.55-3.55-5.08-3.94-10.26-4.31-15.26-.1-1.29-.19-2.54-.23-3.76,3.47,.18,6.94,.37,10.42,.55,1.33,.07,2.87-.1,3.51,1.29,.57,1.23,.85,2.56,1.48,3.77,2.45,4.7,7.24,7.9,12.21,9.42,6.39,1.95,13.24,1.28,19.75,.42,5.42-.72,11.67-2.27,13.76-8.01,.52-1.42,.47-2.91,.56-4.39,.1-1.74,.71-2.51,2.39-3.02,3.65-1.13,7.46-1.65,11.27-1.71,.22,1.33,.38,2.69,.44,4.09,.01,.3,.03,.64,.04,1.02-1.92,.09-3.92,.35-5.6,1.32-2.08,1.21-2.76,3.2-2.88,5.49-.11,2.11-.8,3.73-2.49,5.06-1.59,1.25-3.56,2.01-5.48,2.55-5.49,1.55-11.42,2.08-17.09,2.38-5.7,.3-11.64,.4-17.15-1.31-5.27-1.63-9.8-5.18-12.75-9.82-1.03-1.63-3.63-.12-2.59,1.51,2.69,4.24,6.54,7.74,11.1,9.86,5.31,2.47,11.19,2.95,16.98,2.89,6.25-.07,12.5-.69,18.64-1.82,4.18-.77,8.94-2.02,11.78-5.44,.75-.91,1.34-1.94,1.67-3.08,.41-1.38,.12-2.88,.55-4.23,.65-2.02,3.33-2.29,5.24-2.38-.16,2.37-.68,5.27-2.12,8.23-4.6,9.42-14.96,12.27-17.94,12.9Z"/>
    </g>
    <path class="cls-29" d="M220.35,431.77c2.23-13.28,7.14-26.04,14.27-37.46s16.56-21.61,27.59-29.48c12-8.56,26.06-14.71,40.94-15.21,12.97-.43,25.85,3.13,37.18,9.35,11.51,6.32,21.57,15.37,29,26.21,.91,1.33,1.77,2.68,2.6,4.05,.25,.41,.9,.04,.65-.38-6.83-11.32-16.36-20.95-27.55-27.99s-23.73-11.37-36.78-11.96c-14.95-.68-29.26,4.27-41.8,12.19-11.52,7.27-21.48,16.91-29.3,28.05-7.87,11.21-13.59,23.97-16.54,37.35-.37,1.69-.7,3.38-.98,5.08-.08,.47,.64,.68,.72,.2h0Z"/>
    <path class="cls-29" d="M339.54,371.27c14.49,11.12,25.8,26.21,32.69,43.11,3.42,8.4,5.78,17.24,6.89,26.24s1.36,19.37-1.83,28.38c-2.96,8.37-9.15,14.68-17.06,18.53s-16.09,5.25-24.43,6.07c-9.68,.96-19.53,1.23-29.26,.9-10.52-.36-21.08-1.74-31.06-5.2-16.14-5.6-31.27-17.84-36.23-34.71-.6-2.05-1.03-4.15-1.3-6.27-.06-.47-.81-.48-.75,0,2.2,17.42,15.46,31.36,30.82,38.73,19.02,9.13,41.23,9.02,61.82,7.77,16.02-.97,35.11-3.97,44.67-18.49,5.45-8.29,6.44-18.66,5.99-28.33s-2.19-18.45-5.11-27.24c-5.84-17.58-16.31-33.66-30.26-45.89-1.69-1.48-3.43-2.9-5.21-4.26-.38-.29-.76,.36-.38,.65h0Z"/>
    <path class="cls-29" d="M251.22,418.84c2.53-16.98,18.25-29.72,34.98-31.06,18.92-1.52,37.07,9.47,47.01,25.15,5.07,7.99,8.24,17.19,9.09,26.61s-.05,19.75-6.41,26.87c-6.3,7.05-16.83,9.29-25.92,8.65s-18.37-4.62-24.46-11.77-8.85-16.29-7.02-25.18c1.68-8.17,7.48-15.46,15.13-18.81,1.91-.84,3.93-1.39,5.99-1.7,.48-.07,.27-.79-.2-.72-8.47,1.24-15.76,7.13-19.48,14.74-3.94,8.06-3.35,17.52,.59,25.46,4.21,8.46,11.9,14.53,20.91,17.2,9.02,2.67,19.49,2.21,27.96-2.07,4.23-2.14,7.74-5.38,10.01-9.56s3.32-8.92,3.7-13.62c.79-9.75-1.1-19.7-5.06-28.62-7.88-17.76-24.7-31.53-44.36-33.33-9.05-.83-18.12,1.21-25.81,6.08-7.16,4.53-13.01,11.29-15.86,19.32-.71,2-1.22,4.07-1.53,6.17-.07,.47,.65,.68,.72,.2h0Z"/>
    <path class="cls-29" d="M415.82,445.97c3.07,10.63,3.29,21.92,.62,32.66-.12,.47,.61,.67,.72,.2,2.7-10.87,2.48-22.3-.62-33.06-.13-.46-.86-.27-.72,.2h0Z"/>
    <path class="cls-29" d="M405.86,410.72c11.55,15.59,21.14,33.35,24.27,52.69,.89,5.5,1.21,11.08,.92,16.64-.02,.48,.73,.48,.75,0,1.02-19.78-5.91-38.95-15.93-55.73-2.88-4.82-6.03-9.47-9.37-13.98-.28-.38-.94,0-.65,.38h0Z"/>
    <path class="cls-29" d="M450.57,448.54c1.27-1.74,2.93-3.18,4.83-4.2,.42-.23,.05-.88-.38-.65-2.01,1.09-3.75,2.62-5.1,4.47-.12,.17-.03,.42,.13,.51,.19,.11,.39,.03,.51-.13h0Z"/>
    <path class="cls-29" d="M466.23,443.79c7.34,1.41,13.47,6.45,17.27,12.76,4.31,7.15,5.82,15.7,6,23.95,.31,14.38-4.56,30.81-18.93,36.84-6.96,2.92-15.23,2.96-21.53-1.52-.39-.28-.77,.37-.38,.65,5.62,3.99,12.87,4.52,19.36,2.58,6.96-2.08,12.64-6.77,16.35-12.98,4.05-6.78,5.69-14.77,5.88-22.59,.21-8.42-.98-17.25-4.76-24.85s-10.57-13.92-19.06-15.55c-.47-.09-.67,.63-.2,.72h0Z"/>
    <path class="cls-29" d="M437.77,498.54c.62-10.62,3.67-20.99,8.88-30.27,.24-.42-.41-.8-.65-.38-5.28,9.39-8.36,19.89-8.98,30.65-.03,.48,.72,.48,.75,0h0Z"/>
    <path class="cls-29" d="M462.64,465.6c4.72,.26,7.71,4.7,9.18,8.76,1.85,5.12,2.29,10.76,1.68,16.14-.05,.48,.7,.47,.75,0,.66-5.81,.14-12.12-2.18-17.55-1.7-3.97-4.8-7.85-9.42-8.11-.48-.03-.48,.72,0,.75h0Z"/>
    <path class="cls-29" d="M507.01,496.35c5.95,3.54,9.44,9.98,10.69,16.65,1.55,8.26-.25,16.73-2.25,24.75-.12,.47,.61,.67,.72,.2,2.06-8.27,3.89-17.01,2.18-25.52-1.35-6.72-4.97-13.15-10.96-16.72-.42-.25-.79,.4-.38,.65h0Z"/>
    <path class="cls-29" d="M511.12,517.9c1.13,7.45-.58,15.14-4.72,21.43-.27,.4,.38,.78,.65,.38,4.25-6.47,5.95-14.36,4.79-22.01-.07-.48-.79-.27-.72,.2h0Z"/>
    <path class="cls-29" d="M173.16,526.7c1.98-14.69,8-30.07,21.88-37.25,3.63-1.88,7.6-3,11.69-3.18,.48-.02,.48-.77,0-.75-7.07,.31-13.68,3.39-18.97,8.02-5.84,5.11-9.78,11.99-12.24,19.29-1.5,4.44-2.45,9.03-3.08,13.67-.06,.47,.66,.68,.72,.2h0Z"/>
    <path class="cls-29" d="M206.81,492.6c3.64-1.67,7.62-2.46,11.63-2.35,.48,.01,.48-.74,0-.75-4.14-.11-8.24,.73-12.01,2.46-.44,.2-.06,.85,.38,.65h0Z"/>
    <path class="cls-29" d="M109.16,532.37c13.99-1.59,28.38-1.04,41.91,3.11,11.84,3.63,22.82,10.13,31.17,19.33,4.53,4.99,8.2,10.74,10.67,17.02,.17,.44,.9,.25,.72-.2-4.41-11.2-12.51-20.57-22.39-27.35-11.02-7.56-24.04-11.61-37.26-12.95-8.25-.84-16.58-.64-24.82,.29-.47,.05-.48,.8,0,.75h0Z"/>
    <path class="cls-29" d="M195.93,562.5l3.9,5.87c.27,.4,.92,.03,.65-.38l-3.9-5.87c-.27-.4-.92-.03-.65,.38h0Z"/>
    <path class="cls-29" d="M289.03,593.55c18.96,3.08,38.42,2.57,57.23-1.25s37.14-11.01,53.56-21.15c9.23-5.7,17.86-12.35,25.71-19.83,.35-.33-.18-.86-.53-.53-13.9,13.25-30.27,23.82-47.97,31.24s-36.5,11.72-55.58,12.62c-10.77,.51-21.58-.09-32.23-1.82-.47-.08-.68,.65-.2,.72h0Z"/>
    <path class="cls-29" d="M392.06,558.18c10.13-5.57,19.39-12.64,27.45-20.93,.34-.35-.19-.88-.53-.53-8.02,8.25-17.22,15.27-27.3,20.81-.42,.23-.05,.88,.38,.65h0Z"/>
    <path class="cls-29" d="M457.42,580.69c26.79,4.16,53.28-6.2,74.25-22.43,5.8-4.49,11.24-9.41,16.38-14.64,.34-.34-.19-.87-.53-.53-18.1,18.38-40.69,33.39-66.7,37-7.69,1.06-15.52,1.07-23.2-.12-.47-.07-.68,.65-.2,.72h0Z"/>
    <path class="cls-29" d="M530.49,550.45c6.2-4.74,12.41-9.49,18.61-14.23,.38-.29,0-.94-.38-.65-6.2,4.74-12.41,9.49-18.61,14.23-.38,.29,0,.94,.38,.65h0Z"/>
    <path class="cls-29" d="M552.54,513.38c7.9,7.07,12.54,17.34,12.61,27.95,0,.48,.75,.48,.75,0-.08-10.79-4.79-21.28-12.83-28.48-.36-.32-.89,.21-.53,.53h0Z"/>
    <path class="cls-29" d="M582.6,526.12c.98,.88,1.65,2.11,1.8,3.43,.02,.2,.16,.38,.38,.38,.18,0,.4-.17,.38-.38-.17-1.52-.88-2.94-2.02-3.96-.36-.32-.89,.21-.53,.53h0Z"/>
    <path class="cls-29" d="M635.54,501.47c7.46,4.34,13.95,10.54,17.93,18.26s5.01,16.68,2.46,24.99c-1.41,4.6-3.92,8.79-7.43,12.09-.35,.33,.18,.86,.53,.53,6.35-5.97,9.35-14.74,9.03-23.36s-4.34-17.13-10.23-23.62c-3.44-3.79-7.49-6.97-11.91-9.54-.42-.24-.8,.4-.38,.65h0Z"/>
    <path class="cls-29" d="M643.81,535.15c-1.92,7.91-8.4,14.12-16.05,16.59-8.58,2.77-18.1,.66-25.56-4.11-6.99-4.47-14.04-12.91-11.18-21.77,1.24-3.84,4.25-6.96,7.81-8.76,3.91-1.98,8.45-2.16,12.63-.99,10.16,2.85,16.1,12.41,18.4,22.17,.11,.47,.83,.27,.72-.2-2.15-9.13-7.34-17.98-16.3-21.77-7.96-3.36-17.67-1.49-22.47,6.11-5.13,8.13-.26,17.61,6.33,23.16,7.13,6.01,16.91,9.3,26.2,7.76s17.89-8.59,20.18-17.99c.11-.47-.61-.67-.72-.2h0Z"/>
    <path class="cls-29" d="M611.73,526.75c4.07,3.19,7.26,7.42,9.17,12.22,.18,.44,.9,.25,.72-.2-1.96-4.93-5.19-9.28-9.37-12.55-.38-.29-.91,.23-.53,.53h0Z"/>
    <path class="cls-29" d="M671.21,500.1c1.24-1.45,2.48-2.89,3.72-4.34,.31-.36-.22-.9-.53-.53-1.24,1.45-2.48,2.89-3.72,4.34-.31,.36,.22,.9,.53,.53h0Z"/>
    <path class="cls-29" d="M682.82,487.66c6.75-4.5,14.31-7.61,22.27-9.15,.47-.09,.27-.81-.2-.72-8.02,1.55-15.66,4.69-22.45,9.23-.4,.27-.02,.92,.38,.65h0Z"/>
    <path class="cls-29" d="M712.34,479.17c14.65,2.56,27.45,12.54,34.18,25.72,3.58,7,6.07,15.86,4.39,23.71-1.76,8.23-9.1,12.65-16.4,15.52-4.04,1.58-8.22,3.08-12.45,4.06-4.75,1.1-9.47,.94-14.07-.72-7.93-2.86-14.73-9.13-18.53-16.62s-4.29-15.63-1.35-23.2,9.26-13.25,17.26-14.82c3.9-.76,8.02-.52,11.76,.86,4.12,1.53,7.57,4.55,10.17,8.05,4.46,6,6.69,14.42,4.16,21.65-.64,1.83-1.6,3.5-2.83,5-.3,.37,.22,.9,.53,.53,10.64-12.94-.54-34.75-16.08-37.02-8.04-1.17-16.35,2.03-21.5,8.31s-7.08,14.73-5.64,22.6c1.53,8.35,6.66,15.78,13.42,20.8,3.7,2.75,8,4.88,12.57,5.71,4.92,.89,9.74-.07,14.45-1.56,7.58-2.41,16.41-5.09,21.65-11.48,5.57-6.79,4.62-16.42,2.18-24.29-4.63-14.94-16.89-27.37-31.81-32.1-1.92-.61-3.88-1.08-5.87-1.43-.47-.08-.67,.64-.2,.72h0Z"/>
    <path class="cls-29" d="M717.63,510.72c4.1,3.84,4.17,10.97,.13,14.88-.35,.34,.18,.87,.53,.53,4.32-4.18,4.26-11.83-.13-15.94-.35-.33-.88,.2-.53,.53h0Z"/>
    <path class="cls-29" d="M763.58,503.82c3.42,2.7,6.73,5.64,9.27,9.2,2.51,3.52,4.11,7.57,4.86,11.82s.68,8.88,0,13.26c-.62,4.06-1.64,8.27-3.84,11.78-2.77,4.42-7.38,6.4-12.07,8.17-.45,.17-.25,.89,.2,.72,4.02-1.52,8.21-3.16,11.06-6.53s4.08-7.38,4.92-11.46c1.8-8.73,1.45-18.37-3.22-26.19-2.69-4.5-6.59-8.09-10.67-11.3-.37-.3-.91,.23-.53,.53h0Z"/>
    <path class="cls-29" d="M259.56,534.22c25.91-13.66,55.3-25.58,85.05-18.91,6.74,1.51,13.28,3.98,19.22,7.53,5.95,3.55,12.07,8.63,12.83,16,.37,3.54-.7,6.94-3.22,9.49s-5.69,4.09-8.78,5.61c-6.47,3.2-13.33,5.59-20.36,7.19-15.62,3.53-32.08,3.04-47.42-1.58-.46-.14-.66,.58-.2,.72,14.11,4.25,29.15,5.03,43.64,2.43,7.24-1.3,14.32-3.44,21.05-6.4,3.28-1.44,6.61-3.01,9.6-5.01,2.67-1.79,4.98-4.12,5.96-7.26,2.06-6.61-1.66-13.22-6.55-17.47-5.24-4.55-11.81-7.74-18.35-9.96-13.8-4.68-28.85-4.9-43.08-2.2-15.62,2.96-30.39,9.26-44.5,16.43-1.77,.9-3.52,1.81-5.28,2.74-.43,.23-.05,.87,.38,.65h0Z"/>
    <path class="cls-29" d="M248.25,551.44c9.54-10.12,22.66-15.56,35.87-19.08,3.76-1,7.55-1.86,11.36-2.64,.47-.1,.27-.82-.2-.72-13.5,2.79-27.32,6.51-38.8,14.43-3.17,2.19-6.11,4.68-8.75,7.49-.33,.35,.2,.88,.53,.53h0Z"/>
    <path class="cls-29" d="M310.8,525.03c2.87-.33,5.77-.21,8.61,.37,.47,.1,.67-.63,.2-.72-2.9-.59-5.87-.73-8.81-.4-.47,.05-.48,.8,0,.75h0Z"/>
    <path class="cls-29" d="M368.23,499.26c7.68,2.42,13.98,8.51,16.64,16.11,.16,.45,.88,.26,.72-.2-2.75-7.85-9.22-14.13-17.16-16.63-.46-.15-.66,.58-.2,.72h0Z"/>
    <path class="cls-29" d="M387.85,521.12c1.89,3.26,2.64,7.11,2.09,10.84-.07,.47,.65,.68,.72,.2,.58-3.94-.17-7.97-2.17-11.42-.24-.42-.89-.04-.65,.38h0Z"/>
    <path class="cls-29" d="M783.13,551.31c-6.46,9.25-18.04,14.31-29.21,12.83-.48-.06-.47,.69,0,.75,11.45,1.51,23.26-3.75,29.86-13.2,.28-.4-.37-.77-.65-.38h0Z"/>
    <path class="cls-29" d="M788.89,538.95c.39,2.44-.02,4.96-1.13,7.16-.22,.43,.43,.81,.65,.38,1.21-2.39,1.63-5.09,1.21-7.74-.08-.48-.8-.27-.72,.2h0Z"/>
    <path class="cls-29" d="M675.85,570.91c11.53,.32,23-1.92,33.58-6.52,.44-.19,.06-.84-.38-.65-10.45,4.54-21.81,6.73-33.2,6.41-.48-.01-.48,.74,0,.75h0Z"/>
    <path class="cls-29" d="M726.91,560.95c1.84-.87,3.68-1.74,5.52-2.61,.44-.21,.06-.85-.38-.65-1.84,.87-3.68,1.74-5.52,2.61-.44,.21-.06,.85,.38,.65h0Z"/>
    <path class="cls-29" d="M812.97,543.1c24.65-9.75,52.88-13.48,77.79-2.48,6.42,2.83,12.41,6.59,17.66,11.25,.36,.32,.89-.21,.53-.53-19.84-17.57-47.82-21.15-73.04-15.97-7.91,1.62-15.63,4.05-23.14,7.02-.44,.18-.25,.9,.2,.72h0Z"/>
    <path class="cls-29" d="M893.09,549.24c3.79,1.79,9.03,4.64,8.87,9.52-.02,.48,.73,.48,.75,0,.17-5.18-5.19-8.25-9.25-10.17-.43-.21-.82,.44-.38,.65h0Z"/>
    <path class="cls-29" d="M858.65,568.62c10.94,5.06,24.36,3.6,33.91-3.77,.38-.29,0-.94-.38-.65-9.33,7.2-22.45,8.72-33.16,3.77-.44-.2-.82,.44-.38,.65h0Z"/>
    <path class="cls-29" d="M834.04,553.34c13.37-9.15,32.41-8.53,45.1,1.57,.37,.3,.91-.23,.53-.53-10.04-7.98-23.99-10.27-36.18-6.45-3.5,1.09-6.81,2.7-9.84,4.77-.4,.27-.02,.92,.38,.65h0Z"/>
    <path class="cls-29" d="M812.84,575.83c4.63-.18,9.23-.8,13.74-1.87,.47-.11,.27-.83-.2-.72-4.45,1.05-8.98,1.67-13.55,1.84-.48,.02-.48,.77,0,.75h0Z"/>
    <path class="cls-29" d="M1379.68,496.47c-8.91-15.15-27.14-21.72-44.04-19.5-16.86,2.22-35.15,12.22-42.04,28.5-3.03,7.17-3.1,15.25,.44,22.26,3.46,6.85,9.76,12.07,16.82,14.93,8.45,3.42,17.98,3.16,26.68,.86,4.66-1.24,9.16-3.06,13.43-5.28,4.03-2.1,8.04-4.58,10.95-8.14,4.97-6.07,5.98-14.95,2.75-22.06s-10.62-11.56-18.25-11.89c-1.89-.08-3.77,.12-5.61,.56-.47,.11-.27,.84,.2,.72,7.48-1.79,15.76,1.05,20.59,7.04,5.03,6.24,5.49,15.5,1.61,22.43-2.17,3.86-5.67,6.67-9.42,8.91s-8.11,4.28-12.43,5.76c-8.46,2.9-17.82,4.02-26.55,1.63-7.24-1.98-13.96-6.46-18.23-12.67s-5.61-14.24-3.4-21.66c2.26-7.57,7.5-14,13.57-18.9,6.76-5.46,14.98-9.23,23.42-11.22,16.25-3.83,34.46,.08,45.48,13.28,1.26,1.51,2.39,3.14,3.39,4.84,.24,.42,.89,.04,.65-.38h0Z"/>
    <path class="cls-29" d="M1315.26,505.09c-3.26,2.7-6.62,5.57-8.63,9.38-1.8,3.41-2.41,7.47-.85,11.07,.19,.44,.84,.06,.65-.38-3.44-7.97,3.84-14.96,9.37-19.54,.37-.31-.16-.84-.53-.53h0Z"/>
    <path class="cls-29" d="M1313.82,530.62c4.98,4.54,13.04,4.96,18.44,.91,.38-.29,0-.94-.38-.65-5.13,3.85-12.77,3.54-17.53-.79-.36-.32-.89,.2-.53,.53h0Z"/>
    <path class="cls-29" d="M1321.43,513.76c3.84-4.67,10.01-6.43,15.89-5.76,6.03,.69,13.76,4.41,14.7,11.09,.07,.48,.79,.27,.72-.2-.96-6.86-8.79-10.77-14.98-11.59s-12.8,.99-16.86,5.92c-.3,.37,.22,.9,.53,.53h0Z"/>
    <path class="cls-29" d="M1393.76,493.77c5.53-5.19,14.81-5.39,20.54-.42,.36,.31,.9-.21,.53-.53-6.05-5.24-15.77-5.06-21.61,.42-.35,.33,.18,.86,.53,.53h0Z"/>
    <path class="cls-29" d="M1413.9,499.16c8.26,9.56,8.08,22.86,7.75,34.76-.01,.48,.74,.48,.75,0,.34-12.13,.44-25.56-7.97-35.29-.32-.37-.84,.17-.53,.53h0Z"/>
    <path class="cls-29" d="M1424.75,513.57c3.31,9.33,3.39,19.56,.21,28.94-.16,.46,.57,.65,.72,.2,3.21-9.49,3.14-19.9-.21-29.34-.16-.45-.89-.26-.72,.2h0Z"/>
    <path class="cls-29" d="M1409.08,512.09c-5.84-3.44-13-3.01-19.03-.29-6.69,3.01-11.5,8.85-14.82,15.24-1.97,3.78-3.47,7.78-4.78,11.83-.15,.46,.58,.66,.72,.2,4.13-12.79,11.76-27.33,26.81-28.63,3.74-.32,7.47,.39,10.71,2.3,.42,.25,.79-.4,.38-.65h0Z"/>
    <path class="cls-29" d="M1281.16,519.3c-8.37-10.52-23.68-11.36-36.04-10.63-13.52,.8-27.1,4.27-38.86,11.12-6.56,3.82-12.46,8.72-17.28,14.6-.3,.37,.22,.9,.53,.53,8.47-10.34,20.19-17.39,32.85-21.38,6.39-2.02,13.01-3.29,19.68-3.89s13.22-.69,19.7,.38c7.17,1.18,14.25,3.98,18.88,9.8,.3,.38,.83-.16,.53-.53h0Z"/>
    <path class="cls-29" d="M1188.81,545.86c-2.14,1.17-3.01,4.03-1.94,6.2,.21,.43,.86,.05,.65-.38-.89-1.82-.09-4.21,1.67-5.17,.42-.23,.05-.88-.38-.65h0Z"/>
    <path class="cls-29" d="M1259.1,551.71c9.97-.86,19.78-3,29.2-6.38,.45-.16,.26-.89-.2-.72-9.35,3.36-19.09,5.5-29,6.35-.48,.04-.48,.79,0,.75h0Z"/>
    <path class="cls-29" d="M1301.05,549.09c3.9,2.27,8.09,3.98,12.46,5.09,.47,.12,.67-.6,.2-.72-4.31-1.09-8.44-2.78-12.28-5.02-.42-.24-.8,.4-.38,.65h0Z"/>
    <path class="cls-29" d="M1588.83,464.92c7.08-12.65,8.91-27.54,6.69-41.75s-8.36-28.04-17.9-38.76c-9.57-10.76-23.42-18.09-38.09-17.2-13.51,.82-25.02,9.22-32.23,20.35-8.42,12.99-10.46,28.94-9.94,44.12,.07,2.04,.19,4.08,.34,6.12,.04,.48,.79,.48,.75,0-1.12-15.15-.31-31.19,6.69-44.98,5.83-11.49,16.08-21.34,28.95-24.11,14.39-3.11,29.27,2.84,39.66,12.78s16.85,22.87,19.99,36.41c3.2,13.83,2.64,28.82-3.16,41.9-.72,1.62-1.52,3.21-2.39,4.76-.24,.42,.41,.8,.65,.38h0Z"/>
    <path class="cls-29" d="M1509.32,440.96c3.25,9.69,10.49,17.81,19.75,22.12,.43,.2,.82-.44,.38-.65-9.09-4.23-16.21-12.16-19.41-21.67-.15-.46-.88-.26-.72,.2h0Z"/>
    <path class="cls-29" d="M1512.37,409.38c.84-6.96,5.2-12.96,10.97-16.78s13.16-5.43,20.21-4.22c15.7,2.71,26.82,16.01,31.71,30.47,2.55,7.55,3.92,15.69,4.13,23.65,.16,6.23-.64,13.62-5.32,18.23-5.86,5.77-15.35,3.82-22.04,.68-6.86-3.22-12.61-8.52-17.16-14.51-4.82-6.34-8.87-13.86-9.66-21.89-.37-3.77-.2-8.44,1.84-11.76,2.47-4.03,7.72-2.75,10.76-.18,1.44,1.22,2.65,2.69,3.85,4.14,.31,.37,.83-.16,.53-.53-2.4-2.92-5.12-6.12-9.08-6.7-3.71-.54-6.46,1.49-7.63,4.94-2.77,8.15-.26,17.14,3.65,24.46s9.15,13.67,15.64,18.51,14.53,8.3,22.41,7.05c7.39-1.18,11.27-7.55,12.45-14.44,1.34-7.77,.21-16.11-1.42-23.74-3.45-16.19-12.81-32-29.15-37.72-7.09-2.48-14.8-2.48-21.72,.54-6.47,2.83-12.05,8.09-14.52,14.79-.6,1.62-.97,3.29-1.18,5-.06,.48,.69,.47,.75,0h0Z"/>
    <path class="cls-29" d="M1606.8,465.17c9.4,.22,17.33,6.33,22.15,14.06,4.83,7.74,8.25,17.96,5.95,27.07-1.18,4.67-3.85,8.95-7.94,11.58-.4,.26-.03,.91,.38,.65,7.94-5.1,10.07-15.1,8.47-23.88-1.71-9.34-6.63-19.02-14.28-24.85-4.25-3.23-9.36-5.25-14.72-5.38-.48-.01-.48,.74,0,.75h0Z"/>
    <path class="cls-29" d="M1616.96,489.64c6.19,6.24,6.25,17.23,.11,23.53-.34,.35,.19,.88,.53,.53,6.42-6.59,6.37-18.06-.11-24.59-.34-.34-.87,.19-.53,.53h0Z"/>
    <path class="cls-29" d="M1504.65,459.42c-7.47-7.14-17.73-11.01-28.04-10.93-10.17,.08-19.8,4.19-26.96,11.4s-11.5,16.85-11.73,26.92c-.26,11.25,4.41,22.3,11.85,30.62,8.54,9.55,20.56,15.46,32.99,18,.47,.1,.67-.63,.2-.72-10.74-2.2-21.09-6.87-29.21-14.32s-13.82-17.82-14.9-28.9c-1.98-20.4,13.55-39.94,34.05-42.04,11.3-1.16,22.99,2.64,31.23,10.51,.35,.33,.88-.2,.53-.53h0Z"/>
    <path class="cls-29" d="M1537.94,478c13.4,10.81,27.64,22.44,33.44,39.29,1.57,4.57,2.41,9.36,2.31,14.2,0,.48,.74,.48,.75,0,.35-17.83-11.29-32.68-23.93-43.97-3.9-3.48-7.97-6.77-12.04-10.05-.37-.3-.91,.23-.53,.53h0Z"/>
    <path class="cls-29" d="M1576.06,510.71c8.83,9.27,9.75,24.66,2.15,34.95-.29,.39,.36,.76,.65,.38,7.8-10.56,6.77-26.36-2.27-35.86-.33-.35-.86,.18-.53,.53h0Z"/>
    <path class="cls-29" d="M1540.54,501.87c-7.69-10.89-18.12-19.76-30.11-25.61-5.73-2.8-11.96-5.2-18.3-6.13-5.29-.78-11.38-.59-15.76,2.87-5.13,4.05-5.68,11.21-3.57,17.01,2.41,6.61,7.5,12.32,12.2,17.43s10.19,10.07,15.94,14.34c2.94,2.19,5.99,4.23,9.13,6.13,2.87,1.73,5.81,3.48,9,4.57,2.78,.95,5.97,1.44,8.75,.24,2.47-1.07,4.12-3.32,4.65-5.93,1.27-6.21-2.86-11.3-7.56-14.77-1.41-1.04-2.89-1.99-4.38-2.94-.41-.26-.78,.39-.38,.65,5.17,3.3,11.33,7.37,11.76,14.13,.18,2.84-.75,5.85-3.19,7.51-2.7,1.84-6.14,1.47-9.09,.52s-5.9-2.65-8.65-4.29c-2.91-1.73-5.74-3.59-8.48-5.58-5.35-3.87-10.35-8.21-14.95-12.94s-9.2-9.85-12.38-15.63-4.49-13.65,.5-18.81c3.85-3.98,9.9-4.49,15.11-3.91,6.02,.68,11.98,2.86,17.47,5.37,12.61,5.77,23.62,14.85,31.62,26.18,.28,.39,.93,.02,.65-.38h0Z"/>
    <path class="cls-29" d="M1477.68,554.08c14.89,8.58,32.51,12.1,49.56,10.07,4.76-.57,9.46-1.57,14.04-3,.46-.14,.26-.87-.2-.72-16.15,5.02-33.8,4.63-49.77-.93-4.6-1.6-9.03-3.64-13.26-6.07-.42-.24-.8,.41-.38,.65h0Z"/>
    <path class="cls-29" d="M1551.71,557.03c2.7-.55,5.4-1.09,8.1-1.64,.47-.1,.27-.82-.2-.72-2.7,.55-5.4,1.09-8.1,1.64-.47,.1-.27,.82,.2,.72h0Z"/>
    <path class="cls-29" d="M1600.44,564.81c11.18,4.09,24.12,2.33,33.8-4.6,.39-.28,.01-.93-.38-.65-9.54,6.83-22.21,8.55-33.22,4.52-.45-.17-.65,.56-.2,.72h0Z"/>
    <path class="cls-29" d="M1622.86,542.44c4.47,.11,9.78,.2,13.38,3.27,2.81,2.4,4.54,7.13,1.93,10.29-.31,.37,.22,.9,.53,.53,2.73-3.3,1.36-8.15-1.47-10.93-3.7-3.63-9.51-3.79-14.37-3.91-.48-.01-.48,.74,0,.75h0Z"/>
    <path class="cls-29" d="M1339.02,331.97c19.02-3.45,38.58-3.5,57.62-.12,.47,.08,.67-.64,.2-.72-19.17-3.4-38.86-3.36-58.02,.12-.47,.09-.27,.81,.2,.72h0Z"/>
    <path class="cls-29" d="M1348.57,327.11c12.58-1.79,25.51-3.51,38.05-.56,.47,.11,.67-.61,.2-.72-12.68-2.98-25.73-1.25-38.45,.56-.48,.07-.27,.79,.2,.72h0Z"/>
    <path class="cls-29" d="M1369.96,217.74c.26,6.62,.35,13.25,.27,19.87,0,.48,.74,.48,.75,0,.08-6.63-.01-13.25-.27-19.87-.02-.48-.77-.48-.75,0h0Z"/>
    <path class="cls-29" d="M1369.69,244.36v6.38c0,.48,.75,.48,.75,0v-6.38c0-.48-.75-.48-.75,0h0Z"/>
    <path class="cls-29" d="M1311.65,231.78c4.4,7.61,8.8,15.22,13.2,22.83,.24,.42,.89,.04,.65-.38-4.4-7.61-8.8-15.22-13.2-22.83-.24-.42-.89-.04-.65,.38h0Z"/>
    <path class="cls-29" d="M1329.24,261.42l1.13,1.5c.06,.08,.12,.14,.22,.17,.09,.02,.21,.01,.29-.04,.15-.1,.26-.35,.13-.51l-1.13-1.5c-.06-.08-.12-.14-.22-.17-.09-.02-.21-.01-.29,.04-.15,.1-.26,.35-.13,.51h0Z"/>
    <path class="cls-29" d="M1365.92,320.71c2.46-.32,4.96-.24,7.39,.26,.47,.1,.67-.63,.2-.72-2.5-.51-5.06-.61-7.59-.28-.47,.06-.48,.81,0,.75h0Z"/>
    <path class="cls-29" d="M1429.22,229.81c-6.52,8.74-13.04,17.47-19.56,26.21-.29,.39,.36,.76,.65,.38,6.52-8.74,13.04-17.47,19.56-26.21,.29-.39-.36-.76-.65-.38h0Z"/>
    <path class="cls-29" d="M1406.45,261.51c-.01,.1-.03,.19-.06,.29-.01,.05-.03,.1-.05,.15,0,.02-.02,.04-.02,.06-.02,.06-.02,.01,0,0,0,0-.03,.06-.03,.07-.01,.02-.02,.05-.04,.07-.02,.04-.04,.08-.07,.12-.03,.05-.06,.09-.09,.14-.01,.02-.03,.04-.04,.05-.02,.02-.01,.01,.02-.02,0,.01-.02,.02-.03,.03-.06,.08-.13,.15-.2,.22-.04,.03-.07,.07-.11,.1-.02,.02-.04,.04-.06,.05,.04-.02,.04-.03,0,0-.08,.06-.16,.11-.25,.16-.04,.02-.09,.04-.13,.07-.08,.04,.08-.03,0,0-.03,0-.05,.02-.08,.03-.18,.07-.33,.26-.26,.46,.06,.18,.26,.33,.46,.26,.91-.32,1.63-1.14,1.77-2.11,.01-.1,.02-.19-.04-.29-.05-.08-.13-.15-.22-.17-.18-.04-.43,.05-.46,.26h0Z"/>
    <path class="cls-29" d="M1433.33,293.54c1.15-.79,2.38-1.47,3.65-2.03,.19-.08,.23-.35,.13-.51-.11-.19-.33-.22-.51-.13-1.28,.56-2.5,1.24-3.65,2.03-.17,.11-.24,.33-.13,.51,.1,.17,.35,.25,.51,.13h0Z"/>
    <path class="cls-29" d="M1443.78,287.47c8.59-5.31,17.21-10.56,25.87-15.75,.41-.25,.04-.9-.38-.65-8.66,5.19-17.29,10.44-25.87,15.75-.41,.25-.03,.9,.38,.65h0Z"/>
    <path class="cls-29" d="M1270.04,269.96c2.26,1.24,4.51,2.48,6.77,3.72,.42,.23,.8-.41,.38-.65-2.26-1.24-4.51-2.48-6.77-3.72-.42-.23-.8,.41-.38,.65h0Z"/>
    <path class="cls-29" d="M1287.69,280.42c4.78,2.75,9.45,5.69,14,8.8,.4,.27,.78-.38,.38-.65-4.55-3.11-9.22-6.05-14-8.8-.42-.24-.8,.41-.38,.65h0Z"/>
    <path class="cls-29" d="M1251.55,323.24c8.38-.37,16.76-.75,25.14-1.12,.48-.02,.48-.77,0-.75-8.38,.37-16.76,.75-25.14,1.12-.48,.02-.48,.77,0,.75h0Z"/>
    <path class="cls-29" d="M1282.79,322.36l4.88-.68c.2-.03,.31-.28,.26-.46-.06-.22-.26-.29-.46-.26l-4.88,.68c-.2,.03-.31,.28-.26,.46,.06,.22,.26,.29,.46,.26h0Z"/>
    <path class="cls-29" d="M1444.71,324.04c9.42,1.08,19.01,.86,28.48,1.05,.48,0,.48-.74,0-.75-9.47-.19-19.06,.03-28.48-1.05-.48-.05-.47,.7,0,.75h0Z"/>
    <path class="cls-29" d="M1478.7,325.84c1.5,.23,3.01,.47,4.51,.7,.2,.03,.4-.05,.46-.26,.05-.18-.06-.43-.26-.46-1.5-.23-3.01-.47-4.51-.7-.2-.03-.4,.05-.46,.26-.05,.18,.06,.43,.26,.46h0Z"/>
    <path class="cls-29" d="M1297.07,393.02c9.01-7.85,17.69-16.07,26.02-24.64,.34-.35-.19-.88-.53-.53-8.32,8.57-17,16.8-26.02,24.64-.36,.32,.17,.85,.53,.53h0Z"/>
    <path class="cls-29" d="M1341.13,383.08c-6.81,11.09-13.63,22.17-20.44,33.26-.25,.41,.4,.79,.65,.38,6.81-11.09,13.63-22.17,20.44-33.26,.25-.41-.4-.79-.65-.38h0Z"/>
    <path class="cls-29" d="M1356.69,392.4c-1.28,7.99-2.36,16.02-3.23,24.07-.05,.48,.7,.48,.75,0,.87-7.98,1.94-15.94,3.21-23.87,.08-.47-.65-.68-.72-.2h0Z"/>
    <path class="cls-29" d="M1352.48,422.01c-.22,1.01-.45,2.01-.67,3.02-.04,.2,.06,.41,.26,.46,.19,.05,.42-.06,.46-.26,.22-1.01,.45-2.01,.67-3.02,.04-.2-.06-.41-.26-.46-.19-.05-.42,.06-.46,.26h0Z"/>
    <path class="cls-29" d="M1378.83,391.76c1.04,9.71,2.51,19.36,4.41,28.94,.09,.47,.82,.27,.72-.2-1.88-9.51-3.34-19.1-4.38-28.74-.05-.47-.8-.48-.75,0h0Z"/>
    <path class="cls-29" d="M1399.81,382.23c1.2,1.27,2.17,2.76,2.84,4.37,.08,.19,.25,.32,.46,.26,.18-.05,.34-.27,.26-.46-.72-1.74-1.74-3.33-3.03-4.7-.33-.35-.86,.18-.53,.53h0Z"/>
    <path class="cls-29" d="M1405.35,391.18c3.62,7.89,7.75,15.53,12.36,22.89,.26,.41,.91,.03,.65-.38-4.61-7.35-8.74-15-12.36-22.89-.2-.44-.85-.06-.65,.38h0Z"/>
    <path class="cls-29" d="M1414.84,369.44c9.09,7.23,17.81,14.91,26.12,23.02,.35,.34,.88-.19,.53-.53-8.31-8.11-17.03-15.8-26.12-23.02-.37-.3-.91,.23-.53,.53h0Z"/>
    <path class="cls-29" d="M1299.34,399.67c1.98,7.09,8.99,12.26,16.35,12.03,.48-.02,.48-.77,0-.75-7.03,.22-13.74-4.7-15.63-11.48-.13-.46-.85-.27-.72,.2h0Z"/>
    <path class="cls-29" d="M1307.85,404.06c1.31,1.54,3.2,2.5,5.21,2.71,.2,.02,.38-.19,.38-.38,0-.22-.17-.35-.38-.38-1.82-.19-3.5-1.11-4.68-2.49-.31-.37-.84,.16-.53,.53h0Z"/>
    <path class="cls-29" d="M1281.35,372.23c.03,4.05,1.02,8.06,2.93,11.64,1.54,2.9,4.06,6.59,7.78,6.37,.48-.03,.48-.78,0-.75-3.63,.22-6.01-3.73-7.41-6.54-1.66-3.33-2.52-7.01-2.54-10.72,0-.48-.75-.48-.75,0h0Z"/>
    <path class="cls-29" d="M1287.55,378.23c-.13,1.9,.86,3.79,2.47,4.79,.41,.26,.79-.39,.38-.65-1.4-.87-2.21-2.51-2.1-4.15,.03-.48-.72-.48-.75,0h0Z"/>
    <path class="cls-29" d="M1326.28,420.77c4.82,7.49,14.99,9.51,22.28,4.36,.39-.28,.02-.93-.38-.65-6.95,4.9-16.65,3.07-21.26-4.1-.26-.4-.91-.03-.65,.38h0Z"/>
    <path class="cls-29" d="M1334.14,419.65c1.19,1.86,3.48,2.83,5.65,2.42,.47-.09,.27-.81-.2-.72-1.83,.35-3.8-.52-4.8-2.08-.26-.41-.91-.03-.65,.38h0Z"/>
    <path class="cls-29" d="M1357.75,428.69c2.55,2.86,6.54,3.94,10.26,3.4,4.31-.62,8.01-3.3,10.95-6.37,.33-.35-.2-.88-.53-.53-2.72,2.85-6.07,5.33-10.02,6.08-3.64,.69-7.62-.29-10.13-3.1-.32-.36-.85,.17-.53,.53h0Z"/>
    <path class="cls-29" d="M1362.74,426.19c1.63,1.08,3.69,1.4,5.57,.87,.46-.13,.27-.85-.2-.72-1.7,.47-3.53,.17-4.99-.8-.4-.27-.78,.38-.38,.65h0Z"/>
    <path class="cls-29" d="M1392.41,426.11c4.11,2.14,9.07,2.34,13.29,.38,3.79-1.76,6.68-5.17,7.93-9.14,.15-.46-.58-.66-.72-.2-1.17,3.7-3.82,6.84-7.31,8.56-4.01,1.98-8.86,1.8-12.81-.25-.43-.22-.81,.42-.38,.65h0Z"/>
    <path class="cls-29" d="M1397.82,423.22c1.81,.22,3.67-.04,5.35-.74,.19-.08,.32-.25,.26-.46-.05-.18-.27-.34-.46-.26-1.63,.68-3.4,.93-5.15,.71-.2-.02-.37,.19-.38,.38,0,.22,.17,.35,.38,.38h0Z"/>
    <path class="cls-29" d="M1426.8,413.55c3.57-.68,6.81-2.71,8.96-5.64,2.31-3.15,3.15-7.19,2.48-11.01-.08-.47-.81-.27-.72,.2,1.28,7.33-3.65,14.35-10.92,15.73-.47,.09-.27,.81,.2,.72h0Z"/>
    <path class="cls-29" d="M1428.75,407.05c.75-.37,1.5-.74,2.26-1.11,.18-.09,.24-.35,.13-.51-.12-.18-.32-.23-.51-.13l-2.26,1.11c-.18,.09-.24,.35-.13,.51,.12,.18,.32,.23,.51,.13h0Z"/>
    <path class="cls-29" d="M1453.3,371.44c1.52,3.79,1.39,8.15-.57,11.77-1.73,3.18-4.7,5.57-8.15,6.63-.46,.14-.26,.87,.2,.72,3.63-1.12,6.78-3.62,8.6-6.97,2.05-3.78,2.24-8.37,.64-12.34-.18-.44-.9-.25-.72,.2h0Z"/>
    <path class="cls-29" d="M1447.71,381.51c-.19,1.06-.67,2.05-1.41,2.83-.33,.35,.2,.88,.53,.53,.82-.87,1.39-1.98,1.6-3.16,.04-.2-.05-.4-.26-.46-.18-.05-.43,.06-.46,.26h0Z"/>
    <path class="cls-29" d="M1342.23,345.32c1.5,3.41,3.58,6.53,6.14,9.24,.33,.35,.86-.18,.53-.53-2.51-2.66-4.54-5.74-6.02-9.09-.19-.44-.84-.06-.65,.38h0Z"/>
    <path class="cls-29" d="M1357.05,360.87c.68,.61,1.6,.94,2.51,.86,.19-.02,.38-.16,.38-.38,0-.19-.17-.39-.38-.38-.19,.02-.39,.01-.58,0-.05,0-.05,0,0,0-.02,0-.05,0-.07-.01-.05,0-.1-.02-.14-.03-.09-.02-.19-.05-.28-.08-.05-.02-.09-.03-.14-.05-.02,0-.05-.02-.07-.03,.03,.01,.03,.01-.01,0-.09-.04-.17-.08-.26-.13s-.17-.1-.24-.16c-.02-.01-.04-.03-.06-.04,.03,.02,.02,.02-.01,0-.04-.03-.07-.06-.11-.09-.15-.13-.39-.16-.53,0-.13,.14-.16,.39,0,.53h0Z"/>
    <path class="cls-29" d="M1365.19,363.61h2.25c.2,0,.38-.17,.38-.38s-.16-.38-.38-.38h-2.25c-.2,0-.38,.17-.38,.38s.16,.38,.38,.38h0Z"/>
    <path class="cls-29" d="M1378.46,362.21c9.35-3.9,16.06-12.9,17.12-22.98,.05-.48-.7-.48-.75,0-1.02,9.71-7.56,18.49-16.57,22.25-.44,.18-.25,.91,.2,.72h0Z"/>
    <path class="cls-29" d="M369.31,182.58c14.71,7.83,29.41,15.66,44.12,23.49l12.51,6.66c.43,.23,.81-.42,.38-.65-14.71-7.83-29.41-15.66-44.12-23.49l-12.51-6.66c-.43-.23-.81,.42-.38,.65h0Z"/>
    <path class="cls-29" d="M432.38,216.04c.48,0,.48-.75,0-.75s-.48,.75,0,.75h0Z"/>
    <path class="cls-29" d="M412.23,113.18c11.97,12.74,23.71,25.68,35.22,38.84,3.26,3.73,6.51,7.48,9.74,11.25,.31,.37,.84-.17,.53-.53-11.38-13.27-22.98-26.34-34.82-39.19-3.36-3.65-6.74-7.28-10.13-10.89-.33-.35-.86,.18-.53,.53h0Z"/>
    <path class="cls-29" d="M459.68,165.87c2.96,3.41,5.93,6.81,8.89,10.22,.32,.36,.85-.17,.53-.53-2.96-3.41-5.93-6.81-8.89-10.22-.32-.36-.85,.17-.53,.53h0Z"/>
    <path class="cls-29" d="M493.51,98.23c7.08,15.76,13.8,31.68,20.16,47.75,.18,.44,.9,.25,.72-.2-6.38-16.13-13.13-32.11-20.24-47.93-.2-.44-.84-.06-.65,.38h0Z"/>
    <path class="cls-29" d="M564.71,98.11c.12,13.69,.24,27.38,.36,41.06,0,.48,.75,.48,.75,0-.12-13.69-.24-27.38-.36-41.06,0-.48-.75-.48-.75,0h0Z"/>
    <path class="cls-29" d="M633.56,115.98c-5.94,12.31-12.14,24.5-18.58,36.56-.23,.43,.42,.8,.65,.38,6.44-12.06,12.63-24.25,18.58-36.56,.21-.43-.44-.81-.65-.38h0Z"/>
    <path class="cls-29" d="M663.4,177.82c7.66-7.53,15.32-15.05,22.98-22.58,.34-.34-.19-.87-.53-.53-7.66,7.53-15.32,15.05-22.98,22.58-.34,.34,.19,.87,.53,.53h0Z"/>
    <path class="cls-29" d="M373.29,329.48c2.26-.27,4.52-.54,6.79-.81,.47-.06,.48-.81,0-.75-2.26,.27-4.52,.54-6.79,.81-.47,.06-.48,.81,0,.75h0Z"/>
    <path class="cls-29" d="M385.23,327.44c11.98-2.16,23.96-4.32,35.95-6.48,.47-.09,.27-.81-.2-.72-11.98,2.16-23.96,4.32-35.95,6.48-.47,.09-.27,.81,.2,.72h0Z"/>
    <path class="cls-29" d="M358.12,259.43c16.97,1.94,33.84,4.71,50.55,8.28,.47,.1,.67-.62,.2-.72-16.77-3.58-33.71-6.35-50.75-8.3-.48-.05-.47,.7,0,.75h0Z"/>
    <path class="cls-29" d="M414.83,268.37l3.37,.56c.2,.03,.4-.05,.46-.26,.05-.18-.06-.43-.26-.46l-3.37-.56c-.2-.03-.4,.05-.46,.26-.05,.18,.06,.43,.26,.46h0Z"/>
    <path class="cls-29" d="M617.77,428.44c4.18,9.35,8.35,18.7,12.53,28.05,.2,.44,.84,.06,.65-.38-4.18-9.35-8.35-18.7-12.53-28.05-.2-.44-.84-.06-.65,.38h0Z"/>
    <path class="cls-29" d="M632.96,465l1.14,2.24c.09,.18,.35,.24,.51,.13,.18-.12,.23-.33,.13-.51l-1.14-2.24c-.09-.18-.35-.24-.51-.13-.18,.12-.23,.33-.13,.51h0Z"/>
    <path class="cls-29" d="M656.97,405.63c5.34,5.92,10.69,11.83,16.03,17.75,.32,.36,.85-.17,.53-.53-5.34-5.92-10.69-11.83-16.03-17.75-.32-.36-.85,.17-.53,.53h0Z"/>
    <path class="cls-11" d="M471.2,350.67c-17.7-29.15-20.74-69.61-8.26-101.26,3.75-9.51,9.07-18.42,15.93-26.02"/>
    <path class="cls-10" d="M483.64,367.04c-2.36-2.53-4.59-5.19-6.68-7.95"/>
    <path class="cls-11" d="M623.75,385.9c-40.93,27.71-98.93,19.71-134.77-13.52"/>
    <path class="cls-11" d="M665.43,340.74c-7.72,15.74-19.43,29.06-33.59,39.33"/>
    <path class="cls-11" d="M649.57,219.52c20.57,23.44,29.7,55.88,26,86.69-1.08,8.97-3.25,17.81-6.51,26.24"/>
    <path class="cls-11" d="M491.81,209.55c41-38.94,112-36.94,151.16,2.96"/>
    <circle class="cls-12" cx="566.06" cy="291.86" r="11.5"/>
    <g class="cls-19">
      <g>
        <path class="cls-20" d="M32.69,512.08c-.11,0-.21,0-.32,0-5.68-.02-11.4-.51-17.01-1.47l-.23-.07c-3.17-1.32-7.63-3.98-10.85-9.17-3.36-5.4-3.72-10.93-4.04-15.8H.23s1.05-.07,1.05-.07l-1.05,.07c-.32-4.85-.62-9.44,1.37-14.32,3.06-7.49,9.39-10.89,12.9-12.25l.15-.05c8.81-1.99,17.64-2.49,26.26-1.48,9.75,1.14,16.79,1.96,22.07,8.4,3.63,4.43,5.79,10.87,6.07,18.13,.09,2.44,.29,7.52-2.03,12.86-4.36,10.04-14.05,13.05-16.91,13.73-5.79,.99-11.62,1.49-17.41,1.49Zm-16.86-3.53c5.46,.93,11.03,1.41,16.55,1.42,5.77,.01,11.6-.47,17.31-1.44,2.56-.61,11.43-3.36,15.4-12.51,2.13-4.9,1.94-9.65,1.86-11.94-.26-6.8-2.25-12.79-5.59-16.87-4.53-5.52-10.2-6.42-20.68-7.64-8.36-.98-16.93-.5-25.48,1.42-3.2,1.25-8.9,4.34-11.64,11.05-1.81,4.43-1.54,8.58-1.22,13.38l-1.05,.07,1.05-.07c.32,4.85,.65,9.87,3.73,14.83,2.9,4.66,6.89,7.07,9.76,8.29Z"/>
        <path class="cls-20" d="M32.12,506.98c-.08,0-.17,0-.25,0-4.54-.01-9.12-.41-13.61-1.18l-.23-.07c-2.56-1.06-6.15-3.21-8.76-7.4-2.71-4.35-3-8.79-3.26-12.71-.26-3.9-.5-7.58,1.11-11.52,2.47-6.05,7.59-8.8,10.41-9.89l.15-.05c7.05-1.59,14.13-1.99,21.03-1.18,7.83,.92,13.48,1.58,17.75,6.78,2.93,3.57,4.67,8.76,4.89,14.59,.08,1.96,.23,6.05-1.64,10.35-3.52,8.1-11.33,10.53-13.64,11.08-4.64,.8-9.31,1.19-13.95,1.19Zm-13.39-3.24c4.34,.73,8.76,1.11,13.14,1.13,4.62,.02,9.23-.37,13.77-1.15,2-.48,9-2.65,12.13-9.85,1.68-3.87,1.53-7.62,1.46-9.43-.21-5.38-1.77-10.12-4.41-13.34-3.56-4.34-8.06-5.05-16.36-6.02-6.64-.78-13.45-.4-20.24,1.13-2.53,.99-7,3.42-9.15,8.7-1.42,3.49-1.21,6.78-.96,10.59h0c.25,3.85,.51,7.83,2.94,11.73,2.27,3.66,5.4,5.56,7.67,6.52Z"/>
        <path class="cls-20" d="M9.29,493.24c-.3-2.42,.25-4.93,1.71-6.91,.72-.98,1.71-1.84,2.85-2.28,1.32-.52,2.62-.32,3.84,.36,2.07,1.15,3.57,3.2,4.04,5.51,.44,2.14-.2,4.75-1.93,6.18-.46,.38-1.1,.78-1.72,.71s-1.3-.56-1.81-.91c-1.2-.82-2.18-1.92-2.94-3.15-.72-1.15-2.54-.09-1.82,1.06,.9,1.45,2.03,2.7,3.41,3.7,1.32,.97,2.87,1.77,4.52,1.18,2.96-1.04,4.5-4.42,4.53-7.37,.03-3.11-1.6-6.08-4.03-7.95-1.33-1.02-2.98-1.82-4.7-1.75s-3.29,.85-4.56,1.96c-2.68,2.33-3.93,6.18-3.5,9.65,.07,.57,.43,1.05,1.05,1.05,.52,0,1.12-.49,1.05-1.05h0Z"/>
        <path class="cls-20" d="M19.31,498.75c6.59,2.41,13.68,3.11,20.62,2.09,3.03-.45,6.33-1.1,8.99-2.7,2.84-1.71,4.03-4.47,4.28-7.69,.32-4.09,0-8.25-.66-12.29-.22-1.34-2.25-.77-2.03,.56,.54,3.35,.76,6.75,.66,10.14-.09,2.93-.54,5.73-3.21,7.39-2.38,1.48-5.39,2.05-8.12,2.48-3.09,.5-6.26,.59-9.38,.35-3.62-.29-7.18-1.11-10.59-2.36-1.28-.47-1.83,1.57-.56,2.03h0Z"/>
        <path class="cls-20" d="M34.84,494.26c.17-4.91,.34-9.82,.51-14.73,.05-1.36-2.06-1.35-2.11,0-.17,4.91-.34,9.82-.51,14.73-.05,1.36,2.06,1.35,2.11,0h0Z"/>
        <path class="cls-20" d="M34.05,480.25c1.64,2,3.28,3.99,4.92,5.99,.52,.63,1.56,.24,1.76-.46,1.22-4.41,2.45-8.82,3.67-13.22l-1.55,.63c2.87,1.41,5.51,3.21,7.87,5.37,1,.91,2.5-.57,1.49-1.49-2.49-2.27-5.27-4.21-8.3-5.7-.6-.3-1.36-.06-1.55,.63-1.22,4.41-2.45,8.82-3.67,13.22l1.76-.46c-1.64-2-3.28-3.99-4.92-5.99-.86-1.05-2.34,.45-1.49,1.49h0Z"/>
      </g>
    </g>
    <g class="cls-8">
      <path class="cls-16" d="M1335.69,130.08c-.11,0-.21,0-.32,0-5.68-.02-11.4-.51-17.01-1.47l-.23-.07c-3.17-1.32-7.63-3.98-10.85-9.17-3.36-5.4-3.72-10.93-4.04-15.8h0s1.05-.07,1.05-.07l-1.05,.07c-.32-4.85-.62-9.44,1.37-14.32,3.06-7.49,9.39-10.89,12.9-12.25l.15-.05c8.81-1.99,17.64-2.49,26.26-1.48,9.75,1.14,16.79,1.96,22.07,8.4,3.63,4.43,5.79,10.87,6.07,18.13,.09,2.44,.29,7.52-2.03,12.86-4.36,10.04-14.05,13.05-16.91,13.73-5.79,.99-11.62,1.49-17.41,1.49Zm-16.86-3.53c5.46,.93,11.03,1.41,16.55,1.42,5.77,.01,11.6-.47,17.31-1.44,2.56-.61,11.43-3.36,15.4-12.51,2.13-4.9,1.94-9.65,1.86-11.94-.26-6.8-2.25-12.79-5.59-16.87-4.53-5.52-10.2-6.42-20.68-7.64-8.36-.98-16.93-.5-25.48,1.42-3.2,1.25-8.9,4.34-11.64,11.05-1.81,4.43-1.54,8.58-1.22,13.38l-1.05,.07,1.05-.07c.32,4.85,.65,9.87,3.73,14.83,2.9,4.66,6.89,7.07,9.76,8.29Z"/>
      <path class="cls-16" d="M1335.12,124.98c-.08,0-.17,0-.25,0-4.54-.01-9.12-.41-13.61-1.18l-.23-.07c-2.56-1.06-6.15-3.21-8.76-7.4-2.71-4.35-3-8.79-3.26-12.71-.26-3.9-.5-7.58,1.11-11.52,2.47-6.05,7.59-8.8,10.41-9.89l.15-.05c7.05-1.59,14.13-1.99,21.03-1.18,7.83,.92,13.48,1.58,17.75,6.78,2.93,3.57,4.67,8.76,4.89,14.59,.08,1.96,.23,6.05-1.64,10.35-3.52,8.1-11.33,10.53-13.64,11.08-4.64,.8-9.31,1.19-13.95,1.19Zm-13.39-3.24c4.34,.73,8.76,1.11,13.14,1.13,4.62,.02,9.23-.37,13.77-1.15,2-.48,9-2.65,12.13-9.85,1.68-3.87,1.53-7.62,1.46-9.43-.21-5.38-1.77-10.12-4.41-13.34-3.56-4.34-8.06-5.05-16.36-6.02-6.64-.78-13.45-.4-20.24,1.13-2.53,.99-7,3.42-9.15,8.7-1.42,3.49-1.21,6.78-.96,10.59h0c.25,3.85,.51,7.83,2.94,11.73,2.27,3.66,5.4,5.56,7.67,6.52Z"/>
      <path class="cls-16" d="M1312.29,111.24c-.3-2.42,.25-4.93,1.71-6.91,.72-.98,1.71-1.84,2.85-2.28,1.32-.52,2.62-.32,3.84,.36,2.07,1.15,3.57,3.2,4.04,5.51,.44,2.14-.2,4.75-1.93,6.18-.46,.38-1.1,.78-1.72,.71s-1.3-.56-1.81-.91c-1.2-.82-2.18-1.92-2.94-3.15-.72-1.15-2.54-.09-1.82,1.06,.9,1.45,2.03,2.7,3.41,3.7s2.87,1.77,4.52,1.18c2.96-1.04,4.5-4.42,4.53-7.37,.03-3.11-1.6-6.08-4.03-7.95-1.33-1.02-2.98-1.82-4.7-1.75s-3.29,.85-4.56,1.96c-2.68,2.33-3.93,6.18-3.5,9.65,.07,.57,.43,1.05,1.05,1.05,.52,0,1.12-.49,1.05-1.05h0Z"/>
      <path class="cls-16" d="M1322.31,116.75c6.59,2.41,13.68,3.11,20.62,2.09,3.03-.45,6.33-1.1,8.99-2.7,2.84-1.71,4.03-4.47,4.28-7.69,.32-4.09,0-8.25-.66-12.29-.22-1.34-2.25-.77-2.03,.56,.54,3.35,.76,6.75,.66,10.14-.09,2.93-.54,5.73-3.21,7.39-2.38,1.48-5.39,2.05-8.12,2.48-3.09,.5-6.26,.59-9.38,.35-3.62-.29-7.18-1.11-10.59-2.36-1.28-.47-1.83,1.57-.56,2.03h0Z"/>
      <path class="cls-16" d="M1337.84,112.26l.51-14.73c.05-1.36-2.06-1.35-2.11,0-.17,4.91-.34,9.82-.51,14.73-.05,1.36,2.06,1.35,2.11,0h0Z"/>
      <path class="cls-16" d="M1337.05,98.25c1.64,2,3.28,3.99,4.92,5.99,.52,.63,1.56,.24,1.76-.46,1.22-4.41,2.45-8.82,3.67-13.22l-1.55,.63c2.87,1.41,5.51,3.21,7.87,5.37,1,.91,2.5-.57,1.49-1.49-2.49-2.27-5.27-4.21-8.3-5.7-.6-.3-1.36-.06-1.55,.63-1.22,4.41-2.45,8.82-3.67,13.22l1.76-.46c-1.64-2-3.28-3.99-4.92-5.99-.86-1.05-2.34,.45-1.49,1.49h0Z"/>
    </g>
  </g>
</svg>