<?xml version="1.0" encoding="UTF-8"?>
<svg id="_Слой_2" data-name="Слой 2" xmlns="http://www.w3.org/2000/svg" viewBox="0 0 1639.69 585.02">
  <defs>
    <style>
      .cls-1 {
        fill: #242428;
      }

      .cls-2 {
        opacity: .5;
      }

      .cls-3 {
        opacity: .7;
        stroke-width: 2px;
      }

      .cls-3, .cls-4, .cls-5 {
        fill: none;
        stroke-miterlimit: 10;
      }

      .cls-3, .cls-5 {
        stroke: gray;
      }

      .cls-6 {
        fill: #353544;
      }

      .cls-4 {
        stroke: #4d4c63;
        stroke-width: 7px;
      }

      .cls-7 {
        opacity: .24;
      }

      .cls-7, .cls-8 {
        fill: #ffeb62;
      }

      .cls-9 {
        fill: #3f3d56;
        opacity: .49;
      }

      .cls-10 {
        fill: #4d4c63;
      }

      .cls-11 {
        fill: #2a2a35;
      }

      .cls-5 {
        opacity: .48;
        stroke-width: 4px;
      }

      .cls-12 {
        fill: #353535;
      }

      .cls-8 {
        opacity: .22;
      }

      .cls-13 {
        fill: gray;
        opacity: .34;
      }

      .cls-14 {
        fill: #1a1a1a;
      }

      .cls-15 {
        fill: #595959;
      }

      .cls-16 {
        fill: #2a2a3d;
      }

      .cls-17 {
        fill: #232330;
      }
    </style>
  </defs>
  <g id="_Слой_3" data-name="Слой 3">
    <ellipse class="cls-16" cx="281.07" cy="217.03" rx="103.01" ry="103.03" transform="translate(-56.9 326.02) rotate(-55.55)"/>
    <ellipse class="cls-2" cx="277.49" cy="147.88" rx="28.19" ry="22.83" transform="translate(-13.5 28.75) rotate(-5.79)"/>
    <ellipse class="cls-2" cx="223.57" cy="160.29" rx="8.86" ry="8.83" transform="translate(-15.03 23.37) rotate(-5.79)"/>
  </g>
  <g id="_Слой_2-2" data-name="Слой 2">
    <path class="cls-17" d="M667,443c-5.11-9.92-4.84-21.55,1-30,7.84-11.35,24.64-15.42,39-8,1.57-33.63,13.83-55.45,21-66,9.58-14.1,22.05-32.45,39-31,13.72,1.17,26.15,14.94,32,34,.9-1.39,8.5-12.72,23-14,16.3-1.44,26.33,11.13,27,12,7.54-15.33,21.91-39.12,48-59,15.59-11.88,35.56-27.1,51-21,17.3,6.84,25.62,39.17,18,79,2.93-.2,9.14-.21,16,3,7.26,3.4,11.33,8.58,13,11-.68-3.93-1.44-11.29,1-20,2.32-8.28,6.46-13.99,9-17-1.41-8.38,1.72-16.68,8-21,8.41-5.77,21.47-3.73,29,6-.51-3.31-3.3-23.88,11-41,12.07-14.45,31.73-20.94,51-17,.34-3.12,2.13-16.65,11-21,10.81-5.31,30.9,3.62,42,27,6.88-1.44,17.72-3.18,31-3,7.78,.11,78.08,2.17,114,57,5.76,8.79,14.62,25.02,18,49,8.15-3.27,23.37-7.87,41-4,28.1,6.17,50.53,31.26,58,64,10.33-2.1,17.98-.68,23,1,24.17,8.11,40.15,40.18,39,80,9.15-6.71,20.79-8.43,30-4,12.85,6.18,19.56,23.64,13,40-10.9,4.16-24.35,8.06-40,10-41.42,5.15-75.07-6.24-93-14-13.88,5.27-33.68,11.11-58,13-22.24,1.73-41.13-.38-55-3-14.7,14.5-29.4,23.84-42,30-85.86,42.02-181.31-10.61-196-19-10.13,2.66-21.87,4.92-35,6-31.42,2.59-57.79-2.61-76-8-11.48,3.22-27.62,6.39-47,6-25.3-.51-45.39-6.87-58-12-19.31,7.39-51.62,16.83-92,15-60.58-2.74-103.75-29.21-122-42-10.46-16.2-10.42-36.85,0-52,12.09-17.59,35.95-24.6,57-16Z"/>
    <path class="cls-8" d="M1567.25,51.29c-3.87-.13-8.58-.63-13.82-1.92-4.52-1.11-8.44-2.57-11.72-4.04-5.02-14.11-6.52-38.87-6.27-45.33-.18,6.58-.87,14.56-2.63,23.47-1.69,8.5-3.96,15.76-6.19,21.67-3.02,1.28-6.53,2.53-10.49,3.5-5.24,1.29-9.95,1.79-13.82,1.92,3.48-.16,16,.74,24.46,3.7,2.18,5.84,4.39,12.96,6.04,21.27,1.77,8.9,2.45,16.89,2.63,23.47-.23-6.16,1.12-29,5.61-43.34,8.38-3.5,22.48-4.55,26.21-4.37Z"/>
    <path class="cls-8" d="M1058.25,131.29c-3.87-.13-8.58-.63-13.82-1.92-4.52-1.11-8.44-2.57-11.72-4.04-5.02-14.11-6.52-38.87-6.27-45.33-.18,6.58-.87,14.56-2.63,23.47-1.69,8.5-3.96,15.76-6.19,21.67-3.02,1.28-6.53,2.53-10.49,3.5-5.24,1.29-9.95,1.79-13.82,1.92,3.48-.16,16,.74,24.46,3.7,2.18,5.84,4.39,12.96,6.04,21.27,1.77,8.9,2.45,16.89,2.63,23.47-.23-6.16,1.12-29,5.61-43.34,8.38-3.5,22.48-4.55,26.21-4.37Z"/>
    <path class="cls-8" d="M1129,69.92c-1.71-.06-3.79-.28-6.11-.85-2-.49-3.73-1.14-5.18-1.79-2.22-6.23-2.88-17.18-2.77-20.03-.08,2.91-.38,6.44-1.16,10.37-.75,3.75-1.75,6.96-2.73,9.57-1.33,.57-2.89,1.12-4.64,1.55-2.32,.57-4.39,.79-6.11,.85,1.54-.07,7.07,.33,10.81,1.64,.96,2.58,1.94,5.73,2.67,9.4,.78,3.93,1.08,7.46,1.16,10.37-.1-2.72,.5-12.82,2.48-19.15,3.7-1.54,9.93-2.01,11.58-1.93Z"/>
    <path class="cls-8" d="M1621,400.92c-1.71-.06-3.79-.28-6.11-.85-2-.49-3.73-1.14-5.18-1.79-2.22-6.23-2.88-17.18-2.77-20.03-.08,2.91-.38,6.44-1.16,10.37-.75,3.75-1.75,6.96-2.73,9.57-1.33,.57-2.89,1.12-4.64,1.55-2.32,.57-4.39,.79-6.11,.85,1.54-.07,7.07,.33,10.81,1.64,.96,2.58,1.94,5.73,2.67,9.4,.78,3.93,1.08,7.46,1.16,10.37-.1-2.72,.5-12.82,2.48-19.15,3.7-1.54,9.93-2.01,11.58-1.93Z"/>
    <path class="cls-13" d="M621.53,344.98c-2.52-.09-5.58-.41-8.98-1.25-2.94-.72-5.49-1.67-7.62-2.63-3.26-9.17-4.24-25.27-4.08-29.47-.12,4.28-.56,9.47-1.71,15.26-1.1,5.52-2.57,10.24-4.02,14.09-1.96,.83-4.25,1.64-6.82,2.28-3.41,.84-6.47,1.16-8.98,1.25,2.26-.11,10.4,.48,15.9,2.41,1.42,3.8,2.85,8.43,3.93,13.83,1.15,5.79,1.59,10.98,1.71,15.26-.15-4.01,.73-18.86,3.64-28.17,5.45-2.27,14.62-2.96,17.04-2.84Z"/>
    <path class="cls-13" d="M417.53,152.98c-2.52-.09-5.58-.41-8.98-1.25-2.94-.72-5.49-1.67-7.62-2.63-3.26-9.17-4.24-25.27-4.08-29.47-.12,4.28-.56,9.47-1.71,15.26-1.1,5.52-2.57,10.24-4.02,14.09-1.96,.83-4.25,1.64-6.82,2.28-3.41,.84-6.47,1.16-8.98,1.25,2.26-.11,10.4,.48,15.9,2.41,1.42,3.8,2.85,8.43,3.93,13.83,1.15,5.79,1.59,10.98,1.71,15.26-.15-4.01,.73-18.86,3.64-28.17,5.45-2.27,14.62-2.96,17.04-2.84Z"/>
    <path class="cls-13" d="M788.69,210.24c-3.96-.14-8.77-.65-14.12-1.97-4.62-1.14-8.63-2.63-11.98-4.13-5.13-14.42-6.66-39.73-6.41-46.33-.19,6.72-.88,14.89-2.69,23.99-1.73,8.68-4.05,16.11-6.32,22.15-3.09,1.31-6.68,2.58-10.72,3.58-5.36,1.32-10.17,1.83-14.12,1.97,3.56-.17,16.35,.76,25,3.79,2.23,5.97,4.48,13.25,6.17,21.74,1.81,9.1,2.51,17.26,2.69,23.99-.24-6.3,1.15-29.65,5.73-44.3,8.56-3.57,22.98-4.65,26.79-4.47Z"/>
    <path class="cls-13" d="M1639.69,200.24c-3.96-.14-8.77-.65-14.12-1.97-4.62-1.14-8.63-2.63-11.98-4.13-5.13-14.42-6.66-39.73-6.41-46.33-.19,6.72-.88,14.89-2.69,23.99-1.73,8.68-4.05,16.11-6.32,22.15-3.09,1.31-6.68,2.58-10.72,3.58-5.36,1.32-10.17,1.83-14.12,1.97,3.56-.17,16.35,.76,25,3.79,2.23,5.97,4.48,13.25,6.17,21.74,1.81,9.1,2.51,17.26,2.69,23.99-.24-6.3,1.15-29.65,5.73-44.3,8.56-3.57,22.98-4.65,26.79-4.47Z"/>
    <path class="cls-7" d="M168,117.64c-5.59-.17-12.37-.82-19.93-2.49-6.51-1.44-12.18-3.33-16.91-5.24-7.24-18.28-9.4-50.37-9.05-58.74-.26,8.52-1.25,18.87-3.8,30.41-2.44,11.01-5.71,20.42-8.93,28.08-4.36,1.66-9.42,3.27-15.14,4.54-7.56,1.67-14.35,2.32-19.93,2.49,5.02-.21,23.08,.96,35.29,4.8,3.15,7.57,6.33,16.8,8.71,27.56,2.55,11.54,3.54,21.89,3.8,30.41-.34-7.98,1.62-37.58,8.09-56.16,12.08-4.53,32.43-5.89,37.81-5.66Z"/>
    <circle class="cls-9" cx="1561" cy="138" r="10"/>
    <circle class="cls-9" cx="1217" cy="12" r="10"/>
    <circle class="cls-9" cx="1026" cy="221" r="10"/>
    <circle class="cls-9" cx="10" cy="263" r="10"/>
    <circle class="cls-9" cx="953" cy="113" r="13"/>
    <circle class="cls-9" cx="893" cy="202" r="15"/>
    <circle class="cls-9" cx="1586" cy="465" r="15"/>
    <circle class="cls-9" cx="432" cy="268" r="15"/>
    <g>
      <circle class="cls-5" cx="1321.5" cy="300.13" r="251.49"/>
      <circle class="cls-3" cx="1321" cy="299.73" r="240.69"/>
      <circle class="cls-10" cx="1318.95" cy="295.51" r="157.36"/>
      <g>
        <path class="cls-6" d="M1454.74,217.26c1.02,0,1.86,1.87,1.86,4.18s-.83,4.18-1.86,4.18h-18.97c-.86-1.32-1.76-2.63-2.68-3.93-1.08-1.51-2.18-2.99-3.3-4.43h24.95Z"/>
        <path class="cls-6" d="M1435.76,225.62c23.96,36.65,21.36,75.26,19.04,90.53-.08,.52-.26,1.01-.52,1.45-1.49-3.68-3.8-6.94-6.7-9.56,1.63-17.83,.73-50.86-21.13-81.64-.18-.26-.37-.52-.56-.77h9.87Z"/>
        <path class="cls-6" d="M1454.29,317.6c1.24,3.03,1.91,6.34,1.91,9.8,0,9.37-4.97,17.61-12.41,22.21,.37-3.84,.46-7.52,.3-10.95,2.49-3.08,3.98-7,3.98-11.26,0-3.4-.95-6.59-2.6-9.31l1.81-.49c.6,1.02,1.64,1.77,2.9,1.96,.2,.03,.41,.04,.61,.04,1.46,0,2.78-.79,3.5-2Z"/>
        <path class="cls-6" d="M1454.29,317.6c-.72,1.22-2.05,2-3.5,2-.2,0-.41,0-.61-.04-1.26-.2-2.3-.94-2.9-1.96-.46-.78-.66-1.71-.52-2.68,.29-1.92,.59-4.24,.83-6.89,2.9,2.63,5.21,5.88,6.7,9.56Z"/>
        <path class="cls-6" d="M1447.27,317.6l-1.81,.49c-3.16-5.18-8.86-8.65-15.36-8.65-9.9,0-17.96,8.05-17.96,17.96,0,1.74,.25,3.44,.72,5.03-1.45,3.14-2.75,6.61-3.85,10.32-3.14-4.32-5-9.63-5-15.35,0-13.83,10.81-25.19,24.43-26.05l-.02,.37c-.15,2.24,1.55,4.17,3.8,4.32,.09,0,.18,0,.27,0,2.13,0,3.91-1.64,4.05-3.8,0-.05,0-.09,0-.14,4.17,1.06,7.94,3.12,11.04,5.92-.24,2.65-.53,4.97-.83,6.89-.15,.97,.06,1.9,.52,2.68Z"/>
        <path class="cls-6" d="M1444.09,338.65c.16,3.44,.07,7.12-.3,10.95-3.98,2.46-8.67,3.89-13.69,3.89-1.57,0-3.12-.14-4.61-.41-6.73-1.2-12.58-5.01-16.48-10.33,1.1-3.71,2.41-7.18,3.85-10.32,2.18,7.47,9.08,12.93,17.24,12.93,5.64,0,10.69-2.62,13.99-6.71Z"/>
        <path class="cls-6" d="M1444.09,338.65c-3.3,4.09-8.34,6.71-13.99,6.71-8.16,0-15.06-5.46-17.24-12.93,5.44-11.83,12.91-19.1,19.63-17.81,6.75,1.31,10.99,10.94,11.59,24.03Z"/>
        <path class="cls-6" d="M1443.79,349.61c-.26,2.85-.68,5.78-1.26,8.75-5.8-1.12-11.61-2.24-17.41-3.36l.37-1.91c1.5,.27,3.04,.41,4.61,.41,5.01,0,9.7-1.42,13.69-3.89Z"/>
        <path class="cls-6" d="M1442.53,358.36c.32,2.54-1.18,4.95-3.52,5.75-2.18,.75-4.66-.04-6.05-1.97-.22,.52-1.86,4.22-5.85,5.3-2.12,.57-3.93,.15-4.79-.12,.79-4.13,1.6-8.27,2.4-12.4,.14,.02,.27,.05,.41,.08,5.8,1.12,11.61,2.24,17.41,3.36Z"/>
        <path class="cls-6" d="M1426.66,250.75c9.61,20.08,10.68,38.99,9.88,51.36-2.06-.53-4.22-.81-6.44-.81-.56,0-1.11,.02-1.66,.05,.7-11.4-.34-28.71-9.12-47.09-6.05-12.64-14.01-22.05-21.1-28.64h11.43c6.87,7.49,12.63,15.98,17.01,25.13Z"/>
        <path class="cls-6" d="M1436.54,302.11s0,.09,0,.14c-.14,2.15-1.92,3.8-4.05,3.8-.09,0-.18,0-.27,0-2.24-.15-3.94-2.08-3.8-4.32l.02-.37c.55-.03,1.1-.05,1.66-.05,2.22,0,4.38,.28,6.44,.81Z"/>
        <path class="cls-6" d="M1435.76,225.62h-9.87c-2.09-2.91-4.31-5.69-6.65-8.36h10.54c1.12,1.43,2.22,2.91,3.3,4.43,.92,1.31,1.82,2.62,2.68,3.93Z"/>
        <path class="cls-6" d="M1429.78,217.26h-10.54c-11.74-13.42-26.4-23.76-43.77-30.87-2.79-2.26-6.31-3.62-10.15-3.68-.74-.24-1.47-.47-2.22-.7-16.52-5-30.51-5.95-36.99-6.09-1.01-.8-2.09-1.19-3.06-1.38,.62-.69,1-1.59,1.02-2.59,.05-1.82-1.1-3.38-2.72-3.94,.38-.13,.8-.21,1.24-.22,7.06-.16,68.55-.11,107.2,49.48Z"/>
        <path class="cls-6" d="M1425.9,225.62h-16.25c-2.37-2.6-4.88-5.07-7.51-7.42v-.94h17.11c2.34,2.67,4.56,5.45,6.65,8.36Z"/>
        <path class="cls-6" d="M1425.49,353.09l-.37,1.91c-.14-.03-.27-.06-.41-.08-5.24-1.01-10.46-2.02-15.69-3.03-.29-1.47-.72-2.93-1.28-4.35,.39-1.64,.82-3.23,1.28-4.78,3.89,5.33,9.74,9.13,16.48,10.33Z"/>
        <path class="cls-6" d="M1424.71,354.92c-.8,4.13-1.6,8.27-2.4,12.4-.91-.07-2.75-.35-4.5-1.68-3.3-2.49-3.44-6.53-3.45-7.09-1.54,.97-3.42,1.09-5.01,.41,.08-.79,.12-1.6,.12-2.41,0-1.58-.16-3.13-.46-4.66,5.23,1.01,10.45,2.03,15.69,3.03Z"/>
        <path class="cls-6" d="M1409.65,225.62h-11.43c-2.42-2.27-4.74-4.2-6.86-5.82-.17-.13-.33-.28-.47-.43,3.78-.08,7.56-.44,11.25-1.17,2.63,2.35,5.14,4.82,7.51,7.42Z"/>
        <path class="cls-6" d="M1409.48,356.55c0,.81-.04,1.62-.12,2.41-.48-.2-.94-.48-1.35-.83-1.87-1.62-2.36-4.42-1.12-6.65,.71,.14,1.42,.28,2.14,.41,.3,1.53,.46,3.08,.46,4.66Z"/>
        <path class="cls-6" d="M1409.02,351.88c-.71-.13-1.42-.27-2.14-.41,.26-1.33,.54-2.65,.85-3.94,.56,1.42,.99,2.88,1.28,4.35Z"/>
        <path class="cls-11" d="M1408.01,358.12c.41,.35,.87,.63,1.35,.83-2,19.63-28.2,35.51-64.27,40.4v-6.46c11.95-1.63,22.93-4.47,32.12-8.39,16.66-7.11,25.83-17.15,25.83-28.3s-9.18-21.2-25.83-28.3c-15.1-6.44-35.05-9.99-56.18-9.99s-41.08,3.55-56.18,9.99c-16.66,7.11-25.83,17.16-25.83,28.3s9.17,21.2,25.83,28.3c9.36,3.99,20.57,6.87,32.79,8.49v6.36c-36.08-4.89-62.29-20.79-64.26-40.43,.47-.2,.9-.47,1.29-.81,1.88-1.62,2.37-4.42,1.13-6.65-.25-1.31-.53-2.6-.83-3.86,7.4-18.99,38.13-33.26,77.12-35.23,3.91,1.82,7.96,.64,8.59,.44,.64,.2,5.71,1.38,9.87-.45,38.97,1.95,69.71,16.19,77.18,35.15-.31,1.29-.59,2.61-.85,3.94-1.24,2.23-.75,5.03,1.12,6.65Z"/>
        <path class="cls-6" d="M1408.08,251.04c.48,17.48-11.98,32.89-29.66,36.62-.28,.06-.56,.08-.84,.08-1.88,0-3.57-1.31-3.98-3.22-.47-2.2,.94-4.35,3.14-4.82,13.6-2.87,23.58-15.1,23.21-28.44-.32-11.4-7.89-21.56-19-25.64h15.35c7.11,6.5,11.51,15.59,11.78,25.42Z"/>
        <path class="cls-6" d="M1402.14,217.26v.94c-3.69,.73-7.47,1.09-11.25,1.17,.15,.16,.3,.3,.47,.43,2.11,1.62,4.43,3.55,6.86,5.82h-1.92c-3.94-3.62-8.72-6.45-14.1-8.16l-.61-.2h20.55Z"/>
        <path class="cls-6" d="M1377.21,327.9c16.66,7.11,25.83,17.16,25.83,28.3s-9.18,21.2-25.83,28.3c-9.19,3.92-20.17,6.77-32.12,8.39v-1.8c32.2-4.7,56.25-18.63,56.25-34.55,0-5.23-2.59-10.23-7.19-14.77-12.74-12.54-40.95-21.5-72.78-21.5-43.35,0-79.97,16.61-79.97,36.26,0,15.93,24.05,29.85,56.25,34.55v1.9c-12.21-1.62-23.43-4.5-32.79-8.49-16.66-7.11-25.83-17.15-25.83-28.3s9.17-21.2,25.83-28.3c15.09-6.44,35.05-9.99,56.18-9.99s41.07,3.55,56.18,9.99Z"/>
        <path class="cls-6" d="M1396.3,225.62h-15.35l-.61-.22c-6.94,.11-13.96,.05-20.75,0-6.98-.06-14.19-.11-21.25,0h-.07c-1.16,0-2.21-.48-2.95-1.27-.27-.73-.43-1.66-.43-2.68,0-1.23,.24-2.33,.61-3.09,.71-.66,1.66-1.07,2.71-1.09h21.45c6.97,.06,14.19,.11,21.25,0h.69l.61,.2c5.37,1.72,10.15,4.54,14.1,8.16Z"/>
        <path class="cls-6" d="M1395.88,250.43c.02,1.1-.42,2.15-1.19,2.92-3.83,3.82-14.48,12.71-30.66,12.71h-.02c-15.62,0-26.11-8.36-29.9-11.96-.79-.76-1.25-1.8-1.27-2.9,0-1.1,.42-2.15,1.19-2.93,3.73-3.73,14.1-12.43,29.92-12.71,16.04-.29,26.78,8.27,30.66,11.97,.79,.75,1.25,1.8,1.26,2.9Zm-27.94,7.27c7.88-.9,13.9-4.38,17.57-7.15-3.72-2.68-9.82-6-17.7-6.72-1.37-.95-3.02-1.5-4.8-1.5-2.17,0-4.14,.81-5.64,2.15-6.23,1.36-11.06,4.24-14.17,6.59,3.26,2.36,8.14,5.08,14.39,6.25,1.47,1.22,3.35,1.96,5.42,1.96,1.84,0,3.54-.59,4.93-1.59Z"/>
        <path class="cls-6" d="M1394.15,341.78c4.61,4.53,7.19,9.54,7.19,14.77,0,15.93-24.05,29.85-56.25,34.55v-9.82c10.31-1.51,19.72-4.01,27.59-7.36,4.4-1.87,8.14-3.98,11.09-6.18h8.75v-24.4l1.62-1.55Z"/>
        <path class="cls-6" d="M1394.15,341.78l-1.62,1.55h-10.7c-2.59-1.71-5.66-3.34-9.15-4.83-13.7-5.85-32.05-9.06-51.65-9.06s-37.96,3.21-51.66,9.06c-3.48,1.49-6.55,3.12-9.15,4.83h-9.34v10.54c-.23,.79-.34,1.57-.34,2.34s.11,1.55,.34,2.34v9.19h7.4c2.96,2.21,6.69,4.31,11.09,6.18,8.05,3.43,17.7,5.96,28.27,7.46v9.73c-32.2-4.7-56.25-18.63-56.25-34.55,0-19.66,36.62-36.26,79.97-36.26,31.83,0,60.05,8.96,72.78,21.5Z"/>
        <path class="cls-6" d="M1392.53,356.2v11.53h-8.75c4.97-3.71,7.74-7.73,7.74-11.53h1.01Z"/>
        <path class="cls-6" d="M1392.53,343.33v12.88h-1.01c0-4.26-3.49-8.81-9.69-12.88h10.7Z"/>
        <path class="cls-10" d="M1381.83,343.33c6.19,4.07,9.69,8.61,9.69,12.88,0,3.8-2.77,7.81-7.74,11.53h-125.5c-3.96-2.95-6.52-6.1-7.4-9.19v-4.68c1.01-3.56,4.28-7.21,9.34-10.54h121.6Z"/>
        <path class="cls-1" d="M1345.09,367.73h38.69c-2.95,2.21-6.69,4.31-11.09,6.18-7.88,3.35-17.29,5.85-27.59,7.36v-13.55Z"/>
        <path class="cls-1" d="M1381.83,343.33h-121.6c2.59-1.71,5.66-3.34,9.15-4.83,13.7-5.85,32.05-9.06,51.66-9.06s37.95,3.21,51.65,9.06c3.48,1.49,6.55,3.12,9.15,4.83Z"/>
        <polygon class="cls-6" points="1381.59 217.26 1380.91 217.26 1381.57 217.26 1381.59 217.26"/>
        <path class="cls-6" d="M1380.95,225.62h-44.22c-.57,0-1.08-.58-1.42-1.5,.74,.79,1.79,1.27,2.95,1.27h.07c7.07-.11,14.28-.06,21.25,0,6.8,.06,13.82,.11,20.75,0l.61,.22Z"/>
        <path class="cls-6" d="M1365.04,217.26h15.86c-7.07,.11-14.28,.06-21.25,0h5.39Z"/>
        <path class="cls-6" d="M1375.47,186.39c3.76,3.04,6.18,7.7,6.18,12.91,0,9.16-7.45,16.61-16.61,16.61s-16.61-7.44-16.61-16.61,7.44-16.6,16.61-16.6c.09,0,.19,0,.28,0,3.48,1.1,6.86,2.34,10.15,3.68Zm-1.96,12.91c0-4.67-3.8-8.47-8.47-8.47s-8.48,3.8-8.48,8.47,3.8,8.48,8.48,8.48,8.47-3.8,8.47-8.48Z"/>
        <path class="cls-6" d="M1367.81,243.83c2.22,1.52,3.67,4.08,3.67,6.98s-1.4,5.35-3.54,6.89c-1.26,.15-2.57,.23-3.92,.23h0c-2.27,0-4.42-.22-6.42-.6-1.87-1.55-3.05-3.9-3.05-6.52s1.1-4.77,2.83-6.32c2.09-.47,4.34-.75,6.72-.79,1.28-.02,2.52,.02,3.71,.14Z"/>
        <path class="cls-6" d="M1365.32,182.71c3.84,.06,7.36,1.42,10.15,3.68-3.29-1.34-6.68-2.58-10.15-3.68Z"/>
        <path class="cls-6" d="M1367.81,243.83c-1.19-.11-2.44-.16-3.71-.14-2.39,.04-4.64,.33-6.72,.79,1.5-1.34,3.47-2.15,5.64-2.15,1.78,0,3.44,.55,4.8,1.5Z"/>
        <path class="cls-6" d="M1364.02,257.93c1.35,0,2.66-.08,3.92-.23-1.39,1-3.09,1.59-4.93,1.59-2.06,0-3.94-.74-5.42-1.96,2,.38,4.15,.6,6.42,.6h0Z"/>
        <path class="cls-6" d="M1359.32,217.26h-21.11c7.05-.11,14.2-.06,21.11,0Z"/>
        <path class="cls-11" d="M1350.47,296.56c.15,3.09-1.2,5.54-2.03,6.78-1.33,1.03-3.62,2.52-6.78,3.39-2.45,.68-4.6,.75-6.09,.68-.52,1.06-1.52,2.73-3.39,4.07-.52,.37-1.06,.66-1.62,.91-3.01-.16-6.08-.23-9.19-.23-.22,0-.45,0-.67,0,.12-9.47,.24-18.95,.35-28.43,.19-7.97,.36-15.94,.29-23.91,0-.63,.02-1.26,.02-1.89,1.22-.02,6.44,.04,10.81,4.07,3.65,3.36,4.52,7.48,4.74,8.81,.23,3.62,.46,7.23,.68,10.85,3.59,1.79,6,3.93,7.46,5.42,2.52,2.59,5.23,5.38,5.42,9.48Z"/>
        <path class="cls-10" d="M1345.09,399.36v6.32c0,13.11-10.62,37.96-23.72,37.96s-23.72-24.85-23.72-37.96v-6.32c1.59,.22,3.2,.42,4.83,.59,.88,10.81,9.01,28.5,18.9,28.5s18.01-17.69,18.9-28.5c1.63-.17,3.24-.37,4.83-.59Z"/>
        <path class="cls-10" d="M1345.09,392.9v6.46c-1.59,.22-3.2,.42-4.83,.59,.06-.65,.08-1.28,.08-1.87v-4.61c1.6-.17,3.18-.36,4.74-.58Z"/>
        <path class="cls-10" d="M1345.09,391.1v1.8c-1.56,.22-3.15,.41-4.74,.58v-1.76c1.6-.18,3.18-.39,4.74-.62Z"/>
        <path class="cls-10" d="M1345.09,381.28v9.82c-1.56,.23-3.15,.44-4.74,.62v-9.83c1.6-.18,3.18-.38,4.74-.61Z"/>
        <path class="cls-10" d="M1345.09,367.73v13.55c-1.56,.23-3.14,.43-4.74,.61v-14.16h4.74Z"/>
        <path class="cls-6" d="M1340.35,393.48v4.61c0,.59-.02,1.22-.08,1.87-6.07,.65-12.39,.98-18.9,.98s-12.83-.34-18.9-.98c-.06-.65-.08-1.28-.08-1.87v-4.53c6.04,.62,12.29,.94,18.64,.94s13.06-.34,19.31-1.01Z"/>
        <path class="cls-6" d="M1340.35,391.72v1.76c-6.25,.67-12.73,1.01-19.31,1.01s-12.61-.32-18.64-.94v-1.83c6.11,.7,12.47,1.08,18.98,1.08s12.87-.38,18.98-1.08Z"/>
        <path class="cls-6" d="M1340.35,381.89v9.83c-6.11,.7-12.47,1.08-18.98,1.08s-12.87-.38-18.98-1.08v-9.75c6,.66,12.25,1.01,18.64,1.01s13.11-.37,19.31-1.09Z"/>
        <path class="cls-6" d="M1340.35,367.73v14.16c-6.21,.72-12.69,1.09-19.31,1.09s-12.64-.34-18.64-1.01v-14.24h37.96Z"/>
        <path class="cls-11" d="M1339.67,192.18c.07,1.96,.03,7.92-4.07,13.56-4.97,6.84-12.39,8.39-14.91,8.74v-38.62c.23-.03,.45-.09,.66-.17,.44,.16,.92,.25,1.42,.24,.61-.02,1.75-.03,3.34,0,2.23,1.75,2.63,4.21,2.71,4.74,.49-.52,1.95-1.91,4.07-2.04,2.81-.16,5.68,2.01,6.77,5.42v8.13Z"/>
        <path class="cls-6" d="M1336.74,217.26h1.46c-1.05,.02-2,.43-2.71,1.09,.33-.68,.77-1.09,1.24-1.09Z"/>
        <path class="cls-6" d="M1335.5,218.35c-.38,.76-.61,1.87-.61,3.09,0,1.02,.16,1.96,.43,2.68-.68-.71-1.1-1.67-1.11-2.73-.02-1.2,.48-2.28,1.29-3.04Z"/>
        <path class="cls-6" d="M1340.26,399.95c-.88,10.81-9.01,28.5-18.9,28.5s-18.01-17.69-18.9-28.5c6.07,.65,12.39,.98,18.9,.98s12.83-.34,18.9-.98Z"/>
        <path class="cls-11" d="M1330.55,312.38c-4.16,1.83-9.23,.65-9.87,.45,0-.22,0-.45,0-.67,.22,0,.45,0,.67,0,3.11,0,6.18,.07,9.19,.23Z"/>
        <path class="cls-11" d="M1326.11,175.92c-1.59-.03-2.72-.02-3.34,0-.5,0-.98-.07-1.42-.24,.66-.23,1.25-.63,1.7-1.15,.97,.19,2.05,.58,3.06,1.38Z"/>
        <path class="cls-6" d="M1321.35,168.01c1.63,.56,2.77,2.13,2.72,3.94-.02,1-.4,1.9-1.02,2.59-1.17-.21-2.18-.12-2.7-.04-.2-.02-.48-.07-.82-.08-.56-.67-.89-1.53-.92-2.46-.05-1.82,1.1-3.38,2.73-3.94Z"/>
        <path class="cls-11" d="M1320.35,174.5c.52-.08,1.53-.17,2.7,.04-.45,.52-1.04,.92-1.7,1.15-.23-.07-.45-.17-.66-.3v-.82c-.06,0-.17-.03-.34-.07Z"/>
        <path class="cls-11" d="M1321.37,257.93c0,.63-.02,1.26-.02,1.89,0-.63,0-1.26-.02-1.89h.04Z"/>
        <path class="cls-6" d="M1321.33,257.93c0,.63,.02,1.26,.02,1.89-.1,7.97-.2,15.94-.29,23.91-.22,9.47-.47,18.95-.37,28.43-2.9,0-5.77,.08-8.58,.23-.53-.25-1.06-.55-1.58-.92-1.87-1.33-2.87-3.01-3.39-4.07-1.5,.07-3.64,0-6.09-.68-3.17-.87-5.45-2.36-6.78-3.39-.83-1.24-2.18-3.69-2.03-6.78,.19-4.1,2.9-6.89,5.42-9.48,1.46-1.5,3.87-3.63,7.46-5.42,.22-3.62,.45-7.23,.68-10.85,.22-1.33,1.09-5.45,4.74-8.81,4.37-4.02,9.59-4.09,10.81-4.07Z"/>
        <path class="cls-11" d="M1321.05,283.73c-.11,9.47-.23,18.95-.35,28.43,0,0-.02,0-.02,0-.1-9.47,.15-18.95,.37-28.43Z"/>
        <path class="cls-11" d="M1320.69,175.38c.21,.13,.43,.23,.66,.3-.21,.08-.43,.14-.66,.17v-.47Z"/>
        <path class="cls-11" d="M1320.7,312.16c0,.22,0,.45,0,.67,0-.22,0-.45,0-.67,0,0,0,0,.02,0Z"/>
        <path class="cls-11" d="M1320.69,214.47v.08c-.08,0-.2-.02-.33-.04,.1,0,.2-.02,.33-.04Z"/>
        <path class="cls-11" d="M1320.69,175.85v38.62c-.12,.02-.23,.03-.33,.04h-.02c-.1,0-.21-.02-.34-.04v-38.56c.23,0,.46-.02,.68-.07Z"/>
        <path class="cls-11" d="M1320.69,175.38v.47c-.22,.04-.45,.07-.68,.07v-1.01c.2,.19,.43,.34,.68,.47Z"/>
        <path class="cls-11" d="M1320.69,174.56v.82c-.25-.13-.47-.29-.68-.47v-.34c.07,0,.18-.03,.34-.07,.16,.03,.28,.06,.34,.07Z"/>
        <path class="cls-11" d="M1320.68,312.16c0,.22,0,.45,0,.67-.63,.2-4.68,1.37-8.59-.44,2.81-.15,5.68-.23,8.58-.23Z"/>
        <path class="cls-6" d="M1320.11,167.79c.43,0,.86,.09,1.24,.22-1.63,.56-2.78,2.13-2.73,3.94,.02,.93,.36,1.79,.92,2.46-1.22-.06-3.17,.12-4.94,1.51-.02,.02-.06,.04-.08,.07-7.12,.29-19.98,1.51-34.92,6.02-.74,.23-1.48,.46-2.22,.7-3.84,.06-7.37,1.43-10.16,3.69-17.38,7.12-32.04,17.45-43.77,30.87h-10.54c38.65-49.58,100.13-49.64,107.2-49.48Z"/>
        <path class="cls-11" d="M1320.34,214.51c-.14,.02-.25,.03-.34,.04v-.08c.12,.02,.24,.03,.34,.04Z"/>
        <path class="cls-11" d="M1320.35,174.5c-.16,.03-.28,.06-.34,.07v.34c-.17-.15-.34-.31-.47-.49,.34,.02,.61,.06,.82,.08Z"/>
        <path class="cls-6" d="M1320.01,175.92v38.56c-2.52-.36-9.94-1.9-14.91-8.74-4.11-5.64-4.14-11.59-4.07-13.56v-8.13c1.1-3.41,3.95-5.58,6.77-5.42,2.13,.12,3.58,1.52,4.07,2.04,.07-.52,.47-2.93,2.63-4.67,2.68-.11,4.55-.1,5.41-.07h.09Z"/>
        <path class="cls-11" d="M1320.01,174.9v1.01h-.09c-.86-.02-2.72-.04-5.41,.07,.02-.03,.06-.05,.08-.07,1.77-1.38,3.72-1.56,4.94-1.51,.14,.18,.3,.34,.47,.49Z"/>
        <path class="cls-6" d="M1308.65,248.28c.78,.78,1.2,1.83,1.19,2.93-.02,1.1-.47,2.14-1.27,2.9-3.79,3.6-14.28,11.96-29.9,11.96h-.02c-16.18,0-26.83-8.89-30.66-12.71-.77-.77-1.2-1.82-1.19-2.92,0-1.1,.47-2.14,1.26-2.9,3.88-3.7,14.62-12.25,30.66-11.97,15.81,.28,26.19,8.98,29.92,12.71Zm-9.16,2.81c-3.11-2.36-7.94-5.24-14.17-6.59-1.5-1.34-3.47-2.15-5.64-2.15-1.78,0-3.44,.55-4.8,1.5-7.89,.72-13.98,4.04-17.7,6.72,3.67,2.77,9.69,6.25,17.57,7.15,1.39,1,3.09,1.59,4.93,1.59,2.06,0,3.94-.74,5.42-1.96,6.25-1.17,11.13-3.89,14.39-6.25Z"/>
        <path class="cls-6" d="M1307.21,218.37c.8,.75,1.3,1.83,1.28,3.03-.02,1.04-.43,1.97-1.07,2.68,.25-.72,.39-1.62,.39-2.6,0-1.23-.23-2.34-.61-3.11Z"/>
        <path class="cls-6" d="M1307.81,221.48c0,.98-.15,1.88-.39,2.6-.74,.81-1.81,1.32-2.99,1.32h-.07c-7.07-.11-14.28-.06-21.25,0-6.8,.06-13.82,.11-20.75,0-.28,.1-.55,.2-.82,.29h-15.22c3.96-3.66,8.77-6.51,14.18-8.24l.61-.2h.69c7.07,.11,14.28,.06,21.25,0h21.45c1.06,.02,2,.43,2.72,1.1,.38,.77,.61,1.88,.61,3.11Z"/>
        <path class="cls-6" d="M1304.43,225.39c1.19,0,2.25-.51,2.99-1.32-.34,.99-.87,1.62-1.46,1.62h-44.43c.27-.1,.54-.2,.82-.29,6.94,.11,13.96,.05,20.75,0,6.98-.06,14.19-.11,21.25,0h.07Z"/>
        <path class="cls-6" d="M1305.96,217.26c.47,0,.92,.42,1.24,1.1-.71-.67-1.66-1.09-2.72-1.1h1.47Z"/>
        <path class="cls-6" d="M1304.49,217.26h-21.12c6.91-.06,14.07-.11,21.12,0Z"/>
        <path class="cls-10" d="M1302.39,398.09c0,.59,.02,1.22,.08,1.87-1.63-.17-3.24-.37-4.83-.59v-6.36c1.56,.2,3.15,.39,4.74,.56v4.53Z"/>
        <path class="cls-10" d="M1302.39,391.72v1.83c-1.6-.16-3.18-.35-4.74-.56v-1.9c1.56,.23,3.15,.44,4.74,.62Z"/>
        <path class="cls-10" d="M1302.39,381.97v9.75c-1.6-.18-3.18-.39-4.74-.62v-9.73c1.56,.22,3.14,.42,4.74,.6Z"/>
        <path class="cls-10" d="M1302.39,367.73v14.24c-1.6-.18-3.18-.38-4.74-.6v-13.65h4.74Z"/>
        <path class="cls-1" d="M1297.64,367.73v13.65c-10.57-1.51-20.22-4.03-28.27-7.46-4.4-1.87-8.13-3.98-11.09-6.18h39.36Z"/>
        <path class="cls-6" d="M1277.65,182.7c9.16,0,16.61,7.44,16.61,16.6s-7.44,16.61-16.61,16.61-16.61-7.44-16.61-16.61c0-5.2,2.41-9.86,6.17-12.9,3.29-1.35,6.68-2.58,10.16-3.69,.09,0,.19,0,.28,0Zm8.48,16.6c0-4.67-3.8-8.47-8.48-8.47s-8.47,3.8-8.47,8.47,3.8,8.48,8.47,8.48,8.48-3.8,8.48-8.48Z"/>
        <path class="cls-6" d="M1285.32,244.49c1.73,1.55,2.83,3.81,2.83,6.32s-1.19,4.97-3.05,6.52c-2,.38-4.15,.6-6.42,.6h0c-1.35,0-2.66-.08-3.92-.23-2.14-1.54-3.54-4.05-3.54-6.89s1.46-5.46,3.67-6.98c1.19-.11,2.44-.16,3.71-.14,2.4,.04,4.64,.33,6.72,.79Z"/>
        <path class="cls-6" d="M1277.65,217.26h5.39c-6.97,.06-14.19,.11-21.25,0h15.86Z"/>
        <path class="cls-6" d="M1279.69,242.34c2.17,0,4.14,.81,5.64,2.15-2.09-.47-4.33-.75-6.72-.79-1.28-.02-2.52,.02-3.71,.14,1.37-.95,3.02-1.5,4.8-1.5Z"/>
        <path class="cls-6" d="M1285.1,257.33c-1.47,1.22-3.35,1.96-5.42,1.96-1.84,0-3.54-.59-4.93-1.59,1.26,.15,2.57,.23,3.92,.23h0c2.27,0,4.42-.22,6.42-.6Z"/>
        <path class="cls-6" d="M1265.95,279.71c2.2,.47,3.61,2.62,3.14,4.82-.41,1.91-2.09,3.22-3.98,3.22-.28,0-.56-.02-.84-.08-17.68-3.74-30.15-19.14-29.66-36.62,.27-9.78,4.64-18.84,11.7-25.34h15.22c-10.99,4.13-18.47,14.23-18.79,25.56-.37,13.34,9.6,25.57,23.21,28.44Z"/>
        <path class="cls-6" d="M1267.21,186.4c2.79-2.26,6.32-3.63,10.16-3.69-3.48,1.11-6.87,2.34-10.16,3.69Z"/>
        <polygon class="cls-6" points="1261.79 217.26 1261.1 217.26 1261.13 217.26 1261.79 217.26"/>
        <path class="cls-6" d="M1261.1,217.26l-.61,.2c-5.41,1.73-10.22,4.58-14.18,8.24h-1.92c2.45-2.29,4.81-4.25,6.94-5.89,.17-.13,.33-.28,.47-.43-3.78-.08-7.56-.44-11.25-1.17v-.94h20.55Z"/>
        <path class="cls-6" d="M1250.88,343.33h9.34c-5.06,3.33-8.33,6.98-9.34,10.54v-10.54Z"/>
        <path class="cls-6" d="M1258.28,367.73h-7.4v-9.19c.88,3.08,3.44,6.23,7.4,9.19Z"/>
        <path class="cls-6" d="M1251.8,219.37c-.15,.16-.3,.3-.47,.43-2.13,1.64-4.48,3.6-6.94,5.89h-11.41c2.39-2.63,4.92-5.13,7.58-7.49,3.69,.73,7.47,1.09,11.25,1.17Z"/>
        <path class="cls-6" d="M1232.98,225.7h11.41c-7.07,6.59-15,15.98-21.02,28.57-8.79,18.37-9.82,35.68-9.12,47.09-.55-.03-1.1-.05-1.66-.05-2.22,0-4.38,.28-6.44,.81-.8-12.37,.27-31.28,9.88-51.36,4.36-9.11,10.09-17.58,16.94-25.06Z"/>
        <path class="cls-6" d="M1240.55,217.26v.94c-2.66,2.36-5.19,4.87-7.58,7.49h-16.23c2.11-2.94,4.34-5.75,6.7-8.43h17.11Z"/>
        <path class="cls-6" d="M1235.81,351.47c1.24,2.23,.75,5.03-1.13,6.65-.39,.34-.83,.61-1.29,.81-.08-.79-.12-1.59-.12-2.39,0-1.58,.16-3.13,.47-4.67,.7-.13,1.38-.27,2.08-.4Z"/>
        <path class="cls-6" d="M1235.81,351.47c-.7,.13-1.38,.27-2.08,.4,.28-1.44,.7-2.86,1.25-4.26,.29,1.26,.57,2.55,.83,3.86Z"/>
        <path class="cls-6" d="M1234.98,347.61c-.55,1.4-.97,2.82-1.25,4.26-5.17,1-10.34,2-15.52,3l-.37-1.91c6.46-1.33,12.07-5.06,15.84-10.21,.47,1.58,.9,3.2,1.3,4.86Z"/>
        <path class="cls-6" d="M1238.68,327.4c0,5.73-1.86,11.04-5,15.35-1.1-3.71-2.41-7.18-3.85-10.32,.47-1.6,.72-3.29,.72-5.03,0-9.91-8.06-17.96-17.96-17.96-6.5,0-12.21,3.47-15.36,8.65l-2-.2c.59-.83,.87-1.88,.7-2.97-.29-1.92-.59-4.24-.83-6.89,3.1-2.8,6.87-4.87,11.04-5.92,0,.05,0,.09,0,.14,.14,2.15,1.92,3.8,4.05,3.8,.09,0,.18,0,.27,0,2.24-.15,3.94-2.08,3.8-4.32l-.02-.37c13.61,.86,24.43,12.21,24.43,26.05Z"/>
        <path class="cls-6" d="M1218.21,354.88c5.18-1,10.35-2,15.52-3-.31,1.54-.47,3.09-.47,4.67,0,.8,.04,1.6,.12,2.39-1.59,.7-3.49,.6-5.06-.38,0,.56-.15,4.61-3.45,7.09-1.75,1.33-3.59,1.6-4.5,1.68-.79-4.13-1.6-8.27-2.4-12.4,.07-.02,.16-.03,.23-.04Z"/>
        <path class="cls-6" d="M1233.68,342.75c-3.77,5.15-9.37,8.88-15.84,10.21-1.7,.35-3.45,.53-5.25,.53-5.01,0-9.71-1.42-13.69-3.89-.37-3.84-.46-7.52-.3-10.95,3.3,4.09,8.34,6.71,13.99,6.71,8.16,0,15.06-5.46,17.24-12.93,1.45,3.14,2.75,6.61,3.85,10.32Z"/>
        <path class="cls-6" d="M1229.83,332.43c-2.18,7.47-9.08,12.93-17.24,12.93-5.64,0-10.69-2.62-13.99-6.71,.61-13.1,4.84-22.73,11.59-24.03,6.72-1.29,14.19,5.98,19.63,17.81Z"/>
        <path class="cls-6" d="M1212.91,217.26h10.54c-2.36,2.68-4.59,5.5-6.7,8.43h-9.86c.87-1.34,1.78-2.68,2.72-4.01,1.08-1.51,2.18-2.99,3.3-4.43Z"/>
        <path class="cls-6" d="M1217.98,354.92c.8,4.13,1.6,8.27,2.4,12.4-.86,.27-2.68,.7-4.79,.12-3.99-1.08-5.63-4.78-5.85-5.3-1.39,1.93-3.87,2.72-6.05,1.97-2.34-.8-3.84-3.21-3.52-5.75,5.94-1.15,11.88-2.29,17.82-3.44Z"/>
        <path class="cls-6" d="M1217.84,352.96l.37,1.91c-.07,0-.16,.02-.23,.04-5.94,1.15-11.88,2.3-17.82,3.44-.58-2.98-1-5.91-1.26-8.75,3.98,2.46,8.67,3.89,13.69,3.89,1.8,0,3.55-.18,5.25-.53Z"/>
        <path class="cls-6" d="M1216.75,225.7c-.17,.23-.34,.46-.51,.7-21.86,30.78-22.76,63.82-21.13,81.64-2.9,2.63-5.21,5.88-6.7,9.56-.25-.43-.43-.92-.52-1.45-2.32-15.26-4.92-53.83,19-90.45h9.86Z"/>
        <path class="cls-6" d="M1214.28,301.72c.15,2.24-1.55,4.17-3.8,4.32-.09,0-.18,0-.27,0-2.13,0-3.91-1.64-4.05-3.8,0-.05,0-.09,0-.14,2.06-.53,4.22-.81,6.44-.81,.56,0,1.11,.02,1.66,.05l.02,.37Z"/>
        <path class="cls-6" d="M1188.4,217.26h24.51c-1.12,1.43-2.22,2.91-3.3,4.43-.95,1.33-1.86,2.67-2.72,4.01h-18.49c-1.02,0-1.86-1.89-1.86-4.22s.83-4.21,1.86-4.21Z"/>
        <path class="cls-6" d="M1198.6,338.65c-.16,3.44-.07,7.12,.3,10.95-7.44-4.6-12.41-12.84-12.41-22.21,0-3.46,.68-6.77,1.91-9.8,.72,1.22,2.05,2,3.5,2,.2,0,.41,0,.61-.04,1.14-.17,2.09-.8,2.71-1.67l2,.2c-1.65,2.72-2.6,5.91-2.6,9.31,0,4.25,1.49,8.18,3.98,11.26Z"/>
        <path class="cls-6" d="M1195.93,314.92c.16,1.09-.11,2.14-.7,2.97-.62,.87-1.57,1.5-2.71,1.67-.2,.03-.41,.04-.61,.04-1.46,0-2.78-.79-3.5-2,1.49-3.68,3.8-6.94,6.7-9.56,.24,2.65,.53,4.97,.83,6.89Z"/>
      </g>
      <path class="cls-1" d="M1322.13,473.24c-97.27,0-176.4-79.13-176.4-176.4s79.13-176.4,176.4-176.4,176.4,79.13,176.4,176.4-79.13,176.4-176.4,176.4Zm0-328.55c-83.9,0-152.15,68.26-152.15,152.15s68.26,152.15,152.15,152.15,152.15-68.25,152.15-152.15-68.26-152.15-152.15-152.15Z"/>
      <path class="cls-6" d="M1321.68,513.13c-58.15,0-112.82-22.64-153.94-63.76-41.12-41.12-63.76-95.79-63.76-153.94s22.64-112.82,63.76-153.94c41.12-41.12,95.79-63.76,153.94-63.76s112.82,22.64,153.94,63.76c41.12,41.12,63.76,95.79,63.76,153.94s-22.64,112.82-63.76,153.94c-41.12,41.12-95.79,63.76-153.94,63.76Zm0-392.69c-96.49,0-174.99,78.5-174.99,174.99s78.5,174.99,174.99,174.99,174.99-78.5,174.99-174.99-78.5-174.99-174.99-174.99Z"/>
      <g>
        <path class="cls-10" d="M1290.68,123.7c-.23,0-.46,0-.69-.01-7.92-.29-15.11-5.57-17.89-13.12-2.48-6.76-1.97-15.71,4.79-20.49,6.22-4.39,14.81-3.69,20.44,1.67,.17,.16,.33,.32,.48,.49l11.06-38.34c1.26-4.36,5.81-6.87,10.16-5.61,4.36,1.26,6.87,5.81,5.61,10.17l-13.54,46.94c-1.76,10.44-10.55,18.3-20.42,18.3Zm-3.22-18.95s.03,.1,.05,.15c.46,1.25,1.87,2.34,3.09,2.38,.85,.02,2.03-.51,2.94-1.59-2.04,.48-4.23,.17-6.08-.94Z"/>
        <path class="cls-10" d="M1344.24,123.7c-9.88,0-18.66-7.87-20.42-18.3l-13.54-46.94c-1.26-4.36,1.26-8.91,5.61-10.17,4.36-1.26,8.91,1.26,10.16,5.61l11.06,38.34c.15-.17,.31-.33,.48-.49,5.63-5.36,14.22-6.07,20.44-1.67,6.76,4.78,7.28,13.73,4.79,20.49-2.78,7.56-9.97,12.83-17.89,13.13-.23,0-.46,.01-.69,.01Zm-2.87-18.03c.92,1.09,2.07,1.63,2.95,1.6,1.22-.04,2.63-1.14,3.09-2.39,.02-.05,.03-.1,.05-.15-1.86,1.11-4.05,1.41-6.09,.93Z"/>
      </g>
      <g>
        <path class="cls-10" d="M1562.42,307.74c-.75,0-1.52-.1-2.28-.32l-46.94-13.54c-10.68-1.8-18.66-10.95-18.29-21.11,.29-7.92,5.57-15.11,13.13-17.89,6.76-2.49,15.71-1.97,20.49,4.79,4.39,6.22,3.69,14.81-1.67,20.44-.16,.17-.32,.33-.49,.48l38.33,11.06c4.36,1.26,6.87,5.81,5.61,10.16-1.04,3.6-4.32,5.94-7.89,5.94Zm-48.57-37.51s-.1,.03-.15,.05c-1.25,.46-2.34,1.87-2.38,3.09-.03,.86,.51,2.03,1.59,2.94-.48-2.04-.17-4.23,.94-6.08Z"/>
        <path class="cls-10" d="M1515.63,346.95c-2.62,0-5.24-.5-7.59-1.37-7.56-2.78-12.83-9.97-13.13-17.89-.37-10.15,7.61-19.31,18.29-21.11l46.94-13.54c4.36-1.26,8.91,1.26,10.16,5.61,1.26,4.36-1.26,8.91-5.61,10.16l-38.33,11.06c.17,.15,.33,.31,.49,.48,5.36,5.63,6.07,14.22,1.67,20.44-3.11,4.4-8,6.16-12.9,6.16Zm-.65-15.25h0Zm-2.05-7.57c-1.09,.92-1.63,2.09-1.6,2.95,.04,1.22,1.14,2.63,2.38,3.09,.05,.02,.1,.03,.15,.05-1.11-1.86-1.41-4.05-.93-6.09Z"/>
      </g>
      <path class="cls-10" d="M1465.9,188.12c-1.54,0-3.1-.43-4.49-1.34-3.79-2.48-4.86-7.57-2.37-11.37l11.22-17.13-19.34,10.21c-4.01,2.12-8.98,.58-11.09-3.43-2.12-4.01-.58-8.98,3.43-11.09l47.46-25.06c3.31-1.75,7.39-1.03,9.91,1.73,2.52,2.77,2.85,6.89,.8,10.02l-28.64,43.74c-1.58,2.41-4.2,3.71-6.88,3.71Z"/>
      <g>
        <path class="cls-10" d="M1079.8,304.09c-3.57,0-6.85-2.34-7.89-5.94-1.26-4.36,1.26-8.91,5.61-10.16l38.33-11.06c-.17-.15-.33-.31-.49-.48-5.36-5.63-6.07-14.22-1.67-20.44,4.78-6.76,13.73-7.28,20.49-4.79,7.56,2.78,12.83,9.97,13.13,17.89,.37,10.15-7.61,19.31-18.29,21.11l-46.94,13.54c-.76,.22-1.53,.32-2.28,.32Zm48.56-37.51c1.11,1.86,1.41,4.05,.93,6.09,1.09-.92,1.63-2.09,1.6-2.95-.04-1.22-1.14-2.63-2.38-3.09-.05-.02-.1-.03-.15-.05Z"/>
        <path class="cls-10" d="M1126.6,343.3c-4.9,0-9.78-1.75-12.9-6.16-4.39-6.22-3.69-14.81,1.67-20.44,.16-.17,.32-.33,.49-.48l-38.33-11.06c-4.36-1.26-6.87-5.81-5.61-10.16,1.26-4.36,5.81-6.87,10.16-5.61l46.94,13.54c10.68,1.8,18.66,10.95,18.29,21.11-.29,7.92-5.57,15.11-13.13,17.89-2.35,.87-4.97,1.37-7.59,1.37Zm2.71-22.81c.48,2.04,.17,4.23-.94,6.08,.05-.02,.1-.03,.15-.05,1.25-.46,2.34-1.87,2.38-3.09,.03-.86-.51-2.03-1.59-2.94Z"/>
      </g>
      <path class="cls-10" d="M1177.95,190.09c-2.6,0-5.15-1.23-6.75-3.52l-29.87-42.91c-2.14-3.07-1.93-7.2,.51-10.04,2.44-2.84,6.49-3.67,9.85-2.02l48.16,23.7c4.07,2,5.74,6.92,3.74,10.99-2,4.07-6.92,5.74-10.99,3.74l-19.62-9.65,11.7,16.81c2.59,3.72,1.67,8.84-2.05,11.43-1.43,1-3.06,1.47-4.68,1.47Z"/>
      <g>
        <path class="cls-10" d="M1318.58,545.6c-3.57,0-6.85-2.34-7.89-5.94l-11.06-38.33c-.15,.17-.31,.33-.48,.49-5.63,5.36-14.22,6.07-20.44,1.67-6.76-4.78-7.28-13.73-4.79-20.49,2.78-7.56,9.97-12.83,17.89-13.13,10.2-.37,19.31,7.61,21.11,18.29l13.54,46.94c1.26,4.36-1.26,8.91-5.61,10.16-.76,.22-1.53,.32-2.28,.32Zm-26.08-59.31s-.05,0-.07,0c-1.22,.04-2.63,1.14-3.09,2.39-.02,.05-.03,.1-.05,.15,1.86-1.1,4.05-1.41,6.09-.93-.89-1.05-2.02-1.6-2.88-1.6Z"/>
        <path class="cls-10" d="M1319.99,545.6c-.75,0-1.52-.1-2.28-.32-4.36-1.26-6.87-5.81-5.61-10.16l13.54-46.94c1.8-10.68,10.91-18.66,21.11-18.29,7.92,.29,15.11,5.57,17.89,13.12,2.48,6.76,1.97,15.71-4.79,20.49-6.21,4.39-14.81,3.69-20.44-1.67-.17-.16-.33-.32-.48-.49l-11.06,38.33c-1.04,3.6-4.32,5.94-7.89,5.94Zm25.09-57.93c1.45,0,2.91,.38,4.2,1.16-.02-.05-.03-.1-.05-.15-.46-1.25-1.87-2.34-3.09-2.38-.83-.04-2.03,.51-2.94,1.59,.62-.14,1.25-.22,1.88-.22Z"/>
      </g>
      <path class="cls-10" d="M1490.74,464.21c-1.3,0-2.62-.31-3.83-.95l-47.46-25.06c-4.01-2.12-5.54-7.08-3.43-11.09,2.12-4.01,7.09-5.54,11.09-3.43l19.34,10.21-11.22-17.13c-2.48-3.79-1.42-8.88,2.37-11.37,3.8-2.49,8.88-1.42,11.37,2.37l28.64,43.74c2.05,3.13,1.72,7.26-.8,10.02-1.6,1.75-3.82,2.68-6.08,2.68Z"/>
      <path class="cls-10" d="M1138.09,450.25c-2.33-.17-4.55-1.33-6-3.31-2.23-3.01-2.14-7.15,.22-10.05l32.93-40.61c2.86-3.52,8.03-4.06,11.55-1.21,3.52,2.86,4.06,8.03,1.21,11.55l-12.9,15.91,20.27-8.2c4.21-1.7,8.99,.33,10.69,4.53,1.7,4.2-.33,8.99-4.53,10.69l-49.76,20.12c-1.19,.48-2.45,.67-3.67,.58Z"/>
      <path class="cls-12" d="M1317.94,54.83c4.5,16.4,9.01,32.81,13.51,49.21,.13,.46,.85,.27,.72-.2-4.5-16.4-9.01-32.81-13.51-49.21-.13-.46-.85-.27-.72,.2h0Z"/>
      <path class="cls-12" d="M1342.1,98.16c2.04-2.43,5.09-4.26,8.36-4,2.92,.23,5.68,2.3,6.29,5.22,.1,.47,.82,.27,.72-.2-.66-3.13-3.55-5.36-6.65-5.74-3.57-.44-7.02,1.52-9.26,4.19-.31,.37,.22,.9,.53,.53h0Z"/>
      <path class="cls-12" d="M1336.01,112.66c3.02,5.42,10.13,5.83,14.97,2.74,2.42-1.55,4.79-3.95,5.28-6.9s-.62-5.88-2.73-7.83-5.66-2.57-7.96-.38c-.35,.33,.18,.86,.53,.53,2.78-2.65,6.74-.59,8.4,2.24,1.88,3.21,1.26,6.82-1.23,9.47-2.24,2.39-5.39,4.09-8.71,4.13s-6.32-1.57-7.89-4.38c-.23-.42-.88-.04-.65,.38h0Z"/>
      <path class="cls-12" d="M1314.1,58.37c-3.76,14.53-8.02,28.92-12.77,43.15-.15,.46,.57,.66,.72,.2,4.76-14.23,9.02-28.62,12.77-43.15,.12-.47-.6-.67-.72-.2h0Z"/>
      <path class="cls-12" d="M1292.63,96.42c-4.44-3.88-11.18-2.03-13.81,3.01-2.83,5.41-.26,12.14,4.81,15.19,2.8,1.69,6.21,2.25,9.36,1.33,.46-.14,.27-.86-.2-.72-6.86,2.01-14.19-3.55-14.41-10.64-.1-3.32,1.57-6.68,4.45-8.4s6.73-1.44,9.27,.77c.36,.32,.89-.21,.53-.53h0Z"/>
      <path class="cls-12" d="M1296.44,102.01c-2.45-2.44-6.45-3.76-9.69-2.1-2.78,1.42-4.39,4.94-3.12,7.88,.19,.44,.84,.06,.65-.38-1.12-2.62,.54-5.77,3-6.92,2.93-1.37,6.46-.11,8.63,2.05,.34,.34,.87-.19,.53-.53h0Z"/>
      <path class="cls-12" d="M1446.14,162.41c14.2-7.94,28.4-15.89,42.61-23.83,.42-.24,.04-.88-.38-.65-14.2,7.94-28.4,15.89-42.61,23.83-.42,.24-.04,.88,.38,.65h0Z"/>
      <path class="cls-12" d="M1475.75,149.23c3.74-2.06,7.47-4.11,11.21-6.17,.42-.23,.04-.88-.38-.65-3.74,2.06-7.47,4.11-11.21,6.17-.42,.23-.04,.88,.38,.65h0Z"/>
      <path class="cls-12" d="M1480.81,151.82c-6.77,10.22-13.54,20.45-20.31,30.67-.27,.4,.38,.78,.65,.38,6.77-10.22,13.54-20.45,20.31-30.67,.27-.4-.38-.78-.65-.38h0Z"/>
      <path class="cls-12" d="M1518.04,260.61c3.26,2.47,5.09,6.72,4.47,10.79s-3.34,7.33-6.98,8.83c-.44,.18-.25,.91,.2,.72,3.98-1.65,6.97-5.35,7.54-9.65s-1.39-8.73-4.85-11.35c-.38-.29-.76,.36-.38,.65h0Z"/>
      <path class="cls-12" d="M1507.07,262.92c-5.82,3.51-7.96,10.93-4.95,17.03,.21,.43,.86,.05,.65-.38-2.83-5.73-.78-12.71,4.68-16,.41-.25,.04-.9-.38-.65h0Z"/>
      <path class="cls-12" d="M1504.84,276.36c1.19,6.95,8.44,9.65,14.34,11.51,7.85,2.48,15.75,4.82,23.69,7.02,4.56,1.26,9.13,2.48,13.71,3.65,.47,.12,.67-.6,.2-.72-9.64-2.46-19.22-5.13-28.75-8-4.52-1.36-9.18-2.57-13.54-4.37-4.12-1.7-8.12-4.62-8.92-9.29-.08-.47-.8-.27-.72,.2h0Z"/>
      <path class="cls-12" d="M1513.78,315.84c13.81-5.54,27.97-10.19,42.37-13.92,.47-.12,.27-.84-.2-.72-14.41,3.73-28.56,8.38-42.37,13.92-.44,.18-.25,.9,.2,.72h0Z"/>
      <path class="cls-12" d="M1542.1,309.15c6.33-2.34,12.76-4.42,19.26-6.23,.46-.13,.27-.85-.2-.72-6.5,1.81-12.93,3.89-19.26,6.23-.45,.17-.25,.89,.2,.72h0Z"/>
      <path class="cls-12" d="M1505.61,320.2c-3.48,1.99-4.4,6.69-3.35,10.3,1.11,3.81,4.32,6.62,7.93,8.05,3.79,1.5,8.5,1.62,11.7-1.24,2.67-2.39,3.9-6.41,2.7-9.83-1.38-3.92-5.54-6.52-9.65-6.11-.48,.05-.48,.8,0,.75,3.33-.33,6.67,1.41,8.35,4.32s1.12,6.81-1.04,9.41c-4.96,5.99-15.33,2.32-18.54-3.74-1.88-3.55-1.54-9.08,2.27-11.26,.42-.24,.04-.89-.38-.65h0Z"/>
      <path class="cls-12" d="M1521.82,330.63c.2,2.82-2.46,5.4-5.27,5.12-.48-.05-.48,.7,0,.75,3.2,.31,6.25-2.67,6.02-5.87-.03-.48-.78-.48-.75,0h0Z"/>
      <path class="cls-12" d="M1446.61,431.64c14.18,6.52,27.7,14.41,40.37,23.53,.39,.28,.77-.37,.38-.65-12.67-9.12-26.19-17.01-40.37-23.53-.44-.2-.82,.45-.38,.65h0Z"/>
      <path class="cls-12" d="M1482.55,449.26c2.4,1.63,4.79,3.27,7.19,4.9,.4,.27,.78-.38,.38-.65-2.4-1.63-4.79-3.27-7.19-4.9-.4-.27-.78,.38-.38,.65h0Z"/>
      <path class="cls-12" d="M1460.32,409.1c7,11.88,14.48,23.48,22.42,34.76,.28,.39,.93,.02,.65-.38-7.94-11.28-15.42-22.87-22.42-34.76-.24-.42-.89-.04-.65,.38h0Z"/>
      <path class="cls-12" d="M1335.77,482.76c-6.24,15.37-11.51,31.12-15.79,47.14-.12,.47,.6,.67,.72,.2,4.28-16.03,9.55-31.77,15.79-47.14,.18-.45-.54-.64-.72-.2h0Z"/>
      <path class="cls-12" d="M1327.61,515.34c-1.71,6.43-3.41,12.87-5.12,19.3-.12,.47,.6,.67,.72,.2,1.71-6.43,3.41-12.87,5.12-19.3,.12-.47-.6-.67-.72-.2h0Z"/>
      <path class="cls-12" d="M1343,478.7c7.17-1.05,13.66,4.43,14.18,11.58,.22,3.02-.73,6.16-2.9,8.32-2.59,2.58-6.24,2.59-9.26,.72-1.64-1.01-3.06-2.45-3.94-4.17-.45-.87-.77-1.83-.84-2.81-.06-.81,.06-3.35,1.41-3.04,.47,.11,.67-.62,.2-.72-1.59-.36-2.24,1.47-2.35,2.73-.18,1.94,.57,3.88,1.68,5.44,2.19,3.07,6.24,5.48,10.09,4.46,3.39-.9,5.69-4.19,6.41-7.48,.83-3.81-.27-7.99-2.68-11.02-2.9-3.66-7.63-5.42-12.22-4.75-.48,.07-.27,.79,.2,.72h0Z"/>
      <path class="cls-12" d="M1347,496.05c.94,1.63,3.15,2.27,4.83,1.43,.43-.22,.05-.86-.38-.65-1.32,.66-3.07,.11-3.8-1.16-.24-.42-.89-.04-.65,.38h0Z"/>
      <path class="cls-12" d="M1301.16,483.5c3.25,12.78,6.25,25.63,8.98,38.53,.1,.47,.82,.27,.72-.2-2.74-12.9-5.73-25.75-8.98-38.53-.12-.47-.84-.27-.72,.2h0Z"/>
      <path class="cls-12" d="M1310.65,509.94c1.5,5.45,2.79,10.96,3.87,16.5,.09,.47,.82,.27,.72-.2-1.08-5.55-2.37-11.05-3.87-16.5-.13-.46-.85-.27-.72,.2h0Z"/>
      <path class="cls-12" d="M1121.88,317.27c-4.18,2.52-5.33,7.74-3.97,12.2,1.2,3.92,4.64,8.23,9.22,7.39,.47-.09,.27-.81-.2-.72-4.27,.78-7.39-3.59-8.39-7.18-1.13-4.06-.07-8.75,3.72-11.03,.41-.25,.04-.9-.38-.65h0Z"/>
      <path class="cls-12" d="M1124.9,332.66c1.31,1.73,3.63,2.07,5.67,1.75,2.25-.36,4.34-1.62,5.76-3.39,3.09-3.87,2.49-9.62-.72-13.22-1.81-2.02-4.29-3.34-6.93-3.86-.47-.09-.67,.63-.2,.72,5.43,1.07,9.8,5.82,9.06,11.56-.35,2.71-1.91,5.09-4.29,6.45-2.16,1.23-5.96,1.91-7.7-.39-.29-.38-.94,0-.65,.38h0Z"/>
      <path class="cls-12" d="M1077.74,298.02c14.32,6.95,30.53,7.96,45.34,13.48,.45,.17,.65-.56,.2-.72-14.75-5.49-30.9-6.49-45.16-13.4-.43-.21-.81,.44-.38,.65h0Z"/>
      <path class="cls-12" d="M1097.88,290.08c11.3-3.04,22.61-6.07,33.91-9.11,.47-.13,.27-.85-.2-.72-11.3,3.04-22.61,6.07-33.91,9.11-.47,.13-.27,.85,.2,.72h0Z"/>
      <path class="cls-12" d="M1119.25,266.58c-.66-3.03,1.28-5.97,4.01-7.18,2.92-1.3,6.43-.9,9.28,.41,5.67,2.61,8.91,9.33,5.99,15.18-.22,.43,.43,.81,.65,.38,2.47-4.93,.91-10.9-3.29-14.34-3.89-3.19-10.34-4.61-14.6-1.31-2.14,1.65-3.33,4.4-2.75,7.07,.1,.47,.83,.27,.72-.2h0Z"/>
      <path class="cls-12" d="M1154.22,151.34c3.33,5.04,6.66,10.08,9.99,15.12s6.74,9.71,9.39,14.95c.22,.43,.86,.05,.65-.38-2.65-5.24-6.16-10.06-9.39-14.95s-6.66-10.08-9.99-15.12c-.26-.4-.91-.03-.65,.38h0Z"/>
      <path class="cls-12" d="M1153.37,145.67c3.26,4.23,6.53,8.46,9.78,12.7,3.11,4.05,6.15,8.15,8.68,12.59,.24,.42,.89,.04,.65-.38-2.53-4.44-5.57-8.54-8.68-12.59s-6.52-8.47-9.78-12.7c-.29-.38-.94,0-.65,.38h0Z"/>
      <path class="cls-12" d="M1154.57,140.69c13.59,6.67,27.12,13.47,40.59,20.4,.43,.22,.81-.43,.38-.65-13.47-6.92-27-13.72-40.59-20.4-.43-.21-.81,.43-.38,.65h0Z"/>
      <path class="cls-12" d="M1186.42,159.62c4.04,2.16,8.09,4.33,12.13,6.49,.43,.23,.8-.42,.38-.65-4.04-2.16-8.09-4.33-12.13-6.49-.43-.23-.8,.42-.38,.65h0Z"/>
      <path class="cls-6" d="M1379.64,292.84c9.14-1.18,17.51-6.07,23.03-13.45,.29-.39-.36-.76-.65-.38-5.34,7.14-13.53,11.94-22.38,13.08-.47,.06-.48,.81,0,.75h0Z"/>
      <path class="cls-6" d="M1382.49,297.27c4.19-.53,8.22-1.87,11.88-3.97,.42-.24,.04-.89-.38-.65-3.54,2.03-7.45,3.35-11.5,3.87-.47,.06-.48,.81,0,.75h0Z"/>
      <path class="cls-6" d="M1239.1,277.99c6.08,7.75,14.52,14.41,24.82,14.43,.48,0,.48-.75,0-.75-10.1-.02-18.33-6.61-24.29-14.21-.3-.38-.83,.15-.53,.53h0Z"/>
      <path class="cls-6" d="M1255.25,295.37c2.16,.84,4.4,1.46,6.69,1.86,.47,.08,.67-.64,.2-.72-2.29-.4-4.53-1.02-6.69-1.86-.45-.17-.65,.55-.2,.72h0Z"/>
      <path class="cls-6" d="M1290,291.31c-2.98,4.06-3.23,9.78-.66,14.11,.25,.41,.89,.04,.65-.38-2.44-4.11-2.16-9.5,.66-13.35,.29-.39-.36-.76-.65-.38h0Z"/>
      <path class="cls-6" d="M1352.03,291.76c3.08,4.01,2.47,10.17-1.35,13.48-.37,.32,.17,.85,.53,.53,4.05-3.51,4.73-10.14,1.47-14.39-.29-.38-.94,0-.65,.38h0Z"/>
      <path class="cls-6" d="M1357.75,303.29c-.61,1.17-1.39,2.24-2.33,3.17-.34,.34,.19,.87,.53,.53,.98-.97,1.81-2.1,2.44-3.32,.22-.43-.43-.81-.65-.38h0Z"/>
      <path class="cls-6" d="M1284.67,302.18c.33,1.63,1.11,3.15,2.22,4.38,.32,.36,.85-.17,.53-.53-1.03-1.15-1.72-2.55-2.03-4.05-.1-.47-.82-.27-.72,.2h0Z"/>
      <path class="cls-6" d="M1338.35,240.29c5.13-5.46,11.42-9.75,18.39-12.5,.44-.18,.25-.9-.2-.72-7.09,2.81-13.5,7.14-18.72,12.7-.33,.35,.2,.88,.53,.53h0Z"/>
      <path class="cls-6" d="M1282.14,227.73c7.64,2.06,14.57,6.26,19.94,12.08,.33,.36,.86-.18,.53-.53-5.45-5.91-12.51-10.18-20.27-12.28-.47-.13-.67,.6-.2,.72h0Z"/>
      <path class="cls-6" d="M1211.85,212.04c10.07-12.28,22.52-22.53,36.51-30.05,4.03-2.17,8.19-4.1,12.44-5.8,.44-.18,.25-.9-.2-.72-14.84,5.93-28.46,14.74-39.93,25.87-3.31,3.21-6.43,6.61-9.35,10.18-.3,.37,.22,.9,.53,.53h0Z"/>
      <path class="cls-6" d="M1276.29,171.46c8.05-2.93,16.43-4.86,24.96-5.71,.48-.05,.48-.8,0-.75-8.59,.87-17.04,2.79-25.16,5.74-.45,.16-.26,.89,.2,.72h0Z"/>
      <path class="cls-6" d="M1314.33,164.44c1.17-.14,2.35-.28,3.52-.43,.2-.02,.38-.15,.38-.38,0-.18-.17-.4-.38-.38-1.17,.14-2.35,.28-3.52,.43-.2,.02-.38,.15-.38,.38,0,.18,.17,.4,.38,.38h0Z"/>
      <path class="cls-6" d="M1380.98,175.22c2.46,.59,4.79,1.57,6.94,2.91,.41,.26,.79-.39,.38-.65-2.19-1.37-4.6-2.38-7.11-2.98-.47-.11-.67,.61-.2,.72h0Z"/>
      <path class="cls-6" d="M1393.6,181.25c14.73,8.44,27.92,19.39,38.93,32.31,.31,.37,.84-.16,.53-.53-11.04-12.97-24.3-23.96-39.08-32.43-.42-.24-.8,.41-.38,.65h0Z"/>
      <path class="cls-6" d="M1297.65,409.9c1.28,5.36,3.24,10.54,5.83,15.41,.23,.43,.87,.05,.65-.38-2.56-4.81-4.49-9.92-5.75-15.23-.11-.47-.84-.27-.72,.2h0Z"/>
      <path class="cls-6" d="M1307.97,432.94c2.32,5.22,7.54,8.95,13.27,9.31s11.6-2.9,14.48-7.97c.24-.42-.41-.8-.65-.38-2.76,4.85-8.22,7.95-13.83,7.6s-10.42-3.96-12.62-8.94c-.2-.44-.84-.06-.65,.38h0Z"/>
      <path class="cls-6" d="M1338.26,429.98c.65-1.59,1.5-3.09,2.52-4.47,.12-.16,.03-.42-.13-.51-.19-.11-.39-.03-.51,.13-1.06,1.44-1.92,3-2.59,4.65-.08,.19,.08,.41,.26,.46,.21,.06,.38-.07,.46-.26h0Z"/>
      <path class="cls-6" d="M1343.18,419.73c1.87-4.64,3-9.54,3.39-14.53,.04-.48-.71-.48-.75,0-.38,4.92-1.52,9.75-3.36,14.33-.18,.45,.55,.64,.72,.2h0Z"/>
      <path class="cls-6" d="M1213.82,371.65c2.57,1.95,6.11,2.55,9.16,1.41,2.81-1.05,4.99-3.41,5.88-6.26,.14-.46-.58-.66-.72-.2-.83,2.66-2.91,4.89-5.56,5.81-2.83,.98-6.01,.39-8.38-1.41-.38-.29-.76,.36-.38,.65h0Z"/>
      <path class="cls-6" d="M1223.56,377.3c1.39-.12,2.69-.65,3.78-1.53,.16-.13,.13-.4,0-.53-.16-.16-.37-.13-.53,0-.92,.74-2.07,1.2-3.25,1.31-.2,.02-.38,.16-.38,.38,0,.19,.17,.39,.38,.38h0Z"/>
      <path class="cls-6" d="M1414.4,368.25c1.39,2.74,4.14,4.7,7.21,5.06s6.43-1.05,8.38-3.57c.29-.38-.24-.91-.53-.53-1.79,2.32-4.69,3.66-7.63,3.38s-5.48-2.15-6.78-4.72c-.22-.43-.87-.05-.65,.38h0Z"/>
      <path class="cls-6" d="M1417.55,375.58c1.99,1.34,4.68,1.42,6.76,.23,.42-.24,.04-.89-.38-.65-1.86,1.06-4.23,.96-6-.23-.4-.27-.78,.38-.38,.65h0Z"/>
      <circle class="cls-4" cx="1322.9" cy="296.06" r="174.57"/>
    </g>
    <path class="cls-17" d="M69,486c-9.79-8.11-21.34-19.8-31-36-7.98-13.37-27.16-45.55-14-65,2.7-3.99,8.56-10.11,22-13-3.64-10.28-9.4-31.46-3-56,6.89-26.39,28.22-58.15,60-63,5.49-.84,28.86-4.41,43,12,14,16.25,7.62,38.93,7,41,7.49-6.77,17.86-9.13,27-6,11.19,3.84,18.72,15.3,18,28,4.02,2.13,10.61,6.36,16,14,9.78,13.85,8.5,28.83,8,33,6.11-10.31,18.45-27.17,40-37,7.71-3.52,36.37-16.6,51-3,7.22,6.72,8.06,17.19,8,23,2.47,.19,19.99,1.83,28,15,8.97,14.75,3.02,39.05-18,53,3.73-1.24,12.85-3.7,24-1,10.45,2.53,17.16,8.26,20,11-3.11-8.29-8.27-25.8-3-46,4.63-17.76,19.31-45.28,38-44,2.6,.18,12.27,1.4,22,16,.78-3.06,3.89-13.65,14-20,12.05-7.57,26.4-4.33,34,0,16.54,9.42,23.76,36.9,13,66,1.72,.82,7.66,3.89,11,11,3.76,8,1.53,15.38,1,17,7.41-2.41,32.4-9.49,57,3,8.36,4.25,24.66,12.52,28,30,2.71,14.16-4.02,29.44-17,40,14.77-10.25,33.12-9.74,44,0,9.57,8.56,9.98,21.21,10,24,.74-.06,14.12-1.01,16,4,1.86,4.96-8.64,12.79-12,15-21.78,14.3-57.32-1.98-71-9-13.97,6.26-31.06,12.26-51,16-57.17,10.72-104.96-3.35-130-13-7.5,4.55-17.56,9.33-30,12-37.6,8.07-68.66-9.28-78-15-5.03,3.3-12.83,7.39-23,9-25.39,4.01-44.89-10.74-49-14-13.26,6.06-33.51,13.3-59,15-42.36,2.83-74.93-11.24-90-19-2.74-.67-26.77-6.8-28-18-1.12-10.26,16.96-24.03,47-30Z"/>
    <path class="cls-15" d="M406,549c.85-5.51,3.78-19.25,15-27,16.36-11.3,44.91-6.1,65,17,2.13-1.94,6.89-5.72,14-7,12.19-2.19,21.43,4.77,23,6-3.42-10.43,.91-21.77,10-27,9.9-5.69,23.09-2.81,30,7-2.86-3.94-13.65-19.77-11-41,3.78-30.29,31.45-43.81,34-45,20.78-9.71,45.86-6.52,65,8,7.53-13.36,22.33-19.72,35-16,13.44,3.95,18.46,17.47,19,19,1.59,.68,8.71,3.94,12,12,4.59,11.23-2.54,21.37-3,22,15.32-7.79,32.24-4.45,40,6,6.44,8.67,4.52,19.46,4,22,2.05-1.54,12.63-9.16,27-7,18.05,2.71,26.24,18.47,27,20,1.17-.77,11.33-7.19,23-3,9.48,3.4,16.17,12.44,17,23,4.26,.04,10.58,.39,18,2,13.24,2.87,17.64,7.05,25,8,7.19,.92,17.72-1.17,32-15,3.09-9.93,11.81-17.05,22-18,9.53-.89,18.84,3.77,24,12,.51-.71,9.78-13.11,24-12,12.64,.99,23.7,12.21,25,27,2.17-2.5,5.74-6.04,11-9,5.98-3.37,11.54-4.54,15-5,2.01-3.89,7-12.21,17-18,15.77-9.13,31.81-4.91,35-4,.55-.78,11.12-15.21,28-14,14.1,1.01,26.4,12.49,29,28,5.01-2.15,10.79-1.38,15,2,4.42,3.56,6.38,9.43,5,15,1.48,1.41,8.71,8,20,8,2.05,0,11.83-.22,20-8-6.23-6.02-9.09-14.52-7-22,2.96-10.57,15.52-18.02,29-15-4.52-12.42-2.28-26.06,6-35,10.92-11.78,30.81-13.73,46-3,7.38-6.02,17.4-7.57,26-4,11.79,4.89,14.73,16.83,15,18,1.07-1.25,15.87-17.92,34-15,18.66,3,34.69,25.75,30,53,.86-1.31,8.91-13.1,24-14,16.61-.99,26.38,12.14,27,13,4.36-.69,11.59-1.24,20,1,12.96,3.46,20.88,11.46,24,15,2.78-1,9.67-3.06,18-1,5.75,1.42,9.79,4.21,12,6,6.08-10.43,17.16-16.31,28-15,15.72,1.9,26.87,18.42,24,27-1.43,4.27-8.86,14.14-64,10-7.49,3.85-16.16,7.41-26,10-44.32,11.65-83.32-3.98-100-12-5.29,4.72-13.24,10.45-24,14-30.53,10.07-57.91-5.9-63-9-3.83,1.97-13.41,6.22-26,5-10.77-1.04-18.44-5.57-22-8-7.46,3.5-19.54,8.02-35,9-20.64,1.3-36.73-4.39-45-8-3.99,2.96-12.65,8.52-25,10-16.47,1.97-28.89-4.59-33-7-3.75,2.12-11.96,6.08-23,6-13.89-.1-23.61-6.52-27-9-6.37,1.72-14.11,3.29-23,4-11.38,.91-21.26,.16-29-1-6.5,2.36-16.55,5.09-29,5-17.06-.13-30.09-5.52-37-9-8.05,2.07-17.08,3.86-27,5-23.27,2.67-43.5,.81-59-2-7.47,2.95-18.05,6.15-31,7-21.14,1.39-37.87-4.16-47-8-13.13,8.38-31.6,17.78-55,23-61.01,13.62-111.45-10.99-128-20-20.55,5.18-45.12,9.56-73,11-13.92,.72-26.97,.62-39,0-17.98,5.96-46.49,12.53-80,7-19.19-3.17-45.51-11.21-45-18,.15-1.98,2.91-8.19,48-12Z"/>
    <path class="cls-14" d="M570.01,507.46c-6.01-12.3-5.9-27.18-.23-39.59s15.95-20.91,28.17-25.31c12.88-4.63,27.21-3.79,39.57,2.06,12.47,5.9,22.14,16.67,26.79,29.65,2.35,6.57,3.58,13.74,2.69,20.7s-3.75,13.26-9.65,16.84c-.41,.25-.04,.9,.38,.65,10.88-6.61,11.62-21.53,9.01-32.65-3.21-13.67-11.89-25.85-23.89-33.17-12.04-7.34-26.85-9.76-40.52-6.21-12.78,3.31-24.4,11.53-31.09,23-6.94,11.9-8.47,26.95-3.77,39.94,.55,1.52,1.19,3.01,1.9,4.47,.21,.43,.86,.05,.65-.38h0Z"/>
    <path class="cls-14" d="M658.92,486.89c1.65,13.68-5.88,26.3-15.75,35.16-10.51,9.45-26.4,17.98-40.71,12.67-14.55-5.4-21.38-20.95-22.58-35.47-.63-7.6,.2-15.25,3.56-22.16,2.86-5.88,7.21-11.03,12.56-14.79,11.45-8.05,26.99-8.76,39.32-2.23,1.51,.8,2.95,1.71,4.33,2.7,.39,.28,.77-.37,.38-.65-11.59-8.32-27.69-9.65-40.35-2.96-12.47,6.59-20.28,19.62-20.73,33.63-.48,15.06,4.74,31.95,18.22,40.18,6.4,3.91,13.84,4.96,21.14,3.4s14.66-5.45,20.81-10.04c10.82-8.08,20.19-20.22,20.76-34.2,.07-1.75-.01-3.5-.22-5.24-.06-.47-.81-.48-.75,0h0Z"/>
    <path class="cls-14" d="M624.87,473.15c6.34,5.89,12.16,15.15,9.24,24.11s-12.69,12.58-21,10.41c-4.99-1.31-9.33-4.43-12.49-8.47-.3-.38-.82,.15-.53,.53,5.74,7.32,15.7,11.59,24.71,7.99,3.97-1.59,7.48-4.54,9.32-8.44,1.96-4.15,1.86-8.87,.43-13.16-1.74-5.21-5.15-9.78-9.14-13.49-.35-.33-.88,.2-.53,.53h0Z"/>
    <path class="cls-14" d="M677.83,455.82c7.06-.26,14.08,1.88,19.81,6,5.94,4.27,10.13,10.64,11.91,17.72,1.01,4.01,1.23,8.2,.62,12.29-.07,.47,.65,.68,.72,.2,1.08-7.32-.38-14.88-4.12-21.27s-9.61-11.14-16.47-13.69c-3.98-1.48-8.22-2.16-12.47-2-.48,.02-.48,.77,0,.75h0Z"/>
    <path class="cls-14" d="M700.07,483c5.67,11.42,2.85,26.16-6.58,34.73-.36,.33,.17,.85,.53,.53,9.69-8.8,12.51-23.92,6.7-35.64-.21-.43-.86-.05-.65,.38h0Z"/>
    <path class="cls-14" d="M716.09,506.79c7.34-4.7,17-1.83,23.91,2.3,6.66,3.98,12.31,10.02,15.24,17.25s2.71,15.37-.82,22.42-9.95,12.75-17.4,15.57c-9.54,3.61-20.24,2.94-29.68-.61-.45-.17-.65,.55-.2,.72,8.77,3.29,18.62,4.13,27.66,1.43,7.96-2.38,14.94-7.64,19.21-14.8s5.19-15.2,2.7-22.9-7.88-14.09-14.45-18.54c-7.39-5-18.34-8.75-26.54-3.49-.41,.26-.03,.91,.38,.65h0Z"/>
    <path class="cls-14" d="M692.01,549.5c11.81,9.33,28.1,11.22,41.68,4.68,3.76-1.81,7.21-4.22,10.23-7.11,.35-.33-.18-.86-.53-.53-10.5,10.04-25.98,13.43-39.7,8.58-4.03-1.42-7.8-3.51-11.15-6.16-.37-.3-.91,.23-.53,.53h0Z"/>
    <path class="cls-14" d="M748.54,533.4c1.17,1.66,.77,4.22-.92,5.39-.39,.27-.02,.92,.38,.65,2.01-1.38,2.61-4.4,1.19-6.42-.28-.39-.93-.02-.65,.38h0Z"/>
    <path class="cls-14" d="M608.5,550.26c9.02,12.66,24,20.51,39.47,21.3,4.37,.22,8.75-.15,13.02-1.09,.47-.1,.27-.83-.2-.72-14.9,3.29-31.05-.87-42.84-10.48-3.34-2.72-6.3-5.87-8.8-9.38-.28-.39-.93-.02-.65,.38h0Z"/>
    <path class="cls-14" d="M654.93,567.54c13.15,3.74,27.54,2.07,39.48-4.59,.42-.24,.04-.88-.38-.65-11.77,6.56-25.95,8.21-38.91,4.52-.47-.13-.66,.59-.2,.72h0Z"/>
    <path class="cls-14" d="M530.14,545.29c1.59-9.75,9.44-17.46,18.72-20.29,9.72-2.97,20.11,.21,27.57,6.84,4.23,3.75,7.51,8.5,9.49,13.8,.17,.45,.89,.25,.72-.2-3.58-9.63-11.49-17.67-21.31-20.9s-20.4-.73-27.93,6.18c-4.13,3.8-7.07,8.81-7.98,14.38-.08,.47,.65,.68,.72,.2h0Z"/>
    <path class="cls-14" d="M572.99,537.07c4.42,3.27,7.23,8.47,7.58,13.95,.03,.48,.78,.48,.75,0-.36-5.77-3.31-11.16-7.95-14.6-.39-.29-.76,.36-.38,.65h0Z"/>
    <path class="cls-14" d="M785.45,509.59c3.75-2.19,8.22-.07,11.34,2.28,2.84,2.15,5.29,4.82,7.25,7.79,3.84,5.82,5.87,12.81,5.78,19.78-.05,3.96-.83,7.87-2.3,11.54-.18,.45,.55,.64,.72,.2,5.54-13.82,.85-30.98-11.07-39.96-3.35-2.53-8.11-4.61-12.1-2.28-.42,.24-.04,.89,.38,.65h0Z"/>
    <path class="cls-14" d="M802.6,533.35c1.84,7.45-.41,15.58-5.81,21.03-.34,.34,.19,.87,.53,.53,5.59-5.64,7.91-14.05,6.01-21.76-.12-.47-.84-.27-.72,.2h0Z"/>
    <path class="cls-14" d="M835.3,530.49c5.45,1.17,7.76,7.56,6.77,12.57-1.26,6.36-6.9,10.87-11.74,14.61-.38,.29,.15,.82,.53,.53,5.17-4,11.28-9,12.09-15.97,.6-5.16-1.95-11.28-7.45-12.46-.47-.1-.67,.62-.2,.72h0Z"/>
    <path class="cls-14" d="M935.01,534.56c3.69-5.87,10.21-9.74,17.11-10.31,6.78-.56,13.36,2.33,17.87,7.37,2.56,2.87,4.34,6.34,5.14,10.1,.1,.47,.82,.27,.72-.2-1.47-6.92-6.31-12.91-12.67-15.96s-13.86-2.69-20.09,.59c-3.56,1.87-6.59,4.63-8.73,8.04-.26,.41,.39,.79,.65,.38h0Z"/>
    <path class="cls-14" d="M969.62,540.16c.84,1.41,1.68,2.82,2.52,4.22,.25,.41,.9,.04,.65-.38-.84-1.41-1.68-2.82-2.52-4.22-.25-.41-.9-.04-.65,.38h0Z"/>
    <path class="cls-14" d="M991.68,527.65c8.33-.2,17.84,4.21,19.31,13.21,.62,3.77-.26,7.98-2.91,10.83-3.3,3.57-9.02,4.3-13.64,4.18-2.85-.08-5.82-.76-8.05-2.64-2.09-1.76-3.39-4.32-3.05-7.08,.06-.48-.69-.47-.75,0-.64,5.08,3.72,9,8.31,10.05,2.72,.62,5.56,.49,8.31,.12s5.41-1.01,7.65-2.58c3.3-2.31,4.97-6.28,5.05-10.23,.1-4.48-1.83-8.66-5.19-11.59-4.11-3.59-9.67-5.15-15.06-5.02-.48,.01-.48,.76,0,.75h0Z"/>
    <path class="cls-14" d="M1040.56,540.74c5.82-4.77,11.53-9.73,17.62-14.14,5.52-3.99,11.59-7.52,18.3-9.01,6.23-1.38,13.1-1.08,18.8,1.98,5.05,2.71,8.48,7.48,9.78,13.03,1.41,6.02,.29,12.65-3.6,17.53-.3,.37,.23,.91,.53,.53,6.93-8.69,5.52-22.76-3.25-29.72-5.08-4.03-11.78-5.34-18.13-4.76-7.05,.64-13.55,3.6-19.42,7.42-7.5,4.88-14.26,10.93-21.17,16.59-.37,.31,.16,.83,.53,.53h0Z"/>
    <path class="cls-14" d="M1098.1,533.26c2.81,8.35-2.1,18.3-10.46,21.11-.46,.15-.26,.88,.2,.72,8.74-2.93,13.93-13.28,10.99-22.03-.15-.46-.88-.26-.72,.2h0Z"/>
    <path class="cls-14" d="M1105.04,518.38c8.05-10.05,21.47-15.21,34.18-13.05,.47,.08,.67-.64,.2-.72-12.96-2.2-26.68,2.98-34.91,13.24-.3,.37,.23,.91,.53,.53h0Z"/>
    <path class="cls-14" d="M1127.08,511.97c3.41-2.07,7.79-2.25,11.35-.45,.43,.22,.81-.43,.38-.65-3.8-1.93-8.46-1.77-12.11,.45-.41,.25-.04,.9,.38,.65h0Z"/>
    <path class="cls-14" d="M1143.47,516.91c5.39,1.86,8.82,7.13,9.73,12.58,.92,5.48-.59,11.29-3.81,15.79s-8.47,7.63-14,8.7-12.77,.65-16.67-3.7c-4.55-5.07-2.63-13.05,3.52-15.76,.44-.19,.06-.84-.38-.65-5.33,2.35-7.89,8.61-5.56,13.98,2.55,5.88,9.52,7.52,15.38,7.29,6.14-.24,12.27-2.74,16.51-7.24s6.36-10.49,5.99-16.48c-.4-6.5-4.12-13.05-10.5-15.26-.46-.16-.65,.57-.2,.72h0Z"/>
    <path class="cls-14" d="M1171.98,541.08c1.48,2.21,1.16,5.36-.74,7.23-.35,.34,.18,.87,.53,.53,2.13-2.09,2.52-5.65,.86-8.13-.27-.4-.92-.02-.65,.38h0Z"/>
    <path class="cls-14" d="M1224.37,527.37c-1.12-9.43,6.73-18.78,16.24-19.22,.48-.02,.48-.77,0-.75-9.88,.46-18.16,10.12-16.99,19.97,.06,.47,.81,.48,.75,0h0Z"/>
    <path class="cls-14" d="M1237.45,516.78c3.69-1.91,7.38-3.81,11.07-5.72,.43-.22,.05-.87-.38-.65-3.69,1.91-7.38,3.81-11.07,5.72-.43,.22-.05,.87,.38,.65h0Z"/>
    <path class="cls-14" d="M1259.17,545.99c12.44,6.79,27.82,7.51,40.97,2.3,3.71-1.47,7.21-3.4,10.41-5.77,.38-.28,.01-.93-.38-.65-11.2,8.27-26.02,11.03-39.52,7.76-3.88-.94-7.6-2.38-11.1-4.29-.42-.23-.8,.42-.38,.65h0Z"/>
    <path class="cls-14" d="M1286.76,511.02c6.84-10.22,19.95-14.98,31.91-13.13,12.69,1.97,22.4,11.74,26.1,23.8,2.09,6.81,2.26,14.15,.24,20.99-.14,.46,.59,.66,.72,.2,3.67-12.45,.21-26.66-8.7-36.1s-22.47-12.25-34.59-8.25c-6.59,2.17-12.45,6.32-16.32,12.11-.27,.4,.38,.78,.65,.38h0Z"/>
    <path class="cls-14" d="M1347.96,525.47c2.41-.83,5.23-.25,7.06,1.55s2.46,4.61,1.67,7.04c-.15,.46,.57,.66,.72,.2,.87-2.67,.15-5.79-1.86-7.77s-5.13-2.66-7.79-1.74c-.45,.16-.26,.88,.2,.72h0Z"/>
    <path class="cls-14" d="M1277.51,480.19c5.26-3.12,11.82-2.65,17.29-.29,5.84,2.52,10.59,6.93,15.2,11.2,.35,.33,.89-.2,.53-.53-4.83-4.48-9.84-9.11-16.04-11.6-5.54-2.23-12.09-2.55-17.36,.58-.41,.25-.04,.89,.38,.65h0Z"/>
    <path class="cls-14" d="M1308.92,482.79c3.81,2.5,7.12,5.72,9.72,9.45,.27,.39,.92,.02,.65-.38-2.68-3.85-6.07-7.15-9.99-9.72-.4-.27-.78,.38-.38,.65h0Z"/>
    <path class="cls-14" d="M1345.55,483.14c5.43-2.94,11.99-3.42,17.81-1.38s10.49,6.99,13.79,12.28c6.27,10.05,8.35,22.6,5.85,34.17-.7,3.24-1.75,6.45-3.2,9.44s-3.54,5.98-6.78,7.27c-.44,.18-.25,.9,.2,.72,5.62-2.25,8.18-8.82,9.75-14.21,1.75-6.01,2.22-12.39,1.48-18.6-.75-6.25-2.7-12.36-5.84-17.82s-7.56-10.78-13.49-13.36c-6.36-2.76-13.84-2.44-19.93,.85-.42,.23-.05,.88,.38,.65h0Z"/>
    <path class="cls-14" d="M1385.29,538.36c-3.74,9.35-13.97,13.62-22.71,17.01-.44,.17-.25,.9,.2,.72,9.03-3.51,19.37-7.89,23.23-17.54,.18-.45-.55-.64-.72-.2h0Z"/>
    <path class="cls-14" d="M1408.12,521.47c5.67-2.64,12.09-2.25,17.88-.2s11.62,5.68,15.15,10.72c1.77,2.52,2.87,5.55,2.25,8.65s-2.87,5.9-5.24,7.97c-4.44,3.89-10.5,5.91-16.39,5.35-6.79-.65-13.03-4.69-16.55-10.5-.25-.41-.9-.04-.65,.38,3.25,5.36,8.71,9.26,14.86,10.52,6.19,1.27,12.78-.32,17.84-4.08,5.02-3.74,8.79-9.69,6.06-15.95s-8.88-10.24-14.63-12.78c-6.62-2.93-14.24-3.85-20.96-.72-.44,.2-.06,.85,.38,.65h0Z"/>
    <path class="cls-14" d="M1408.11,533.21c2,7.39,8.8,13.01,16.42,13.6,.48,.04,.48-.71,0-.75-7.29-.57-13.8-6-15.7-13.05-.13-.47-.85-.27-.72,.2h0Z"/>
    <path class="cls-14" d="M1457.43,531.07c5.25-.04,11.42-.13,15.77,3.29,3.43,2.7,5.59,7.97,2.89,11.88-.28,.4,.37,.77,.65,.38,2.77-4.01,.83-9.42-2.55-12.41-4.48-3.97-11.13-3.93-16.75-3.89-.48,0-.48,.75,0,.75h0Z"/>
    <path class="cls-14" d="M1465.61,542.27c3.83,2.05,5.44,7.28,3.39,11.13-.23,.43,.42,.8,.65,.38,2.24-4.19,.54-9.9-3.66-12.15-.43-.23-.8,.42-.38,.65h0Z"/>
    <path class="cls-14" d="M416.42,543.5c6-9.06,16.61-14.6,27.42-14.86s21.26,5.5,27.44,14.53c3.46,5.06,5.57,10.99,5.85,17.12,.02,.48,.77,.48,.75,0-.51-11.12-6.88-21.57-16.27-27.48-9.56-6.03-21.58-6.32-31.76-1.64-5.69,2.62-10.62,6.73-14.09,11.96-.27,.4,.38,.78,.65,.38h0Z"/>
    <path class="cls-14" d="M454.94,544.07c8.63,1.74,13.96,12.4,10.09,20.33-.21,.43,.44,.81,.65,.38,4.07-8.35-1.4-19.59-10.53-21.44-.47-.1-.67,.63-.2,.72h0Z"/>
    <path class="cls-14" d="M396.65,565.78c12.57,6.4,27.58,7.34,40.84,2.51,.45-.16,.26-.89-.2-.72-13.07,4.76-27.86,3.88-40.26-2.44-.43-.22-.81,.43-.38,.65h0Z"/>
  </g>
</svg>