<?xml version="1.0" encoding="UTF-8"?>
<svg id="_Слой_2" data-name="Слой 2" xmlns="http://www.w3.org/2000/svg" viewBox="0 0 1710.04 778.22">
  <defs>
    <style>
      .cls-1 {
        fill: #6d611f;
      }

      .cls-2 {
        opacity: .5;
      }

      .cls-3 {
        fill: #0d0d16;
      }

      .cls-4 {
        fill: #4d4d4d;
      }

      .cls-5 {
        fill: #2f3133;
      }

      .cls-6 {
        fill: #53536b;
      }

      .cls-7 {
        fill: #494963;
      }

      .cls-8 {
        fill: #222228;
      }

      .cls-9, .cls-10 {
        fill: gray;
      }

      .cls-11 {
        fill: #594c16;
      }

      .cls-12 {
        opacity: .24;
      }

      .cls-12, .cls-13 {
        fill: #ffeb62;
      }

      .cls-14 {
        fill: #3f3d56;
        opacity: .49;
      }

      .cls-15 {
        fill: #4d4c63;
        opacity: .54;
      }

      .cls-16 {
        fill: #343447;
      }

      .cls-17 {
        fill: #313147;
      }

      .cls-18 {
        fill: #14141c;
      }

      .cls-19 {
        fill: none;
      }

      .cls-20 {
        fill: #4f4f4f;
      }

      .cls-13 {
        opacity: .22;
      }

      .cls-21 {
        fill: #282838;
      }

      .cls-10 {
        opacity: .34;
      }

      .cls-22 {
        fill: #1a1a1a;
      }

      .cls-23 {
        fill: #444463;
      }

      .cls-24 {
        fill: #66581c;
      }

      .cls-25 {
        fill: #5a5a5b;
      }

      .cls-26 {
        fill: #666;
      }

      .cls-27 {
        fill: #22222b;
      }

      .cls-28 {
        fill: #3f3f56;
      }

      .cls-29 {
        fill: #493e10;
      }
    </style>
  </defs>
  <g id="_Слой_3" data-name="Слой 3">
    <ellipse class="cls-3" cx="1066.81" cy="474.12" rx="296.71" ry="296.75" transform="translate(72.33 1085.59) rotate(-55.55)"/>
    <ellipse class="cls-2" cx="1056.49" cy="274.95" rx="81.18" ry="65.77" transform="translate(-22.35 107.98) rotate(-5.79)"/>
    <ellipse class="cls-2" cx="901.19" cy="310.7" rx="25.51" ry="25.43" transform="translate(-26.75 92.49) rotate(-5.79)"/>
  </g>
  <g id="_Слой_2-2" data-name="Слой 2">
    <path class="cls-18" d="M367,618.82c3.92-9.29,10.44-22.66,21-37,22.25-30.24,61.42-63.5,77-54,8.76,5.35,7.86,22.12,7,38-1.28,23.78-10.03,41.88-16,52,6.05-.81,15.41-1.19,26,2,22.64,6.82,34.01,24.88,37,30,7.58-8.97,15.42-12.49,20-14,20.56-6.79,46.07,3.52,64,26-.08-15.43,1.79-40.93,14-69,23.56-54.16,68.46-78.39,85-87,31.1-16.19,65.45-34.07,95-18,27.13,14.75,40.78,53,35,95,8.41-6.56,19.35-13.32,33-18,50.49-17.31,97.2,7.82,108,14,5.39-5.03,12.35-10.67,21-16,14.48-8.92,21.43-14.14,31-14,8.73,.12,15.95,4.12,21,8,2.87-5.05,26.2-44.59,70-50,43.67-5.39,89.69,25.37,106,76,1.34-2.87,14.7-30.31,45-36,25.2-4.73,51.68,7.56,66,31,15.32-17.33,39.6-23.66,61-16,22.7,8.13,37.79,30.43,37,55,8.83-7.58,21.1-8.1,29-2,8.56,6.61,8.06,17.95,8,19,3.51-.42,19.64-1.96,33,9,12.97,10.64,21.5,31.59,12,49-7.18,13.16-22.69,20.69-39,19-9.24,8.64-23.44,19.56-43,27-47.39,18.02-90.66,2.06-103-3-9.32,9.99-26.37,25.42-52,35-48.8,18.24-92.49,1.76-104-3-15.73,2.17-35.88,3.41-59,1-33.98-3.54-60.97-13.56-79-22-8.25,1.25-18.82,2.06-31,1-16.97-1.48-30.64-6.02-40-10-10.92,6.04-29.52,14.47-54,17-32.9,3.4-58.68-5.69-71-11-25.53,15.81-54.5,17-73,3-4.17-3.16-11.27-9.7-16-22-16.18,7.88-36.28,15.72-60,21-59.56,13.25-110.24,3.27-139-5-6.76,4.08-19.62,10.6-37,12-23.99,1.94-42.02-7.04-49-11-14.04,8.74-39.95,22.22-75,26-49.79,5.38-87.93-12.07-103-20-13.15,7.09-49.52,24.27-89,12-7.44-2.31-39.44-12.26-42-32-3.11-24,39.54-45.28,47-49,38.24-19.08,77.2-14.66,99-10-1.19-2.71-9.37-22.11,0-38,10.48-17.79,39.44-25.26,66-11Z"/>
    <g>
      <path class="cls-4" d="M1302.38,588.88c20-13.19,38.57-24.13,51.92-30.85-.52-.98-1.06-1.96-1.61-2.93-15.42,7.38-33.87,17.88-53.07,30.55-20.11,13.27-37.74,26.72-50.81,38.38,.56,1,1.17,1.98,1.82,2.96,11.28-9.86,29.96-23.74,51.75-38.11Z"/>
      <ellipse class="cls-17" cx="1303.41" cy="598.82" rx="55.68" ry="55.98"/>
      <path class="cls-4" d="M1393.41,545.4c-3.19-4.89-18.93-.73-40.73,9.7,.55,.97,1.1,1.95,1.61,2.93,11.6-5.84,19.25-8.49,20.45-6.65,2.58,3.95-25.64,27.15-63.03,51.81-37.39,24.66-69.79,41.45-72.37,37.5-1.08-1.65,3.21-6.65,11.28-13.7-.65-.98-1.26-1.96-1.82-2.96-17.05,15.21-26.35,27.38-23.26,32.1,5.45,8.35,47.45-9.67,93.8-40.25,46.36-30.58,79.52-62.14,74.07-70.48Z"/>
      <ellipse class="cls-27" cx="1294.37" cy="563.28" rx="23.69" ry="16.08" transform="translate(-99.99 343.22) rotate(-14.55)"/>
      <ellipse class="cls-27" cx="1308.36" cy="637.73" rx="11.84" ry="8.04" transform="translate(-118.25 349.12) rotate(-14.55)"/>
      <ellipse class="cls-27" cx="1334.53" cy="569.44" rx="5.63" ry="6.41" transform="translate(148.98 1405.92) rotate(-58.31)"/>
    </g>
    <g>
      <path class="cls-19" d="M1218.22,307.63c.2-3.78,.41-7.71,.66-11.77-.32,4.13-.54,8.07-.66,11.77Z"/>
      <path class="cls-19" d="M1311.17,332.62c2.5,1.43,4.9,2.88,7.22,4.34,.8,.5,1.58,1.01,2.36,1.51,.01-.01,.03-.03,.04-.04-2.97-1.94-6.14-3.91-9.54-5.86l-.08,.05Z"/>
      <path class="cls-19" d="M1257.26,312.05c-.02-.07-.03-.14-.05-.22-15.21-3.26-28.6-4.17-38.99-4.21,10.28,.16,23.75,1.13,39.04,4.42Z"/>
      <path class="cls-28" d="M1359.79,196.46c.15,.1,.3,.21,.45,.31,3.1-3.98,6.21-8.2,9.29-12.7,.24-7.79,.15-16.09-.43-24.82-2.22-33.82-9.51-58.98-17.46-78.56-.24-.15-4.53-3.7-9.97-6.22,7.95,19.58,16.47,47.22,18.7,81.03,.99,15.07,.56,28.83-.58,40.95Z"/>
      <path class="cls-6" d="M1320.47,176.7c10.2,3.57,24.33,9.57,39.33,19.75,1.13-12.12,1.57-25.88,.58-40.95-2.22-33.81-10.75-61.45-18.7-81.03,0,0,0-.01,0-.02-.44-.28-10.12-6.27-19.95-1.25-7.46,3.81-9.63,11.21-9.98,12.47,2.45,18.3,3.41,41.89-1.25,68.58-1.65,9.45-3.8,18.14-6.19,26.04,6.03-1.86,11.54-2.96,16.17-3.6Zm7.38-91.13c1.46,5.27,2.6,10.62,3.44,16.02,.09,.59-.81,.84-.9,.25-.84-5.4-1.98-10.75-3.44-16.02-.16-.58,.74-.83,.9-.25Zm.78,89.45c-.13,.59-1.03,.34-.9-.25,1.01-4.52,1.86-9.08,2.53-13.67,2.36-16.25,2.46-32.82,.37-49.1-.08-.6,.86-.59,.94,0,.6,4.68,1.03,9.37,1.27,14.08,.83,16.41-.61,32.91-4.2,48.94Zm5.77-.08c-.14,.59-1.04,.34-.9-.25,1.51-6.34,2.68-12.77,3.47-19.25,2.72-22.47,1.01-45.42-5.05-67.23-.16-.58,.74-.83,.9-.25,1.76,6.33,3.16,12.75,4.19,19.23,3.56,22.48,2.68,45.6-2.6,67.75Z"/>
      <path class="cls-28" d="M1442.75,105.88c-.21,24.37-3.39,57.58-16.01,94.57-5.88,17.24-12.79,32.27-19.66,45.04,1.9,2.98,3.67,5.95,5.31,8.88,.86-.49,1.71-.98,2.57-1.49,6.8-12.67,13.6-27.55,19.42-44.58,12.62-36.99,15.57-64.59,15.78-88.96-.3-.43-5.53-16.74-15.17-20.47,4.82,2.89,7.56,6.71,7.76,7.01Z"/>
      <path class="cls-6" d="M1365.36,200.39c18.49,13.71,31.88,29.65,41.71,45.1,6.88-12.77,13.78-27.8,19.66-45.04,12.62-36.99,15.8-70.2,16.01-94.57-.2-.29-2.95-4.12-7.76-7.01-3.35-2.01-7.71-3.57-12.92-3.17-9.63,.75-15.22,7.66-16.15,8.85-5.5,20.57-14.93,46.1-31.73,72.46-1.54,2.42-3.1,4.77-4.66,7.05-3.08,4.49-6.18,8.72-9.29,12.7,1.7,1.16,3.4,2.36,5.12,3.63Zm38.47-6.85c-4.66,8.6-9.9,16.87-15.7,24.75-.35,.48-1.16,.01-.81-.47,5.8-7.88,11.04-16.15,15.7-24.75,.29-.53,1.09-.06,.81,.47Zm6.52-16.93c-1.26,2.81-2.51,5.63-3.77,8.44-.25,.55-1.05,.07-.81-.47,1.26-2.81,2.51-5.63,3.77-8.44,.25-.55,1.05-.07,.81,.47Zm-24.45,34.89c-.32,.51-1.13,.04-.81-.47,4.31-6.75,8.35-13.68,12.09-20.76,13.23-25.03,22.77-51.97,28.29-79.73,.12-.59,1.02-.34,.9,.25-1.56,7.86-3.44,15.65-5.64,23.36-7.79,27.3-19.57,53.43-34.84,77.36Zm44.33-97.98c-1.75,7.47-3.84,14.86-6.26,22.14-.19,.57-1.09,.32-.9-.25,2.42-7.28,4.51-14.67,6.26-22.14,.14-.59,1.04-.34,.9,.25Z"/>
      <path class="cls-6" d="M1416.28,261.7c2.03,.27,3.79,.66,5.19,1.04-.04,.05-.08,.1-.12,.14,4.17,.51,8.88,1.58,13.83,3.6,15.55,6.35,23.53,18.09,26.19,22.44,.63,3.01,1.22,6.38,1.72,10.05,29.88-30.22,49.21-61.05,61.54-84.96,.03-.06,.06-.11,.09-.17-.1-.69-2.44-15.61-16-21.18-10.29-4.22-19.62,0-21.19,.74-16.31,18.3-39.24,39.67-70.16,58.07-.81,.48-1.61,.94-2.42,1.41-.86,.5-1.72,1-2.57,1.49,1.39,2.47,2.69,4.92,3.9,7.33Zm31.21,2.18c-.49,.36-.95-.45-.47-.81,13.01-9.58,25.13-20.34,36.2-32.11,.41-.44,1.07,.22,.66,.66-11.13,11.83-23.32,22.63-36.39,32.26Zm64.92-53.82c-3.06,4.15-6.19,8.25-9.44,12.25-13.76,16.94-29.89,31.55-47.21,44.77-.48,.37-.94-.45-.47-.81,5.7-4.35,11.3-8.84,16.73-13.53,14.88-12.86,27.93-27.34,39.59-43.15,.35-.48,1.17-.01,.81,.47Z"/>
      <path class="cls-28" d="M1530.87,350.37c-20.84,17.58-51.05,38.96-91.03,55.48-.84,4.4-1.86,8.86-3.09,13.36,40.9-16.53,65.8-32.43,86.99-50.32,.1-.4,5.12-9.22,7.13-18.53Z"/>
      <path class="cls-6" d="M1457.63,361.25c-.86,1.58-4.15,7.17-11.22,9.98-.96,.46-2.06,.95-3.28,1.44-.11,10.5-1.07,21.65-3.28,33.19,39.98-16.53,70.18-37.9,91.03-55.48,.05-.04,.1-.08,.15-.12,.18-.67,3.74-15.35-6.65-25.7-7.88-7.85-18.11-7.54-19.85-7.45-11.67,5.62-25.4,11.31-40.99,16.2-1.19,11-3.51,20.44-5.91,27.95Z"/>
      <path class="cls-21" d="M1320.47,215.36c22.19,21.25,30.44,46.58,33.67,59.85,1.24,8.43,2.15,21.72-1.25,37.41-.12,.57-.26,1.12-.39,1.67,4.36-5.84,9.05-11.81,14.11-17.88,9.79-11.76,19.48-22.12,28.68-31.17,1.78-.92,3.86-1.8,6.23-2.49,5.57-1.62,10.71-1.58,14.76-1.04-1.22-2.41-2.52-4.85-3.9-7.33-1.64-2.93-3.41-5.89-5.31-8.88-9.83-15.46-23.22-31.4-41.71-45.1-1.71-1.27-3.42-2.47-5.12-3.63-.15-.1-.3-.21-.45-.31-15-10.19-29.12-16.18-39.33-19.75-4.63,.64-10.14,1.74-16.17,3.6-2.43,.75-4.94,1.61-7.52,2.64-.74,.29-1.47,.59-2.19,.9,.86,4.61,1.6,9.29,2.21,13.97,11.34,5.9,18.92,13.01,23.67,17.55Z"/>
      <path class="cls-21" d="M1443.12,372.67c-4.43,1.77-10.55,3.5-17.91,3.55-4.35,.03-8.15-.54-11.22-1.25-8.73-8.57-13.54-16.83-16.21-22.44-2.02-4.24-3.41-7.22-3.74-11.22-.02-.19-.02-.38-.03-.56-.82,.99-1.64,2-2.46,3.06-3.38,4.35-6.18,8.56-8.51,12.46,2.3,5.56,3.89,11.76,4.56,18.37,1.33,13.08-1.2,25.31-6.37,34.63l15.19,79.3c.17,1.05,.29,2.12,.36,3.22,9.87-10.9,20.85-25.6,29.68-44.48,4.42-9.45,7.79-18.85,10.3-28.07,1.23-4.5,2.25-8.96,3.09-13.36,2.21-11.54,3.16-22.69,3.28-33.19Z"/>
      <path class="cls-16" d="M1430.2,371.22c-3.9-2.48-9.05-6.43-13.72-12.47-9.11-11.79-10.82-24.29-11.22-29.93-3.53,3.27-7.37,7.22-11.25,11.9,.01,.19,.02,.38,.03,.56,.33,4,1.72,6.98,3.74,11.22,2.67,5.61,7.48,13.87,16.21,22.44,3.08,.71,6.87,1.28,11.22,1.25,7.36-.05,13.48-1.78,17.91-3.55,1.23-.49,2.33-.98,3.28-1.44-7.82,3.1-14.69,.6-16.21,0Z"/>
      <path class="cls-1" d="M1173.45,302.55l15.3-10.04c.71-3,1.52-6.08,2.42-9.22-.82,.16-1.52,.41-2.05,.76l-24.4,16.02c-3.57,2.35-5.25,7.42-3.73,11.34l6.65,17.24c1.94-1.68,3.92-3.28,5.92-4.78l-3.84-9.96c-1.51-3.92,.16-8.99,3.73-11.34Z"/>
      <path class="cls-11" d="M1188.75,292.51l-15.3,10.04c-3.57,2.35-5.25,7.42-3.73,11.34l3.84,9.96c3.01-2.26,6.09-4.31,9.24-6.13,.59-.46,1.18-.92,1.75-1.36,.82-7.09,2.13-15.13,4.2-23.85Z"/>
      <path class="cls-23" d="M1285.55,192.91c4.11,1.45,7.84,3.12,11.24,4.89-.61-4.68-1.36-9.35-2.21-13.97-5.96-32.06-17.5-60.75-30.23-60.75-.26,0-.51,.02-.77,.04-5.48,21.15-9.5,42.84-11.94,64.76,7.94-.33,20.15,.18,33.91,5.03Zm-9.65-48.23c5.62,13.06,9.51,26.8,11.56,40.87,.09,.59-.82,.84-.9,.25-2.03-13.98-5.88-27.67-11.46-40.65-.24-.55,.57-1.02,.81-.47Zm-8-11.82c1.7,2.04,3.17,4.25,4.38,6.6,.27,.54-.53,1.01-.81,.47-1.17-2.29-2.59-4.44-4.23-6.41-.38-.46,.28-1.12,.66-.66Zm-8.69,50.96c.04,.6-.9,.6-.94,0-.25-3.8-.1-7.61,.42-11.39,.08-.59,.98-.34,.9,.25-.5,3.69-.63,7.42-.39,11.14Zm2.96-46.83c-3.52,16.23-7.02,32.57-7.45,49.23-.02,.6-.95,.6-.94,0,.43-16.74,3.95-33.17,7.48-49.48,.13-.59,1.03-.34,.9,.25Z"/>
      <path class="cls-6" d="M1247.74,193.45c1.01-1.91,1.98-3.76,2.9-5.52-.96,1.78-1.93,3.62-2.9,5.52Z"/>
      <path class="cls-6" d="M1250.64,187.93c.32-.02,.67-.03,1.01-.04,2.44-21.92,6.46-43.61,11.94-64.76-15.4,1.4-27.61,44.61-31.33,83.85,6.68-7.84,13.06-14.17,18.38-19.05Zm2.02-46.11c.78-1.72,1.56-3.44,2.35-5.16,.1-.23,.44-.29,.64-.17,.23,.14,.27,.41,.17,.64-.78,1.72-1.56,3.44-2.35,5.16-.1,.23-.44,.29-.64,.17-.23-.14-.27-.41-.17-.64Zm-12.51,49.04c.15-13.61,3.06-27.08,8.53-39.55,.24-.55,1.05-.07,.81,.47-5.4,12.31-8.26,25.64-8.4,39.08,0,.6-.94,.6-.94,0Z"/>
      <path class="cls-6" d="M1123.45,387.43c-.28,.87-.56,1.79-.85,2.68,3.02-5.84,6.17-11.54,9.45-17.02-3.27,5.02-6.12,9.83-8.61,14.34Z"/>
      <path class="cls-6" d="M1216.63,307.85c.44,0,.87-.02,1.31-.02,.09-.06,.19-.13,.28-.19-.52,.07-1.05,.14-1.59,.22Z"/>
      <path class="cls-6" d="M1182.8,317.72c1.45-.84,2.91-1.63,4.39-2.37-.89,.33-1.78,.67-2.64,1.01-.58,.44-1.16,.9-1.75,1.36Z"/>
      <path class="cls-23" d="M1268.72,342.04l-11.12-28.83c-.14-.37-.25-.76-.34-1.15-15.28-3.29-28.76-4.27-39.04-4.42-.09,.06-.19,.13-.28,.19,.02,0,.04,0,.06,0,9.9,0,26,2,41,10,0,0,6.22,14.78,8,20,.34,1,.68,2.01,1,3,.18,.54,.48,1.25,1,2,.68,.99,1.46,1.62,2,2,.17,.06,.34,.13,.51,.19-1.38-.94-2.4-1.97-2.79-2.98Z"/>
      <path class="cls-23" d="M1288.89,347.25c.22,.31,.44,.61,.66,.92,.23,.33,.47,.65,.71,.97,3.7-3.2,7.31-6.5,10.83-9.89l-12.19,8Z"/>
      <path class="cls-11" d="M1316.27,343.56c.75-2.18,1.46-4.38,2.12-6.6-2.32-1.46-4.72-2.91-7.22-4.34l.08-.05,3.12-2.05c3.85-2.53,5.66-8,4.03-12.23l-11.12-28.83c-.52-1.34-1.32-2.39-2.29-3.12-2.1-1.58-5.01-1.67-7.64,.05l-26.31,17.27c-3.85,2.53-5.66,8-4.03,12.23l11.12,28.83c.54,1.4,1.4,2.48,2.44,3.22,.73,.02,1.54,0,2.43-.12,2.25-.31,3.99-1.07,5.1-1.66,.26,.36,.52,.73,.78,1.09l12.19-8c-3.52,3.39-7.12,6.69-10.83,9.89,1.65,2.29,3.31,4.56,4.97,6.83,4.06-3.77,7.95-7.72,11.65-11.86,.4-.45,1.06,.21,.66,.66-3.03,3.39-6.18,6.67-9.46,9.83-.75,.72-1.53,1.42-2.29,2.13,3.06,4.17,6.13,8.31,9.21,12.4,.95-1.75,1.88-3.52,2.77-5.31,1.51-7.8,4.47-14.76,8.52-20.26Zm-19.56-46.21c1.5,.09,2.9,.64,4.08,1.56,.2,.16,.16,.5,0,.66-.19,.19-.46,.16-.66,0-.97-.76-2.19-1.21-3.42-1.29-.25-.02-.47-.2-.47-.47,0-.24,.22-.48,.47-.47Zm-3.56,1.76c-6.43,3.66-12.53,7.86-18.24,12.58-.46,.38-1.13-.28-.66-.66,5.76-4.77,11.93-9.03,18.43-12.72,.52-.3,.99,.51,.47,.81Zm-19.21,21.19c-.24,.14-.49,.03-.64-.17-.76-.99-1.12-2.29-.99-3.53,.03-.25,.19-.47,.47-.47,.23,0,.49,.22,.47,.47-.12,1.11,.18,2.16,.86,3.06,.15,.2,.03,.52-.17,.64Zm9.72-.76c0-7.06,4.82-12.77,10.76-12.77s10.76,5.72,10.76,12.77-4.82,12.77-10.76,12.77-10.76-5.72-10.76-12.77Z"/>
      <path class="cls-23" d="M1304.99,369.13c.6,.79,1.19,1.59,1.78,2.38,.18-2.64,.51-5.21,.99-7.69-.89,1.79-1.82,3.56-2.77,5.31Z"/>
      <path class="cls-23" d="M1316.27,343.56c1.38-1.87,2.87-3.58,4.49-5.09-.78-.51-1.56-1.01-2.36-1.51-.66,2.22-1.37,4.42-2.12,6.6Z"/>
      <path class="cls-23" d="M1306.71,379.46c.04,1.38,.13,2.83,.29,4.37,.25,2.35,.81,6.17,2.23,10.76-1.08-3.74-1.85-7.69-2.27-11.8-.11-1.12-.19-2.23-.25-3.34Z"/>
      <path class="cls-7" d="M1218.88,295.86c.81-12.83,2.14-27.09,5.52-42.66,3.04-16.51,8.01-32.62,16.72-47.04,2.25-4.46,4.51-8.72,6.62-12.71,.97-1.9,1.94-3.75,2.9-5.52-5.33,4.87-11.7,11.21-18.38,19.05-11.73,13.78-24.41,32.23-33.99,55.77-2.89,7.09-5.21,13.97-7.1,20.55-.9,3.15-1.71,6.23-2.42,9.22-2.07,8.71-3.38,16.76-4.2,23.85,.85-.34,1.74-.67,2.64-1.01,9.24-4.63,19.05-7.29,29.44-7.5,.53-.08,1.07-.15,1.59-.22,.13-3.7,.34-7.64,.66-11.77Zm6.12-73.02c2.43-2.2,5.22-3.94,8.26-5.16,.56-.22,.8,.68,.25,.9-2.89,1.16-5.55,2.83-7.85,4.92-.45,.4-1.11-.26-.66-.66Z"/>
      <path class="cls-28" d="M1352.89,312.62c3.39-15.69,2.49-28.98,1.25-37.41-3.22-13.27-11.47-38.6-33.67-59.85-4.75-4.55-12.33-11.65-23.67-17.55-3.4-1.77-7.13-3.44-11.24-4.89-13.75-4.86-25.97-5.36-33.91-5.03-.34,.01-.68,.03-1.01,.04-.92,1.77-1.89,3.62-2.9,5.52-2.11,3.98-4.37,8.24-6.62,12.71,.63-1.04,1.27-2.08,1.94-3.1,.33-.5,1.14-.03,.81,.47-4.09,6.26-7.5,12.94-10.25,19.9-9.95,25.09-11.78,52.48-13.46,79.14-.04,.6-.97,.6-.94,0,.48-7.63,.98-15.26,1.68-22.88,.81-8.81,1.88-17.7,3.5-26.48-3.38,15.57-4.71,29.82-5.52,42.66-.26,4.07-.46,8-.66,11.77,10.39,.04,23.78,.94,38.99,4.21-.83-3.97,.97-8.6,4.42-10.86l26.31-17.27c3.44-2.26,13.72-.72,17.05,2.64,.97,.73,1.77,1.78,2.29,3.12l11.12,28.83c1.63,4.22-.17,9.7-4.03,12.23l-3.12,2.05c3.41,1.95,6.58,3.92,9.54,5.86,4.55-4.24,9.98-6.93,15.99-7.54,1.34-.14,2.66-.15,3.98-.08,3.61-5.34,7.51-10.86,11.73-16.52,.13-.56,.27-1.11,.39-1.67Zm-91.14-92.27c-4.96-2.5-10.28-4.22-15.77-5.1-.59-.1-.34-1,.25-.9,5.57,.9,10.96,2.66,15.99,5.2,.54,.27,.06,1.08-.47,.81Zm9.86,5.16c-.51-.32-.04-1.13,.47-.81,5.47,3.47,10.63,7.42,15.4,11.8,16.87,15.46,28.94,36.08,33.94,58.42,.13,.59-.77,.84-.9,.25-1.38-6.16-3.28-12.19-5.69-18.02-8.72-21.08-23.96-39.4-43.22-51.64Zm56.39,101.9c.05,.6-.88,.6-.94,0-.65-7.52-1.59-15.01-2.83-22.46-.1-.59,.8-.84,.9-.25,1.26,7.53,2.21,15.1,2.87,22.71Zm8.36-58.92c-2.32-6.72-5.28-13.2-8.84-19.35-12.68-21.93-32.71-39.54-56.26-48.95-.55-.22-.31-1.12,.25-.9,6.67,2.66,13.08,5.96,19.12,9.85,10.78,6.94,20.39,15.7,28.34,25.76,7.9,10.01,14.13,21.28,18.29,33.33,.2,.57-.71,.81-.9,.25Zm8.17,34.98c-.09-7.39-1.03-14.74-2.79-21.92-.14-.59,.76-.83,.9-.25,1.78,7.26,2.73,14.69,2.82,22.17,0,.6-.93,.6-.94,0Z"/>
      <path class="cls-1" d="M1278.14,344.73l-11.12-28.83c-1.63-4.22,.17-9.7,4.03-12.23l26.31-17.27c2.63-1.73,5.54-1.63,7.64-.05-3.33-3.36-13.61-4.89-17.05-2.64l-26.31,17.27c-3.45,2.26-5.25,6.89-4.42,10.86,.02,.07,.03,.14,.05,.22,.09,.39,.2,.78,.34,1.15l11.12,28.83c.39,1.01,1.41,2.03,2.79,2.98,2.5,.94,4.99,1.87,7.49,2.81,.46,.06,.99,.11,1.57,.12-1.04-.74-1.9-1.82-2.44-3.22Z"/>
      <ellipse class="cls-22" cx="1294.42" cy="319.54" rx="10.76" ry="12.77"/>
      <path class="cls-7" d="M1347.95,329.76c1.74-.18,3.47-.17,5.17,0,5.93-7.72,12.08-15.52,18.46-23.38,12.53-15.43,25.04-29.97,37.41-43.64,2.86-.29,7.18-.49,12.35,.14,.04-.05,.08-.1,.12-.14-1.4-.38-3.16-.77-5.19-1.04-4.06-.54-9.19-.58-14.76,1.04-2.37,.69-4.45,1.57-6.23,2.49-9.2,9.05-18.89,19.42-28.68,31.17-5.05,6.07-9.75,12.05-14.11,17.88-4.22,5.66-8.12,11.17-11.73,16.52,.56,.03,1.11,.08,1.67,.14,1.78-.59,3.62-1,5.52-1.2Z"/>
      <path class="cls-28" d="M1461.37,288.93c-2.66-4.35-10.64-16.1-26.19-22.44-4.95-2.02-9.67-3.08-13.83-3.6-5.17-.64-9.49-.43-12.35-.14-12.36,13.68-24.87,28.21-37.41,43.64-6.38,7.86-12.53,15.66-18.46,23.38,12.45,1.27,23.74,11.59,29.9,26.48,2.33-3.9,5.13-8.11,8.51-12.46,.82-1.06,1.64-2.07,2.46-3.06,3.88-4.68,7.73-8.64,11.25-11.9,.4,5.63,2.11,18.14,11.22,29.93,4.67,6.04,9.82,9.99,13.72,12.47,1.52,.6,8.39,3.1,16.21,0,7.07-2.81,10.36-8.39,11.22-9.98,2.4-7.51,4.71-16.95,5.91-27.95,.12-1.07,.23-2.13,.33-3.22,.5-5.83,.6-11.34,.44-16.49,31.33-30.9,48.19-55.1,60.86-79.72-.06-.4,1.19-10.48-.53-19.85-12.33,23.92-31.67,54.74-61.54,84.96-.5-3.67-1.09-7.03-1.72-10.05Zm-25.55,1.48c.55,.25,.07,1.05-.47,.81-2.74-1.23-5.67-2.04-8.66-2.4-.59-.07-.6-1.01,0-.94,3.16,.38,6.23,1.22,9.13,2.53Zm2.31,55.64c-.25,.55-1.05,.07-.81-.47,6.27-13.97,5.39-30.7-2.25-43.96-.3-.52,.51-.99,.81-.47,7.82,13.57,8.66,30.62,2.25,44.9Zm-17.45-20.52c-.12-.59,.78-.84,.9-.25,1.66,8.02,4.24,16.91,11.86,21.24,.52,.3,.05,1.11-.47,.81-7.83-4.46-10.57-13.53-12.29-21.8Zm10.09-28.4c-3.27-1.87-7.36-2.11-10.81-.59-.55,.24-1.02-.57-.47-.81,3.77-1.66,8.17-1.45,11.76,.59,.52,.3,.05,1.11-.47,.81Zm-11.6-7.81c-3.59,1.83-7.08,3.84-10.44,6.05-11.85,7.8-22.11,17.95-30.05,29.71-.34,.5-1.15,.03-.81-.47,2.24-3.31,4.65-6.51,7.23-9.55,9.3-10.96,20.78-20.03,33.59-26.54,.54-.27,1.01,.53,.47,.81Zm5.22,22.43c.48-.37,.94,.45,.47,.81-6.22,4.78-11.93,10.21-17.04,16.15-.39,.46-1.05-.21-.66-.66,5.17-6.01,10.95-11.46,17.23-16.3Zm13.9,38.6c-.25-.04-.39-.35-.33-.58,.07-.26,.33-.37,.58-.33,1.49,.24,3.04-.08,4.34-.85,.52-.31,.99,.5,.47,.81-1.53,.9-3.31,1.22-5.06,.94Zm-62.54-15.01c-.35,.48-1.16,.01-.81-.47,10.67-14.58,23.46-27.52,37.93-38.34,.48-.36,.95,.45,.47,.81-14.33,10.72-27.03,23.56-37.59,38Zm69.05,9.67c-.23,.55-1.14,.31-.9-.25,6.24-14.8,4.8-32.32-3.79-45.89-.32-.51,.49-.98,.81-.47,8.71,13.76,10.21,31.6,3.89,46.61Z"/>
      <path class="cls-1" d="M1318.12,381.66c-2.44-24.07,8.16-45.31,24.31-50.71-.55-.07-1.11-.11-1.67-.14-1.32-.07-2.64-.06-3.98,.08-6.01,.61-11.44,3.3-15.99,7.54-.01,.01-.03,.03-.04,.04-1.61,1.51-3.11,3.22-4.49,5.09-4.04,5.5-7,12.45-8.52,20.26-.48,2.49-.81,5.06-.99,7.69,.08,.1,.15,.21,.23,.31-.22,2.09-.37,4.68-.29,7.63,.06,1.11,.13,2.22,.25,3.34,.42,4.11,1.19,8.06,2.27,11.8,.7,2.25,1.6,4.69,2.77,7.24,4.26,9.21,9.86,14.94,12,17,2.24,2.16,4.32,3.78,5.9,4.93,.14,.09,.29,.17,.44,.25l-1.27-12.53c-5.74-7.84-9.76-18.2-10.94-29.81Z"/>
      <path class="cls-11" d="M1353.13,329.77c-1.71-.17-3.43-.18-5.17,0-1.9,.19-3.74,.6-5.52,1.2-16.15,5.4-26.75,26.64-24.31,50.71,1.18,11.61,5.2,21.97,10.94,29.81l-2.55-25.11c-.19-8.16,4.15-15.29,10.01-16.48l1.12-.23c.17-12.81,5.76-23.06,14.02-24.28,1.07-.16,2.15-.15,3.21,0,.98-.45,2-.77,3.08-.93,9.84-1.45,19.76,10.45,22.14,26.58,1.18,8,.29,15.54-2.12,21.28l3.25,16.94c5.17-9.32,7.7-21.56,6.37-34.63-.67-6.61-2.26-12.8-4.56-18.37-6.17-14.9-17.45-25.21-29.9-26.48Zm-13.59,11.84c.16-.19,.49-.17,.66,0,.19,.19,.16,.47,0,.66-1.24,1.48-2.69,2.78-4.29,3.86-.21,.14-.52,.04-.64-.17-.13-.23-.04-.5,.17-.64,1.54-1.04,2.91-2.29,4.1-3.71Zm-8.03,10.43c.3-.52,1.1-.05,.81,.47-4.55,8.03-6.44,17.32-5.44,26.49,.07,.6-.87,.59-.94,0-1.02-9.32,.95-18.8,5.57-26.96Z"/>
      <path class="cls-7" d="M1346.81,498.6l-11.61-114.18c-.09-3.95,.89-7.65,2.58-10.57-.11-1.42-.16-2.83-.14-4.2l-1.12,.23c-5.87,1.19-10.2,8.32-10.01,16.48l2.55,25.11,1.27,12.53,7.78,76.54c.32,14.12,9.84,29.42,19.99,27.36l15.34-3.11c.59-.12,1.18-.3,1.74-.53l-8.39,1.7c-10.15,2.06-19.67-13.24-19.99-27.36Z"/>
      <path class="cls-28" d="M1381.22,409.25l-3.25-16.94c-1.37,3.27-3.22,5.96-5.46,7.82l13.9,75.05c1.56,10.8-2.06,21.15-7.8,22.31l-8.68,1.76c-5.75,1.16-11.12-7.36-11.58-18.39l-10.47-82.15c-4.71-4.78-8.4-12.47-9.73-21.5-.17-1.13-.29-2.25-.37-3.36-1.69,2.91-2.67,6.61-2.58,10.57l11.61,114.18c.32,14.12,9.84,29.42,19.99,27.36l8.39-1.7,6.95-1.41c9.38-1.9,15.53-17.84,14.63-31.08-.07-1.09-.19-2.17-.36-3.22l-15.19-79.3Zm-29.29,92.77c-.92-7.57-1.8-15.14-2.66-22.72-3-26.68-5.6-53.41-7.78-80.17-.05-.6,.89-.6,.94,0,.62,7.6,1.27,15.19,1.96,22.79,2.42,26.74,5.25,53.44,8.48,80.1,.07,.6-.86,.59-.94,0Zm7.97,13.41c-.19,.19-.47,.17-.66,0-1.07-.96-2.15-1.93-3.22-2.89-.19-.17-.17-.49,0-.66,.19-.19,.47-.17,.66,0,1.07,.96,2.15,1.93,3.22,2.89,.19,.17,.17,.49,0,.66Zm9.06,1.58c4.66,.06,9.23-1.61,12.74-4.68,.45-.39,1.12,.26,.66,.66-3.7,3.23-8.5,5.01-13.41,4.95-.6,0-.6-.94,0-.94Z"/>
      <path class="cls-16" d="M1366.58,402.86c-1.07,.16-2.15,.15-3.21,0-.98,.45-2,.77-3.08,.93-4.34,.64-8.69-1.31-12.4-5.08l10.47,82.15c.46,11.02,5.84,19.55,11.58,18.39l8.68-1.76c5.75-1.16,9.36-11.51,7.8-22.31l-13.9-75.05c-1.76,1.46-3.75,2.42-5.94,2.74Zm-2.06,82.35c-.9-5.34-1.76-10.69-2.56-16.05-2.8-18.71-4.96-37.52-6.5-56.38-.05-.6,.89-.6,.94,0,.43,5.32,.91,10.63,1.45,15.94,1.89,18.83,4.42,37.59,7.58,56.24,.1,.59-.8,.84-.9,.25Zm4.75,8.16c-.1,.06-.25,.08-.36,.05-.13-.04-.2-.11-.28-.21-.47-.62-.95-1.24-1.42-1.86-.16-.21-.02-.52,.17-.64,.1-.06,.25-.08,.36-.05,.13,.04,.2,.11,.28,.21,.47,.62,.95,1.24,1.42,1.86,.16,.21,.02,.52-.17,.64Zm7.55,.69c-.21,.14-.52,.04-.64-.17-.13-.23-.04-.5,.17-.64,1.22-.83,2.43-1.67,3.65-2.5,.21-.14,.52-.04,.64,.17,.13,.23,.04,.5-.17,.64-1.22,.83-2.43,1.67-3.65,2.5Z"/>
      <path class="cls-1" d="M1360.29,403.79c1.07-.16,2.1-.48,3.08-.93-8.7-1.2-16.8-12.21-18.92-26.58s2.45-27.25,10.44-30.91c-1.07-.15-2.14-.16-3.21,0-8.27,1.22-13.86,11.47-14.02,24.28-.02,1.37,.03,2.78,.14,4.2,.09,1.11,.21,2.23,.37,3.36,1.33,9.02,5.02,16.72,9.73,21.5,3.71,3.77,8.06,5.72,12.4,5.08Z"/>
      <path class="cls-24" d="M1380.09,371.02c-2.38-16.13-12.29-28.03-22.14-26.58-1.07,.16-2.1,.48-3.08,.93-7.98,3.67-12.56,16.54-10.44,30.91s10.22,25.38,18.92,26.58c1.07,.15,2.14,.16,3.21,0,2.18-.32,4.18-1.28,5.94-2.74,2.24-1.86,4.09-4.55,5.46-7.82,2.4-5.74,3.3-13.28,2.12-21.28Zm-23.22-7.64c.08-.59,.98-.34,.9,.25-1.18,8.64-.59,18.4,6.22,24.7,.44,.41-.22,1.07-.66,.66-7.07-6.54-7.69-16.65-6.46-25.61Zm4.45-12.02c-1.14-.37-2.43-.1-3.32,.72-.44,.41-1.1-.25-.66-.66,1.12-1.04,2.77-1.43,4.23-.96,.57,.18,.33,1.09-.25,.9Zm-9.23,3.92c.29-.53,1.1-.06,.81,.47-2.76,5.04-3.6,10.97-2.32,16.58,.13,.59-.77,.84-.9,.25-1.34-5.85-.48-12.03,2.41-17.3Zm-.93,26.58c-.16-.58,.74-.83,.9-.25,1,3.63,2.39,7.34,5.09,10.07,2.54,2.57,6.37,4.07,9.92,2.95,.58-.18,.82,.72,.25,.9-3.71,1.18-7.73-.27-10.49-2.85-3.04-2.84-4.59-6.89-5.67-10.82Z"/>
      <path d="M1262.22,219.54c-5.04-2.54-10.42-4.3-15.99-5.2-.59-.1-.84,.81-.25,.9,5.49,.89,10.8,2.6,15.77,5.1,.54,.27,1.01-.54,.47-.81Z"/>
      <path d="M1314.83,277.15c2.41,5.83,4.31,11.87,5.69,18.02,.13,.59,1.03,.34,.9-.25-4.99-22.35-17.06-42.96-33.94-58.42-4.78-4.38-9.94-8.33-15.4-11.8-.51-.32-.98,.49-.47,.81,19.26,12.24,34.5,30.56,43.22,51.64Z"/>
      <path d="M1324.23,304.95c1.24,7.45,2.19,14.94,2.83,22.46,.05,.6,.99,.6,.94,0-.65-7.6-1.61-15.18-2.87-22.71-.1-.59-1-.34-.9,.25Z"/>
      <path d="M1318.97,234.9c-7.94-10.06-17.56-18.82-28.34-25.76-6.04-3.89-12.45-7.18-19.12-9.85-.56-.22-.8,.68-.25,.9,23.55,9.4,43.58,27.02,56.26,48.95,3.56,6.15,6.52,12.63,8.84,19.35,.2,.57,1.1,.32,.9-.25-4.16-12.06-10.39-23.33-18.29-33.33Z"/>
      <path d="M1342.64,281.3c-.14-.58-1.05-.34-.9,.25,1.76,7.18,2.7,14.53,2.79,21.92,0,.6,.94,.6,.94,0-.09-7.47-1.04-14.91-2.82-22.17Z"/>
      <path d="M1225.66,223.5c2.3-2.09,4.97-3.76,7.85-4.92,.55-.22,.31-1.13-.25-.9-3.04,1.22-5.84,2.96-8.26,5.16-.45,.41,.22,1.06,.66,.66Z"/>
      <path d="M1307.53,344.77c.4-.45-.26-1.11-.66-.66-3.69,4.14-7.59,8.09-11.65,11.86,.18,.25,.37,.51,.55,.76,.77-.71,1.54-1.41,2.29-2.13,3.28-3.15,6.43-6.43,9.46-9.83Z"/>
      <path d="M1331.28,101.6c-.84-5.4-1.98-10.75-3.44-16.02-.16-.58-1.06-.33-.9,.25,1.46,5.27,2.6,10.62,3.44,16.02,.09,.59,.99,.34,.9-.25Z"/>
      <path d="M1331.55,112.01c-.08-.59-1.01-.6-.94,0,2.09,16.29,2,32.85-.37,49.1-.67,4.59-1.52,9.15-2.53,13.67-.13,.59,.77,.84,.9,.25,3.59-16.03,5.03-32.53,4.2-48.94-.24-4.71-.67-9.41-1.27-14.08Z"/>
      <path d="M1271.47,139.93c.27,.54,1.08,.06,.81-.47-1.21-2.36-2.68-4.57-4.38-6.6-.39-.46-1.04,.2-.66,.66,1.65,1.97,3.06,4.13,4.23,6.41Z"/>
      <path d="M1286.56,185.8c.09,.59,.99,.34,.9-.25-2.04-14.07-5.94-27.81-11.56-40.87-.24-.55-1.04-.08-.81,.47,5.58,12.98,9.43,26.66,11.46,40.65Z"/>
      <path d="M1252.83,142.46c.2,.12,.53,.06,.64-.17,.78-1.72,1.56-3.44,2.35-5.16,.1-.23,.07-.5-.17-.64-.2-.12-.53-.06-.64,.17-.78,1.72-1.56,3.44-2.35,5.16-.1,.23-.07,.5,.17,.64Z"/>
      <path d="M1248.68,151.31c-5.47,12.47-8.38,25.93-8.53,39.55,0,.6,.93,.6,.94,0,.14-13.44,3-26.77,8.4-39.08,.24-.55-.57-1.02-.81-.47Z"/>
      <path d="M1254.71,186.22c.42-16.66,3.93-33,7.45-49.23,.13-.59-.77-.84-.9-.25-3.53,16.31-7.06,32.73-7.48,49.48-.02,.6,.92,.6,.94,0Z"/>
      <path d="M1258.69,172.43c-.52,3.78-.66,7.58-.42,11.39,.04,.6,.97,.6,.94,0-.24-3.72-.12-7.45,.39-11.14,.08-.59-.82-.84-.9-.25Z"/>
      <path d="M1332.81,87.98c-.16-.58-1.06-.33-.9,.25,6.05,21.81,7.77,44.76,5.05,67.23-.79,6.48-1.95,12.9-3.47,19.25-.14,.59,.76,.83,.9,.25,5.28-22.14,6.16-45.26,2.6-67.75-1.03-6.48-2.43-12.9-4.19-19.23Z"/>
      <path d="M1425.47,110.53c-5.52,27.77-15.06,54.7-28.29,79.73-3.74,7.08-7.78,14.01-12.09,20.76-.32,.51,.48,.98,.81,.47,15.27-23.93,27.05-50.06,34.84-77.36,2.2-7.71,4.08-15.5,5.64-23.36,.12-.59-.78-.84-.9-.25Z"/>
      <path d="M1409.54,176.14c-1.26,2.81-2.51,5.63-3.77,8.44-.24,.54,.56,1.02,.81,.47,1.26-2.81,2.51-5.63,3.77-8.44,.24-.54-.56-1.02-.81-.47Z"/>
      <path d="M1403.02,193.08c-4.66,8.6-9.9,16.87-15.7,24.75-.36,.49,.45,.95,.81,.47,5.8-7.88,11.04-16.15,15.7-24.75,.29-.53-.52-1-.81-.47Z"/>
      <path d="M1429.32,113.27c-1.75,7.47-3.84,14.86-6.26,22.14-.19,.57,.71,.82,.9,.25,2.42-7.28,4.51-14.67,6.26-22.14,.14-.59-.76-.84-.9-.25Z"/>
      <path d="M1483.88,231.63c.41-.44-.25-1.1-.66-.66-11.07,11.77-23.19,22.53-36.2,32.11-.48,.35-.01,1.17,.47,.81,13.08-9.63,25.27-20.43,36.39-32.26Z"/>
      <path d="M1511.6,209.59c-11.66,15.81-24.71,30.29-39.59,43.15-5.43,4.69-11.03,9.18-16.73,13.53-.47,.36,0,1.17,.47,.81,17.33-13.22,33.45-27.83,47.21-44.77,3.25-4,6.38-8.1,9.44-12.25,.36-.48-.45-.95-.81-.47Z"/>
      <path d="M1413.34,297.34c.48-.36,.01-1.17-.47-.81-14.47,10.82-27.26,23.76-37.93,38.34-.36,.49,.46,.95,.81,.47,10.56-14.44,23.26-27.28,37.59-38Z"/>
      <path d="M1431.24,296.32c-3.58-2.04-7.99-2.25-11.76-.59-.55,.24-.07,1.05,.47,.81,3.45-1.52,7.54-1.27,10.81,.59,.52,.3,1-.51,.47-.81Z"/>
      <path d="M1435.08,301.62c7.64,13.26,8.51,29.99,2.25,43.96-.24,.54,.56,1.02,.81,.47,6.41-14.29,5.57-31.33-2.25-44.9-.3-.52-1.11-.05-.81,.47Z"/>
      <path d="M1407.16,328.04c-.39,.45,.27,1.12,.66,.66,5.12-5.95,10.83-11.37,17.04-16.15,.47-.36,0-1.17-.47-.81-6.28,4.83-12.06,10.29-17.23,16.3Z"/>
      <path d="M1385.1,315.05c-2.59,3.05-5,6.24-7.23,9.55-.34,.5,.47,.97,.81,.47,7.94-11.76,18.2-21.91,30.05-29.71,3.36-2.21,6.85-4.23,10.44-6.05,.54-.27,.06-1.08-.47-.81-12.81,6.52-24.29,15.58-33.59,26.54Z"/>
      <path d="M1426.69,287.88c-.6-.07-.59,.86,0,.94,2.99,.36,5.92,1.17,8.66,2.4,.54,.24,1.02-.56,.47-.81-2.91-1.3-5.97-2.15-9.13-2.53Z"/>
      <path d="M1440.91,298.4c-.32-.51-1.13-.04-.81,.47,8.59,13.57,10.03,31.09,3.79,45.89-.23,.55,.67,.8,.9,.25,6.32-15.01,4.82-32.85-3.89-46.61Z"/>
      <path d="M1432.97,347.33c.52,.3,1-.51,.47-.81-7.61-4.34-10.2-13.22-11.86-21.24-.12-.59-1.02-.34-.9,.25,1.71,8.27,4.45,17.34,12.29,21.8Z"/>
      <path d="M1443.35,349.4c.52-.31,.05-1.12-.47-.81-1.3,.77-2.85,1.09-4.34,.85-.25-.04-.5,.06-.58,.33-.06,.22,.08,.54,.33,.58,1.75,.28,3.53-.04,5.06-.94Z"/>
      <path d="M1349.68,372.58c.13,.59,1.04,.34,.9-.25-1.28-5.6-.45-11.54,2.32-16.58,.29-.53-.52-1-.81-.47-2.89,5.26-3.75,11.45-2.41,17.3Z"/>
      <path d="M1367.32,395.54c.57-.18,.33-1.08-.25-.9-3.55,1.13-7.39-.38-9.92-2.95-2.7-2.73-4.08-6.44-5.09-10.07-.16-.58-1.06-.33-.9,.25,1.08,3.92,2.63,7.98,5.67,10.82,2.76,2.58,6.78,4.03,10.49,2.85Z"/>
      <path d="M1361.57,350.46c-1.46-.47-3.11-.08-4.23,.96-.44,.41,.22,1.07,.66,.66,.89-.83,2.18-1.09,3.32-.72,.57,.18,.82-.72,.25-.9Z"/>
      <path d="M1364,388.33c-6.81-6.3-7.4-16.07-6.22-24.7,.08-.59-.82-.84-.9-.25-1.23,8.96-.61,19.07,6.46,25.61,.44,.41,1.1-.25,.66-.66Z"/>
      <path d="M1335.26,345.95c.12,.21,.43,.31,.64,.17,1.6-1.08,3.05-2.37,4.29-3.86,.16-.19,.19-.47,0-.66-.17-.17-.5-.19-.66,0-1.19,1.42-2.57,2.68-4.1,3.71-.21,.14-.3,.41-.17,.64Z"/>
      <path d="M1326.88,378.99c-1-9.17,.9-18.46,5.44-26.49,.3-.52-.51-1-.81-.47-4.62,8.16-6.59,17.63-5.57,26.96,.06,.59,1,.6,.94,0Z"/>
      <path d="M1356.4,412.78c-.05-.6-.98-.6-.94,0,1.54,18.86,3.7,37.67,6.5,56.38,.8,5.36,1.66,10.71,2.56,16.05,.1,.59,1,.34,.9-.25-3.16-18.66-5.69-37.42-7.58-56.24-.53-5.31-1.01-10.62-1.45-15.94Z"/>
      <path d="M1368.02,490.87c-.08-.1-.15-.18-.28-.21-.11-.03-.26-.02-.36,.05-.19,.12-.33,.43-.17,.64,.47,.62,.95,1.24,1.42,1.86,.08,.1,.15,.18,.28,.21,.11,.03,.26,.02,.36-.05,.19-.12,.33-.43,.17-.64-.47-.62-.95-1.24-1.42-1.86Z"/>
      <path d="M1380.64,490.92c-.12-.21-.43-.31-.64-.17-1.22,.83-2.43,1.67-3.65,2.5-.21,.14-.3,.41-.17,.64,.12,.21,.43,.31,.64,.17,1.22-.83,2.43-1.67,3.65-2.5,.21-.14,.3-.41,.17-.64Z"/>
      <path d="M1344.38,421.92c-.69-7.59-1.34-15.19-1.96-22.79-.05-.6-.98-.6-.94,0,2.19,26.76,4.78,53.49,7.78,80.17,.85,7.58,1.74,15.15,2.66,22.72,.07,.59,1.01,.6,.94,0-3.23-26.65-6.06-53.36-8.48-80.1Z"/>
      <path d="M1356.68,511.87c-.19-.17-.48-.19-.66,0-.17,.17-.19,.49,0,.66,1.07,.96,2.15,1.93,3.22,2.89,.19,.17,.48,.19,.66,0,.17-.17,.19-.49,0-.66-1.07-.96-2.15-1.93-3.22-2.89Z"/>
      <path d="M1381.71,512.33c-3.51,3.07-8.09,4.73-12.74,4.68-.6,0-.6,.93,0,.94,4.91,.06,9.71-1.72,13.41-4.95,.45-.4-.21-1.06-.66-.66Z"/>
      <path d="M1220.9,279.68c-.7,7.62-1.2,15.25-1.68,22.88-.04,.6,.9,.6,.94,0,1.68-26.66,3.51-54.05,13.46-79.14,2.76-6.95,6.16-13.63,10.25-19.9,.33-.51-.48-.97-.81-.47-.67,1.02-1.31,2.06-1.94,3.1-8.71,14.43-13.68,30.53-16.72,47.04-1.62,8.77-2.69,17.66-3.5,26.48Z"/>
      <path d="M1274.92,311.69c5.7-4.71,11.81-8.92,18.24-12.58,.52-.3,.05-1.11-.47-.81-6.5,3.7-12.66,7.96-18.43,12.72-.46,.38,.2,1.04,.66,.66Z"/>
      <path d="M1296.71,298.29c1.23,.08,2.45,.53,3.42,1.29,.2,.16,.47,.19,.66,0,.16-.16,.2-.5,0-.66-1.18-.92-2.58-1.47-4.08-1.56-.25-.02-.47,.23-.47,.47,0,.27,.21,.45,.47,.47Z"/>
      <path d="M1273.25,316.6c.03-.25-.23-.47-.47-.47-.27,0-.44,.22-.47,.47-.13,1.24,.23,2.54,.99,3.53,.15,.2,.4,.31,.64,.17,.2-.12,.32-.44,.17-.64-.69-.9-.98-1.94-.86-3.06Z"/>
    </g>
    <path class="cls-8" d="M920.57,385.22c5.03,1.98,12.68,4.21,22.11,4.08,14.18-.21,24.85-5.68,30.21-8.97,4.64,14.68,15.98,25.38,29.47,27.71,17.74,3.06,30.27-9.89,31.69-11.41,1.07,2.94,4.62,11.57,13.26,17.12,1.9,1.22,14.29,8.87,23.58,3.26,9.4-5.68,7.23-19.88,17.68-25.27,3.75-1.93,7.43-1.86,9.58-1.63,1.11,5.07,3.73,13.22,10.32,19.56,13.29,12.81,31.76,7.72,36.11,6.52,9.49-2.61,16.18-7.93,19.9-11.41,.32,.76,4.41,9.99,13.26,11.41,7.75,1.25,15.81-4.02,19.16-13.04,3.51,2.43,8.2,4.99,14,6.52,17.48,4.6,32.17-3.62,36.84-6.52,3,.39,6.2,.68,9.58,.82,2.66,.11,5.22,.11,7.68,.04,5.77-.17,8.81-7.04,4.95-11.34-.03-.04-.07-.08-.1-.12-2.02-2.22-7.24-7.95-14.74-7.34-8.91,.73-13.61,9.8-14,10.6-1.89-1.32-5.16-3.25-9.58-4.08-5.26-.98-9.54,.07-11.79,.82,1.27-2.3,3.48-7.1,2.95-13.04-1.2-13.48-15.29-19.21-16.21-19.56-8.8-3.41-16.65-.31-19.16,.82,1.86-2.75,7.13-11.29,5.89-22.01-1.78-15.4-16.12-27.76-30.95-26.9-12.07,.7-22.91,10.07-27.26,23.64-5.91-12.61-17.37-20.59-29.47-20.38-15.01,.26-28.58,13.07-31.69,30.97-2.43-12.94-12.15-19.31-18.42-17.12-4.2,1.47-7.18,6.9-8.11,13.04-4.64-3.69-10.5-3.84-14-.82-4.68,4.05-5.38,13.97,.74,20.38-.06,.43-.92,6.08-5.16,8.15-4.11,2.01-9.75-.16-12.53-5.71-.32-.83-6.33-15.65-20.63-17.93-10.79-1.72-21.72,4.44-27.26,15.49-5.52-10.73-9.34-12.54-11.79-12.23-3.15,.4-4.56,4.39-10.32,12.23-3.68,5.02-7.11,8.83-9.58,11.41-3.8-2.39-10.16-5.66-18.42-6.52-6.05-.63-16.85-.36-17.68,3.26-.4,1.76,1.18,5.83,19.9,15.49Z"/>
    <path class="cls-13" d="M1306,427.6c-2.25-.08-4.98-.37-8.02-1.12-2.62-.65-4.9-1.49-6.81-2.35-2.91-8.19-3.78-22.56-3.64-26.31-.11,3.82-.5,8.45-1.53,13.62-.98,4.93-2.3,9.15-3.59,12.58-1.75,.74-3.79,1.47-6.09,2.03-3.04,.75-5.77,1.04-8.02,1.12,2.02-.1,9.28,.43,14.2,2.15,1.27,3.39,2.55,7.53,3.5,12.35,1.03,5.17,1.42,9.8,1.53,13.62-.14-3.58,.65-16.83,3.25-25.15,4.86-2.03,13.05-2.64,15.21-2.54Z"/>
    <path class="cls-13" d="M1599.25,446.12c-3.87-.13-8.58-.63-13.82-1.92-4.52-1.11-8.44-2.57-11.72-4.04-5.02-14.11-6.52-38.87-6.27-45.33-.18,6.58-.87,14.56-2.63,23.47-1.69,8.5-3.96,15.76-6.19,21.67-3.02,1.28-6.53,2.53-10.49,3.5-5.24,1.29-9.95,1.79-13.82,1.92,3.48-.16,16,.74,24.46,3.7,2.18,5.84,4.39,12.96,6.04,21.27,1.77,8.9,2.45,16.89,2.63,23.47-.23-6.16,1.12-29,5.61-43.34,8.38-3.5,22.48-4.55,26.21-4.37Z"/>
    <path class="cls-13" d="M1491,587.74c-1.71-.06-3.79-.28-6.11-.85-2-.49-3.73-1.14-5.18-1.79-2.22-6.23-2.88-17.18-2.77-20.03-.08,2.91-.38,6.44-1.16,10.37-.75,3.75-1.75,6.96-2.73,9.57-1.33,.57-2.89,1.12-4.64,1.55-2.32,.57-4.39,.79-6.11,.85,1.54-.07,7.07,.33,10.81,1.64,.96,2.58,1.94,5.73,2.67,9.4,.78,3.93,1.08,7.46,1.16,10.37-.1-2.72,.5-12.82,2.48-19.15,3.7-1.54,9.93-2.01,11.58-1.93Z"/>
    <path class="cls-13" d="M1215.53,111.81c-2.52-.09-5.58-.41-8.98-1.25-2.94-.72-5.49-1.67-7.62-2.63-3.26-9.17-4.24-25.27-4.08-29.47-.12,4.28-.56,9.47-1.71,15.26-1.1,5.52-2.57,10.24-4.02,14.09-1.96,.83-4.25,1.64-6.82,2.28-3.41,.84-6.47,1.16-8.98,1.25,2.26-.11,10.4,.48,15.9,2.41,1.42,3.8,2.85,8.43,3.93,13.83,1.15,5.79,1.59,10.98,1.71,15.26-.15-4.01,.73-18.86,3.64-28.17,5.45-2.27,14.62-2.96,17.04-2.84Z"/>
    <path class="cls-13" d="M1512.53,60.81c-2.52-.09-5.58-.41-8.98-1.25-2.94-.72-5.49-1.67-7.62-2.63-3.26-9.17-4.24-25.27-4.08-29.47-.12,4.28-.56,9.47-1.71,15.26-1.1,5.52-2.57,10.24-4.02,14.09-1.96,.83-4.25,1.64-6.82,2.28-3.41,.84-6.47,1.16-8.98,1.25,2.26-.11,10.4,.48,15.9,2.41,1.42,3.8,2.85,8.43,3.93,13.83,1.15,5.79,1.59,10.98,1.71,15.26-.15-4.01,.73-18.86,3.64-28.17,5.45-2.27,14.62-2.96,17.04-2.84Z"/>
    <path class="cls-12" d="M598,534.47c-5.59-.17-12.37-.82-19.93-2.49-6.51-1.44-12.18-3.33-16.91-5.24-7.24-18.28-9.4-50.37-9.05-58.74-.26,8.52-1.25,18.87-3.8,30.41-2.44,11.01-5.71,20.42-8.93,28.08-4.36,1.66-9.42,3.27-15.14,4.54-7.56,1.67-14.35,2.32-19.93,2.49,5.02-.21,23.08,.96,35.29,4.8,3.15,7.57,6.33,16.8,8.71,27.56,2.55,11.54,3.54,21.89,3.8,30.41-.34-7.98,1.62-37.58,8.09-56.16,12.08-4.53,32.43-5.89,37.81-5.66Z"/>
    <path class="cls-12" d="M1151,66.47c-5.59-.17-12.37-.82-19.93-2.49-6.51-1.44-12.18-3.33-16.91-5.24-7.24-18.28-9.4-50.37-9.05-58.74-.26,8.52-1.25,18.87-3.8,30.41-2.44,11.01-5.71,20.42-8.93,28.08-4.36,1.66-9.42,3.27-15.14,4.54-7.56,1.67-14.35,2.32-19.93,2.49,5.02-.21,23.08,.96,35.29,4.8,3.15,7.57,6.33,16.8,8.71,27.56,2.55,11.54,3.54,21.89,3.8,30.41-.34-7.98,1.62-37.58,8.09-56.16,12.08-4.53,32.43-5.89,37.81-5.66Z"/>
    <path class="cls-10" d="M1276,462.01c-1.65-.05-3.66-.24-5.89-.74-1.93-.43-3.6-.98-5-1.55-2.14-5.4-2.78-14.89-2.68-17.36-.08,2.52-.37,5.58-1.12,8.99-.72,3.25-1.69,6.04-2.64,8.3-1.29,.49-2.79,.97-4.47,1.34-2.24,.49-4.24,.69-5.89,.74,1.48-.06,6.82,.28,10.43,1.42,.93,2.24,1.87,4.97,2.57,8.15,.75,3.41,1.05,6.47,1.12,8.99-.1-2.36,.48-11.11,2.39-16.6,3.57-1.34,9.59-1.74,11.18-1.67Z"/>
    <path class="cls-10" d="M1459,529.01c-1.65-.05-3.66-.24-5.89-.74-1.93-.43-3.6-.98-5-1.55-2.14-5.4-2.78-14.89-2.68-17.36-.08,2.52-.37,5.58-1.12,8.99-.72,3.25-1.69,6.04-2.64,8.3-1.29,.49-2.79,.97-4.47,1.34-2.24,.49-4.24,.69-5.89,.74,1.48-.06,6.82,.28,10.43,1.42,.93,2.24,1.87,4.97,2.57,8.15,.75,3.41,1.05,6.47,1.12,8.99-.1-2.36,.48-11.11,2.39-16.6,3.57-1.34,9.59-1.74,11.18-1.67Z"/>
    <path class="cls-10" d="M639.58,470.78c-2.94-.09-6.51-.43-10.48-1.31-3.43-.76-6.4-1.75-8.89-2.75-3.81-9.61-4.95-26.49-4.76-30.89-.14,4.48-.66,9.92-2,15.99-1.28,5.79-3,10.74-4.69,14.77-2.29,.87-4.95,1.72-7.96,2.39-3.98,.88-7.55,1.22-10.48,1.31,2.64-.11,12.14,.5,18.56,2.52,1.65,3.98,3.33,8.83,4.58,14.5,1.34,6.07,1.86,11.51,2,15.99-.18-4.2,.85-19.76,4.25-29.53,6.35-2.38,17.06-3.1,19.88-2.98Z"/>
    <path class="cls-10" d="M185.62,630.01c-2.28-.07-5.06-.33-8.15-1.02-2.66-.59-4.98-1.36-6.92-2.14-2.96-7.47-3.85-20.6-3.7-24.02-.11,3.49-.51,7.72-1.55,12.44-1,4.5-2.34,8.35-3.65,11.48-1.78,.68-3.85,1.34-6.19,1.86-3.09,.68-5.87,.95-8.15,1.02,2.05-.09,9.44,.39,14.43,1.96,1.29,3.09,2.59,6.87,3.56,11.27,1.04,4.72,1.45,8.95,1.55,12.44-.14-3.26,.66-15.37,3.31-22.97,4.94-1.85,13.26-2.41,15.46-2.32Z"/>
    <path class="cls-10" d="M404.62,381.01c-2.28-.07-5.06-.33-8.15-1.02-2.66-.59-4.98-1.36-6.92-2.14-2.96-7.47-3.85-20.6-3.7-24.02-.11,3.49-.51,7.72-1.55,12.44-1,4.5-2.34,8.35-3.65,11.48-1.78,.68-3.85,1.34-6.19,1.86-3.09,.68-5.87,.95-8.15,1.02,2.05-.09,9.44,.39,14.43,1.96,1.29,3.09,2.59,6.87,3.56,11.27,1.04,4.72,1.45,8.95,1.55,12.44-.14-3.26,.66-15.37,3.31-22.97,4.94-1.85,13.26-2.41,15.46-2.32Z"/>
    <path class="cls-5" d="M1361.32,676.32c-8.11-.39-14.93,1.01-19.5,2.3,2.67-5.68,.82-11.8-4.68-15.51-5.55-3.75-12.57-3.52-14.04-3.45-.66-.56-4.86-3.96-11.7-4.02-8.22-.07-12.89,4.77-13.26,5.17,6.13-13.58-4.08-26.76-17.94-29.29-9.94-1.82-21.57,1.87-28.86,9.19,9.84-10.13,7.97-23.18-2.34-29.86-11.23-7.27-27.31-3.63-28.08-3.45-1.35-.69-9.77-4.82-20.28-2.87-6.8,1.26-10.92,4.41-12.48,5.74-4.4-8.6-12.72-14.49-21.84-14.93-6.75-.32-12,2.44-17.16,5.17-10.22,5.39-15.08,12.4-19.5,18.95-2.43,3.6-5.48,8.83-7.8,15.51,1.66-9.51-3.68-17.86-12.48-20.67-4.7-1.5-9.42-1.11-12.48-.57-2.99-1.03-10.56-3.27-19.5-1.72-11.49,1.99-20.56,9.4-23.4,18.95-3.11,1.17-10.47,4.35-15.6,10.91-3.11,3.98-4.38,7.9-4.82,11.11,.39,2.08,.46,4.33,.14,6.7-.22-1.18-.56-3.61-.14-6.7-1.24-6.66-5.78-11.58-11.56-12.83-5.25-1.13-10.58,.97-12.48,1.72-9.52,3.75-12.03,11.19-12.48,12.63-2.49,1.39-7.03,4.32-10.14,9.19-2.36,3.7-2.97,7.07-3.12,9.19-1.75-.84-4.39-1.96-7.8-2.87-3.38-.9-16.24-4.35-27.3,.57-2.16,.96-6.19,3.11-9.36,7.47-2.78,.36-4.83,1.08-6.24,1.72-6.85,3.11-10.53,9.77-8.58,14.93,0,0,.72,1.9,2.34,3.45,7.83,7.48,119.43-.54,150.54-2.87,1.02,.86,3.31,2.56,7.02,3.45,5.66,1.35,10.5-.17,11.7-.57,4.07,8.28,15.32,13.01,25.74,11.49,8.24-1.21,14.96-6.18,17.16-12.63,5.67,10.02,19.11,15.56,31.2,13.78,12.31-1.81,18.04-10.42,18.72-11.49,26.42,26.1,61.7,34.28,79.56,25.84,2.57-1.22,12.11-6.24,14.82-21.25,9.15,7.19,22.97,8.86,32.76,4.59,10.13-4.42,11.55-13.28,11.7-14.36-.18,0,29.81,4.77,42.26,0,6.86-2.63,.91-17.33-8.72-17.8Z"/>
    <path class="cls-8" d="M886.03,400.58c-.17-3.71-6.2-6.17-9.47-6.95-9.67-2.29-18.28,4.68-20.21,6.32-1.87,1.02-4.94,2.35-8.84,2.53-3.16,.14-6.05-.52-10.74-2.53-10.45-4.49-11.69-7.95-18.32-10.1-3.09-1.01-7.88-1.9-14.53-.63-.41-1.26-2.88-8.41-9.47-10.74-7.17-2.52-14.72,2.24-15.16,2.53-2.8,1.82-3.79,3.63-6.95,4.42-2.97,.75-5.72,.06-7.58-.63,.15-2.21,.23-7.9-3.16-13.89-3.54-6.27-8.77-9.14-10.74-10.1-1.35-2.08-4.55-6.28-10.1-8.21-8.13-2.82-17.93,.41-24.63,8.21-1.08-2.08-4.21-7.41-10.74-10.74-9.11-4.64-17.88-1.84-19.58-1.26-2.48-1.48-10.34-5.73-18.32-3.16-10.9,3.51-18.55,18.63-14.53,36-1-.46-8.68-3.83-15.16,0-6.81,4.03-7.37,13.09-7.58,16.42-.19,3.13,.21,5.76,.63,7.58-1.98,1.65-4.49,3.28-7.58,4.42-13.04,4.81-25.66-3.05-27.79-4.42,.23-9.98-5.82-17.23-12-17.68-4.74-.34-8.49,3.38-9.47,4.42-.03-.7-.55-11.45-6.95-14.53-6.56-3.15-18.64,2.08-24,15.79-2.16-1.75-5.88-4.12-10.74-4.42-8.8-.54-17.73,5.97-22.1,16.42-1.17,1.41-3.21,3.48-6.32,5.05-5.17,2.61-10.05,2.18-12,1.89-2.49,.91-4.28,2.92-4.42,5.05-.2,3.07,3.03,6.5,7.58,6.32,2.95,.73,7.89,1.55,13.89,.63,6.91-1.06,11.9-3.91,14.53-5.68,.44,.54,4.31,5.23,10.74,5.05,5.51-.15,8.89-3.77,9.47-4.42,2.03,2.34,5.76,5.87,11.37,7.58,9.5,2.9,20.41-.64,28.42-8.84,3.48-1.23,8.82-2.59,15.16-1.89,5.05,.55,6.67,1.97,12,3.16,8.82,1.96,16.2,.72,20.21,0,9.38-1.68,16.47-5.4,20.84-8.21,1.11,1.07,3.21,2.79,6.32,3.79,4.63,1.5,8.6,.47,10.1,0,1.95,2.64,5.18,6.2,10.1,8.84,13.06,7.02,26.79,1.57,29.05,.63,4.38,4.33,10.82,9.38,19.58,12.63,27.97,10.36,54.48-7.02,58.1-9.47,2.13,1.89,10.06,8.43,21.47,8.21,11.8-.23,22.73-7.59,28.42-18.95,3.68-.07,8.79-.58,14.53-2.53,8.19-2.78,13.86-7.18,17.05-10.1,.89,.87,4.16,3.84,8.84,3.79,5.24-.06,10.91-3.89,10.74-7.58Z"/>
    <path class="cls-5" d="M1591.8,696.28c-1.83,3.21-5.48,8.41-11.94,11.94-8.3,4.53-20.89,6.13-30.21-.7-5.01-3.68-7.38-8.55-8.43-11.24-2.38,2.02-5.89,4.36-10.54,5.62-14.63,3.96-27.23-6.39-28.8-7.73-1.07-1.19-4.37-4.52-9.83-5.62-6.42-1.29-11.4,1.39-12.64,2.11-1.7,1.08-4.33,2.4-7.73,2.81-9.13,1.11-15.81-5.29-16.86-6.32,.37-2.74,1.65-3.86,2.11-4.21,2.75-2.11,8.22-1.08,12.64,3.51,1.52-1.57,3.84-3.68,7.02-5.62,3.39-2.06,8.91-5.43,16.16-4.92,7.16,.51,12.11,4.54,14.05,6.32,2.11-.47,4.21-.94,6.32-1.4-.02-.65-.07-6.97,4.92-10.54,2.47-1.77,5.05-2.06,6.32-2.11,1.98-3.75,5.74-6.19,9.83-6.32,4.86-.16,9.42,2.94,11.24,7.73,1.06-2.25,3.15-5.92,7.02-9.13,1.48-1.23,8.03-6.67,14.05-5.62,7.01,1.23,13.21,11.27,12.64,24.59,2.01-.69,5.2-1.51,9.13-1.4,2.64,.07,8.39,.22,13.35,4.21,6.47,5.22,6.96,13.27,7.02,14.75-1,.88-2.9,2.28-5.62,2.81-6.01,1.17-10.66-2.97-11.24-3.51Z"/>
    <g>
      <path class="cls-29" d="M990.89,580.76c-.64-15.72-5.62-29.66-14.03-39.26-12.16-13.88-28.38-15.66-50.84-18.12-19.86-2.18-40.23-1.1-60.53,3.19l-.32,.09c-8.08,2.93-22.68,10.27-29.75,26.48-4.62,10.59-3.92,20.52-3.18,31.03l2.34-.16-2.34,.16c.74,10.55,1.58,22.52,9.35,34.22,7.45,11.21,17.72,16.95,25.02,19.79l.48,.13c12.94,2.07,26.14,3.14,39.23,3.18,.25,0,.5,0,.75,0,13.34,0,26.8-1.07,40.13-3.21,6.6-1.47,28.93-7.97,38.99-29.66,5.37-11.57,4.92-22.58,4.7-27.87Zm-8.96,25.89c-9.15,19.74-29.68,25.7-35.61,27.03-13.19,2.11-26.63,3.16-39.98,3.12-12.76-.04-25.63-1.08-38.25-3.08-6.66-2.63-15.89-7.86-22.58-17.93-7.09-10.67-7.85-21.49-8.58-31.95h0c-.73-10.36-1.36-19.3,2.8-28.83,6.32-14.5,19.5-21.17,26.9-23.88,19.76-4.16,39.57-5.2,58.89-3.08,24.22,2.65,37.35,4.59,47.82,16.54,7.7,8.8,12.28,21.71,12.87,36.36,.2,4.92,.62,15.16-4.27,25.7Z"/>
      <path class="cls-29" d="M961.77,554.33c-9.82-10.64-22.83-11.99-40.84-13.86-15.89-1.65-32.18-.84-48.41,2.42l-.3,.08c-6.52,2.24-18.31,7.87-24.03,20.32-3.75,8.16-3.19,15.77-2.59,23.81,.6,8.07,1.28,17.23,7.57,26.22,6.02,8.6,14.3,12.99,20.19,15.17l.46,.12c10.35,1.57,20.9,2.38,31.36,2.41,.19,0,.39,0,.58,0,10.68,0,21.44-.81,32.11-2.44,5.32-1.12,23.31-6.09,31.44-22.74,4.35-8.91,3.99-17.35,3.81-21.41-.52-12.05-4.55-22.75-11.35-30.12Zm-63.68-9.07c.05-.27,.05-.53,.02-.77,.79-.03,1.57-.05,2.35-.07-.88,2.59-.8,5.31,.35,7.88,1.18,2.62,3.58,4.54,6.29,5.39,3.13,.98,6.17,.14,9.03-1.22,2.58-1.23,5.27-2.83,6.7-5.41,.92-1.66,1.25-3.73,.83-5.59,.07,0,.14,.01,.21,.02,.34,.6,.88,.93,1.48,1.03,.18,.59,.35,1.19,.47,1.8,.27,1.36,.32,2.76,.25,4.14-.13,2.53-.88,4.99-2.25,7.12-2.58,4.02-7.34,6.45-11.9,7.43-4.96,1.06-9.6-.8-12.3-5.09-3.18-5.03-2.6-11.08-1.52-16.67Zm20.36,.25c.12,.1,.23,.2,.34,.32-.12-.19-.1-.16,.05,.07,.06,.1,.12,.21,.17,.32,0,.02,0,.02,.02,.05,.02,.07,.1,.47,.12,.52,.02,.23,.02,.47,0,.7,0,.03,0,.02,0,.04-.02,.13-.05,.26-.09,.39-.04,.15-.09,.31-.14,.46,.09-.19,.08-.15-.04,.1-.27,.53-.53,.88-.91,1.27-.86,.88-1.89,1.48-3.02,2.08-1.18,.62-2.39,1.2-3.7,1.49-1.97,.45-4.04-.27-5.47-1.85-1.3-1.45-1.64-4-.86-5.74,.2-.45,.29-.92,.27-1.38,4.3,.01,8.57,.2,12.83,.58,.11,.21,.24,.42,.43,.58Zm-44.86,1.95c6.62-1.32,13.24-2.2,19.84-2.68-1.1,6-1.53,12.19,1.2,17.84,2.28,4.73,6.67,8.43,11.93,9.21,5.64,.83,11.84-1.3,16.36-4.66,4.62-3.43,7.35-8.43,7.8-14.16,.18-2.25-.03-4.57-.6-6.77,13.27,1.69,21.46,4,28.19,11.29,3.91,4.23,6.77,9.76,8.45,16.08-4.96,.14-9.91,.75-14.73,1.93-4.22,1.04-8.65,2.29-9.93,6.97-.54,1.97-.41,4.06-.55,6.08-.15,2.05-.92,3.9-2.25,5.47-2.98,3.54-7.49,4.96-11.89,5.77-10.08,1.87-21.38,3.08-31.43,.52-7.69-1.96-15.33-6.77-18.55-14.3-.91-2.14-1.25-4.52-2.82-6.33-1.7-1.97-4.15-2.4-6.62-2.56-6.03-.39-12.07-.64-18.1-.96,.18-3.68,.84-7.26,2.53-10.94,4.95-10.78,15.31-15.76,21.15-17.79Zm63.44,76.52c-10.5,1.6-21.2,2.36-31.85,2.36-10.15-.03-20.38-.81-30.43-2.32-5.25-1.97-12.5-5.88-17.75-13.37-5.56-7.94-6.16-16.04-6.74-23.88-.15-2.02-.29-3.97-.36-5.88,5.43,.29,10.86,.57,16.29,.86,2.08,.11,4.49-.16,5.49,2.02,.88,1.92,1.32,4,2.31,5.9,3.83,7.35,11.32,12.36,19.09,14.73,10,3.06,20.71,2,30.9,.65,8.48-1.12,18.26-3.54,21.52-12.53,.81-2.22,.73-4.56,.87-6.87,.16-2.73,1.11-3.92,3.73-4.73,5.71-1.76,11.67-2.58,17.63-2.67,.34,2.08,.6,4.2,.69,6.4,.02,.47,.04,1,.06,1.59-3,.15-6.14,.54-8.75,2.07-3.25,1.89-4.31,5-4.5,8.59-.17,3.29-1.25,5.83-3.89,7.91-2.49,1.96-5.56,3.14-8.58,3.99-8.58,2.43-17.86,3.26-26.73,3.72-8.91,.46-18.2,.62-26.82-2.05-8.24-2.55-15.33-8.09-19.94-15.36-1.61-2.54-5.68-.19-4.05,2.37,4.21,6.63,10.22,12.11,17.37,15.43,8.31,3.86,17.51,4.62,26.56,4.52,9.78-.1,19.55-1.07,29.16-2.84,6.54-1.2,13.99-3.15,18.42-8.51,1.18-1.43,2.09-3.04,2.62-4.82,.64-2.15,.18-4.51,.86-6.61,1.01-3.16,5.2-3.58,8.2-3.72-.25,3.71-1.06,8.25-3.32,12.87-7.2,14.74-23.4,19.19-28.06,20.18Z"/>
    </g>
    <path class="cls-9" d="M1222.12,433.02c-15.97-13.67-34.58-24.17-54.75-29.93-.46,.25-.91,.49-1.36,.74-10.79,5.97-80.84,40.04-80,34-6.65,13.53-13.08,28.19-19,44-1.77,4.72-3.43,9.39-5,14-.63,4.29-1.08,9.34-1,15,.1,6.97,.96,13.05,2,18-2.55,6.68-4.07,12.53-5,17-1.21,5.8-2.27,11.05-2,18,.21,5.42,1.15,9.88,2,13,2,8.33,4,16.67,6,25v20c.73,1.73,2.43,5.1,6,8,3.1,2.52,6.22,3.55,8,4h8l-6,9c.15,1.65,.59,4.21,2,7,1.88,3.73,4.53,5.94,6,7-1.03,.98-2.84,2.94-4,6-1.13,2.98-1.11,5.59-1,7,1.53,1.74,3.82,3.97,7,6,3.44,2.2,6.67,3.36,9,4v10c-1,4.33-2,8.67-3,13,1.03,2.31,2.6,5.14,5,8,4.92,5.87,10.69,8.69,14,10,5.01,1.5,12.23,3.07,21,3,3.54-.03,6.83-.32,9.84-.76,12.83-42.78,27.32-85.33,44.14-126.98-4.97,6.97-9.66,14.19-13.98,21.75,4.32-7.56,9.01-14.78,13.98-21.75,1.65-4.09,3.32-8.18,5.02-12.25-1.7,4.08-3.37,8.16-5.02,12.25,17.53-24.59,38.68-45.89,60.66-66.43-.23-1.41-.45-2.7-.64-3.83-6.2-35.86-16.6-66.96-27.88-92.81Z"/>
    <path class="cls-26" d="M1253.13,642.64c5.79-52.92,.47-94.74-2.49-112.99-21.99,20.54-43.13,41.84-60.66,66.43-16.82,41.66-31.31,84.2-44.14,126.98,5.35-.79,9.82-2.07,13.16-3.24,0,.5,30.71-12.82,44.71-21.93,18.29-16.38,34.5-35.65,49.42-55.25Z"/>
    <path class="cls-25" d="M1203.71,697.89c-13.71,7.93-28.71,14.93-44.71,21.93v19c8.16,1.47,18.34,2.54,30,2,19.17-.88,34.62-5.74,45-10,7.19-21.84,15-51.4,19-87,.04-.4,.08-.79,.13-1.18-14.91,19.6-31.13,38.87-49.42,55.25Z"/>
    <path class="cls-26" d="M1062,495.82c-.56,3.88-.95,8.24-1,13-.09,8.11,.82,15.21,2,21h13c1.17-4.21,3.01-9.4,6-15,2.62-4.92,5.47-8.9,8-12v-10c-2.31-.89-5.36-1.76-9-2-9.12-.59-16.07,3.17-19,5Z"/>
    <path class="cls-26" d="M1116,466.82c-3.29,5.03-5.51,9.55-7,13-2.19,5.07-2.93,8.63-4,12-.51,1.61-1.07,4.03-1,7,.06,2.48,.54,4.54,1,6-2.3,8.27-4.37,17.28-6,27-3.94,23.48-4.19,44.56-3,62,1.74-3.46,4.28-7.69,8-12,5.66-6.56,11.7-10.61,16-13,2.39-.38,5.88-.67,10,0,4.98,.81,8.74,2.66,11,4-4-5.58-8.41-12.9-12-22-6.88-17.46-7.47-33.18-7-43-2.3-3.4-5.34-8.8-7-16-2.58-11.22-.38-20.54,1-25Z"/>
    <path class="cls-22" d="M1124,529.82c1.26-1.87,2.89-3.95,5-6,5.37-5.23,11.2-7.75,15-9,6.51,.16,13.92,.73,22,2,8.27,1.3,15.64,3.1,22,5-2.47,1.7-5.13,3.38-8,5-12.27,6.91-24.21,10.3-34,12-1.61,.4-8.36,1.86-15-2-3.86-2.24-5.99-5.3-7-7Z"/>
    <path class="cls-22" d="M1062,522.82c1.62-1.3,3.61-2.7,6-4,4.15-2.25,8.04-3.39,11-4h3c-1.35,2.12-2.7,4.46-4,7-2.76,5.39-4.66,10.5-6,15-1.74-.66-3.81-1.61-6-3-1.57-1-2.9-2.04-4-3v-8Z"/>
    <path class="cls-26" d="M1122,523.82c1.76-3.65,4.05-7.73,7-12,4.06-5.86,8.29-10.48,12-14,3.97-1.82,9.11-3.33,15-3,13.82,.79,26.41,11.44,33,27,2.53-.8,5.66-2.04,9-4,3.96-2.32,6.92-4.9,9-7-3.06-4.58-8.16-11.07-16-17-5.23-3.95-21.44-15.81-44-14-17.18,1.38-29.1,9.98-34,14l9,30Z"/>
    <path class="cls-15" d="M1110,435.82c.06-.89,.14-1.77,.21-2.66-.38,.71-.73,1.43-1.1,2.15,.26,.51,.89,.52,.89,.52Z"/>
    <path class="cls-22" d="M1131.89,443.9c-2.23,5.1-4.51,10.87-6.63,17.22-2.01,6.03-3.55,11.6-4.73,16.58,6.86-3.83,15.16-7.87,24.61-11.23,13.69-4.87,25.31-6.74,34.08-7.39,5.36,1.21,10.73,2.41,16.09,3.62-4.1-6.29-8.2-12.59-12.31-18.89-17.04,.03-34.08,.06-51.12,.09Z"/>
    <path class="cls-22" d="M1075.28,459.54c-2.18,4.85-3.89,9.86-5.39,14.95,1.29,.04,2.6,.11,3.98,.23,2.84,.26,5.61,.68,8.29,1.22v-22.06c-1.82,1.29-4.57,3.63-6.87,5.65Z"/>
    <path class="cls-25" d="M1087.38,656.36c.22,.17,.43,.33,.62,.46-1.03,.98-2.84,2.94-4,6-1.13,2.98-1.11,5.59-1,7,1.53,1.74,3.82,3.97,7,6,3.44,2.2,6.67,3.36,9,4h11c4.09-1.81,8.93-4.37,14-8,6.68-4.78,11.58-9.86,15-14,1.33,2.33,2.67,4.67,4,7,.52,.09,2.77,.42,5-1,.71-.45,1.24-.97,1.66-1.49-17.98-10.8-40.83-7.48-62.28-5.97Z"/>
    <path class="cls-20" d="M1146,655.82c-2.66-1.64-5.16-2.51-7-3-4.94-3.29-10.94-6.79-18-10-5.75-2.61-11.16-4.55-16-6-2.02,.65-4.42,1.6-7,3-2.42,1.32-4.42,2.73-6,4-1.18-.98-2.51-1.99-4-3-1.75-1.19-3.44-2.18-5-3-1,1.67-2,3.33-3,5,.15,1.65,.59,4.21,2,7,1.64,3.25,3.87,5.35,5.38,6.54,21.45-1.51,44.3-4.83,62.28,5.97,.88-1.08,1.23-2.15,1.34-2.51-1.18-1.21-2.83-2.66-5-4Z"/>
    <path class="cls-22" d="M1136.07,558.38c1.56,1.57,3.61,2.55,5.8,2.82,.2,.02,.37-.19,.38-.38,0-.22-.17-.35-.38-.38-1.99-.25-3.86-1.18-5.27-2.6-.34-.34-.87,.19-.53,.53h0Z"/>
    <path class="cls-22" d="M1152.37,563.42c2.13-.19,4.26-.38,6.39-.58,.48-.04,.48-.79,0-.75-2.13,.19-4.26,.38-6.39,.58-.48,.04-.48,.79,0,.75h0Z"/>
    <path class="cls-22" d="M1170.17,561.1c2.21-.94,4.27-2.19,6.15-3.69,.38-.3-.16-.83-.53-.53-1.82,1.46-3.85,2.66-6,3.57-.19,.08-.23,.35-.13,.51,.11,.19,.33,.21,.51,.13h0Z"/>
    <path class="cls-22" d="M1181.81,553.15c1.66-2.1,3.09-4.36,4.27-6.76,.21-.43-.43-.81-.65-.38-1.15,2.34-2.54,4.56-4.15,6.61-.3,.37,.23,.91,.53,.53h0Z"/>
    <path class="cls-22" d="M1190.16,539.54c.47-2.83,1.21-5.6,2.23-8.28,.17-.45-.55-.65-.72-.2-1.01,2.68-1.76,5.45-2.23,8.28-.08,.47,.64,.68,.72,.2h0Z"/>
    <path class="cls-22" d="M1060.22,544.31c.2,1.7,.79,3.33,1.77,4.74,.27,.39,.92,.02,.65-.38-.9-1.3-1.49-2.8-1.67-4.37-.02-.2-.16-.38-.38-.38-.18,0-.4,.17-.38,.38h0Z"/>
    <path class="cls-22" d="M1064.06,552.9l1.12,.75c.16,.11,.42,.04,.51-.13,.1-.19,.04-.4-.13-.51l-1.12-.75c-.16-.11-.42-.04-.51,.13-.1,.19-.04,.4,.13,.51h0Z"/>
    <path class="cls-22" d="M1093.99,504.26c1.82-.3,3.68-.32,5.52-.08,.2,.03,.37-.19,.38-.38,0-.22-.18-.35-.38-.38-1.9-.25-3.82-.21-5.72,.11-.48,.08-.27,.8,.2,.72h0Z"/>
    <path class="cls-22" d="M1124.41,568.63c7.18-1.16,14.83,1.87,19.13,7.77,2.4,3.29,3.86,7.22,5.31,10.98s2.46,7.47,2.78,11.44c.04,.48,.79,.48,.75,0-.35-4.33-1.54-8.41-3.12-12.44s-3.02-7.82-5.62-11.08c-4.57-5.74-12.22-8.56-19.42-7.39-.48,.08-.27,.8,.2,.72h0Z"/>
    <path class="cls-22" d="M1083,634.23c13.31-.22,26.73-3.17,39.1-8.05,.44-.18,.25-.9-.2-.72-12.3,4.86-25.65,7.81-38.9,8.02-.48,0-.48,.76,0,.75h0Z"/>
    <path class="cls-22" d="M1116.1,628.19c5.84-1.34,11.33-4.47,16.32-7.67s10.42-7.11,14.53-11.74c2.45-2.76,4.59-6.21,5.41-9.84,.1-.47-.62-.67-.72-.2-1.39,6.21-6.22,10.99-10.96,14.89-4.92,4.05-10.32,7.62-16.01,10.48-2.8,1.41-5.71,2.67-8.77,3.37-.47,.11-.27,.83,.2,.72h0Z"/>
    <path class="cls-22" d="M1090.3,502.79c-17.47,20.71-22.96,48.16-24.77,74.49-.58,8.4-.82,16.82-1.07,25.24-.01,.48,.74,.48,.75,0,.8-27.49,1.72-56.08,14.03-81.27,3.13-6.41,6.98-12.47,11.58-17.92,.31-.37-.22-.9-.53-.53h0Z"/>
    <path class="cls-22" d="M1067.52,623.83c1.75,.39,3.49,.79,5.24,1.18,.47,.11,.67-.62,.2-.72-1.75-.39-3.49-.79-5.24-1.18-.47-.11-.67,.62-.2,.72h0Z"/>
    <path class="cls-22" d="M1080.87,626.16c5.73-.92,11.36-2.38,16.81-4.35,.45-.16,.26-.89-.2-.72-5.46,1.97-11.09,3.43-16.81,4.35-.48,.08-.27,.8,.2,.72h0Z"/>
    <path class="cls-22" d="M1099.61,521.36c-2.35,16.14-3.69,32.42-3.99,48.72-.09,4.66-.08,9.32,0,13.98,0,.48,.76,.48,.75,0-.36-20.9,.96-41.82,3.97-62.51,.07-.47-.65-.68-.72-.2h0Z"/>
    <path class="cls-22" d="M1098.38,556.32v28.5c0,.48,.75,.48,.75,0v-28.5c0-.48-.75-.48-.75,0h0Z"/>
    <path class="cls-22" d="M1095.33,596.64c4.2-8.79,10.47-16.49,18.24-22.36,.38-.29,0-.94-.38-.65-7.88,5.95-14.25,13.72-18.51,22.63-.21,.43,.44,.81,.65,.38h0Z"/>
    <path class="cls-22" d="M1108.88,580.71c4.92-4.82,11.5-7.73,18.38-8.12,.48-.03,.48-.78,0-.75-7.08,.4-13.84,3.37-18.91,8.34-.35,.34,.19,.87,.53,.53h0Z"/>
    <path class="cls-22" d="M1113.87,493.56c7.22-5.54,15.31-9.84,23.95-12.71,.46-.15,.26-.88-.2-.72-8.7,2.89-16.86,7.21-24.13,12.79-.38,.29,0,.94,.38,.65h0Z"/>
    <path class="cls-22" d="M1149.39,479.96c10.08-1.03,20.3,.64,29.51,4.88,.44,.2,.82-.45,.38-.65-9.33-4.29-19.67-6.03-29.89-4.98-.48,.05-.48,.8,0,.75h0Z"/>
    <path class="cls-22" d="M1064.08,494.8c3.13-1.38,6.5-2.15,9.92-2.3,.48-.02,.48-.77,0-.75-3.56,.16-7.04,.97-10.3,2.41-.44,.19-.06,.84,.38,.65h0Z"/>
    <path class="cls-22" d="M1079.93,491.66c2.12,.38,4.25,.77,6.37,1.15,.47,.09,.67-.64,.2-.72-2.12-.38-4.25-.77-6.37-1.15-.47-.09-.67,.64-.2,.72h0Z"/>
    <path class="cls-22" d="M1246.64,533.97c-9.91,8.83-19.19,18.35-27.76,28.48-.31,.37,.22,.9,.53,.53,8.57-10.13,17.85-19.65,27.76-28.48,.36-.32-.17-.85-.53-.53h0Z"/>
    <path class="cls-22" d="M1211.58,570.56c-3.27,4.15-6.45,8.37-9.55,12.65-.28,.39,.37,.77,.65,.38,3.06-4.23,6.2-8.4,9.43-12.5,.3-.38-.23-.91-.53-.53h0Z"/>
    <path class="cls-22" d="M1195.19,592.15l-3.88,5.15c-.12,.16-.02,.42,.13,.51,.19,.11,.39,.03,.51-.13l3.88-5.15c.12-.16,.02-.42-.13-.51-.19-.11-.39-.03-.51,.13h0Z"/>
    <path class="cls-22" d="M1206.14,587.62c10-12.74,20.81-24.83,32.36-36.18,3.3-3.24,6.66-6.42,10.08-9.54,.36-.33-.17-.86-.53-.53-11.96,10.92-23.22,22.59-33.67,34.96-2.99,3.53-5.91,7.12-8.76,10.76-.29,.38,.23,.91,.53,.53h0Z"/>
    <path class="cls-22" d="M1090.88,656.52c9.09-.96,18.23-1.36,27.37-1.2,.48,0,.48-.74,0-.75-9.14-.16-18.28,.24-27.37,1.2-.48,.05-.48,.8,0,.75h0Z"/>
    <path class="cls-22" d="M1141.02,652.71c3.92,1.23,7.56,3.25,10.66,5.94,.36,.31,.9-.21,.53-.53-3.21-2.77-6.95-4.86-11-6.13-.46-.14-.66,.58-.2,.72h0Z"/>
    <path class="cls-22" d="M1150.35,655.59c1.63,1.24,3.26,2.48,4.9,3.72,.16,.12,.42,.02,.51-.13,.11-.19,.03-.39-.13-.51-1.63-1.24-3.26-2.48-4.9-3.72-.16-.12-.42-.02-.51,.13-.11,.19-.03,.39,.13,.51h0Z"/>
    <path class="cls-22" d="M1102.5,708.54c8.77-.13,17.47,1.33,25.71,4.32,.45,.16,.65-.56,.2-.72-8.3-3.01-17.08-4.48-25.91-4.35-.48,0-.48,.76,0,.75h0Z"/>
    <path class="cls-22" d="M1110.63,712.03c3.72,.92,7.54,1.33,11.37,1.21,.48-.02,.48-.77,0-.75-3.76,.12-7.51-.28-11.17-1.18-.47-.12-.67,.61-.2,.72h0Z"/>
    <path class="cls-22" d="M1159.35,720.21c15-7.26,29.75-15.04,44.21-23.33,.42-.24,.04-.89-.38-.65-14.46,8.28-29.21,16.06-44.21,23.33-.43,.21-.05,.86,.38,.65h0Z"/>
    <path class="cls-22" d="M1223.72,679.76c7.31-8.45,14.18-17.28,20.55-26.45,.28-.4-.37-.77-.65-.38-6.34,9.12-13.16,17.9-20.44,26.3-.31,.36,.21,.9,.53,.53h0Z"/>
    <path class="cls-22" d="M1213.18,690.28c2.3-1.96,4.41-4.14,6.29-6.51,.3-.37-.23-.91-.53-.53-1.88,2.37-3.99,4.55-6.29,6.51-.37,.31,.16,.84,.53,.53h0Z"/>
    <circle class="cls-14" cx="1489" cy="453.82" r="10"/>
    <circle class="cls-14" cx="787" cy="273.82" r="10"/>
    <circle class="cls-14" cx="136" cy="151.82" r="10"/>
    <circle class="cls-14" cx="1386" cy="59.82" r="10"/>
    <circle class="cls-14" cx="1562" cy="587.82" r="15"/>
    <circle class="cls-14" cx="1516" cy="117.82" r="15"/>
    <circle class="cls-14" cx="473" cy="455.82" r="15"/>
    <circle class="cls-14" cx="228" cy="621.82" r="15"/>
    <circle class="cls-14" cx="1244" cy="365.82" r="5"/>
    <path class="cls-18" d="M0,386.82v168.19c6.15,.97,16.6,1.82,29-1.19,12.19-2.96,20.99-8.37,26-12,8.03,7.48,26.73,22.77,55,28,44.91,8.31,79.24-15.17,86-20,8.66,3.77,25.68,9.62,46,6,24.31-4.33,51.43-21.89,49-35-2-10.8-24.04-18.28-52-19,3.76-14.63-.45-23.26-2-26-9.35-16.51-37.81-23.46-68-11,24.41-26.79,20.08-41.05,19-44-7.38-20.13-51.85-28.21-112-15-.33-1.39-6.34-24.53-29-32-16.49-5.44-35.02-.33-47,13Z"/>
    <g>
      <path class="cls-1" d="M1071.65,376.74v.03c.22-.19,.42-.39,.63-.58-.21,.18-.42,.36-.63,.55Z"/>
      <path class="cls-1" d="M1019.11,501.73c-1.59-7.09-2.66-14.28-3.24-21.54-.07,.42-.14,.82-.2,1.24-3.95,26.04-3.89,49.01-2.49,67.33,.54-13.05,2.08-28.44,5.59-45.41,.11-.54,.23-1.08,.35-1.62Z"/>
      <path class="cls-6" d="M1023.15,485.17c.07-.24,.14-.46,.2-.7,3.65-14.5,8.22-28.76,13.69-42.68,.22-.55,1.12-.31,.9,.25-2.35,5.97-4.53,12-6.55,18.09,2.19-5.74,4.45-11.13,6.72-16.12,2.15-3.62,4.52-7.43,7.12-11.4-.29-.04-.57-.35-.37-.69,2.69-4.8,5.6-9.48,8.71-14.02,10.88-15.88,24.23-30.02,39.45-41.79,.28-.22,.63-.07,.76,.16,2.66-2.38,5.29-4.64,7.88-6.8-.07-.15-.05-.32,.13-.46,2.8-2.21,5.6-4.42,8.4-6.62,.14-.11,.29-.12,.43-.09,2.55-1.96,5.04-3.8,7.46-5.54-.69,.01-1.38,.02-2.07,.05-15.46,.64-30.16,7.53-43.72,19.37-.2,.19-.41,.39-.62,.58-2.83,2.62-5.71,5.42-8.61,8.42-16.6,17.93-31.22,43.43-43.09,73.89-1.54,6.66-2.93,13.69-4.09,21.11,.58,7.26,1.65,14.45,3.24,21.54,1.14-5.37,2.47-10.89,4.04-16.56Z"/>
      <path class="cls-6" d="M1081.23,387.3c-13.26,12.27-24.68,26.48-33.82,42.06,7.45-10.99,16.69-23.01,28.1-35.22,4.94-5.28,9.87-10.15,14.72-14.64-3.08,2.5-6.09,5.1-9.01,7.8Z"/>
      <path class="cls-23" d="M1023.35,484.48c-.07,.23-.14,.46-.2,.7-1.57,5.66-2.9,11.18-4.04,16.56-.11,.54-.24,1.09-.35,1.62,.2-.38,.42-.75,.62-1.13,1.17-5.95,2.49-11.87,3.97-17.74Z"/>
      <path class="cls-23" d="M1110.61,362.32c.33,.09,.57,.48,.23,.75-2.8,2.21-5.6,4.42-8.4,6.62-.3,.23-.67,.05-.79-.2-2.59,2.16-5.22,4.41-7.88,6.8,.09,.16,.09,.35-.1,.5-1.16,.89-2.3,1.8-3.44,2.73-4.85,4.49-9.78,9.36-14.72,14.64-11.41,12.21-20.66,24.23-28.1,35.22-.59,1.01-1.17,2.02-1.75,3.04-.1,.19-.27,.24-.43,.22-2.61,3.96-4.98,7.78-7.12,11.4-2.27,4.99-4.53,10.38-6.72,16.12-.05,.16-.11,.33-.17,.49-4.19,12.72-7.62,25.68-10.32,38.8,14.48-25.8,36.69-46.55,59.27-65.92,4.26-.42,8.55-.64,12.85-.78,.71-1.43,2.86-5.24,7.44-7.41,1.39-.66,4.76-2.25,8.73-1.25,5.13,1.29,7.6,5.99,8.42,7.92,13.71-.8,27.27-3.02,40.21-10.42,13.67-8.01,26.44-17.46,38.26-27.92-21.85-24.43-48.6-37.46-78-36.88-2.42,1.74-4.91,3.58-7.46,5.54Zm-9.8,51.75c-6.58,2.87-12.19,7.68-16.02,13.76-.32,.51-1.13,.04-.81-.47,3.9-6.21,9.63-11.16,16.35-14.09,.55-.24,1.02,.57,.47,.81Zm19.29,8.45c-2.55-4.75-7.48-8.05-12.86-8.54-.6-.05-.6-.99,0-.94,5.71,.52,10.95,3.95,13.67,9,.29,.53-.52,1-.81,.47Zm2.3,2.78c.17-.19,.48-.17,.66,0,.88,.84,1.26,2.08,1.05,3.27-.04,.26-.35,.38-.58,.33-.26-.06-.37-.34-.33-.58,0,0,0-.05,.01-.07,0-.02,0-.04,0-.04,0-.06,.01-.13,.01-.2,0-.12,0-.23,0-.35,0-.03,0-.06,0-.09,0-.01,0-.01,0-.02,0,0,0,0,0,0-.01-.06-.02-.11-.03-.17-.02-.11-.05-.23-.09-.34-.02-.06-.04-.12-.07-.18,.03,.07-.03-.06-.04-.09-.05-.11-.11-.22-.18-.32-.03-.05-.06-.1-.1-.14,0,0-.06-.08-.03-.04,.03,.04-.03-.03-.03-.04-.08-.09-.16-.18-.25-.27-.19-.18-.17-.48,0-.66Z"/>
      <path class="cls-11" d="M1210.29,412.22c-2.66-4.04-5.42-7.88-8.28-11.51-.17,.16-.33,.34-.5,.5-11.43,10.99-24.33,20.42-38.25,28-.53,.29-1-.52-.47-.81,3.93-2.14,7.78-4.42,11.54-6.85,9.71-6.28,18.78-13.53,27.08-21.58-1.74-2.18-3.52-4.29-5.33-6.31-11.82,10.46-24.59,19.91-38.26,27.92-12.95,7.4-26.5,9.61-40.21,10.42,.17,.41,.28,.7,.31,.81h-24.94s.03-.05,.04-.08c-4.3,.14-8.58,.36-12.85,.78-22.58,19.37-44.79,40.12-59.27,65.92-1.97,9.58-3.57,19.23-4.73,28.95-.07,.59-1.01,.6-.94,0,.77-6.43,1.71-12.83,2.83-19.21,.41-2.32,.86-4.63,1.31-6.95-.2,.38-.42,.75-.62,1.13-3.51,16.97-5.05,32.36-5.59,45.41,5.64-13.04,15.47-31.53,32.42-49.88,12.81-13.87,25.82-23.47,36.16-29.93,10.24-.26,22.5,.24,36.16,2.49,9.82,1.62,18.59,3.85,26.19,6.23,2.89,.77,5.64,1.32,8.26,1.71,24.1-18.12,44.37-40.79,57.93-67.18Zm-148.34,46.95c1.24-1.11,2.48-2.22,3.72-3.32,.19-.17,.47-.19,.66,0,.17,.17,.19,.49,0,.66-1.24,1.11-2.48,2.22-3.72,3.32-.19,.17-.47,.19-.66,0-.17-.17-.19-.49,0-.66Zm-35.43,40.78c7.52-12.88,16.91-24.62,27.83-34.78,.44-.41,1.1,.25,.66,.66-10.86,10.11-20.2,21.78-27.68,34.59-.3,.52-1.11,.05-.81-.47Zm53.93-37.28c-5.22,3.37-10.27,7-15.12,10.88-17.01,13.61-31.56,30.21-42.83,48.85-.31,.52-1.12,.04-.81-.47,3.23-5.35,6.73-10.54,10.49-15.53,13.17-17.5,29.4-32.63,47.8-44.53,.51-.33,.98,.48,.47,.81Zm3.97-19.37l-5.14,3.32c-.51,.33-.98-.48-.47-.81,1.71-1.11,3.43-2.21,5.14-3.32,.51-.33,.98,.48,.47,.81Zm62.91,30.65c-3.89-2.24-7.93-4.18-12.12-5.78-14.48-5.55-30.39-7.2-45.69-4.63-.59,.1-.84-.8-.25-.9,4.36-.73,8.77-1.15,13.19-1.21,15.82-.24,31.63,3.83,45.34,11.73,.52,.3,.05,1.11-.47,.81Zm9.1-41.47c-4.14,1.86-8.38,3.47-12.71,4.8-15.27,4.7-31.51,5.99-47.33,3.8-.59-.08-.34-.98,.25-.9,4.48,.62,9,.96,13.53,1.01,15.73,.18,31.44-3.08,45.79-9.52,.55-.24,1.02,.56,.47,.81Z"/>
      <path class="cls-23" d="M1224.77,438.34c-4.41-9.46-9.25-18.18-14.48-26.12-13.56,26.39-33.83,49.06-57.93,67.18,8.95,1.32,16.27,.63,21.67-.46,20.51-4.16,38.32-19.08,50.75-40.6Zm-18.3,10.52c-10.6,12.31-24.77,21.33-40.39,25.75-.58,.16-.83-.74-.25-.9,15.48-4.38,29.48-13.31,39.98-25.51,.39-.46,1.05,.21,.66,.66Z"/>
      <path d="M1027.33,500.41c7.48-12.82,16.82-24.48,27.68-34.59,.44-.41-.22-1.07-.66-.66-10.92,10.17-20.3,21.9-27.83,34.78-.3,.52,.5,.99,.81,.47Z"/>
      <path d="M1062.61,459.83c1.24-1.11,2.48-2.22,3.72-3.32,.19-.17,.17-.49,0-.66-.19-.19-.47-.17-.66,0-1.24,1.11-2.48,2.22-3.72,3.32-.19,.17-.17,.49,0,.66,.19,.19,.47,.17,.66,0Z"/>
      <path d="M1083.95,442.48c-1.71,1.11-3.43,2.21-5.14,3.32-.5,.33-.04,1.14,.47,.81l5.14-3.32c.5-.33,.04-1.14-.47-.81Z"/>
      <path d="M1155.96,431.66c-14.35,6.44-30.06,9.71-45.79,9.52-4.53-.05-9.04-.39-13.53-1.01-.59-.08-.84,.82-.25,.9,15.82,2.18,32.06,.9,47.33-3.8,4.33-1.33,8.57-2.95,12.71-4.8,.55-.25,.07-1.05-.47-.81Z"/>
      <path d="M1162.79,428.4c-.53,.29-.06,1.1,.47,.81,13.92-7.59,26.82-17.02,38.25-28,.17-.16,.33-.34,.5-.5-.2-.25-.4-.49-.6-.74-8.3,8.05-17.37,15.3-27.08,21.58-3.76,2.43-7.61,4.71-11.54,6.85Z"/>
      <path d="M1079.98,461.85c-18.4,11.89-34.63,27.02-47.8,44.53-3.76,5-7.26,10.18-10.49,15.53-.31,.52,.5,.99,.81,.47,11.27-18.64,25.83-35.24,42.83-48.85,4.85-3.88,9.9-7.51,15.12-10.88,.5-.33,.04-1.14-.47-.81Z"/>
      <path d="M1147.8,473.13c-13.71-7.89-29.52-11.96-45.34-11.73-4.42,.07-8.83,.48-13.19,1.21-.59,.1-.34,1,.25,.9,15.3-2.57,31.21-.92,45.69,4.63,4.19,1.61,8.23,3.55,12.12,5.78,.52,.3,.99-.51,.47-.81Z"/>
      <path d="M1205.8,448.19c-10.5,12.19-24.5,21.13-39.98,25.51-.58,.16-.33,1.07,.25,.9,15.63-4.42,29.8-13.44,40.39-25.75,.39-.45-.27-1.12-.66-.66Z"/>
      <path d="M1100.33,413.25c-6.72,2.94-12.45,7.89-16.35,14.09-.32,.51,.49,.98,.81,.47,3.83-6.08,9.44-10.88,16.02-13.76,.55-.24,.07-1.05-.47-.81Z"/>
      <path d="M1107.23,413.04c-.6-.05-.6,.88,0,.94,5.38,.49,10.31,3.79,12.86,8.54,.28,.53,1.09,.06,.81-.47-2.72-5.06-7.96-8.49-13.67-9Z"/>
      <path d="M1122.65,426.22s.06,.07,.03,.04c-.03-.04,.02,.03,.03,.04,.03,.05,.07,.1,.1,.14,.07,.1,.13,.21,.18,.32,.01,.02,.07,.16,.04,.09,.02,.06,.05,.12,.07,.18,.04,.11,.07,.22,.09,.34,.01,.06,.02,.11,.03,.17,0,0,0,0,0,0,0,0,0,0,0,.02,0,.03,0,.06,0,.09,0,.12,.01,.23,0,.35,0,.07,0,.13-.01,.2,0,0,0,.03,0,.04,0,.02-.01,.07-.01,.07-.04,.24,.06,.52,.33,.58,.23,.05,.53-.07,.58-.33,.21-1.19-.17-2.43-1.05-3.27-.18-.17-.49-.19-.66,0-.17,.18-.19,.48,0,.66,.09,.08,.17,.17,.25,.27Z"/>
      <path d="M1109.18,424.07c-3.97-1-7.34,.59-8.73,1.25-4.58,2.17-6.73,5.98-7.44,7.41-.01,.02-.03,.05-.04,.08h24.94c-.04-.1-.14-.4-.31-.81-.82-1.94-3.29-6.63-8.42-7.92Z"/>
      <path d="M1031.22,460.63c.05-.16,.11-.33,.17-.49,2.02-6.09,4.2-12.12,6.55-18.09,.22-.56-.68-.8-.9-.25-5.47,13.92-10.04,28.18-13.69,42.68-1.48,5.88-2.8,11.8-3.97,17.74-.46,2.31-.9,4.63-1.31,6.95-1.12,6.37-2.06,12.78-2.83,19.21-.07,.6,.86,.59,.94,0,1.16-9.71,2.76-19.37,4.73-28.95,2.7-13.11,6.13-26.08,10.32-38.8Z"/>
      <path d="M1045.67,432.4c.57-1.02,1.15-2.03,1.75-3.04,9.14-15.58,20.55-29.79,33.82-42.06,2.92-2.7,5.92-5.29,9.01-7.8,1.14-.92,2.28-1.83,3.44-2.73,.19-.15,.19-.34,.1-.5-.14-.23-.48-.38-.76-.16-15.22,11.77-28.57,25.92-39.45,41.79-3.11,4.54-6.01,9.22-8.71,14.02-.19,.34,.08,.65,.37,.69,.16,.02,.33-.03,.43-.22Z"/>
      <path d="M1102.44,369.68c2.8-2.21,5.6-4.41,8.4-6.62,.33-.26,.1-.66-.23-.75-.14-.04-.29-.02-.43,.09-2.8,2.21-5.6,4.41-8.4,6.62-.17,.14-.19,.31-.13,.46,.11,.26,.49,.44,.79,.2Z"/>
    </g>
    <path class="cls-6" d="M1459.66,372.16c18.16-9.81,35.94-20.31,53.3-31.47,1.62-1.04,.12-3.64-1.51-2.59-17.36,11.16-35.14,21.66-53.3,31.47-1.7,.92-.19,3.51,1.51,2.59h0Z"/>
    <path class="cls-6" d="M1701.56,102.01c1,17.2,2.01,34.4,3.01,51.59,1.01,17.28,2.02,34.56,3.02,51.84,.57,9.72,1.13,19.44,1.7,29.16,.03,.48,.78,.48,.75,0-1-17.2-2.01-34.4-3.01-51.59-1.01-17.28-2.02-34.56-3.02-51.84-.57-9.72-1.13-19.44-1.7-29.16-.03-.48-.78-.48-.75,0h0Z"/>
    <path d="M1455.69,381.29c14.75-8.24,29.5-16.49,44.26-24.73,4.19-2.34,8.39-4.69,12.58-7.03,.42-.24,.04-.88-.38-.65-14.75,8.24-29.5,16.49-44.26,24.73-4.19,2.34-8.39,4.69-12.58,7.03-.42,.24-.04,.88,.38,.65h0Z"/>
    <path d="M1467.06,363.87c2.6-1.25,5.19-2.49,7.79-3.74,.44-.21,.06-.86-.38-.65-2.6,1.25-5.19,2.49-7.79,3.74-.44,.21-.06,.86,.38,.65h0Z"/>
    <path d="M1482.29,355.7c10.14-5.71,20.27-11.42,30.41-17.13,.42-.24,.04-.89-.38-.65-10.14,5.71-20.27,11.42-30.41,17.13-.42,.24-.04,.89,.38,.65h0Z"/>
    <path d="M1492.1,223.04c2.91-2.79,5.55-5.85,7.88-9.14,.28-.39-.37-.77-.65-.38-2.3,3.23-4.9,6.24-7.77,8.99-.35,.33,.18,.86,.53,.53h0Z"/>
  </g>
</svg>