<svg width="645" height="478" viewBox="0 0 645 478" fill="none" xmlns="http://www.w3.org/2000/svg">
<g clip-path="url(#clip0_1654_6181)">
<path d="M842.957 369.088C838.838 416.187 818.101 461.701 788.519 499.343C787.282 500.918 786.031 502.477 784.765 504.023C781.916 507.499 778.993 510.91 775.997 514.256C772.331 518.378 768.559 522.405 764.679 526.337C761.521 529.573 758.289 532.74 754.984 535.838C752.433 538.254 749.853 540.623 747.244 542.944C715.851 571.031 679.787 594.209 642.631 614.479C570.117 654.023 490.636 683.98 407.964 688.342C325.303 692.693 239.009 669.253 178.388 613.429C96.687 538.199 73.8851 412.721 107.056 307.251C129.118 237.083 174.147 173.606 235.431 132.148C296.185 91.0506 372.828 72.552 445.364 84.6439C503.268 49.8004 579.072 49.1336 642.023 74.9245C675.614 88.6892 705.758 109.156 732.204 133.886C744.315 145.235 755.648 157.373 766.126 170.216C767.197 171.518 768.257 172.829 769.306 174.152C773.701 179.652 777.952 185.264 782.06 190.989C787.956 199.2 793.554 207.593 798.854 216.168C800.312 218.529 801.759 220.902 803.172 223.296C804.122 224.903 805.082 226.521 806.021 228.15C806.042 228.184 806.057 228.221 806.065 228.26C820.762 253.854 832.776 281.165 839.037 309.711C840.141 314.762 841.069 319.835 841.786 324.951V324.962C842.416 329.303 842.891 333.665 843.211 338.049C843.966 348.385 843.881 358.765 842.957 369.088Z" fill="#111010"/>
<path opacity="0.3" d="M627.239 440.291L463.307 305.074L622.565 445.707C622.873 446.221 623.301 446.655 623.813 446.973C624.324 447.291 624.905 447.484 625.507 447.535C626.109 447.586 626.715 447.495 627.274 447.268C627.833 447.041 628.329 446.685 628.722 446.231C629.114 445.776 629.391 445.235 629.531 444.653C629.67 444.071 629.667 443.464 629.522 442.884C629.377 442.303 629.094 441.765 628.697 441.314C628.3 440.863 627.801 440.512 627.239 440.291Z" fill="#F0F0F0"/>
<path d="M251.299 371.482C305.574 371.482 349.573 327.918 349.573 274.179C349.573 220.439 305.574 176.875 251.299 176.875C197.023 176.875 153.024 220.439 153.024 274.179C153.024 327.918 197.023 371.482 251.299 371.482Z" fill="#3F3D56"/>
<path d="M338.531 267.619C338.532 279.248 336.219 290.764 331.725 301.509C327.23 312.254 320.642 322.017 312.336 330.24C304.031 338.464 294.171 344.987 283.319 349.437C272.467 353.887 260.836 356.177 249.09 356.176C238.621 356.17 228.233 354.357 218.393 350.819C203.007 345.269 189.454 335.646 179.209 322.998C168.964 310.35 162.42 295.162 160.289 279.086C158.158 263.011 160.522 246.665 167.124 231.827C173.726 216.99 184.312 204.231 197.731 194.938C211.149 185.645 226.885 180.175 243.226 179.124C259.567 178.073 275.885 181.48 290.406 188.975C304.926 196.471 317.091 207.767 325.576 221.633C334.062 235.5 338.543 251.405 338.531 267.619Z" fill="#1B1D1F"/>
<path d="M233.631 265.432C248.877 265.432 261.236 253.195 261.236 238.1C261.236 223.004 248.877 210.767 233.631 210.767C218.385 210.767 206.026 223.004 206.026 238.1C206.026 253.195 218.385 265.432 233.631 265.432Z" fill="#3F3D56"/>
<path d="M335.042 243.052C329.059 245.902 322.239 246.522 315.832 244.798C309.426 243.074 303.861 239.121 300.158 233.664C296.456 228.208 294.863 221.613 295.673 215.089C296.482 208.564 299.639 202.547 304.566 198.14C319.205 209.599 329.861 225.302 335.042 243.052Z" fill="#3F3D56"/>
<path d="M278.904 306.977C284.392 306.977 288.842 302.572 288.842 297.138C288.842 291.703 284.392 287.298 278.904 287.298C273.415 287.298 268.966 291.703 268.966 297.138C268.966 302.572 273.415 306.977 278.904 306.977Z" fill="#3F3D56"/>
<path d="M238.048 352.896C238.047 353.76 237.932 354.62 237.706 355.454C231.112 354.638 224.633 353.082 218.393 350.819C218.911 348.444 220.298 346.344 222.286 344.921C224.275 343.498 226.724 342.854 229.163 343.112C231.603 343.37 233.86 344.511 235.5 346.318C237.14 348.124 238.048 350.467 238.048 352.896Z" fill="#3F3D56"/>
<path d="M179.525 263.245C179.524 268.237 177.608 273.043 174.164 276.688C170.719 280.334 166.005 282.548 160.974 282.881C158.697 269.885 159.361 256.551 162.917 243.839C167.557 244.605 171.772 246.976 174.813 250.529C177.854 254.082 179.523 258.588 179.525 263.245Z" fill="#3F3D56"/>
<path d="M631.942 133.505C633.261 133.505 634.331 132.446 634.331 131.14C634.331 129.834 633.261 128.775 631.942 128.775C630.623 128.775 629.554 129.834 629.554 131.14C629.554 132.446 630.623 133.505 631.942 133.505Z" fill="#F0F0F0"/>
<path d="M645.501 364.896C646.82 364.896 647.889 363.837 647.889 362.531C647.889 361.225 646.82 360.167 645.501 360.167C644.182 360.167 643.112 361.225 643.112 362.531C643.112 363.837 644.182 364.896 645.501 364.896Z" fill="#F0F0F0"/>
<path d="M337.288 387.231C339.546 387.231 341.377 385.419 341.377 383.183C341.377 380.948 339.546 379.135 337.288 379.135C335.031 379.135 333.2 380.948 333.2 383.183C333.2 385.419 335.031 387.231 337.288 387.231Z" fill="#FFEB62"/>
<path d="M189.324 474.455C199.986 474.455 208.629 465.897 208.629 455.341C208.629 444.784 199.986 436.227 189.324 436.227C178.662 436.227 170.019 444.784 170.019 455.341C170.019 465.897 178.662 474.455 189.324 474.455Z" fill="#FFEB62"/>
<path d="M295.158 478.987C296.477 478.987 297.547 477.928 297.547 476.622C297.547 475.316 296.477 474.257 295.158 474.257C293.839 474.257 292.77 475.316 292.77 476.622C292.77 477.928 293.839 478.987 295.158 478.987Z" fill="#F0F0F0"/>
<path d="M538.084 109.452C539.403 109.452 540.473 108.393 540.473 107.087C540.473 105.781 539.403 104.722 538.084 104.722C536.765 104.722 535.696 105.781 535.696 107.087C535.696 108.393 536.765 109.452 538.084 109.452Z" fill="#F0F0F0"/>
<path d="M360.306 131.318C361.626 131.318 362.695 130.259 362.695 128.953C362.695 127.647 361.626 126.588 360.306 126.588C358.987 126.588 357.918 127.647 357.918 128.953C357.918 130.259 358.987 131.318 360.306 131.318Z" fill="#F0F0F0"/>
<path d="M422.142 246.115C423.461 246.115 424.531 245.056 424.531 243.75C424.531 242.444 423.461 241.385 422.142 241.385C420.823 241.385 419.754 242.444 419.754 243.75C419.754 245.056 420.823 246.115 422.142 246.115Z" fill="#F0F0F0"/>
<path d="M483.182 405.348C484.501 405.348 485.57 404.29 485.57 402.984C485.57 401.677 484.501 400.619 483.182 400.619C481.863 400.619 480.793 401.677 480.793 402.984C480.793 404.29 481.863 405.348 483.182 405.348Z" fill="#F0F0F0"/>
<path d="M546.122 245.727C547.441 245.727 548.51 244.668 548.51 243.362C548.51 242.056 547.441 240.997 546.122 240.997C544.803 240.997 543.733 242.056 543.733 243.362C543.733 244.668 544.803 245.727 546.122 245.727Z" fill="#F0F0F0"/>
<path d="M468.419 169.4C471.035 169.4 473.155 167.3 473.155 164.711C473.155 162.121 471.035 160.021 468.419 160.021C465.804 160.021 463.684 162.121 463.684 164.711C463.684 167.3 465.804 169.4 468.419 169.4Z" fill="#FF6584"/>
<path d="M793.542 582.653C779.284 582.653 763.657 582.12 746.661 581.053C658.75 575.526 544.88 556.309 426.025 526.943C307.17 497.578 197.53 461.57 117.304 425.557C78.2227 408.013 48.2284 391.406 28.1548 376.197C6.90196 360.096 -2.39432 346.061 0.523084 334.485C6.20756 311.931 56.5408 306.997 97.7643 306.829L97.7783 310.109C41.1676 310.339 7.77005 319.278 3.73764 335.279C-1.39899 355.658 40.493 387.474 118.671 422.569C198.722 458.504 308.16 494.442 426.827 523.762C545.494 553.08 659.154 572.264 746.871 577.78C832.534 583.167 884.614 574.568 889.75 554.188C894.014 537.268 865.901 512.342 810.59 484L812.112 481.088C852.302 501.681 898.953 531.217 892.964 554.982C890.046 566.559 875.181 574.623 848.779 578.951C833.73 581.417 815.244 582.653 793.542 582.653Z" fill="#FFEB62"/>
<path d="M265.081 622.477C225.772 622.478 189.228 621.142 156.513 618.447C113.751 614.924 79.8645 609.26 55.7973 601.614C30.3158 593.518 16.7973 583.392 15.6171 571.517C13.317 548.385 59.0501 526.993 97.8203 513.121L98.9461 516.207C45.7046 535.256 17.282 554.785 18.9135 571.197C20.9915 592.1 71.2444 608.13 156.787 615.178C244.379 622.394 359.65 619.837 481.367 607.973C603.084 596.112 716.647 576.37 801.136 552.384C883.65 528.959 929.782 503.535 927.704 482.632C925.979 465.277 891.042 451.153 829.328 442.859L829.774 439.609C874.616 445.635 928.578 457.935 931.001 482.311C932.182 494.186 920.916 506.727 897.518 519.586C875.418 531.732 843.298 543.827 802.05 555.537C717.373 579.576 603.601 599.357 481.691 611.238C405.215 618.691 331.248 622.477 265.081 622.477Z" fill="#FFEB62"/>
<path d="M365.998 38.2284C376.66 38.2284 385.303 29.6707 385.303 19.1142C385.303 8.55772 376.66 0 365.998 0C355.336 0 346.693 8.55772 346.693 19.1142C346.693 29.6707 355.336 38.2284 365.998 38.2284Z" fill="#3F3D56"/>
<path d="M21.4842 493.041C32.146 493.041 40.7891 484.483 40.7891 473.927C40.7891 463.37 32.146 454.812 21.4842 454.812C10.8223 454.812 2.1792 463.37 2.1792 473.927C2.1792 484.483 10.8223 493.041 21.4842 493.041Z" fill="#3F3D56"/>
<path d="M140.739 130.306C147.266 130.306 152.557 125.067 152.557 118.605C152.557 112.142 147.266 106.904 140.739 106.904C134.212 106.904 128.921 112.142 128.921 118.605C128.921 125.067 134.212 130.306 140.739 130.306Z" fill="#FF6584"/>
</g>
<defs>
<clipPath id="clip0_1654_6181">
<rect width="645" height="478" fill="white"/>
</clipPath>
</defs>
</svg>
