<svg width="463" height="339" viewBox="0 0 463 339" fill="none" xmlns="http://www.w3.org/2000/svg">
<g clip-path="url(#clip0_1799_54138)">
<path d="M590.169 189.503C587.286 222.491 572.767 254.368 552.056 280.732C551.191 281.835 550.314 282.928 549.428 284.01C547.434 286.445 545.387 288.834 543.29 291.177C540.723 294.064 538.082 296.884 535.366 299.638C533.155 301.905 530.892 304.123 528.578 306.292C526.792 307.985 524.986 309.644 523.159 311.27C501.18 330.941 475.932 347.175 449.917 361.371C399.149 389.068 343.503 410.049 285.623 413.104C227.75 416.152 167.334 399.735 124.892 360.636C67.6924 307.947 51.7284 220.064 74.9516 146.194C90.3977 97.0493 121.924 52.591 164.83 23.5545C207.364 -5.22927 261.024 -18.1854 311.807 -9.7164C352.347 -34.1203 405.419 -34.5873 449.492 -16.5237C473.009 -6.8832 494.114 7.45126 512.63 24.7721C521.109 32.7209 529.043 41.2215 536.378 50.2172C537.128 51.1285 537.871 52.0473 538.605 52.9739C541.682 56.8255 544.658 60.7562 547.534 64.7661C551.662 70.5167 555.582 76.395 559.292 82.4009C560.313 84.0549 561.326 85.7165 562.315 87.3934C562.98 88.5191 563.653 89.6523 564.31 90.7933C564.325 90.8167 564.335 90.8427 564.341 90.8699C574.63 108.796 583.041 127.924 587.425 147.917C588.198 151.454 588.847 155.007 589.35 158.591V158.599C589.79 161.639 590.123 164.694 590.347 167.764C590.876 175.004 590.816 182.273 590.169 189.503Z" fill="#1B1D1F"/>
<path opacity="0.3" d="M439.142 239.372L324.369 144.668L435.869 243.166C436.085 243.526 436.384 243.83 436.742 244.053C437.101 244.275 437.507 244.41 437.929 244.446C438.35 244.482 438.774 244.418 439.166 244.259C439.557 244.1 439.905 243.851 440.179 243.533C440.454 243.214 440.648 242.835 440.746 242.428C440.843 242.02 440.841 241.595 440.74 241.188C440.638 240.782 440.44 240.405 440.162 240.089C439.885 239.773 439.535 239.527 439.142 239.372Z" fill="#F0F0F0"/>
<path d="M175.939 191.18C213.938 191.18 244.743 160.669 244.743 123.03C244.743 85.3921 213.938 54.8804 175.939 54.8804C137.939 54.8804 107.135 85.3921 107.135 123.03C107.135 160.669 137.939 191.18 175.939 191.18Z" fill="#3F3D56"/>
<path d="M237.012 118.436C237.012 126.581 235.393 134.647 232.246 142.172C229.1 149.698 224.487 156.536 218.672 162.295C212.857 168.055 205.954 172.623 198.356 175.74C190.759 178.857 182.616 180.461 174.392 180.46C167.063 180.456 159.79 179.186 152.901 176.708C142.129 172.821 132.64 166.081 125.467 157.223C118.295 148.365 113.713 137.727 112.221 126.468C110.729 115.209 112.384 103.76 117.007 93.3685C121.629 82.9767 129.04 74.0401 138.435 67.5316C147.829 61.0231 158.847 57.1921 170.287 56.4558C181.727 55.7195 193.152 58.1061 203.318 63.3556C213.484 68.6052 222.001 76.5166 227.942 86.2285C233.883 95.9404 237.02 107.081 237.012 118.436Z" fill="#1B1D1F"/>
<path d="M163.569 116.905C174.243 116.905 182.896 108.334 182.896 97.7614C182.896 87.1889 174.243 78.6182 163.569 78.6182C152.895 78.6182 144.242 87.1889 144.242 97.7614C144.242 108.334 152.895 116.905 163.569 116.905Z" fill="#3F3D56"/>
<path d="M234.569 101.23C230.38 103.226 225.605 103.66 221.12 102.453C216.634 101.245 212.739 98.4766 210.146 94.655C207.554 90.8333 206.439 86.2144 207.006 81.6447C207.572 77.0749 209.783 72.8606 213.232 69.7739C223.481 77.7996 230.941 88.7978 234.569 101.23Z" fill="#3F3D56"/>
<path d="M195.266 146.002C199.108 146.002 202.223 142.917 202.223 139.111C202.223 135.305 199.108 132.219 195.266 132.219C191.423 132.219 188.308 135.305 188.308 139.111C188.308 142.917 191.423 146.002 195.266 146.002Z" fill="#3F3D56"/>
<path d="M166.662 178.163C166.661 178.768 166.581 179.37 166.422 179.954C161.805 179.382 157.269 178.293 152.901 176.708C153.264 175.045 154.235 173.574 155.627 172.577C157.019 171.581 158.734 171.129 160.441 171.31C162.149 171.491 163.729 172.29 164.878 173.555C166.026 174.82 166.661 176.461 166.662 178.163Z" fill="#3F3D56"/>
<path d="M125.689 115.373C125.688 118.869 124.347 122.235 121.935 124.788C119.524 127.342 116.223 128.892 112.701 129.125C111.107 120.023 111.571 110.684 114.062 101.781C117.31 102.318 120.261 103.978 122.39 106.467C124.519 108.955 125.688 112.111 125.689 115.373Z" fill="#3F3D56"/>
<path d="M442.434 24.5045C443.357 24.5045 444.106 23.763 444.106 22.8482C444.106 21.9335 443.357 21.1919 442.434 21.1919C441.51 21.1919 440.762 21.9335 440.762 22.8482C440.762 23.763 441.51 24.5045 442.434 24.5045Z" fill="#F0F0F0"/>
<path d="M451.927 186.568C452.85 186.568 453.599 185.826 453.599 184.911C453.599 183.996 452.85 183.255 451.927 183.255C451.003 183.255 450.255 183.996 450.255 184.911C450.255 185.826 451.003 186.568 451.927 186.568Z" fill="#F0F0F0"/>
<path d="M236.142 202.211C237.722 202.211 239.004 200.941 239.004 199.376C239.004 197.81 237.722 196.541 236.142 196.541C234.561 196.541 233.279 197.81 233.279 199.376C233.279 200.941 234.561 202.211 236.142 202.211Z" fill="#FFEB62"/>
<path d="M132.549 263.301C140.014 263.301 146.065 257.307 146.065 249.914C146.065 242.52 140.014 236.526 132.549 236.526C125.085 236.526 119.033 242.52 119.033 249.914C119.033 257.307 125.085 263.301 132.549 263.301Z" fill="#FFEB62"/>
<path d="M206.645 266.475C207.569 266.475 208.318 265.734 208.318 264.819C208.318 263.904 207.569 263.163 206.645 263.163C205.722 263.163 204.973 263.904 204.973 264.819C204.973 265.734 205.722 266.475 206.645 266.475Z" fill="#F0F0F0"/>
<path d="M376.723 7.65836C377.646 7.65836 378.395 6.91679 378.395 6.00203C378.395 5.08727 377.646 4.3457 376.723 4.3457C375.799 4.3457 375.05 5.08727 375.05 6.00203C375.05 6.91679 375.799 7.65836 376.723 7.65836Z" fill="#F0F0F0"/>
<path d="M252.257 22.9728C253.18 22.9728 253.929 22.2312 253.929 21.3165C253.929 20.4017 253.18 19.6602 252.257 19.6602C251.333 19.6602 250.585 20.4017 250.585 21.3165C250.585 22.2312 251.333 22.9728 252.257 22.9728Z" fill="#F0F0F0"/>
<path d="M295.549 103.375C296.473 103.375 297.222 102.633 297.222 101.718C297.222 100.804 296.473 100.062 295.549 100.062C294.626 100.062 293.877 100.804 293.877 101.718C293.877 102.633 294.626 103.375 295.549 103.375Z" fill="#F0F0F0"/>
<path d="M229.28 300.661C230.204 300.661 230.953 299.92 230.953 299.005C230.953 298.09 230.204 297.349 229.28 297.349C228.357 297.349 227.608 298.09 227.608 299.005C227.608 299.92 228.357 300.661 229.28 300.661Z" fill="#F0F0F0"/>
<path d="M424.869 311.382C425.793 311.382 426.541 310.64 426.541 309.725C426.541 308.81 425.793 308.069 424.869 308.069C423.945 308.069 423.197 308.81 423.197 309.725C423.197 310.64 423.945 311.382 424.869 311.382Z" fill="#F0F0F0"/>
<path d="M338.284 214.9C339.208 214.9 339.957 214.158 339.957 213.243C339.957 212.328 339.208 211.587 338.284 211.587C337.361 211.587 336.612 212.328 336.612 213.243C336.612 214.158 337.361 214.9 338.284 214.9Z" fill="#F0F0F0"/>
<path d="M382.35 103.103C383.273 103.103 384.022 102.362 384.022 101.447C384.022 100.532 383.273 99.7905 382.35 99.7905C381.426 99.7905 380.677 100.532 380.677 101.447C380.677 102.362 381.426 103.103 382.35 103.103Z" fill="#F0F0F0"/>
<path d="M462.464 158.379C464.295 158.379 465.78 156.908 465.78 155.095C465.78 153.281 464.295 151.811 462.464 151.811C460.633 151.811 459.149 153.281 459.149 155.095C459.149 156.908 460.633 158.379 462.464 158.379Z" fill="#FF6584"/>
<path d="M327.949 49.6449C329.78 49.6449 331.265 48.1746 331.265 46.3608C331.265 44.547 329.78 43.0767 327.949 43.0767C326.118 43.0767 324.633 44.547 324.633 46.3608C324.633 48.1746 326.118 49.6449 327.949 49.6449Z" fill="#FF6584"/>
<path d="M327.949 275.535C329.78 275.535 331.265 274.065 331.265 272.251C331.265 270.437 329.78 268.967 327.949 268.967C326.118 268.967 324.633 270.437 324.633 272.251C324.633 274.065 326.118 275.535 327.949 275.535Z" fill="#FF6584"/>
<path d="M555.573 339.081C545.591 339.081 534.65 338.708 522.751 337.96C461.203 334.089 381.48 320.63 298.268 300.063C215.055 279.496 138.295 254.277 82.1263 229.053C54.7651 216.766 33.7656 205.135 19.7117 194.483C4.83219 183.206 -1.6763 173.376 0.366221 165.268C4.34602 149.472 39.5852 146.016 68.4465 145.898L68.4563 148.196C28.8221 148.357 5.43995 154.618 2.61679 165.824C-0.979461 180.098 28.3499 202.381 83.084 226.961C139.129 252.129 215.748 277.3 298.829 297.834C381.91 318.369 461.486 331.805 522.898 335.668C582.872 339.441 619.334 333.418 622.93 319.145C625.915 307.294 606.233 289.836 567.508 269.986L568.574 267.946C596.712 282.37 629.374 303.056 625.18 319.701C623.138 327.809 612.73 333.457 594.246 336.488C583.709 338.215 570.767 339.081 555.573 339.081Z" fill="#FFEB62"/>
<path d="M185.588 366.973C158.067 366.974 132.482 366.038 109.577 364.151C79.6389 361.683 55.9147 357.716 39.0647 352.361C21.2247 346.691 11.7602 339.599 10.9339 331.282C9.32354 315.08 41.3421 300.098 68.4859 290.382L69.274 292.543C31.9987 305.885 12.0995 319.563 13.2418 331.058C14.6966 345.698 49.8795 356.925 109.77 361.861C171.094 366.915 251.797 365.124 337.014 356.815C422.23 348.508 501.738 334.681 560.89 317.881C618.659 301.474 650.958 283.668 649.503 269.028C648.295 256.873 623.834 246.981 580.628 241.172L580.94 238.896C612.334 243.116 650.114 251.73 651.811 268.803C652.637 277.12 644.75 285.903 628.369 294.91C612.896 303.416 590.408 311.888 561.53 320.089C502.246 336.926 422.592 350.78 337.241 359.102C283.698 364.321 231.913 366.973 185.588 366.973Z" fill="#FFEB62"/>
<path d="M15.0414 276.318C22.5059 276.318 28.5571 270.324 28.5571 262.931C28.5571 255.537 22.5059 249.543 15.0414 249.543C7.57684 249.543 1.52563 255.537 1.52563 262.931C1.52563 270.324 7.57684 276.318 15.0414 276.318Z" fill="#3F3D56"/>
<path d="M98.5337 22.2637C103.103 22.2637 106.807 18.5947 106.807 14.0686C106.807 9.54261 103.103 5.87354 98.5337 5.87354C93.9643 5.87354 90.26 9.54261 90.26 14.0686C90.26 18.5947 93.9643 22.2637 98.5337 22.2637Z" fill="#FF6584"/>
<path d="M59.8799 333.15C64.4494 333.15 68.1537 329.481 68.1537 324.955C68.1537 320.429 64.4494 316.76 59.8799 316.76C55.3105 316.76 51.6062 320.429 51.6062 324.955C51.6062 329.481 55.3105 333.15 59.8799 333.15Z" fill="#FF6584"/>
</g>
<defs>
<clipPath id="clip0_1799_54138">
<rect width="463" height="339" fill="white"/>
</clipPath>
</defs>
</svg>
