<svg width="413" height="272" viewBox="0 0 413 272" fill="none" xmlns="http://www.w3.org/2000/svg">
<g clip-path="url(#clip0_984_1006)">
<path d="M531.566 232.822C528.968 262.565 515.892 291.306 497.238 315.077C496.458 316.071 495.669 317.056 494.87 318.032C493.074 320.227 491.231 322.381 489.341 324.494C487.03 327.097 484.651 329.64 482.204 332.123C480.213 334.167 478.175 336.166 476.091 338.122C474.482 339.648 472.855 341.144 471.209 342.61C451.413 360.347 428.672 374.983 405.241 387.783C359.514 412.755 309.394 431.672 257.261 434.427C205.135 437.175 150.718 422.373 112.491 387.121C60.9709 339.614 46.5921 260.376 67.5093 193.773C81.4216 149.463 109.817 109.378 148.462 83.1979C186.773 57.2456 235.104 45.564 280.845 53.1999C317.36 31.1967 365.161 30.7756 404.858 47.0622C426.04 55.7544 445.049 68.6787 461.726 84.2957C469.363 91.4626 476.509 99.127 483.116 107.238C483.792 108.059 484.46 108.888 485.122 109.723C487.893 113.196 490.574 116.74 493.164 120.355C496.882 125.54 500.413 130.84 503.755 136.255C504.674 137.747 505.586 139.245 506.478 140.757C507.076 141.772 507.682 142.794 508.274 143.822C508.288 143.843 508.297 143.867 508.302 143.891C517.57 160.054 525.146 177.3 529.094 195.326C529.79 198.516 530.375 201.72 530.828 204.951V204.958C531.225 207.698 531.524 210.453 531.726 213.222C532.202 219.749 532.148 226.303 531.566 232.822Z" fill="#111010"/>
<path opacity="0.3" d="M395.536 277.786L292.16 192.398L392.588 281.206C392.782 281.531 393.052 281.805 393.375 282.006C393.697 282.206 394.064 282.328 394.443 282.36C394.823 282.393 395.205 282.335 395.557 282.192C395.91 282.048 396.223 281.824 396.47 281.537C396.718 281.25 396.893 280.908 396.98 280.54C397.068 280.173 397.066 279.79 396.975 279.423C396.883 279.056 396.705 278.717 396.455 278.432C396.205 278.147 395.889 277.926 395.536 277.786Z" fill="#F0F0F0"/>
<path d="M158.468 234.334C192.694 234.334 220.439 206.824 220.439 172.888C220.439 138.953 192.694 111.442 158.468 111.442C124.242 111.442 96.4961 138.953 96.4961 172.888C96.4961 206.824 124.242 234.334 158.468 234.334Z" fill="#3F3D56"/>
<path d="M213.476 168.746C213.477 176.09 212.019 183.362 209.184 190.147C206.35 196.932 202.196 203.097 196.958 208.29C191.721 213.483 185.503 217.603 178.66 220.413C171.817 223.223 164.482 224.669 157.075 224.669C150.474 224.665 143.923 223.52 137.718 221.286C128.016 217.781 119.469 211.704 113.008 203.717C106.548 195.73 102.421 186.139 101.078 175.987C99.7339 165.836 101.225 155.514 105.388 146.144C109.551 136.775 116.227 128.717 124.688 122.849C133.15 116.981 143.073 113.527 153.377 112.863C163.682 112.199 173.972 114.351 183.129 119.084C192.285 123.817 199.956 130.95 205.307 139.707C210.658 148.463 213.484 158.507 213.476 168.746Z" fill="#1B1D1F"/>
<path d="M147.328 167.365C156.942 167.365 164.735 159.637 164.735 150.105C164.735 140.572 156.942 132.845 147.328 132.845C137.714 132.845 129.92 140.572 129.92 150.105C129.92 159.637 137.714 167.365 147.328 167.365Z" fill="#3F3D56"/>
<path d="M211.276 153.232C207.503 155.032 203.203 155.423 199.163 154.335C195.123 153.246 191.614 150.75 189.279 147.304C186.944 143.858 185.94 139.694 186.45 135.574C186.961 131.453 188.952 127.654 192.058 124.871C201.29 132.107 208.009 142.023 211.276 153.232Z" fill="#3F3D56"/>
<path d="M175.876 193.6C179.337 193.6 182.143 190.818 182.143 187.387C182.143 183.955 179.337 181.173 175.876 181.173C172.415 181.173 169.609 183.955 169.609 187.387C169.609 190.818 172.415 193.6 175.876 193.6Z" fill="#3F3D56"/>
<path d="M150.113 222.597C150.113 223.143 150.04 223.686 149.897 224.213C145.739 223.697 141.653 222.715 137.719 221.286C138.046 219.786 138.92 218.46 140.174 217.561C141.428 216.663 142.972 216.256 144.51 216.419C146.049 216.582 147.472 217.303 148.506 218.443C149.54 219.584 150.113 221.063 150.113 222.597Z" fill="#3F3D56"/>
<path d="M113.207 165.984C113.207 169.137 111.999 172.171 109.827 174.473C107.655 176.776 104.682 178.173 101.509 178.384C100.074 170.177 100.492 161.757 102.735 153.73C105.661 154.213 108.319 155.71 110.236 157.954C112.154 160.198 113.207 163.043 113.207 165.984Z" fill="#3F3D56"/>
<path d="M398.5 84.0545C399.332 84.0545 400.007 83.3859 400.007 82.5611C400.007 81.7364 399.332 81.0677 398.5 81.0677C397.668 81.0677 396.994 81.7364 396.994 82.5611C396.994 83.3859 397.668 84.0545 398.5 84.0545Z" fill="#F0F0F0"/>
<path d="M407.051 230.176C407.883 230.176 408.557 229.507 408.557 228.682C408.557 227.857 407.883 227.189 407.051 227.189C406.219 227.189 405.545 227.857 405.545 228.682C405.545 229.507 406.219 230.176 407.051 230.176Z" fill="#F0F0F0"/>
<path d="M212.693 244.279C214.117 244.279 215.271 243.135 215.271 241.723C215.271 240.311 214.117 239.167 212.693 239.167C211.269 239.167 210.115 240.311 210.115 241.723C210.115 243.135 211.269 244.279 212.693 244.279Z" fill="#FFEB62"/>
<path d="M339.315 68.8657C340.147 68.8657 340.821 68.1971 340.821 67.3723C340.821 66.5475 340.147 65.8789 339.315 65.8789C338.483 65.8789 337.809 66.5475 337.809 67.3723C337.809 68.1971 338.483 68.8657 339.315 68.8657Z" fill="#F0F0F0"/>
<path d="M227.207 82.6738C228.039 82.6738 228.714 82.0052 228.714 81.1804C228.714 80.3556 228.039 79.687 227.207 79.687C226.375 79.687 225.701 80.3556 225.701 81.1804C225.701 82.0052 226.375 82.6738 227.207 82.6738Z" fill="#F0F0F0"/>
<path d="M266.201 155.166C267.033 155.166 267.708 154.498 267.708 153.673C267.708 152.848 267.033 152.179 266.201 152.179C265.37 152.179 264.695 152.848 264.695 153.673C264.695 154.498 265.37 155.166 266.201 155.166Z" fill="#F0F0F0"/>
<path d="M304.692 255.72C305.524 255.72 306.198 255.052 306.198 254.227C306.198 253.402 305.524 252.734 304.692 252.734C303.86 252.734 303.186 253.402 303.186 254.227C303.186 255.052 303.86 255.72 304.692 255.72Z" fill="#F0F0F0"/>
<path d="M344.383 154.921C345.215 154.921 345.889 154.253 345.889 153.428C345.889 152.603 345.215 151.935 344.383 151.935C343.551 151.935 342.877 152.603 342.877 153.428C342.877 154.253 343.551 154.921 344.383 154.921Z" fill="#F0F0F0"/>
<path d="M295.383 106.722C297.032 106.722 298.369 105.396 298.369 103.761C298.369 102.126 297.032 100.8 295.383 100.8C293.734 100.8 292.396 102.126 292.396 103.761C292.396 105.396 293.734 106.722 295.383 106.722Z" fill="#FF6584"/>
<path d="M500.405 367.686C491.414 367.686 481.559 367.349 470.842 366.675C415.406 363.185 343.599 351.049 268.65 332.506C193.7 313.962 124.562 291.224 73.9712 268.481C49.327 257.403 30.4127 246.916 17.7543 237.311C4.35235 227.144 -1.50985 218.281 0.329855 210.971C3.91446 196.728 35.6544 193.612 61.6498 193.507L61.6586 195.578C25.9601 195.723 4.89976 201.368 2.35694 211.472C-0.882201 224.342 25.5348 244.433 74.8338 266.595C125.313 289.287 194.325 311.982 269.156 330.496C343.986 349.011 415.66 361.125 470.974 364.608C524.993 368.01 557.834 362.58 561.073 349.71C563.762 339.025 546.034 323.285 511.155 305.388L512.115 303.548C537.459 316.553 566.877 335.205 563.1 350.212C561.26 357.523 551.886 362.615 535.237 365.348C525.747 366.905 514.09 367.686 500.405 367.686Z" fill="#FFEB62"/>
<path d="M230.797 23.889C237.52 23.889 242.97 18.4849 242.97 11.8187C242.97 5.15238 237.52 -0.251709 230.797 -0.251709C224.073 -0.251709 218.623 5.15238 218.623 11.8187C218.623 18.4849 224.073 23.889 230.797 23.889Z" fill="#3F3D56"/>
<path d="M88.749 82.0343C92.8647 82.0343 96.2012 78.7262 96.2012 74.6454C96.2012 70.5646 92.8647 67.2565 88.749 67.2565C84.6333 67.2565 81.2969 70.5646 81.2969 74.6454C81.2969 78.7262 84.6333 82.0343 88.749 82.0343Z" fill="#FF6584"/>
</g>
<defs>
<clipPath id="clip0_984_1006">
<rect width="413" height="272" fill="white"/>
</clipPath>
</defs>
</svg>
