<svg width="235" height="172" viewBox="0 0 235 172" fill="none" xmlns="http://www.w3.org/2000/svg">
<g clip-path="url(#clip0_249_4528)">
<path d="M209.352 92.158C208.329 103.918 203.179 115.283 195.832 124.682C195.525 125.075 195.215 125.464 194.9 125.85C194.193 126.718 193.467 127.57 192.723 128.405C191.812 129.434 190.875 130.44 189.912 131.422C189.127 132.23 188.325 133.021 187.504 133.794C186.87 134.397 186.23 134.989 185.582 135.568C177.785 142.581 168.828 148.369 159.6 153.43C141.591 163.304 121.852 170.784 101.32 171.873C80.7905 172.959 59.359 167.107 44.3034 153.168C24.0127 134.384 18.3497 103.053 26.5878 76.7178C32.067 59.1975 43.2503 43.3479 58.4704 32.9962C73.5589 22.7346 92.5936 18.1156 110.608 21.1349C124.989 12.4348 143.815 12.2683 159.45 18.708C167.792 22.1449 175.278 27.2553 181.846 33.4302C184.854 36.2641 187.669 39.2946 190.271 42.5016C190.537 42.8265 190.8 43.154 191.061 43.4844C192.152 44.8575 193.208 46.2588 194.228 47.6884C195.693 49.7385 197.083 51.8341 198.399 53.9753C198.761 54.5649 199.121 55.1573 199.472 55.7551C199.707 56.1564 199.946 56.5605 200.179 56.9672C200.184 56.9756 200.188 56.9848 200.19 56.9945C203.84 63.3851 206.824 70.2044 208.379 77.3321C208.653 78.5933 208.883 79.8599 209.062 81.1375V81.1402C209.218 82.224 209.336 83.3132 209.415 84.4079C209.603 86.9888 209.582 89.5805 209.352 92.158Z" fill="#111010"/>
<path opacity="0.3" d="M155.778 109.937L115.064 76.1742L154.617 111.289C154.694 111.417 154.8 111.526 154.927 111.605C155.054 111.685 155.198 111.733 155.348 111.745C155.497 111.758 155.648 111.735 155.786 111.679C155.925 111.622 156.049 111.533 156.146 111.42C156.244 111.306 156.312 111.171 156.347 111.026C156.382 110.881 156.381 110.729 156.345 110.584C156.309 110.439 156.239 110.305 156.14 110.192C156.041 110.08 155.917 109.992 155.778 109.937Z" fill="#F0F0F0"/>
<path d="M62.4112 92.7558C75.8908 92.7558 86.8182 81.8782 86.8182 68.4599C86.8182 55.0417 75.8908 44.1641 62.4112 44.1641C48.9316 44.1641 38.0042 55.0417 38.0042 68.4599C38.0042 81.8782 48.9316 92.7558 62.4112 92.7558Z" fill="#3F3D56"/>
<path d="M84.0758 66.822C84.0761 69.7259 83.5017 72.6013 82.3854 75.2842C81.2692 77.967 79.633 80.4047 77.5703 82.458C75.5075 84.5114 73.0587 86.1401 70.3636 87.2513C67.6685 88.3624 64.7799 88.9342 61.8627 88.934C59.2627 88.9325 56.6828 88.4799 54.239 87.5963C50.4178 86.2106 47.0518 83.8079 44.5074 80.6498C41.963 77.4917 40.3377 73.6992 39.8085 69.6854C39.2793 65.6715 39.8665 61.59 41.5061 57.8853C43.1457 54.1805 45.7749 50.9946 49.1074 48.6743C52.4399 46.3539 56.3481 44.9882 60.4064 44.7257C64.4646 44.4632 68.5175 45.314 72.1236 47.1855C75.7298 49.057 78.7511 51.8775 80.8585 55.3398C82.9659 58.8022 84.0788 62.7737 84.0758 66.822Z" fill="#1B1D1F"/>
<path d="M58.0234 66.276C61.8098 66.276 64.8793 63.2205 64.8793 59.4514C64.8793 55.6822 61.8098 52.6267 58.0234 52.6267C54.237 52.6267 51.1675 55.6822 51.1675 59.4514C51.1675 63.2205 54.237 66.276 58.0234 66.276Z" fill="#3F3D56"/>
<path d="M83.2092 60.688C81.7234 61.3996 80.0297 61.5543 78.4385 61.1238C76.8473 60.6933 75.4653 59.7063 74.5458 58.3439C73.6262 56.9815 73.2307 55.3348 73.4318 53.7056C73.6328 52.0765 74.4169 50.5741 75.6403 49.4737C79.2761 52.3348 81.9225 56.2558 83.2092 60.688Z" fill="#3F3D56"/>
<path d="M69.2671 76.6495C70.6302 76.6495 71.7352 75.5496 71.7352 74.1927C71.7352 72.8358 70.6302 71.7358 69.2671 71.7358C67.904 71.7358 66.799 72.8358 66.799 74.1927C66.799 75.5496 67.904 76.6495 69.2671 76.6495Z" fill="#3F3D56"/>
<path d="M59.1204 88.115C59.1202 88.3307 59.0916 88.5455 59.0354 88.7538C57.3977 88.5499 55.7886 88.1616 54.239 87.5963C54.3677 87.0035 54.7121 86.479 55.2059 86.1238C55.6997 85.7685 56.308 85.6076 56.9138 85.672C57.5196 85.7364 58.0802 86.0215 58.4875 86.4725C58.8949 86.9235 59.1203 87.5085 59.1204 88.115Z" fill="#3F3D56"/>
<path d="M44.5859 65.7301C44.5857 66.9765 44.1098 68.1764 43.2544 69.0867C42.399 69.997 41.2281 70.5497 39.9787 70.6329C39.4132 67.3879 39.578 64.0585 40.4613 60.8846C41.6136 61.0758 42.6605 61.6677 43.4157 62.5549C44.1709 63.4421 44.5855 64.5672 44.5859 65.7301Z" fill="#3F3D56"/>
<path d="M166.312 57.9239C166.873 57.9239 167.328 57.4714 167.328 56.9132C167.328 56.355 166.873 55.9025 166.312 55.9025C165.751 55.9025 165.297 56.355 165.297 56.9132C165.297 57.4714 165.751 57.9239 166.312 57.9239Z" fill="#FFEB62"/>
<path d="M156.946 33.3349C157.273 33.3349 157.539 33.0705 157.539 32.7444C157.539 32.4183 157.273 32.1539 156.946 32.1539C156.618 32.1539 156.353 32.4183 156.353 32.7444C156.353 33.0705 156.618 33.3349 156.946 33.3349Z" fill="#F0F0F0"/>
<path d="M61.786 149.081C62.1136 149.081 62.3792 148.817 62.3792 148.491C62.3792 148.165 62.1136 147.901 61.786 147.901C61.4584 147.901 61.1928 148.165 61.1928 148.491C61.1928 148.817 61.4584 149.081 61.786 149.081Z" fill="#F0F0F0"/>
<path d="M160.313 91.1114C160.641 91.1114 160.906 90.847 160.906 90.5209C160.906 90.1948 160.641 89.9304 160.313 89.9304C159.986 89.9304 159.72 90.1948 159.72 90.5209C159.72 90.847 159.986 91.1114 160.313 91.1114Z" fill="#F0F0F0"/>
<path d="M83.7672 96.6881C84.3279 96.6881 84.7825 96.2356 84.7825 95.6774C84.7825 95.1192 84.3279 94.6667 83.7672 94.6667C83.2064 94.6667 82.7519 95.1192 82.7519 95.6774C82.7519 96.2356 83.2064 96.6881 83.7672 96.6881Z" fill="#FFEB62"/>
<path d="M47.0195 118.467C49.6675 118.467 51.814 116.33 51.814 113.695C51.814 111.059 49.6675 108.922 47.0195 108.922C44.3716 108.922 42.2251 111.059 42.2251 113.695C42.2251 116.33 44.3716 118.467 47.0195 118.467Z" fill="#FFEB62"/>
<path d="M73.3039 119.599C73.6315 119.599 73.8971 119.335 73.8971 119.008C73.8971 118.682 73.6315 118.418 73.3039 118.418C72.9763 118.418 72.7107 118.682 72.7107 119.008C72.7107 119.335 72.9763 119.599 73.3039 119.599Z" fill="#F0F0F0"/>
<path d="M133.636 27.3292C133.963 27.3292 134.229 27.0648 134.229 26.7387C134.229 26.4126 133.963 26.1482 133.636 26.1482C133.308 26.1482 133.043 26.4126 133.043 26.7387C133.043 27.0648 133.308 27.3292 133.636 27.3292Z" fill="#F0F0F0"/>
<path d="M98.2594 153.176C98.587 153.176 98.8526 152.912 98.8526 152.586C98.8526 152.26 98.587 151.995 98.2594 151.995C97.9318 151.995 97.6662 152.26 97.6662 152.586C97.6662 152.912 97.9318 153.176 98.2594 153.176Z" fill="#F0F0F0"/>
<path d="M89.4838 32.7889C89.8114 32.7889 90.077 32.5246 90.077 32.1984C90.077 31.8723 89.8114 31.6079 89.4838 31.6079C89.1562 31.6079 88.8906 31.8723 88.8906 32.1984C88.8906 32.5246 89.1562 32.7889 89.4838 32.7889Z" fill="#F0F0F0"/>
<path d="M104.841 61.4526C105.169 61.4526 105.434 61.1882 105.434 60.8621C105.434 60.536 105.169 60.2716 104.841 60.2716C104.513 60.2716 104.248 60.536 104.248 60.8621C104.248 61.1882 104.513 61.4526 104.841 61.4526Z" fill="#F0F0F0"/>
<path d="M81.3333 131.787C81.6609 131.787 81.9265 131.522 81.9265 131.196C81.9265 130.87 81.6609 130.606 81.3333 130.606C81.0057 130.606 80.7401 130.87 80.7401 131.196C80.7401 131.522 81.0057 131.787 81.3333 131.787Z" fill="#F0F0F0"/>
<path d="M150.715 135.608C151.043 135.608 151.308 135.344 151.308 135.018C151.308 134.692 151.043 134.427 150.715 134.427C150.387 134.427 150.122 134.692 150.122 135.018C150.122 135.344 150.387 135.608 150.715 135.608Z" fill="#F0F0F0"/>
<path d="M120.001 101.212C120.328 101.212 120.594 100.948 120.594 100.621C120.594 100.295 120.328 100.031 120.001 100.031C119.673 100.031 119.407 100.295 119.407 100.621C119.407 100.948 119.673 101.212 120.001 101.212Z" fill="#F0F0F0"/>
<path d="M135.632 61.3558C135.96 61.3558 136.225 61.0914 136.225 60.7653C136.225 60.4392 135.96 60.1748 135.632 60.1748C135.304 60.1748 135.039 60.4392 135.039 60.7653C135.039 61.0914 135.304 61.3558 135.632 61.3558Z" fill="#F0F0F0"/>
<path d="M164.051 81.0618C164.701 81.0618 165.227 80.5376 165.227 79.891C165.227 79.2444 164.701 78.7202 164.051 78.7202C163.402 78.7202 162.875 79.2444 162.875 79.891C162.875 80.5376 163.402 81.0618 164.051 81.0618Z" fill="#FF6584"/>
<path d="M116.334 42.2976C116.984 42.2976 117.51 41.7734 117.51 41.1268C117.51 40.4802 116.984 39.956 116.334 39.956C115.685 39.956 115.158 40.4802 115.158 41.1268C115.158 41.7734 115.685 42.2976 116.334 42.2976Z" fill="#FF6584"/>
<path d="M116.334 122.829C116.984 122.829 117.51 122.305 117.51 121.658C117.51 121.011 116.984 120.487 116.334 120.487C115.685 120.487 115.158 121.011 115.158 121.658C115.158 122.305 115.685 122.829 116.334 122.829Z" fill="#FF6584"/>
<path d="M189.613 128.405C189.155 128.406 188.709 128.555 188.344 128.829C187.978 129.104 187.712 129.49 187.586 129.928C187.531 130.116 187.503 130.311 187.504 130.507V133.794C188.324 133.021 189.126 132.231 189.912 131.422C190.874 130.439 191.811 129.433 192.723 128.405H189.613Z" fill="#FFEB62"/>
<path d="M197.08 145.483C193.539 145.483 189.658 145.35 185.437 145.084C163.604 143.704 135.324 138.905 105.805 131.573C76.2871 124.241 49.0576 115.25 29.1329 106.258C19.427 101.877 11.9778 97.7306 6.99237 93.933C1.71413 89.9128 -0.594648 86.4084 0.129903 83.5178C1.54167 77.8864 14.0422 76.6543 24.2802 76.6125L24.2837 77.4314C10.2242 77.4889 1.92972 79.7209 0.928253 83.7162C-0.347455 88.8047 10.0566 96.7488 29.4726 105.512C49.3535 114.484 76.533 123.458 106.005 130.779C135.476 138.099 163.704 142.889 185.489 144.266C206.764 145.612 219.698 143.465 220.974 138.376C222.033 134.151 215.051 127.927 201.314 120.851L201.692 120.123C211.673 125.265 223.259 132.64 221.772 138.574C221.047 141.465 217.355 143.478 210.798 144.559C207.061 145.175 202.47 145.483 197.08 145.483Z" fill="#FFEB62"/>
<path d="M195.964 84.4297C211.185 84.4297 223.525 72.1465 223.525 56.9945C223.525 41.8424 211.185 29.5593 195.964 29.5593C180.743 29.5593 168.403 41.8424 168.403 56.9945C168.403 72.1465 180.743 84.4297 195.964 84.4297Z" fill="#1B1D1F"/>
<path d="M195.964 29.1498C190.432 29.1498 185.024 30.7828 180.424 33.8425C175.824 36.9021 172.238 41.2508 170.121 46.3388C168.004 51.4267 167.45 57.0254 168.529 62.4267C169.609 67.828 172.273 72.7895 176.185 76.6837C180.097 80.5778 185.081 83.2298 190.507 84.3041C195.933 85.3785 201.557 84.8271 206.669 82.7196C211.78 80.6121 216.148 77.0432 219.222 72.4642C222.296 67.8851 223.936 62.5016 223.936 56.9945C223.949 53.3342 223.235 49.7074 221.834 46.3232C220.433 42.939 218.373 39.8642 215.773 37.2759C213.173 34.6877 210.084 32.6372 206.684 31.2425C203.284 29.8478 199.641 29.1366 195.964 29.1498ZM195.964 84.0202C190.594 84.0202 185.345 82.4352 180.881 79.4656C176.416 76.4959 172.936 72.2751 170.881 67.3368C168.826 62.3985 168.289 56.9645 169.336 51.722C170.384 46.4795 172.97 41.664 176.767 37.8844C180.563 34.1048 185.401 31.5308 190.668 30.488C195.934 29.4452 201.393 29.9804 206.354 32.026C211.315 34.0715 215.555 37.5354 218.538 41.9798C221.521 46.4241 223.113 51.6493 223.113 56.9945C223.127 60.5474 222.435 64.0679 221.075 67.3531C219.716 70.6382 217.716 73.623 215.192 76.1353C212.669 78.6477 209.67 80.6378 206.37 81.9911C203.07 83.3444 199.533 84.034 195.964 84.0202Z" fill="#2F2E41"/>
<path d="M171.778 63.5655C171.652 63.5653 171.529 63.5218 171.432 63.4424C171.334 63.363 171.267 63.2524 171.241 63.1294C170.453 59.1319 170.595 55.0079 171.657 51.0738C172.719 47.1396 174.673 43.5001 177.368 40.4345C177.465 40.3269 177.6 40.262 177.745 40.2539C177.89 40.2458 178.033 40.2953 178.141 40.3914C178.249 40.4875 178.315 40.6225 178.324 40.7668C178.332 40.911 178.283 41.0528 178.187 41.1609C175.604 44.0987 173.732 47.5865 172.714 51.3566C171.696 55.1266 171.56 59.0787 172.316 62.9094C172.332 62.9888 172.33 63.0708 172.311 63.1495C172.291 63.2282 172.255 63.3016 172.203 63.3644C172.152 63.4272 172.087 63.4779 172.013 63.5126C171.94 63.5474 171.859 63.5655 171.778 63.5655Z" fill="#2F2E41"/>
<path d="M195.947 82.4833C205.621 82.4833 213.464 74.6762 213.464 65.0457C213.464 55.4151 205.621 47.6081 195.947 47.6081C186.272 47.6081 178.43 55.4151 178.43 65.0457C178.43 74.6762 186.272 82.4833 195.947 82.4833Z" fill="#FFEB62"/>
<path d="M190.379 71.6291C189.244 71.5977 187.831 71.5584 186.742 70.7668C186.418 70.5213 186.151 70.2083 185.962 69.8497C185.772 69.491 185.663 69.0953 185.643 68.6904C185.623 68.4026 185.671 68.1142 185.781 67.8477C185.892 67.5812 186.064 67.3438 186.282 67.1541C186.851 66.6758 187.681 66.5636 188.576 66.8254L187.649 60.0809L188.329 59.9881L189.419 67.9171L188.851 67.6575C188.192 67.3566 187.287 67.2035 186.725 67.6763C186.587 67.8 186.48 67.9536 186.411 68.1253C186.342 68.297 186.314 68.4821 186.329 68.6664C186.346 68.9677 186.428 69.262 186.569 69.5291C186.71 69.7963 186.907 70.03 187.147 70.2145C187.995 70.8305 189.121 70.91 190.399 70.9455L190.379 71.6291Z" fill="#2F2E41"/>
<path d="M184.283 60.6626H180.583V61.3464H184.283V60.6626Z" fill="#2F2E41"/>
<path d="M195.961 60.6626H192.261V61.3464H195.961V60.6626Z" fill="#2F2E41"/>
<path d="M196.683 86.7938H180.804C180.212 86.7943 179.645 87.0286 179.226 87.4452C178.808 87.8618 178.573 88.4267 178.572 89.0159V124.048C178.574 126.422 179.228 128.751 180.463 130.781C181.699 132.812 183.469 134.467 185.582 135.568C186.231 134.99 186.872 134.398 187.504 133.794C188.324 133.021 189.127 132.231 189.912 131.422C190.874 130.439 191.811 129.433 192.723 128.405C193.469 127.57 194.194 126.718 194.9 125.85C195.215 125.465 195.526 125.076 195.832 124.682C203.179 115.283 208.329 103.918 209.352 92.158C207.712 90.4605 205.745 89.1104 203.567 88.1886C201.39 87.2668 199.049 86.7924 196.683 86.7938Z" fill="#2F2E41"/>
<path d="M197.261 94.1044C196.883 93.7362 196.436 93.446 195.945 93.2507C195.454 93.0553 194.93 92.9585 194.401 92.966C193.482 92.9729 192.594 93.2971 191.889 93.8833C191.776 93.9741 191.669 94.0716 191.568 94.1754L178.572 107.443L169.147 117.065C169.003 117.209 168.885 117.375 168.796 117.557C168.654 117.838 168.582 118.149 168.584 118.463C168.587 118.722 168.641 118.977 168.744 119.215C168.847 119.452 168.996 119.667 169.182 119.847L169.552 120.207L172.24 122.814L172.243 122.812C172.604 123.103 173.056 123.261 173.521 123.257C173.78 123.254 174.037 123.2 174.276 123.098C174.514 122.996 174.73 122.847 174.911 122.662L175.347 122.219L178.468 119.034L178.572 118.927L197.333 99.7743C198.078 99.0129 198.49 97.9879 198.476 96.9247C198.463 95.8614 198.026 94.847 197.261 94.1044Z" fill="#FFEB62"/>
<path d="M197.129 56.9105C197.709 55.6911 197.115 54.3887 196.097 53.6098C194.815 52.6284 193.157 52.7907 191.698 53.2552C190.102 53.7639 188.541 54.6792 186.816 54.6265C186.201 54.6156 185.604 54.4201 185.103 54.0656C184.601 53.7111 184.219 53.2141 184.007 52.6398C183.083 50.2815 184.126 47.6456 185.734 45.857C186.642 44.8327 187.764 44.0188 189.022 43.4724C190.279 42.926 191.642 42.6604 193.014 42.6942C194.579 42.7715 196.102 43.2333 197.445 44.0384C198.788 44.8435 199.91 45.9668 200.711 47.3083C200.768 47.3999 200.858 47.4663 200.963 47.4936C201.068 47.5209 201.179 47.5072 201.274 47.4553C202.494 46.9121 203.811 46.6152 205.147 46.5817C206.484 46.5482 207.814 46.7789 209.06 47.2602C210.93 48.019 212.524 49.3261 213.63 51.0079C214.736 52.6896 215.302 54.6666 215.253 56.6761C215.239 57.2033 216.062 57.203 216.075 56.6761C216.127 53.8668 215.085 51.1464 213.169 49.0836C212.196 48.0551 211.025 47.2312 209.727 46.6607C208.428 46.0902 207.028 45.7846 205.609 45.762C203.971 45.7273 202.346 46.0645 200.858 46.7481L201.421 46.895C200.68 45.6524 199.684 44.5793 198.498 43.7455C197.312 42.9116 195.963 42.3358 194.538 42.0555C193.128 41.7935 191.677 41.8366 190.285 42.1817C188.893 42.5269 187.591 43.166 186.469 44.0559C184.357 45.7012 182.756 48.2544 182.856 50.9927C182.899 52.1775 183.253 53.3939 184.079 54.2768C185.138 55.4078 186.718 55.6034 188.178 55.3136C190.119 54.9285 191.89 53.6581 193.913 53.6972C194.309 53.6975 194.701 53.7815 195.062 53.9436C195.423 54.1057 195.746 54.3423 196.008 54.6378C196.454 55.1382 196.723 55.8581 196.419 56.4971C196.194 56.971 196.903 57.3871 197.129 56.9105Z" fill="#2F2E41"/>
<path d="M65.8342 155.427C56.0716 155.427 46.9957 155.094 38.8707 154.421C28.2505 153.541 19.8347 152.127 13.8575 150.218C7.52906 148.196 4.17168 145.668 3.87856 142.703C3.30733 136.927 14.6654 131.586 24.2941 128.122L24.5737 128.892C11.351 133.649 4.29207 138.525 4.69725 142.623C5.21332 147.842 17.6939 151.845 38.9388 153.604C60.6927 155.406 89.3207 154.768 119.55 151.806C149.779 148.844 177.983 143.915 198.966 137.925C219.459 132.076 230.916 125.728 230.4 120.509C229.971 116.176 221.294 112.649 205.968 110.578L206.078 109.767C217.215 111.271 230.617 114.342 231.219 120.429C231.512 123.394 228.714 126.525 222.903 129.736C217.414 132.769 209.437 135.789 199.193 138.713C178.163 144.715 149.907 149.654 119.63 152.621C100.637 154.482 82.2671 155.427 65.8342 155.427Z" fill="#FFEB62"/>
<path d="M229.935 123.381C232.583 123.381 234.729 121.244 234.729 118.608C234.729 115.972 232.583 113.836 229.935 113.836C227.287 113.836 225.14 115.972 225.14 118.608C225.14 121.244 227.287 123.381 229.935 123.381Z" fill="#FFEB62"/>
<path d="M90.8973 9.5453C93.5452 9.5453 95.6918 7.40851 95.6918 4.77265C95.6918 2.13679 93.5452 0 90.8973 0C88.2494 0 86.1028 2.13679 86.1028 4.77265C86.1028 7.40851 88.2494 9.5453 90.8973 9.5453Z" fill="#3F3D56"/>
<path d="M5.33568 123.108C7.9836 123.108 10.1302 120.971 10.1302 118.335C10.1302 115.699 7.9836 113.563 5.33568 113.563C2.68776 113.563 0.541199 115.699 0.541199 118.335C0.541199 120.971 2.68776 123.108 5.33568 123.108Z" fill="#3F3D56"/>
<path d="M34.9532 32.5361C36.5741 32.5361 37.8881 31.228 37.8881 29.6145C37.8881 28.0009 36.5741 26.6929 34.9532 26.6929C33.3322 26.6929 32.0182 28.0009 32.0182 29.6145C32.0182 31.228 33.3322 32.5361 34.9532 32.5361Z" fill="#FF6584"/>
<path d="M21.2414 143.369C22.8623 143.369 24.1763 142.061 24.1763 140.447C24.1763 138.834 22.8623 137.526 21.2414 137.526C19.6204 137.526 18.3064 138.834 18.3064 140.447C18.3064 142.061 19.6204 143.369 21.2414 143.369Z" fill="#FF6584"/>
<path d="M221.434 95.5961C223.055 95.5961 224.369 94.2881 224.369 92.6745C224.369 91.061 223.055 89.7529 221.434 89.7529C219.813 89.7529 218.499 91.061 218.499 92.6745C218.499 94.2881 219.813 95.5961 221.434 95.5961Z" fill="#FF6584"/>
<path d="M177.007 168.151C179.655 168.151 181.802 166.014 181.802 163.378C181.802 160.742 179.655 158.606 177.007 158.606C174.359 158.606 172.213 160.742 172.213 163.378C172.213 166.014 174.359 168.151 177.007 168.151Z" fill="#3F3D56"/>
</g>
<defs>
<clipPath id="clip0_249_4528">
<rect width="234.729" height="172" fill="white"/>
</clipPath>
</defs>
</svg>
