<svg width="1056" height="395" viewBox="0 0 1056 395" fill="none" xmlns="http://www.w3.org/2000/svg">
<path d="M843.683 335.237C923.02 335.237 987.336 274.071 987.336 198.619C987.336 123.166 923.02 62 843.683 62C764.347 62 700.031 123.166 700.031 198.619C700.031 274.071 764.347 335.237 843.683 335.237Z" stroke="#AA9330" stroke-width="2" stroke-miterlimit="10"/>
<path d="M848.281 283.322C897.47 283.322 937.346 245.399 937.346 198.619C937.346 151.838 897.47 113.915 848.281 113.915C799.092 113.915 759.217 151.838 759.217 198.619C759.217 245.399 799.092 283.322 848.281 283.322Z" fill="#404054"/>
<path d="M475.36 207.909C475.176 207.81 470.671 205.439 466.166 207.909C463.305 209.483 461.546 212.412 461.569 215.56C457.903 209.898 450.433 200.225 437.436 193.701C421.852 185.875 398.707 182.76 393.766 190.422C389.077 197.69 400.718 214.685 421.347 231.954C415.21 229.44 406.177 226.292 394.915 224.303C383.744 222.336 346.475 216.325 309.873 237.419C279.717 254.796 248.01 291.705 257.009 311.739C265.237 330.057 311.033 342.112 483.405 309.553C482.704 310.876 480.267 315.652 482.255 319.39C484.99 324.538 495.632 326.8 507.538 321.576C522.237 329.237 539.877 336.429 560.402 341.249C644.628 361.009 717.408 326.581 743.128 312.832C763.561 321.434 780.914 326.363 792.544 329.226C824.596 337.106 881.218 351.02 930.45 325.947C937.863 322.166 943.413 318.373 946.539 316.111C972.42 320.1 993.083 317.51 995.956 309.553C999.219 300.525 979.775 284.022 960.33 277.858C947.689 273.847 936.277 274.612 929.301 275.672C934.886 268.742 936.805 263.278 935.047 259.278C930.761 249.528 904.719 248.435 856.9 255.999C855.533 251.474 851.556 240.829 840.811 234.14C825.619 224.675 803.117 226.981 785.649 240.697C785.672 240.074 785.798 230.664 777.604 225.396C771.513 221.472 763.343 221.461 756.918 225.396C761.883 222.063 783.201 207.275 779.903 195.886C776.202 183.099 743.668 182.137 728.188 181.678C708.594 181.099 678.473 183.011 641.997 196.979C650.869 188.87 651.547 177.219 646.593 171.842C640.985 165.754 626.045 165.426 616.714 176.213C615.358 170.29 605.635 130.124 577.64 121.566C546.301 111.981 494.885 142.824 475.36 207.909Z" fill="#282833"/>
<path d="M896.722 168.551C901.66 158.42 893.993 145.062 879.597 138.715C865.201 132.369 849.528 135.437 844.59 145.568C839.652 155.7 847.319 169.058 861.715 175.404C876.11 181.751 891.784 178.682 896.722 168.551Z" fill="#353544"/>
<path d="M896.504 208.841C899.972 201.727 896.738 193.295 889.28 190.007C881.823 186.72 872.967 189.822 869.5 196.936C866.033 204.049 869.267 212.481 876.724 215.769C884.181 219.056 893.037 215.954 896.504 208.841Z" fill="#353544"/>
<path d="M815.084 201.6C817.132 197.4 815.22 192.421 810.815 190.479C806.41 188.537 801.179 190.367 799.132 194.568C797.084 198.768 798.996 203.748 803.401 205.69C807.806 207.632 813.037 205.801 815.084 201.6Z" fill="#353544"/>
<path d="M988.485 211.188C997.054 211.188 1004 204.582 1004 196.433C1004 188.284 997.054 181.678 988.485 181.678C979.917 181.678 972.971 188.284 972.971 196.433C972.971 204.582 979.917 211.188 988.485 211.188Z" fill="#AA9330"/>
<path d="M743.128 107.357C746.936 107.357 750.023 104.421 750.023 100.8C750.023 97.178 746.936 94.2421 743.128 94.2421C739.32 94.2421 736.232 97.178 736.232 100.8C736.232 104.421 739.32 107.357 743.128 107.357Z" fill="#AA9330"/>
<path d="M717.27 149.982C725.204 149.982 731.636 143.866 731.636 136.321C731.636 128.775 725.204 122.659 717.27 122.659C709.337 122.659 702.905 128.775 702.905 136.321C702.905 143.866 709.337 149.982 717.27 149.982Z" fill="#AA9330"/>
<path d="M930.45 98.6138C935.527 98.6138 939.643 94.6991 939.643 89.8702C939.643 85.0412 935.527 81.1266 930.45 81.1266C925.372 81.1266 921.256 85.0412 921.256 89.8702C921.256 94.6991 925.372 98.6138 930.45 98.6138Z" fill="#AA9330"/>
<path d="M88.648 272.393C110.545 272.393 128.296 255.511 128.296 234.686C128.296 213.861 110.545 196.979 88.648 196.979C66.751 196.979 49 213.861 49 234.686C49 255.511 66.751 272.393 88.648 272.393Z" fill="#282833"/>
<path d="M103.013 368.693C100.508 368.616 97.4741 368.343 94.0954 367.633C91.1764 367.02 88.6481 366.212 86.522 365.403C83.2812 357.621 82.3159 343.97 82.4768 340.407C82.3619 344.036 81.9137 348.44 80.7759 353.348C79.6842 358.036 78.2247 362.037 76.7767 365.294C74.823 366.004 72.559 366.682 70.0078 367.228C66.6291 367.939 63.5836 368.212 61.0898 368.288C63.3308 368.201 71.4098 368.693 76.8801 370.332C78.2821 373.556 79.7072 377.48 80.7759 382.059C81.9137 386.967 82.3619 391.371 82.4768 395C82.3274 391.601 83.2008 379.01 86.0968 371.108C91.4981 369.184 100.611 368.605 103.013 368.693Z" fill="#C9B243"/>
<path opacity="0.37" d="M993.463 94.3731C992.003 94.3293 990.233 94.1654 988.257 93.7501C986.556 93.3894 985.073 92.9194 983.832 92.4495C981.936 87.9028 981.373 79.9243 981.465 77.8477C981.396 79.968 981.143 82.5364 980.477 85.4109C979.844 88.1432 978.983 90.4822 978.144 92.3948C977.006 92.8101 975.684 93.2036 974.19 93.5206C972.214 93.9359 970.444 94.0998 968.984 94.1435C970.294 94.0889 975.018 94.384 978.213 95.3349C979.04 97.2147 979.867 99.5099 980.488 102.188C981.155 105.051 981.407 107.631 981.476 109.751C981.384 107.762 981.902 100.406 983.591 95.7939C986.751 94.6682 992.072 94.3293 993.474 94.384L993.463 94.3731Z" fill="#575859"/>
<path opacity="0.37" d="M182.113 218.969C180.654 218.926 178.884 218.762 176.907 218.347C175.206 217.986 173.724 217.516 172.483 217.046C170.586 212.499 170.023 204.521 170.115 202.444C170.046 204.564 169.793 207.133 169.127 210.007C168.495 212.74 167.633 215.079 166.794 216.991C165.656 217.407 164.335 217.8 162.841 218.117C160.864 218.532 159.094 218.696 157.635 218.74C158.945 218.685 163.668 218.98 166.863 219.931C167.69 221.811 168.518 224.106 169.138 226.784C169.805 229.648 170.058 232.227 170.127 234.347C170.035 232.358 170.552 225.003 172.241 220.39C175.402 219.265 180.723 218.926 182.125 218.98L182.113 218.969Z" fill="#575859"/>
<path opacity="0.37" d="M467.12 341.38C465.66 341.336 463.891 341.172 461.914 340.757C460.213 340.396 458.731 339.926 457.49 339.456C455.593 334.91 455.03 326.931 455.122 324.854C455.053 326.975 454.8 329.543 454.134 332.418C453.502 335.15 452.64 337.489 451.801 339.402C450.663 339.817 449.342 340.21 447.848 340.527C445.871 340.943 444.101 341.107 442.642 341.15C443.952 341.096 448.675 341.391 451.87 342.342C452.697 344.221 453.525 346.517 454.145 349.194C454.812 352.058 455.065 354.637 455.134 356.758C455.042 354.768 455.559 347.413 457.248 342.801C460.408 341.675 465.729 341.336 467.131 341.391L467.12 341.38Z" fill="#575859"/>
<path opacity="0.37" d="M960.33 338.374C958.583 338.32 956.469 338.134 954.101 337.631C952.067 337.205 950.297 336.637 948.815 336.079C946.551 330.647 945.873 321.106 945.988 318.625C945.907 321.16 945.597 324.232 944.804 327.663C944.045 330.931 943.023 333.729 942.011 336.014C940.655 336.505 939.069 336.986 937.277 337.358C934.909 337.85 932.795 338.046 931.048 338.101C932.622 338.036 938.265 338.385 942.08 339.522C943.069 341.773 944.057 344.517 944.804 347.719C945.597 351.151 945.907 354.222 945.988 356.758C945.884 354.386 946.493 345.588 948.516 340.068C952.297 338.724 958.652 338.32 960.33 338.385V338.374Z" fill="#575859"/>
<path opacity="0.37" d="M686.816 121.402C683.564 121.303 679.61 120.954 675.209 120.025C671.416 119.227 668.118 118.178 665.36 117.128C661.142 107.008 659.878 89.2254 660.085 84.6022C659.936 89.3237 659.361 95.0508 657.867 101.445C656.454 107.543 654.546 112.757 652.673 116.997C650.133 117.915 647.191 118.812 643.858 119.511C639.457 120.44 635.503 120.79 632.251 120.888C635.17 120.768 645.685 121.424 652.799 123.544C654.626 127.73 656.488 132.845 657.867 138.813C659.35 145.206 659.924 150.933 660.085 155.655C659.89 151.228 661.027 134.845 664.797 124.55C671.83 122.036 683.678 121.282 686.816 121.413V121.402Z" fill="#575859"/>
<path d="M495.092 226.773C497.54 213.592 502.976 201.001 510.951 189.973C518.927 178.946 529.58 168.311 542.934 163.885C556.288 159.458 570.446 162.759 581.64 170.093C592.833 177.426 601.084 189.766 605.831 202.258C610.577 214.751 613.795 229.309 607.29 242.053C601.946 252.545 591.58 260.786 579.456 263.07C567.332 265.354 554.472 261.529 545.382 253.835C536.292 246.14 531.603 233.954 533.108 222.062C534.614 210.171 542.107 198.706 553.863 193.526C559.908 190.859 566.964 189.973 573.342 192.039C579.721 194.105 584.375 198.706 587.731 203.941C589.431 206.597 590.787 209.428 591.891 212.357C592.258 213.341 593.925 212.914 593.557 211.92C591.282 205.876 587.914 200.018 582.881 195.657C577.847 191.296 571.423 188.957 564.631 189.274C551.071 189.908 539.601 199.274 534.487 210.86C529.5 222.139 529.913 235.659 536.556 246.26C543.198 256.862 555.15 263.649 567.803 265.081C580.456 266.513 593.408 261.529 602.05 252.392C606.348 247.845 609.612 242.402 611.37 236.522C613.427 229.637 613.071 222.434 611.588 215.472C608.623 201.548 602.464 187.558 592.373 176.924C582.881 166.923 569.194 160.07 554.828 160.256C540.463 160.442 527.19 169.251 517.49 179.503C507.791 189.755 500.103 202.717 495.92 216.314C494.908 219.603 494.092 222.959 493.46 226.336C493.265 227.363 494.931 227.811 495.127 226.773H495.092Z" fill="#353544"/>
<path d="M518.995 225.145C519.317 247.321 528.626 270.426 549.886 281.661C555.287 284.514 561.183 286.372 567.32 287.06C568.423 287.181 568.412 285.541 567.32 285.421C556.69 284.23 546.875 279.158 539.325 272.043C531.188 264.382 525.936 254.425 523.178 243.922C521.569 237.779 520.811 231.473 520.719 225.145C520.708 224.096 518.984 224.085 518.995 225.145Z" fill="#353544"/>
<path d="M582.456 288.022C596.914 288.678 611.371 284.131 622.748 275.65C634.125 267.169 642.02 254.195 644.411 240.38C645.744 232.664 645.445 224.762 643.445 217.166C643.181 216.139 641.515 216.576 641.779 217.603C645.273 230.872 643.353 245.255 636.63 257.332C629.908 269.409 618.772 278.317 605.533 282.962C598.155 285.552 590.317 286.743 582.456 286.383C581.353 286.328 581.353 287.967 582.456 288.022Z" fill="#353544"/>
<path d="M300.184 276.021C316.584 257.332 338.706 242.293 363.92 236.806C375.745 234.238 388.008 233.921 399.879 236.358C411.118 238.664 421.852 243.2 431.069 249.747C441.423 257.102 449.675 267.125 453.904 278.787C454.26 279.781 455.926 279.355 455.57 278.349C447.813 256.993 427.564 241.856 405.108 235.899C380.354 229.331 354.163 234.905 332.454 247.31C319.733 254.578 308.459 264.043 298.955 274.863C298.254 275.672 299.46 276.83 300.173 276.021H300.184Z" fill="#353544"/>
<path d="M315.044 305.706C309.413 305.553 303.403 303.312 302.667 297.312C302.035 292.175 304.506 286.612 306.896 282.131C311.792 272.983 319.572 265.485 328.226 259.485C333.179 256.053 338.465 253.069 343.912 250.414C344.901 249.933 344.027 248.523 343.039 248.993C332.535 254.108 322.491 260.512 314.527 268.884C310.62 272.994 307.229 277.573 304.736 282.59C302.368 287.344 300.058 293.039 301.093 298.372C302.322 304.722 308.93 307.181 315.033 307.345C316.147 307.378 316.136 305.739 315.033 305.706H315.044Z" fill="#353544"/>
<path d="M365.092 245.025L373.413 242.424C374.458 242.096 374.01 240.512 372.953 240.839L364.633 243.441C363.587 243.769 364.035 245.353 365.092 245.025Z" fill="#353544"/>
<path d="M341.763 272.404C350.14 265.485 360.058 260.327 370.711 257.387C376.423 255.813 382.457 254.654 388.421 255.113C393.868 255.529 399.051 257.627 403.062 261.168C407.073 264.709 410.762 270.076 408.383 275.224C406.521 279.257 401.901 281.639 397.868 283.355C387.203 287.902 375.366 291.257 363.575 290.383C360.392 290.142 357.231 289.585 354.186 288.667C352.703 288.219 351.244 287.694 349.842 287.071C348.727 286.568 345.727 285.596 345.636 284.208C345.544 282.896 347.359 281.289 348.198 280.382C349.175 279.344 350.209 278.36 351.324 277.453C353.669 275.53 356.312 273.989 359.116 272.775C360.127 272.338 359.254 270.928 358.242 271.355C353.059 273.584 347.957 277.202 344.82 281.792C344.222 282.667 343.705 283.76 343.969 284.831C344.257 286 345.337 286.634 346.36 287.202C349.026 288.678 351.922 289.793 354.887 290.59C367.655 294.022 381.066 291.399 393.167 286.962C398.132 285.148 403.51 283.202 407.303 279.508C411.325 275.584 411.704 270.349 408.934 265.617C406.165 260.884 401.671 257.343 396.569 255.31C390.593 252.938 384.019 253.07 377.745 254.13C364 256.458 351.037 262.567 340.522 271.256C339.683 271.945 340.901 273.103 341.74 272.415L341.763 272.404Z" fill="#353544"/>
<path d="M376.182 267.999C381.813 266.983 387.605 267.3 393.087 268.885C394.156 269.191 394.604 267.606 393.547 267.3C387.766 265.628 381.664 265.343 375.734 266.414C374.642 266.611 375.102 268.196 376.193 267.999H376.182Z" fill="#353544"/>
<path d="M457.075 244.435C462.867 239.222 472.05 241.659 478.106 245.08C484.576 248.731 489.713 254.381 492.782 260.906C494.528 264.622 495.551 268.622 495.781 272.688C495.839 273.737 497.562 273.748 497.505 272.688C497.057 264.95 493.885 257.551 488.69 251.594C483.496 245.637 476.152 240.894 468.05 239.976C463.649 239.473 459.133 240.337 455.846 243.288C455.041 244.009 456.259 245.168 457.064 244.446L457.075 244.435Z" fill="#353544"/>
<path d="M481.474 261.999C486.209 267.169 489.082 273.748 489.576 280.59C489.657 281.639 491.38 281.65 491.3 280.59C490.771 273.289 487.749 266.349 482.692 260.829C481.957 260.032 480.75 261.201 481.474 261.988V261.999Z" fill="#353544"/>
<path d="M660.821 220.117C671.739 211.45 686.368 207.614 700.458 208.969C714.547 210.324 732.13 217.44 733.463 232.61C734.164 240.621 729.682 248.348 722.35 252.283C721.385 252.796 722.247 254.217 723.224 253.704C729.797 250.173 734.371 243.703 735.153 236.544C735.992 228.806 732.326 221.232 725.936 216.478C713.938 207.548 696.999 205.286 682.404 208.368C674.049 210.139 666.188 213.734 659.615 218.959C658.764 219.636 659.982 220.795 660.833 220.117H660.821Z" fill="#353544"/>
<path d="M715.603 235.67C720.039 239.145 717.867 244.916 715.27 248.763C712.673 252.61 709.535 255.747 705.904 258.49C698.583 264.01 689.458 267.278 680.127 267.606C679.023 267.649 679.012 269.289 680.127 269.245C688.16 268.961 696.009 266.611 702.812 262.556C709.363 258.644 715.856 252.785 718.844 245.867C720.476 242.085 720.372 237.298 716.821 234.511C715.971 233.844 714.741 235.003 715.603 235.67Z" fill="#353544"/>
<path d="M611.106 312.963C621.402 317.171 632.722 317.674 643.743 316.592C654.155 315.575 664.498 313.455 674.519 310.602C694.263 304.985 713.007 296.175 729.705 284.688C739.094 278.229 747.839 270.939 755.769 262.895C756.528 262.13 755.309 260.961 754.551 261.737C740.749 275.726 724.499 287.432 706.64 296.361C688.781 305.291 669.336 311.455 649.363 314.275C636.94 316.023 623.724 316.34 611.979 311.542C610.968 311.127 610.094 312.537 611.106 312.963Z" fill="#353544"/>
<path d="M743.151 287.53C755.988 278.677 768.215 269.048 779.73 258.687C780.535 257.966 779.317 256.807 778.512 257.529C767.101 267.791 754.999 277.344 742.277 286.109C741.393 286.721 742.243 288.142 743.151 287.53Z" fill="#353544"/>
<path d="M790.084 265.901C795.037 260.502 801.852 256.829 809.299 255.671C816.746 254.512 824.572 256.086 830.996 259.813C834.248 261.704 837.443 264.196 839.385 267.365C841.477 270.797 841.776 274.863 841.753 278.743C841.73 282.404 841.661 286.262 840.167 289.694C838.673 293.126 835.627 295.498 832.409 297.443C824.56 302.198 815.527 305.05 806.253 305.804C805.161 305.892 805.15 307.531 806.253 307.444C815.068 306.733 823.675 304.22 831.329 299.99C834.754 298.099 838.213 295.891 840.442 292.7C842.672 289.509 843.247 285.366 843.407 281.519C843.568 277.672 843.614 273.311 842.247 269.475C840.879 265.639 838.213 262.862 835.018 260.48C828.674 255.769 820.538 253.288 812.493 253.703C803.438 254.163 794.807 258.25 788.854 264.731C788.13 265.518 789.337 266.688 790.072 265.89L790.084 265.901Z" fill="#353544"/>
<path d="M824.953 286.175C822.758 292.908 816.276 297.115 809.691 299.629C801.865 302.613 792.614 304.504 784.247 302.821C779.639 301.892 775.364 299.848 772.134 296.547C771.376 295.771 770.158 296.93 770.916 297.706C777.271 304.22 787.017 305.804 795.935 304.701C804.083 303.695 812.794 301.225 819.333 296.329C822.712 293.804 825.332 290.547 826.607 286.623C826.941 285.618 825.274 285.18 824.941 286.186L824.953 286.175Z" fill="#353544"/>
<path d="M863.934 277.431C868.289 272.568 874.794 269.967 881.448 269.671C888.55 269.365 895.457 271.748 901.341 275.409C907.225 279.071 913.005 284.142 915.671 290.405C918.338 296.667 916.579 303.597 911.982 308.723C906.397 314.931 897.939 317.63 889.756 319.149C888.665 319.346 889.124 320.931 890.216 320.734C898.019 319.291 906.041 316.767 911.81 311.313C916.947 306.46 919.946 299.498 918.234 292.634C916.522 285.771 910.741 280.022 904.903 275.814C899.065 271.606 891.653 268.371 884.033 268.043C876.414 267.715 867.921 270.469 862.715 276.284C862.003 277.082 863.21 278.251 863.934 277.442V277.431Z" fill="#353544"/>
<path d="M890.699 299.607C894.687 303.127 893.377 309.367 890.021 312.865C885.803 317.269 879.011 318.384 873.139 319.291C872.047 319.455 872.507 321.04 873.599 320.876C880.103 319.871 887.7 318.472 891.975 313.193C895.353 309.018 896.319 302.329 891.929 298.449C891.113 297.728 889.894 298.886 890.71 299.607H890.699Z" fill="#353544"/>
<path d="M940.643 292.678C947.263 292.219 953.882 295.301 957.479 300.624C958.077 301.509 959.571 300.689 958.973 299.793C955.066 294.011 947.872 290.536 940.655 291.039C939.551 291.115 939.551 292.754 940.655 292.678H940.643Z" fill="#353544"/>
<path d="M628.573 298.864C636.526 300.394 644.662 300.504 652.661 299.17C653.753 298.984 653.293 297.41 652.201 297.585C644.536 298.853 636.664 298.744 629.033 297.279C627.953 297.072 627.481 298.646 628.573 298.864Z" fill="#353544"/>
<path d="M522.19 286.918C526.982 294.689 533.039 301.728 540.106 307.728C540.934 308.427 542.152 307.269 541.325 306.569C534.36 300.656 528.407 293.749 523.684 286.087C523.121 285.18 521.627 286 522.19 286.918Z" fill="#353544"/>
<path d="M537.785 295.902C548.059 310.209 564.987 319.608 583.134 321.106C584.237 321.193 584.237 319.554 583.134 319.466C565.631 318.024 549.174 308.876 539.268 295.083C538.647 294.219 537.153 295.039 537.774 295.913L537.785 295.902Z" fill="#353544"/>
<path d="M665.452 206.499C684.805 195.296 707.835 188.378 730.544 192.793C736.784 194.006 742.806 196.05 748.391 198.968C749.368 199.482 750.23 198.061 749.265 197.548C728.625 186.76 703.721 188.203 682.438 196.455C676.243 198.848 670.302 201.766 664.602 205.078C663.659 205.625 664.521 207.045 665.475 206.499H665.452Z" fill="#353544"/>
<path d="M736.956 201.69C742.081 202.171 747.012 204.171 750.953 207.33C751.792 208.007 753.022 206.849 752.172 206.171C747.862 202.706 742.576 200.586 736.956 200.051C735.853 199.941 735.864 201.592 736.956 201.69Z" fill="#353544"/>
</svg>
