<svg width="1045" height="567" viewBox="0 0 1045 567" fill="none" xmlns="http://www.w3.org/2000/svg">
<g clip-path="url(#clip0_4179_11799)">
<path d="M418.997 175.603C430.654 171.61 441.315 168.555 448.834 166.924C448.698 166.374 448.555 165.817 448.4 165.267C439.767 166.956 429.223 169.817 418.032 173.655C406.303 177.674 395.798 182.094 387.793 186.21C387.948 186.779 388.13 187.342 388.331 187.912C395.215 184.462 406.296 179.958 419.003 175.603H418.997Z" fill="#333333"/>
<path d="M418.251 209.34C434.097 209.34 446.942 196.504 446.942 180.67C446.942 164.836 434.097 152 418.251 152C402.406 152 389.561 164.836 389.561 180.67C389.561 196.504 402.406 209.34 418.251 209.34Z" fill="#22222B"/>
<path d="M469.96 165.649C468.988 162.814 460.601 162.873 448.393 165.267C448.549 165.817 448.691 166.374 448.827 166.924C455.362 165.507 459.52 165.17 459.882 166.231C460.666 168.522 443.633 176.431 421.84 183.893C400.04 191.361 381.737 195.555 380.954 193.264C380.623 192.306 383.402 190.378 388.324 187.905C388.123 187.336 387.942 186.773 387.786 186.203C377.34 191.575 371.155 196.422 372.094 199.166C373.752 204.001 397.009 200.422 424.029 191.167C451.055 181.913 471.618 170.483 469.96 165.649Z" fill="#333333"/>
<g opacity="0.53">
<path opacity="0.68" d="M862.645 267.113C930.38 267.113 985.29 212.242 985.29 144.556C985.29 76.8703 930.38 22 862.645 22C794.91 22 740 76.8703 740 144.556C740 212.242 794.91 267.113 862.645 267.113Z" fill="#2B2B3A"/>
<path opacity="0.68" d="M842.543 101.339C867.735 93.0523 883.658 72.6724 878.106 55.8193C872.554 38.9662 847.631 32.0217 822.439 40.3084C797.246 48.5951 781.324 68.9749 786.875 85.828C792.427 102.681 817.35 109.626 842.543 101.339Z" fill="black"/>
<path d="M774.138 137.813C781.152 137.813 786.838 132.131 786.838 125.121C786.838 118.112 781.152 112.43 774.138 112.43C767.124 112.43 761.438 118.112 761.438 125.121C761.438 132.131 767.124 137.813 774.138 137.813Z" fill="#22222B"/>
<path d="M896.381 246.487C907.341 246.487 916.225 237.609 916.225 226.657C916.225 215.706 907.341 206.828 896.381 206.828C885.422 206.828 876.537 215.706 876.537 226.657C876.537 237.609 885.422 246.487 896.381 246.487Z" fill="#22222B"/>
</g>
<path d="M871.494 388.071H870.089V503.554H871.494V388.071Z" fill="#72611A"/>
<path opacity="0.38" d="M607.52 190.999C604.275 190.895 600.331 190.526 595.94 189.556C592.158 188.721 588.868 187.621 586.115 186.514C581.912 175.907 580.649 157.274 580.856 152.42C580.701 157.365 580.131 163.377 578.648 170.069C577.236 176.457 575.332 181.919 573.46 186.365C570.928 187.329 567.987 188.261 564.665 188.999C560.274 189.97 556.33 190.345 553.085 190.442C555.999 190.319 566.491 190.999 573.583 193.225C575.409 197.619 577.262 202.978 578.641 209.223C580.124 215.922 580.694 221.928 580.85 226.872C580.655 222.238 581.789 205.056 585.545 194.274C592.566 191.646 604.385 190.856 607.507 190.986L607.52 190.999Z" fill="#C9B243"/>
<path opacity="0.64" d="M1009.75 389.579C1007.2 389.502 1004.09 389.204 1000.64 388.44C997.663 387.78 995.079 386.919 992.916 386.052C989.613 377.71 988.622 363.051 988.784 359.233C988.661 363.123 988.214 367.847 987.048 373.115C985.934 378.144 984.438 382.434 982.968 385.936C980.98 386.693 978.661 387.431 976.051 388.007C972.593 388.77 969.497 389.068 966.945 389.146C969.238 389.049 977.489 389.586 983.065 391.34C984.503 394.796 985.954 399.009 987.042 403.921C988.208 409.189 988.661 413.913 988.778 417.803C988.622 414.159 989.516 400.646 992.469 392.161C997.987 390.09 1007.29 389.469 1009.74 389.573L1009.75 389.579Z" fill="#C9B243"/>
<path opacity="0.57" d="M520.126 350.748C517.575 350.671 514.472 350.373 511.02 349.609C508.041 348.949 505.457 348.089 503.294 347.221C499.991 338.879 499 324.221 499.162 320.402C499.039 324.292 498.592 329.016 497.426 334.284C496.312 339.313 494.816 343.604 493.346 347.105C491.358 347.862 489.039 348.6 486.429 349.176C482.971 349.939 479.875 350.237 477.323 350.315C479.616 350.218 487.867 350.755 493.443 352.509C494.881 355.965 496.332 360.178 497.42 365.09C498.586 370.358 499.039 375.082 499.155 378.972C499 375.328 499.894 361.815 502.847 353.331C508.365 351.26 517.665 350.638 520.12 350.742L520.126 350.748Z" fill="#808080"/>
<path opacity="0.57" d="M149.58 273.851C148.382 273.812 146.931 273.676 145.312 273.32C143.92 273.009 142.709 272.608 141.692 272.2C140.144 268.291 139.678 261.431 139.755 259.639C139.697 261.464 139.49 263.677 138.939 266.143C138.421 268.498 137.715 270.511 137.029 272.149C136.096 272.505 135.015 272.848 133.79 273.119C132.171 273.475 130.721 273.618 129.522 273.65C130.598 273.605 134.458 273.857 137.074 274.679C137.748 276.297 138.428 278.271 138.939 280.575C139.483 283.041 139.697 285.254 139.755 287.079C139.684 285.37 140.099 279.041 141.485 275.074C144.069 274.103 148.427 273.812 149.574 273.864L149.58 273.851Z" fill="#808080"/>
<path opacity="0.57" d="M802.41 278.381C801.212 278.342 799.761 278.206 798.142 277.85C796.75 277.54 795.539 277.138 794.522 276.731C792.974 272.822 792.508 265.962 792.585 264.169C792.527 265.994 792.32 268.207 791.769 270.673C791.251 273.029 790.545 275.041 789.859 276.679C788.926 277.035 787.845 277.378 786.621 277.65C785.001 278.006 783.551 278.148 782.353 278.18C783.428 278.135 787.288 278.387 789.904 279.209C790.578 280.827 791.258 282.801 791.769 285.105C792.313 287.571 792.527 289.784 792.585 291.609C792.514 289.901 792.929 283.571 794.315 279.604C796.899 278.633 801.257 278.342 802.404 278.394L802.41 278.381Z" fill="#808080"/>
<path opacity="0.57" d="M658.632 107.526C657.434 107.487 655.983 107.351 654.364 106.995C652.971 106.684 651.76 106.283 650.744 105.875C649.196 101.966 648.729 95.1063 648.807 93.3136C648.749 95.1386 648.542 97.352 647.991 99.8177C647.473 102.173 646.767 104.186 646.08 105.824C645.148 106.18 644.066 106.523 642.842 106.794C641.223 107.15 639.772 107.293 638.574 107.325C639.649 107.28 643.509 107.532 646.126 108.354C646.799 109.972 647.479 111.946 647.991 114.25C648.535 116.716 648.749 118.929 648.807 120.754C648.736 119.045 649.15 112.716 650.536 108.749C653.12 107.778 657.479 107.487 658.625 107.539L658.632 107.526Z" fill="#808080"/>
<path opacity="0.64" d="M516.149 418.819C514.951 418.78 513.501 418.644 511.881 418.288C510.489 417.977 509.278 417.576 508.261 417.168C506.713 413.259 506.247 406.399 506.325 404.607C506.266 406.432 506.059 408.645 505.509 411.111C504.991 413.467 504.285 415.479 503.598 417.117C502.665 417.473 501.584 417.816 500.36 418.087C498.741 418.443 497.29 418.586 496.092 418.618C497.167 418.573 501.027 418.825 503.643 419.647C504.317 421.265 504.997 423.239 505.509 425.543C506.053 428.009 506.266 430.222 506.325 432.047C506.253 430.339 506.668 424.009 508.054 420.042C510.638 419.071 514.997 418.78 516.143 418.832L516.149 418.819Z" fill="#C9B243"/>
<path opacity="0.26" d="M228.515 135.917C226.67 135.859 224.422 135.646 221.922 135.095C219.766 134.617 217.894 133.995 216.327 133.368C213.937 127.329 213.218 116.722 213.334 113.959C213.25 116.774 212.92 120.197 212.078 124.009C211.275 127.646 210.187 130.753 209.125 133.29C207.687 133.84 206.01 134.371 204.118 134.791C201.619 135.341 199.371 135.555 197.525 135.613C199.183 135.542 205.155 135.93 209.196 137.199C210.239 139.697 211.288 142.752 212.078 146.305C212.92 150.117 213.25 153.534 213.334 156.355C213.224 153.715 213.872 143.936 216.009 137.801C220.005 136.306 226.734 135.853 228.515 135.93V135.917Z" fill="#808080"/>
<path opacity="0.64" d="M75.0232 157.274C73.1774 157.216 70.93 157.003 68.4301 156.452C66.2735 155.973 64.4017 155.352 62.8344 154.724C60.4446 148.686 59.7257 138.079 59.8423 135.316C59.7581 138.131 59.4278 141.554 58.5859 145.366C57.7828 149.003 56.6947 152.11 55.6326 154.647C54.1948 155.197 52.5174 155.728 50.6263 156.148C48.1263 156.698 45.879 156.912 44.0332 156.97C45.6912 156.899 51.6625 157.287 55.7038 158.556C56.7465 161.054 57.7957 164.109 58.5859 167.662C59.4278 171.473 59.7581 174.891 59.8423 177.712C59.7322 175.072 60.3798 165.293 62.5171 159.158C66.5131 157.663 73.2421 157.21 75.0232 157.287V157.274Z" fill="#C9B243"/>
<path opacity="0.22" d="M188.776 322.091C186.807 322.033 184.417 321.8 181.756 321.211C179.463 320.706 177.468 320.04 175.797 319.367C173.245 312.934 172.488 301.634 172.611 298.689C172.52 301.686 172.17 305.329 171.27 309.394C170.415 313.27 169.256 316.577 168.129 319.276C166.594 319.859 164.813 320.428 162.799 320.875C160.137 321.464 157.747 321.69 155.778 321.755C157.546 321.677 163.906 322.091 168.207 323.444C169.314 326.11 170.435 329.359 171.277 333.145C172.177 337.203 172.52 340.847 172.617 343.85C172.501 341.041 173.187 330.621 175.467 324.085C179.722 322.493 186.891 322.014 188.782 322.091H188.776Z" fill="#808080"/>
<path opacity="0.25" d="M1009.01 23.4765C1007.12 23.4183 1004.83 23.1982 1002.26 22.6352C1000.06 22.1498 998.142 21.5091 996.536 20.8619C994.087 14.6814 993.356 3.82817 993.472 1C993.382 3.87995 993.051 7.38119 992.183 11.2837C991.361 15.005 990.253 18.1891 989.165 20.7778C987.689 21.3408 985.979 21.8845 984.042 22.3116C981.484 22.8747 979.185 23.0947 977.294 23.1529C978.991 23.0817 985.105 23.4765 989.237 24.7774C990.299 27.3337 991.38 30.4596 992.183 34.0967C993.045 37.9992 993.382 41.5005 993.472 44.3804C993.356 41.6817 994.023 31.6698 996.212 25.3922C1000.3 23.8584 1007.19 23.3989 1009.01 23.4765Z" fill="#808080"/>
<path opacity="0.57" d="M52.4334 300.398C49.3052 300.301 45.51 299.938 41.2808 299.007C37.6346 298.198 34.4676 297.143 31.8187 296.081C27.7709 285.862 26.5533 267.916 26.7541 263.237C26.6051 268 26.0546 273.792 24.6298 280.238C23.2697 286.393 21.4369 291.655 19.6364 295.939C17.2013 296.871 14.3646 297.77 11.1652 298.476C6.93606 299.414 3.13436 299.77 0.0126953 299.867C2.82349 299.751 12.9268 300.404 19.7595 302.553C21.5211 306.786 23.3021 311.95 24.6363 317.969C26.0676 324.421 26.6181 330.207 26.7606 334.97C26.5728 330.505 27.6673 313.956 31.2876 303.569C38.0491 301.039 49.4347 300.275 52.4463 300.404L52.4334 300.398Z" fill="#808080"/>
<path d="M523.079 459.274C522.218 444.447 530.424 430.597 543.623 424.469C557.78 417.893 574.943 421.479 585.603 433.393C582.896 423.951 586.646 414.632 593.641 411.079C600.013 407.843 606.755 410.58 607.934 411.079C611.503 404.71 618.089 395.061 629.371 386.978C651.625 371.031 675.937 372.817 682.964 373.587C684.415 371.84 703.197 349.939 729.407 353.059C754.303 356.017 775.526 380.305 775.85 411.072C807.449 398.348 833.899 403.552 840.155 416.424C840.997 418.159 844.371 425.996 836.58 440.525C841.411 434.112 849.818 431.594 857.123 434.28C863.781 436.726 868.379 443.075 868.736 450.343C877.181 433.516 895.25 423.847 913.391 426.242C933.073 428.844 948.811 445.114 950.903 465.513C953.72 463.306 968.027 452.55 986.627 455.695C1001.32 458.18 1018.28 469.273 1017.89 480.683C1017.31 497.697 978.499 506.207 976.802 506.563C958.921 510.323 943.656 507.301 934.822 504.777C926.92 508.867 916.066 513.294 902.666 515.488C872.052 520.503 847.337 510.751 836.573 505.67C830.609 513.139 824.326 518.219 818.711 521.733C775.876 548.565 718.54 517.967 712.426 514.595C708.572 516.556 701.021 519.759 690.989 519.947C681.073 520.135 673.476 517.281 669.551 515.481C658.742 519.902 645.219 524.108 629.358 526.192C585.934 531.9 550.902 518.303 533.791 510.129C498.346 519.248 470.957 514.608 465.911 502.098C461.766 491.821 472.861 476.625 481.986 469.072C499.013 454.983 519.886 458.64 523.073 459.255L523.079 459.274Z" fill="#22222B"/>
<path opacity="0.66" d="M113.493 174.787C115.676 176.8 117.645 179.718 117.645 179.718C118.726 181.323 119.471 182.773 119.97 183.847C123.959 179.026 127.89 177.382 130.332 176.729C142.255 173.551 158.064 183.582 167.896 202.616C167.326 197.755 169.042 193.07 172.429 190.966C177.377 187.892 186.03 190.229 189.916 198.085C189.385 190.753 193.478 184.152 199.63 181.906C206.418 179.427 212.551 183.394 213.231 183.847C226.56 155.663 251.073 144.959 264.395 151.489C275.217 156.795 277.536 172.943 277.996 176.729C282.549 168.613 293.041 166.736 299.368 171.551C305.469 176.191 306.654 186.261 300.663 192.908C301.596 193.07 303.39 193.51 305.197 194.85C307.062 196.234 308.014 197.878 308.435 198.733C310.372 196.137 314.996 190.792 322.036 189.672C332.865 187.951 345.565 196.849 350.532 212.323C356.679 207.56 364.884 206.809 371.257 210.382C378.828 214.627 380.175 222.944 380.324 223.973C384.683 225.849 385.609 227.066 385.505 227.856C385.091 230.956 368.297 231.072 365.428 231.092C358.019 231.143 351.802 230.477 347.294 229.797C339.665 231.991 329.775 234.004 318.15 234.327C298.526 234.871 282.724 230.334 272.815 226.561C269.881 227.662 251.63 234.399 248.204 229.15C247.53 228.121 247.019 226.005 249.499 221.384C240.063 224.206 231.967 224.827 225.536 224.62C212.311 224.199 206.379 220.31 192.506 219.442C183.122 218.853 174.961 219.954 168.543 221.384C177.559 222.141 184.411 224.697 184.734 227.856C185.117 231.545 176.535 235.505 170.486 236.916C160.759 239.188 152.365 236.094 148.466 234.327C146.387 237.447 142.909 241.621 137.456 244.682C121.815 253.471 104.433 245.025 102.483 244.035C100.696 245.174 96.4535 247.517 90.8255 247.271C80.3595 246.812 74.5565 237.835 73.9866 236.916C61.0595 236.23 50.8396 229.156 49.376 221.384C47.5302 211.573 58.9547 196.94 78.5201 196.144C78.4295 193.29 78.6238 186.009 83.7013 179.964C92.4057 169.603 108.973 170.626 113.493 174.787Z" fill="#22222B"/>
<path opacity="0.5" d="M22.9655 432.364C30.6557 432.364 36.8899 426.135 36.8899 418.45C36.8899 410.765 30.6557 404.536 22.9655 404.536C15.2752 404.536 9.04102 410.765 9.04102 418.45C9.04102 426.135 15.2752 432.364 22.9655 432.364Z" fill="#2B2B3A"/>
<path opacity="0.45" d="M483.294 118.897C486.628 118.897 489.33 116.196 489.33 112.865C489.33 109.534 486.628 106.833 483.294 106.833C479.96 106.833 477.258 109.534 477.258 112.865C477.258 116.196 479.96 118.897 483.294 118.897Z" fill="#2B2B3A"/>
<path d="M282.686 278.012C286.495 278.012 289.583 274.926 289.583 271.12C289.583 267.313 286.495 264.227 282.686 264.227C278.876 264.227 275.788 267.313 275.788 271.12C275.788 274.926 278.876 278.012 282.686 278.012Z" fill="#2B2B3A"/>
<path opacity="0.83" d="M740.56 291.926C747.535 291.926 753.189 286.276 753.189 279.306C753.189 272.337 747.535 266.686 740.56 266.686C733.585 266.686 727.931 272.337 727.931 279.306C727.931 286.276 733.585 291.926 740.56 291.926Z" fill="#2B2B3A"/>
<path opacity="0.45" d="M580.266 420.391C584.38 420.391 587.714 417.059 587.714 412.949C587.714 408.838 584.38 405.506 580.266 405.506C576.153 405.506 572.818 408.838 572.818 412.949C572.818 417.059 576.153 420.391 580.266 420.391Z" fill="#22222B"/>
<path d="M473.405 257.626C481.989 257.626 488.948 250.672 488.948 242.094C488.948 233.515 481.989 226.561 473.405 226.561C464.82 226.561 457.861 233.515 457.861 242.094C457.861 250.672 464.82 257.626 473.405 257.626Z" fill="#22222B"/>
<path d="M168.038 271.217C171.436 271.217 174.191 268.464 174.191 265.068C174.191 261.673 171.436 258.92 168.038 258.92C164.64 258.92 161.886 261.673 161.886 265.068C161.886 268.464 164.64 271.217 168.038 271.217Z" fill="#22222B"/>
<path d="M469.642 417.958C474.596 417.958 478.612 413.945 478.612 408.995C478.612 404.044 474.596 400.031 469.642 400.031C464.688 400.031 460.672 404.044 460.672 408.995C460.672 413.945 464.688 417.958 469.642 417.958Z" fill="#22222B"/>
<path d="M402.572 354.34C408.239 355.356 414.333 356.703 420.751 358.469C425.44 359.764 429.851 361.155 433.97 362.598C436.463 358.062 439.566 351.337 441.405 342.782C441.748 341.19 443.069 334.563 443.037 325.547C428.633 330.233 415.123 338.064 403.297 347.571C403.284 351.04 402.74 353.577 402.565 354.347L402.572 354.34Z" fill="#968127"/>
<path d="M442.687 317.846C441.444 304.216 436.593 287.526 422.403 274.245C399.612 252.914 369.755 256.332 365.384 256.908C369.684 259.684 375.131 264.124 379.431 270.945C392.43 291.583 383.239 315.523 381.912 318.836C384.418 319.554 391.225 321.852 396.633 328.337C410.693 320.15 426.891 316.202 442.681 317.846H442.687Z" fill="#968127"/>
<path d="M442.686 317.846C426.89 316.202 410.693 320.143 396.639 328.337C396.969 328.731 397.299 329.146 397.617 329.573C400.233 333.093 401.71 336.769 402.5 340.187C403.122 342.879 403.316 345.403 403.309 347.571C415.135 338.064 428.645 330.233 443.049 325.547C443.049 325.411 443.049 325.276 443.049 325.14C443.03 322.849 442.926 320.402 442.693 317.852L442.686 317.846Z" fill="#77661E"/>
<path d="M402.571 341.131C407.098 336.931 416.496 329.346 430.666 325.444C442.661 322.143 452.887 322.907 458.761 323.793C461.19 323.981 462.563 323.709 462.893 322.965C463.392 321.839 461.462 319.639 457.11 316.357C451.676 313.678 442.136 309.911 429.844 309.75C409.501 309.491 395.084 319.283 390.182 322.959C392.312 324.234 396.282 327.016 399.268 332.039C401.373 335.579 402.208 338.918 402.571 341.118V341.131Z" fill="#A8912F"/>
<path d="M387.695 321.315C388.874 316.209 391.613 307.556 398.439 299.019C408.847 286.011 422.189 281.487 427.363 280.025C427.085 279.475 426.813 278.925 426.534 278.374C421.716 278.957 413.594 280.594 405.052 285.804C393.355 292.942 387.552 302.728 385.221 307.271C384.67 309.2 384.12 311.122 383.569 313.05C383.019 314.979 382.468 316.901 381.918 318.83C382.682 319.037 383.518 319.302 384.398 319.658C385.687 320.176 386.788 320.752 387.701 321.308L387.695 321.315Z" fill="#77661E"/>
<path d="M385.221 284.982C386.464 282.057 388.491 278.174 391.833 274.245C396.846 268.35 402.416 265.153 405.881 263.509C405.052 262.959 404.229 262.409 403.4 261.858C400.039 262.79 393.122 265.243 387.701 271.767C385.784 274.077 384.47 276.388 383.569 278.374C383.848 279.475 384.12 280.575 384.398 281.675C384.677 282.775 384.949 283.875 385.227 284.976L385.221 284.982Z" fill="#77661E"/>
<path d="M478.593 488.721C478.198 487.556 477.667 486.326 476.941 485.096C473.25 478.825 467.071 476.728 464.545 476.042C467.479 471.836 485.29 445.444 478.593 413.577C471.65 380.532 441.191 355.143 404.223 354.735C404.709 352.612 407.034 341.468 400.92 330.291C395.066 319.593 385.616 316.435 383.57 315.807C385.701 310.132 388.764 299.757 387.702 286.84C387.184 280.568 385.403 258.901 368.693 247.006C354.231 236.716 338.26 240.637 334.815 241.576C329.09 237.641 317.523 230.904 301.759 229.81C279.04 228.225 262.518 239.388 257.136 243.388C248.503 243.148 230.291 243.99 211.69 256.06C179.742 276.782 172.378 313.892 171.2 320.338C169.82 320.066 162.605 318.791 156.323 323.962C152.936 326.751 151.284 330.207 150.54 332.11C147.599 328.272 140.132 319.677 129.057 318.532C127.315 318.351 125.657 318.37 124.096 318.532C118.617 317.865 101.707 316.623 86.9146 328.492C68.774 343.047 61.2354 371.361 68.7351 399.106C58.4505 403.079 51.294 413.091 50.5556 424.456C49.623 438.855 59.4932 448.019 60.4711 448.9C48.2241 452.55 41.0741 459.125 37.3371 463.383C20.6084 482.43 27.2699 539.808 41.0001 571.5H474C485.5 560 498.333 537.777 499.253 522.225C500.082 508.201 491.805 494.487 478.593 488.727V488.721Z" fill="#373751"/>
<path d="M348.033 282.503C346.835 289.312 343.979 300.191 336.466 311.406C324.679 328.99 308.617 336.672 301.759 339.481C296.526 337.002 291.293 334.524 286.06 332.051C281.759 332.019 279.7 333.288 278.625 334.53C273.8 340.089 279.998 355.059 293.501 372.513C294.395 378.312 294.816 385.677 293.501 393.98C289.7 418.055 274.039 433.212 267.887 438.571C278.081 443.509 296.675 454.206 312.51 474.903C331.589 499.846 336.019 525.377 337.302 536.832C346.634 527.144 356.912 514.601 366.226 498.849C370.112 492.274 373.382 485.899 376.141 479.854C376.607 479.123 380.092 473.454 377.793 466.645C375.707 460.471 370.422 457.967 369.529 457.565C359.199 453.669 347.606 449.948 334.821 446.829C327.943 445.152 321.318 443.793 314.99 442.7C314.109 435.031 313.688 425.155 314.99 413.797C316.428 401.28 319.511 390.919 322.425 383.243C330.689 385.444 338.953 387.644 347.217 389.851C348.059 389.955 348.998 390.006 350.015 389.968C353.046 389.851 355.488 388.977 357.133 388.201C357.949 387.819 359.134 387.198 360.429 386.272C365.837 382.428 370.092 375.535 372.003 360.12C374.529 339.708 371.051 319.652 368.7 308.921C367.132 304.831 364.393 299.097 359.613 293.234C355.552 288.257 351.33 284.794 348.046 282.497L348.033 282.503Z" fill="#999999"/>
<path d="M298.456 256.908C292.063 248.889 278.618 250.119 266.229 251.95C255.633 253.516 235.686 257.962 215.822 272.595C202.325 282.536 193.692 293.628 188.556 301.498C184.204 301.414 179.191 301.602 173.68 302.327C166.607 303.252 160.494 304.818 155.5 306.456C154.963 307.129 152.981 309.717 153.849 311.413C154.38 312.448 155.746 312.681 159.632 313.063C164.276 313.523 167.799 313.736 169.548 313.892C171.659 314.079 174.8 314.487 178.634 315.542C175.901 322.402 172.326 334.168 173.673 348.574C174.094 353.059 177.734 391.799 206.729 400.594C224.546 405.998 249.403 400.542 260.439 379.949C270.587 361.019 265.192 336.569 247.22 322.972C252.304 320.959 257.55 318.765 262.919 316.364C267.802 314.183 272.485 311.976 276.967 309.756C281.448 307.006 292.07 299.641 297.627 285.811C299.446 281.28 305.625 265.903 298.456 256.908ZM223.257 363.427C221.489 364.482 219.119 364.281 217.474 363.427C213.413 361.323 213.361 355.091 213.342 352.69C213.283 345.532 217.15 340.18 219.125 337.824C221.45 340.348 224.773 344.82 225.738 351.033C226.094 353.324 227.279 361.013 223.257 363.42V363.427Z" fill="#968127"/>
<path d="M178.634 315.535C183.751 316.28 191.192 317.969 199.294 322.143C209.048 327.165 215.479 333.579 219.125 337.831C218.024 339.481 216.923 341.131 215.822 342.788C213.659 340.704 210.939 338.633 207.558 337.009C192.63 329.832 176.827 337.125 173.68 338.659V334.53C174.923 333.669 176.296 332.828 177.812 332.051C185.622 328.039 193.323 327.631 198.472 327.922C195.913 325.793 192.889 323.535 189.385 321.315C185.551 318.888 181.905 317.005 178.641 315.535H178.634Z" fill="#77661E"/>
<path d="M213.341 355.991C211.845 359.311 209.527 363.44 205.906 367.549C197.953 376.571 188.407 380.163 183.595 381.587C184.145 382.415 184.696 383.237 185.246 384.065C188.944 383.599 195.194 382.311 201.774 378.286C210.336 373.05 214.773 366.041 216.651 362.598C216.113 361.919 215.537 361.097 214.999 360.12C214.151 358.586 213.652 357.149 213.348 355.991H213.341Z" fill="#77661E"/>
<path d="M211.69 306.449C210.064 307.42 207.901 308.98 205.906 311.406C202.208 315.891 201.25 320.681 200.945 322.965C201.774 323.515 202.597 324.065 203.426 324.615C203.659 322.887 204.605 317.516 209.209 313.057C212.674 309.704 216.495 308.533 218.296 308.099C216.094 307.549 213.892 306.999 211.683 306.449H211.69Z" fill="#77661E"/>
<path d="M214.171 274.245C218.925 273.935 226.198 274.297 233.179 278.374C246.197 285.979 252.823 303.375 249.707 322.137C251.909 321.308 254.111 320.486 256.32 319.658C258.923 300.424 251.728 282.769 238.14 275.067C230.777 270.893 223.199 270.589 218.309 270.938C216.93 272.039 215.557 273.139 214.177 274.239L214.171 274.245Z" fill="#77661E"/>
<path d="M252.181 255.257C256.721 256.636 263.165 259.399 268.709 265.165C284.958 282.083 277.445 308.196 276.973 309.756C278.903 308.378 280.826 307.006 282.756 305.627C283.067 304.359 289.058 277.986 272.012 262.687C266.332 257.594 259.978 255.419 255.484 254.429C254.383 254.707 253.282 254.979 252.181 255.257Z" fill="#77661E"/>
<path d="M221.605 364.249C222.583 365.336 223.399 366.443 224.086 367.549C232 380.389 224.643 397.501 222.434 402.232H226.566C227.713 400.089 238.626 378.998 229.047 365.899C228.03 364.507 226.689 363.084 224.915 361.77C223.814 362.598 222.713 363.42 221.612 364.249H221.605Z" fill="#77661E"/>
<path d="M223.257 343.61C224.682 341.073 228.374 335.307 235.653 331.223C242.674 327.288 249.267 327.036 252.181 327.094L249.701 324.615C246.929 324.272 239.455 323.722 231.521 327.916C225.032 331.346 221.476 336.245 219.954 338.653C221.055 340.303 222.156 341.953 223.257 343.61Z" fill="#77661E"/>
<path d="M226.567 355.991C229.254 355.725 239.267 355.072 248.878 361.77C257.213 367.582 260.322 375.509 261.274 378.286C261.825 376.907 262.375 375.535 262.926 374.157C262.181 371.368 259.558 363.006 251.359 356.819C240.303 348.477 227.81 350.645 225.744 351.04C226.023 352.69 226.295 354.34 226.573 355.997L226.567 355.991Z" fill="#77661E"/>
<path d="M192.681 295.712C195.168 295.615 200.783 295.732 206.729 299.013C211.586 301.699 214.436 305.265 215.815 307.271L223.25 309.75C221.424 306.857 216.852 300.521 208.374 296.541C202.7 293.874 197.513 293.318 194.326 293.24C193.776 294.069 193.225 294.89 192.675 295.719L192.681 295.712Z" fill="#77661E"/>
<path d="M217.474 308.099C221.923 309.051 227.706 310.74 234.002 313.879C240.938 317.335 246.132 321.373 249.701 324.615C246.929 324.272 239.455 323.722 231.521 327.916C225.032 331.346 221.476 336.245 219.954 338.653C217.785 335.915 214.812 332.686 210.868 329.573C208.245 327.502 205.706 325.884 203.433 324.615C203.452 323.062 203.711 318.797 206.736 314.707C210.602 309.491 216.185 308.332 217.48 308.099H217.474Z" fill="#A8912F"/>
<path d="M211.69 306.449C209.922 307.549 206.768 309.847 204.255 313.879C201.988 317.516 201.231 320.959 200.952 322.959C198.245 321.321 194.644 319.483 190.208 318.001C187.203 316.998 183.291 315.995 178.641 315.523C170.655 314.422 162.663 313.322 154.678 312.222C153.363 311.976 152.366 310.953 152.197 309.743C151.997 308.281 153.052 306.779 154.678 306.443C159.729 304.715 165.837 303.136 172.857 302.314C189.444 300.372 203.18 303.608 211.697 306.443L211.69 306.449Z" fill="#A8912F"/>
<path d="M223.257 343.61C224.662 341.021 227.875 335.967 234.001 332.051C241.669 327.146 249.266 327.003 252.181 327.094C255.238 330.213 260.03 335.947 262.925 344.432C267.582 358.081 264.311 369.944 262.925 374.157C262.057 371.814 256.701 358.029 242.265 352.69C235.433 350.16 229.267 350.528 225.737 351.04C225.679 349.978 225.485 348.535 224.908 346.911C224.416 345.519 223.794 344.413 223.257 343.61Z" fill="#A8912F"/>
<path d="M357.553 360.178C353.615 360.385 350.144 362.385 348.797 365.271C350.733 365.834 353.777 366.54 357.605 366.604C362.087 366.682 365.629 365.86 367.682 365.245C366.128 362.009 361.944 359.958 357.553 360.178Z" fill="#31313F"/>
<path d="M352.91 341.021C350.689 340.096 347.632 339.119 343.895 338.724C337.833 338.096 332.904 339.339 330.042 340.329C327.296 338.556 324.537 336.802 321.784 335.028C325.145 335.249 328.5 335.449 331.862 335.669C333.26 335.067 337.6 333.385 342.995 334.653C348.772 336.012 351.997 339.85 352.891 341.002L352.904 341.015L352.91 341.021Z" fill="#1E1E1E"/>
<path d="M350.611 320.642C349.633 320.331 348.247 319.962 346.556 319.69C344.821 319.419 342.178 319.037 338.882 319.613C335.967 320.124 333.604 321.192 331.861 322.247C333.532 320.26 336.518 317.432 340.961 316.254C342.684 315.794 347.677 314.468 349.756 317.024C350.682 318.163 350.708 319.664 350.617 320.642H350.611Z" fill="#1E1E1E"/>
<path d="M361.452 341.843C362.974 340.918 365.06 339.941 367.618 339.546C371.763 338.918 375.137 340.161 377.093 341.151C378.971 339.378 380.862 337.624 382.74 335.85C380.441 336.07 378.149 336.271 375.849 336.491C374.891 335.889 371.925 334.207 368.24 335.475C364.289 336.834 362.087 340.672 361.472 341.824V341.837L361.452 341.843Z" fill="#1E1E1E"/>
<path d="M363.026 321.464C363.693 321.153 364.639 320.784 365.798 320.512C366.983 320.24 368.79 319.859 371.051 320.435C373.045 320.946 374.658 322.014 375.856 323.069C374.716 321.082 372.67 318.254 369.632 317.076C368.453 316.616 365.04 315.29 363.616 317.846C362.981 318.985 362.968 320.486 363.026 321.464Z" fill="#1E1E1E"/>
<path d="M622.324 384.369C599.98 384.369 581.801 366.203 581.801 343.875C581.801 321.548 599.98 303.381 622.324 303.381C644.668 303.381 662.847 321.548 662.847 343.875C662.847 366.203 644.668 384.369 622.324 384.369ZM622.324 304.812C600.77 304.812 583.239 322.331 583.239 343.869C583.239 365.407 600.77 382.926 622.324 382.926C643.878 382.926 661.41 365.407 661.41 343.869C661.41 322.331 643.878 304.812 622.324 304.812Z" fill="#72611A"/>
<path d="M623.97 405.882C588.595 405.882 559.813 377.121 559.813 341.772C559.813 306.423 588.595 277.663 623.97 277.663C659.344 277.663 688.126 306.423 688.126 341.772C688.126 377.121 659.344 405.882 623.97 405.882ZM623.97 279.06C589.366 279.06 561.219 307.193 561.219 341.766C561.219 376.338 589.372 404.471 623.97 404.471C658.567 404.471 686.72 376.338 686.72 341.766C686.72 307.193 658.567 279.06 623.97 279.06Z" fill="#72611A"/>
<path d="M583.854 355.233C585.889 355.233 587.539 353.585 587.539 351.551C587.539 349.517 585.889 347.869 583.854 347.869C581.819 347.869 580.169 349.517 580.169 351.551C580.169 353.585 581.819 355.233 583.854 355.233Z" fill="#9B862F"/>
<path d="M662.064 293.933C664.099 293.933 665.749 292.284 665.749 290.25C665.749 288.216 664.099 286.568 662.064 286.568C660.029 286.568 658.379 288.216 658.379 290.25C658.379 292.284 660.029 293.933 662.064 293.933Z" fill="#9B862F"/>
<path d="M659.26 339.792C663.113 339.792 666.235 336.671 666.235 332.822C666.235 328.972 663.113 325.852 659.26 325.852C655.408 325.852 652.285 328.972 652.285 332.822C652.285 336.671 655.408 339.792 659.26 339.792Z" fill="#72611A"/>
<path d="M584.334 400.633C588.186 400.633 591.309 397.512 591.309 393.663C591.309 389.813 588.186 386.693 584.334 386.693C580.481 386.693 577.358 389.813 577.358 393.663C577.358 397.512 580.481 400.633 584.334 400.633Z" fill="#72611A"/>
<path d="M600.195 290.192C603.496 290.192 606.172 287.518 606.172 284.218C606.172 280.919 603.496 278.245 600.195 278.245C596.893 278.245 594.217 280.919 594.217 284.218C594.217 287.518 596.893 290.192 600.195 290.192Z" fill="#72611A"/>
<path d="M652.408 290.185C655.062 290.185 657.214 288.036 657.214 285.383C657.214 282.731 655.062 280.581 652.408 280.581C649.754 280.581 647.603 282.731 647.603 285.383C647.603 288.036 649.754 290.185 652.408 290.185Z" fill="#72611A"/>
<path d="M584.528 332.472C586.195 332.472 587.546 331.122 587.546 329.456C587.546 327.791 586.195 326.44 584.528 326.44C582.861 326.44 581.51 327.791 581.51 329.456C581.51 331.122 582.861 332.472 584.528 332.472Z" fill="#72611A"/>
<path d="M624.391 359.271H622.985V546.798H624.391V359.271Z" fill="#72611A"/>
<path d="M626.742 324.434C629.462 324.434 632.059 324.971 634.436 325.936C633.671 325.832 632.894 325.774 632.104 325.774C622.668 325.774 615.019 333.417 615.019 342.846C615.019 352.276 622.668 359.919 632.104 359.919C637.246 359.919 641.858 357.647 644.986 354.049C641.618 360.709 634.714 365.271 626.742 365.271C615.453 365.271 606.302 356.127 606.302 344.846C606.302 333.566 615.453 324.421 626.742 324.421V324.434Z" fill="#72611A"/>
<path d="M623.393 387.379C625.06 387.379 626.411 386.029 626.411 384.363C626.411 382.697 625.06 381.347 623.393 381.347C621.726 381.347 620.375 382.697 620.375 384.363C620.375 386.029 621.726 387.379 623.393 387.379Z" fill="#9B862F"/>
<path d="M674.259 383.263C677.171 383.263 679.531 380.904 679.531 377.995C679.531 375.085 677.171 372.727 674.259 372.727C671.348 372.727 668.987 375.085 668.987 377.995C668.987 380.904 671.348 383.263 674.259 383.263Z" fill="#9B862F"/>
<path d="M834.144 504.201C827.946 495.911 821.768 490.021 817.169 486.132C808.608 478.896 800.208 471.972 788.032 470.464C780.733 469.558 775.558 471.033 774.373 471.383C767.126 473.557 762.482 477.913 760.306 480.255C754.354 480.184 747.269 480.773 739.581 482.844C713.74 489.801 698.825 508.712 693.339 516.549C692.866 516.187 689.544 513.728 685.146 514.705C681.099 515.604 679.117 518.75 678.774 519.313C676.371 514.666 669.732 503.489 656.922 499.03C653.431 497.813 648.302 496.098 643.263 498.111C635.575 501.179 630.932 511.844 632.078 524.904C631.502 524.458 629.073 522.704 625.602 522.963C622.383 523.202 620.336 525.014 619.773 525.552C618.885 524.594 610.291 515.617 597.753 517.138C587.468 518.387 578.744 526.192 575.888 536.825C575.487 535.919 570.493 525.111 558.589 522.995C550.021 521.474 541.213 525.047 535.825 532.211C534.97 532.056 529.471 531.163 524.899 534.974C521.984 537.408 519.038 542.087 520.346 545.116C521.92 548.753 529.704 550.144 539.464 546.96C543.797 549.374 548.648 551.607 554.03 553.413C584.081 563.502 612.046 554.241 625.051 548.805C627.81 549.517 631.936 550.216 636.89 549.724C644.247 548.992 649.616 546.002 652.369 544.19C654.428 546.993 656.63 549.076 658.742 550.643C676.98 564.169 704.602 551.316 707.911 549.724C708.157 550.727 709.867 557.237 716.272 560.493C721.648 563.224 728.273 562.609 733.403 558.939C742.114 562.628 778.939 577.151 807.591 559.198C810.738 557.224 813.983 554.739 817.169 551.568C824.184 554.577 838.497 559.509 856.32 557.102C865.147 555.904 872.33 553.251 877.537 550.785C890.794 559.483 908.352 556.221 917.043 544.313C926.972 530.71 921.959 510.44 907.976 502.894C897.782 497.393 884.201 499.393 874.532 508.24C873.962 499.826 866.274 494.06 859.053 495.335C852.745 496.448 847.803 502.758 848.393 510.013C848.036 509.133 846.761 506.279 843.574 504.557C839.157 502.162 834.734 503.942 834.144 504.188V504.201Z" fill="#666666"/>
<path d="M85.1649 448.13C91.0973 439.529 98.772 431.957 107.897 426.786C112.379 424.242 117.217 422.307 122.256 421.213C128.246 419.913 134.406 419.945 140.455 420.857C151.64 422.553 162.578 426.611 172.222 432.513C181.716 438.325 190.006 446.078 196.094 455.417C202.208 464.781 206.152 475.622 207.046 486.786C207.156 488.164 207.221 489.543 207.24 490.927C207.24 491.258 207.765 491.264 207.758 490.927C207.596 479.621 204.326 468.49 198.711 458.698C193.095 448.906 185.214 440.642 175.926 434.293C166.555 427.892 155.843 423.433 144.742 421.11C138.538 419.809 132.145 419.227 125.837 420.061C120.74 420.741 115.786 422.288 111.149 424.501C101.609 429.051 93.4613 436.273 87.069 444.622C86.2594 445.683 85.4758 446.764 84.718 447.858C84.5302 448.13 84.9771 448.388 85.1649 448.117V448.13Z" fill="#1E1E1E"/>
<path d="M194.942 464.723C199.78 472.049 200.7 481.071 200.447 489.64C200.214 497.632 199.113 505.851 195.784 513.19C193.945 517.248 191.387 520.944 188.045 523.908C187.792 524.128 188.161 524.497 188.407 524.27C194.463 518.898 197.772 511.281 199.424 503.496C200.272 499.47 200.719 495.367 200.907 491.257C201.108 486.908 201.037 482.521 200.389 478.21C199.657 473.344 198.116 468.593 195.389 464.464C195.208 464.186 194.761 464.445 194.942 464.723Z" fill="#1E1E1E"/>
<path d="M213.393 464.762C215.355 465.539 216.799 467.467 216.994 469.571C217.026 469.901 217.544 469.901 217.512 469.571C217.298 467.221 215.731 465.131 213.529 464.264C213.218 464.141 213.082 464.639 213.393 464.762Z" fill="#1E1E1E"/>
<path d="M213.743 446.861C225.225 440.473 239.195 438.946 251.837 442.48C263.566 445.761 273.657 453.566 280.159 463.817C283.728 469.441 286.176 475.738 287.264 482.307C287.315 482.637 287.814 482.495 287.762 482.171C285.794 470.289 279.349 459.287 270.12 451.566C260.244 443.302 247.401 439.334 234.571 440.221C227.194 440.732 219.954 442.816 213.49 446.408C213.199 446.57 213.458 447.016 213.749 446.855L213.743 446.861Z" fill="#1E1E1E"/>
<path d="M277.238 471.001C280.327 477.013 282.277 483.563 282.97 490.293C283.002 490.623 283.52 490.623 283.488 490.293C282.788 483.472 280.819 476.845 277.685 470.742C277.536 470.444 277.089 470.71 277.238 471.001Z" fill="#1E1E1E"/>
<path d="M302.724 484.501C308.047 498.791 312.004 515.468 304.045 529.596C302.147 532.968 299.608 535.958 296.493 538.262C296.228 538.456 296.487 538.909 296.752 538.709C302.322 534.593 305.955 528.431 307.749 521.811C309.809 514.187 309.317 506.175 307.6 498.538C306.512 493.71 304.951 488.999 303.222 484.365C303.106 484.054 302.607 484.19 302.724 484.501Z" fill="#1E1E1E"/>
<path d="M310.683 518.581C312.217 524.387 310.799 530.761 306.939 535.363C306.725 535.615 307.088 535.984 307.302 535.725C311.285 530.981 312.762 524.432 311.181 518.439C311.097 518.116 310.598 518.251 310.683 518.575V518.581Z" fill="#1E1E1E"/>
<path d="M83.5788 381.625C82.5749 371.782 84.8417 361.699 89.848 353.169C94.8543 344.639 102.866 337.682 112.451 334.44C122.01 331.204 132.781 331.378 142.12 335.274C151.789 339.313 159.12 347.403 163.557 356.761C168.686 367.575 169.813 379.82 168.861 391.631C168.738 393.152 168.583 394.666 168.395 396.18C168.356 396.511 168.874 396.504 168.913 396.18C170.402 383.949 169.975 371.161 165.351 359.595C161.51 349.985 154.794 341.254 145.546 336.329C136.297 331.404 125.747 330.492 115.883 332.899C105.955 335.32 97.3672 341.332 91.4866 349.661C85.6059 357.99 82.6202 367.886 82.821 377.878C82.8469 379.127 82.9246 380.376 83.0542 381.619C83.0866 381.949 83.6047 381.949 83.5723 381.619L83.5788 381.625Z" fill="#1E1E1E"/>
<path d="M67.575 410.684C72.7368 404.989 80.0552 401.209 87.7687 400.704C95.0418 400.232 102.231 402.95 107.379 408.108C110.19 410.923 112.282 414.392 113.331 418.23C113.422 418.553 113.921 418.417 113.83 418.094C111.926 411.111 106.622 405.409 100.087 402.426C93.1118 399.242 85.1133 399.539 78.1252 402.523C73.9803 404.296 70.2433 406.969 67.2188 410.308C66.9986 410.554 67.3613 410.923 67.5815 410.671L67.575 410.684Z" fill="#1E1E1E"/>
<path d="M106.441 413.441C109.576 415.33 111.557 418.838 111.57 422.495C111.57 422.825 112.089 422.825 112.089 422.495C112.076 418.657 109.99 414.975 106.7 412.994C106.415 412.819 106.156 413.266 106.441 413.441Z" fill="#1E1E1E"/>
<path d="M49.2209 480.573C53.9164 476.049 60.7296 474.994 67.0118 475.402C73.6114 475.835 80.185 477.719 86.1563 480.527C98.4422 486.313 108.306 496.39 113.74 508.835C116.881 516.038 118.506 523.875 118.467 531.739C118.467 532.069 118.986 532.069 118.986 531.739C119.063 517.669 113.772 503.677 104.297 493.251C95.2039 483.245 82.3352 476.541 68.8706 475.052C61.9148 474.282 54.1236 475.143 48.8647 480.21C48.6251 480.443 48.9878 480.806 49.2274 480.573H49.2209Z" fill="#1E1E1E"/>
<path d="M124.588 513.786C126.654 516.297 127.593 519.649 127.12 522.866C127.075 523.189 127.574 523.332 127.619 523.002C128.124 519.585 127.153 516.09 124.957 513.417C124.743 513.158 124.381 513.527 124.594 513.779L124.588 513.786Z" fill="#1E1E1E"/>
<path d="M355.915 412.716C363.564 402.555 371.439 392.149 381.847 384.628C386.685 381.134 392.028 378.357 397.785 376.707C403.2 375.154 408.873 374.552 414.495 374.83C425.79 375.38 436.981 379.438 445.841 386.499C454.701 393.559 461.112 404.082 463.904 415.305C466.689 426.514 466.164 438.584 462.129 449.43C461.605 450.835 461.022 452.213 460.38 453.572C460.238 453.87 460.685 454.135 460.827 453.831C465.834 443.192 467.271 431.076 465.303 419.511C463.334 407.946 457.913 396.957 449.364 388.88C441.1 381.075 430.252 376.189 419.009 374.714C407.766 373.238 395.616 375.445 385.584 381.515C374.483 388.233 366.089 398.465 358.324 408.658C357.366 409.92 356.407 411.182 355.455 412.451C355.254 412.716 355.701 412.975 355.902 412.709L355.915 412.716Z" fill="#1E1E1E"/>
<path d="M359.198 432.895C364.36 422.139 369.768 411.176 377.999 402.38C385.363 394.517 394.858 388.453 405.311 385.664C411.166 384.104 417.286 383.619 423.296 384.434C423.62 384.479 423.762 383.981 423.432 383.936C412.739 382.486 401.911 385.094 392.559 390.317C387.759 392.99 383.336 396.336 379.418 400.186C375.253 404.277 371.743 408.969 368.66 413.913C364.917 419.912 361.802 426.268 358.751 432.636C358.609 432.934 359.056 433.199 359.198 432.895Z" fill="#1E1E1E"/>
<path d="M435.692 392.614C440.562 394.99 444.558 398.918 447.019 403.739C447.168 404.037 447.615 403.772 447.466 403.481C444.973 398.588 440.892 394.575 435.957 392.168C435.659 392.026 435.394 392.466 435.698 392.614H435.692Z" fill="#1E1E1E"/>
<path d="M384.541 428.222C389.055 419.194 397.578 412.425 407.312 409.81C417.202 407.15 427.797 409.286 436.171 415.085C445.077 421.246 451.087 431.503 450.873 442.473C450.769 447.955 448.988 453.32 445.459 457.552C442.298 461.345 437.914 464.18 433.03 465.105C423.005 466.995 413.549 459.934 409.689 451.029C409.19 449.87 408.789 448.68 408.465 447.463C408.381 447.139 407.882 447.275 407.966 447.599C410.434 457.041 418.815 465.467 428.905 465.914C439.455 466.38 448.503 457.818 450.731 447.903C453.218 436.836 448.496 425.148 440.258 417.68C432.545 410.69 421.884 407.027 411.509 408.438C401.211 409.836 391.639 415.919 385.985 424.63C385.286 425.705 384.658 426.818 384.088 427.963C383.939 428.261 384.386 428.52 384.534 428.222H384.541Z" fill="#1E1E1E"/>
<path d="M118.034 455.889C126.473 451.521 136.725 453.055 144.445 458.193C151.725 463.04 157.236 470.787 159.535 479.207C161.834 487.627 161.064 497.147 154.73 503.256C151.096 506.764 145.954 506.926 141.284 505.806C136.906 504.758 132.807 502.596 129.465 499.587C126.123 496.577 123.338 492.494 122.405 487.957C121.531 483.698 122.496 479.013 125.456 475.738C126.162 474.955 126.971 474.288 127.859 473.732C128.137 473.557 127.878 473.111 127.6 473.285C124.018 475.531 121.939 479.55 121.609 483.705C121.233 488.416 123.189 493.037 126.052 496.694C128.914 500.35 132.787 503.204 137.075 504.984C141.362 506.764 146.543 507.812 151.012 506.201C155.228 504.68 158.039 500.616 159.6 496.584C161.161 492.552 161.523 487.886 160.934 483.511C159.71 474.386 154.691 465.81 147.638 459.941C140.339 453.87 130.268 450.951 121.052 454.045C119.919 454.427 118.824 454.899 117.768 455.443C117.47 455.598 117.736 456.044 118.027 455.889H118.034Z" fill="#1E1E1E"/>
<path d="M238.516 460.969C247.906 462.393 256.546 467.758 262.109 475.44C263.651 477.563 264.94 479.854 265.963 482.275C266.092 482.579 266.539 482.32 266.41 482.016C262.699 473.253 255.361 466.231 246.566 462.646C244.027 461.61 241.372 460.885 238.658 460.471C238.334 460.419 238.192 460.918 238.522 460.969H238.516Z" fill="#1E1E1E"/>
<path d="M271.759 392.964C267.038 405.94 256.235 415.958 244.195 422.249C240.193 424.339 235.704 426.028 231.119 425.329C230.795 425.278 230.653 425.776 230.983 425.828C234.921 426.423 238.787 425.355 242.356 423.724C245.704 422.197 248.897 420.262 251.915 418.165C257.66 414.172 262.841 409.292 266.837 403.532C269.084 400.296 270.917 396.795 272.258 393.093C272.374 392.783 271.869 392.647 271.759 392.958V392.964Z" fill="#1E1E1E"/>
<path d="M210.291 425.744C219.248 424.572 227.985 422.094 236.23 418.398C236.534 418.262 236.268 417.816 235.97 417.952C227.817 421.608 219.151 424.067 210.291 425.226C209.967 425.271 209.961 425.789 210.291 425.744Z" fill="#1E1E1E"/>
<path d="M410.045 481.576C415.55 482.462 421.224 483.42 425.945 486.585C430.148 489.4 433.464 493.542 435.796 497.995C440.122 506.246 441.158 516.109 438.989 525.137C437.752 530.282 435.459 535.156 432.162 539.298C431.955 539.556 432.318 539.925 432.525 539.66C438.47 532.198 441.158 522.51 440.498 513.042C439.831 503.373 435.582 493.536 427.894 487.381C422.791 483.297 416.47 482.093 410.175 481.077C409.851 481.026 409.708 481.524 410.039 481.576H410.045Z" fill="#1E1E1E"/>
<path d="M448.697 521.06C449.144 528.328 445.232 535.525 438.879 539.084C438.587 539.246 438.846 539.692 439.138 539.531C445.64 535.887 449.675 528.496 449.215 521.06C449.196 520.73 448.678 520.73 448.697 521.06Z" fill="#1E1E1E"/>
<path d="M454.532 485.698C458.69 486.488 462.939 487.51 466.514 489.873C469.713 491.989 472.297 495.296 472.751 499.186C472.789 499.509 473.308 499.516 473.269 499.186C472.815 495.354 470.458 492.086 467.388 489.853C463.683 487.154 459.105 486.041 454.675 485.2C454.351 485.135 454.208 485.634 454.539 485.698H454.532Z" fill="#1E1E1E"/>
<path d="M475.904 509.825C478.728 512.375 479.848 516.239 479.686 519.96C479.499 524.309 477.653 528.386 475.749 532.224C475.6 532.522 476.047 532.78 476.196 532.483C478.171 528.49 480.081 524.238 480.211 519.707C480.315 515.941 479.129 512.032 476.267 509.456C476.021 509.236 475.652 509.599 475.904 509.819V509.825Z" fill="#1E1E1E"/>
<path d="M338.273 278.051C336.725 286.742 333.253 295.026 328.292 302.327C323.331 309.627 316.823 316.008 309.336 320.784C305.113 323.476 300.573 325.657 295.819 327.249C295.502 327.353 295.638 327.851 295.955 327.748C304.401 324.926 312.146 320.24 318.694 314.228C325.307 308.151 330.702 300.722 334.354 292.522C336.394 287.94 337.891 283.131 338.771 278.193C338.83 277.87 338.331 277.727 338.273 278.057V278.051Z" fill="#1E1E1E"/>
<path d="M308.404 310.863C302.607 316.163 295.645 320.092 288.106 322.305C287.789 322.396 287.925 322.9 288.242 322.803C295.865 320.558 302.905 316.59 308.766 311.225C309.012 310.999 308.643 310.636 308.404 310.863Z" fill="#1E1E1E"/>
<path d="M220.919 337.507C225.809 330.33 234.021 325.677 242.693 325.159C243.023 325.14 243.023 324.622 242.693 324.641C233.826 325.172 225.472 329.916 220.472 337.248C220.284 337.527 220.731 337.786 220.919 337.507Z" fill="#1E1E1E"/>
<path d="M208.089 308.889C204.177 311.814 201.528 316.247 200.854 321.088C200.809 321.412 201.308 321.554 201.353 321.224C202.007 316.519 204.54 312.183 208.348 309.335C208.613 309.141 208.348 308.688 208.089 308.889Z" fill="#1E1E1E"/>
<path d="M210.569 308.022C210.932 307.834 211.295 307.646 211.657 307.465C211.781 307.4 211.826 307.226 211.748 307.109C211.67 306.986 211.521 306.947 211.392 307.019C211.029 307.206 210.667 307.394 210.304 307.575C210.181 307.64 210.135 307.815 210.213 307.931C210.291 308.054 210.44 308.093 210.569 308.022Z" fill="#1E1E1E"/>
<path d="M233.12 350.567C239.713 350.354 246.248 352.58 251.319 356.793C251.572 357.007 251.941 356.638 251.682 356.431C246.501 352.127 239.849 349.836 233.12 350.05C232.79 350.062 232.784 350.58 233.12 350.567Z" fill="#1E1E1E"/>
<path d="M254.247 360.165C255.497 361.472 256.501 363.006 257.194 364.682C257.317 364.986 257.822 364.851 257.693 364.546C256.961 362.786 255.924 361.181 254.61 359.802C254.377 359.563 254.014 359.925 254.247 360.165Z" fill="#1E1E1E"/>
<path d="M228.561 364.715C229.487 366.345 230.42 367.976 231.346 369.607C231.508 369.898 231.955 369.633 231.793 369.348L229.008 364.456C228.846 364.164 228.399 364.43 228.561 364.715Z" fill="#1E1E1E"/>
<path d="M232.395 375.594C233.444 382.234 232.408 389.094 229.455 395.132C229.312 395.43 229.753 395.695 229.902 395.391C232.92 389.217 233.962 382.24 232.894 375.451C232.842 375.121 232.343 375.264 232.395 375.587V375.594Z" fill="#1E1E1E"/>
<path d="M194.897 382.02C196.529 381.541 198.116 380.92 199.644 380.176C199.942 380.027 199.683 379.587 199.385 379.729C197.895 380.454 196.347 381.049 194.761 381.522C194.443 381.619 194.579 382.117 194.897 382.02Z" fill="#1E1E1E"/>
<path d="M205.375 376.597C209.028 374.002 212.02 370.559 214.073 366.578C214.222 366.281 213.782 366.022 213.626 366.32C211.619 370.222 208.698 373.607 205.116 376.15C204.844 376.344 205.103 376.791 205.375 376.597Z" fill="#1E1E1E"/>
<path d="M180.24 336.485C183.737 334.64 187.604 333.611 191.554 333.462C191.885 333.449 191.891 332.932 191.554 332.945C187.513 333.093 183.556 334.148 179.974 336.038C179.683 336.193 179.942 336.64 180.234 336.485H180.24Z" fill="#1E1E1E"/>
<path d="M198.316 333.728L204.359 335.553C204.676 335.65 204.812 335.151 204.495 335.054L198.452 333.229C198.135 333.132 197.999 333.631 198.316 333.728Z" fill="#1E1E1E"/>
<path d="M235.782 273.87C239.506 275.326 242.842 277.656 245.51 280.633C245.73 280.879 246.099 280.517 245.873 280.271C243.146 277.222 239.727 274.867 235.918 273.378C235.608 273.255 235.472 273.754 235.782 273.877V273.87Z" fill="#1E1E1E"/>
<path d="M250.704 287.661C252.057 290.237 253.282 292.884 254.357 295.589C254.48 295.894 254.978 295.764 254.855 295.453C253.761 292.709 252.524 290.024 251.144 287.403C250.989 287.105 250.542 287.37 250.697 287.661H250.704Z" fill="#1E1E1E"/>
<path d="M256.138 305.439C256.533 306.339 256.708 307.329 256.662 308.313C256.649 308.643 257.161 308.643 257.18 308.313C257.232 307.232 257.025 306.164 256.585 305.181C256.526 305.051 256.338 305.025 256.228 305.09C256.099 305.168 256.079 305.317 256.138 305.446V305.439Z" fill="#1E1E1E"/>
<path d="M262.659 256.357C263.443 256.403 264.181 256.785 264.687 257.386C264.777 257.496 264.959 257.477 265.049 257.386C265.153 257.283 265.14 257.128 265.049 257.024C264.453 256.319 263.573 255.898 262.659 255.846C262.517 255.84 262.4 255.969 262.4 256.105C262.4 256.254 262.517 256.357 262.659 256.364V256.357Z" fill="#1E1E1E"/>
<path d="M269.098 260.454C278.644 267.981 282.413 280.07 283.916 291.68C283.955 292.004 284.473 292.011 284.434 291.68C283.229 282.361 280.71 272.945 274.797 265.444C273.23 263.457 271.449 261.658 269.46 260.092C269.201 259.885 268.832 260.253 269.098 260.454Z" fill="#1E1E1E"/>
<path d="M388.731 271.333C390.603 268.887 392.993 266.861 395.7 265.386C395.991 265.224 395.732 264.777 395.441 264.939C392.65 266.453 390.221 268.55 388.291 271.068C388.09 271.333 388.537 271.592 388.738 271.327L388.731 271.333Z" fill="#1E1E1E"/>
<path d="M398.912 264.072C399.366 263.975 399.819 263.878 400.279 263.787C400.408 263.761 400.499 263.599 400.46 263.47C400.415 263.328 400.285 263.256 400.143 263.289C399.69 263.386 399.236 263.483 398.776 263.573C398.647 263.599 398.556 263.761 398.595 263.891C398.64 264.033 398.77 264.104 398.912 264.072Z" fill="#1E1E1E"/>
<path d="M390.881 299.44C392.656 296.677 394.858 294.204 397.396 292.121C397.655 291.907 397.286 291.545 397.034 291.758C394.462 293.868 392.235 296.379 390.434 299.181C390.253 299.46 390.7 299.725 390.881 299.44Z" fill="#1E1E1E"/>
<path d="M400.628 289.338C406.166 284.367 412.966 280.95 420.259 279.462C420.582 279.397 420.446 278.899 420.123 278.963C412.746 280.471 405.868 283.947 400.266 288.975C400.02 289.195 400.382 289.564 400.628 289.338Z" fill="#1E1E1E"/>
<path d="M401.477 316.053C405.175 316.778 408.549 318.713 411.036 321.541C411.257 321.794 411.619 321.425 411.399 321.179C408.86 318.286 405.389 316.293 401.613 315.555C401.289 315.49 401.147 315.988 401.477 316.053Z" fill="#1E1E1E"/>
<path d="M414.533 325.625L415.867 328.104C416.023 328.395 416.47 328.136 416.314 327.845L414.98 325.366C414.825 325.075 414.378 325.334 414.533 325.625Z" fill="#1E1E1E"/>
<path d="M703.307 518.42C710.101 508.188 720.709 500.273 732.781 497.561C744.465 494.933 756.842 497.917 765.954 505.722C770.896 509.954 774.665 515.501 776.388 521.798C776.472 522.096 776.938 521.973 776.854 521.668C773.726 510.259 764.121 501.567 753.053 497.949C741.175 494.066 728.274 496.674 717.898 503.334C711.927 507.172 706.804 512.258 702.88 518.167C702.705 518.426 703.126 518.672 703.301 518.413L703.307 518.42Z" fill="#1E1E1E"/>
<path d="M770.584 504.447C775.299 506.194 779.289 509.637 781.795 513.986C784.658 518.957 785.085 524.846 784.515 530.457C784.165 533.913 783.298 537.311 781.724 540.411C781.581 540.689 782.002 540.935 782.145 540.657C784.981 535.065 785.687 528.412 784.969 522.231C784.36 516.976 781.931 512.116 778.045 508.505C775.921 506.524 773.434 504.991 770.714 503.981C770.422 503.871 770.293 504.343 770.584 504.447Z" fill="#1E1E1E"/>
<path d="M791.653 526.412C792.365 530.852 791.316 535.44 788.764 539.142C788.589 539.401 789.01 539.641 789.185 539.388C791.808 535.576 792.857 530.852 792.119 526.283C792.067 525.972 791.601 526.108 791.653 526.412Z" fill="#1E1E1E"/>
<path d="M730.262 539.388C733.539 545.032 738.474 549.652 744.31 552.578C750.514 555.684 757.593 556.713 764.438 555.613C768.428 554.972 772.275 553.613 775.779 551.613C776.051 551.458 775.805 551.037 775.533 551.193C769.38 554.707 762.139 556.17 755.106 555.328C748.616 554.558 742.451 551.736 737.535 547.446C734.815 545.07 732.496 542.262 730.676 539.142C730.521 538.87 730.1 539.116 730.256 539.388H730.262Z" fill="#1E1E1E"/>
<path d="M760.65 547.692C766.356 550.688 773.512 550.338 778.888 546.766C779.147 546.591 778.907 546.171 778.641 546.345C773.415 549.814 766.453 550.19 760.896 547.271C760.617 547.129 760.371 547.543 760.65 547.692Z" fill="#1E1E1E"/>
<path d="M770.85 488.494C780.325 480.333 794.91 480.424 804.981 487.426C815.466 494.713 820.576 507.735 819.475 520.238C818.789 528.056 815.9 535.589 811.555 542.093C811.38 542.352 811.801 542.598 811.976 542.339C819.637 530.871 822.72 515.922 817.526 502.823C815.259 497.114 811.574 491.924 806.73 488.119C801.885 484.313 795.862 482.048 789.625 481.796C782.734 481.517 775.772 483.634 770.513 488.158C770.273 488.365 770.623 488.701 770.856 488.501L770.85 488.494Z" fill="#1E1E1E"/>
<path d="M813.388 521.041C813.524 530.781 806.989 540.113 797.767 543.304C797.475 543.407 797.598 543.873 797.896 543.77C805.208 541.239 810.914 534.942 813.019 527.532C813.615 525.422 813.906 523.235 813.874 521.041C813.874 520.73 813.382 520.73 813.388 521.041Z" fill="#1E1E1E"/>
<path d="M828.161 545.303C836.204 549.523 845.505 551.199 854.52 550.086C857.046 549.775 859.533 549.245 861.968 548.5C862.266 548.41 862.136 547.944 861.838 548.035C850.809 551.387 838.614 550.241 828.407 544.889C828.128 544.747 827.882 545.161 828.161 545.31V545.303Z" fill="#1E1E1E"/>
<path d="M860.362 547.07C864.125 546.216 867.836 545.135 871.469 543.834C871.76 543.731 871.637 543.258 871.339 543.368C867.706 544.669 863.995 545.75 860.232 546.604C859.928 546.675 860.057 547.141 860.362 547.07Z" fill="#1E1E1E"/>
<path d="M865.814 505.463C869.83 507.327 873.087 510.602 874.985 514.595C877.2 519.248 877.109 524.432 875.801 529.331C874.992 532.373 873.78 535.285 872.479 538.146C872.349 538.43 872.77 538.676 872.9 538.392C875.212 533.311 877.343 527.888 877.239 522.219C877.155 517.559 875.354 513.087 872.239 509.618C870.51 507.689 868.405 506.13 866.054 505.042C865.776 504.913 865.523 505.327 865.808 505.463H865.814Z" fill="#1E1E1E"/>
<path d="M878.45 524.516C879.719 528.535 879.123 532.968 876.844 536.515C876.675 536.78 877.096 537.02 877.265 536.761C879.609 533.117 880.224 528.522 878.923 524.387C878.832 524.089 878.359 524.218 878.456 524.516H878.45Z" fill="#1E1E1E"/>
<path d="M896.487 508.201C903.767 508.201 910.476 513.009 913.17 519.714C916.04 526.859 914.524 535.097 909.835 541.103C907.387 544.236 904.201 546.734 900.626 548.468C900.347 548.604 900.593 549.025 900.872 548.889C907.633 545.614 913.086 539.459 914.647 532.004C916.208 524.548 913.792 516.407 907.64 511.631C904.453 509.159 900.528 507.715 896.487 507.715C896.176 507.715 896.176 508.201 896.487 508.201Z" fill="#1E1E1E"/>
<path d="M904.175 539.382C899.836 543.097 894.233 545.129 888.521 545.077C888.21 545.077 888.21 545.562 888.521 545.562C894.363 545.621 900.082 543.53 904.518 539.725C904.758 539.524 904.408 539.181 904.175 539.382Z" fill="#1E1E1E"/>
<path d="M646.734 504.978C650.42 502.816 654.927 503.418 658.761 504.842C662.317 506.162 665.594 508.22 668.385 510.783C674.266 516.187 677.744 523.765 677.932 531.758C678.048 536.573 677.006 541.375 674.875 545.692C674.739 545.97 675.153 546.216 675.296 545.938C679.136 538.152 679.48 528.787 676.073 520.788C673.01 513.592 667.032 507.709 659.804 504.725C655.62 503.004 650.582 502.149 646.488 504.551C646.216 504.706 646.462 505.126 646.734 504.971V504.978Z" fill="#1E1E1E"/>
<path d="M673.379 529.862C675.069 534.308 674.052 539.537 670.788 543.006C670.574 543.232 670.918 543.576 671.131 543.349C674.506 539.764 675.6 534.34 673.845 529.732C673.735 529.441 673.269 529.571 673.379 529.862Z" fill="#1E1E1E"/>
<path d="M697.795 529.609C701.163 532.438 701.927 537.706 699.505 541.375C699.33 541.634 699.751 541.88 699.926 541.621C702.458 537.783 701.662 532.23 698.138 529.266C697.899 529.066 697.556 529.409 697.795 529.609Z" fill="#1E1E1E"/>
<path d="M703.825 537.803C703.915 538.812 703.799 539.822 703.462 540.786C703.358 541.084 703.831 541.207 703.928 540.916C704.272 539.919 704.401 538.851 704.304 537.803C704.291 537.673 704.2 537.557 704.058 537.557C703.935 537.557 703.805 537.667 703.812 537.803H703.825Z" fill="#1E1E1E"/>
<path d="M586.445 533.868C588.757 529.266 594.061 527.597 598.905 527.927C603.679 528.25 609.572 529.946 612.286 534.224C613.743 536.521 614.222 539.498 612.946 541.977C612.804 542.255 613.225 542.501 613.367 542.223C615.783 537.531 612.571 532.418 608.413 530.101C605.984 528.749 603.199 527.985 600.453 527.61C597.707 527.234 594.612 527.331 591.917 528.412C589.411 529.422 587.235 531.195 586.017 533.628C585.875 533.907 586.296 534.153 586.438 533.874L586.445 533.868Z" fill="#1E1E1E"/>
<path d="M605.622 537.99C607.254 538.715 609.061 539.537 610.091 541.071C610.972 542.378 611.192 544.352 610 545.543C609.78 545.763 610.124 546.106 610.344 545.886C611.613 544.624 611.522 542.579 610.68 541.103C609.664 539.317 607.669 538.366 605.862 537.57C605.577 537.447 605.331 537.861 605.616 537.99H605.622Z" fill="#1E1E1E"/>
<path d="M545.682 539.582C552.891 545.569 561.744 549.374 571.051 550.481C571.361 550.52 571.355 550.034 571.051 549.995C561.886 548.902 553.124 545.135 546.032 539.239C545.792 539.039 545.449 539.382 545.689 539.582H545.682Z" fill="#1E1E1E"/>
<path d="M871.954 411.363C847.913 411.363 828.354 391.818 828.354 367.795C828.354 343.772 847.913 324.227 871.954 324.227C895.995 324.227 915.554 343.772 915.554 367.795C915.554 391.818 895.995 411.363 871.954 411.363ZM871.954 325.638C848.691 325.638 829.76 344.549 829.76 367.802C829.76 391.055 848.684 409.965 871.954 409.965C895.224 409.965 914.148 391.055 914.148 367.802C914.148 344.549 895.224 325.638 871.954 325.638Z" fill="#72611A"/>
<path d="M830.505 359.686C832.586 359.686 834.274 358 834.274 355.919C834.274 353.839 832.586 352.153 830.505 352.153C828.423 352.153 826.735 353.839 826.735 355.919C826.735 358 828.423 359.686 830.505 359.686Z" fill="#72611A"/>
<path d="M903.832 348.102C908.314 348.102 911.947 344.471 911.947 339.992C911.947 335.514 908.314 331.883 903.832 331.883C899.35 331.883 895.717 335.514 895.717 339.992C895.717 344.471 899.35 348.102 903.832 348.102Z" fill="#72611A"/>
<path d="M897.168 407.765C899.89 407.765 902.096 405.56 902.096 402.84C902.096 400.12 899.89 397.915 897.168 397.915C894.446 397.915 892.239 400.12 892.239 402.84C892.239 405.56 894.446 407.765 897.168 407.765Z" fill="#9B862F"/>
<path d="M883.256 328.984C884.375 328.984 885.283 328.077 885.283 326.958C885.283 325.839 884.375 324.933 883.256 324.933C882.136 324.933 881.229 325.839 881.229 326.958C881.229 328.077 882.136 328.984 883.256 328.984Z" fill="#9B862F"/>
<path d="M871.954 345.202C871.637 345.202 871.378 344.943 871.378 344.626V333.042C871.378 332.725 871.637 332.466 871.954 332.466C872.272 332.466 872.531 332.725 872.531 333.042V344.626C872.531 344.943 872.272 345.202 871.954 345.202Z" fill="#847120"/>
<path d="M849.345 368.371H836.593C836.276 368.371 836.017 368.112 836.017 367.795C836.017 367.478 836.276 367.219 836.593 367.219H849.345C849.663 367.219 849.922 367.478 849.922 367.795C849.922 368.112 849.663 368.371 849.345 368.371Z" fill="#847120"/>
<path d="M907.31 368.371H895.717C895.4 368.371 895.141 368.112 895.141 367.795C895.141 367.478 895.4 367.219 895.717 367.219H907.31C907.627 367.219 907.886 367.478 907.886 367.795C907.886 368.112 907.627 368.371 907.31 368.371Z" fill="#847120"/>
<path d="M848.763 390.964C848.614 390.964 848.465 390.906 848.355 390.796C848.128 390.569 848.128 390.201 848.355 389.974L854.151 384.182C854.378 383.955 854.747 383.955 854.974 384.182C855.2 384.408 855.2 384.777 854.974 385.004L849.177 390.796C849.067 390.906 848.918 390.964 848.769 390.964H848.763Z" fill="#847120"/>
<path d="M894.849 391.255C894.7 391.255 894.551 391.197 894.441 391.087L888.936 385.586C888.709 385.36 888.709 384.991 888.936 384.764C889.162 384.538 889.531 384.538 889.758 384.764L895.263 390.265C895.49 390.492 895.49 390.861 895.263 391.087C895.153 391.197 895.004 391.255 894.855 391.255H894.849Z" fill="#847120"/>
<path d="M887.601 350.418C887.453 350.418 887.304 350.36 887.193 350.25C886.967 350.024 886.967 349.655 887.193 349.428L891.539 345.086C891.766 344.859 892.135 344.859 892.362 345.086C892.588 345.312 892.588 345.681 892.362 345.908L888.016 350.25C887.906 350.36 887.757 350.418 887.608 350.418H887.601Z" fill="#847120"/>
<path d="M856.877 350.994C856.728 350.994 856.579 350.936 856.469 350.826L850.964 345.325C850.737 345.099 850.737 344.73 850.964 344.503C851.191 344.277 851.56 344.277 851.786 344.503L857.291 350.004C857.518 350.231 857.518 350.6 857.291 350.826C857.181 350.936 857.032 350.994 856.883 350.994H856.877Z" fill="#847120"/>
<path d="M872.239 388.363C883.445 388.363 892.53 379.285 892.53 368.086C892.53 356.888 883.445 347.81 872.239 347.81C861.033 347.81 851.948 356.888 851.948 368.086C851.948 379.285 861.033 388.363 872.239 388.363Z" fill="#72611A"/>
</g>
<defs>
<clipPath id="clip0_4179_11799">
<rect width="1045" height="567" fill="white"/>
</clipPath>
</defs>
</svg>
