<svg width="1056" height="685" viewBox="0 0 1056 685" fill="none" xmlns="http://www.w3.org/2000/svg">
<g clip-path="url(#clip0_4005_6464)">
<mask id="mask0_4005_6464" style="mask-type:luminance" maskUnits="userSpaceOnUse" x="-118" y="0" width="1204" height="700">
<path d="M1086 0H-118V700H1086V0Z" fill="white"/>
</mask>
<g mask="url(#mask0_4005_6464)">
<path d="M681.218 298.604C710.322 307.734 736.052 317.255 753.417 325C753.964 323.716 754.487 322.409 755 321.091C735.314 311.833 710.102 302.088 682.164 293.327C652.897 284.146 625.449 277.546 603.442 274C602.912 275.346 602.439 276.725 602 278.143C620.791 281.371 649.5 288.653 681.218 298.604Z" fill="#343435"/>
<path d="M672 379C711.212 379 743 347.212 743 308C743 268.788 711.212 237 672 237C632.788 237 601 268.788 601 308C601 347.212 632.788 379 672 379Z" fill="#22222B"/>
<path d="M796.801 354.219C799.036 347.125 782.297 334.873 754.538 321.64C754.032 322.971 753.51 324.286 752.959 325.59C768.013 332.396 776.765 337.853 775.928 340.522C774.125 346.256 728.677 336.916 674.421 319.67C620.166 302.424 577.645 283.795 579.453 278.061C580.206 275.668 588.553 275.905 601.961 278.236C602.399 276.803 602.871 275.409 603.399 274.049C574.763 269.365 555.356 269.929 553.199 276.78C549.385 288.885 600.826 316.036 668.097 337.419C735.367 358.801 792.992 366.324 796.801 354.219Z" fill="#343435"/>
<path d="M851.986 368.432C894.197 353.973 932.788 342.903 960 337.002C959.519 334.999 958.987 332.996 958.434 331C927.178 337.124 889.003 347.476 848.48 361.361C806.024 375.905 767.986 391.922 739 406.833C739.56 408.894 740.207 410.932 740.932 413C765.853 400.501 805.988 384.197 851.986 368.439V368.432Z" fill="#4D4D4D"/>
<path d="M849.5 491C906.662 491 953 444.438 953 387C953 329.562 906.662 283 849.5 283C792.339 283 746 329.562 746 387C746 444.438 792.339 491 849.5 491Z" fill="#2B2B3A"/>
<path d="M1036.66 332.798C1033.14 322.537 1002.79 322.745 958.58 331.412C959.133 333.416 959.664 335.42 960.146 337.416C983.802 332.281 998.845 331.061 1000.17 334.917C1003.01 343.211 941.346 371.857 862.431 398.894C783.517 425.931 717.239 441.126 714.394 432.832C713.209 429.37 723.252 422.376 741.075 413.428C740.349 411.367 739.703 409.321 739.143 407.26C701.327 426.713 678.935 444.278 682.34 454.196C688.346 471.718 772.533 458.741 870.377 425.22C968.22 391.698 1042.67 350.32 1036.66 332.798Z" fill="#4D4D4D"/>
<path d="M1.28988 151.872C17.7261 127.236 47.8567 119.146 71.8932 132.159C97.5825 146.069 109.802 180.574 98.8493 211.004C106.449 191.722 122.893 181.887 136.078 185.657C145.833 188.452 151.147 197.941 152.769 201.143C184.63 163.952 224.886 158.454 242.628 175.796C254.901 187.8 254.747 209.132 254.183 218.035C271.113 200.44 280.614 201.05 284.993 202.549C311.895 211.732 303.36 308.207 302.966 312.375C303.267 296.745 305.917 268.382 322.222 240.57C336.07 216.951 366.873 181.607 386.406 191.29C400.294 198.178 405.322 226.244 401.808 257.462C428.254 235.241 455.766 236.944 463.428 249.016C469.538 258.64 464.718 277.531 453.156 294.068C495.992 278.768 539.222 293.433 558.416 326.455C573.261 351.98 569.121 380.538 567.398 389.814C571.616 387.857 581.958 383.833 594.355 387.002C616.954 392.762 625.682 417.144 626.447 419.389C645.038 416.178 700.534 407.757 707.323 426.428C709.022 431.113 708.837 440.712 690.632 460.222C677.571 470.701 648.707 490.931 607.192 496.828C566.827 502.563 534.997 491.846 519.897 485.56C509.949 490.415 492.864 496.997 471.113 496.828C457.466 496.717 446.057 493.99 437.739 491.194C438.372 498.005 436.99 502.368 435.175 505.274C425.62 520.523 390.747 516.77 347.88 496.828C330.772 506.655 308.805 516.507 282.413 522.175C203.638 539.084 138.696 507.265 112.968 492.609C102.124 506.443 91.1641 508.908 87.2944 509.501C65.4438 512.89 40.0943 492.456 29.5281 457.409C28.1533 459.527 24.5076 464.525 17.9733 467.262C9.45394 470.828 1.96185 468.058 0 467.262C0.424809 362.129 0.857342 257.005 1.28215 151.872H1.28988Z" fill="#292933"/>
<path d="M1074.99 691C976.283 608.691 820.614 557 645.483 557C470.352 557 329.088 608.123 230 684.012L1075 690.992L1074.99 691Z" fill="#605E5E"/>
<path d="M827.988 527.915C809.898 465.838 790.345 408.094 770.334 354.879C769.556 352.128 766.933 344.214 759.081 338.001C751.576 332.059 743.691 331.162 740.797 330.967C740.789 333.744 740.772 336.528 740.763 339.305C740.755 336.528 740.738 333.744 740.729 330.967C737.836 331.162 729.95 332.059 722.445 338.001C714.593 344.214 711.971 352.128 711.192 354.879C691.182 408.094 671.628 465.838 653.539 527.915C637.218 583.924 623.807 637.562 612.757 688.289H868.761C857.711 637.562 844.301 583.932 827.979 527.915H827.988Z" fill="#373751"/>
<path d="M822.294 453.353C821.211 450.56 810.804 451.55 804.01 453.353C798.392 454.843 794.11 457.204 791.352 458.982C774.007 470.705 756.662 482.428 739.325 494.151C721.98 482.428 704.635 470.705 687.299 458.982C684.54 457.204 680.268 454.851 674.641 453.353C667.847 451.55 657.44 450.56 656.357 453.353C655.68 455.097 658.387 459.024 674.641 468.826C664.894 471.213 663.32 472.415 663.388 473.049C663.54 474.353 670.901 474.717 676.046 474.455C680.2 474.243 683.601 473.591 685.886 473.049C690.573 479.347 697.003 486.804 705.574 494.151C716.887 503.851 727.996 509.988 736.508 513.848C737.515 520.577 738.192 528.652 737.912 537.759C737.557 549.44 735.721 559.453 733.69 567.3H744.943C742.913 559.453 741.085 549.44 740.721 537.759C740.442 528.652 741.128 520.577 742.126 513.848C750.638 509.988 761.747 503.851 773.059 494.151C781.63 486.804 788.061 479.347 792.748 473.049C795.033 473.591 798.434 474.243 802.588 474.455C807.724 474.717 815.094 474.345 815.246 473.049C815.322 472.423 813.74 471.221 803.993 468.826C820.238 459.024 822.954 455.097 822.277 453.353H822.294Z" fill="#968127"/>
<path d="M774.481 451.948C767.763 449.002 761.899 445.837 756.899 442.807C755.148 437.186 753.574 430.576 752.677 423.11C752.296 419.902 752.076 416.846 751.975 413.969C748.226 413.503 744.478 413.029 740.722 412.563C736.973 413.029 733.225 413.503 729.468 413.969C729.367 416.855 729.147 419.911 728.766 423.11C727.878 430.576 726.304 437.186 724.544 442.807C719.552 445.845 713.689 449.002 706.962 451.948C699.83 455.071 693.171 457.331 687.273 458.982C691.614 465.144 699.626 474.852 712.589 482.894C723.529 489.682 733.817 492.704 740.713 494.151C747.609 492.712 757.897 489.69 768.837 482.894C781.791 474.852 789.812 465.135 794.153 458.982C788.255 457.331 781.597 455.071 774.464 451.948H774.481Z" fill="#BBBBBB"/>
<path d="M771.511 375.981C771.071 375.549 769.514 374.22 765.884 374.576C761.442 371.198 755.79 366.179 750.418 359.103C745.823 353.051 742.777 347.261 740.738 342.589C740.738 342.462 740.738 342.343 740.738 342.216C740.713 342.276 740.687 342.335 740.662 342.394C740.637 342.335 740.603 342.276 740.586 342.216C740.586 342.343 740.586 342.47 740.586 342.589C738.547 347.261 735.501 353.051 730.906 359.094C725.534 366.17 719.882 371.198 715.44 374.567C711.818 374.212 710.253 375.549 709.813 375.972C706.7 378.994 708.527 386.316 712.622 390.04C714.661 391.894 716.946 392.571 718.249 392.85C718.646 396.041 719.662 400.68 722.471 405.513C726.828 413.012 732.548 416.423 736.66 418.133C739.274 419.225 742.244 419.225 744.85 418.116C748.911 416.398 754.53 412.987 758.87 405.513C761.679 400.68 762.694 396.041 763.092 392.85C764.395 392.571 766.68 391.885 768.719 390.04C772.814 386.316 774.641 378.994 771.528 375.972L771.511 375.981Z" fill="#BBBBBB"/>
<path d="M868.94 687.925C867.501 665.85 866.52 642.852 866.131 618.991C865.868 603.129 865.885 587.648 866.131 572.565C872.739 571.811 878.095 571.396 881.597 571.159C893.857 570.33 899.332 570.643 911.126 569.754C917.269 569.289 922.21 568.722 925.188 568.349C929.622 564.803 934.385 560.613 939.251 555.687C943.566 551.319 947.289 547.045 950.504 543.024C950.25 542.795 948.634 541.374 946.282 541.619C943.532 541.898 942.187 544.209 942.06 544.429C937.838 548.653 933.624 552.868 929.402 557.092C928.463 557.557 927.524 558.031 926.593 558.497C927.058 554.747 927.532 550.997 927.997 547.239C924.249 540.671 920.501 534.111 916.744 527.543C915.416 526.028 913.555 525.537 912.522 526.138C911.27 526.874 910.737 529.54 912.522 531.766C910.458 531.064 909.053 531.064 908.3 531.766C906.71 533.265 908.114 537.954 912.522 545.834C909.239 544.895 905.957 543.955 902.682 543.024C901.921 543.278 900.922 543.701 899.873 544.429C898.486 545.394 897.589 546.486 897.064 547.239C895.66 549.584 894.255 551.928 892.842 554.273C893.324 554.662 894.94 555.864 897.064 555.678C899.695 555.45 902.039 553.19 902.691 550.049C904.569 551.454 906.439 552.86 908.317 554.273C907.378 556.618 906.439 558.962 905.508 561.307C900.821 560.367 896.133 559.428 891.446 558.497C888.637 557.092 885.819 555.687 883.01 554.273C884.22 553.181 885.938 551.353 887.232 548.644C887.985 547.07 888.4 545.606 888.637 544.421C890.101 543.862 892.504 542.677 894.263 540.197C894.864 539.35 896.421 537.15 895.668 535.973C895.008 534.941 892.698 534.881 890.041 535.973C884.889 538.783 879.727 541.602 874.575 544.412C869.887 545.817 865.2 547.222 860.513 548.636C858.956 548.661 855.377 548.958 852.077 551.446C845.63 556.321 846.391 564.955 846.45 565.514C840.824 606.312 835.197 647.11 829.579 687.899C842.702 687.899 855.825 687.899 868.957 687.899L868.94 687.925Z" fill="#BBBBBB"/>
<path d="M808.452 588.334C806.556 588.334 804.822 588.833 803.417 589.662C794.263 580.733 773.305 564.185 743.141 564.498C710.972 564.837 689.541 584.135 680.936 593.556C679.413 591.973 676.993 590.941 674.26 590.941C669.649 590.941 665.909 593.861 665.909 597.458C665.909 601.055 669.649 603.976 674.26 603.976C676.604 603.976 678.728 603.214 680.242 602.003C688.382 611.094 710.736 631.916 744.241 630.672C775.191 629.521 795.346 610.299 803.823 600.285C805.152 600.971 806.734 601.377 808.452 601.377C813.063 601.377 816.803 598.457 816.803 594.86C816.803 591.262 813.063 588.342 808.452 588.342V588.334ZM743.97 623.655C710.338 624.891 690.201 599.659 688.069 596.883C690.666 593.548 710.084 569.492 743.057 569.153C774.735 568.823 794.22 590.644 797.131 594.013C795.007 597.077 776.774 622.445 743.979 623.655H743.97Z" fill="#968127"/>
<path d="M740.746 581.19C759.792 581.004 772.297 592.176 776.181 596.163C776.257 595.892 776.325 595.621 776.392 595.325C776.697 593.929 776.807 592.659 776.824 591.584C781.647 589.07 786.478 586.548 791.301 584.034C789.947 584.482 769.911 591.025 766.595 585.295C766.155 584.533 765.909 583.382 766.408 581.588C773.253 574.215 780.107 566.851 786.952 559.479C769.767 574.757 759.775 581.257 756.983 578.972C756.331 578.439 756.069 577.415 756.204 575.916C758.337 565.074 760.469 554.222 762.593 543.38C754.352 563.719 748.657 573.504 745.518 572.742C744.655 572.531 743.987 571.532 743.505 569.746C743.081 565.573 742.557 560.114 742.066 553.715C740.653 535.355 739.172 508.176 738.885 503.961C738.851 503.005 738.817 502.582 738.783 502.582C738.572 502.582 738.369 531.42 737.328 553.892C737.032 560.3 736.685 565.776 736.38 569.958C735.957 571.76 735.314 572.776 734.46 573.013C731.338 573.868 725.347 564.261 716.488 544.184C718.951 554.959 721.413 565.734 723.867 576.509C724.053 578.007 723.824 579.031 723.181 579.59C720.465 581.96 710.278 575.773 692.637 561.028C699.71 568.18 706.775 575.341 713.849 582.493C714.399 584.271 714.187 585.43 713.773 586.201C710.634 592.033 690.412 586.107 689.041 585.693C693.94 588.063 698.839 590.433 703.738 592.794C703.78 593.869 703.932 595.13 704.279 596.519C704.398 597.001 704.542 597.441 704.685 597.864C708.527 593.565 721.041 581.367 740.729 581.164L740.746 581.19Z" fill="#C9B243"/>
<path d="M787.503 636.123C780.514 628.886 773.534 621.649 766.545 614.412C766.02 612.626 766.24 611.475 766.663 610.705C769.87 604.915 790.024 611.069 791.386 611.501C786.513 609.071 781.639 606.651 776.774 604.221C776.74 603.146 776.613 601.885 776.275 600.489C776.148 599.972 776.004 599.498 775.86 599.05C771.892 603.84 760.191 615.8 741.373 616.461C720.754 617.189 707.656 603.781 704.356 599.972C704.297 600.192 704.238 600.404 704.179 600.641C703.857 602.037 703.73 603.299 703.705 604.374C698.848 606.837 694 609.291 689.144 611.755C690.506 611.314 710.609 605.017 713.858 610.781C714.29 611.551 714.518 612.703 714.002 614.488C707.072 621.776 700.134 629.064 693.205 636.352C710.567 621.268 720.635 614.895 723.394 617.214C724.045 617.756 724.291 618.78 724.13 620.278C721.871 631.096 719.62 641.913 717.361 652.739C725.839 632.501 731.643 622.775 734.782 623.579C735.637 623.799 736.297 624.807 736.754 626.601C737.134 630.782 737.583 636.242 738.006 642.649C739.47 665.105 740.223 693.926 740.434 693.926C740.468 693.926 740.493 693.503 740.51 692.547C740.722 688.331 741.686 661.127 742.752 642.742C743.125 636.335 743.539 630.867 743.886 626.686C744.335 624.891 744.986 623.875 745.841 623.655C748.971 622.834 754.852 632.518 763.473 652.688C761.138 641.888 758.803 631.079 756.468 620.278C756.298 618.78 756.544 617.756 757.187 617.206C759.937 614.869 770.039 621.175 787.511 636.123H787.503Z" fill="#C9B243"/>
<path d="M703.646 599.134C705.397 596.976 718.503 581.418 740.747 581.198C762.119 580.987 775.268 595.097 777.231 597.28C775.792 599.261 763.49 615.673 741.365 616.461C718.672 617.265 705.084 600.937 703.646 599.143V599.134Z" fill="#B3B3B3"/>
<path opacity="0.63" d="M709.83 598.448C711.285 596.671 722.192 583.856 740.696 583.67C758.481 583.492 769.412 595.122 771.045 596.916C769.852 598.55 759.615 612.068 741.212 612.711C722.335 613.371 711.032 599.921 709.83 598.44V598.448Z" fill="#E6E6E6"/>
<path d="M741.051 612.736C749.074 612.736 755.578 606.229 755.578 598.203C755.578 590.176 749.074 583.67 741.051 583.67C733.028 583.67 726.523 590.176 726.523 598.203C726.523 606.229 733.028 612.736 741.051 612.736Z" fill="#B3B3B3"/>
<path d="M741.052 607.175C746.005 607.175 750.02 603.158 750.02 598.203C750.02 593.248 746.005 589.231 741.052 589.231C736.098 589.231 732.083 593.248 732.083 598.203C732.083 603.158 736.098 607.175 741.052 607.175Z" fill="#1A1A1A"/>
<path d="M838.59 567.291C842.245 565.937 845.909 564.583 849.581 563.254" stroke="#C9B243" stroke-width="1.46" stroke-miterlimit="10" stroke-linecap="round"/>
<path d="M830.712 570.22C831.778 569.822 832.844 569.424 833.91 569.027" stroke="#C9B243" stroke-width="1.46" stroke-miterlimit="10" stroke-linecap="round"/>
<path d="M809.095 578.253C814.577 576.238 820.043 574.198 825.518 572.158" stroke="#C9B243" stroke-width="1.46" stroke-miterlimit="10" stroke-linecap="round"/>
<path d="M799.491 581.816C801.09 581.224 802.69 580.631 804.289 580.039" stroke="#C9B243" stroke-width="1.46" stroke-miterlimit="10" stroke-linecap="round"/>
<path d="M800.431 650.877C797.664 648.126 794.889 645.383 792.105 642.649" stroke="#C9B243" stroke-width="1.46" stroke-miterlimit="10" stroke-linecap="round"/>
<path d="M806.379 656.802C805.575 655.998 804.763 655.194 803.959 654.389" stroke="#C9B243" stroke-width="1.46" stroke-miterlimit="10" stroke-linecap="round"/>
<path d="M798.011 548.145C800.938 545.563 803.866 542.982 806.776 540.383" stroke="#C9B243" stroke-width="1.46" stroke-miterlimit="10" stroke-linecap="round"/>
<path d="M791.699 553.689C792.554 552.936 793.408 552.183 794.271 551.438" stroke="#C9B243" stroke-width="1.46" stroke-miterlimit="10" stroke-linecap="round"/>
<path d="M678.736 548.145C675.809 545.563 672.881 542.982 669.971 540.383" stroke="#C9B243" stroke-width="1.46" stroke-miterlimit="10" stroke-linecap="round"/>
<path d="M685.048 553.689C684.193 552.936 683.339 552.183 682.476 551.438" stroke="#C9B243" stroke-width="1.46" stroke-miterlimit="10" stroke-linecap="round"/>
<path d="M677.417 649.853C674.481 652.417 655.24 669.541 652.321 672.122" stroke="#C9B243" stroke-width="1.46" stroke-miterlimit="10" stroke-linecap="round"/>
<path d="M683.753 644.334C682.89 645.079 682.036 645.832 681.173 646.577" stroke="#C9B243" stroke-width="1.46" stroke-miterlimit="10" stroke-linecap="round"/>
<path d="M703.603 599.549C708.781 594.081 714.788 589.468 721.405 585.879C721.667 585.735 721.43 585.337 721.168 585.481C714.517 589.087 708.476 593.734 703.273 599.227C703.07 599.447 703.391 599.769 703.603 599.557V599.549Z" fill="#1A1A1A"/>
<path d="M723.977 584.745C724.941 584.635 725.872 584.381 726.76 583.983C726.879 583.932 726.904 583.763 726.845 583.67C726.777 583.551 726.642 583.534 726.532 583.585C725.728 583.941 724.857 584.178 723.985 584.288C723.858 584.305 723.757 584.381 723.757 584.516C723.757 584.626 723.867 584.762 723.985 584.745H723.977Z" fill="#1A1A1A"/>
<path d="M732.158 582.07C744.181 579.251 757.161 581.689 767.517 588.367C770.487 590.28 773.203 592.549 775.631 595.113C775.834 595.334 776.164 595.004 775.961 594.783C767.356 585.693 754.978 580.513 742.481 580.445C738.969 580.428 735.458 580.826 732.04 581.63C731.752 581.698 731.871 582.146 732.167 582.078L732.158 582.07Z" fill="#1A1A1A"/>
<path d="M777.239 597.602C777.535 597.602 777.535 597.137 777.239 597.137C776.943 597.137 776.943 597.602 777.239 597.602Z" fill="#1A1A1A"/>
<path d="M729.722 591.313C729.18 591.923 728.8 592.651 728.613 593.438C728.546 593.726 728.994 593.853 729.062 593.565C729.231 592.854 729.561 592.194 730.052 591.643C730.136 591.55 730.145 591.406 730.052 591.313C729.967 591.229 729.806 591.22 729.722 591.313Z" fill="#4D4D4D"/>
<path d="M728.224 596.553C727.869 601.623 730.263 606.667 734.392 609.63C734.638 609.808 734.866 609.401 734.629 609.232C730.636 606.363 728.351 601.462 728.69 596.561C728.706 596.265 728.25 596.265 728.224 596.561V596.553Z" fill="#4D4D4D"/>
<path d="M739.232 611.221H740.857C740.984 611.221 741.085 611.111 741.085 610.993C741.085 610.874 740.975 610.764 740.857 610.764H739.232C739.105 610.764 739.004 610.874 739.004 610.993C739.004 611.111 739.114 611.221 739.232 611.221Z" fill="#4D4D4D"/>
<path d="M738.547 609.021C741.474 609.74 744.664 609.232 747.177 607.531C749.521 605.948 751.145 603.451 751.704 600.692C751.763 600.404 751.315 600.277 751.255 600.565C750.722 603.206 749.182 605.609 746.94 607.133C744.529 608.767 741.483 609.266 738.665 608.572C738.378 608.504 738.251 608.944 738.538 609.021H738.547Z" fill="#4D4D4D"/>
<path d="M744.173 587.843C744.283 587.817 744.351 587.809 744.478 587.809C744.596 587.809 744.706 587.809 744.825 587.826C744.791 587.826 744.85 587.826 744.859 587.826C744.893 587.826 744.926 587.834 744.96 587.843C745.019 587.851 745.07 587.868 745.129 587.885C745.189 587.902 745.239 587.919 745.29 587.936C745.349 587.961 745.358 587.961 745.417 587.987C745.527 588.037 745.671 588.02 745.73 587.902C745.781 587.8 745.764 587.64 745.646 587.589C745.146 587.352 744.588 587.276 744.038 587.386C743.919 587.411 743.843 587.555 743.877 587.673C743.92 587.8 744.038 587.86 744.165 587.834L744.173 587.843Z" fill="#4D4D4D"/>
<path d="M747.609 589.502C749.47 590.602 750.773 592.566 751.044 594.716C751.078 595.012 751.543 595.012 751.509 594.716C751.222 592.397 749.859 590.297 747.846 589.104C747.592 588.952 747.355 589.349 747.609 589.502Z" fill="#4D4D4D"/>
<path d="M715.16 603.739C721.515 609.156 729.578 612.389 737.904 612.889C746.136 613.388 754.377 611.044 761.214 606.456C764.953 603.95 768.219 600.81 770.876 597.179C771.054 596.934 770.648 596.705 770.478 596.942C765.774 603.383 759.022 608.233 751.441 610.697C743.86 613.16 735.365 613.016 727.717 610.383C723.249 608.843 719.095 606.473 715.499 603.409C715.27 603.214 714.94 603.544 715.169 603.739H715.16Z" fill="#1A1A1A"/>
<path d="M704.982 600.92C706.302 602.114 707.622 603.299 708.941 604.492C709.161 604.695 709.491 604.365 709.271 604.162C707.952 602.968 706.632 601.784 705.312 600.59C705.092 600.387 704.762 600.717 704.982 600.92Z" fill="#1A1A1A"/>
<path d="M712.512 607.497C715.973 609.994 719.62 611.865 723.605 613.346C729.773 615.64 736.457 617.079 743.065 616.588C753.734 615.809 763.532 610.273 771.452 603.349C773.542 601.521 775.598 599.574 777.383 597.433C777.569 597.204 777.248 596.874 777.053 597.103C772.746 602.258 767.213 606.651 761.451 610.028C756.56 612.889 751.196 615.022 745.57 615.851C738.843 616.833 731.99 615.699 725.593 613.557C720.965 612 716.709 609.952 712.741 607.091C712.496 606.913 712.267 607.319 712.504 607.488L712.512 607.497Z" fill="#1A1A1A"/>
<path d="M709.974 598.626C715.211 592.397 722.276 587.606 730.111 585.329C739.367 582.637 749.351 583.763 758.015 587.902C762.872 590.221 767.229 593.48 770.876 597.441C771.079 597.661 771.409 597.331 771.206 597.111C764.132 589.426 754.368 584.542 743.961 583.551C735.382 582.739 726.743 585.041 719.501 589.671C715.812 592.033 712.47 594.953 709.652 598.305C709.458 598.533 709.787 598.863 709.982 598.635L709.974 598.626Z" fill="#1A1A1A"/>
<path d="M739.461 543.625C739.622 544.446 739.664 545.292 739.588 546.13C739.58 546.257 739.706 546.359 739.816 546.359C739.952 546.359 740.036 546.249 740.045 546.13C740.13 545.25 740.079 544.37 739.901 543.506C739.842 543.21 739.393 543.337 739.453 543.633L739.461 543.625Z" fill="#1A1A1A"/>
<path d="M739.376 549.973C739.249 559.208 739.486 568.451 740.087 577.669C740.104 577.965 740.569 577.965 740.552 577.669C739.96 568.451 739.723 559.208 739.841 549.973C739.841 549.677 739.384 549.677 739.376 549.973Z" fill="#1A1A1A"/>
<path d="M756.602 561.866C756.34 562.348 756.069 562.831 755.807 563.313C755.748 563.423 755.782 563.567 755.892 563.627C756.002 563.686 756.146 563.66 756.205 563.542C756.467 563.059 756.738 562.577 757 562.094C757.059 561.984 757.026 561.84 756.916 561.781C756.806 561.722 756.662 561.747 756.602 561.866Z" fill="#1A1A1A"/>
<path d="M754.893 566.377C753.379 570.5 751.856 574.613 750.341 578.735C750.239 579.015 750.688 579.133 750.789 578.862C752.304 574.74 753.827 570.626 755.342 566.504C755.443 566.225 754.995 566.107 754.893 566.377Z" fill="#1A1A1A"/>
<path d="M761.992 582.908C762.576 583.077 763.278 582.663 763.371 582.045C763.388 581.926 763.338 581.791 763.211 581.757C763.101 581.732 762.948 581.791 762.923 581.918C762.923 581.943 762.915 581.977 762.906 582.002C762.906 582.028 762.872 582.062 762.881 582.087C762.898 582.053 762.898 582.045 762.889 582.062C762.889 582.062 762.889 582.079 762.881 582.079C762.881 582.096 762.864 582.104 762.864 582.121C762.847 582.146 762.838 582.172 762.822 582.197C762.822 582.197 762.813 582.223 762.83 582.197C762.83 582.197 762.805 582.223 762.805 582.231C762.788 582.248 762.771 582.273 762.745 582.29C762.737 582.299 762.72 582.307 762.712 582.316C762.703 582.324 762.669 582.341 762.695 582.333C762.728 582.324 762.695 582.333 762.678 582.341C762.669 582.341 762.652 582.358 762.644 582.366C762.618 582.383 762.602 582.392 762.576 582.409C762.559 582.409 762.551 582.426 762.534 582.426C762.525 582.426 762.517 582.426 762.508 582.434H762.534C762.534 582.434 762.466 582.443 762.449 582.451C762.424 582.451 762.39 582.468 762.365 582.468C762.339 582.468 762.322 582.468 762.365 582.468C762.348 582.468 762.339 582.468 762.322 582.468C762.297 582.468 762.263 582.468 762.238 582.468C762.221 582.468 762.212 582.468 762.195 582.468C762.153 582.468 762.238 582.476 762.204 582.468C762.17 582.468 762.145 582.46 762.111 582.451C761.992 582.417 761.857 582.493 761.823 582.612C761.789 582.73 761.857 582.866 761.984 582.9L761.992 582.908Z" fill="#1A1A1A"/>
<path d="M764.193 581.08C767.306 578.159 770.411 575.239 773.525 572.319C773.745 572.116 773.415 571.786 773.195 571.989C770.081 574.909 766.976 577.829 763.863 580.75C763.643 580.953 763.973 581.283 764.193 581.08Z" fill="#1A1A1A"/>
<path d="M722.809 563.863C723.199 564.371 723.469 564.938 723.605 565.556C723.63 565.675 723.774 565.751 723.892 565.717C724.019 565.683 724.078 565.556 724.053 565.429C723.909 564.778 723.622 564.151 723.215 563.618C723.139 563.516 723.012 563.466 722.902 563.533C722.801 563.593 722.742 563.753 722.818 563.846L722.809 563.863Z" fill="#1A1A1A"/>
<path d="M724.849 569.094C725.898 571.964 726.913 574.842 727.886 577.737C727.979 578.016 728.428 577.897 728.335 577.61C727.362 574.715 726.346 571.828 725.297 568.967C725.196 568.688 724.747 568.807 724.849 569.094Z" fill="#1A1A1A"/>
<path d="M728.944 579.819C728.944 579.819 728.969 579.819 728.977 579.819H728.918C728.918 579.819 728.969 579.818 728.994 579.835L728.935 579.81C728.935 579.81 728.986 579.835 729.003 579.852L728.952 579.819C728.952 579.819 729.003 579.861 729.02 579.886L728.986 579.835C728.986 579.835 729.02 579.886 729.037 579.92L729.011 579.861C729.011 579.861 729.037 579.92 729.037 579.954V579.895C729.037 579.895 729.037 579.945 729.037 579.979V579.92C729.037 579.92 729.037 579.971 729.028 579.996L729.054 579.937C729.054 579.937 729.028 579.996 729.028 580.03C729.028 580.064 729.028 580.089 729.028 580.123C729.045 580.174 729.087 580.233 729.138 580.259C729.189 580.284 729.257 580.301 729.316 580.284C729.367 580.267 729.434 580.233 729.451 580.174C729.468 580.132 729.494 580.089 729.494 580.039C729.494 579.988 729.511 579.945 729.494 579.895C729.485 579.802 729.46 579.708 729.4 579.624C729.299 579.463 729.121 579.353 728.927 579.344C728.867 579.344 728.808 579.37 728.766 579.412C728.724 579.455 728.698 579.522 728.698 579.573C728.698 579.7 728.8 579.802 728.927 579.802L728.944 579.819Z" fill="#1A1A1A"/>
<path d="M710.685 576.568C713.265 578.667 715.905 580.699 718.596 582.654C718.841 582.832 719.069 582.425 718.832 582.256C716.176 580.318 713.561 578.32 711.015 576.247C710.786 576.06 710.456 576.39 710.685 576.577V576.568Z" fill="#1A1A1A"/>
<path d="M719.814 583.755C719.865 583.805 719.924 583.865 719.975 583.915C719.991 583.941 720.017 583.958 720.051 583.966C720.076 583.983 720.11 583.992 720.144 583.983C720.178 583.983 720.203 583.983 720.237 583.966C720.262 583.958 720.288 583.941 720.313 583.915L720.347 583.865C720.347 583.865 720.381 583.788 720.381 583.746V583.687C720.381 583.687 720.338 583.611 720.313 583.585C720.262 583.535 720.203 583.475 720.152 583.425C720.135 583.399 720.11 583.382 720.076 583.374C720.051 583.357 720.017 583.348 719.983 583.357C719.949 583.357 719.924 583.357 719.89 583.374C719.865 583.382 719.839 583.399 719.814 583.425L719.78 583.475C719.78 583.475 719.746 583.551 719.746 583.594V583.653C719.746 583.653 719.788 583.729 719.814 583.755Z" fill="#1A1A1A"/>
<path d="M704.864 591.051C705.879 591.33 706.92 591.482 707.977 591.525C708.273 591.533 708.273 591.068 707.977 591.059C706.97 591.025 705.964 590.873 704.991 590.602C704.703 590.526 704.576 590.975 704.864 591.051Z" fill="#1A1A1A"/>
<path d="M773.999 590.45C775.327 590.01 776.655 589.578 777.992 589.138C778.271 589.045 778.153 588.596 777.865 588.689C776.537 589.129 775.209 589.561 773.872 590.001C773.592 590.094 773.711 590.543 773.999 590.45Z" fill="#1A1A1A"/>
<path d="M750.35 617.002C750.502 617.222 750.638 617.476 750.731 617.713C750.824 617.95 750.892 618.247 750.917 618.492C750.934 618.619 751.01 618.721 751.145 618.721C751.264 618.721 751.391 618.611 751.374 618.492C751.306 617.874 751.103 617.282 750.748 616.765C750.68 616.664 750.545 616.613 750.435 616.681C750.333 616.74 750.282 616.892 750.35 616.994V617.002Z" fill="#1A1A1A"/>
<path d="M751.78 620.786C753.701 625.357 755.647 629.911 757.398 634.549C757.5 634.828 757.948 634.71 757.847 634.422C756.095 629.784 754.149 625.23 752.229 620.659C752.119 620.388 751.662 620.507 751.78 620.786Z" fill="#1A1A1A"/>
<path d="M740.23 618.814V620.092C740.23 620.211 740.34 620.329 740.459 620.321C740.577 620.312 740.687 620.219 740.687 620.092V618.814C740.687 618.695 740.577 618.577 740.459 618.585C740.34 618.594 740.23 618.687 740.23 618.814Z" fill="#1A1A1A"/>
<path d="M740.273 622.496C740.375 629.115 740.468 635.725 740.57 642.344C740.57 642.641 741.035 642.641 741.035 642.344C740.933 635.725 740.84 629.115 740.739 622.496C740.739 622.199 740.273 622.199 740.273 622.496Z" fill="#1A1A1A"/>
<path d="M729.849 616.994C729.629 617.629 729.4 618.272 729.18 618.907C729.138 619.025 729.231 619.161 729.341 619.195C729.468 619.228 729.586 619.152 729.629 619.034C729.849 618.399 730.077 617.756 730.297 617.121C730.34 617.002 730.246 616.867 730.136 616.833C730.01 616.799 729.891 616.875 729.849 616.994Z" fill="#1A1A1A"/>
<path d="M728.774 620.473C726.287 625.458 724.307 630.672 722.86 636.056C722.784 636.343 723.232 636.47 723.309 636.183C724.739 630.842 726.702 625.653 729.172 620.71C729.308 620.447 728.901 620.21 728.774 620.473Z" fill="#1A1A1A"/>
<path d="M710.507 620.854C713.265 618.501 715.939 616.054 718.545 613.532C718.756 613.32 718.435 612.999 718.215 613.202C715.617 615.724 712.935 618.17 710.177 620.524C709.948 620.718 710.278 621.048 710.507 620.854Z" fill="#1A1A1A"/>
<path d="M760.385 612.262C763.143 614.59 765.867 616.968 768.6 619.322C768.829 619.516 769.159 619.186 768.93 618.991C766.189 616.638 763.473 614.268 760.715 611.932C760.486 611.737 760.156 612.068 760.385 612.262Z" fill="#1A1A1A"/>
<path d="M772.111 604.526C773.338 604.763 774.506 605.212 775.563 605.872C775.817 606.033 776.054 605.626 775.8 605.474C774.709 604.797 773.499 604.323 772.23 604.086C771.942 604.027 771.815 604.475 772.103 604.535L772.111 604.526Z" fill="#1A1A1A"/>
<path d="M703.722 606.71C704.255 606.566 704.796 606.414 705.329 606.27C705.617 606.194 705.498 605.745 705.202 605.821C704.669 605.965 704.128 606.117 703.595 606.261C703.307 606.338 703.425 606.786 703.722 606.71Z" fill="#1A1A1A"/>
<path d="M671.045 595.545C669.725 596.553 669.09 598.372 669.632 599.972C670.173 601.572 671.747 602.664 673.414 602.672C673.71 602.672 673.71 602.207 673.414 602.207C671.959 602.207 670.546 601.242 670.08 599.845C669.615 598.449 670.123 596.823 671.282 595.943C671.519 595.765 671.282 595.359 671.045 595.545Z" fill="#1A1A1A"/>
<path d="M811.184 593.429C812.454 593.548 813.291 594.868 813.232 596.07C813.164 597.424 812.149 598.55 811.032 599.21C810.778 599.363 811.007 599.76 811.269 599.608C812.572 598.846 813.731 597.484 813.697 595.901C813.672 594.487 812.64 593.099 811.184 592.964C810.888 592.938 810.888 593.404 811.184 593.429Z" fill="#1A1A1A"/>
<path d="M740.729 404.133C738.132 404.268 735.847 405.589 734.959 407.493C736.237 407.866 738.242 408.331 740.763 408.374C743.716 408.424 746.051 407.883 747.405 407.476C746.381 405.343 743.623 403.989 740.729 404.133Z" fill="#31313F"/>
<path d="M744.749 387.687C746.213 387.078 748.227 386.434 750.689 386.172C754.682 385.757 757.931 386.578 759.818 387.23C761.629 386.062 763.448 384.902 765.258 383.734C763.042 383.878 760.833 384.013 758.617 384.157C757.694 383.76 754.835 382.651 751.281 383.489C747.473 384.386 745.35 386.917 744.757 387.678L744.749 387.687Z" fill="#1E1E1E"/>
<path d="M746.305 374.525C746.94 374.296 747.845 374 748.945 373.78C750.079 373.551 751.813 373.213 753.996 373.501C755.925 373.746 757.516 374.389 758.7 375.024C757.541 373.772 755.485 371.994 752.532 371.342C751.382 371.088 748.065 370.36 746.762 372.113C746.187 372.891 746.212 373.882 746.305 374.525Z" fill="#1E1E1E"/>
<path d="M737.126 387.687C735.662 387.078 733.648 386.434 731.186 386.172C727.192 385.757 723.943 386.578 722.057 387.23C720.246 386.062 718.427 384.902 716.616 383.734C718.833 383.878 721.041 384.013 723.258 384.157C724.18 383.76 727.04 382.651 730.594 383.489C734.401 384.386 736.525 386.917 737.117 387.678L737.126 387.687Z" fill="#1E1E1E"/>
<path d="M735.611 374.246C734.967 374.042 734.054 373.797 732.937 373.619C731.795 373.441 730.052 373.187 727.877 373.568C725.957 373.907 724.4 374.61 723.249 375.304C724.349 373.992 726.32 372.129 729.248 371.351C730.382 371.046 733.673 370.174 735.044 371.859C735.653 372.612 735.67 373.602 735.611 374.246Z" fill="#1E1E1E"/>
<path d="M740.028 350.664C747.406 350.664 753.388 344.68 753.388 337.299C753.388 329.917 747.406 323.933 740.028 323.933C732.649 323.933 726.668 329.917 726.668 337.299C726.668 344.68 732.649 350.664 740.028 350.664Z" fill="#927D23"/>
<path d="M739.249 323.933C743.59 323.933 747.109 320.413 747.109 316.07C747.109 311.727 743.59 308.207 739.249 308.207C734.908 308.207 731.389 311.727 731.389 316.07C731.389 320.413 734.908 323.933 739.249 323.933Z" fill="#AA9330"/>
<path opacity="0.38" d="M1023.11 506.456C1018.88 506.32 1013.72 505.838 1007.99 504.568C1003.05 503.476 998.747 502.037 995.151 500.59C989.66 486.717 988.01 462.348 988.281 456C988.078 462.467 987.333 470.33 985.396 479.082C983.551 487.437 981.064 494.58 978.618 500.395C975.31 501.657 971.469 502.875 967.128 503.84C961.392 505.11 956.239 505.601 952 505.728C955.807 505.567 969.514 506.456 978.779 509.368C981.165 515.115 983.585 522.123 985.387 530.291C987.325 539.052 988.069 546.907 988.272 553.374C988.018 547.313 989.499 524.84 994.407 510.739C1003.58 507.302 1019.02 506.27 1023.1 506.439L1023.11 506.456Z" fill="#C9B243"/>
<path opacity="0.38" d="M791 281.83C788.976 281.767 786.514 281.534 783.765 280.937C781.402 280.42 779.348 279.744 777.629 279.062C775.001 272.507 774.218 260.996 774.345 258C774.247 261.058 773.891 264.77 772.965 268.903C772.079 272.854 770.894 276.225 769.727 278.971C768.145 279.567 766.311 280.142 764.235 280.596C761.492 281.199 759.03 281.426 757 281.489C758.823 281.415 765.373 281.836 769.802 283.211C770.94 285.923 772.096 289.237 772.959 293.097C773.885 297.235 774.241 300.947 774.339 304C774.218 301.135 774.926 290.522 777.272 283.859C781.655 282.234 789.039 281.745 790.988 281.83H791Z" fill="#C9B243"/>
<path opacity="0.38" d="M82.8806 40.0617C81.2815 40.0109 79.3354 39.8247 77.161 39.3507C75.2911 38.9359 73.6666 38.3942 72.3128 37.8525C70.2399 32.6131 69.6138 23.4039 69.7153 21C69.6391 23.4462 69.3599 26.4172 68.6238 29.7267C67.9215 32.8839 66.9824 35.584 66.0601 37.7848C64.8079 38.2588 63.3611 38.7243 61.7196 39.0883C59.5536 39.5707 57.6076 39.7569 56 39.7993C57.4384 39.74 62.6165 40.0786 66.1194 41.179C67.0247 43.3458 67.93 45.9952 68.6154 49.0846C69.3515 52.3942 69.6307 55.3652 69.7068 57.8114C69.6137 55.5175 70.1722 47.0278 72.0251 41.7037C75.4941 40.4087 81.3238 40.0109 82.8721 40.0786L82.8806 40.0617Z" fill="#C9B243"/>
<path opacity="0.38" d="M89.8806 646.062C88.2815 646.011 86.3354 645.825 84.161 645.351C82.2911 644.936 80.6666 644.394 79.3128 643.852C77.2399 638.613 76.6137 629.404 76.7153 627C76.6391 629.446 76.3599 632.417 75.6238 635.727C74.9215 638.884 73.9824 641.584 73.0601 643.785C71.8079 644.259 70.3611 644.724 68.7196 645.088C66.5536 645.571 64.6076 645.757 63 645.799C64.4384 645.74 69.6165 646.079 73.1194 647.179C74.0247 649.346 74.93 651.995 75.6153 655.085C76.3515 658.394 76.6307 661.365 76.7068 663.811C76.6137 661.518 77.1722 653.028 79.0251 647.704C82.4941 646.409 88.3238 646.011 89.8721 646.079L89.8806 646.062Z" fill="#C9B243"/>
<path opacity="0.35" d="M1034.13 470.927C1032.03 470.86 1029.49 470.623 1026.66 469.996C1024.21 469.455 1022.09 468.744 1020.31 468.033C1017.6 461.177 1016.79 449.14 1016.92 446C1016.82 449.2 1016.46 453.076 1015.5 457.41C1014.59 461.541 1013.36 465.07 1012.15 467.94C1010.52 468.566 1008.61 469.167 1006.47 469.641C1003.64 470.267 1001.09 470.513 999 470.572C1000.88 470.496 1007.66 470.936 1012.23 472.375C1013.41 475.21 1014.6 478.672 1015.5 482.71C1016.46 487.035 1016.83 490.92 1016.92 494.12C1016.79 491.123 1017.53 480.027 1019.95 473.052C1024.48 471.351 1032.11 470.843 1034.13 470.927Z" fill="#808080"/>
<path opacity="0.35" d="M963 301.721C961.268 301.665 959.172 301.468 956.833 300.947C954.814 300.497 953.061 299.906 951.594 299.315C949.352 293.616 948.682 283.61 948.793 281C948.71 283.66 948.409 286.882 947.62 290.485C946.866 293.918 945.853 296.852 944.854 299.237C943.506 299.758 941.935 300.258 940.167 300.652C937.828 301.172 935.725 301.376 934 301.426C935.551 301.362 941.145 301.728 944.924 302.924C945.895 305.281 946.88 308.159 947.62 311.515C948.409 315.111 948.717 318.34 948.793 321C948.689 318.509 949.296 309.285 951.294 303.487C955.038 302.073 961.331 301.651 963 301.721Z" fill="#808080"/>
<path opacity="0.35" d="M592 239.386C589.853 239.317 587.249 239.073 584.342 238.432C581.841 237.881 579.665 237.16 577.843 236.434C575.062 229.452 574.228 217.196 574.365 214C574.263 217.253 573.886 221.209 572.904 225.614C571.967 229.821 570.711 233.414 569.471 236.337C567.798 236.973 565.851 237.586 563.658 238.069C560.751 238.71 558.147 238.954 556 239.022C557.93 238.943 564.869 239.391 569.557 240.856C570.768 243.745 571.99 247.27 572.904 251.386C573.886 255.791 574.263 259.747 574.365 263C574.234 259.952 574.988 248.644 577.472 241.554C582.115 239.823 589.933 239.306 592 239.391V239.386Z" fill="#808080"/>
<path d="M594.84 369.688C600.275 369.688 604.68 365.281 604.68 359.844C604.68 354.407 600.275 350 594.84 350C589.406 350 585 354.407 585 359.844C585 365.281 589.406 369.688 594.84 369.688Z" fill="#282833"/>
<path d="M68.8401 543.688C74.2747 543.688 78.6803 539.281 78.6803 533.844C78.6803 528.407 74.2747 524 68.8401 524C63.4056 524 59 528.407 59 533.844C59 539.281 63.4056 543.688 68.8401 543.688Z" fill="#282833"/>
<path d="M1023.39 270.473C1028.82 270.473 1033.23 266.066 1033.23 260.629C1033.23 255.192 1028.82 250.785 1023.39 250.785C1017.95 250.785 1013.55 255.192 1013.55 260.629C1013.55 266.066 1017.95 270.473 1023.39 270.473Z" fill="#282833"/>
<path d="M721.05 215.615C724.933 215.615 728.081 212.466 728.081 208.582C728.081 204.697 724.933 201.548 721.05 201.548C717.166 201.548 714.019 204.697 714.019 208.582C714.019 212.466 717.166 215.615 721.05 215.615Z" fill="#282833"/>
<path d="M619 533C626.732 533 633 526.732 633 519C633 511.268 626.732 505 619 505C611.268 505 605 511.268 605 519C605 526.732 611.268 533 619 533Z" fill="#282833"/>
<path d="M465.113 270.473C468.996 270.473 472.144 267.324 472.144 263.439C472.144 259.554 468.996 256.405 465.113 256.405C461.23 256.405 458.082 259.554 458.082 263.439C458.082 267.324 461.23 270.473 465.113 270.473Z" fill="#282833"/>
<path d="M199.336 653.12C203.219 653.12 206.367 649.971 206.367 646.086C206.367 642.201 203.219 639.052 199.336 639.052C195.453 639.052 192.305 642.201 192.305 646.086C192.305 649.971 195.453 653.12 199.336 653.12Z" fill="#282833"/>
<path d="M849.5 349C874.077 349 894 335.569 894 319C894 302.431 874.077 289 849.5 289C824.923 289 805 302.431 805 319C805 335.569 824.923 349 849.5 349Z" fill="#22222B"/>
<path d="M840.5 474C852.926 474 863 467.284 863 459C863 450.716 852.926 444 840.5 444C828.074 444 818 450.716 818 459C818 467.284 828.074 474 840.5 474Z" fill="#22222B"/>
<path d="M610.287 688.772C611.725 666.697 612.707 643.699 613.096 619.838C613.358 603.976 613.341 588.495 613.096 573.411C606.488 572.658 601.132 572.243 597.629 572.006C585.369 571.177 579.895 571.49 568.1 570.601C561.957 570.136 557.016 569.568 554.038 569.196C549.604 565.649 544.841 561.46 539.976 556.533C535.661 552.166 531.938 547.891 528.723 543.871C528.976 543.642 530.593 542.22 532.945 542.466C535.695 542.745 537.04 545.056 537.167 545.276C541.389 549.499 545.602 553.715 549.824 557.938C550.764 558.404 551.703 558.878 552.633 559.344C552.168 555.594 551.694 551.844 551.229 548.086C554.977 541.518 558.725 534.958 562.482 528.389C563.81 526.874 565.672 526.383 566.704 526.984C567.956 527.721 568.489 530.387 566.704 532.613C568.769 531.911 570.173 531.911 570.926 532.613C572.517 534.111 571.112 538.801 566.704 546.681C569.987 545.741 573.27 544.802 576.544 543.871C577.306 544.125 578.304 544.548 579.353 545.276C580.741 546.241 581.638 547.333 582.162 548.086C583.567 550.431 584.971 552.775 586.384 555.12C585.902 555.509 584.286 556.711 582.162 556.525C579.531 556.296 577.187 554.036 576.536 550.896C574.657 552.301 572.788 553.706 570.909 555.12C571.848 557.464 572.788 559.809 573.718 562.154C578.406 561.214 583.093 560.275 587.78 559.344C590.589 557.938 593.407 556.533 596.216 555.12C595.006 554.028 593.289 552.2 591.994 549.491C591.241 547.917 590.826 546.452 590.589 545.267C589.126 544.709 586.723 543.524 584.963 541.044C584.362 540.197 582.805 537.996 583.558 536.82C584.218 535.787 586.528 535.728 589.185 536.82C594.338 539.63 599.499 542.449 604.652 545.259C609.339 546.664 614.026 548.069 618.714 549.483C620.271 549.508 623.85 549.804 627.149 552.293C633.597 557.168 632.835 565.802 632.776 566.36C638.403 607.159 644.029 647.957 649.647 688.746H610.27L610.287 688.772Z" fill="#BBBBBB"/>
<path d="M563.912 547.205C562.956 547.637 562.44 548.814 562.736 549.812C562.82 550.1 563.269 549.973 563.184 549.686C562.939 548.864 563.37 547.95 564.149 547.603C564.259 547.552 564.293 547.383 564.233 547.29C564.166 547.172 564.03 547.155 563.92 547.205H563.912Z" fill="#1A1A1A"/>
<path d="M562.846 551.362C564.182 555.865 565.714 560.308 567.423 564.676C567.533 564.947 567.981 564.828 567.871 564.549C566.154 560.181 564.631 555.738 563.294 551.235C563.209 550.947 562.761 551.074 562.846 551.362Z" fill="#1A1A1A"/>
<path d="M556.948 548.331C557.447 554.442 559.503 560.342 561.179 566.199C561.263 566.487 561.712 566.36 561.627 566.072C559.96 560.257 557.913 554.383 557.414 548.323C557.388 548.027 556.923 548.027 556.948 548.323V548.331Z" fill="#1A1A1A"/>
<path d="M558.125 546.833L558.7 545.445C558.742 545.335 558.649 545.183 558.539 545.157C558.404 545.123 558.303 545.2 558.252 545.318L557.676 546.706C557.634 546.816 557.727 546.969 557.837 546.994C557.973 547.028 558.074 546.952 558.125 546.833Z" fill="#1A1A1A"/>
<path d="M560.401 543.397C562.364 539.672 564.538 536.067 566.907 532.588C567.077 532.342 566.671 532.105 566.51 532.351C564.141 535.83 561.966 539.435 560.003 543.16C559.868 543.422 560.266 543.659 560.401 543.397Z" fill="#1A1A1A"/>
<path d="M553.59 558.87C554.148 560.986 554.698 563.11 555.257 565.226C555.333 565.514 555.781 565.396 555.705 565.099C555.147 562.983 554.597 560.859 554.038 558.743C553.962 558.455 553.514 558.573 553.59 558.87Z" fill="#1A1A1A"/>
<path d="M589.413 559.403C595.032 557.109 600.802 555.179 606.674 553.647C612.038 552.25 619.662 550.066 623.714 555.314C623.892 555.551 624.298 555.314 624.112 555.077C620.347 550.202 613.671 551.438 608.493 552.707C601.944 554.307 595.531 556.406 589.287 558.946C589.016 559.056 589.134 559.504 589.413 559.394V559.403Z" fill="#1A1A1A"/>
<path d="M624.383 557.38C625.305 558.252 625.999 559.335 626.397 560.537C626.49 560.816 626.938 560.698 626.845 560.41C626.422 559.132 625.695 557.972 624.713 557.041C624.493 556.838 624.163 557.168 624.383 557.371V557.38Z" fill="#1A1A1A"/>
<path d="M852.584 561.688C854.191 555.128 860.816 551.031 867.407 552.53C867.695 552.597 867.822 552.149 867.534 552.081C864.108 551.302 860.419 551.912 857.483 553.876C854.809 555.661 852.905 558.446 852.144 561.561C852.076 561.849 852.516 561.976 852.592 561.688H852.584Z" fill="#1A1A1A"/>
<path d="M870.361 553.173C877.722 554.789 884.998 556.796 892.139 559.199C892.427 559.293 892.545 558.844 892.266 558.751C885.117 556.347 877.849 554.332 870.488 552.724C870.2 552.657 870.073 553.105 870.361 553.173Z" fill="#1A1A1A"/>
<path d="M913.859 546.884C915.289 547.121 916.533 548.171 916.973 549.559C917.066 549.838 917.514 549.719 917.421 549.432C916.93 547.9 915.576 546.689 913.977 546.427C913.681 546.376 913.563 546.825 913.85 546.875L913.859 546.884Z" fill="#1A1A1A"/>
<path d="M916.93 551.065C915.704 555.924 914.307 560.74 912.742 565.497C912.649 565.785 913.098 565.903 913.191 565.624C914.756 560.859 916.152 556.051 917.379 551.192C917.455 550.905 917.007 550.778 916.93 551.065Z" fill="#1A1A1A"/>
<path d="M913.622 532.782C916.862 537.971 919.705 543.397 922.133 549.017C922.252 549.288 922.649 549.051 922.531 548.78C920.103 543.16 917.26 537.734 914.019 532.545C913.858 532.291 913.461 532.528 913.622 532.782Z" fill="#1A1A1A"/>
<path d="M922.125 550.337C922.015 551.252 921.905 552.174 921.795 553.088C921.778 553.215 921.914 553.317 922.024 553.317C922.159 553.317 922.244 553.207 922.252 553.088C922.362 552.174 922.472 551.252 922.582 550.337C922.599 550.21 922.464 550.109 922.354 550.109C922.218 550.109 922.134 550.219 922.125 550.337Z" fill="#1A1A1A"/>
<path d="M921.516 554.239C920.552 558.548 919.477 562.831 918.284 567.088C918.199 567.376 918.648 567.503 918.732 567.215C919.925 562.966 921 558.683 921.965 554.366C922.032 554.079 921.584 553.952 921.516 554.239Z" fill="#1A1A1A"/>
<path d="M926.424 558.776C925.916 561.341 925.18 563.855 924.232 566.293C924.122 566.572 924.571 566.69 924.681 566.42C925.628 563.982 926.364 561.468 926.872 558.903C926.931 558.616 926.483 558.489 926.424 558.776Z" fill="#1A1A1A"/>
<path d="M638.166 567.291C634.511 565.937 630.847 564.583 627.175 563.254" stroke="#C9B243" stroke-width="1.46" stroke-miterlimit="10" stroke-linecap="round"/>
<path d="M646.034 570.22C644.968 569.822 643.902 569.424 642.836 569.027" stroke="#C9B243" stroke-width="1.46" stroke-miterlimit="10" stroke-linecap="round"/>
<path d="M667.661 578.253C662.178 576.238 656.713 574.198 651.238 572.158" stroke="#C9B243" stroke-width="1.46" stroke-miterlimit="10" stroke-linecap="round"/>
<path d="M677.264 581.816C675.665 581.224 674.066 580.631 672.467 580.039" stroke="#C9B243" stroke-width="1.46" stroke-miterlimit="10" stroke-linecap="round"/>
</g>
</g>
<defs>
<clipPath id="clip0_4005_6464">
<rect width="1056" height="685" fill="white"/>
</clipPath>
</defs>
</svg>
