<svg width="342" height="282" viewBox="0 0 342 282" fill="none" xmlns="http://www.w3.org/2000/svg">
<g clip-path="url(#clip0_4180_12130)">
<mask id="mask0_4180_12130" style="mask-type:luminance" maskUnits="userSpaceOnUse" x="0" y="0" width="342" height="282">
<path d="M325.032 0H16.9684C7.59699 0 0 7.59458 0 16.963V265.037C0 274.405 7.59699 282 16.9684 282H325.032C334.403 282 342 274.405 342 265.037V16.963C342 7.59458 334.403 0 325.032 0Z" fill="white"/>
</mask>
<g mask="url(#mask0_4180_12130)">
<g opacity="0.53">
<path opacity="0.68" d="M280.266 168.593C308.364 168.593 331.142 145.822 331.142 117.734C331.142 89.6448 308.364 66.8743 280.266 66.8743C252.168 66.8743 229.391 89.6448 229.391 117.734C229.391 145.822 252.168 168.593 280.266 168.593Z" fill="#2B2B3A"/>
<path opacity="0.68" d="M271.923 99.7944C282.373 96.3555 288.978 87.8982 286.675 80.9043C284.372 73.9105 274.034 71.0286 263.583 74.4675C253.133 77.9063 246.528 86.3637 248.831 93.3576C251.134 100.351 261.472 103.233 271.923 99.7944Z" fill="black" fill-opacity="0.8"/>
<path d="M243.549 114.935C246.458 114.935 248.817 112.577 248.817 109.668C248.817 106.76 246.458 104.402 243.549 104.402C240.639 104.402 238.28 106.76 238.28 109.668C238.28 112.577 240.639 114.935 243.549 114.935Z" fill="#22222B"/>
<path d="M294.261 160.034C298.807 160.034 302.493 156.349 302.493 151.805C302.493 147.26 298.807 143.576 294.261 143.576C289.715 143.576 286.029 147.26 286.029 151.805C286.029 156.349 289.715 160.034 294.261 160.034Z" fill="#22222B"/>
</g>
<path d="M130.487 156.733C130.13 150.58 133.533 144.832 139.009 142.289C144.881 139.56 152.001 141.048 156.423 145.993C155.3 142.074 156.856 138.207 159.757 136.732C162.401 135.39 165.197 136.526 165.686 136.732C167.167 134.09 169.899 130.085 174.579 126.731C183.81 120.113 193.895 120.854 196.81 121.174C197.412 120.449 205.203 111.36 216.076 112.655C226.403 113.882 235.207 123.962 235.341 136.73C248.449 131.45 259.421 133.609 262.016 138.951C262.365 139.671 263.765 142.923 260.533 148.952C262.537 146.291 266.024 145.246 269.055 146.361C271.816 147.376 273.724 150.011 273.872 153.027C277.375 146.044 284.87 142.031 292.396 143.025C300.56 144.105 307.088 150.857 307.956 159.322C309.125 158.406 315.059 153.942 322.775 155.248C328.871 156.279 335.904 160.882 335.743 165.617C335.501 172.678 319.404 176.21 318.7 176.357C311.282 177.918 304.95 176.664 301.285 175.616C298.008 177.314 293.505 179.151 287.947 180.061C275.247 182.142 264.995 178.095 260.53 175.987C258.056 179.086 255.45 181.194 253.121 182.653C235.352 193.788 211.567 181.09 209.031 179.69C207.433 180.504 204.3 181.834 200.139 181.911C196.026 181.989 192.874 180.805 191.246 180.058C186.762 181.893 181.153 183.638 174.573 184.503C156.56 186.872 142.028 181.229 134.93 177.837C120.227 181.621 108.865 179.696 106.773 174.504C105.053 170.239 109.655 163.933 113.441 160.799C120.504 154.952 129.162 156.47 130.484 156.725L130.487 156.733Z" fill="#22222B"/>
<path d="M24.0992 174.996C23.7418 168.843 27.1457 163.095 32.6209 160.552C38.4938 157.823 45.6132 159.311 50.0353 164.256C48.9123 160.337 50.4678 156.47 53.3693 154.995C56.0129 153.652 58.8096 154.788 59.2986 154.995C60.7789 152.352 63.5111 148.348 68.1911 144.994C77.4221 138.376 87.5075 139.117 90.4224 139.437C91.0242 138.712 98.8153 129.623 109.688 130.918C120.015 132.145 128.819 142.225 128.953 154.993C142.061 149.712 153.033 151.872 155.628 157.214C155.977 157.933 157.377 161.186 154.145 167.215C156.149 164.554 159.636 163.509 162.667 164.623C165.429 165.639 167.336 168.273 167.484 171.289C170.987 164.307 178.483 160.294 186.008 161.288C194.172 162.367 200.701 169.119 201.568 177.585C202.737 176.669 208.672 172.205 216.388 173.511C222.483 174.542 229.517 179.145 229.356 183.88C229.114 190.941 213.016 194.473 212.312 194.62C204.894 196.181 198.562 194.926 194.898 193.879C191.62 195.576 187.117 197.413 181.559 198.324C168.859 200.405 158.608 196.358 154.142 194.25C151.668 197.349 149.062 199.457 146.733 200.916C128.964 212.051 105.18 199.352 102.644 197.953C101.045 198.767 97.9126 200.096 93.7511 200.174C89.638 200.252 86.4866 199.068 84.8586 198.321C80.3747 200.155 74.7651 201.901 68.1857 202.766C50.1723 205.135 35.6407 199.492 28.5427 196.1C13.8392 199.884 2.47767 197.959 0.384832 192.767C-1.33457 188.502 3.26752 182.196 7.05289 179.062C14.1159 173.215 22.7747 174.733 24.0965 174.988L24.0992 174.996Z" fill="#22222B"/>
<path opacity="0.38" d="M140.261 107.979C138.915 107.936 137.279 107.783 135.458 107.38C133.889 107.034 132.524 106.577 131.382 106.118C129.639 101.716 129.115 93.9839 129.201 91.9696C129.136 94.0215 128.9 96.5165 128.285 99.2935C127.699 101.944 126.909 104.211 126.133 106.056C125.082 106.456 123.862 106.843 122.484 107.149C120.663 107.552 119.027 107.708 117.681 107.748C118.89 107.697 123.242 107.979 126.184 108.903C126.941 110.727 127.71 112.95 128.282 115.542C128.897 118.322 129.133 120.814 129.198 122.866C129.117 120.943 129.588 113.813 131.146 109.338C134.058 108.248 138.961 107.92 140.256 107.974L140.261 107.979Z" fill="#C9B243"/>
<path opacity="0.25" d="M24.7167 111.242C23.9322 111.218 22.9811 111.127 21.9173 110.893C21.0038 110.692 20.2086 110.426 19.5423 110.157C18.5268 107.592 18.2232 103.088 18.2716 101.915C18.234 103.11 18.097 104.563 17.737 106.182C17.3958 107.727 16.9364 109.048 16.485 110.122C15.8725 110.356 15.1632 110.582 14.36 110.759C13.2988 110.993 12.345 111.084 11.5605 111.108C12.2644 111.078 14.8005 111.242 16.5146 111.782C16.9552 112.843 17.4038 114.14 17.737 115.65C18.0943 117.269 18.234 118.722 18.2716 119.917C18.2232 118.797 18.4999 114.642 19.408 112.037C21.1032 111.401 23.9617 111.21 24.7167 111.242Z" fill="#808080"/>
<path opacity="0.38" d="M329.642 230.757C328.858 230.732 327.907 230.641 326.843 230.407C325.93 230.206 325.134 229.94 324.468 229.672C323.453 227.107 323.149 222.603 323.197 221.429C323.16 222.624 323.023 224.077 322.663 225.697C322.322 227.241 321.862 228.562 321.411 229.637C320.798 229.87 320.089 230.096 319.286 230.273C318.225 230.507 317.271 230.598 316.486 230.622C317.19 230.593 319.726 230.757 321.44 231.296C321.881 232.357 322.33 233.654 322.663 235.164C323.02 236.783 323.16 238.236 323.197 239.431C323.149 238.311 323.426 234.157 324.334 231.552C326.029 230.915 328.888 230.724 329.642 230.757Z" fill="#C9B243"/>
<path opacity="0.22" d="M127.225 171.456C126.328 171.426 125.24 171.314 124.028 171.026C122.983 170.776 122.075 170.451 121.314 170.124C120.154 166.971 119.805 161.43 119.864 159.988C119.821 161.46 119.662 163.246 119.254 165.236C118.864 167.135 118.338 168.759 117.822 170.081C117.123 170.368 116.309 170.645 115.393 170.862C114.179 171.152 113.091 171.263 112.196 171.292C113.002 171.254 115.898 171.459 117.857 172.119C118.362 173.425 118.872 175.017 119.254 176.876C119.662 178.866 119.821 180.652 119.864 182.124C119.81 180.746 120.124 175.638 121.161 172.434C123.101 171.652 126.365 171.416 127.228 171.456H127.225Z" fill="#808080"/>
<path d="M169.996 149.844C171.732 149.844 173.139 148.331 173.139 146.465C173.139 144.599 171.732 143.087 169.996 143.087C168.26 143.087 166.853 144.599 166.853 146.465C166.853 148.331 168.26 149.844 169.996 149.844Z" fill="#2B2B3A"/>
<path d="M255.146 218.459C257.401 218.459 259.23 216.491 259.23 214.065C259.23 211.638 257.401 209.671 255.146 209.671C252.891 209.671 251.062 211.638 251.062 214.065C251.062 216.491 252.891 218.459 255.146 218.459Z" fill="#22222B"/>
<path d="M224.598 187.269C227.179 187.769 229.955 188.427 232.878 189.294C235.013 189.928 237.023 190.61 238.898 191.319C240.035 189.096 241.448 185.798 242.286 181.603C242.442 180.821 243.044 177.571 243.03 173.151C236.47 175.447 230.317 179.287 224.931 183.947C224.925 185.647 224.678 186.893 224.598 187.269Z" fill="#968127"/>
<path d="M242.869 169.374C242.302 162.692 240.094 154.509 233.632 147.999C223.252 137.541 209.655 139.217 207.664 139.499C209.623 140.858 212.105 143.036 214.061 146.382C219.982 156.502 215.796 168.238 215.189 169.863C216.331 170.215 219.431 171.34 221.895 174.52C228.297 170.505 235.674 168.571 242.869 169.377V169.374Z" fill="#968127"/>
<path d="M242.869 169.375C235.674 168.566 228.299 170.503 221.895 174.518C222.045 174.714 222.195 174.912 222.34 175.125C223.533 176.849 224.205 178.651 224.565 180.33C224.847 181.648 224.938 182.886 224.933 183.947C230.32 179.287 236.472 175.447 243.032 173.151C243.032 173.084 243.032 173.016 243.032 172.949C243.024 171.824 242.976 170.626 242.869 169.375Z" fill="#77661E"/>
<path d="M224.597 180.791C226.658 178.732 230.938 175.012 237.393 173.1C242.858 171.48 247.516 171.853 250.19 172.291C251.294 172.385 251.922 172.248 252.07 171.886C252.299 171.332 251.42 170.255 249.435 168.647C246.96 167.333 242.616 165.486 237.015 165.408C227.751 165.279 221.183 170.084 218.95 171.886C219.923 172.511 221.728 173.873 223.09 176.339C224.049 178.076 224.431 179.712 224.595 180.791H224.597Z" fill="#A8912F"/>
<path d="M217.824 171.075C218.362 168.571 219.608 164.328 222.716 160.144C227.456 153.765 233.533 151.547 235.889 150.832C235.762 150.564 235.639 150.292 235.513 150.024C233.318 150.311 229.618 151.112 225.728 153.668C220.401 157.171 217.757 161.965 216.696 164.194C216.446 165.139 216.193 166.082 215.944 167.027C215.694 167.973 215.441 168.915 215.191 169.861C215.538 169.96 215.919 170.092 216.32 170.266C216.905 170.519 217.408 170.803 217.824 171.075Z" fill="#77661E"/>
<path d="M216.694 153.263C217.258 151.826 218.185 149.925 219.705 147.999C221.986 145.109 224.525 143.541 226.102 142.735C225.726 142.466 225.35 142.195 224.974 141.927C223.442 142.383 220.294 143.586 217.822 146.785C216.949 147.918 216.352 149.049 215.941 150.024C216.068 150.564 216.191 151.104 216.318 151.643C216.444 152.183 216.567 152.723 216.694 153.263Z" fill="#77661E"/>
<path d="M259.222 253.15C259.042 252.578 258.8 251.976 258.469 251.375C256.788 248.3 253.975 247.271 252.825 246.935C254.16 244.873 262.274 231.933 259.222 216.31C256.057 200.11 242.186 187.659 225.349 187.46C225.57 186.421 226.628 180.955 223.845 175.476C221.18 170.234 216.873 168.684 215.941 168.375C216.914 165.593 218.305 160.506 217.822 154.173C217.588 151.098 216.777 140.474 209.166 134.646C202.578 129.599 195.306 131.522 193.734 131.981C191.125 130.05 185.86 126.75 178.681 126.212C168.332 125.436 160.807 130.91 158.357 132.87C154.424 132.752 146.131 133.166 137.657 139.085C123.107 149.245 119.754 167.438 119.217 170.597C118.588 170.462 115.302 169.836 112.441 172.372C110.899 173.739 110.147 175.433 109.806 176.365C108.468 174.483 105.066 170.272 100.021 169.708C99.2285 169.619 98.4709 169.63 97.7617 169.708C95.2659 169.383 87.5662 168.77 80.8256 174.59C72.5617 181.726 69.1282 195.609 72.5456 209.209C67.8629 211.159 64.6014 216.066 64.2656 221.636C63.8411 228.697 68.3357 233.19 68.7817 233.619C63.2044 235.408 59.9482 238.631 58.245 240.72C50.6259 250.059 49.7339 266.458 55.9856 281.997H262.233C262.894 281.482 268.214 277.195 268.63 269.57C269.006 262.692 265.24 255.97 259.222 253.147V253.15Z" fill="#373751"/>
<path d="M199.757 152.049C199.211 155.387 197.908 160.721 194.488 166.219C189.121 174.84 181.805 178.608 178.681 179.983C176.298 178.769 173.915 177.555 171.529 176.339C169.571 176.322 168.633 176.943 168.141 177.552C165.944 180.278 168.767 187.616 174.917 196.175C175.325 199.019 175.513 202.629 174.917 206.701C173.184 218.502 166.051 225.933 163.249 228.562C167.894 230.982 176.359 236.227 183.573 246.374C192.264 258.602 194.282 271.12 194.865 276.736C199.115 271.985 203.797 265.837 208.037 258.113C209.807 254.89 211.296 251.764 212.553 248.802C212.765 248.445 214.353 245.662 213.305 242.324C212.357 239.294 209.95 238.07 209.541 237.871C204.837 235.961 199.555 234.135 193.733 232.607C190.601 231.785 187.581 231.119 184.701 230.582C184.301 226.822 184.108 221.98 184.701 216.412C185.357 210.275 186.759 205.197 188.089 201.434C191.853 202.514 195.617 203.593 199.381 204.673C199.762 204.724 200.192 204.751 200.657 204.732C202.038 204.676 203.15 204.246 203.897 203.864C204.27 203.676 204.808 203.373 205.399 202.922C207.862 201.036 209.802 197.658 210.67 190.1C211.819 180.093 210.234 170.261 209.165 164.999C208.451 162.993 207.204 160.181 205.025 157.308C203.177 154.869 201.253 153.172 199.757 152.044V152.049Z" fill="#999999"/>
<path d="M177.177 139.499C174.264 135.567 168.142 136.171 162.5 137.071C157.672 137.839 148.589 140.02 139.543 147.19C133.396 152.065 129.463 157.501 127.123 161.36C125.14 161.32 122.857 161.411 120.348 161.766C117.126 162.22 114.343 162.988 112.068 163.791C111.823 164.121 110.918 165.392 111.315 166.219C111.557 166.726 112.178 166.839 113.951 167.027C116.068 167.253 117.672 167.358 118.467 167.433C119.429 167.524 120.858 167.725 122.607 168.241C121.36 171.604 119.732 177.373 120.348 184.433C120.538 186.633 122.196 205.626 135.4 209.937C143.517 212.585 154.838 209.913 159.864 199.817C164.485 190.535 162.03 178.549 153.844 171.883C156.16 170.897 158.548 169.82 160.995 168.644C163.22 167.575 165.35 166.493 167.392 165.405C169.434 164.057 174.27 160.444 176.8 153.666C177.628 151.445 180.443 143.906 177.177 139.496V139.499ZM142.928 191.722C142.122 192.241 141.045 192.141 140.293 191.722C138.444 190.691 138.42 187.637 138.412 186.458C138.385 182.948 140.145 180.327 141.048 179.172C142.106 180.41 143.621 182.602 144.059 185.65C144.22 186.773 144.76 190.543 142.931 191.722H142.928Z" fill="#968127"/>
<path d="M122.607 168.241C124.936 168.606 128.327 169.434 132.015 171.48C136.459 173.943 139.387 177.088 141.048 179.172C140.545 179.98 140.043 180.791 139.543 181.6C138.56 180.579 137.319 179.564 135.779 178.766C128.98 175.245 121.785 178.826 120.348 179.575V177.55C120.915 177.128 121.54 176.717 122.228 176.336C125.785 174.37 129.294 174.169 131.637 174.311C130.471 173.269 129.092 172.16 127.497 171.072C125.75 169.882 124.087 168.958 122.604 168.238L122.607 168.241Z" fill="#77661E"/>
<path d="M138.412 188.078C137.732 189.705 136.673 191.73 135.024 193.745C131.4 198.168 127.053 199.93 124.863 200.628C125.113 201.034 125.366 201.437 125.616 201.842C127.3 201.611 130.145 200.983 133.143 199.009C137.044 196.441 139.062 193.006 139.919 191.317C139.674 190.984 139.411 190.581 139.167 190.103C138.78 189.351 138.551 188.645 138.414 188.078H138.412Z" fill="#77661E"/>
<path d="M137.66 163.788C136.921 164.264 135.935 165.029 135.024 166.216C133.34 168.413 132.902 170.763 132.765 171.883C133.141 172.152 133.517 172.423 133.893 172.691C133.998 171.845 134.428 169.208 136.529 167.025C138.106 165.381 139.846 164.806 140.669 164.597C139.664 164.328 138.662 164.057 137.657 163.788H137.66Z" fill="#77661E"/>
<path d="M138.788 147.999C140.953 147.846 144.266 148.023 147.444 150.024C153.373 153.752 156.393 162.282 154.972 171.48C155.977 171.075 156.979 170.672 157.984 170.266C159.171 160.837 155.891 152.178 149.704 148.404C146.351 146.361 142.899 146.208 140.671 146.379C140.045 146.919 139.417 147.459 138.791 147.999H138.788Z" fill="#77661E"/>
<path d="M156.101 138.688C158.169 139.364 161.103 140.718 163.628 143.546C171.03 151.842 167.607 164.645 167.392 165.408C168.271 164.734 169.149 164.059 170.028 163.383C170.167 162.76 172.897 149.831 165.136 142.332C162.548 139.834 159.655 138.768 157.608 138.285C157.105 138.419 156.603 138.553 156.103 138.69L156.101 138.688Z" fill="#77661E"/>
<path d="M142.176 192.125C142.622 192.657 142.995 193.202 143.304 193.745C146.907 200.04 143.557 208.43 142.552 210.748H144.432C144.954 209.698 149.927 199.358 145.561 192.936C145.096 192.254 144.489 191.559 143.68 190.911C143.178 191.317 142.675 191.72 142.176 192.125Z" fill="#77661E"/>
<path d="M142.928 182.005C143.576 180.762 145.258 177.934 148.573 175.933C151.77 174.005 154.773 173.878 156.101 173.908L154.972 172.694C153.71 172.525 150.306 172.256 146.692 174.314C143.737 175.998 142.117 178.396 141.424 179.578C141.926 180.386 142.429 181.197 142.928 182.005Z" fill="#77661E"/>
<path d="M144.435 188.078C145.658 187.949 150.222 187.627 154.596 190.911C158.392 193.761 159.808 197.647 160.241 199.009C160.49 198.335 160.743 197.66 160.993 196.984C160.654 195.617 159.459 191.516 155.724 188.483C150.69 184.393 145 185.457 144.057 185.65C144.183 186.458 144.306 187.269 144.433 188.078H144.435Z" fill="#77661E"/>
<path d="M129.004 158.524C130.135 158.476 132.693 158.532 135.401 160.144C137.612 161.46 138.912 163.208 139.541 164.191L142.928 165.405C142.096 163.987 140.013 160.88 136.153 158.927C133.568 157.622 131.207 157.348 129.756 157.308C129.506 157.713 129.254 158.116 129.004 158.522V158.524Z" fill="#77661E"/>
<path d="M140.295 164.597C142.324 165.064 144.956 165.891 147.823 167.43C150.982 169.125 153.349 171.107 154.975 172.694C153.712 172.525 150.308 172.256 146.695 174.314C143.739 175.997 142.119 178.396 141.426 179.578C140.438 178.235 139.084 176.653 137.286 175.125C136.091 174.109 134.935 173.314 133.898 172.697C133.906 171.937 134.025 169.842 135.403 167.838C137.163 165.279 139.707 164.715 140.295 164.599V164.597Z" fill="#A8912F"/>
<path d="M137.66 163.788C136.856 164.328 135.419 165.453 134.272 167.433C133.237 169.216 132.896 170.903 132.767 171.886C131.534 171.085 129.895 170.18 127.875 169.458C126.508 168.966 124.724 168.472 122.607 168.244C118.969 167.704 115.332 167.164 111.691 166.624C111.092 166.503 110.638 166.004 110.563 165.41C110.472 164.693 110.952 163.957 111.691 163.791C113.991 162.945 116.774 162.169 119.971 161.766C127.526 160.815 133.783 162.402 137.66 163.791V163.788Z" fill="#A8912F"/>
<path d="M142.929 182.005C143.571 180.738 145.032 178.256 147.821 176.339C151.313 173.935 154.774 173.862 156.101 173.911C157.495 175.439 159.674 178.251 160.993 182.411C163.116 189.104 161.625 194.921 160.993 196.986C160.598 195.837 158.156 189.08 151.585 186.461C148.471 185.22 145.666 185.4 144.057 185.653C144.03 185.134 143.942 184.425 143.681 183.628C143.458 182.945 143.173 182.403 142.929 182.008V182.005Z" fill="#A8912F"/>
<path d="M204.093 190.13C202.299 190.229 200.719 191.212 200.106 192.627C200.99 192.904 202.377 193.251 204.117 193.283C206.159 193.32 207.771 192.917 208.709 192.614C208.002 191.029 206.095 190.022 204.096 190.13H204.093Z" fill="#31313F"/>
<path d="M201.979 180.738C200.966 180.284 199.575 179.806 197.874 179.612C195.115 179.304 192.869 179.913 191.566 180.399C190.314 179.532 189.057 178.67 187.805 177.8C189.336 177.907 190.862 178.006 192.396 178.114C193.033 177.818 195.01 176.994 197.466 177.617C200.096 178.283 201.565 180.166 201.974 180.73L201.979 180.735V180.738Z" fill="#1E1E1E"/>
<path d="M200.934 170.744C200.488 170.594 199.857 170.411 199.086 170.277C198.296 170.145 197.092 169.955 195.588 170.239C194.26 170.492 193.186 171.013 192.391 171.531C193.151 170.556 194.513 169.17 196.536 168.593C197.32 168.367 199.593 167.717 200.542 168.972C200.963 169.53 200.974 170.266 200.934 170.747V170.744Z" fill="#1E1E1E"/>
<path d="M205.872 181.141C206.565 180.687 207.516 180.209 208.679 180.015C210.568 179.706 212.102 180.316 212.994 180.802C213.851 179.935 214.71 179.073 215.565 178.202C214.517 178.31 213.472 178.409 212.424 178.517C211.989 178.221 210.638 177.397 208.956 178.02C207.156 178.686 206.154 180.569 205.872 181.133L205.866 181.138L205.872 181.141Z" fill="#1E1E1E"/>
<path d="M206.586 171.15C206.89 170.999 207.322 170.817 207.849 170.682C208.389 170.551 209.213 170.36 210.24 170.645C211.148 170.897 211.884 171.418 212.427 171.937C211.905 170.962 210.976 169.576 209.592 168.999C209.055 168.773 207.499 168.123 206.852 169.377C206.564 169.936 206.556 170.672 206.583 171.152L206.586 171.15Z" fill="#1E1E1E"/>
<path d="M80.0335 233.252C82.7362 229.032 86.2287 225.323 90.3875 222.785C92.4293 221.539 94.6323 220.591 96.9293 220.054C99.6588 219.417 102.464 219.431 105.217 219.879C110.311 220.709 115.295 222.702 119.687 225.595C124.01 228.444 127.785 232.247 130.56 236.824C133.343 241.413 135.14 246.728 135.549 252.205C135.6 252.879 135.627 253.556 135.635 254.235C135.635 254.399 135.874 254.399 135.871 254.235C135.796 248.692 134.307 243.237 131.75 238.435C129.2 233.646 125.603 229.58 121.372 226.47C117.103 223.33 112.227 221.147 107.168 220.006C104.342 219.369 101.429 219.082 98.5574 219.493C96.2335 219.826 93.9794 220.586 91.8651 221.671C87.5209 223.903 83.8108 227.442 80.8985 231.538C80.5305 232.056 80.1732 232.588 79.8293 233.125C79.7433 233.26 79.9475 233.386 80.0335 233.254V233.252Z" fill="#1E1E1E"/>
<path d="M130.032 241.387C132.235 244.98 132.655 249.401 132.539 253.604C132.432 257.522 131.932 261.551 130.414 265.15C129.576 267.137 128.41 268.95 126.889 270.403C126.776 270.51 126.943 270.69 127.056 270.583C129.815 267.948 131.322 264.215 132.072 260.396C132.458 258.422 132.663 256.41 132.749 254.396C132.84 252.264 132.808 250.115 132.512 247.999C132.179 245.611 131.478 243.283 130.237 241.26C130.153 241.126 129.949 241.252 130.032 241.389V241.387Z" fill="#1E1E1E"/>
<path d="M138.436 241.405C139.331 241.787 139.989 242.732 140.075 243.763C140.089 243.925 140.325 243.927 140.312 243.763C140.212 242.611 139.5 241.588 138.498 241.161C138.358 241.102 138.297 241.346 138.436 241.405Z" fill="#1E1E1E"/>
<path d="M138.595 232.628C143.825 229.497 150.187 228.748 155.944 230.48C161.288 232.089 165.882 235.916 168.843 240.943C170.468 243.702 171.583 246.788 172.077 250.01C172.101 250.172 172.33 250.102 172.306 249.943C171.408 244.115 168.475 238.725 164.27 234.938C159.77 230.885 153.921 228.941 148.078 229.376C144.717 229.626 141.421 230.646 138.476 232.411C138.345 232.491 138.463 232.709 138.595 232.628Z" fill="#1E1E1E"/>
<path d="M167.513 244.462C168.921 247.411 169.808 250.623 170.122 253.921C170.138 254.082 170.372 254.082 170.358 253.921C170.039 250.577 169.144 247.325 167.718 244.335C167.648 244.19 167.444 244.319 167.513 244.464V244.462Z" fill="#1E1E1E"/>
<path d="M79.3106 200.647C78.8512 195.821 79.8855 190.876 82.1664 186.695C84.4876 182.438 88.0957 179.099 92.4613 177.512C96.8163 175.928 101.719 176.011 105.975 177.923C110.23 179.835 113.717 183.869 115.738 188.456C118.072 193.761 118.586 199.763 118.156 205.554C118.099 206.3 118.027 207.044 117.943 207.786C117.925 207.947 118.161 207.947 118.18 207.786C118.86 201.788 118.663 195.517 116.557 189.848C114.808 185.137 111.748 180.856 107.538 178.441C103.439 176.089 98.5222 175.578 94.0276 176.76C89.5061 177.947 85.5945 180.894 82.9187 184.978C80.2428 189.063 78.8807 193.914 78.9721 198.813C78.9828 199.425 79.0204 200.037 79.0769 200.647C79.093 200.808 79.3267 200.808 79.3133 200.647H79.3106Z" fill="#1E1E1E"/>
<path d="M72.0217 214.892C74.3725 212.102 77.7065 210.246 81.2178 210.001C84.5304 209.77 87.8053 211.102 90.148 213.632C91.4268 215.013 92.3805 216.713 92.8587 218.596C92.899 218.754 93.1247 218.687 93.0871 218.528C92.2193 215.104 89.8041 212.308 86.8274 210.847C83.6492 209.287 80.0062 209.432 76.8226 210.896C74.934 211.766 73.2334 213.076 71.8552 214.715C71.7531 214.836 71.9196 215.016 72.0217 214.895V214.892Z" fill="#1E1E1E"/>
<path d="M89.7232 216.243C91.1497 217.169 92.0551 218.891 92.0605 220.682C92.0605 220.846 92.2969 220.846 92.2969 220.682C92.2915 218.8 91.3405 216.998 89.8441 216.023C89.7151 215.939 89.5942 216.157 89.7259 216.24L89.7232 216.243Z" fill="#1E1E1E"/>
<path d="M63.6607 249.156C65.7992 246.938 68.9022 246.422 71.7634 246.624C74.7697 246.836 77.7625 247.757 80.4813 249.138C86.0774 251.974 90.5694 256.913 93.0437 263.017C94.4756 266.549 95.2171 270.392 95.1956 274.246C95.1956 274.41 95.4294 274.41 95.4321 274.246C95.467 267.347 93.0598 260.487 88.7425 255.376C84.5998 250.47 78.7404 247.185 72.607 246.455C69.4395 246.076 65.8906 246.5 63.4941 248.982C63.384 249.095 63.5506 249.275 63.6607 249.162V249.156Z" fill="#1E1E1E"/>
<path d="M97.9872 265.44C98.9275 266.67 99.3547 268.314 99.1397 269.893C99.1182 270.051 99.3439 270.121 99.3681 269.96C99.5964 268.284 99.1559 266.571 98.1538 265.263C98.057 265.136 97.8905 265.316 97.9872 265.442V265.44Z" fill="#1E1E1E"/>
<path d="M203.349 215.888C206.834 210.906 210.418 205.806 215.159 202.119C217.365 200.405 219.796 199.044 222.418 198.235C224.885 197.475 227.469 197.18 230.03 197.314C235.174 197.583 240.271 199.573 244.306 203.037C248.446 206.59 251.261 211.658 252.532 217.161C253.803 222.656 253.564 228.573 251.726 233.891C251.487 234.581 251.221 235.258 250.931 235.921C250.867 236.069 251.071 236.198 251.135 236.05C253.413 230.834 254.072 224.894 253.174 219.224C252.277 213.555 249.811 208.164 245.915 204.206C242.02 200.247 237.211 197.983 232.09 197.26C226.806 196.514 221.435 197.62 216.868 200.596C211.812 203.891 207.992 208.906 204.451 213.904C204.013 214.521 203.578 215.142 203.145 215.762C203.054 215.894 203.258 216.02 203.349 215.891V215.888Z" fill="#1E1E1E"/>
<path d="M204.843 225.783C207.193 220.511 209.657 215.134 213.405 210.823C216.76 206.966 221.083 203.993 225.844 202.626C228.509 201.861 231.297 201.625 234.035 202.025C234.183 202.046 234.247 201.802 234.097 201.78C229.229 201.069 224.296 202.35 220.035 204.909C217.851 206.223 215.833 207.861 214.052 209.746C212.158 211.752 210.557 214.054 209.152 216.477C207.449 219.417 206.03 222.533 204.639 225.654C204.574 225.801 204.776 225.928 204.843 225.783Z" fill="#1E1E1E"/>
<path d="M239.685 206.034C241.902 207.197 243.723 209.126 244.843 211.489C244.913 211.634 245.115 211.505 245.048 211.36C243.911 208.959 242.055 206.993 239.806 205.814C239.669 205.742 239.551 205.962 239.688 206.032L239.685 206.034Z" fill="#1E1E1E"/>
<path d="M216.385 223.492C218.44 219.066 222.325 215.746 226.755 214.465C231.258 213.162 236.085 214.207 239.9 217.051C243.954 220.073 246.692 225.103 246.595 230.48C246.547 233.166 245.735 235.798 244.129 237.874C242.692 239.732 240.693 241.123 238.471 241.575C233.906 242.501 229.597 239.039 227.84 234.675C227.612 234.108 227.429 233.523 227.284 232.927C227.246 232.768 227.018 232.835 227.056 232.994C228.179 237.624 231.996 241.754 236.593 241.972C241.19 242.19 245.521 238.003 246.536 233.141C247.67 227.716 245.518 221.985 241.765 218.322C238.253 214.895 233.396 213.098 228.67 213.788C223.98 214.476 219.622 217.457 217.046 221.727C216.729 222.254 216.441 222.801 216.181 223.363C216.113 223.508 216.315 223.637 216.385 223.492Z" fill="#1E1E1E"/>
<path d="M95.0031 237.054C98.8448 234.914 103.517 235.663 107.034 238.185C110.349 240.562 112.858 244.36 113.906 248.488C114.908 252.43 114.602 257.283 111.716 260.278C110.061 261.997 107.719 262.077 105.594 261.529C103.6 261.016 101.733 259.956 100.212 258.478C98.6917 257.001 97.421 255 96.9965 252.777C96.5989 250.69 97.0368 248.391 98.3854 246.788C98.7078 246.403 99.0759 246.078 99.4816 245.805C99.6105 245.719 99.4923 245.498 99.3634 245.587C97.7326 246.688 96.7843 248.659 96.6338 250.695C96.4619 253.005 97.3538 255.272 98.6568 257.063C99.9598 258.854 101.725 260.256 103.678 261.127C105.631 261.997 107.993 262.512 110.024 261.723C111.945 260.979 113.223 258.983 113.935 257.009C114.666 254.979 114.811 252.747 114.542 250.599C113.986 246.124 111.7 241.921 108.487 239.045C105.164 236.069 100.578 234.637 96.3759 236.152C95.8601 236.337 95.3631 236.568 94.8795 236.837C94.7451 236.912 94.8634 237.13 94.9977 237.054H95.0031Z" fill="#1E1E1E"/>
<path d="M149.878 239.547C154.158 240.245 158.088 242.877 160.624 246.643C161.325 247.685 161.914 248.807 162.379 249.992C162.438 250.142 162.642 250.013 162.583 249.863C160.893 245.566 157.551 242.122 153.545 240.366C152.387 239.858 151.178 239.501 149.943 239.3C149.795 239.276 149.73 239.52 149.881 239.544L149.878 239.547Z" fill="#1E1E1E"/>
<path d="M165.017 206.204C162.868 212.566 157.946 217.476 152.463 220.562C150.639 221.587 148.597 222.415 146.507 222.074C146.359 222.049 146.295 222.294 146.445 222.318C148.24 222.611 150 222.087 151.625 221.287C153.148 220.537 154.604 219.589 155.977 218.561C158.594 216.603 160.953 214.213 162.774 211.387C163.795 209.803 164.631 208.084 165.243 206.271C165.294 206.118 165.068 206.051 165.015 206.204H165.017Z" fill="#1E1E1E"/>
<path d="M137.02 222.272C141.101 221.698 145.08 220.484 148.833 218.671C148.97 218.604 148.852 218.386 148.715 218.453C145.002 220.247 141.055 221.453 137.02 222.02C136.872 222.041 136.87 222.294 137.02 222.272Z" fill="#1E1E1E"/>
<path d="M257.996 263.498C259.283 264.747 259.791 266.643 259.718 268.467C259.632 270.599 258.792 272.597 257.926 274.48C257.859 274.625 258.063 274.754 258.131 274.609C259.031 272.651 259.901 270.567 259.96 268.346C260.009 266.498 259.466 264.583 258.166 263.321C258.053 263.211 257.886 263.391 257.999 263.501L257.996 263.498Z" fill="#1E1E1E"/>
<path d="M195.313 149.863C194.607 154.125 193.027 158.186 190.768 161.763C188.495 165.362 185.542 168.472 182.133 170.811C180.21 172.133 178.141 173.202 175.978 173.981C175.836 174.032 175.898 174.276 176.04 174.225C179.885 172.839 183.415 170.545 186.397 167.594C189.408 164.613 191.864 160.974 193.53 156.95C194.459 154.705 195.139 152.347 195.539 149.927C195.566 149.769 195.338 149.699 195.311 149.86L195.313 149.863Z" fill="#1E1E1E"/>
<path d="M181.709 165.953C179.068 168.553 175.898 170.476 172.465 171.563C172.319 171.609 172.381 171.853 172.526 171.808C176 170.709 179.205 168.762 181.876 166.133C181.988 166.023 181.822 165.843 181.709 165.953Z" fill="#1E1E1E"/>
<path d="M141.862 179.016C144.089 175.498 147.828 173.215 151.778 172.96C151.928 172.949 151.928 172.697 151.778 172.707C147.74 172.968 143.936 175.294 141.657 178.887C141.571 179.022 141.776 179.151 141.862 179.016Z" fill="#1E1E1E"/>
<path d="M136.021 164.983C134.24 166.418 133.034 168.59 132.725 170.964C132.704 171.123 132.932 171.193 132.953 171.032C133.252 168.727 134.407 166.6 136.14 165.204C136.261 165.107 136.14 164.887 136.021 164.986V164.983Z" fill="#1E1E1E"/>
<path d="M137.152 164.559C137.316 164.468 137.482 164.376 137.646 164.285C137.7 164.256 137.721 164.167 137.689 164.111C137.654 164.051 137.587 164.033 137.528 164.065C137.364 164.156 137.198 164.248 137.034 164.339C136.98 164.368 136.958 164.457 136.991 164.513C137.026 164.572 137.093 164.591 137.152 164.559Z" fill="#1E1E1E"/>
<path d="M147.42 185.419C150.421 185.314 153.398 186.407 155.709 188.473C155.824 188.577 155.993 188.397 155.875 188.293C153.516 186.184 150.486 185.059 147.42 185.167C147.27 185.172 147.267 185.424 147.42 185.419Z" fill="#1E1E1E"/>
<path d="M157.043 190.122C157.613 190.764 158.072 191.516 158.386 192.335C158.443 192.482 158.671 192.418 158.615 192.268C158.282 191.405 157.809 190.618 157.21 189.942C157.105 189.824 156.938 190.003 157.043 190.122Z" fill="#1E1E1E"/>
<path d="M145.344 192.354C145.765 193.154 146.19 193.952 146.612 194.752C146.687 194.894 146.891 194.765 146.816 194.623C146.394 193.823 145.969 193.025 145.548 192.225C145.472 192.082 145.268 192.211 145.344 192.354Z" fill="#1E1E1E"/>
<path d="M147.089 197.687C147.568 200.942 147.095 204.308 145.749 207.267C145.682 207.412 145.886 207.541 145.953 207.396C147.328 204.369 147.804 200.948 147.315 197.62C147.291 197.459 147.065 197.529 147.087 197.687H147.089Z" fill="#1E1E1E"/>
<path d="M130.012 200.84C130.756 200.604 131.479 200.301 132.174 199.935C132.311 199.863 132.19 199.645 132.056 199.718C131.379 200.072 130.673 200.368 129.95 200.596C129.805 200.642 129.867 200.886 130.012 200.84Z" fill="#1E1E1E"/>
<path d="M134.786 198.181C136.449 196.908 137.811 195.222 138.746 193.269C138.815 193.124 138.611 192.995 138.541 193.14C137.625 195.053 136.295 196.712 134.665 197.961C134.541 198.055 134.659 198.275 134.783 198.179L134.786 198.181Z" fill="#1E1E1E"/>
<path d="M123.338 178.511C124.931 177.609 126.694 177.101 128.491 177.031C128.642 177.026 128.644 176.771 128.491 176.779C126.651 176.852 124.848 177.37 123.217 178.294C123.083 178.369 123.201 178.589 123.336 178.511H123.338Z" fill="#1E1E1E"/>
<path d="M131.569 177.16C132.488 177.459 133.404 177.757 134.323 178.055C134.468 178.103 134.53 177.859 134.385 177.81C133.466 177.512 132.55 177.214 131.631 176.916C131.486 176.868 131.424 177.112 131.569 177.16Z" fill="#1E1E1E"/>
<path d="M148.634 147.814C150.33 148.528 151.85 149.669 153.064 151.13C153.167 151.251 153.333 151.071 153.231 150.951C151.987 149.457 150.432 148.3 148.696 147.569C148.554 147.51 148.495 147.755 148.634 147.814Z" fill="#1E1E1E"/>
<path d="M155.431 154.576C156.049 155.839 156.605 157.136 157.097 158.462C157.153 158.613 157.382 158.546 157.325 158.395C156.826 157.05 156.264 155.731 155.636 154.45C155.566 154.305 155.361 154.434 155.431 154.579V154.576Z" fill="#1E1E1E"/>
<path d="M157.904 163.294C158.084 163.737 158.164 164.221 158.143 164.704C158.135 164.868 158.371 164.868 158.379 164.704C158.403 164.175 158.307 163.651 158.11 163.168C158.084 163.106 158 163.09 157.949 163.122C157.89 163.16 157.882 163.232 157.906 163.297L157.904 163.294Z" fill="#1E1E1E"/>
<path d="M160.872 139.227C161.229 139.249 161.565 139.437 161.794 139.73C161.834 139.783 161.917 139.775 161.96 139.73C162.009 139.679 162 139.603 161.96 139.55C161.692 139.206 161.289 138.996 160.872 138.972C160.808 138.97 160.754 139.034 160.754 139.098C160.754 139.171 160.808 139.222 160.872 139.225V139.227Z" fill="#1E1E1E"/>
<path d="M163.808 141.236C168.155 144.926 169.875 150.854 170.557 156.545C170.576 156.703 170.812 156.706 170.793 156.545C170.245 151.976 169.098 147.36 166.406 143.68C165.694 142.705 164.88 141.824 163.978 141.056C163.859 140.957 163.693 141.134 163.811 141.236H163.808Z" fill="#1E1E1E"/>
<path d="M218.295 146.57C219.149 145.37 220.234 144.376 221.468 143.656C221.602 143.578 221.481 143.358 221.349 143.439C220.079 144.183 218.972 145.208 218.093 146.444C218.002 146.573 218.206 146.699 218.297 146.573L218.295 146.57Z" fill="#1E1E1E"/>
<path d="M222.932 143.012C223.139 142.966 223.345 142.918 223.552 142.872C223.611 142.858 223.654 142.778 223.636 142.716C223.614 142.646 223.555 142.614 223.491 142.627C223.284 142.673 223.077 142.722 222.87 142.767C222.811 142.781 222.768 142.861 222.787 142.923C222.808 142.993 222.867 143.025 222.932 143.012Z" fill="#1E1E1E"/>
<path d="M219.273 160.353C220.081 158.997 221.084 157.786 222.241 156.765C222.36 156.66 222.19 156.483 222.075 156.585C220.904 157.622 219.888 158.852 219.071 160.224C218.988 160.361 219.192 160.49 219.276 160.353H219.273Z" fill="#1E1E1E"/>
<path d="M223.713 155.398C226.236 152.962 229.333 151.286 232.654 150.556C232.802 150.524 232.74 150.279 232.592 150.311C229.231 151.053 226.099 152.755 223.546 155.221C223.434 155.331 223.6 155.508 223.713 155.401V155.398Z" fill="#1E1E1E"/>
<path d="M224.1 168.496C225.784 168.851 227.321 169.802 228.455 171.187C228.554 171.311 228.721 171.131 228.621 171.007C227.463 169.589 225.884 168.612 224.164 168.252C224.016 168.22 223.952 168.464 224.102 168.496H224.1Z" fill="#1E1E1E"/>
<path d="M230.049 173.188L230.656 174.402C230.728 174.547 230.93 174.418 230.86 174.273L230.253 173.059C230.18 172.914 229.979 173.043 230.049 173.188Z" fill="#1E1E1E"/>
<path d="M302.15 207.219H301.567V255.143H302.15V207.219Z" fill="#72611A"/>
<path opacity="0.64" d="M315.173 34.6161C314.114 34.5839 312.827 34.4604 311.395 34.1435C310.159 33.8695 309.087 33.5123 308.19 33.1524C306.82 29.6905 306.409 23.6074 306.476 22.0228C306.425 23.6369 306.24 25.5975 305.756 27.7837C305.294 29.8705 304.673 31.6511 304.064 33.1041C303.239 33.4183 302.277 33.7245 301.194 33.9635C299.76 34.2804 298.475 34.404 297.417 34.4362C298.368 34.3959 301.791 34.6188 304.104 35.3467C304.7 36.7808 305.302 38.5292 305.753 40.5677C306.237 42.7539 306.425 44.7144 306.473 46.3285C306.409 44.8165 306.78 39.2087 308.005 35.6877C310.294 34.8283 314.152 34.5705 315.17 34.6135L315.173 34.6161Z" fill="#C9B243"/>
<path opacity="0.57" d="M268.32 187.898C267.823 187.882 267.221 187.825 266.55 187.678C265.972 187.549 265.47 187.382 265.048 187.213C264.406 185.591 264.213 182.744 264.245 182C264.221 182.757 264.135 183.676 263.906 184.699C263.691 185.677 263.399 186.512 263.114 187.191C262.727 187.339 262.278 187.482 261.77 187.594C261.099 187.742 260.497 187.801 260 187.815C260.446 187.796 262.047 187.901 263.133 188.242C263.412 188.913 263.694 189.732 263.906 190.688C264.132 191.712 264.221 192.63 264.245 193.387C264.215 192.678 264.387 190.052 264.962 188.405C266.034 188.003 267.842 187.882 268.318 187.903L268.32 187.898Z" fill="#808080"/>
<path opacity="0.57" d="M50.5078 222.667C50.0108 222.651 49.409 222.595 48.7374 222.447C48.1597 222.318 47.6574 222.151 47.2356 221.982C46.5935 220.36 46.4 217.513 46.4323 216.769C46.4081 217.527 46.3221 218.445 46.0938 219.468C45.8788 220.446 45.586 221.281 45.3012 221.961C44.9144 222.108 44.4657 222.251 43.9579 222.364C43.2863 222.511 42.6845 222.57 42.1875 222.584C42.6335 222.565 44.2347 222.67 45.32 223.011C45.5994 223.682 45.8815 224.501 46.0938 225.458C46.3194 226.481 46.4081 227.399 46.4323 228.157C46.4027 227.448 46.5747 224.821 47.1496 223.175C48.2215 222.772 50.0296 222.651 50.5051 222.672L50.5078 222.667Z" fill="#808080"/>
<path opacity="0.57" d="M288.807 247.644C288.31 247.628 287.708 247.572 287.036 247.424C286.459 247.295 285.956 247.129 285.534 246.959C284.892 245.337 284.699 242.49 284.731 241.746C284.707 242.504 284.621 243.422 284.393 244.446C284.178 245.423 283.885 246.258 283.6 246.938C283.213 247.086 282.765 247.228 282.257 247.341C281.585 247.489 280.983 247.548 280.486 247.561C280.932 247.542 282.533 247.647 283.619 247.988C283.898 248.659 284.18 249.479 284.393 250.435C284.618 251.458 284.707 252.377 284.731 253.134C284.702 252.425 284.873 249.798 285.448 248.152C286.52 247.749 288.328 247.628 288.804 247.65L288.807 247.644Z" fill="#808080"/>
<path opacity="0.57" d="M102.896 115.239C102.399 115.222 101.798 115.166 101.126 115.018C100.548 114.889 100.046 114.723 99.6242 114.554C98.9821 112.932 98.7887 110.085 98.8209 109.341C98.7968 110.098 98.7108 111.017 98.4824 112.04C98.2675 113.018 97.9747 113.853 97.6899 114.532C97.303 114.68 96.8544 114.822 96.3466 114.935C95.675 115.083 95.0732 115.142 94.5762 115.155C95.0221 115.137 96.6233 115.241 97.7087 115.582C97.9881 116.254 98.2702 117.073 98.4824 118.029C98.7081 119.052 98.7968 119.971 98.8209 120.728C98.7914 120.019 98.9633 117.393 99.5383 115.746C100.61 115.343 102.418 115.222 102.894 115.244L102.896 115.239Z" fill="#808080"/>
<path opacity="0.83" d="M180.941 107.429C183.834 107.429 186.18 105.084 186.18 102.191C186.18 99.299 183.834 96.9542 180.941 96.9542C178.048 96.9542 175.702 99.299 175.702 102.191C175.702 105.084 178.048 107.429 180.941 107.429Z" fill="#2B2B3A"/>
<path opacity="0.45" d="M290.015 180.749C291.722 180.749 293.105 179.366 293.105 177.66C293.105 175.954 291.722 174.571 290.015 174.571C288.309 174.571 286.926 175.954 286.926 177.66C286.926 179.366 288.309 180.749 290.015 180.749Z" fill="#22222B"/>
<path d="M36.7932 202.46C27.5246 202.46 19.9834 194.921 19.9834 185.655C19.9834 176.39 27.5246 168.851 36.7932 168.851C46.0619 168.851 53.6031 176.39 53.6031 185.655C53.6031 194.921 46.0619 202.46 36.7932 202.46ZM36.7932 169.444C27.8524 169.444 20.5798 176.715 20.5798 185.653C20.5798 194.591 27.8524 201.861 36.7932 201.861C45.7341 201.861 53.0067 194.591 53.0067 185.653C53.0067 176.715 45.7341 169.444 36.7932 169.444Z" fill="#72611A"/>
<path d="M37.4725 211.387C22.7985 211.387 10.8594 199.452 10.8594 184.782C10.8594 170.113 22.7985 158.178 37.4725 158.178C52.1465 158.178 64.0856 170.113 64.0856 184.782C64.0856 199.452 52.1465 211.387 37.4725 211.387ZM37.4725 158.758C23.1182 158.758 11.4424 170.433 11.4424 184.78C11.4424 199.127 23.1209 210.802 37.4725 210.802C51.8242 210.802 63.5027 199.127 63.5027 184.78C63.5027 170.433 51.8242 158.758 37.4725 158.758Z" fill="#72611A"/>
<path d="M20.8324 190.369C21.6766 190.369 22.361 189.685 22.361 188.841C22.361 187.997 21.6766 187.312 20.8324 187.312C19.9881 187.312 19.3037 187.997 19.3037 188.841C19.3037 189.685 19.9881 190.369 20.8324 190.369Z" fill="#9B862F"/>
<path d="M53.2748 164.93C54.119 164.93 54.8034 164.246 54.8034 163.402C54.8034 162.558 54.119 161.873 53.2748 161.873C52.4305 161.873 51.7461 162.558 51.7461 163.402C51.7461 164.246 52.4305 164.93 53.2748 164.93Z" fill="#9B862F"/>
<path d="M52.1141 183.961C53.7121 183.961 55.0076 182.666 55.0076 181.068C55.0076 179.471 53.7121 178.176 52.1141 178.176C50.5161 178.176 49.2207 179.471 49.2207 181.068C49.2207 182.666 50.5161 183.961 52.1141 183.961Z" fill="#72611A"/>
<path d="M21.0311 209.209C22.6291 209.209 23.9246 207.914 23.9246 206.317C23.9246 204.719 22.6291 203.424 21.0311 203.424C19.4331 203.424 18.1377 204.719 18.1377 206.317C18.1377 207.914 19.4331 209.209 21.0311 209.209Z" fill="#72611A"/>
<path d="M27.6106 163.377C28.9801 163.377 30.0903 162.267 30.0903 160.898C30.0903 159.529 28.9801 158.419 27.6106 158.419C26.2411 158.419 25.1309 159.529 25.1309 160.898C25.1309 162.267 26.2411 163.377 27.6106 163.377Z" fill="#72611A"/>
<path d="M49.2718 163.375C50.3727 163.375 51.2652 162.482 51.2652 161.382C51.2652 160.281 50.3727 159.389 49.2718 159.389C48.1708 159.389 47.2783 160.281 47.2783 161.382C47.2783 162.482 48.1708 163.375 49.2718 163.375Z" fill="#72611A"/>
<path d="M21.1113 180.923C21.8027 180.923 22.3633 180.363 22.3633 179.672C22.3633 178.98 21.8027 178.42 21.1113 178.42C20.4199 178.42 19.8594 178.98 19.8594 179.672C19.8594 180.363 20.4199 180.923 21.1113 180.923Z" fill="#72611A"/>
<path d="M37.6494 193.704H37.0664V271.526H37.6494V193.704Z" fill="#72611A"/>
<path d="M38.6224 177.587C39.7507 177.587 40.828 177.81 41.814 178.211C41.497 178.168 41.1746 178.143 40.8468 178.143C36.9325 178.143 33.7597 181.315 33.7597 185.228C33.7597 189.141 36.9325 192.313 40.8468 192.313C42.98 192.313 44.8928 191.371 46.1904 189.877C44.7934 192.641 41.9295 194.534 38.6224 194.534C33.9397 194.534 30.1436 190.739 30.1436 186.058C30.1436 181.377 33.9397 177.582 38.6224 177.582V177.587Z" fill="#72611A"/>
<path d="M37.2334 203.709C37.9248 203.709 38.4853 203.148 38.4853 202.457C38.4853 201.766 37.9248 201.206 37.2334 201.206C36.542 201.206 35.9814 201.766 35.9814 202.457C35.9814 203.148 36.542 203.709 37.2334 203.709Z" fill="#9B862F"/>
<path d="M58.3363 202.001C59.5441 202.001 60.5231 201.022 60.5231 199.814C60.5231 198.607 59.5441 197.628 58.3363 197.628C57.1285 197.628 56.1494 198.607 56.1494 199.814C56.1494 201.022 57.1285 202.001 58.3363 202.001Z" fill="#9B862F"/>
<path d="M301.702 255.411C299.131 251.971 296.568 249.527 294.661 247.913C291.109 244.91 287.625 242.037 282.574 241.411C279.546 241.035 277.4 241.647 276.908 241.792C273.902 242.695 271.976 244.502 271.073 245.474C268.604 245.445 265.665 245.689 262.476 246.549C251.756 249.436 245.569 257.283 243.294 260.536C243.098 260.385 241.719 259.365 239.895 259.77C238.216 260.144 237.394 261.449 237.252 261.683C236.255 259.754 233.501 255.116 228.187 253.266C226.739 252.761 224.611 252.049 222.521 252.884C219.332 254.157 217.406 258.583 217.882 264.003C217.642 263.818 216.635 263.09 215.195 263.197C213.86 263.297 213.011 264.049 212.777 264.272C212.409 263.874 208.844 260.149 203.643 260.78C199.376 261.298 195.758 264.537 194.573 268.95C194.406 268.574 192.335 264.089 187.397 263.211C183.843 262.58 180.189 264.062 177.954 267.035C177.599 266.971 175.318 266.6 173.422 268.182C172.213 269.192 170.99 271.134 171.533 272.39C172.186 273.9 175.415 274.477 179.464 273.156C181.261 274.158 183.273 275.084 185.506 275.834C197.971 280.021 209.572 276.177 214.967 273.921C216.111 274.217 217.822 274.507 219.878 274.303C222.93 273.999 225.157 272.758 226.299 272.006C227.153 273.169 228.066 274.034 228.942 274.684C236.508 280.297 247.966 274.963 249.339 274.303C249.441 274.719 250.15 277.421 252.807 278.772C255.037 279.905 257.785 279.65 259.913 278.127C263.526 279.658 278.802 285.685 290.688 278.235C291.993 277.415 293.339 276.384 294.661 275.068C297.571 276.317 303.508 278.364 310.901 277.364C314.563 276.868 317.542 275.766 319.702 274.743C325.202 278.353 332.485 276.999 336.09 272.057C340.209 266.412 338.13 258 332.329 254.869C328.101 252.586 322.467 253.416 318.456 257.087C318.219 253.596 315.03 251.203 312.035 251.732C309.418 252.194 307.368 254.812 307.613 257.823C307.465 257.458 306.936 256.274 305.614 255.559C303.782 254.565 301.947 255.304 301.702 255.406V255.411Z" fill="#666666"/>
<path d="M247.428 261.312C250.246 257.066 254.647 253.781 259.655 252.656C264.501 251.565 269.635 252.804 273.415 256.043C275.465 257.799 277.029 260.101 277.743 262.714C277.778 262.837 277.972 262.786 277.937 262.66C276.639 257.925 272.655 254.318 268.064 252.817C263.136 251.206 257.785 252.288 253.481 255.051C251.004 256.644 248.879 258.755 247.251 261.207C247.178 261.315 247.353 261.417 247.425 261.309L247.428 261.312Z" fill="#1E1E1E"/>
<path d="M275.336 255.513C277.292 256.239 278.946 257.667 279.986 259.472C281.174 261.535 281.351 263.979 281.115 266.307C280.969 267.742 280.609 269.152 279.957 270.438C279.898 270.553 280.072 270.656 280.131 270.54C281.308 268.22 281.601 265.459 281.303 262.894C281.05 260.713 280.043 258.696 278.431 257.197C277.549 256.376 276.518 255.739 275.389 255.32C275.269 255.274 275.215 255.47 275.336 255.513Z" fill="#1E1E1E"/>
<path d="M284.076 264.629C284.371 266.471 283.936 268.375 282.878 269.912C282.805 270.019 282.98 270.118 283.052 270.014C284.14 268.432 284.576 266.471 284.269 264.575C284.248 264.446 284.054 264.503 284.076 264.629Z" fill="#1E1E1E"/>
<path d="M258.61 270.014C259.969 272.356 262.016 274.273 264.437 275.487C267.01 276.776 269.947 277.203 272.787 276.747C274.441 276.481 276.037 275.917 277.491 275.087C277.604 275.023 277.501 274.848 277.389 274.912C274.836 276.371 271.833 276.978 268.915 276.629C266.223 276.309 263.666 275.138 261.627 273.357C260.498 272.372 259.536 271.206 258.781 269.912C258.717 269.799 258.542 269.901 258.607 270.014H258.61Z" fill="#1E1E1E"/>
<path d="M271.215 273.459C273.582 274.703 276.55 274.558 278.78 273.075C278.888 273.003 278.788 272.828 278.678 272.901C276.51 274.34 273.622 274.496 271.317 273.285C271.201 273.226 271.099 273.398 271.215 273.459Z" fill="#1E1E1E"/>
<path d="M275.447 248.893C279.377 245.506 285.427 245.544 289.605 248.45C293.954 251.474 296.074 256.878 295.617 262.067C295.332 265.311 294.134 268.437 292.332 271.136C292.259 271.244 292.434 271.346 292.506 271.238C295.684 266.479 296.963 260.275 294.809 254.839C293.868 252.471 292.34 250.317 290.33 248.737C288.321 247.158 285.822 246.218 283.235 246.113C280.376 245.998 277.488 246.876 275.307 248.754C275.207 248.839 275.352 248.979 275.449 248.896L275.447 248.893Z" fill="#1E1E1E"/>
<path d="M293.092 262.4C293.148 266.442 290.438 270.314 286.612 271.639C286.491 271.681 286.542 271.875 286.666 271.832C289.699 270.782 292.066 268.169 292.939 265.093C293.186 264.218 293.307 263.31 293.293 262.4C293.293 262.271 293.089 262.271 293.092 262.4Z" fill="#1E1E1E"/>
<path d="M299.22 272.468C302.556 274.219 306.414 274.915 310.154 274.453C311.202 274.324 312.233 274.104 313.244 273.795C313.367 273.758 313.313 273.564 313.19 273.602C308.615 274.993 303.556 274.518 299.322 272.296C299.206 272.237 299.104 272.409 299.22 272.471V272.468Z" fill="#1E1E1E"/>
<path d="M312.577 273.202C314.138 272.847 315.677 272.398 317.184 271.859C317.305 271.816 317.254 271.62 317.131 271.665C315.623 272.205 314.084 272.654 312.523 273.008C312.397 273.038 312.451 273.231 312.577 273.202Z" fill="#1E1E1E"/>
<path d="M314.839 255.935C316.505 256.709 317.856 258.068 318.643 259.725C319.562 261.656 319.524 263.807 318.982 265.84C318.646 267.102 318.143 268.311 317.603 269.498C317.55 269.616 317.724 269.718 317.778 269.6C318.737 267.492 319.621 265.241 319.578 262.888C319.543 260.955 318.796 259.099 317.504 257.659C316.787 256.859 315.913 256.212 314.938 255.761C314.823 255.707 314.718 255.879 314.836 255.935H314.839Z" fill="#1E1E1E"/>
<path d="M320.081 263.842C320.607 265.51 320.36 267.349 319.415 268.821C319.345 268.931 319.519 269.031 319.589 268.923C320.562 267.411 320.817 265.504 320.277 263.788C320.239 263.665 320.043 263.718 320.084 263.842H320.081Z" fill="#1E1E1E"/>
<path d="M327.563 257.071C330.582 257.071 333.366 259.067 334.483 261.849C335.673 264.814 335.045 268.233 333.1 270.725C332.084 272.025 330.762 273.062 329.279 273.782C329.164 273.838 329.266 274.013 329.381 273.956C332.186 272.597 334.448 270.043 335.096 266.949C335.743 263.855 334.741 260.477 332.189 258.495C330.867 257.469 329.239 256.87 327.563 256.87C327.434 256.87 327.434 257.071 327.563 257.071Z" fill="#1E1E1E"/>
<path d="M330.752 270.011C328.952 271.553 326.628 272.396 324.259 272.374C324.13 272.374 324.13 272.576 324.259 272.576C326.682 272.6 329.054 271.733 330.895 270.153C330.994 270.07 330.849 269.928 330.752 270.011Z" fill="#1E1E1E"/>
<path d="M223.961 255.734C225.489 254.837 227.359 255.086 228.95 255.677C230.425 256.225 231.784 257.079 232.942 258.143C235.381 260.385 236.824 263.53 236.902 266.847C236.95 268.845 236.518 270.838 235.634 272.63C235.577 272.745 235.749 272.847 235.808 272.732C237.402 269.501 237.544 265.614 236.131 262.295C234.86 259.308 232.38 256.867 229.382 255.629C227.647 254.915 225.557 254.56 223.859 255.556C223.746 255.621 223.848 255.795 223.961 255.731V255.734Z" fill="#1E1E1E"/>
<path d="M235.016 266.06C235.717 267.905 235.295 270.075 233.941 271.515C233.852 271.609 233.995 271.751 234.083 271.657C235.483 270.169 235.937 267.919 235.209 266.007C235.163 265.886 234.97 265.939 235.016 266.06Z" fill="#1E1E1E"/>
<path d="M245.142 265.956C246.539 267.129 246.856 269.315 245.851 270.838C245.779 270.946 245.953 271.048 246.026 270.94C247.076 269.348 246.746 267.043 245.285 265.813C245.185 265.73 245.043 265.872 245.142 265.956Z" fill="#1E1E1E"/>
<path d="M247.643 269.356C247.681 269.775 247.632 270.194 247.492 270.594C247.449 270.717 247.646 270.768 247.686 270.647C247.828 270.234 247.882 269.791 247.842 269.356C247.836 269.302 247.799 269.254 247.74 269.254C247.689 269.254 247.635 269.299 247.638 269.356H247.643Z" fill="#1E1E1E"/>
<path d="M198.951 267.723C199.91 265.813 202.11 265.12 204.12 265.257C206.1 265.391 208.545 266.095 209.67 267.87C210.275 268.824 210.474 270.059 209.945 271.088C209.885 271.203 210.06 271.305 210.119 271.19C211.121 269.243 209.789 267.121 208.064 266.16C207.056 265.598 205.901 265.281 204.762 265.126C203.623 264.97 202.339 265.01 201.221 265.459C200.182 265.878 199.279 266.613 198.774 267.623C198.715 267.739 198.889 267.841 198.948 267.725L198.951 267.723Z" fill="#1E1E1E"/>
<path d="M206.907 269.434C207.584 269.734 208.333 270.075 208.76 270.712C209.126 271.254 209.217 272.074 208.723 272.568C208.632 272.659 208.774 272.801 208.865 272.71C209.392 272.186 209.354 271.338 209.005 270.725C208.583 269.984 207.756 269.589 207.006 269.259C206.888 269.208 206.786 269.38 206.904 269.434H206.907Z" fill="#1E1E1E"/>
<path d="M182.042 270.094C185.032 272.579 188.704 274.158 192.565 274.617C192.694 274.633 192.691 274.432 192.565 274.416C188.764 273.962 185.129 272.399 182.187 269.952C182.087 269.869 181.945 270.011 182.044 270.094H182.042Z" fill="#1E1E1E"/>
<path d="M302.342 216.885C292.369 216.885 284.256 208.774 284.256 198.805C284.256 188.835 292.369 180.724 302.342 180.724C312.314 180.724 320.428 188.835 320.428 198.805C320.428 208.774 312.314 216.885 302.342 216.885ZM302.342 181.31C292.692 181.31 284.839 189.158 284.839 198.807C284.839 208.457 292.689 216.305 302.342 216.305C311.995 216.305 319.845 208.457 319.845 198.807C319.845 189.158 311.995 181.31 302.342 181.31Z" fill="#72611A"/>
<path d="M285.15 195.439C286.013 195.439 286.713 194.74 286.713 193.876C286.713 193.013 286.013 192.313 285.15 192.313C284.286 192.313 283.586 193.013 283.586 193.876C283.586 194.74 284.286 195.439 285.15 195.439Z" fill="#72611A"/>
<path d="M315.565 190.632C317.424 190.632 318.931 189.125 318.931 187.267C318.931 185.408 317.424 183.902 315.565 183.902C313.705 183.902 312.198 185.408 312.198 187.267C312.198 189.125 313.705 190.632 315.565 190.632Z" fill="#72611A"/>
<path d="M312.8 215.392C313.929 215.392 314.845 214.476 314.845 213.348C314.845 212.219 313.929 211.304 312.8 211.304C311.671 211.304 310.756 212.219 310.756 213.348C310.756 214.476 311.671 215.392 312.8 215.392Z" fill="#9B862F"/>
<path d="M302.342 189.429C302.21 189.429 302.103 189.321 302.103 189.19V184.382C302.103 184.251 302.21 184.143 302.342 184.143C302.473 184.143 302.581 184.251 302.581 184.382V189.19C302.581 189.321 302.473 189.429 302.342 189.429Z" fill="#847120"/>
<path d="M292.963 199.044H287.673C287.541 199.044 287.434 198.936 287.434 198.805C287.434 198.673 287.541 198.566 287.673 198.566H292.963C293.094 198.566 293.202 198.673 293.202 198.805C293.202 198.936 293.094 199.044 292.963 199.044Z" fill="#847120"/>
<path d="M317.007 199.044H312.198C312.066 199.044 311.959 198.936 311.959 198.805C311.959 198.673 312.066 198.566 312.198 198.566H317.007C317.139 198.566 317.246 198.673 317.246 198.805C317.246 198.936 317.139 199.044 317.007 199.044Z" fill="#847120"/>
<path d="M292.723 208.419C292.661 208.419 292.6 208.395 292.554 208.35C292.46 208.256 292.46 208.103 292.554 208.009L294.958 205.605C295.052 205.511 295.206 205.511 295.3 205.605C295.394 205.699 295.394 205.852 295.3 205.946L292.895 208.35C292.849 208.395 292.788 208.419 292.726 208.419H292.723Z" fill="#847120"/>
<path d="M311.839 208.54C311.777 208.54 311.715 208.516 311.67 208.47L309.386 206.188C309.292 206.094 309.292 205.941 309.386 205.847C309.48 205.753 309.633 205.753 309.727 205.847L312.011 208.129C312.105 208.223 312.105 208.376 312.011 208.47C311.965 208.516 311.903 208.54 311.841 208.54H311.839Z" fill="#847120"/>
<path d="M308.833 191.593C308.771 191.593 308.709 191.569 308.663 191.524C308.569 191.43 308.569 191.277 308.663 191.183L310.466 189.38C310.56 189.286 310.713 189.286 310.807 189.38C310.901 189.474 310.901 189.628 310.807 189.722L309.004 191.524C308.959 191.569 308.897 191.593 308.835 191.593H308.833Z" fill="#847120"/>
<path d="M296.09 191.833C296.028 191.833 295.966 191.808 295.921 191.763L293.637 189.48C293.543 189.386 293.543 189.233 293.637 189.139C293.731 189.045 293.884 189.045 293.978 189.139L296.262 191.422C296.356 191.516 296.356 191.669 296.262 191.763C296.216 191.808 296.154 191.833 296.092 191.833H296.09Z" fill="#847120"/>
<path d="M302.462 207.34C307.111 207.34 310.879 203.573 310.879 198.925C310.879 194.278 307.111 190.511 302.462 190.511C297.813 190.511 294.045 194.278 294.045 198.925C294.045 203.573 297.813 207.34 302.462 207.34Z" fill="#72611A"/>
<path d="M-35.7309 268.034C-34.5568 268.295 -32.8401 268.531 -30.801 268.3C-27.7813 267.959 -25.5649 266.764 -24.3801 266.004C-23.5258 267.167 -22.6124 268.032 -21.7365 268.681C-14.1712 274.295 -2.71296 268.961 -1.34012 268.3C1.11003 269.35 4.73689 270.787 9.23421 272.125C24.3005 276.607 44.1623 278.506 45.8709 273.655C46.1638 272.823 46.0482 271.437 43.9823 269.066C50.3844 270.825 55.9509 271.319 60.2226 271.362C68.2635 271.442 75.2485 271.512 78.7303 266.772C80.662 264.14 81.5727 259.95 79.8641 256.443C77.9324 252.481 73.0456 250.188 67.7772 251.087C67.5811 247.604 64.4002 245.171 61.3563 245.732C58.3259 246.291 56.1981 249.68 57.2029 253C57.5172 251.082 56.1954 249.573 54.9354 249.557C54.022 249.546 53.0709 250.319 52.6679 251.469C49.5273 246.954 46.3008 243.86 43.9823 241.905C38.9584 237.675 34.9957 236.104 31.8954 235.403C29.9127 234.954 27.3014 234.393 26.2294 235.784C25.093 237.259 26.4121 239.982 26.6082 240.374C23.61 239.689 19.3921 239.168 14.5214 239.993C1.72525 242.157 -5.56878 251.936 -7.3849 254.53C-7.58102 254.38 -8.95922 253.359 -10.7834 253.765C-12.4625 254.138 -13.2846 255.444 -13.427 255.677C-14.4237 253.749 -17.1774 249.111 -22.4915 247.26C-24.0067 246.734 -26.1586 245.985 -28.1574 246.879C-31.2174 248.249 -32.8589 252.997 -31.9348 258.739C-32.2786 258.57 -33.2834 258.132 -34.5783 258.358C-35.7873 258.567 -36.561 259.233 -36.8458 259.504C-38.7882 258.062 -41.378 257.829 -43.5219 258.905C-45.7974 260.047 -47.4524 262.604 -47.0145 264.545C-46.4207 267.177 -41.8159 269.401 -35.7309 268.037V268.034Z" fill="#666666"/>
<path d="M0.161412 253.386C4.11335 250.706 8.36081 248.482 12.8125 246.761C12.9334 246.715 12.8796 246.519 12.7587 246.567C8.28828 248.294 4.02469 250.523 0.0593221 253.214C-0.0481406 253.287 0.053949 253.462 0.161412 253.389V253.386Z" fill="#1E1E1E"/>
<path d="M17.3745 245.928C21.3345 244.712 25.6599 244.951 29.5124 246.444C33.4671 247.977 37.2363 250.991 38.8698 254.995C39.8557 257.407 39.9202 260.24 38.5716 262.531C38.5044 262.644 38.679 262.743 38.7462 262.633C39.9202 260.638 40.068 258.188 39.4286 255.992C38.7838 253.776 37.4136 251.823 35.7775 250.22C32.7444 247.247 28.6501 245.445 24.4348 245.034C22.0438 244.8 19.6151 245.028 17.3181 245.735C17.1945 245.772 17.2483 245.968 17.3719 245.928H17.3745Z" fill="#1E1E1E"/>
<path d="M37.3899 257.912C37.5538 260.117 36.5194 262.249 34.929 263.74C33.2902 265.273 31.1517 266.138 28.989 266.622C28.8627 266.651 28.9165 266.845 29.0427 266.815C31.2726 266.315 33.4809 265.41 35.1493 263.807C36.7317 262.29 37.7553 260.13 37.5914 257.912C37.5806 257.783 37.3791 257.783 37.3899 257.912Z" fill="#1E1E1E"/>
<path d="M42.276 244.142C44.6509 245.114 46.7195 246.79 48.1784 248.901C49.7634 251.195 50.5613 253.961 50.4807 256.746C50.4351 258.376 50.0858 259.985 49.4598 261.492C49.4088 261.613 49.6049 261.664 49.6533 261.546C50.8004 258.79 50.9992 255.667 50.2121 252.787C49.5136 250.233 48.0225 247.932 46.0184 246.207C44.9169 245.262 43.673 244.502 42.3297 243.951C42.2088 243.903 42.1578 244.097 42.276 244.145V244.142Z" fill="#1E1E1E"/>
<path d="M47.3268 261.266C46.2199 263.603 43.8719 265.246 41.2901 265.472C41.1611 265.483 41.1611 265.684 41.2901 265.673C43.9363 265.443 46.3596 263.769 47.4987 261.366C47.5552 261.25 47.3805 261.148 47.3241 261.264L47.3268 261.266Z" fill="#1E1E1E"/>
<path d="M61.781 249.503C63.307 249.42 64.8357 250.123 65.7249 251.375C66.6196 252.634 66.7673 254.324 66.1763 255.739C66.1252 255.857 66.3213 255.911 66.3697 255.793C66.993 254.3 66.8076 252.505 65.8404 251.195C64.8733 249.884 63.3419 249.215 61.7784 249.301C61.6494 249.309 61.6494 249.511 61.7784 249.503H61.781Z" fill="#1E1E1E"/>
<path d="M64.6181 254.329C65.3623 256.12 65.0345 258.264 63.7665 259.738C63.6832 259.835 63.8256 259.98 63.9089 259.88C65.2199 258.355 65.5853 256.137 64.8115 254.275C64.7632 254.157 64.5671 254.208 64.6181 254.329Z" fill="#1E1E1E"/>
<path d="M72.729 256.112C74.5881 256.886 75.5418 258.914 75.5392 260.847C75.5338 263.071 74.1798 264.981 72.412 266.224C71.3669 266.957 70.1875 267.481 68.9624 267.827C68.8389 267.862 68.8899 268.058 69.0162 268.021C71.2863 267.376 73.5054 266.095 74.7869 264.057C75.9018 262.284 76.0604 260.023 75.1174 258.137C74.6177 257.144 73.8144 256.343 72.7827 255.914C72.6618 255.863 72.6108 256.059 72.729 256.107V256.112Z" fill="#1E1E1E"/>
<path d="M52.9583 264.656C55.489 266.297 58.5517 267.019 61.5499 266.681C61.6762 266.667 61.6789 266.466 61.5499 266.479C58.5839 266.812 55.5669 266.103 53.0604 264.481C52.9502 264.411 52.8508 264.586 52.9583 264.656Z" fill="#1E1E1E"/>
<path d="M66.8289 267.151C69.0051 266.377 71.0361 265.26 72.8603 263.842C72.9624 263.761 72.82 263.622 72.7179 263.699C70.926 265.096 68.9164 266.195 66.7779 266.957C66.657 267 66.708 267.196 66.8316 267.151H66.8289Z" fill="#1E1E1E"/>
</g>
</g>
<defs>
<clipPath id="clip0_4180_12130">
<rect width="342" height="282" fill="white"/>
</clipPath>
</defs>
</svg>
