<svg width="1056" height="301" viewBox="0 0 1056 301" fill="none" xmlns="http://www.w3.org/2000/svg">
<g clip-path="url(#clip0_240_9564)">
<path d="M1005.51 239.244C1003.48 262.628 993.23 285.225 978.614 303.914C978.003 304.695 977.384 305.47 976.759 306.237C975.351 307.963 973.907 309.656 972.426 311.317C970.615 313.364 968.751 315.363 966.834 317.315C965.274 318.922 963.677 320.494 962.044 322.032C960.783 323.232 959.508 324.408 958.219 325.56C942.708 339.505 924.888 351.012 906.529 361.076C870.699 380.709 831.427 395.582 790.578 397.747C749.735 399.908 707.096 388.27 677.143 360.555C636.774 323.205 625.507 260.907 641.897 208.544C652.798 173.707 675.048 142.192 705.328 121.609C735.347 101.205 773.217 92.0206 809.058 98.024C837.669 80.7249 875.124 80.3939 906.229 93.1985C922.826 100.032 937.721 110.194 950.788 122.472C956.772 128.106 962.372 134.132 967.549 140.509C968.078 141.155 968.602 141.806 969.12 142.463C971.292 145.193 973.392 147.98 975.422 150.822C978.335 154.899 981.102 159.066 983.72 163.323C984.441 164.495 985.155 165.673 985.854 166.862C986.323 167.66 986.798 168.463 987.261 169.272C987.272 169.289 987.279 169.307 987.283 169.326C994.545 182.033 1000.48 195.592 1003.57 209.765C1004.12 212.273 1004.58 214.791 1004.93 217.332V217.337C1005.24 219.492 1005.48 221.658 1005.64 223.834C1006.01 228.966 1005.97 234.119 1005.51 239.244Z" fill="#1B1D1F"/>
<path opacity="0.3" d="M898.924 274.595L817.924 207.463L896.615 277.284C896.767 277.539 896.978 277.755 897.231 277.913C897.484 278.071 897.771 278.166 898.068 278.192C898.366 278.217 898.665 278.172 898.941 278.059C899.217 277.946 899.463 277.77 899.657 277.544C899.851 277.318 899.988 277.05 900.056 276.761C900.125 276.472 900.124 276.171 900.052 275.882C899.981 275.594 899.841 275.327 899.645 275.103C899.449 274.879 899.202 274.705 898.924 274.595Z" fill="#F0F0F0"/>
<path d="M713.169 240.433C739.987 240.433 761.727 218.804 761.727 192.124C761.727 165.443 739.987 143.815 713.169 143.815C686.351 143.815 664.61 165.443 664.61 192.124C664.61 218.804 686.351 240.433 713.169 240.433Z" fill="#3F3D56"/>
<path d="M756.271 188.867C756.272 194.641 755.129 200.358 752.908 205.693C750.687 211.027 747.432 215.874 743.328 219.957C739.224 224.04 734.352 227.279 728.99 229.488C723.628 231.697 717.881 232.834 712.078 232.834C706.905 232.831 701.772 231.931 696.91 230.174C689.308 227.419 682.611 222.641 677.549 216.362C672.487 210.082 669.253 202.541 668.2 194.56C667.147 186.579 668.316 178.464 671.578 171.097C674.84 163.731 680.07 157.396 686.701 152.782C693.331 148.169 701.106 145.453 709.18 144.931C717.254 144.409 725.317 146.101 732.492 149.822C739.667 153.544 745.677 159.152 749.87 166.036C754.063 172.921 756.277 180.817 756.271 188.867Z" fill="#1B1D1F"/>
<path d="M704.439 187.781C711.972 187.781 718.079 181.706 718.079 174.211C718.079 166.717 711.972 160.641 704.439 160.641C696.906 160.641 690.799 166.717 690.799 174.211C690.799 181.706 696.906 187.781 704.439 187.781Z" fill="#3F3D56"/>
<path d="M754.547 176.67C751.591 178.085 748.221 178.393 745.055 177.537C741.89 176.681 739.14 174.718 737.311 172.009C735.481 169.3 734.695 166.026 735.094 162.787C735.494 159.548 737.054 156.56 739.488 154.372C746.722 160.061 751.987 167.857 754.547 176.67Z" fill="#3F3D56"/>
<path d="M726.809 208.408C729.521 208.408 731.719 206.221 731.719 203.523C731.719 200.825 729.521 198.637 726.809 198.637C724.097 198.637 721.898 200.825 721.898 203.523C721.898 206.221 724.097 208.408 726.809 208.408Z" fill="#3F3D56"/>
<path d="M706.621 231.205C706.621 231.634 706.564 232.061 706.452 232.476C703.194 232.07 699.993 231.298 696.91 230.174C697.166 228.995 697.851 227.953 698.833 227.246C699.816 226.54 701.026 226.22 702.231 226.348C703.437 226.476 704.552 227.043 705.362 227.939C706.173 228.836 706.621 229.999 706.621 231.205Z" fill="#3F3D56"/>
<path d="M677.705 186.696C677.704 189.174 676.757 191.56 675.056 193.37C673.354 195.18 671.024 196.279 668.539 196.445C667.413 189.992 667.741 183.372 669.499 177.061C671.791 177.441 673.874 178.618 675.377 180.382C676.879 182.147 677.704 184.384 677.705 186.696Z" fill="#3F3D56"/>
<path d="M919.882 171.174C920.998 171.174 921.902 170.275 921.902 169.165C921.902 168.055 920.998 167.155 919.882 167.155C918.767 167.155 917.862 168.055 917.862 169.165C917.862 170.275 918.767 171.174 919.882 171.174Z" fill="#FFEB62"/>
<path d="M901.248 122.282C901.899 122.282 902.428 121.757 902.428 121.108C902.428 120.46 901.899 119.934 901.248 119.934C900.596 119.934 900.067 120.46 900.067 121.108C900.067 121.757 900.596 122.282 901.248 122.282Z" fill="#F0F0F0"/>
<path d="M907.947 237.163C908.599 237.163 909.127 236.638 909.127 235.989C909.127 235.341 908.599 234.815 907.947 234.815C907.295 234.815 906.767 235.341 906.767 235.989C906.767 236.638 907.295 237.163 907.947 237.163Z" fill="#F0F0F0"/>
<path d="M755.657 248.252C756.772 248.252 757.677 247.352 757.677 246.242C757.677 245.132 756.772 244.233 755.657 244.233C754.541 244.233 753.637 245.132 753.637 246.242C753.637 247.352 754.541 248.252 755.657 248.252Z" fill="#FFEB62"/>
<path d="M682.547 291.557C687.815 291.557 692.085 287.308 692.085 282.067C692.085 276.826 687.815 272.577 682.547 272.577C677.278 272.577 673.008 276.826 673.008 282.067C673.008 287.308 677.278 291.557 682.547 291.557Z" fill="#FFEB62"/>
<path d="M734.84 293.807C735.492 293.807 736.02 293.281 736.02 292.633C736.02 291.985 735.492 291.459 734.84 291.459C734.188 291.459 733.66 291.985 733.66 292.633C733.66 293.281 734.188 293.807 734.84 293.807Z" fill="#F0F0F0"/>
<path d="M854.872 110.341C855.523 110.341 856.052 109.815 856.052 109.166C856.052 108.518 855.523 107.992 854.872 107.992C854.22 107.992 853.691 108.518 853.691 109.166C853.691 109.815 854.22 110.341 854.872 110.341Z" fill="#F0F0F0"/>
<path d="M767.03 121.197C767.682 121.197 768.21 120.671 768.21 120.023C768.21 119.374 767.682 118.848 767.03 118.848C766.378 118.848 765.85 119.374 765.85 120.023C765.85 120.671 766.378 121.197 767.03 121.197Z" fill="#F0F0F0"/>
<path d="M797.584 178.191C798.236 178.191 798.764 177.665 798.764 177.017C798.764 176.368 798.236 175.842 797.584 175.842C796.932 175.842 796.404 176.368 796.404 177.017C796.404 177.665 796.932 178.191 797.584 178.191Z" fill="#F0F0F0"/>
<path d="M827.744 257.247C828.396 257.247 828.924 256.721 828.924 256.073C828.924 255.424 828.396 254.899 827.744 254.899C827.092 254.899 826.564 255.424 826.564 256.073C826.564 256.721 827.092 257.247 827.744 257.247Z" fill="#F0F0F0"/>
<path d="M858.843 177.998C859.495 177.998 860.023 177.472 860.023 176.824C860.023 176.176 859.495 175.65 858.843 175.65C858.191 175.65 857.663 176.176 857.663 176.824C857.663 177.472 858.191 177.998 858.843 177.998Z" fill="#F0F0F0"/>
<path d="M915.384 217.181C916.676 217.181 917.724 216.139 917.724 214.853C917.724 213.567 916.676 212.525 915.384 212.525C914.092 212.525 913.044 213.567 913.044 214.853C913.044 216.139 914.092 217.181 915.384 217.181Z" fill="#FF6584"/>
<path d="M820.45 140.103C821.742 140.103 822.79 139.061 822.79 137.775C822.79 136.49 821.742 135.447 820.45 135.447C819.158 135.447 818.11 136.49 818.11 137.775C818.11 139.061 819.158 140.103 820.45 140.103Z" fill="#FF6584"/>
<path d="M820.45 300.23C821.742 300.23 822.79 299.187 822.79 297.901C822.79 296.616 821.742 295.573 820.45 295.573C819.158 295.573 818.11 296.616 818.11 297.901C818.11 299.187 819.158 300.23 820.45 300.23Z" fill="#FF6584"/>
<path d="M981.095 345.275C974.051 345.275 966.329 345.01 957.931 344.48C914.494 341.736 858.23 332.195 799.502 317.616C740.775 303.037 686.601 285.16 646.961 267.28C627.65 258.57 612.83 250.325 602.912 242.774C592.41 234.78 587.817 227.812 589.258 222.064C592.067 210.867 616.937 208.417 637.306 208.334L637.313 209.963C609.341 210.077 592.839 214.515 590.847 222.459C588.309 232.577 609.008 248.373 647.637 265.797C687.19 283.638 741.264 301.48 799.899 316.036C858.533 330.592 914.694 340.117 958.035 342.855C1000.36 345.53 1026.09 341.261 1028.63 331.143C1030.74 322.742 1016.85 310.367 989.519 296.296L990.271 294.85C1010.13 305.074 1033.18 319.738 1030.22 331.537C1028.78 337.285 1021.43 341.288 1008.39 343.437C1000.95 344.661 991.819 345.275 981.095 345.275Z" fill="#FFEB62"/>
<path d="M978.876 223.878C1009.16 223.878 1033.71 199.454 1033.71 169.326C1033.71 139.198 1009.16 114.775 978.876 114.775C948.592 114.775 924.043 139.198 924.043 169.326C924.043 199.454 948.592 223.878 978.876 223.878Z" fill="#1B1D1F"/>
<path d="M978.875 113.961C967.869 113.961 957.109 117.208 947.957 123.291C938.805 129.375 931.672 138.022 927.46 148.139C923.248 158.255 922.146 169.388 924.293 180.127C926.441 190.867 931.741 200.733 939.524 208.476C947.307 216.219 957.223 221.492 968.018 223.628C978.814 225.764 990.003 224.668 1000.17 220.477C1010.34 216.287 1019.03 209.191 1025.15 200.086C1031.26 190.981 1034.53 180.276 1034.53 169.326C1034.55 162.048 1033.13 154.837 1030.34 148.108C1027.56 141.379 1023.46 135.265 1018.29 130.118C1013.11 124.972 1006.97 120.895 1000.2 118.122C993.439 115.349 986.191 113.934 978.875 113.961ZM978.875 223.063C968.192 223.063 957.749 219.912 948.867 214.007C939.984 208.102 933.061 199.71 928.973 189.891C924.884 180.071 923.815 169.267 925.899 158.843C927.983 148.419 933.127 138.844 940.681 131.328C948.235 123.813 957.86 118.695 968.338 116.622C978.815 114.548 989.676 115.612 999.546 119.679C1009.42 123.747 1017.85 130.634 1023.79 139.471C1029.72 148.308 1032.89 158.698 1032.89 169.326C1032.92 176.391 1031.54 183.391 1028.83 189.923C1026.13 196.455 1022.15 202.39 1017.13 207.385C1012.11 212.381 1006.14 216.338 999.578 219.029C993.012 221.72 985.976 223.091 978.875 223.063Z" fill="#2F2E41"/>
<path d="M930.756 182.392C930.505 182.392 930.262 182.305 930.067 182.147C929.873 181.989 929.739 181.769 929.688 181.525C928.12 173.576 928.403 165.376 930.516 157.554C932.629 149.731 936.516 142.494 941.878 136.399C942.07 136.185 942.341 136.056 942.629 136.04C942.917 136.024 943.2 136.122 943.416 136.313C943.632 136.504 943.762 136.773 943.779 137.06C943.796 137.346 943.698 137.628 943.507 137.843C938.369 143.685 934.644 150.62 932.619 158.116C930.595 165.612 930.323 173.47 931.826 181.087C931.859 181.245 931.855 181.408 931.817 181.565C931.778 181.721 931.705 181.867 931.602 181.992C931.5 182.117 931.371 182.218 931.224 182.287C931.078 182.356 930.918 182.392 930.756 182.392Z" fill="#2F2E41"/>
<path d="M978.841 220.008C998.089 220.008 1013.69 204.484 1013.69 185.335C1013.69 166.186 998.089 150.663 978.841 150.663C959.593 150.663 943.99 166.186 943.99 185.335C943.99 204.484 959.593 220.008 978.841 220.008Z" fill="#FFEB62"/>
<path d="M967.765 198.425C965.506 198.363 962.694 198.285 960.528 196.711C959.883 196.223 959.353 195.6 958.975 194.887C958.598 194.174 958.381 193.387 958.341 192.582C958.302 192.01 958.396 191.436 958.617 190.906C958.837 190.377 959.178 189.905 959.612 189.527C960.744 188.576 962.396 188.353 964.176 188.874L962.332 175.463L963.686 175.279L965.854 191.044L964.723 190.528C963.412 189.93 961.613 189.626 960.495 190.566C960.22 190.811 960.006 191.117 959.87 191.458C959.733 191.8 959.677 192.168 959.707 192.534C959.74 193.133 959.903 193.719 960.183 194.25C960.464 194.781 960.857 195.246 961.334 195.612C963.02 196.837 965.261 196.995 967.803 197.066L967.765 198.425Z" fill="#2F2E41"/>
<path d="M955.635 176.62H948.274V177.979H955.635V176.62Z" fill="#2F2E41"/>
<path d="M978.869 176.62H971.508V177.979H978.869V176.62Z" fill="#2F2E41"/>
<path d="M980.305 228.578H948.715C947.537 228.579 946.408 229.045 945.575 229.874C944.743 230.702 944.274 231.825 944.273 232.997V302.654C944.277 307.375 945.578 312.004 948.036 316.042C950.494 320.079 954.015 323.371 958.219 325.56C959.512 324.41 960.787 323.234 962.044 322.032C963.675 320.496 965.272 318.924 966.834 317.315C968.749 315.361 970.613 313.362 972.426 311.317C973.91 309.656 975.354 307.963 976.758 306.237C977.386 305.471 978.004 304.697 978.613 303.913C993.23 285.225 1003.48 262.628 1005.51 239.244C1002.25 235.869 998.334 233.185 994.002 231.352C989.671 229.519 985.012 228.576 980.305 228.578Z" fill="#2F2E41"/>
<path d="M981.456 243.115C980.705 242.382 979.815 241.805 978.838 241.417C977.862 241.029 976.817 240.836 975.766 240.851C973.938 240.865 972.171 241.509 970.768 242.675C970.544 242.855 970.33 243.049 970.13 243.256L944.274 269.636L925.521 288.769C925.237 289.055 925.001 289.385 924.823 289.746C924.542 290.306 924.398 290.923 924.403 291.549C924.409 292.063 924.517 292.571 924.721 293.043C924.925 293.515 925.221 293.943 925.592 294.301L926.329 295.017L931.676 300.201L931.681 300.195C932.4 300.775 933.299 301.088 934.224 301.08C934.741 301.075 935.251 300.967 935.726 300.764C936.201 300.561 936.63 300.266 936.99 299.897L937.857 299.018L944.066 292.683L944.274 292.471L981.598 254.388C983.082 252.875 983.9 250.836 983.873 248.722C983.847 246.608 982.977 244.591 981.456 243.115Z" fill="#FFEB62"/>
<path d="M981.194 169.159C982.346 166.735 981.165 164.145 979.14 162.596C976.589 160.645 973.29 160.968 970.389 161.891C967.212 162.903 964.107 164.723 960.675 164.618C959.452 164.596 958.264 164.207 957.267 163.503C956.269 162.798 955.509 161.81 955.086 160.668C953.248 155.978 955.324 150.737 958.523 147.181C960.329 145.144 962.562 143.526 965.064 142.439C967.566 141.353 970.276 140.825 973.006 140.892C976.121 141.046 979.149 141.964 981.821 143.565C984.493 145.166 986.726 147.399 988.319 150.067C988.433 150.249 988.612 150.381 988.821 150.435C989.029 150.489 989.25 150.462 989.439 150.359C991.867 149.279 994.487 148.688 997.146 148.622C999.805 148.555 1002.45 149.014 1004.93 149.971C1008.65 151.48 1011.82 154.079 1014.02 157.423C1016.22 160.767 1017.35 164.698 1017.25 168.693C1017.22 169.741 1018.86 169.741 1018.89 168.693C1018.99 163.107 1016.92 157.698 1013.1 153.597C1011.17 151.551 1008.84 149.913 1006.26 148.779C1003.67 147.644 1000.89 147.037 998.064 146.992C994.805 146.923 991.573 147.593 988.613 148.953L989.733 149.245C988.257 146.774 986.275 144.64 983.916 142.982C981.557 141.324 978.873 140.179 976.039 139.622C973.233 139.101 970.347 139.187 967.577 139.873C964.807 140.559 962.218 141.83 959.985 143.599C955.783 146.871 952.599 151.948 952.797 157.392C952.883 159.748 953.586 162.167 955.231 163.923C957.336 166.171 960.48 166.56 963.385 165.984C967.246 165.218 970.77 162.692 974.794 162.77C975.583 162.771 976.362 162.938 977.081 163.26C977.8 163.582 978.441 164.053 978.964 164.64C979.85 165.635 980.385 167.067 979.781 168.337C979.333 169.28 980.743 170.107 981.194 169.159Z" fill="#2F2E41"/>
<path d="M719.979 365.047C700.556 365.047 682.499 364.384 666.334 363.046C645.205 361.297 628.462 358.485 616.57 354.689C603.979 350.669 597.3 345.642 596.716 339.746C595.58 328.262 618.177 317.641 637.334 310.754L637.89 312.286C611.583 321.743 597.539 331.439 598.345 339.587C599.372 349.965 624.202 357.924 666.47 361.423C709.75 365.006 766.706 363.736 826.847 357.846C886.989 351.957 943.101 342.156 984.848 330.247C1025.62 318.617 1048.41 305.995 1047.39 295.617C1046.53 287 1029.27 279.988 998.778 275.87L998.998 274.257C1021.15 277.249 1047.82 283.355 1049.02 295.457C1049.6 301.353 1044.03 307.579 1032.47 313.963C1021.55 319.994 1005.68 325.999 985.299 331.812C943.46 343.747 887.244 353.568 827.008 359.467C789.22 363.167 752.672 365.047 719.979 365.047Z" fill="#FFEB62"/>
<path d="M1046.46 301.327C1051.73 301.327 1056 297.079 1056 291.837C1056 286.596 1051.73 282.348 1046.46 282.348C1041.19 282.348 1036.92 286.596 1036.92 291.837C1036.92 297.079 1041.19 301.327 1046.46 301.327Z" fill="#FFEB62"/>
<path d="M769.842 74.9796C775.111 74.9796 779.381 70.7309 779.381 65.4898C779.381 60.2487 775.111 56 769.842 56C764.574 56 760.304 60.2487 760.304 65.4898C760.304 70.7309 764.574 74.9796 769.842 74.9796Z" fill="#3F3D56"/>
<path d="M599.615 300.785C604.883 300.785 609.154 296.536 609.154 291.295C609.154 286.054 604.883 281.805 599.615 281.805C594.347 281.805 590.077 286.054 590.077 291.295C590.077 296.536 594.347 300.785 599.615 300.785Z" fill="#3F3D56"/>
<path d="M658.54 120.694C661.765 120.694 664.38 118.093 664.38 114.885C664.38 111.676 661.765 109.075 658.54 109.075C655.315 109.075 652.701 111.676 652.701 114.885C652.701 118.093 655.315 120.694 658.54 120.694Z" fill="#FF6584"/>
<path d="M1029.55 246.081C1032.77 246.081 1035.39 243.48 1035.39 240.271C1035.39 237.063 1032.77 234.462 1029.55 234.462C1026.32 234.462 1023.71 237.063 1023.71 240.271C1023.71 243.48 1026.32 246.081 1029.55 246.081Z" fill="#FF6584"/>
</g>
<defs>
<clipPath id="clip0_240_9564">
<rect width="1056" height="301" fill="white"/>
</clipPath>
</defs>
</svg>
