<svg width="1056" height="247" viewBox="0 0 1056 247" fill="none" xmlns="http://www.w3.org/2000/svg">
<g clip-path="url(#clip0_240_9621)">
<path d="M796.835 268.437C793.846 302.692 778.794 335.794 757.323 363.172C756.425 364.317 755.517 365.451 754.598 366.575C752.53 369.103 750.409 371.584 748.235 374.017C745.574 377.015 742.835 379.944 740.02 382.804C737.727 385.158 735.382 387.461 732.983 389.714C731.131 391.471 729.259 393.194 727.365 394.882C704.579 415.31 678.403 432.167 651.434 446.909C598.803 475.67 541.114 497.457 481.108 500.63C421.111 503.795 358.477 486.747 314.477 446.146C255.177 391.431 238.627 300.171 262.703 223.463C278.716 172.43 311.4 126.263 355.88 96.1109C399.977 66.2211 455.606 52.7671 508.254 61.5615C550.282 36.2199 605.302 35.7349 650.994 54.4926C675.374 64.5036 697.254 79.3889 716.449 97.3753C725.239 105.63 733.464 114.457 741.07 123.798C741.847 124.744 742.616 125.699 743.378 126.661C746.568 130.66 749.653 134.742 752.635 138.906C756.914 144.878 760.978 150.982 764.825 157.219C765.883 158.936 766.933 160.662 767.958 162.403C768.648 163.572 769.345 164.749 770.026 165.934C770.042 165.958 770.053 165.985 770.058 166.013C780.726 184.628 789.446 204.491 793.99 225.252C794.791 228.926 795.465 232.615 795.985 236.337V236.344C796.442 239.501 796.787 242.674 797.019 245.862C797.567 253.38 797.506 260.929 796.835 268.437Z" fill="#1B1D1F"/>
<path opacity="0.3" d="M640.263 320.222L521.277 221.879L636.87 324.162C637.094 324.536 637.404 324.851 637.776 325.083C638.147 325.314 638.569 325.454 639.006 325.491C639.443 325.528 639.882 325.462 640.288 325.297C640.694 325.132 641.054 324.873 641.339 324.543C641.624 324.212 641.825 323.818 641.926 323.395C642.027 322.972 642.025 322.531 641.92 322.108C641.815 321.686 641.609 321.295 641.321 320.967C641.033 320.639 640.67 320.384 640.263 320.222Z" fill="#F0F0F0"/>
<path d="M367.398 270.178C406.792 270.178 438.727 238.494 438.727 199.409C438.727 160.325 406.792 128.641 367.398 128.641C328.003 128.641 296.068 160.325 296.068 199.409C296.068 238.494 328.003 270.178 367.398 270.178Z" fill="#3F3D56"/>
<path d="M430.713 194.639C430.714 203.097 429.035 211.472 425.773 219.287C422.51 227.102 417.729 234.202 411.7 240.183C405.672 246.164 398.515 250.908 390.639 254.145C382.762 257.381 374.32 259.047 365.795 259.046C358.196 259.042 350.656 257.723 343.514 255.15C332.347 251.113 322.51 244.115 315.074 234.916C307.637 225.717 302.888 214.67 301.341 202.979C299.794 191.287 301.51 179.399 306.302 168.608C311.094 157.817 318.778 148.537 328.517 141.778C338.256 135.019 349.678 131.041 361.538 130.277C373.399 129.512 385.243 131.99 395.782 137.441C406.321 142.893 415.151 151.108 421.31 161.193C427.469 171.278 430.721 182.847 430.713 194.639Z" fill="#1B1D1F"/>
<path d="M354.574 193.048C365.64 193.048 374.611 184.148 374.611 173.169C374.611 162.191 365.64 153.29 354.574 153.29C343.508 153.29 334.538 162.191 334.538 173.169C334.538 184.148 343.508 193.048 354.574 193.048Z" fill="#3F3D56"/>
<path d="M428.18 176.771C423.838 178.844 418.888 179.295 414.238 178.041C409.588 176.787 405.549 173.912 402.861 169.944C400.174 165.975 399.018 161.179 399.606 156.433C400.193 151.688 402.485 147.312 406.06 144.106C416.686 152.44 424.42 163.861 428.18 176.771Z" fill="#3F3D56"/>
<path d="M387.434 223.264C391.418 223.264 394.647 220.06 394.647 216.108C394.647 212.155 391.418 208.951 387.434 208.951C383.45 208.951 380.221 212.155 380.221 216.108C380.221 220.06 383.45 223.264 387.434 223.264Z" fill="#3F3D56"/>
<path d="M315.303 191.458C315.302 195.089 313.911 198.584 311.412 201.235C308.912 203.887 305.49 205.496 301.838 205.739C300.186 196.287 300.667 186.589 303.249 177.344C306.616 177.901 309.676 179.625 311.883 182.209C314.09 184.794 315.302 188.071 315.303 191.458Z" fill="#3F3D56"/>
<path d="M671.05 168.72C672.689 168.72 674.017 167.402 674.017 165.776C674.017 164.15 672.689 162.832 671.05 162.832C669.411 162.832 668.083 164.15 668.083 165.776C668.083 167.402 669.411 168.72 671.05 168.72Z" fill="#FFEB62"/>
<path d="M643.676 97.0976C644.634 97.0976 645.41 96.3275 645.41 95.3776C645.41 94.4277 644.634 93.6576 643.676 93.6576C642.719 93.6576 641.943 94.4277 641.943 95.3776C641.943 96.3275 642.719 97.0976 643.676 97.0976Z" fill="#F0F0F0"/>
<path d="M575.552 79.6042C576.51 79.6042 577.286 78.8341 577.286 77.8842C577.286 76.9343 576.51 76.1642 575.552 76.1642C574.595 76.1642 573.819 76.9343 573.819 77.8842C573.819 78.8341 574.595 79.6042 575.552 79.6042Z" fill="#F0F0F0"/>
<path d="M446.518 95.5073C447.475 95.5073 448.251 94.7372 448.251 93.7873C448.251 92.8374 447.475 92.0673 446.518 92.0673C445.56 92.0673 444.784 92.8374 444.784 93.7873C444.784 94.7372 445.56 95.5073 446.518 95.5073Z" fill="#F0F0F0"/>
<path d="M491.4 178.999C492.357 178.999 493.133 178.228 493.133 177.279C493.133 176.329 492.357 175.559 491.4 175.559C490.442 175.559 489.666 176.329 489.666 177.279C489.666 178.228 490.442 178.999 491.4 178.999Z" fill="#F0F0F0"/>
<path d="M581.386 178.717C582.344 178.717 583.12 177.947 583.12 176.997C583.12 176.047 582.344 175.277 581.386 175.277C580.429 175.277 579.653 176.047 579.653 176.997C579.653 177.947 580.429 178.717 581.386 178.717Z" fill="#F0F0F0"/>
<path d="M664.442 236.116C666.341 236.116 667.88 234.589 667.88 232.706C667.88 230.822 666.341 229.295 664.442 229.295C662.544 229.295 661.005 230.822 661.005 232.706C661.005 234.589 662.544 236.116 664.442 236.116Z" fill="#FF6584"/>
<path d="M524.988 123.204C526.887 123.204 528.425 121.677 528.425 119.794C528.425 117.91 526.887 116.383 524.988 116.383C523.09 116.383 521.551 117.91 521.551 119.794C521.551 121.677 523.09 123.204 524.988 123.204Z" fill="#FF6584"/>
<path d="M760.969 423.763C750.62 423.763 739.278 423.375 726.942 422.599C663.135 418.579 580.485 404.602 494.217 383.245C407.95 361.887 328.372 335.699 270.141 309.507C241.776 296.747 220.005 284.669 205.435 273.607C190.01 261.897 183.262 251.69 185.38 243.27C189.506 226.867 226.038 223.278 255.959 223.156L255.969 225.542C214.88 225.709 190.64 232.21 187.713 243.848C183.985 258.669 214.391 281.809 271.134 307.334C329.236 333.469 408.669 359.607 494.8 380.931C580.93 402.254 663.428 416.206 727.094 420.218C789.27 424.136 827.071 417.882 830.799 403.06C833.894 390.754 813.489 372.625 773.343 352.012L774.448 349.894C803.618 364.872 837.479 386.353 833.132 403.638C831.014 412.057 820.224 417.922 801.061 421.07C790.138 422.863 776.721 423.763 760.969 423.763Z" fill="#FFEB62"/>
<path d="M757.708 245.926C802.192 245.926 838.254 210.148 838.254 166.013C838.254 121.878 802.192 86.0999 757.708 86.0999C713.223 86.0999 677.161 121.878 677.161 166.013C677.161 210.148 713.223 245.926 757.708 245.926Z" fill="#1B1D1F"/>
<path d="M757.708 84.9072C741.539 84.9072 725.734 89.6639 712.291 98.576C698.847 107.488 688.369 120.155 682.182 134.975C675.994 149.795 674.375 166.103 677.53 181.836C680.684 197.569 688.47 212.021 699.903 223.363C711.335 234.706 725.902 242.431 741.759 245.56C757.617 248.69 774.054 247.084 788.992 240.945C803.929 234.806 816.697 224.411 825.679 211.073C834.662 197.735 839.457 182.054 839.457 166.013C839.495 155.351 837.407 144.787 833.313 134.93C829.218 125.072 823.198 116.116 815.599 108.577C808 101.038 798.973 95.0652 789.037 91.0029C779.102 86.9405 768.454 84.8688 757.708 84.9072ZM757.708 244.733C742.015 244.733 726.675 240.116 713.626 231.467C700.578 222.817 690.409 210.522 684.403 196.138C678.398 181.754 676.826 165.926 679.888 150.655C682.95 135.385 690.506 121.359 701.603 110.349C712.699 99.3401 726.837 91.8427 742.228 88.8052C757.62 85.7678 773.573 87.3267 788.072 93.2849C802.57 99.243 814.962 109.333 823.68 122.278C832.399 135.224 837.052 150.444 837.052 166.013C837.093 176.362 835.068 186.616 831.095 196.185C827.122 205.754 821.279 214.448 813.903 221.766C806.527 229.084 797.764 234.881 788.119 238.823C778.475 242.765 768.139 244.773 757.708 244.733Z" fill="#2F2E41"/>
<path d="M687.023 185.153C686.654 185.152 686.297 185.026 686.011 184.794C685.725 184.563 685.529 184.241 685.454 183.883C683.15 172.239 683.566 160.226 686.67 148.767C689.774 137.308 695.483 126.707 703.36 117.777C703.643 117.464 704.04 117.275 704.463 117.251C704.887 117.228 705.303 117.372 705.619 117.652C705.936 117.932 706.128 118.325 706.153 118.745C706.178 119.165 706.034 119.578 705.753 119.893C698.205 128.45 692.734 138.609 689.76 149.591C686.785 160.572 686.387 172.084 688.594 183.242C688.642 183.473 688.637 183.712 688.58 183.941C688.524 184.171 688.416 184.384 688.266 184.567C688.115 184.75 687.926 184.898 687.711 184.999C687.496 185.1 687.261 185.153 687.023 185.153Z" fill="#2F2E41"/>
<path d="M757.658 240.257C785.932 240.257 808.852 217.516 808.852 189.464C808.852 161.413 785.932 138.672 757.658 138.672C729.384 138.672 706.463 161.413 706.463 189.464C706.463 217.516 729.384 240.257 757.658 240.257Z" fill="#FFEB62"/>
<path d="M741.387 208.64C738.068 208.549 733.938 208.435 730.756 206.129C729.809 205.414 729.03 204.502 728.475 203.457C727.921 202.413 727.603 201.26 727.544 200.081C727.486 199.242 727.625 198.402 727.949 197.626C728.273 196.85 728.773 196.158 729.411 195.606C731.073 194.213 733.5 193.886 736.115 194.648L733.406 175.003L735.395 174.733L738.58 197.828L736.919 197.072C734.993 196.196 732.35 195.75 730.707 197.127C730.304 197.487 729.99 197.935 729.789 198.435C729.588 198.935 729.507 199.474 729.55 200.011C729.599 200.889 729.838 201.746 730.25 202.524C730.663 203.302 731.239 203.983 731.941 204.52C734.417 206.314 737.709 206.546 741.443 206.65L741.387 208.64Z" fill="#2F2E41"/>
<path d="M723.569 176.697H712.756V178.689H723.569V176.697Z" fill="#2F2E41"/>
<path d="M757.699 176.697H746.886V178.689H757.699V176.697Z" fill="#2F2E41"/>
<path d="M761.113 165.768C762.806 162.217 761.071 158.423 758.097 156.154C754.35 153.295 749.504 153.768 745.242 155.121C740.575 156.603 736.014 159.269 730.972 159.116C729.176 159.084 727.431 158.514 725.966 157.482C724.501 156.449 723.384 155.002 722.762 153.329C720.062 146.46 723.111 138.782 727.811 133.572C730.464 130.588 733.744 128.218 737.419 126.626C741.094 125.034 745.076 124.261 749.085 124.359C753.661 124.584 758.11 125.93 762.035 128.275C765.96 130.62 769.239 133.892 771.58 137.799C771.747 138.066 772.011 138.259 772.317 138.339C772.623 138.419 772.948 138.379 773.225 138.227C776.792 136.645 780.64 135.78 784.546 135.683C788.452 135.585 792.339 136.257 795.982 137.659C801.447 139.869 806.105 143.677 809.337 148.575C812.569 153.474 814.223 159.232 814.079 165.086C814.039 166.621 816.443 166.62 816.483 165.086C816.633 156.903 813.59 148.979 807.988 142.97C805.145 139.974 801.724 137.575 797.929 135.913C794.134 134.251 790.042 133.361 785.895 133.295C781.107 133.194 776.36 134.176 772.012 136.167L773.657 136.595C771.489 132.976 768.578 129.85 765.112 127.421C761.646 124.993 757.704 123.315 753.541 122.499C749.419 121.736 745.18 121.861 741.111 122.867C737.042 123.872 733.239 125.734 729.959 128.326C723.786 133.118 719.108 140.555 719.4 148.531C719.526 151.982 720.559 155.525 722.975 158.097C726.068 161.391 730.686 161.961 734.953 161.117C740.624 159.995 745.801 156.295 751.713 156.409C752.871 156.41 754.016 156.654 755.072 157.126C756.127 157.599 757.07 158.288 757.837 159.148C759.139 160.606 759.925 162.703 759.037 164.564C758.379 165.945 760.452 167.157 761.113 165.768Z" fill="#2F2E41"/>
<path d="M450.649 27.8035C458.387 27.8035 464.661 21.5794 464.661 13.9017C464.661 6.22402 458.387 0 450.649 0C442.91 0 436.637 6.22402 436.637 13.9017C436.637 21.5794 442.91 27.8035 450.649 27.8035Z" fill="#3F3D56"/>
<path d="M287.151 94.7708C291.888 94.7708 295.729 90.9607 295.729 86.2608C295.729 81.5608 291.888 77.7508 287.151 77.7508C282.414 77.7508 278.574 81.5608 278.574 86.2608C278.574 90.9607 282.414 94.7708 287.151 94.7708Z" fill="#FF6584"/>
</g>
<defs>
<clipPath id="clip0_240_9621">
<rect width="1056" height="247" fill="white"/>
</clipPath>
</defs>
</svg>
