<svg width="46" height="43" viewBox="0 0 46 43" fill="none" xmlns="http://www.w3.org/2000/svg">
<g clip-path="url(#clip0_298_1093)">
<path d="M0.000107686 13.6857C0.027444 13.6318 0.0588302 13.5788 0.0800918 13.5229C0.163113 13.3091 0.216774 13.0801 0.328144 12.8837C1.06319 11.5779 2.10298 10.6151 3.50625 10.0645C4.16131 9.80807 4.81637 9.79993 5.4775 10.0269C5.79845 10.1368 6.12041 10.2477 6.44136 10.3566C6.49907 10.376 6.5578 10.3923 6.62766 10.4126C6.67828 10.3047 6.72586 10.205 6.77142 10.1053C7.01644 9.57501 7.2736 9.04883 7.50242 8.51146C7.64619 8.17356 7.75553 7.81837 7.8669 7.46724C8.10686 6.708 8.58069 6.18284 9.35623 5.97318C10.0083 5.79711 10.6056 5.9457 11.1473 6.33754C11.4277 6.54109 11.4267 6.54312 11.7082 6.33245C12.5657 5.6933 13.4243 5.05415 14.2828 4.41501C14.3213 4.38651 14.3628 4.36107 14.4236 4.31934C14.6372 4.63789 14.8478 4.95238 15.0736 5.28824C14.1907 5.9915 13.3139 6.68968 12.4199 7.40211C12.8371 7.79801 13.238 8.17763 13.647 8.56641C13.7199 8.50942 13.7797 8.46362 13.8374 8.41579C14.6909 7.7115 15.5697 7.04386 16.5386 6.50445C17.2686 6.09735 18.031 5.76862 18.8399 5.55489C18.8986 5.53962 18.9584 5.52843 19.0323 5.51214C19.1285 5.75538 19.2206 5.9854 19.3127 6.21948C21.8155 5.40324 24.2788 5.45617 26.729 6.52277C26.809 6.18996 26.89 5.85716 26.975 5.50502C27.0621 5.52334 27.136 5.53555 27.2069 5.55387C28.3611 5.85105 29.413 6.37214 30.4062 7.02452C31.0572 7.45299 31.6718 7.9293 32.2722 8.42495C32.3259 8.46871 32.3795 8.51146 32.4514 8.56947C32.8361 8.20511 33.2178 7.84381 33.6178 7.46623C33.553 7.39396 33.4973 7.32679 33.4365 7.26369C33.0994 6.90952 32.7238 6.60114 32.3299 6.31413C31.9482 6.03628 31.5635 5.76149 31.1808 5.48466C31.1261 5.44497 31.0745 5.40019 31.0117 5.3493C31.2466 5.00734 31.4744 4.67657 31.7164 4.32443C32.6954 5.0684 33.6613 5.80118 34.6322 6.53905C34.8368 6.41794 35.0311 6.29886 35.2296 6.18691C35.5293 6.01695 35.8492 5.9111 36.1965 5.89991C36.8758 5.87752 37.4054 6.16249 37.7931 6.71207C37.9086 6.87491 38.0017 7.05811 38.0807 7.24232C38.4998 8.2214 38.9119 9.20353 39.326 10.1846C39.3584 10.261 39.3928 10.3363 39.4333 10.4299C39.5508 10.3892 39.6601 10.3485 39.7694 10.3139C40.2119 10.1745 40.6503 10.0187 41.0988 9.90374C41.4511 9.81316 41.8166 9.83046 42.1669 9.94343C43.7818 10.4645 44.9978 11.464 45.7804 12.9885C45.9515 13.3224 46.0112 13.6704 45.9961 14.0389C45.9616 14.8795 45.6397 15.6215 45.2053 16.3207C44.8712 16.858 44.4419 17.313 43.9499 17.7058C43.8537 17.7832 43.8021 17.8626 43.8142 17.9857C43.8243 18.0966 43.8203 18.2096 43.8365 18.3185C44.0025 19.4492 43.6704 20.3937 42.8099 21.1499C42.4656 21.4522 42.1305 21.7667 41.7964 22.0811C41.523 22.3376 41.196 22.5004 40.8467 22.6674C40.8265 22.5961 40.8032 22.534 40.79 22.4699C40.7374 22.2175 40.6948 21.9631 40.6351 21.7127C40.6027 21.5763 40.624 21.4827 40.7333 21.384C41.2284 20.9362 41.7124 20.4772 42.2044 20.0253C42.4585 19.7922 42.6388 19.5215 42.6792 19.1693C42.6995 18.9943 42.6752 18.8253 42.6145 18.6371C41.5301 18.8956 40.4549 19.152 39.3624 19.4126C39.3807 19.4798 39.3908 19.5317 39.409 19.5805C39.492 19.8024 39.5761 20.0232 39.6621 20.2441C40.1643 21.5295 39.8646 22.7844 38.8248 23.6912C38.4583 24.0108 38.0736 24.309 37.698 24.6184C37.6068 24.6937 37.5177 24.7721 37.4286 24.8484C37.2565 24.996 37.13 25.1731 37.0642 25.396C36.9113 25.9099 36.7503 26.4208 36.5934 26.9338C36.5873 26.9521 36.5934 26.9745 36.5934 27.0071C36.9184 27.1546 37.2606 27.2635 37.6078 27.3521C38.4198 27.5597 39.2359 27.5963 40.058 27.4152C40.3222 27.3572 40.55 27.2442 40.7495 27.0559C41.4775 26.3679 42.2125 25.688 42.9435 25.0041C43.0194 24.9329 43.0944 24.8596 43.1592 24.7782C43.4153 24.4566 43.3191 24.024 42.9405 23.8612C42.7987 23.8001 42.6327 23.7879 42.4757 23.7716C42.3249 23.7553 42.171 23.7635 42.0191 23.7564C41.9361 23.7523 41.8541 23.7391 41.7579 23.7289V22.5473C41.7741 22.5371 41.7852 22.5239 41.7974 22.5239C42.1993 22.5086 42.6013 22.4872 43.0002 22.5605C43.6208 22.6745 44.0633 23.0134 44.2941 23.6118C44.4359 23.9803 44.5229 24.3558 44.4622 24.7558C44.4065 25.1283 44.2445 25.4448 43.9853 25.7104C43.1733 26.5419 42.3158 27.3256 41.4187 28.0635C41.281 28.1764 41.1221 28.2721 40.9591 28.3444C40.4569 28.5683 39.9365 28.7372 39.3857 28.7902C39.3037 28.7983 39.2217 28.8146 39.1265 28.8288C39.1154 28.8991 39.1012 28.9652 39.0941 29.0324C39.0597 29.3662 38.9423 29.6695 38.755 29.9433C38.4087 30.4511 38.0159 30.9213 37.543 31.3152C36.8839 31.8658 36.1226 32.1467 35.264 32.1426C34.8479 32.1406 34.4328 32.107 34.0167 32.104C33.3788 32.0999 32.741 32.108 32.1031 32.1141C31.8075 32.1172 31.5655 32.2342 31.3903 32.4785C31.1949 32.7512 30.9661 32.9904 30.713 33.2113C30.144 33.7059 29.8717 34.3461 29.8838 35.0982C29.8899 35.4564 29.8251 35.7953 29.6641 36.1088C29.3948 36.6319 29.2308 37.1876 29.0769 37.7535C28.7499 38.9524 28.1839 40.0333 27.3547 40.9635C26.5741 41.8398 25.6386 42.4799 24.5056 42.8015C23.3646 43.1252 22.2367 43.0387 21.1392 42.6173C19.3249 41.9212 17.9631 40.7121 17.1289 38.9341C16.8089 38.2522 16.6449 37.5275 16.6054 36.7744C16.6014 36.7022 16.5811 36.6228 16.5457 36.5597C16.245 36.0152 16.1154 35.431 16.1326 34.8122C16.1356 34.7074 16.1427 34.6025 16.1387 34.4987C16.1245 34.1384 15.9899 33.8382 15.7013 33.6123C15.4583 33.423 15.2538 33.2011 15.0928 32.9334C14.7638 32.3879 14.2585 32.1375 13.6379 32.1009C13.5134 32.0938 13.3878 32.0907 13.2633 32.1009C12.4108 32.1701 11.5583 32.1396 10.7058 32.1111C10.4153 32.1009 10.1227 32.0989 9.83613 32.0582C9.37445 31.993 8.99276 31.763 8.66776 31.4282C8.39642 31.1493 8.11597 30.8796 7.82944 30.618C7.44167 30.2639 7.12072 29.87 7.01644 29.3377C6.98708 29.1881 6.97797 29.0354 6.95772 28.8604C6.70663 28.8105 6.45048 28.7596 6.19432 28.7077C5.99082 28.667 5.78428 28.6355 5.58482 28.5805C5.17782 28.4685 4.81333 28.2691 4.50048 27.9821C3.73203 27.2778 2.97167 26.5633 2.19714 25.8641C1.57448 25.3023 1.42059 24.6235 1.63624 23.8347C1.84278 23.0836 2.34597 22.6643 3.10025 22.5758C3.48195 22.531 3.87276 22.5676 4.2747 22.5676V23.7818C4.1765 23.7818 4.08132 23.7798 3.98717 23.7818C3.7381 23.7889 3.486 23.7767 3.24098 23.8123C2.88156 23.8642 2.72261 24.1217 2.79449 24.48C2.83701 24.6917 2.94231 24.8657 3.10127 25.0133C3.7381 25.6046 4.3719 26.2 5.00671 26.7923C5.10796 26.887 5.21831 26.9735 5.31551 27.0722C5.5666 27.3276 5.87236 27.4457 6.22166 27.4895C7.31208 27.6248 8.36402 27.4762 9.38154 27.0671C9.40685 27.0569 9.43014 27.0417 9.4676 27.0213C9.46152 26.9847 9.4595 26.945 9.44735 26.9073C9.28232 26.3679 9.11223 25.8305 8.95125 25.2901C8.89455 25.0998 8.78419 24.9604 8.63435 24.8382C8.14533 24.4382 7.65226 24.0403 7.1754 23.6261C6.53249 23.0684 6.20445 22.3478 6.17002 21.498C6.15281 21.0827 6.23482 20.6797 6.38467 20.2919C6.47984 20.0456 6.57703 19.7993 6.6722 19.552C6.69144 19.5011 6.70663 19.4492 6.72789 19.381C5.63747 19.1388 4.55718 18.8986 3.46474 18.6564C3.34223 18.9882 3.34831 19.2996 3.52245 19.5907C3.60648 19.7311 3.72291 19.8573 3.8434 19.9703C4.35064 20.4456 4.86395 20.9148 5.37828 21.3819C5.46434 21.4603 5.49472 21.5315 5.4613 21.6527C5.37727 21.9539 5.31247 22.2603 5.23654 22.5819C4.99659 22.5269 4.77486 22.476 4.59464 22.305C3.98818 21.732 3.37564 21.1652 2.76918 20.5932C2.45734 20.2991 2.3075 19.9215 2.24675 19.5032C2.186 19.0869 2.18904 18.6696 2.23156 18.2513C2.23663 18.2025 2.23663 18.1536 2.24473 18.1058C2.267 17.9857 2.22853 17.8931 2.13943 17.8086C2.00376 17.6794 1.88024 17.5369 1.7466 17.4056C1.30618 16.972 0.949793 16.4774 0.689591 15.9146C0.456726 15.4098 0.199562 14.9141 0.0638925 14.3686C0.0547804 14.332 0.0203568 14.3014 -0.00292969 14.2679C-0.00292969 14.0724 -0.00292969 13.877 -0.00292969 13.6816L0.000107686 13.6857ZM27.8498 36.8711C27.8204 36.7235 27.9004 36.6462 27.9784 36.5648C28.3904 36.1292 28.68 35.6274 28.7357 35.0198C28.761 34.743 28.7559 34.4621 28.7448 34.1842C28.7256 33.6876 28.9118 33.2896 29.2814 32.969C30.0458 32.3055 30.6543 31.5167 31.1423 30.6292C31.4815 30.0115 31.7488 29.3611 31.9968 28.7036C32.1031 28.4217 32.2762 28.2457 32.5709 28.1948C32.6255 28.1856 32.6802 28.1775 32.7349 28.1703C33.0943 28.1245 33.4396 28.0319 33.7767 27.8966C34.8064 27.4844 35.9181 26.142 35.9049 24.6764C35.9019 24.307 35.9019 23.9375 35.9019 23.5681C35.9019 23.4948 35.8765 23.4083 35.9656 23.3635C36.2491 23.222 36.5336 23.0816 36.8262 22.9371C36.9406 23.1152 37.0459 23.278 37.1644 23.4622C37.2596 23.4246 37.3557 23.4032 37.4317 23.3523C37.6038 23.2363 37.779 23.1182 37.9308 22.9768C38.1019 22.817 38.2761 22.647 38.4016 22.4516C38.7215 21.9529 38.7772 21.4125 38.5545 20.8568C38.2659 20.1403 37.9673 19.4268 37.6737 18.7124C37.6453 18.6432 37.6129 18.576 37.5775 18.4946C37.0571 18.8976 36.5539 19.2874 36.0406 19.6843C35.8168 19.3648 35.6082 19.0666 35.3875 18.7511C35.7905 18.4111 36.1702 18.0875 36.5559 17.7689C36.6349 17.7028 36.729 17.6529 36.8202 17.604C37.2585 17.371 37.7101 17.3506 38.1607 17.5582C38.3358 17.6387 38.4978 17.7496 38.6608 17.8544C38.838 17.9684 39.0182 18.0702 39.2339 18.0814C39.5953 18.0987 39.9557 18.0956 40.3121 18.0285C41.6476 17.776 42.7886 17.1552 43.7342 16.1761C44.1534 15.7416 44.4845 15.2459 44.6799 14.6668C44.8793 14.0745 44.7943 13.5229 44.4227 13.0242C43.878 12.2934 43.2088 11.7082 42.3866 11.3072C41.8946 11.067 41.3975 11.0294 40.875 11.2054C39.9487 11.5169 39.086 11.9555 38.2649 12.4827C37.5917 12.9153 36.9609 13.4048 36.3392 13.9086C36.2613 13.9717 36.1803 14.0328 36.0892 14.103C35.8603 13.7091 35.6447 13.3376 35.424 12.957C35.8887 12.5987 36.3433 12.2486 36.8009 11.8965C36.3413 11.0986 35.8948 10.3241 35.4452 9.54447C35.7824 9.28291 36.0973 9.03662 36.4253 8.78116C36.9072 9.6147 37.377 10.4258 37.8529 11.2482C37.945 11.2075 38.0209 11.1759 38.0948 11.1413C38.1748 11.1047 38.2528 11.066 38.3388 11.0243C38.3095 10.953 38.2892 10.9022 38.269 10.8513C38.0797 10.3953 37.8903 9.93834 37.7 9.48239C37.4297 8.83307 37.1603 8.18374 36.886 7.53645C36.723 7.15174 36.4557 7.03266 36.0628 7.16497C35.7176 7.28099 35.3987 7.44587 35.1344 7.70438C34.5634 8.26414 33.9944 8.82696 33.4223 9.38469C33.1318 9.66762 32.8695 9.97091 32.6529 10.3149C32.6296 10.3526 32.5942 10.3821 32.5607 10.4197C32.5081 10.3699 32.4686 10.3312 32.4281 10.2946C31.9138 9.82741 31.4136 9.34194 30.8801 8.8982C29.8919 8.07484 28.8045 7.41025 27.6078 6.93394C27.542 6.90748 27.4731 6.88509 27.4063 6.86066C27.4023 6.86982 27.3992 6.88 27.3952 6.88916C27.6412 7.06727 27.8872 7.24435 28.1373 7.42551C27.9693 7.76544 27.8154 8.08807 27.6443 8.4107C27.5592 8.35981 27.4995 8.32521 27.4407 8.28959C26.8738 7.95068 26.2845 7.65654 25.6669 7.42348C24.1371 6.84641 22.5708 6.69782 20.9661 7.03266C19.8696 7.26166 18.8521 7.69318 17.8852 8.25295C17.8143 8.29366 17.7434 8.3364 17.6564 8.38729C17.5116 8.0952 17.3749 7.81735 17.2311 7.52831C16.5467 7.89572 15.92 8.31401 15.3226 8.78116C14.7263 9.24729 14.1786 9.76838 13.6511 10.321C13.5954 10.2742 13.5508 10.2416 13.5124 10.204C13.1631 9.86507 12.8128 9.52717 12.4665 9.18521C11.9512 8.67735 11.4419 8.1644 10.9255 7.65756C10.7048 7.44078 10.4466 7.27591 10.1591 7.16497C9.79057 7.02249 9.51316 7.10391 9.28738 7.43162C9.18614 7.5792 9.1021 7.74305 9.03224 7.90895C8.65156 8.81373 8.27796 9.72054 7.90234 10.6274C7.85172 10.7485 7.80413 10.8706 7.74743 11.0111C7.91449 11.1057 8.07243 11.1963 8.24253 11.294C8.71332 10.4513 9.16892 9.63505 9.63567 8.79948C9.98294 9.06308 10.3069 9.30836 10.638 9.56076C10.1834 10.3577 9.73995 11.1352 9.28941 11.923C9.75514 12.27 10.2037 12.6049 10.6562 12.9438C10.4244 13.3295 10.2047 13.6969 9.97889 14.0745C9.5648 13.76 9.17297 13.4608 8.78115 13.1616C7.70289 12.3382 6.53755 11.6767 5.25375 11.2299C4.68576 11.0324 4.1441 11.066 3.60243 11.3337C2.6487 11.8039 1.94706 12.5336 1.3973 13.4313C1.22518 13.7122 1.18266 14.0012 1.26568 14.3126C1.4459 14.9966 1.75368 15.6143 2.21435 16.1527C2.70337 16.7247 3.31996 17.1206 3.98818 17.4422C4.79106 17.828 5.63545 18.058 6.52742 18.0987C6.92228 18.117 7.28879 18.0325 7.59253 17.7669C8.11496 17.3089 8.82874 17.3058 9.39268 17.6549C9.87967 17.9562 10.2685 18.3765 10.7048 18.7592C10.4841 19.0737 10.2735 19.3739 10.0518 19.6894C9.55872 19.3057 9.07983 18.9322 8.59992 18.5587C8.57259 18.5902 8.55639 18.6045 8.54525 18.6218C8.09066 19.3525 7.78692 20.1545 7.45585 20.9433C7.43965 20.982 7.43155 21.0227 7.42041 21.0634C7.29993 21.5265 7.35561 21.9631 7.61986 22.3651C7.94689 22.8628 8.42882 23.1935 8.88645 23.565C9.00997 23.3604 9.12336 23.1722 9.23878 22.9808C9.5081 23.0958 9.75514 23.2068 10.0052 23.3065C10.0984 23.3431 10.1328 23.3981 10.1287 23.4948C10.1216 23.6831 10.1328 23.8714 10.1166 24.0586C10.0609 24.7171 10.1399 25.3552 10.4082 25.9608C10.8607 26.9857 11.5826 27.7297 12.669 28.0625C12.9312 28.1429 13.2117 28.1703 13.4871 28.1958C13.7513 28.2202 13.9305 28.3362 14.0307 28.5805C14.0733 28.6833 14.1117 28.7881 14.1482 28.8929C14.6929 30.4694 15.5423 31.8465 16.7816 32.969C17.0529 33.2143 17.2362 33.5186 17.2797 33.886C17.3111 34.1476 17.3091 34.4142 17.3121 34.6778C17.3192 35.3343 17.4893 35.9297 17.9378 36.4263C17.9834 36.4772 18.0026 36.5515 18.0431 36.6319C17.953 36.6523 17.8953 36.6655 17.8265 36.6808C17.8265 36.7225 17.8244 36.7561 17.8265 36.7897C17.8609 37.3016 17.9621 37.7993 18.1676 38.2695C18.8926 39.9244 20.1389 41.0001 21.8317 41.567C22.3764 41.7492 22.9394 41.8225 23.5134 41.7583C24.3487 41.6657 25.0918 41.34 25.7449 40.8149C26.9791 39.8226 27.6686 38.4995 28.0249 36.978C28.029 36.9596 28.0209 36.9393 28.0179 36.9159C27.9622 36.9027 27.9085 36.8904 27.8498 36.8762V36.8711ZM13.7007 30.9437C13.4658 30.4491 13.2552 29.9962 13.0345 29.5484C12.9748 29.4273 12.8634 29.357 12.7247 29.3224C12.5232 29.2736 12.3217 29.2166 12.1273 29.1464C11.5209 28.9255 10.9883 28.5734 10.4882 28.1724C10.3727 28.0798 10.2766 28.0543 10.1328 28.1011C9.55366 28.2904 8.96947 28.4665 8.38731 28.6487C8.32251 28.669 8.26075 28.6955 8.18785 28.723C8.20203 28.8095 8.21924 28.8838 8.2243 28.9591C8.23949 29.1861 8.33263 29.3703 8.49868 29.526C8.60499 29.6257 8.68902 29.7479 8.79432 29.8496C9.04945 30.0949 9.29548 30.3544 9.5729 30.5702C10.0062 30.9071 10.5064 31.0475 11.0572 30.9783C11.2566 30.9539 11.4571 30.9244 11.6565 30.9244C12.2387 30.9244 12.8209 30.9366 13.404 30.9437C13.486 30.9437 13.5681 30.9437 13.7017 30.9437H13.7007ZM32.4099 30.9386C32.5476 30.9386 32.6519 30.9386 32.7551 30.9386C33.6279 30.9366 34.5016 30.9356 35.3744 30.9325C35.9019 30.9305 36.3696 30.7727 36.7513 30.3951C36.9832 30.1651 37.216 29.9361 37.4448 29.7031C37.5279 29.6186 37.6078 29.5311 37.6757 29.4354C37.8063 29.2522 37.86 29.0517 37.8063 28.8237C37.782 28.723 37.7374 28.669 37.6392 28.6395C37.049 28.4614 36.4607 28.2803 35.8725 28.096C35.7753 28.0655 35.7034 28.0828 35.6255 28.1459C34.9562 28.6924 34.2192 29.1087 33.3727 29.3123C33.2016 29.354 33.0791 29.4537 33.0042 29.6206C32.825 30.0206 32.6377 30.4165 32.4555 30.8145C32.4413 30.844 32.4332 30.8765 32.4109 30.9386H32.4099Z" fill="#FFEB61"/>
<path d="M23.3059 0C23.56 0.0254438 23.8141 0.0539408 24.0683 0.0742959C25.3095 0.172 26.5265 0.404047 27.7141 0.773491C28.3621 0.975006 28.9939 1.22537 29.6327 1.45437C29.6904 1.47472 29.7461 1.50424 29.8291 1.54189C29.6266 1.89912 29.4302 2.2472 29.2237 2.61257C29.1528 2.58712 29.089 2.56779 29.0273 2.54133C27.9632 2.09453 26.8677 1.74951 25.7358 1.52765C24.4996 1.2844 23.2532 1.18568 21.9927 1.24267C20.0478 1.33122 18.1849 1.77903 16.3776 2.48637C16.3007 2.5169 16.2227 2.5454 16.1225 2.58407C15.9362 2.22786 15.7519 1.87572 15.5596 1.50729C15.6385 1.47269 15.7003 1.44419 15.762 1.41875C17.136 0.863053 18.5514 0.450864 20.0154 0.227976C20.5905 0.14045 21.1726 0.102793 21.7507 0.0417278C21.854 0.0305325 21.9553 0.0142485 22.0575 0C22.4736 0 22.8897 0 23.3059 0Z" fill="#FFEB61"/>
<path d="M25.0615 3.11025C25.0179 3.40743 24.9815 3.70869 24.8529 3.99162C24.8225 4.05778 24.779 4.08831 24.7081 4.08424C24.6808 4.0822 24.6524 4.08424 24.6251 4.08424C23.315 4.08424 22.0049 4.08424 20.6947 4.08424C20.6401 4.08424 20.5854 4.07915 20.5125 4.07508C20.4173 3.76365 20.3232 3.45323 20.229 3.14383C20.8527 2.74284 24.0855 2.71943 25.0625 3.11127L25.0615 3.11025Z" fill="#FFEB61"/>
<path d="M19.7754 20.8771H18.6465C18.6334 20.6675 18.6182 20.4619 18.6071 20.2563C18.599 20.0965 18.6111 19.9337 18.5868 19.7759C18.4704 19.0065 17.9085 18.4132 17.1248 18.2524C16.8626 18.1984 16.5882 18.1954 16.3199 18.1791C16.0364 18.1618 15.7509 18.174 15.4694 18.1424C15.1212 18.1038 14.8053 17.9511 14.4924 17.8005C14.3375 17.7262 14.1816 17.656 14.0075 17.5745C13.9113 18.0804 13.9821 18.5231 14.2646 18.9271C14.4388 19.1775 14.6686 19.3658 14.9237 19.5266C15.2254 19.7159 15.5535 19.8482 15.8886 19.9601C15.9534 19.9815 16.0182 20.0039 16.0891 20.0273V21.0033C15.8461 21.1214 15.592 21.1255 15.3399 21.0644C14.6899 20.9077 14.133 20.5789 13.6723 20.0924C13.0213 19.4065 12.6548 18.5892 12.5819 17.6437C12.5455 17.1684 12.6022 16.7094 12.9059 16.3146C12.9312 16.282 12.9474 16.2413 12.9737 16.2097C13.0669 16.0968 13.0679 15.9828 13.0254 15.8423C12.7621 14.9782 12.6852 14.0959 12.7915 13.1717C13.9994 12.9794 15.1353 13.0964 16.1194 13.9147C17.0884 14.7197 17.4761 15.8016 17.5571 17.0097C17.788 17.1349 18.0087 17.2387 18.2122 17.37C18.439 17.5155 18.6648 17.6702 18.8683 17.8473C19.5527 18.4427 19.8493 19.2131 19.8281 20.1138C19.822 20.3632 19.7957 20.6115 19.7775 20.8761L19.7754 20.8771ZM14.0439 14.5213C13.9791 15.9288 14.9693 16.9537 16.2207 17.0199C16.2247 16.9873 16.2339 16.9527 16.2328 16.9201C16.2065 16.2555 16.0233 15.6459 15.597 15.1248C15.3773 14.8571 15.108 14.6526 14.7739 14.5477C14.5329 14.4724 14.2889 14.4439 14.0449 14.5213H14.0439Z" fill="#FFEB61"/>
<path d="M29.253 21.1906V20.066C29.3057 20.0446 29.3624 20.0222 29.4181 19.9988C29.7228 19.8665 30.0357 19.7495 30.3303 19.5968C30.9965 19.2508 31.3316 18.6798 31.3843 17.9338C31.3934 17.8096 31.4035 17.6855 31.4167 17.5206C31.3215 17.5715 31.2577 17.604 31.1949 17.6407C30.5075 18.0366 29.7643 18.231 28.9756 18.2513C28.6284 18.2605 28.2841 18.2819 27.946 18.3694C27.3506 18.5241 26.9629 18.8986 26.8039 19.495C26.7381 19.7423 26.7087 20.0009 26.6763 20.2553C26.65 20.4548 26.6439 20.6563 26.6277 20.869H25.6153C25.5151 20.5321 25.4847 20.1871 25.4928 19.84C25.514 18.9159 25.92 18.1913 26.6662 17.6682C26.9487 17.4707 27.2676 17.3252 27.5703 17.1583C27.6361 17.1216 27.707 17.0942 27.7556 17.0718C27.8295 16.682 27.8802 16.3084 27.9733 15.9461C28.2973 14.6963 29.0455 13.8099 30.2513 13.3366C30.8375 13.1066 31.4501 13.0608 32.0717 13.1249C32.2226 13.1402 32.3724 13.1646 32.5172 13.184C32.659 13.589 32.661 14.9538 32.2175 16.169C32.2246 16.1802 32.2287 16.1975 32.2398 16.2026C32.5354 16.3542 32.6559 16.6087 32.6843 16.9313C32.74 17.5654 32.6974 18.1903 32.4797 18.7867C32.0393 19.9988 31.1777 20.7469 29.9304 21.0451C29.7157 21.097 29.4981 21.1387 29.2541 21.1916L29.253 21.1906ZM31.2334 14.39C31.1747 14.393 31.1129 14.39 31.0542 14.4002C30.2939 14.5284 29.7249 14.9243 29.3867 15.6306C29.25 15.9146 29.166 16.2148 29.1265 16.5273C29.1073 16.6759 29.0637 16.8234 29.1073 16.973C30.6067 17.0616 31.4987 15.4708 31.2334 14.39Z" fill="#FFEB61"/>
<path d="M20.0053 31.9279C19.7643 32.0805 19.6509 32.2882 19.663 32.565C19.6691 32.7044 19.6671 32.8439 19.663 32.9833C19.658 33.1502 19.661 33.3191 19.6357 33.483C19.5922 33.7649 19.4059 33.9196 19.1204 33.9369C18.8581 33.9532 18.6476 33.8138 18.5655 33.5563C18.5342 33.4586 18.5139 33.3517 18.5129 33.2489C18.5109 32.8449 18.4967 32.4388 18.5291 32.0368C18.6081 31.072 19.4251 30.559 20.232 30.6587C20.9367 30.7463 21.4085 31.2216 21.5128 31.9391C21.5533 32.221 21.5705 32.507 21.5948 32.792C21.6454 33.3772 22.0494 33.7497 22.6457 33.7598C23.2299 33.769 23.7109 33.3558 23.7615 32.795C23.7767 32.6291 23.7645 32.4591 23.7838 32.2943C23.8101 32.0744 23.8263 31.8465 23.8961 31.6388C24.0844 31.0852 24.4742 30.7391 25.0544 30.6547C25.6264 30.5712 26.1073 30.7666 26.4708 31.2236C26.6885 31.4984 26.8069 31.8139 26.8059 32.1701C26.8039 32.5467 26.8019 32.9232 26.7999 33.2998C26.7999 33.3344 26.7999 33.37 26.7978 33.4046C26.7745 33.7354 26.5771 33.9247 26.245 33.9339C25.9322 33.942 25.7155 33.7629 25.6872 33.4372C25.6578 33.1044 25.6568 32.7685 25.6406 32.4347C25.6365 32.3513 25.6254 32.2688 25.6122 32.1864C25.595 32.0816 25.5262 32.0144 25.4371 31.9655C25.3247 31.9045 25.2478 31.9147 25.1536 31.9991C25.0392 32.1009 25.0189 32.2373 25.0129 32.3787C25.0048 32.5803 25.0169 32.7858 24.9845 32.9833C24.8246 33.9675 24.2454 34.5924 23.2947 34.8315C22.4088 35.0544 21.5989 34.8682 20.9377 34.2056C20.5155 33.7812 20.308 33.252 20.3363 32.6535C20.3515 32.3401 20.2543 32.1131 20.0063 31.9279H20.0053Z" fill="#FFEB61"/>
<path d="M22.908 36.5973C23.3241 36.5973 23.7392 36.5922 24.1553 36.5973C25.0534 36.6095 25.7996 37.1734 26.0263 38.0385C26.2309 38.815 26.0395 39.4928 25.4209 40.0159C23.9852 41.2281 21.9229 41.2708 20.4437 40.1259C19.8483 39.6648 19.5922 39.0481 19.7086 38.3051C19.8291 37.5347 20.2665 36.9953 21.0076 36.7378C21.201 36.6706 21.4136 36.6411 21.6181 36.634C22.0474 36.6187 22.4777 36.6289 22.907 36.6289C22.907 36.6177 22.907 36.6075 22.907 36.5963L22.908 36.5973ZM22.9151 37.8268C22.9151 37.838 22.9151 37.8481 22.9151 37.8593C22.4858 37.8593 22.0565 37.8583 21.6272 37.8593C21.4794 37.8593 21.3407 37.898 21.2162 37.9845C20.8962 38.2064 20.7039 38.7977 21.1908 39.16C21.8884 39.6781 22.6619 39.847 23.5084 39.6526C23.9346 39.5549 24.3133 39.3564 24.6443 39.0715C24.8853 38.8639 24.9521 38.587 24.8306 38.298C24.7061 38.0039 24.4904 37.8278 24.1604 37.8268C23.7453 37.8247 23.3292 37.8268 22.9141 37.8268H22.9151Z" fill="#FFEB61"/>
<path d="M22.6225 8.10435C23.8799 8.10639 24.8975 8.84121 25.2326 9.98211C25.6325 11.3428 24.9764 12.8908 23.4911 13.3244C21.9806 13.7651 20.469 12.9387 20.0883 11.4446C19.7906 10.2762 20.2148 9.03356 21.3103 8.43004C21.7264 8.20104 22.1739 8.09723 22.6235 8.10334L22.6225 8.10435ZM24.1847 10.891C24.1806 10.0808 23.4891 9.34805 22.7834 9.28902C22.175 9.23813 21.5837 9.57602 21.3012 10.1358C21.04 10.6528 21.124 11.2278 21.531 11.7092C22.1436 12.4359 23.0193 12.4848 23.6977 11.8242C23.9913 11.5382 24.1786 11.1973 24.1857 10.891H24.1847Z" fill="#FFEB61"/>
<path d="M38.9028 14.1478C38.9068 12.9081 39.9456 11.9179 41.1747 11.9565C42.1254 11.9871 42.9486 12.6171 43.1986 13.5045C43.5327 14.6923 42.7481 15.9573 41.5342 16.1914C40.4518 16.4 39.4019 15.8332 39.0273 14.8388C38.9402 14.6078 38.8977 14.3707 38.9028 14.1478ZM42.0424 14.0704C42.0414 13.5992 41.5807 13.1514 41.0917 13.1473C40.6067 13.1422 40.1268 13.6073 40.1248 14.0847C40.1228 14.5681 40.6108 15.0556 41.0917 15.0515C41.5757 15.0475 42.0434 14.565 42.0424 14.0704Z" fill="#FFEB61"/>
<path d="M2.41684 14.1732C2.45633 12.8847 3.55991 11.9209 4.82548 12.0807C5.42283 12.156 5.92501 12.4135 6.31481 12.8735C7.07617 13.7712 6.96177 15.0587 6.05055 15.822C4.83054 16.8448 2.97572 16.3339 2.52923 14.8083C2.46949 14.6037 2.45329 14.3859 2.41684 14.1732ZM5.58584 14.2048C5.58887 13.7173 5.13023 13.2654 4.62906 13.2633C4.12284 13.2613 3.63382 13.7244 3.63787 14.2027C3.64293 14.6872 4.10765 15.1533 4.59262 15.1594C5.10998 15.1665 5.58179 14.7116 5.58482 14.2048H5.58584Z" fill="#FFEB61"/>
<path d="M27.9429 10.0004C28.5636 9.89356 29.169 9.78873 29.8048 9.67983C29.8403 10.088 29.8737 10.4798 29.9091 10.892C29.6641 10.9612 29.4272 11.0273 29.1822 11.0955C28.9604 13.4394 27.8062 15.0973 25.6143 16.0265C25.4452 15.7232 25.2781 15.422 25.0989 15.1004C25.1668 15.0556 25.2275 15.0139 25.2893 14.9752C25.8158 14.6373 26.324 14.276 26.7685 13.8292C27.3668 13.2257 27.7283 12.501 27.8397 11.6604C27.9004 11.2054 27.9115 10.7444 27.9419 10.2864C27.948 10.1979 27.9419 10.1073 27.9419 9.99941L27.9429 10.0004Z" fill="#FFEB61"/>
<path d="M16.0901 11.0894C15.8451 11.0263 15.6112 10.9663 15.3571 10.9011C15.3723 10.5062 15.433 10.1175 15.4836 9.70121C16.1255 9.77245 16.7522 9.86608 17.4032 9.95768C17.3962 10.1185 17.3881 10.2691 17.382 10.4197C17.3405 11.3876 17.5085 12.3067 18.0188 13.1432C18.4613 13.8689 19.0839 14.4012 19.8088 14.8215C19.9405 14.8978 20.0751 14.9691 20.2057 15.0424C20.1399 15.3243 19.9941 15.5889 19.7532 15.8657C19.5405 15.8627 19.338 15.7924 19.1386 15.7151C18.5007 15.4688 17.9915 15.0475 17.5612 14.5233C16.8909 13.7061 16.4849 12.7596 16.2339 11.7408C16.1822 11.5321 16.1407 11.3204 16.0901 11.0904V11.0894Z" fill="#FFEB61"/>
<path d="M19.5436 23.5823C19.8362 23.3655 20.1025 23.1681 20.389 22.9554C20.5095 23.0826 20.636 23.1925 20.7342 23.3228C21.4136 24.2205 21.53 25.2046 21.1281 26.2427C20.9884 26.604 20.798 26.9501 20.5894 27.2778C20.3728 27.6187 20.2037 27.9678 20.1349 28.3668C20.1187 28.4624 20.0873 28.5551 20.0599 28.6599H18.9513C18.9118 28.323 18.9655 28.0034 19.0454 27.6859C19.1568 27.2472 19.3623 26.8554 19.6317 26.4941C19.744 26.3435 19.8504 26.1878 19.9394 26.0229C20.2341 25.4784 20.2543 24.9196 19.985 24.3578C19.9162 24.2143 19.8281 24.079 19.7491 23.9406C19.6843 23.8266 19.6185 23.7126 19.5426 23.5803L19.5436 23.5823Z" fill="#FFEB61"/>
<path d="M25.3946 28.6589C25.3652 28.607 25.3328 28.5551 25.3034 28.5001C24.9987 27.9291 24.6869 27.3622 24.3922 26.7862C23.8799 25.7827 23.8222 24.7629 24.3264 23.736C24.4682 23.4459 24.6626 23.1935 24.9228 22.9595C25.1921 23.1488 25.4604 23.3381 25.7368 23.5314C25.6487 23.6963 25.5637 23.8398 25.4948 23.9904C25.3946 24.2113 25.2883 24.4321 25.2154 24.6632C25.0453 25.2036 25.1435 25.7094 25.4614 26.1735C25.5717 26.3343 25.6902 26.489 25.7965 26.6519C26.1205 27.1495 26.3281 27.691 26.3675 28.2894C26.3756 28.4054 26.3686 28.5225 26.3686 28.6589H25.3946Z" fill="#FFEB61"/>
<path d="M21.4632 19.8757C21.3063 19.7362 21.1514 19.607 21.0066 19.4676C20.7909 19.2599 20.7737 19.1062 20.8881 18.8284C20.9965 18.5658 21.1129 18.3012 21.1797 18.0274C21.3042 17.5206 21.2587 17.0148 21.0714 16.5283C20.9296 16.1609 20.9063 15.9736 21.3134 15.6408C21.4207 15.5533 21.5229 15.4607 21.6343 15.365C21.8125 15.4841 21.9411 15.6479 22.0545 15.823C22.2944 16.1934 22.4159 16.6067 22.4615 17.0402C22.5313 17.7028 22.4524 18.348 22.175 18.9607C22.0018 19.3444 21.7609 19.6548 21.4632 19.8757Z" fill="#FFEB61"/>
<path d="M24.5299 19.1531C24.288 19.4187 24.0591 19.6691 23.8334 19.9164C23.808 19.9031 23.7919 19.9001 23.7838 19.8909C23.0872 19.0493 22.6822 18.1078 22.8098 16.9873C22.8796 16.3705 23.2522 15.6907 23.6906 15.363C23.9174 15.5869 24.1432 15.8098 24.3862 16.0489C23.8161 17.0952 23.9295 18.1272 24.5299 19.1531Z" fill="#FFEB61"/>
<path d="M28.2112 25.63C27.9531 25.8 27.706 25.9639 27.46 26.1257C26.4455 24.9156 26.4131 23.3024 27.4083 22.1147C27.622 22.2755 27.8356 22.4384 28.0513 22.5982C28.114 22.645 28.108 22.703 28.0968 22.7661C28.0634 22.9584 28.0371 23.1518 27.9956 23.3421C27.8832 23.85 27.9034 24.3517 28.031 24.8535C28.0948 25.1028 28.1474 25.3552 28.2102 25.6311L28.2112 25.63Z" fill="#FFEB61"/>
<path d="M17.8679 26.1337C17.5966 25.9515 17.3182 25.7632 17.0276 25.5678C17.4812 24.6315 17.5814 23.6942 17.0974 22.7365C17.3718 22.539 17.6361 22.3507 17.9084 22.1543C17.954 22.1991 17.9965 22.2337 18.0299 22.2744C18.364 22.6693 18.5422 23.1334 18.5949 23.6433C18.6819 24.486 18.4805 25.2605 18.0178 25.9668C17.9874 26.0136 17.955 26.0584 17.9216 26.1032C17.9145 26.1134 17.8983 26.1174 17.8669 26.1337H17.8679Z" fill="#FFEB61"/>
</g>
<defs>
<clipPath id="clip0_298_1093">
<rect width="46" height="43" fill="white"/>
</clipPath>
</defs>
</svg>
