<svg width="48" height="35" viewBox="0 0 48 35" fill="none" xmlns="http://www.w3.org/2000/svg">
<path d="M30.5437 7.04357C30.9483 7.00605 31.3261 6.97003 31.704 6.93551C32.4448 6.86947 33.1841 6.80944 33.9174 7.01205C35.3485 7.40978 36.2097 8.70352 36.0089 10.1819C35.8438 11.4021 35.3276 12.4737 34.6106 13.4537C33.7687 14.6049 32.6813 15.4784 31.4868 16.2273C30.1212 17.0843 28.653 17.7282 27.164 18.33C26.0171 18.7938 24.8672 19.247 23.765 19.8144C21.855 20.7959 20.1101 22.0086 18.6047 23.559C18.505 23.6611 18.3935 23.7571 18.3131 23.8742C18.1034 24.1804 17.8014 24.1413 17.5024 24.1098C17.4563 24.1053 17.3938 24.0348 17.379 23.9838C17.3165 23.7751 17.3388 23.568 17.4861 23.4044C17.7999 23.0547 18.1108 22.699 18.45 22.3748C20.3555 20.5528 22.5883 19.25 24.9877 18.216C26.2402 17.6756 27.5061 17.1669 28.7497 16.6085C29.9502 16.0682 31.1045 15.4319 32.1517 14.6244C33.5203 13.5693 34.4872 12.2185 35.0019 10.5511C35.109 10.2059 35.1491 9.85017 35.0971 9.48697C35.0242 8.99168 34.7802 8.60446 34.386 8.3118C34.0156 8.03714 33.5946 7.87805 33.1157 7.77149C33.1365 7.95009 33.1409 8.11368 33.1781 8.26827C33.3358 8.91364 33.2481 9.52899 32.9833 10.1293C32.6084 10.9803 32.0699 11.7187 31.4288 12.3806C29.8728 13.9835 28.0952 15.3028 26.2016 16.4675C24.3615 17.5991 22.4277 18.5506 20.4641 19.4407C18.447 20.3547 16.421 21.2492 14.4039 22.1617C14.1346 22.2833 13.8847 22.3553 13.6006 22.2353C13.4459 22.1692 13.3596 22.0657 13.3745 21.8931C13.3938 21.6559 13.4444 21.4548 13.6437 21.2732C14.1346 20.8259 14.5928 20.3412 15.0628 19.8699C16.4076 18.5221 17.7434 17.1654 19.0971 15.8266C20.4552 14.4863 21.8133 13.1446 23.2042 11.8388C24.4656 10.6531 25.8446 9.61304 27.3113 8.69301C27.3708 8.65549 27.4392 8.63298 27.5061 8.60596C28.4314 8.22775 29.1305 7.57337 29.675 6.7494C30.1346 6.05301 30.5556 5.33109 30.9914 4.61969C31.5418 3.72067 32.0684 2.80365 32.6456 1.92265C33.37 0.816513 34.4262 0.207165 35.7203 0.0495748C37.5054 -0.16955 39.0867 0.397774 40.5087 1.44837C40.9416 1.76806 41.3165 2.16728 41.7018 2.547C41.8282 2.67307 41.9293 2.84267 41.9933 3.01227C42.215 3.6006 42.6255 3.99533 43.1729 4.26248C44.4448 4.88384 45.7181 5.50069 46.9914 6.11904C47.2116 6.2256 47.4332 6.32916 47.6519 6.43722C47.8468 6.53478 48.0089 6.65785 48 6.913C47.9896 7.23568 47.8111 7.43229 47.4913 7.41128C47.1119 7.38577 46.7341 7.32723 46.3548 7.27771C45.5634 7.17265 44.772 7.06158 43.9807 6.95352C43.3961 6.87397 42.81 6.79743 42.2254 6.72089C42.1644 6.71338 42.1004 6.72089 42.0439 6.70138C41.7479 6.59782 41.5827 6.76291 41.4102 6.97303C40.5668 7.99812 40.119 9.17329 40.0015 10.497C39.8706 11.9874 39.5627 13.4462 39.1194 14.875C38.6553 16.3699 38.0945 17.8272 37.3254 19.193C35.9569 21.6214 33.9338 23.2799 31.3678 24.2884C31.1357 24.38 30.9067 24.482 30.6701 24.5556C30.4619 24.6201 30.2447 24.6486 30.032 24.6997C29.1573 24.9128 28.4954 25.4381 27.9777 26.157C27.5775 26.7138 27.2131 27.2961 26.8204 27.859C26.4976 28.3212 26.1569 28.77 25.8208 29.2217C25.7687 29.2923 25.7612 29.3433 25.8059 29.4259C26.3711 30.4585 26.9319 31.494 27.4898 32.5311C27.5389 32.6212 27.5969 32.6557 27.6951 32.6527C28.2797 32.6407 28.8643 32.6257 29.4489 32.6227C30.3533 32.6182 30.9959 33.0309 31.3485 33.8759C31.4065 34.014 31.4779 34.05 31.6177 34.0485C32.4582 34.0425 33.3001 34.041 34.1406 34.0485C34.4039 34.05 34.6687 34.08 34.9319 34.1025C35.1268 34.1175 35.225 34.2496 35.286 34.4192C35.3455 34.5828 35.2518 34.6879 35.1521 34.7989C35.042 34.9235 34.9171 34.9655 34.749 34.964C33.4236 34.9565 32.0982 34.961 30.7743 34.9595C30.5898 34.9595 30.447 34.8274 30.4098 34.6428C30.3607 34.4027 30.3102 34.1611 30.2373 33.9269C30.1569 33.6703 29.9665 33.5232 29.6958 33.5412C29.4072 33.5607 29.1216 33.6057 28.836 33.6493C28.2172 33.7423 27.6162 33.7318 27.0747 33.3566C26.7058 33.1015 26.4425 32.7488 26.2834 32.339C25.9427 31.464 25.4756 30.6611 24.9699 29.8776C24.7229 29.4949 24.7393 29.1182 25.0071 28.7475C25.9621 27.4222 26.9156 26.0955 27.8631 24.7642C28.1309 24.389 28.4835 24.1759 28.9253 24.0738C30.563 23.7001 32.0952 23.0772 33.4727 22.0912C35.0108 20.9895 36.177 19.5667 36.9758 17.8527C37.8788 15.9151 38.5199 13.8845 38.8829 11.7728C38.9989 11.1019 39.0524 10.419 39.1298 9.74211C39.2399 8.77406 39.5478 7.87955 40.1413 7.10661C40.54 6.58581 40.8479 6.01698 41.1157 5.42265C41.2228 5.18401 41.3328 4.94837 41.4399 4.70974C41.5411 4.48311 41.5485 4.25948 41.431 4.02985C41.1588 3.50305 40.9267 2.95223 40.4463 2.56501C39.9866 2.1943 39.5076 1.85811 38.9795 1.59846C38.09 1.16321 37.1543 0.891556 36.1592 0.909566C35.1804 0.926076 34.3682 1.28628 33.7717 2.11325C32.8256 3.422 31.9792 4.79379 31.1164 6.15806C30.9334 6.44773 30.749 6.7344 30.5511 7.04657L30.5437 7.04357ZM16.5177 20.071C16.5236 20.083 16.5311 20.095 16.537 20.1085C16.6887 20.0605 16.8479 20.0275 16.9922 19.9615C19.1774 18.9724 21.3834 18.0299 23.5091 16.9132C25.2778 15.9842 26.9766 14.9441 28.5474 13.6984C29.7598 12.7378 30.8427 11.6572 31.7441 10.386C32.1324 9.83817 32.2707 9.25283 32.2618 8.60897C32.2559 8.21124 32.055 7.9756 31.7025 7.94258C31.5731 7.93058 31.4332 7.92908 31.3083 7.9636C30.9751 8.05365 30.6449 8.15721 30.3191 8.27127C28.9803 8.74104 27.7739 9.45845 26.627 10.2854C24.839 11.5747 23.2071 13.047 21.6735 14.6274C20.1101 16.2393 18.5824 17.8873 17.0398 19.5202C16.8658 19.7048 16.6902 19.8879 16.5162 20.0725L16.5177 20.071ZM41.9933 5.77234C42.6761 5.84889 43.338 5.91793 44 5.99897C44.1488 6.01698 44.2202 5.98096 44.2157 5.81437C43.5984 5.52771 42.9766 5.23804 42.3473 4.94387C42.2298 5.22003 42.1153 5.48718 41.9933 5.77234Z" fill="#FFEB61"/>
<path d="M0.920754 33.8414C1.27925 34.1326 1.61395 34.1476 1.94865 33.8834C2.32499 33.5862 2.68349 33.2651 3.0524 32.9559C3.40049 32.6632 3.75006 32.372 4.10261 32.0839C4.26475 31.9518 4.44028 31.8362 4.65895 31.9383C4.88803 32.0449 4.92075 32.2595 4.93117 32.4831C4.95199 32.8808 4.86125 33.2576 4.73184 33.6283C4.70209 33.7153 4.6768 33.8039 4.6411 33.9209C4.95348 33.9615 5.25396 34.0035 5.55445 34.0365C6.39342 34.1265 7.02711 33.7618 7.61767 33.184C9.43544 31.401 11.2859 29.6495 13.1231 27.886C13.5366 27.4898 13.9576 27.0995 14.3592 26.6928C14.8203 26.226 15.3648 26.0414 16.0104 26.1165C16.7571 26.2035 17.5039 26.184 18.2521 26.121C19.5031 26.0144 20.7229 25.7428 21.9278 25.3991C22.1896 25.324 22.438 25.2115 22.7266 25.2415C23.1565 25.285 23.3112 25.4426 23.1833 25.8628C23.0732 26.223 22.9022 26.5637 22.7415 26.9059C22.5288 27.3592 22.3071 27.8109 22.0736 28.2537C21.8609 28.6604 21.8981 29.0341 22.1762 29.3868C22.6418 29.9782 23.1179 30.5605 23.5835 31.1518C23.8334 31.4685 24.0669 31.8017 24.3213 32.1154C24.5355 32.3796 24.8137 32.4846 25.1617 32.4471C25.4756 32.4126 25.7791 32.4936 26.0572 32.6467C26.2476 32.7518 26.322 32.9274 26.2625 33.145C26.2194 33.3011 26.1539 33.4542 26.084 33.6012C25.9784 33.8174 25.9724 33.8144 26.0126 34.092H26.1852C27.3321 34.092 28.479 34.095 29.6258 34.089C29.7597 34.089 29.8222 34.1281 29.8356 34.2601C29.843 34.3307 29.8639 34.4012 29.8728 34.4717C29.9025 34.7134 29.785 34.8845 29.5455 34.931C29.4414 34.952 29.3328 34.961 29.2272 34.961C28.3302 34.964 27.4332 34.961 26.5362 34.961C24.8181 34.961 23.1015 34.961 21.3834 34.961C21.2718 34.961 21.1588 34.9505 21.0502 34.9265C20.8583 34.8845 20.7586 34.7374 20.7214 34.5588C20.6872 34.3922 20.7913 34.2661 20.9044 34.1581C20.9297 34.1341 20.9803 34.1281 21.0174 34.1311C21.4473 34.1596 21.8029 33.993 22.1138 33.7108C22.2045 33.6283 22.2967 33.5457 22.3771 33.4527C22.6433 33.1435 22.9453 32.8808 23.3023 32.6812C23.3737 32.6422 23.4392 32.5927 23.5195 32.5401C23.2859 32.2385 23.0613 31.9413 22.8278 31.6516C22.3785 31.0933 21.9248 30.5395 21.4726 29.9827C20.9713 29.3628 20.8791 28.6919 21.2004 27.955C21.4087 27.4778 21.5976 26.9915 21.8103 26.4707C21.6541 26.4917 21.5321 26.5022 21.4131 26.5262C20.8806 26.6343 20.3495 26.7573 19.8155 26.8579C18.746 27.0575 17.6675 27.1386 16.5786 27.074C16.2945 27.0575 16.0089 27.038 15.7263 27.0605C15.3975 27.0875 15.1417 27.2871 14.9096 27.5078C13.7672 28.5914 12.6232 29.675 11.4838 30.7631C10.2253 31.9638 8.97133 33.1675 7.71436 34.3682C7.35735 34.7089 6.94976 34.949 6.44697 34.9775C6.29078 34.9865 6.1331 34.964 5.97542 34.9625C5.42503 34.961 4.87464 34.9625 4.32425 34.961C3.74857 34.958 3.61767 34.8214 3.61618 34.2376C3.61618 34.0755 3.61618 33.9119 3.58345 33.7303C3.44809 33.8729 3.31867 34.023 3.17438 34.1566C2.50647 34.7719 1.727 35.0811 0.815139 34.988C0.568207 34.9625 0.327225 34.895 0.0847559 34.838C0.0490549 34.8305 -0.00449657 34.7734 -0.00152149 34.7464C0.0535176 34.3097 0.0892186 33.8669 0.182934 33.4392C0.291524 32.9469 0.587545 32.5612 0.984719 32.255C3.48528 30.3189 5.98881 28.3843 8.48639 26.4452C9.96352 25.2985 11.4317 24.1398 12.9074 22.9902C13.0517 22.8776 13.2093 22.7786 13.367 22.687C13.547 22.5835 13.7449 22.5639 13.9427 22.624C14.1837 22.6975 14.2833 22.9482 14.1524 23.1628C14.0974 23.2528 14.0215 23.3339 13.9382 23.3984C11.9836 24.9233 10.026 26.4422 8.07137 27.967C5.92336 29.642 3.77386 31.3154 1.63924 33.0069C1.35809 33.229 1.16025 33.5592 0.917779 33.8459L0.920754 33.8414ZM23.2056 33.957C24.0044 34.1461 24.4343 34.029 24.6827 33.5592C24.2008 33.3566 23.5924 33.5037 23.2056 33.957Z" fill="#FFEB61"/>
<path d="M38.1718 4.75626C37.6556 4.75626 37.2599 4.37054 37.2585 3.86475C37.2585 3.35446 37.6452 2.97775 38.1703 2.97925C38.7073 2.97925 39.0971 3.35296 39.0985 3.86926C39.1 4.38105 38.7073 4.75777 38.1703 4.75777L38.1718 4.75626Z" fill="#FFEB61"/>
</svg>
