<svg width="45" height="48" viewBox="0 0 45 48" fill="none" xmlns="http://www.w3.org/2000/svg">
<g clip-path="url(#clip0_298_1125)">
<path d="M35.6376 4.56281C35.3594 4.15404 35.0733 3.78225 34.8381 3.38126C34.5266 2.85179 34.3855 2.27756 34.6422 1.68192C34.9146 1.04929 35.33 0.549024 36.0491 0.403033C36.4724 0.317385 36.8897 0.38746 37.2973 0.521772C37.5442 0.603528 37.7872 0.696962 38.0576 0.792343C38.0733 0.728107 38.089 0.665817 38.1007 0.605474C38.1791 0.22979 38.3731 0.0546001 38.7552 0.0156691C40.4893 -0.15952 42.247 1.15635 42.5743 2.85958C42.682 3.41435 42.6468 3.96133 42.5507 4.50636C42.5096 4.73995 42.5605 4.92682 42.7251 5.06502C42.9583 5.25968 43.2111 5.43876 43.4756 5.59059C43.8616 5.81445 44.2908 5.96822 44.6082 6.30108C44.8061 6.50936 44.9296 6.75463 45.0001 7.06802C44.1869 7.18287 43.3835 7.29772 42.5292 7.4184C42.7682 7.66561 42.9799 7.87584 43.1817 8.09386C43.4443 8.37805 43.7225 8.65252 43.9557 8.96007C44.7199 9.96838 44.6631 11.0098 43.7813 11.9149C43.3149 12.3938 42.8133 12.8376 42.3156 13.2834C42.1922 13.3943 42.1961 13.4722 42.2647 13.6026C42.7212 14.4688 43.1935 15.3272 43.6167 16.209C44.3241 17.6806 44.7395 19.2359 44.8669 20.8652C45.0805 23.5592 44.5592 26.1306 43.4521 28.5774C41.5142 32.8618 38.3339 35.8225 33.8251 37.3194C31.8499 37.9754 29.814 38.1797 27.7369 38.0357C25.7931 37.8994 23.9296 37.4673 22.1778 36.603C19.9302 35.4935 18.2235 33.8195 16.9694 31.6744C16.3855 30.6739 15.9172 29.6286 15.6938 28.484C15.4175 27.063 15.5919 25.7043 16.2346 24.406C16.3071 24.26 16.3052 24.1685 16.1935 24.04C15.2274 22.9538 14.0008 22.3757 12.5782 22.1363C10.0622 21.7119 7.02298 23.1212 5.75126 25.3909C5.24571 26.2922 4.94003 27.2518 4.78719 28.2679C4.76367 28.4217 4.67941 28.5871 4.5736 28.7C4.38745 28.8986 4.22873 28.8752 4.04845 28.6786C2.89431 27.4309 1.90672 26.0683 1.17778 24.5305C0.344992 22.7689 -0.076301 20.9119 0.0118767 18.9615C0.127487 16.4329 0.832909 14.099 2.46322 12.1076C4.09352 10.1163 6.19019 8.87248 8.72775 8.38584C11.861 7.78435 14.6454 8.60385 17.136 10.5095C19.2954 12.1602 20.5553 14.3598 20.9355 17.0227C21.2333 19.1016 22.9871 20.871 24.731 21.2389C27.1255 21.745 30.5429 20.7698 31.1641 17.0928C31.2934 16.3219 31.2856 15.5297 31.3326 14.7452C31.5246 11.5159 32.4142 8.52988 34.4404 5.94097C34.7931 5.48937 35.1928 5.07281 35.571 4.64067C35.5965 4.61148 35.6219 4.58033 35.6357 4.56476L35.6376 4.56281ZM34.0955 22.6502C34.0485 22.9713 34.0151 23.2886 33.9544 23.5981C33.5331 25.753 32.5083 27.5613 30.7251 28.8791C28.9381 30.1989 26.9119 30.6953 24.7212 30.2378C22.4247 29.759 20.765 28.4139 19.7402 26.3214C19.1327 25.0795 18.9309 23.7616 19.1699 22.3952C19.3345 21.4589 19.5579 20.5323 19.7127 19.596C19.8754 18.6091 19.8695 17.6164 19.6324 16.6392C19.117 14.5116 18.0021 12.7539 16.2483 11.4264C14.0556 9.76789 11.5749 9.11969 8.86491 9.64526C5.91978 10.2156 3.76629 11.9071 2.38092 14.5408C1.54421 16.1331 1.23265 17.85 1.28751 19.6369C1.31691 20.6141 1.45407 21.5698 1.80874 22.4944C1.95766 22.5022 2.04388 22.4711 2.06936 22.2862C2.14186 21.7528 2.2026 21.2136 2.33389 20.6939C2.80417 18.833 3.83879 17.3244 5.34565 16.1428C7.19934 14.6907 9.31168 14.06 11.6611 14.3559C14.0831 14.6615 16.0171 15.8236 17.3339 17.8733C18.7624 20.0943 18.8741 22.3913 17.5338 24.7193C17.0674 25.5291 16.797 26.4051 16.8754 27.353C16.9949 28.7974 17.4554 30.1327 18.2157 31.3649C19.0622 32.7372 20.2222 33.8 21.5566 34.6915C23.6455 36.0872 25.9439 36.825 28.4639 36.86C29.9962 36.8814 31.4933 36.6439 32.9629 36.2215C36.0236 35.3417 38.573 33.691 40.5187 31.1741C42.7153 28.3302 43.7147 25.0853 43.6657 21.5114C43.6441 19.9055 43.2777 18.3716 42.5841 16.9254C42.2157 16.1584 41.7689 15.4285 41.3888 14.6654C40.8127 13.5131 40.4521 12.2906 40.3267 11.0059C40.2248 9.96449 40.313 8.93282 40.5442 7.91283C40.65 7.44176 40.7617 6.9668 41.1066 6.61058C41.3182 6.39062 41.5886 6.22711 41.8512 6.02467C41.6651 5.85727 41.4671 5.65872 41.2477 5.48742C40.1072 4.5959 38.8669 4.37594 37.5266 4.98521C36.7075 5.35701 36.0961 5.98769 35.5279 6.65925C34.2483 8.17172 33.4841 9.93919 32.9884 11.8312C32.6102 13.2795 32.5063 14.755 32.5161 16.246C32.5181 16.6684 32.473 17.0986 32.3966 17.5152C32.1144 19.0413 31.3071 20.2598 30.1001 21.2233C28.7166 22.327 27.1432 22.8429 25.3659 22.6521C24.0334 22.51 22.8577 21.9728 21.8133 21.1455C21.5057 20.9022 21.198 20.6569 20.8767 20.4019C20.8551 20.5012 20.8375 20.5712 20.8238 20.6433C20.7003 21.2623 20.5945 21.8852 20.4534 22.5022C20.281 23.2536 20.3006 23.9952 20.4926 24.7349C21.3215 27.9448 24.5174 29.8213 27.7604 28.9531C30.394 28.2465 31.94 26.4654 32.5847 23.8707C32.7101 23.3704 32.7885 22.8565 32.8943 22.3309C33.294 22.436 33.6801 22.5373 34.0994 22.6463L34.0955 22.6502ZM17.1223 22.9811C17.1438 22.7105 17.1536 22.4789 17.183 22.2492C17.2633 21.601 17.23 20.9645 17.0537 20.3299C16.1641 17.1064 13.0367 15.0683 9.69574 15.5959C6.80156 16.0533 4.80874 17.6689 3.73689 20.3805C3.24702 21.6185 3.1412 22.911 3.26661 24.2308C3.33324 24.9296 3.63108 25.5486 3.90933 26.2279C5.07327 23.641 6.88778 21.8385 9.66635 21.1007C12.492 20.3513 14.8943 21.2525 17.1223 22.9791V22.9811ZM39.2 1.43081C39.1745 1.48142 39.1549 1.5223 39.1314 1.56318C38.9942 1.79871 38.8747 2.04592 38.7121 2.26394C38.524 2.51699 38.3025 2.57149 38.0204 2.43329C37.7754 2.31455 37.5246 2.18023 37.3326 1.99531C37.0955 1.76562 36.8368 1.7189 36.5311 1.73253C35.9825 1.75783 35.7846 1.95054 35.8728 2.55008C35.9962 3.39294 36.6781 3.8095 37.5638 3.64404C37.9498 3.57202 38.3456 3.48248 38.7336 3.4961C39.2999 3.51557 39.8643 3.62068 40.4286 3.68881C40.7049 3.7219 40.9812 3.75889 41.2555 3.79392C41.4279 2.35737 40.8617 1.67608 39.198 1.43081H39.2ZM41.861 11.8857C42.1177 11.7397 42.3666 11.621 42.5899 11.4672C43.2483 11.0117 43.3737 10.2 42.8976 9.55766C42.635 9.20534 42.2627 8.99316 41.8884 8.78488C41.8218 8.7479 41.7493 8.72064 41.6651 8.67977C41.5298 9.764 41.473 10.8132 41.861 11.8857Z" fill="#FFEB61"/>
<path d="M32.7923 38.5613C33.1999 38.4698 33.6075 38.3783 34.0405 38.2791C34.064 38.7462 34.1012 39.1901 34.1052 39.6339C34.113 40.8407 34.1091 42.0456 34.1091 43.2525C34.1091 43.6983 34.0875 44.144 34.115 44.5878C34.1542 45.1932 34.454 45.6721 34.9321 46.04C35.5513 46.5149 36.0823 47.0775 36.5781 47.6731C36.6035 47.7023 36.6231 47.7374 36.6839 47.8269C36.241 47.8678 35.8374 47.934 35.4357 47.9359C35.0986 47.9359 34.84 47.716 34.6048 47.494C34.2051 47.1184 33.8112 46.7388 33.3978 46.3475C33.3174 46.4195 33.2332 46.4916 33.1528 46.5694C32.8217 46.8809 32.5082 47.2118 32.1613 47.5038C31.5656 48.004 30.8955 48.0858 30.1391 47.7841C30.4017 47.5135 30.6408 47.2566 30.8916 47.0113C31.2835 46.6278 31.6734 46.2424 32.079 45.8745C32.5572 45.4385 32.8021 44.9129 32.7923 44.2667C32.7805 43.5678 32.7688 42.8671 32.7688 42.1683C32.7688 40.9965 32.7766 39.8227 32.7825 38.6509C32.7825 38.6256 32.7884 38.5983 32.7943 38.5594L32.7923 38.5613Z" fill="#FFEB61"/>
<path d="M25.6617 38.5808C26.0986 38.6217 26.5101 38.6606 26.9373 38.6995C26.953 39.2757 26.9922 39.8402 26.9784 40.4047C26.9569 41.3955 26.8805 42.3863 26.8746 43.379C26.8648 44.9032 27.4938 46.11 28.7655 46.9938C29.0986 47.2254 29.3612 47.5602 29.6571 47.8464C29.6473 47.8736 29.6395 47.8989 29.6297 47.9262C29.1457 47.932 28.6597 47.9748 28.1816 47.9301C27.7662 47.8931 27.5232 47.5427 27.2802 47.2429C27.002 46.9023 26.7492 46.5422 26.4651 46.1626C26.3024 46.3144 26.1476 46.4565 25.9967 46.6006C25.838 46.7543 25.6734 46.9023 25.5284 47.0677C24.9974 47.6692 24.3076 47.9048 23.5297 47.9515C23.4102 47.9593 23.2887 47.9709 23.1711 47.9943C23.0575 48.0177 22.9791 47.9729 22.9615 47.8717C22.9517 47.8113 22.9791 47.7218 23.0242 47.679C23.6767 47.0463 24.3253 46.4098 24.9935 45.7908C25.548 45.2769 25.7263 44.6482 25.7009 43.9163C25.6695 43.0111 25.6715 42.104 25.6656 41.1989C25.6597 40.4125 25.6656 39.6261 25.6656 38.8377C25.6656 38.7657 25.6656 38.6917 25.6656 38.5808H25.6617Z" fill="#FFEB61"/>
<path d="M38.3005 8.38783C37.8243 8.38783 37.5167 8.10558 37.5186 7.66566C37.5186 7.21795 37.8263 6.92208 38.2848 6.92402C38.7453 6.92597 39.1313 7.28024 39.1254 7.69097C39.1195 8.13089 38.8158 8.38783 38.3005 8.38783Z" fill="#FFEB61"/>
</g>
<defs>
<clipPath id="clip0_298_1125">
<rect width="45" height="48" fill="white"/>
</clipPath>
</defs>
</svg>
