<svg width="44" height="36" viewBox="0 0 44 36" fill="none" xmlns="http://www.w3.org/2000/svg">
<g clip-path="url(#clip0_298_1123)">
<path d="M16.2964 26.7745C15.488 26.7745 14.678 26.781 13.8696 26.7713C13.5225 26.7664 13.2316 26.8815 12.9953 27.1262C12.0728 28.079 11.1552 29.0367 10.2359 29.9911C9.58822 30.6636 8.93733 31.3345 8.29126 32.007C7.15824 33.1866 6.02521 34.3663 4.89219 35.546C4.61576 35.8328 4.2863 35.9998 3.88291 35.9998C2.7547 35.9998 1.6265 35.9998 0.496685 35.9949C0.106152 35.9949 -0.0625963 35.7713 0.0241887 35.3824C0.0788311 35.1344 0.196152 34.9173 0.371329 34.7326C1.32275 33.723 2.27096 32.7119 3.22398 31.7039C4.61737 30.2309 6.01235 28.7596 7.40574 27.2866C8.50341 26.1263 9.59786 24.9645 10.6955 23.8042C12.2753 22.1335 13.8535 20.4628 15.4333 18.7938C16.6258 17.5331 17.8167 16.2707 19.0156 15.0181C20.266 13.7137 21.5276 12.4205 22.7811 11.1177C23.6281 10.2378 24.4751 9.35788 25.3092 8.46663C26.2043 7.51056 26.9259 6.42161 27.6283 5.32133C28.2084 4.41225 28.75 3.48049 29.3398 2.57952C29.8959 1.7304 30.603 1.03036 31.5095 0.557192C32.3612 0.111567 33.2693 -0.048858 34.2223 0.0110988C35.0532 0.0629533 35.8359 0.268751 36.5446 0.720858C36.9625 0.986612 37.3257 1.31718 37.6278 1.71095C37.9926 2.18737 38.4619 2.45798 39.0485 2.60058C39.8473 2.79342 40.6348 3.04135 41.4126 3.3071C42.1471 3.55827 42.679 4.0914 43.1226 4.7169C43.346 5.03289 43.5613 5.35373 43.7767 5.67458C43.8313 5.75723 43.8795 5.84473 43.9197 5.93548C44.1094 6.35518 43.9631 6.62255 43.5035 6.65172C42.9281 6.69061 42.3496 6.7133 41.7726 6.71816C41.1619 6.72302 40.5512 6.70519 39.9421 6.68413C38.9457 6.65172 38.0714 6.98067 37.3112 7.61103C36.3341 8.42125 35.7539 9.46645 35.6077 10.7336C35.5562 11.1825 35.5803 11.6427 35.5916 12.0964C35.6301 13.5889 35.3457 15.0246 34.8893 16.436C34.3091 18.2299 33.4316 19.8714 32.4271 21.4513C31.5191 22.8789 30.6609 24.3325 29.9248 25.8606C29.4909 26.7615 29.0056 27.6366 28.5684 28.5359C28.1731 29.3527 27.9834 30.2277 27.9593 31.1352C27.9497 31.5111 27.9529 31.8887 27.9882 32.263C28.0316 32.7216 28.3032 33.0376 28.689 33.2693C29.5472 33.7862 30.4022 34.3096 31.2588 34.8298C31.4693 34.9578 31.6509 35.1117 31.7763 35.3305C31.8566 35.4715 31.847 35.5865 31.7296 35.7032C31.5127 35.9204 31.2523 36.0046 30.9502 35.9965C30.648 35.9868 30.3459 35.9836 30.0422 35.9836C28.5282 35.9836 27.0143 35.9803 25.5004 35.9836C23.6185 35.9868 21.7349 35.9949 19.853 35.9981C19.7276 35.9981 19.599 35.9868 19.4769 35.9576C19.0703 35.8604 18.9369 35.5476 19.1587 35.1912C19.3226 34.9286 19.5042 34.6775 19.689 34.4295C19.8514 34.214 20.0233 34.0017 20.2049 33.8024C20.671 33.2936 20.8799 32.6794 20.9908 32.0086C21.1981 30.7543 20.8735 29.6168 20.2965 28.5262C20.0763 28.1114 19.8385 27.7063 19.6264 27.2866C19.4544 26.9463 19.1683 26.8166 18.8196 26.8134C17.9774 26.8053 17.1353 26.8102 16.2932 26.8102C16.2932 26.7988 16.2932 26.7875 16.2932 26.7761L16.2964 26.7745ZM9.77786 26.2268C9.7875 26.2414 9.79714 26.256 9.80518 26.2705C9.96268 26.2495 10.125 26.2446 10.2777 26.2057C10.4786 26.1539 10.673 26.0761 10.8691 26.0064C12.4457 25.4425 14.0287 24.898 15.5587 24.2093C18.3471 22.9519 21.0454 21.5307 23.5397 19.7385C25.3429 18.4438 27.0031 16.9854 28.4768 15.3163C28.652 15.117 28.8272 14.9177 29.02 14.7362C29.1968 14.5693 29.3832 14.5612 29.5632 14.673C29.8734 14.8674 29.9104 15.1251 29.6516 15.4216C28.7034 16.5106 27.6893 17.5347 26.6045 18.4859C25.0906 19.8163 23.4561 20.9733 21.7365 22.0152C19.7372 23.2257 17.6608 24.2823 15.533 25.2416C15.2871 25.3534 15.0525 25.4927 14.7873 25.6321C14.8387 25.6532 14.858 25.6677 14.8773 25.6694C15.5346 25.7261 16.1903 25.8055 16.8492 25.8298C17.746 25.8638 18.6428 25.859 19.5396 25.8687C19.763 25.8719 19.9301 25.9675 20.0426 26.1604C20.3913 26.7632 20.7626 27.353 21.0824 27.972C21.8201 29.398 22.0547 30.9245 21.8763 32.5158C21.8104 33.0975 21.6095 33.6209 21.174 34.0341C21.0471 34.1557 20.9249 34.2869 20.8221 34.4279C20.6887 34.6126 20.6421 34.8233 20.6967 35.0599C22.2251 35.0599 23.7422 35.0631 25.277 34.9367C25.1356 34.7018 24.9652 34.5349 24.7402 34.4295C24.5361 34.3339 24.324 34.2561 24.1215 34.1589C23.7358 33.9758 23.342 33.8008 22.9724 33.5885C22.7169 33.4427 22.5915 33.2029 22.6028 32.8788C22.6172 32.4477 22.5867 32.0134 22.5706 31.5824C22.5353 30.6361 22.5642 29.6897 22.8728 28.7887C23.2311 27.7387 23.6394 26.7048 24.0395 25.6694C24.0926 25.5332 24.2243 25.4263 24.3336 25.3193C24.3658 25.2869 24.4493 25.2772 24.4976 25.2934C24.7226 25.3744 24.9074 25.5089 24.9909 25.7471C25.2802 26.5703 25.5808 27.3903 25.8524 28.22C26.1995 29.2814 26.4583 30.3703 26.4149 31.4933C26.3827 32.3213 26.2477 33.1445 26.1658 33.9709C26.1593 34.0341 26.1818 34.1362 26.2252 34.1622C26.6286 34.3971 27.024 34.6548 27.4499 34.8395C28.1281 35.1344 28.8288 35.1053 29.5488 34.8525C29.4813 34.8055 29.4331 34.7682 29.3832 34.7374C28.8818 34.4279 28.382 34.1168 27.879 33.8105C27.2634 33.4362 26.9597 32.8901 26.9934 32.1658C27.024 31.5176 27.077 30.871 27.0947 30.2245C27.1075 29.761 27.2088 29.3316 27.4193 28.9184C27.6411 28.4857 27.8324 28.0385 28.0349 27.5961C28.6407 26.2754 29.2032 24.9304 29.9473 23.6811C30.5002 22.7509 31.1189 21.8597 31.7071 20.9506C32.8386 19.207 33.7482 17.3613 34.2577 15.3309C34.6096 13.9292 34.7944 12.5113 34.5694 11.0691C34.3814 9.86508 33.8109 8.87012 32.8225 8.1636C31.3166 7.08762 29.6902 6.98391 28.0027 7.67909C27.0625 8.06637 26.312 8.72752 25.6161 9.45186C24.7772 10.3237 23.9495 11.2068 23.1154 12.0819C21.4762 13.8028 19.8353 15.5205 18.1976 17.2414C17.1192 18.3741 16.0441 19.51 14.9705 20.646C13.5739 22.1238 12.1789 23.6033 10.7887 25.086C10.4432 25.4555 10.117 25.8444 9.78268 26.2252L9.77786 26.2268ZM34.9986 9.22338C35.0452 9.12777 35.0757 9.06944 35.1046 9.00948C35.6575 7.89461 36.4128 6.96771 37.488 6.32115C37.7741 6.14938 37.9283 5.85608 37.9332 5.52874C37.9396 5.09932 37.9235 4.66342 37.8641 4.23886C37.7596 3.51452 37.4864 2.85013 36.9978 2.29594C35.643 0.759749 33.2532 0.459965 31.5416 1.59266C30.9132 2.0075 30.4504 2.57142 30.0518 3.19367C29.3398 4.3053 28.6472 5.4299 27.9481 6.54963C27.9416 6.55935 27.9449 6.57556 27.94 6.60959C30.8939 5.80908 33.2387 6.68413 34.9986 9.22176V9.22338ZM11.8382 26.7778C11.7562 26.7956 11.6936 26.8085 11.6293 26.8231C10.837 27.003 10.0495 27.2039 9.25233 27.353C8.7734 27.4438 8.36198 27.622 8.0277 27.9769C7.67895 28.3464 7.33342 28.7207 6.98467 29.0901C5.7745 30.3719 4.56594 31.6553 3.35255 32.9339C2.80452 33.5107 2.25167 34.0828 1.69239 34.6499C1.58632 34.7569 1.58632 34.8541 1.63614 34.9756C1.68918 35.102 1.79525 35.0421 1.88042 35.0437C2.23239 35.0518 2.58274 35.0567 2.9347 35.0583C3.13238 35.0583 3.33327 35.0729 3.52612 35.0453C3.99862 34.9789 4.37469 34.7228 4.69933 34.3874C5.81146 33.2401 6.91556 32.088 8.0293 30.9423C9.14947 29.7886 10.2745 28.6397 11.4011 27.4908C11.5971 27.2914 11.7627 27.0775 11.8366 26.781L11.8382 26.7778ZM24.504 27.3692C24.361 27.6415 24.2211 27.8797 24.1054 28.1292C23.4208 29.6087 23.3324 31.1692 23.5027 32.7621C23.5076 32.8058 23.5654 32.8593 23.6104 32.8788C23.8724 32.9922 24.1376 33.0975 24.4027 33.2045C24.7049 33.3276 25.007 33.4524 25.3333 33.5853C25.547 31.4398 25.6113 29.3462 24.504 27.3692ZM42.5296 5.76047C42.3078 5.17873 42.0008 4.725 41.5331 4.39119C40.7296 3.81917 39.7765 3.74624 38.8444 3.55017V5.75885H42.5296V5.76047Z" fill="#FFEB61"/>
</g>
<defs>
<clipPath id="clip0_298_1123">
<rect width="44" height="36" fill="white"/>
</clipPath>
</defs>
</svg>
