<svg width="37" height="42" viewBox="0 0 37 42" fill="none" xmlns="http://www.w3.org/2000/svg">
<g clip-path="url(#clip0_298_1115)">
<path d="M36.9998 7.75193C36.8155 8.21229 36.663 8.68846 36.4361 9.12598C36.1472 9.6865 35.7147 10.1205 35.0731 10.2945C34.7079 10.3929 34.3357 10.3911 33.9741 10.305C33.008 10.0748 32.0314 10.0449 31.0458 10.0924C29.938 10.1451 28.8302 10.2242 27.7206 10.2365C26.0969 10.254 24.53 9.95885 23.0481 9.26128C22.8549 9.16991 22.6156 9.16464 22.3941 9.14179C20.9831 8.9942 19.6821 8.49518 18.3934 7.94872C17.4363 7.54283 16.4862 7.1141 15.506 6.77498C14.1482 6.30408 12.7479 6.19338 11.3405 6.57818C9.708 7.02449 8.52749 8.04712 7.69617 9.48092C6.97829 10.7179 6.56706 12.0568 6.50502 13.4853C6.38095 16.2791 7.30267 18.6952 9.24892 20.7123C10.2114 21.7103 11.3423 22.4589 12.7337 22.7576C13.7228 22.9702 14.7083 22.9157 15.6939 22.7312C16.7627 22.5309 17.7447 22.0916 18.7426 21.6875C19.6998 21.2992 20.6534 20.8863 21.6425 20.5963C23.4753 20.0587 25.3134 20.1922 27.0789 20.8898C30.4308 22.2164 32.6252 24.599 33.4565 28.1062C34.2063 31.269 33.6692 34.2332 31.7939 36.9181C30.4325 38.8684 28.5678 40.1828 26.3397 41.0121C25.1681 41.4479 23.9645 41.7659 22.7202 41.91C20.2014 42.1999 17.7837 41.8116 15.5042 40.7187C11.4823 38.7894 8.53636 35.8181 6.76204 31.7293C6.13102 30.2762 5.57267 28.795 5.23766 27.2505C4.98241 26.0662 4.45951 25.0365 3.74163 24.0824C2.55403 22.5028 1.56318 20.8177 0.889617 18.957C0.38267 17.5601 0.083111 16.1263 0.0139819 14.645C-0.0888254 12.417 0.347219 10.2874 1.18031 8.22635C1.90174 6.44113 2.90499 4.83865 4.29998 3.49096C5.93427 1.91132 7.8876 0.892203 10.0714 0.278974C11.7606 -0.195443 13.4179 -0.0320328 15.0575 0.507397C16.238 0.895717 17.353 1.44218 18.4714 1.97458C19.6342 2.52631 20.7935 3.08858 21.9527 3.65085C22.0555 3.70005 22.1229 3.69654 22.2062 3.61747C22.5447 3.29943 22.8709 2.96383 23.2325 2.6739C24.3829 1.74967 25.7052 1.32445 27.1852 1.40528C28.2027 1.4615 29.1333 1.80238 30.0302 2.2645C30.9803 2.75297 31.8222 3.38202 32.6234 4.07958C33.3572 4.71741 34.1956 5.19534 35.0855 5.59596C35.5392 5.79979 35.9629 6.07917 36.3706 6.36733C36.7268 6.6186 36.9023 7.01043 36.9998 7.42862V7.75368V7.75193ZM21.4759 7.94697C21.4812 7.91534 21.4901 7.8925 21.4901 7.86965C21.4901 6.77498 21.4918 5.67855 21.4865 4.58387C21.4865 4.53116 21.4316 4.4556 21.3802 4.42749C21.2277 4.34315 21.0629 4.27814 20.9034 4.2061C19.0723 3.38202 17.2448 2.55442 15.412 1.73737C13.9532 1.08724 12.4271 0.850032 10.8513 1.15225C8.5399 1.5968 6.57947 2.71256 4.91328 4.34315C3.88875 5.3447 3.10706 6.52196 2.48136 7.80464C1.22108 10.3876 0.765539 13.0953 1.19627 15.9365C1.46569 17.7147 2.03468 19.4015 2.86245 20.9987C4.17059 23.5237 6.04771 25.5233 8.54876 26.9219C9.54316 27.4771 10.6102 27.818 11.7588 27.8672C12.8401 27.9129 13.8646 27.6792 14.8431 27.2329C16.0041 26.704 17.1562 26.1593 18.3243 25.6462C19.6821 25.0488 21.1019 24.787 22.5802 25.0278C24.335 25.3124 25.8505 26.1013 27.0718 27.37C28.4243 28.7756 28.8568 30.4519 28.208 32.3127C27.6479 33.9152 26.4762 34.98 24.9058 35.5879C23.0464 36.3083 21.1285 36.3329 19.207 35.8638C17.2307 35.3806 15.5804 34.3193 14.1057 32.9611C13.8008 32.6799 13.5048 32.3847 13.1946 32.086C12.4306 33.4285 11.2058 34.2033 9.85512 34.8289C10.2415 35.4825 10.6829 36.0536 11.2023 36.5649C12.6026 37.9424 14.2085 39.0301 15.9987 39.8436C17.7305 40.6291 19.5474 41.0314 21.4599 40.991C22.9294 40.9611 24.3439 40.6677 25.7229 40.181C27.5344 39.5414 29.1191 38.5504 30.3581 37.0815C32.6748 34.3369 33.2739 31.1987 32.3416 27.7829C31.7602 25.6585 30.4343 24.0209 28.6157 22.7804C27.1817 21.8017 25.59 21.2763 23.8422 21.2693C22.6617 21.264 21.5238 21.4977 20.462 22.0038C19.2691 22.5713 18.0531 23.0668 16.7875 23.4534C15.9225 23.717 15.054 23.9559 14.1394 23.9559C12.8808 23.9559 11.7127 23.6186 10.6226 23.0018C6.98893 20.9478 4.87606 16.562 5.56026 12.4715C5.91122 10.3718 6.83826 8.54965 8.40164 7.09126C10.4755 5.15669 12.8808 4.69106 15.545 5.72072C17.1172 6.32868 18.6717 6.98583 20.2351 7.61839C20.6322 7.77828 21.0345 7.92588 21.4759 7.94697ZM12.5051 29.1429C12.537 29.2079 12.5582 29.2518 12.5795 29.294C13.4126 30.9492 14.5984 32.3039 16.1388 33.3424C18.0726 34.6479 20.1943 35.3613 22.5607 35.161C23.9681 35.0415 25.2089 34.4968 26.2476 33.5409C27.008 32.8416 27.4547 31.9753 27.4901 30.9386C27.5327 29.6384 26.9779 28.5841 26.0349 27.7231C25.0742 26.8463 23.922 26.3262 22.6529 26.0715C21.5379 25.8466 20.4372 25.8817 19.3683 26.3245C17.7199 27.0062 16.0697 27.6827 14.4212 28.361C13.7902 28.621 13.1574 28.8776 12.5068 29.1429H12.5051ZM35.8388 7.72557C35.8211 7.34779 35.6544 7.07544 35.3602 6.88392C35.1528 6.74862 34.9259 6.64495 34.7185 6.5079C33.2385 5.53447 31.7566 4.56279 30.2837 3.57881C29.3708 2.97085 28.4118 2.49117 27.2898 2.43318C25.4251 2.33478 23.9468 3.04289 22.8797 4.55927C22.4083 5.22873 22.1885 5.97901 22.4153 6.79606C22.683 7.76774 23.3566 8.38097 24.2818 8.71658C25.3879 9.1172 26.54 9.34386 27.717 9.31926C28.7876 9.29642 29.8565 9.18045 30.9271 9.11192C32.1111 9.03813 33.2899 9.05043 34.4544 9.3175C34.6069 9.35265 34.7859 9.34386 34.9348 9.29642C35.2237 9.20329 35.284 8.87296 35.0713 8.66562C34.9809 8.57601 34.8905 8.48815 34.8019 8.39678C34.3694 7.95224 34.3658 7.78707 34.77 7.31265C34.777 7.30387 34.7894 7.30035 34.8054 7.29157C35.1422 7.43213 35.4807 7.5727 35.8406 7.72381L35.8388 7.72557ZM11.2891 29.3274C10.0572 29.9582 8.84655 30.5784 7.62881 31.2004C8.07904 32.0632 8.51686 32.9066 8.96176 33.7447C8.98126 33.7834 9.06812 33.815 9.11598 33.8062C10.6404 33.5093 11.7163 32.6167 12.4749 31.3076C12.4962 31.2707 12.498 31.1987 12.4749 31.1653C12.0868 30.5573 11.6915 29.9529 11.2873 29.3274H11.2891ZM10.0501 28.7317C8.72956 28.1501 7.47815 27.4842 6.326 26.6882C6.13811 26.7638 6.10266 26.8569 6.17001 27.0238C6.27459 27.2856 6.34727 27.558 6.43589 27.8268C6.64505 28.4717 6.85421 29.1165 7.06869 29.7596C7.08819 29.8176 7.16086 29.9019 7.20695 29.9002C8.29706 29.8809 9.23119 29.4767 10.0519 28.7317H10.0501Z" fill="#FFEB61"/>
<path d="M29.5465 7.03898C28.6478 7.04249 28.0912 6.60146 27.8147 5.67019C27.68 5.21686 27.6481 4.75123 27.6658 4.28208C27.6676 4.23464 27.703 4.15909 27.742 4.14503C28.2685 3.93769 28.8038 3.77779 29.3834 3.84281C29.9382 3.90606 30.337 4.19598 30.6206 4.6581C30.9131 5.13252 31.046 5.66141 31.1293 6.20435C31.1932 6.62606 31.1843 6.62781 30.7819 6.77892C30.3831 6.92828 29.9772 7.04073 29.5465 7.04073V7.03898ZM28.763 4.96911C28.8233 5.252 28.8569 5.46988 28.9172 5.68249C28.9704 5.87753 29.0927 5.96187 29.2965 5.94254C29.5181 5.92322 29.7379 5.87753 29.9825 5.83887C29.8939 5.60869 29.8354 5.38906 29.7255 5.20105C29.6652 5.09738 29.5252 5.00074 29.4064 4.97789C29.215 4.941 29.0129 4.96735 28.763 4.96735V4.96911Z" fill="#FFEB61"/>
</g>
<defs>
<clipPath id="clip0_298_1115">
<rect width="37" height="42" fill="white"/>
</clipPath>
</defs>
</svg>
