<svg width="38" height="31" viewBox="0 0 38 31" fill="none" xmlns="http://www.w3.org/2000/svg">
<g clip-path="url(#clip0_298_1113)">
<path d="M11.6428 30.9999C11.4531 30.9801 11.2624 30.9623 11.0727 30.9415C10.1906 30.8425 9.35748 30.586 8.56103 30.2126C6.64283 29.3144 5.10296 27.9863 3.87617 26.3067C2.85129 24.9033 2.10278 23.3643 1.5164 21.7471C1.05037 20.4616 0.699561 19.1454 0.469091 17.8005C0.326323 16.9657 0.214147 16.1258 0.0958526 15.287C0.0520022 14.9721 0.0285473 14.6542 0.00203304 14.3363C-0.0224416 14.0451 0.147861 13.8589 0.447676 13.8312C0.603702 13.8173 0.721996 13.8768 0.805618 13.9976C0.911675 14.1521 1.00142 14.3185 1.11257 14.47C1.61838 15.1603 2.11603 15.8565 2.64122 16.5329C3.47846 17.6104 4.60021 18.2561 5.96366 18.5047C6.15436 18.5393 6.35219 18.5324 6.56737 18.5473C6.54493 18.4948 6.52963 18.4591 6.51434 18.4245C6.21452 17.7471 5.89125 17.0786 5.62203 16.3903C5.27531 15.5059 5.06829 14.5829 4.93164 13.646C4.80723 12.7884 4.75624 11.9268 4.76542 11.0612C4.76746 10.8324 4.86026 10.6413 5.01424 10.4739C5.07951 10.4026 5.15905 10.3719 5.24879 10.4125C5.39564 10.4799 5.55982 10.5323 5.67812 10.6343C6.73461 11.5484 7.96344 12.1387 9.32077 12.4942C10.0723 12.6913 10.8372 12.83 11.6112 12.9013C12.4586 12.9795 13.3071 13.0449 14.1566 13.1053C15.0682 13.1706 15.9809 13.2211 16.8926 13.2865C17.5779 13.335 18.2632 13.3885 18.9475 13.4559C20.1029 13.5697 21.2512 13.7371 22.3872 13.9718C22.741 14.0451 23.097 14.1125 23.4498 14.1828C23.5355 14.0382 23.5344 14.0392 23.4212 13.9362C22.7635 13.342 22.1241 12.7319 21.6244 11.9971C20.935 10.982 20.4751 9.88069 20.2803 8.6784C20.0182 7.05521 20.2314 5.4964 20.986 4.02176C21.7101 2.60655 22.8196 1.55282 24.2585 0.821937C25.0386 0.425796 25.8656 0.167314 26.7376 0.0613468C28.0133 -0.0941385 29.2503 0.0405495 30.422 0.584253C31.141 0.918001 31.7273 1.41021 32.2158 2.01927C33.5731 3.71377 34.9345 5.40529 36.2929 7.09879C36.7283 7.6415 37.1658 8.18322 37.5921 8.73386C37.8633 9.08444 38.0061 9.48158 37.999 9.92723C37.9867 10.6997 37.3167 11.4108 36.5274 11.4979C36.0237 11.5534 35.5831 11.4157 35.1834 11.1285C34.1197 10.363 33.0581 9.59646 31.9966 8.82992C31.5662 8.51895 31.0818 8.34861 30.5495 8.29612C29.7265 8.21492 28.9087 8.09409 28.1245 7.8267C27.0945 7.47413 26.4082 6.78089 26.0492 5.77964C25.9921 5.62019 25.9268 5.46372 25.8605 5.29536C25.5199 5.49343 25.2354 5.72715 25.0141 6.0302C24.5919 6.60955 24.5246 7.25031 24.6939 7.92177C24.906 8.76357 25.3354 9.4786 26.0094 10.058C26.9884 10.8998 27.9898 11.7128 29.08 12.415C29.7898 12.8716 30.5148 13.3063 31.2154 13.7757C32.0924 14.363 32.9378 14.9929 33.7118 15.7089C34.7306 16.6507 35.5515 17.7263 36.0604 19.0098C36.4581 20.012 36.6192 21.0499 36.5437 22.1195C36.4275 23.7674 35.8238 25.249 34.8499 26.5899C33.4956 28.4547 31.6804 29.7234 29.4685 30.4681C28.8913 30.6622 28.305 30.8227 27.7033 30.9257C27.4942 30.9613 27.2801 30.9782 27.068 30.9782C25.1355 30.9811 23.203 30.9801 21.2705 30.9782C19.3554 30.9782 17.4402 30.9742 15.5251 30.9752C14.6654 30.9752 13.8058 30.9821 12.9471 30.9861C12.9175 30.9861 12.888 30.995 12.8574 30.9999H11.6408H11.6428ZM1.07586 16.1377C1.07586 16.1773 1.07382 16.1902 1.07586 16.2021C1.12481 16.5101 1.16968 16.8181 1.22373 17.1251C1.4542 18.4264 1.75605 19.7119 2.18028 20.9677C2.72892 22.5909 3.45296 24.1328 4.43501 25.553C5.66792 27.3366 7.26999 28.7033 9.29731 29.5897C10.0601 29.9234 10.8515 30.1066 11.6897 30.0859C11.9661 30.0789 12.2414 30.0829 12.5178 30.0839C16.0503 30.0839 19.5838 30.0839 23.1163 30.0859C23.1439 30.0859 23.1724 30.0859 23.1999 30.0859C24.4747 30.0789 25.7504 30.0789 27.0251 30.0621C27.5493 30.0551 28.0357 29.9007 28.4569 29.5877C29.1157 29.0975 29.7153 28.5439 30.2854 27.9606C30.9431 27.2871 31.4877 26.5344 31.8987 25.6946C32.2913 24.8924 32.5289 24.0497 32.639 23.1682C32.7155 22.5532 32.639 21.966 32.3769 21.4034C31.8099 20.1863 30.9972 19.1454 29.9611 18.269C28.6731 17.1796 27.2097 16.3754 25.6229 15.7782C23.6905 15.0513 21.6795 14.6364 19.6287 14.3907C18.7976 14.2917 17.9624 14.2244 17.1282 14.16C16.2134 14.0897 15.2967 14.0412 14.3809 13.9788C13.6365 13.9283 12.891 13.8768 12.1466 13.8173C11.3155 13.751 10.4915 13.6282 9.67769 13.4479C8.33464 13.1498 7.06706 12.6735 5.90757 11.9396C5.85556 11.9069 5.78316 11.905 5.69953 11.8832C5.69953 12.1159 5.69648 12.3179 5.69953 12.52C5.71075 13.2964 5.83415 14.057 6.0279 14.8087C6.3991 16.2467 7.03136 17.5757 7.84311 18.8265C8.74357 20.215 9.86431 21.4024 11.2777 22.3155C13.1347 23.5149 15.2039 24.0605 17.4096 24.1843C17.6146 24.1962 17.8227 24.2041 18.0215 24.2497C18.3529 24.326 18.4427 24.6142 18.2336 24.8697C18.2143 24.8934 18.1908 24.9152 18.1724 24.939C18.0725 25.0658 17.943 25.1133 17.7778 25.0965C17.5208 25.0707 17.2628 25.0578 17.0058 25.037C16.1604 24.9687 15.3262 24.834 14.5023 24.632C11.9702 24.009 9.88776 22.6889 8.18779 20.7815C7.88696 20.4438 7.6208 20.0764 7.33934 19.7218C7.16903 19.5079 6.9559 19.393 6.66832 19.3891C6.37259 19.3851 6.07481 19.3683 5.78214 19.3267C4.80111 19.187 3.9292 18.7978 3.14091 18.2204C2.46684 17.7263 1.90086 17.1281 1.37363 16.4923C1.28084 16.3804 1.18498 16.2694 1.07382 16.1397L1.07586 16.1377ZM30.4985 29.0123C30.4985 29.0123 30.5077 29.0222 30.5128 29.0272C30.6188 28.9945 30.7249 28.9628 30.8299 28.9281C30.8595 28.9182 30.8881 28.9054 30.9156 28.8905C31.659 28.4795 32.3504 27.9982 32.9674 27.4218C34.2645 26.2096 35.112 24.7479 35.5158 23.0454C35.7024 22.2581 35.734 21.4619 35.6066 20.6626C35.4648 19.7743 35.1303 18.9543 34.65 18.1888C33.8954 16.9855 32.896 16.0021 31.7273 15.183C30.9839 14.6611 30.213 14.1758 29.442 13.6926C28.0724 12.8339 26.7478 11.9208 25.5363 10.8592C24.9611 10.3541 24.492 9.7767 24.1779 9.08642C23.8597 8.38922 23.669 7.66725 23.7639 6.89577C23.874 6.00049 24.2881 5.26862 25.0264 4.71897C25.3609 4.4694 25.728 4.2743 26.1491 4.19904C26.3725 4.15843 26.5356 4.24162 26.6182 4.44762C26.6672 4.56943 26.6978 4.70016 26.7172 4.82989C26.8783 5.8658 27.4259 6.61847 28.4294 7.03144C29.1493 7.32756 29.9121 7.43749 30.6861 7.45333C31.2878 7.46621 31.8222 7.62467 32.3025 7.97723C33.4365 8.80814 34.5746 9.63508 35.7147 10.46C35.8034 10.5244 35.9166 10.5838 36.0237 10.5937C36.2868 10.6195 36.5458 10.5729 36.7854 10.4551C37.0771 10.3115 37.1995 10.0431 37.1281 9.73213C37.0761 9.50336 36.9455 9.31619 36.8007 9.13693C35.112 7.04432 33.4232 4.9517 31.7335 2.85909C31.4775 2.54218 31.2327 2.21338 30.9176 1.94599C30.1763 1.3181 29.2952 1.00911 28.3345 0.889281C27.5993 0.797178 26.8712 0.854619 26.1542 1.02991C24.7724 1.36762 23.5997 2.04502 22.6574 3.08885C22.1333 3.67019 21.7692 4.34165 21.4877 5.05866C20.9728 6.36791 20.8596 7.70389 21.2277 9.06563C21.5591 10.2907 22.2026 11.3573 23.0317 12.3229C23.7986 13.2162 24.7184 13.9411 25.7086 14.5878C26.5632 15.1464 27.4708 15.6198 28.3641 16.115C29.4461 16.7151 30.4455 17.4192 31.3082 18.2987C32.1047 19.1088 32.7339 20.0259 33.1785 21.0598C33.361 21.4837 33.5099 21.9174 33.5313 22.3799C33.564 23.092 33.4599 23.7922 33.2886 24.4834C32.9419 25.8808 32.2403 27.094 31.2644 28.1656C31.0074 28.4468 30.7534 28.731 30.4985 29.0133V29.0123Z" fill="#FFEB61"/>
</g>
<defs>
<clipPath id="clip0_298_1113">
<rect width="38" height="31" fill="white"/>
</clipPath>
</defs>
</svg>
