<svg width="960" height="412" viewBox="0 0 960 412" fill="none" xmlns="http://www.w3.org/2000/svg">
<g clip-path="url(#clip0_1751_6007)">
<path d="M1081.75 111.354C1084.43 78.5421 1075.52 44.8746 1059.62 15.5757C1058.96 14.3504 1058.28 13.1334 1057.59 11.9246C1056.05 9.20489 1054.44 6.5216 1052.77 3.8747C1050.74 0.616597 1048.62 -2.58892 1046.42 -5.74195C1044.63 -8.3327 1042.78 -10.8846 1040.88 -13.3975C1039.41 -15.3544 1037.91 -17.2822 1036.4 -19.181C1018.13 -42.1327 996.094 -62.2612 972.962 -80.5214C927.819 -116.148 876.771 -146.009 820.539 -158.674C764.313 -171.331 702.342 -165.336 654.204 -134.109C589.327 -92.0267 558.997 -8.5638 569.424 67.7134C576.358 118.459 599.838 167.298 637.05 202.925C673.941 238.241 724.381 259.905 775.581 260.09C811.248 290.781 863.198 300.107 909.422 289.767C934.088 284.248 957.172 273.726 978.217 259.844C987.857 253.471 997.055 246.465 1005.75 238.875C1006.64 238.107 1007.52 237.33 1008.39 236.545C1012.05 233.284 1015.63 229.929 1019.12 226.48C1024.12 221.534 1028.95 216.428 1033.59 211.161C1034.87 209.711 1036.14 208.252 1037.39 206.774C1038.23 205.781 1039.07 204.783 1039.91 203.775C1039.93 203.754 1039.94 203.731 1039.95 203.705C1053.03 187.856 1064.47 170.515 1072.11 151.653C1073.46 148.315 1074.69 144.941 1075.78 141.513L1075.78 141.505C1076.72 138.6 1077.56 135.661 1078.29 132.689C1080.02 125.682 1081.18 118.548 1081.75 111.354Z" fill="#0C0C0C"/>
<path opacity="0.3" d="M942.02 37.244L813.685 110.882L939.445 32.9794C939.717 32.6624 940.061 32.4145 940.45 32.2561C940.838 32.0977 941.259 32.0335 941.679 32.0687C942.098 32.104 942.503 32.2377 942.86 32.4588C943.217 32.6799 943.516 32.982 943.732 33.3401C943.948 33.6981 944.075 34.1018 944.103 34.5176C944.13 34.9335 944.057 35.3495 943.89 35.7311C943.723 36.1128 943.466 36.4491 943.14 36.7122C942.815 36.9753 942.431 37.1576 942.02 37.244Z" fill="#F0F0F0"/>
<path d="M675.941 40.4976C713.193 46.8468 738.295 81.8972 732.008 118.785C725.721 155.672 690.426 180.429 653.173 174.08C615.921 167.73 590.818 132.68 597.105 95.7923C603.392 58.9046 638.688 34.1484 675.941 40.4976Z" fill="#3F3D56"/>
<path d="M723.662 121.996C725.023 114.013 724.783 105.838 722.955 97.9366C721.127 90.0355 717.747 82.5634 713.009 75.9471C708.271 69.3307 702.266 63.6998 695.338 59.3757C688.411 55.0516 680.696 52.1191 672.634 50.7457C665.448 49.525 658.106 49.5542 650.938 50.832C639.728 52.8416 629.3 57.8614 620.789 65.3447C612.277 72.8281 606.009 82.4882 602.666 93.2734C599.322 104.059 599.033 115.555 601.828 126.512C604.624 137.469 610.397 147.466 618.52 155.414C626.642 163.363 636.803 168.958 647.895 171.591C658.988 174.224 670.587 173.794 681.43 170.348C692.273 166.902 701.944 160.571 709.39 152.046C716.837 143.52 721.773 133.126 723.662 121.996Z" fill="#111010"/>
<path d="M651.408 111.225C661.872 113.009 668.923 122.854 667.157 133.216C665.391 143.578 655.477 150.532 645.012 148.748C634.548 146.965 627.497 137.119 629.263 126.758C631.029 116.396 640.944 109.442 651.408 111.225Z" fill="#3F3D56"/>
<path d="M718.393 138.45C714.62 135.794 710.011 134.571 705.412 135.005C700.813 135.439 696.531 137.502 693.352 140.814C690.172 144.126 688.308 148.467 688.1 153.04C687.892 157.613 689.355 162.113 692.221 165.714C703.609 159.561 712.76 150.029 718.393 138.45Z" fill="#3F3D56"/>
<path d="M687.341 88.0039C691.108 88.6459 693.647 92.1903 693.011 95.9206C692.375 99.6508 688.806 102.154 685.039 101.512C681.272 100.87 678.733 97.3257 679.369 93.5955C680.005 89.8653 683.574 87.3618 687.341 88.0039Z" fill="#3F3D56"/>
<path d="M664.672 51.7052C664.772 51.1121 664.794 50.5083 664.736 49.9091C660.115 49.6983 655.486 50.0079 650.938 50.8319C651.016 52.5221 651.722 54.1262 652.921 55.3354C654.119 56.5446 655.725 57.2735 657.429 57.3819C659.133 57.4903 660.816 56.9705 662.153 55.9225C663.49 54.8746 664.387 53.3725 664.672 51.7052Z" fill="#3F3D56"/>
<path d="M614.016 106.397C614.599 102.97 613.846 99.4477 611.909 96.5423C609.971 93.6369 606.994 91.5659 603.581 90.7487C600.497 99.403 599.393 108.634 600.347 117.775C603.621 117.792 606.791 116.658 609.294 114.575C611.797 112.491 613.47 109.594 614.016 106.397Z" fill="#3F3D56"/>
<path d="M946.762 185.192C948.312 185.456 949.356 186.915 949.094 188.449C948.833 189.984 947.364 191.013 945.815 190.749C944.265 190.485 943.221 189.027 943.482 187.493C943.744 185.958 945.212 184.928 946.762 185.192Z" fill="#FFEB62"/>
<path d="M909.356 248.378C910.261 248.532 910.871 249.384 910.718 250.28C910.566 251.177 909.708 251.778 908.802 251.624C907.897 251.47 907.287 250.618 907.44 249.721C907.593 248.825 908.45 248.223 909.356 248.378Z" fill="#F0F0F0"/>
<path d="M945.734 91.1319C946.639 91.2862 947.249 92.1381 947.096 93.0346C946.944 93.9311 946.086 94.5328 945.18 94.3785C944.275 94.2242 943.665 93.3723 943.818 92.4758C943.97 91.5793 944.828 90.9776 945.734 91.1319Z" fill="#F0F0F0"/>
<path d="M736.803 39.7465C738.353 40.0106 739.397 41.4687 739.135 43.0032C738.874 44.5377 737.405 45.5676 735.856 45.3034C734.306 45.0393 733.262 43.5812 733.523 42.0467C733.785 40.5122 735.253 39.4824 736.803 39.7465Z" fill="#FFEB62"/>
<path d="M842.122 253.908C843.028 254.062 843.638 254.914 843.485 255.811C843.332 256.707 842.474 257.309 841.569 257.155C840.664 257 840.054 256.148 840.206 255.252C840.359 254.355 841.217 253.754 842.122 253.908Z" fill="#F0F0F0"/>
<path d="M722.661 218.102C723.567 218.256 724.177 219.108 724.024 220.005C723.871 220.901 723.013 221.503 722.108 221.349C721.203 221.194 720.593 220.343 720.745 219.446C720.898 218.55 721.756 217.948 722.661 218.102Z" fill="#F0F0F0"/>
<path d="M778.534 146.537C779.439 146.692 780.049 147.544 779.896 148.44C779.743 149.337 778.886 149.938 777.98 149.784C777.075 149.63 776.465 148.778 776.617 147.881C776.77 146.985 777.628 146.383 778.534 146.537Z" fill="#F0F0F0"/>
<path d="M839.057 44.3766C839.962 44.5309 840.572 45.3827 840.42 46.2793C840.267 47.1758 839.409 47.7775 838.504 47.6232C837.598 47.4688 836.988 46.617 837.141 45.7204C837.294 44.8239 838.152 44.2222 839.057 44.3766Z" fill="#F0F0F0"/>
<path d="M863.582 161.307C864.488 161.461 865.098 162.313 864.945 163.209C864.792 164.106 863.934 164.708 863.029 164.553C862.124 164.399 861.514 163.547 861.666 162.651C861.819 161.754 862.677 161.152 863.582 161.307Z" fill="#F0F0F0"/>
<path d="M951.354 120.52C953.15 120.826 954.359 122.515 954.056 124.292C953.753 126.07 952.052 127.263 950.257 126.957C948.462 126.651 947.252 124.962 947.555 123.184C947.858 121.407 949.559 120.214 951.354 120.52Z" fill="#FF6584"/>
<path d="M801.32 204.609C803.115 204.915 804.325 206.604 804.022 208.382C803.719 210.16 802.018 211.353 800.223 211.047C798.428 210.741 797.218 209.052 797.521 207.274C797.824 205.496 799.525 204.303 801.32 204.609Z" fill="#FF6584"/>
<path d="M1072.82 -41.022C1063.03 -42.6899 1052.24 -44.1518 1040.45 -45.4076C979.469 -51.8974 899.065 -52.0271 814.053 -45.774C729.041 -39.5208 649.576 -27.6305 590.299 -12.295C561.423 -4.82418 538.893 3.06614 523.336 11.1577C506.865 19.7236 498.843 28.2697 499.491 36.5575C500.754 52.7036 534.723 61.9786 562.998 66.916L563.391 64.6663C524.563 57.886 502.686 47.8432 501.79 36.3882C500.649 21.7987 533.124 4.86042 590.888 -10.0844C650.035 -25.3863 729.353 -37.2526 814.231 -43.4962C899.109 -49.7391 979.365 -49.6112 1040.22 -43.1361C1099.64 -36.8132 1134.38 -24.8183 1135.52 -10.2284C1136.47 1.88494 1114.26 15.7059 1072.98 28.6896L1073.68 30.867C1103.68 21.4328 1139.15 6.61593 1137.82 -10.3977C1137.17 -18.6855 1127.91 -25.9599 1110.3 -32.0187C1100.26 -35.4721 1087.71 -38.4833 1072.82 -41.022Z" fill="#FFEB62"/>
<path d="M1041.13 126.293C1083.19 133.463 1111.54 173.042 1104.44 214.696C1097.34 256.35 1057.48 284.305 1015.42 277.136C973.352 269.966 945.006 230.387 952.106 188.733C959.205 147.079 999.061 119.123 1041.13 126.293Z" fill="#1B1D1F"/>
<path d="M1015.23 278.261C999.938 275.655 985.757 268.619 974.478 258.041C963.199 247.463 955.328 233.819 951.861 218.835C948.394 203.851 949.486 188.199 955 173.858C960.514 159.518 970.201 147.134 982.836 138.271C995.472 129.408 1010.49 124.465 1025.99 124.068C1041.49 123.67 1056.77 127.835 1069.91 136.036C1083.05 144.237 1093.45 156.106 1099.8 170.142C1106.15 184.178 1108.16 199.75 1105.58 214.89C1103.9 224.958 1100.22 234.592 1094.77 243.236C1089.31 251.879 1082.18 259.362 1073.78 265.252C1065.38 271.143 1055.88 275.325 1045.83 277.558C1035.78 279.79 1025.38 280.029 1015.23 278.261ZM1040.94 127.419C1026.1 124.889 1010.85 126.774 997.118 132.835C983.387 138.896 971.793 148.86 963.8 161.468C955.808 174.076 951.776 188.761 952.214 203.666C952.653 218.572 957.543 233.028 966.265 245.207C974.987 257.386 987.15 266.74 1001.22 272.087C1015.28 277.435 1030.62 278.535 1045.29 275.248C1059.96 271.962 1073.3 264.436 1083.62 253.623C1093.95 242.811 1100.8 229.196 1103.3 214.502C1105.01 204.741 1104.74 194.737 1102.52 185.066C1100.31 175.394 1096.18 166.247 1090.38 158.152C1084.58 150.056 1077.23 143.173 1068.74 137.898C1060.26 132.624 1050.81 129.062 1040.94 127.419Z" fill="#2F2E41"/>
<path d="M964.51 172.258C964.161 172.199 963.803 172.261 963.496 172.433C963.188 172.605 962.951 172.878 962.823 173.204C958.771 183.822 957.232 195.226 958.324 206.542C959.416 217.857 963.109 228.783 969.121 238.48C969.338 238.821 969.683 239.063 970.08 239.154C970.477 239.244 970.893 239.175 971.237 238.962C971.582 238.749 971.827 238.409 971.918 238.016C972.009 237.624 971.94 237.211 971.725 236.868C965.964 227.576 962.424 217.106 961.378 206.262C960.332 195.419 961.806 184.49 965.689 174.315C965.771 174.104 965.805 173.878 965.788 173.652C965.771 173.427 965.704 173.208 965.591 173.011C965.478 172.814 965.323 172.644 965.136 172.514C964.949 172.384 964.735 172.296 964.51 172.258Z" fill="#2F2E41"/>
<path d="M714.764 -130.177C687.784 -134.776 662.546 -138.134 639.776 -140.112C610.014 -142.696 586.093 -142.772 568.68 -140.339C550.244 -137.763 539.78 -132.393 537.581 -124.381C533.296 -108.771 562.183 -88.7375 587.17 -74.6799L588.304 -76.6662C553.99 -95.9703 536.766 -112.7 539.806 -123.775C543.678 -137.88 580.045 -143.005 639.582 -137.836C700.545 -132.543 779.363 -117.303 861.516 -94.9206C943.67 -72.5406 1019.31 -45.7043 1074.49 -19.356C1128.38 6.3757 1157.07 29.2235 1153.2 43.3285C1149.98 55.0395 1124.35 60.6477 1081.02 59.1214L1080.95 61.4043C1112.43 62.5136 1150.91 60.3835 1155.42 43.9348C1157.62 35.9219 1151.36 25.9957 1136.8 14.4319C1123.06 3.50946 1102.43 -8.5507 1075.48 -21.4133C1020.18 -47.8202 944.405 -74.7072 862.121 -97.1237C810.503 -111.186 760.178 -122.437 714.764 -130.177Z" fill="#FFEB62"/>
<path d="M715.678 282.666C722.995 283.914 727.926 290.799 726.691 298.045C725.456 305.291 718.523 310.154 711.205 308.907C703.887 307.66 698.956 300.775 700.191 293.528C701.426 286.282 708.36 281.419 715.678 282.666Z" fill="#3F3D56"/>
<path d="M571.841 193.112C576.321 193.876 579.339 198.09 578.583 202.526C577.827 206.962 573.583 209.939 569.103 209.175C564.624 208.412 561.605 204.197 562.361 199.761C563.117 195.326 567.361 192.349 571.841 193.112Z" fill="#FF6584"/>
</g>
<defs>
<clipPath id="clip0_1751_6007">
<rect width="1090.6" height="577.136" fill="white" transform="matrix(0.985784 0.168015 0.168015 -0.985784 -72.0713 406.737)"/>
</clipPath>
</defs>
</svg>
