<svg width="331" height="221" viewBox="0 0 331 221" fill="none" xmlns="http://www.w3.org/2000/svg">
<g clip-path="url(#clip0_4196_12640)">
<path d="M230.439 191.783C221.035 191.783 211.915 189.947 203.326 186.324C195.032 182.827 187.582 177.818 181.185 171.441C174.787 165.062 169.765 157.634 166.258 149.363C162.627 140.799 160.783 131.705 160.783 122.328C160.783 112.951 162.625 103.856 166.258 95.2925C169.765 87.0219 174.789 79.5939 181.185 73.2149C187.582 66.8359 195.032 61.8285 203.326 58.3311C211.915 54.7102 221.035 52.8721 230.439 52.8721C239.843 52.8721 248.964 54.7083 257.553 58.3311C265.847 61.8285 273.296 66.8377 279.694 73.2149C286.091 79.5939 291.113 87.0219 294.621 95.2925C298.252 103.856 300.095 112.951 300.095 122.328C300.095 131.705 298.254 140.799 294.621 149.363C291.113 157.634 286.089 165.062 279.694 171.441C273.296 177.82 265.847 182.827 257.553 186.324C248.964 189.945 239.843 191.783 230.439 191.783ZM230.439 53.427C192.338 53.427 161.338 84.3357 161.338 122.33C161.338 160.323 192.336 191.232 230.439 191.232C268.543 191.232 299.539 160.323 299.539 122.33C299.539 84.3357 268.541 53.427 230.439 53.427Z" fill="#937E27"/>
<path d="M230.439 187.709C221.588 187.709 213 185.98 204.916 182.571C197.108 179.278 190.096 174.564 184.074 168.559C178.052 162.554 173.324 155.563 170.022 147.777C166.603 139.717 164.869 131.155 164.869 122.328C164.869 113.5 166.603 104.938 170.022 96.8781C173.324 89.0924 178.052 82.1012 184.074 76.0965C190.096 70.0917 197.108 65.3775 204.916 62.0848C213 58.6759 221.586 56.9465 230.439 56.9465C239.292 56.9465 247.878 58.6759 255.962 62.0848C263.77 65.3775 270.782 70.0917 276.804 76.0965C282.826 82.1012 287.554 89.0924 290.856 96.8781C294.275 104.938 296.009 113.5 296.009 122.328C296.009 131.155 294.275 139.717 290.856 147.777C287.554 155.563 282.826 162.554 276.804 168.559C270.782 174.564 263.77 179.278 255.962 182.571C247.878 185.98 239.292 187.709 230.439 187.709ZM230.439 57.1327C194.386 57.1327 165.056 86.3785 165.056 122.328C165.056 158.277 194.386 187.523 230.439 187.523C266.492 187.523 295.822 158.277 295.822 122.328C295.822 86.3785 266.492 57.1327 230.439 57.1327Z" fill="#937E27"/>
<path d="M38.8347 199.711C36.995 195.666 37.9842 191.055 40.7725 188.891C43.7068 186.614 47.3381 188.05 47.6617 188.185C47.0608 186.079 44.8106 177.351 48.9541 168.426C53.2955 159.075 62.5847 153.972 70.9143 154.313C73.9447 154.437 76.402 155.265 78.018 155.96C80.0593 153.649 82.1153 152.195 83.8312 151.255C94.9841 145.143 107.341 152.243 109.236 153.371C109.75 152.438 111.538 149.468 115.049 148.196C120.57 146.196 125.257 150.244 125.599 150.548C126.385 147.007 128.929 145.132 130.767 145.609C132.226 145.987 132.971 147.777 133.136 148.196C139.431 136.336 151.195 130.932 160.693 134.319C168.954 137.265 172.633 145.838 173.395 147.726C173.558 147.276 174.974 143.526 178.777 142.317C182.995 140.974 186.293 143.978 186.528 144.199C187.996 127.151 200.778 113.882 216.023 113.15C230.521 112.455 243.806 123.262 247.455 139.024C249.55 138.266 254.67 136.764 260.803 138.554C269.049 140.96 273.313 147.619 274.367 149.374C274.528 148.924 275.798 145.525 279.104 144.435C281.998 143.48 285.267 144.686 287.286 147.494C288.497 144.975 291.378 139.876 296.974 136.673C301.488 134.09 311.084 130.845 315.704 136.437C318.933 140.344 317.977 146.435 317.642 148.198C318.715 147.888 322.335 146.994 325.607 149.138C328.571 151.079 329.535 154.391 330.128 156.43C333.258 167.176 327.109 180.014 325.607 183.01C325.535 188.262 325.463 193.517 325.393 198.769C240.494 204.875 155.813 205.815 71.3488 201.592C60.5083 201.05 49.6715 200.423 38.8403 199.709L38.8347 199.711Z" fill="#222228"/>
<path opacity="0.72" d="M295.841 51.1907C304.049 51.1907 310.702 44.5559 310.702 36.3715C310.702 28.187 304.049 21.5522 295.841 21.5522C287.632 21.5522 280.979 28.187 280.979 36.3715C280.979 44.5559 287.632 51.1907 295.841 51.1907Z" fill="#3F3D56"/>
<path d="M102.177 192.514C100.733 193.08 98.536 193.719 95.8292 193.681C91.7577 193.622 88.6922 192.055 87.1538 191.114C85.8226 195.318 82.5665 198.382 78.6911 199.049C73.5954 199.927 70.001 196.217 69.5923 195.782C69.2836 196.625 68.2666 199.094 65.7835 200.683C65.238 201.031 61.6788 203.221 59.0126 201.616C56.3131 199.99 56.9343 195.922 53.9353 194.381C52.8592 193.828 51.7997 193.848 51.184 193.915C50.866 195.366 50.1135 197.698 48.222 199.516C44.4057 203.183 39.101 201.726 37.8548 201.383C35.1313 200.635 33.2084 199.114 32.1415 198.116C32.0491 198.332 30.875 200.976 28.3327 201.383C26.1084 201.741 23.7935 200.231 22.832 197.65C21.8243 198.345 20.4783 199.081 18.8123 199.518C13.7942 200.834 9.57491 198.481 8.23256 197.65C7.37094 197.761 6.452 197.844 5.4813 197.884C3.53064 197.963 1.75378 197.853 0.191406 197.65C0.407735 196.933 0.875524 195.72 1.88321 194.615C2.46379 193.979 3.9633 192.34 6.11549 192.515C8.67261 192.724 10.0224 195.321 10.1351 195.55C10.6769 195.17 11.6162 194.621 12.8864 194.383C14.397 194.101 15.6266 194.403 16.2719 194.617C15.9076 193.961 15.2734 192.586 15.425 190.884C15.7708 187.023 19.8163 185.384 20.0807 185.283C22.6083 184.308 24.8622 185.194 25.5814 185.517C25.0452 184.728 23.5328 182.283 23.8896 179.215C24.3999 174.807 28.5176 171.269 32.7757 171.514C36.2425 171.714 39.3544 174.398 40.6043 178.282C42.2998 174.673 45.5928 172.388 49.067 172.447C53.3769 172.521 57.2745 176.188 58.1657 181.315C58.8646 177.61 61.6566 175.786 63.4556 176.415C64.663 176.835 65.5154 178.391 65.7835 180.148C67.1147 179.09 68.7973 179.048 69.8031 179.914C71.1473 181.074 71.3489 183.913 69.5923 185.749C69.609 185.873 69.8586 187.49 71.0734 188.083C72.2549 188.66 73.8727 188.037 74.6696 186.45C74.762 186.214 76.4871 181.968 80.5937 181.315C83.6926 180.823 86.8303 182.586 88.4222 185.749C90.0068 182.678 91.1051 182.16 91.8077 182.248C92.7118 182.364 93.1186 183.507 94.7697 185.749C95.8273 187.185 96.811 188.279 97.521 189.016C98.6137 188.332 100.439 187.396 102.811 187.149C104.549 186.968 107.65 187.043 107.888 188.081C108.005 188.585 107.55 189.752 102.175 192.515L102.177 192.514Z" fill="#222228"/>
<path d="M258.849 135.364L236.545 134.037V117.643L258.427 119.577L258.849 135.364Z" fill="#353544"/>
<path d="M260.613 120.154L236.545 117.573V108.434L260.613 111.782V120.154Z" fill="#5B5B75"/>
<path d="M236.545 134.109H205.479V118.76L236.545 117.643V134.109Z" fill="#4D4C63"/>
<path d="M236.546 117.643L203.521 119.039V110.193L236.546 108.434V117.643Z" fill="#6A6A7F"/>
<path d="M237.012 133.884L269.639 135.678C269.818 136.07 270.003 136.461 270.221 136.817L270.293 142.942L236.381 141.262L236.357 134.938C236.585 134.597 236.801 134.243 237.012 133.884Z" fill="#353544"/>
<path d="M233.475 141.118L273.128 143.082C273.296 143.502 273.503 143.893 273.749 144.241L273.827 150.349L232.767 148.541L232.748 142.326C233.005 141.937 233.238 141.528 233.475 141.118Z" fill="#353544"/>
<path d="M230.604 148.447L277.302 150.504C277.309 150.53 277.315 150.556 277.326 150.582C277.483 150.98 277.668 151.356 277.869 151.717L277.951 157.77L229.763 155.912L229.75 149.708C230.081 149.345 230.345 148.898 230.604 148.447Z" fill="#353544"/>
<path d="M227.866 155.838L282.431 157.941C282.444 157.964 282.459 157.986 282.472 158.008C282.483 158.024 282.494 158.037 282.505 158.052C282.736 158.408 282.964 158.767 283.18 159.138L283.285 166.284L226.96 164.468L226.949 157.071C227.282 156.699 227.591 156.284 227.864 155.838H227.866Z" fill="#353544"/>
<path d="M225.259 164.413L287.756 166.428C287.987 166.809 288.231 167.176 288.487 167.53L288.616 175.57L224.357 173.946L224.35 165.679C224.669 165.276 224.976 164.857 225.261 164.413H225.259Z" fill="#353544"/>
<path d="M222.18 173.919C222.18 173.919 222.195 173.9 222.202 173.891L294.586 175.72C294.824 176.14 295.077 176.546 295.353 176.924C295.357 176.927 295.358 176.931 295.362 176.935L295.53 186.463L221.285 185.198V175.067C221.59 174.693 221.881 174.298 222.18 173.919Z" fill="#353544"/>
<path d="M219.263 185.124C219.367 184.982 219.477 184.811 219.563 184.625C219.568 184.617 219.572 184.608 219.577 184.599L300.385 186.007C300.66 186.466 300.932 186.929 301.239 187.348L301.427 197.289L218.627 196.564L218.632 185.965C218.849 185.694 219.056 185.408 219.263 185.122V185.124Z" fill="#353544"/>
<path d="M222.179 173.919C222.179 173.919 222.194 173.9 222.201 173.891L294.585 175.72C294.799 176.098 295.027 176.463 295.271 176.808L221.338 175.001C221.624 174.647 221.898 174.276 222.179 173.919Z" fill="#4D4C63"/>
<path d="M225.261 164.413L287.758 166.428C287.987 166.808 288.229 167.171 288.481 167.521L224.48 165.51C224.752 165.158 225.015 164.794 225.261 164.413Z" fill="#4D4C63"/>
<path d="M227.868 155.838L282.433 157.941C282.446 157.964 282.46 157.986 282.473 158.008C282.484 158.024 282.495 158.037 282.507 158.052C282.717 158.377 282.923 158.705 283.124 159.04L227.08 156.926C227.365 156.592 227.629 156.229 227.866 155.84L227.868 155.838Z" fill="#4D4C63"/>
<path d="M230.605 148.447L277.303 150.504C277.31 150.53 277.316 150.556 277.327 150.582C277.467 150.936 277.63 151.273 277.806 151.598L229.908 149.527C230.169 149.201 230.389 148.827 230.605 148.449V148.447Z" fill="#4D4C63"/>
<path d="M233.474 141.118L273.127 143.082C273.286 143.478 273.478 143.849 273.706 144.181L232.84 142.189C233.062 141.841 233.267 141.478 233.476 141.118H233.474Z" fill="#4D4C63"/>
<path d="M237.012 133.884L269.639 135.678C269.811 136.056 269.988 136.432 270.195 136.778L236.357 134.946V134.94C236.585 134.599 236.801 134.245 237.012 133.886V133.884Z" fill="#4D4C63"/>
<path d="M219.264 185.124C219.368 184.982 219.479 184.811 219.564 184.625C219.569 184.617 219.573 184.608 219.579 184.599L300.386 186.007C300.632 186.417 300.874 186.833 301.14 187.213L218.723 185.853C218.908 185.615 219.083 185.37 219.263 185.122L219.264 185.124Z" fill="#4D4C63"/>
<path d="M215.985 197.077C216.1 196.933 216.222 196.758 216.316 196.571C216.322 196.562 216.327 196.555 216.333 196.546L304.824 197.32C305.124 197.777 305.42 198.24 305.755 198.655L305.952 208.616H215.275L215.288 197.93C215.527 197.656 215.754 197.366 215.984 197.077H215.985Z" fill="#353544"/>
<path d="M215.986 197.077C216.101 196.933 216.223 196.758 216.317 196.571C216.323 196.562 216.328 196.555 216.334 196.546L304.825 197.32C305.091 197.729 305.356 198.144 305.646 198.524L215.391 197.818C215.594 197.576 215.788 197.327 215.986 197.077Z" fill="#4D4C63"/>
<path opacity="0.47" d="M319.583 116.373C318.797 116.349 317.841 116.259 316.776 116.023C315.859 115.82 315.062 115.554 314.395 115.287C313.376 112.721 313.071 108.215 313.121 107.04C313.084 108.237 312.945 109.69 312.587 111.31C312.244 112.855 311.782 114.177 311.329 115.252C310.715 115.486 310.004 115.711 309.197 115.888C308.132 116.122 307.176 116.214 306.391 116.238C307.097 116.209 309.639 116.373 311.359 116.911C311.803 117.973 312.25 119.269 312.585 120.781C312.943 122.402 313.082 123.854 313.119 125.051C313.071 123.93 313.346 119.774 314.258 117.167C315.959 116.531 318.825 116.34 319.581 116.373H319.583Z" fill="#FFEB62"/>
<path opacity="0.51" d="M271.781 101.006C271.272 100.989 270.655 100.932 269.965 100.779C269.372 100.648 268.856 100.477 268.425 100.304C267.767 98.6444 267.569 95.7296 267.6 94.97C267.576 95.7443 267.488 96.6827 267.255 97.7318C267.033 98.731 266.735 99.5865 266.441 100.282C266.044 100.433 265.583 100.578 265.062 100.693C264.374 100.844 263.755 100.903 263.246 100.919C263.703 100.901 265.348 101.006 266.46 101.355C266.746 102.042 267.036 102.879 267.253 103.858C267.486 104.905 267.575 105.846 267.599 106.62C267.567 105.895 267.746 103.207 268.334 101.52C269.435 101.109 271.287 100.986 271.777 101.006H271.781Z" fill="#808080"/>
<path opacity="0.51" d="M304.757 70.8218C304.328 70.8089 303.806 70.7592 303.226 70.6319C302.727 70.5213 302.29 70.3775 301.928 70.2319C301.373 68.8325 301.207 66.3768 301.233 65.7371C301.212 66.3897 301.137 67.1806 300.941 68.0637C300.754 68.9063 300.502 69.6272 300.255 70.2134C299.92 70.3406 299.532 70.4642 299.093 70.56C298.513 70.6873 297.991 70.737 297.562 70.7499C297.947 70.7333 299.334 70.8237 300.271 71.1168C300.513 71.6957 300.758 72.4018 300.941 73.226C301.137 74.1091 301.212 74.9018 301.233 75.5526C301.207 74.9424 301.357 72.6765 301.854 71.2551C302.782 70.9085 304.343 70.8034 304.757 70.8218Z" fill="#808080"/>
<path opacity="0.51" d="M157.026 114.332C156.597 114.319 156.076 114.269 155.495 114.142C154.996 114.031 154.56 113.888 154.197 113.742C153.643 112.343 153.476 109.887 153.502 109.247C153.482 109.9 153.406 110.691 153.21 111.574C153.023 112.416 152.772 113.137 152.524 113.723C152.189 113.851 151.801 113.974 151.363 114.07C150.782 114.197 150.261 114.247 149.832 114.26C150.217 114.243 151.603 114.334 152.541 114.627C152.783 115.206 153.027 115.912 153.21 116.736C153.406 117.619 153.482 118.412 153.502 119.063C153.476 118.452 153.626 116.187 154.123 114.765C155.052 114.418 156.612 114.313 157.026 114.332Z" fill="#808080"/>
<path opacity="0.51" d="M187.849 100.975C187.438 100.962 186.941 100.914 186.384 100.792C185.905 100.687 185.489 100.549 185.142 100.409C184.611 99.0702 184.45 96.7195 184.478 96.1074C184.459 96.7306 184.386 97.4902 184.199 98.3346C184.019 99.1402 183.779 99.8298 183.542 100.39C183.223 100.512 182.851 100.63 182.431 100.722C181.876 100.844 181.377 100.892 180.967 100.905C181.335 100.89 182.662 100.975 183.559 101.257C183.79 101.812 184.023 102.486 184.199 103.276C184.386 104.12 184.458 104.878 184.478 105.503C184.454 104.918 184.596 102.75 185.072 101.391C185.959 101.059 187.453 100.96 187.849 100.976V100.975Z" fill="#808080"/>
<path opacity="0.51" d="M8.02101 162.656C7.67526 162.645 7.25554 162.606 6.78775 162.503C6.38468 162.414 6.03337 162.296 5.74124 162.18C5.29379 161.052 5.15881 159.072 5.181 158.555C5.16436 159.081 5.10334 159.721 4.94618 160.432C4.79457 161.113 4.59303 161.693 4.39334 162.165C4.12339 162.269 3.81092 162.368 3.45592 162.446C2.98813 162.549 2.56841 162.589 2.22266 162.599C2.53328 162.586 3.65191 162.658 4.40628 162.895C4.60043 163.362 4.79827 163.931 4.94618 164.597C5.10334 165.309 5.16436 165.948 5.181 166.474C5.16066 165.982 5.28085 164.155 5.68207 163.008C6.4309 162.728 7.69005 162.645 8.02286 162.658L8.02101 162.656Z" fill="#808080"/>
<path opacity="0.51" d="M320.681 4.1021C320.335 4.09104 319.916 4.05232 319.448 3.94908C319.045 3.86058 318.694 3.74259 318.401 3.62644C317.954 2.49813 317.819 0.518052 317.841 0.00183105C317.825 0.52727 317.763 1.16702 317.606 1.87866C317.455 2.55897 317.253 3.13972 317.053 3.61169C316.784 3.71494 316.471 3.81449 316.116 3.89193C315.648 3.99517 315.229 4.03573 314.883 4.04495C315.193 4.03204 316.312 4.10394 317.066 4.34178C317.261 4.80822 317.458 5.3779 317.606 6.04346C317.763 6.75511 317.825 7.39485 317.841 7.92029C317.821 7.42804 317.941 5.60099 318.342 4.45424C319.091 4.174 320.35 4.09104 320.683 4.10395L320.681 4.1021Z" fill="#808080"/>
<path opacity="0.51" d="M20.4663 173.08C20.1206 173.069 19.7009 173.03 19.2331 172.927C18.83 172.838 18.4787 172.72 18.1866 172.604C17.7391 171.476 17.6041 169.496 17.6263 168.979C17.6097 169.505 17.5487 170.145 17.3915 170.856C17.2399 171.537 17.0383 172.117 16.8387 172.589C16.5687 172.693 16.2562 172.792 15.9012 172.87C15.4334 172.973 15.0137 173.013 14.668 173.023C14.9786 173.01 16.0972 173.082 16.8516 173.319C17.0457 173.786 17.2436 174.356 17.3915 175.021C17.5487 175.733 17.6097 176.373 17.6263 176.898C17.606 176.406 17.7262 174.579 18.1274 173.432C18.8762 173.152 20.1354 173.069 20.4682 173.082L20.4663 173.08Z" fill="#808080"/>
<path opacity="0.51" d="M79.3573 148.596C79.0837 148.587 78.7527 148.556 78.3829 148.474C78.0649 148.404 77.7876 148.312 77.5564 148.22C77.2033 147.33 77.0961 145.766 77.1145 145.359C77.1016 145.773 77.0535 146.279 76.9296 146.841C76.8113 147.377 76.6504 147.837 76.4933 148.209C76.2807 148.29 76.0329 148.367 75.7537 148.43C75.3839 148.511 75.0529 148.543 74.7793 148.552C75.0252 148.541 75.9072 148.598 76.5025 148.786C76.656 149.155 76.8113 149.605 76.9278 150.128C77.0517 150.69 77.0997 151.194 77.1127 151.61C77.0961 151.221 77.1922 149.78 77.5084 148.874C78.0982 148.653 79.0929 148.587 79.3555 148.598L79.3573 148.596Z" fill="#808080"/>
<path opacity="0.51" d="M53.7852 108.172C53.1306 108.152 52.3337 108.076 51.4462 107.881C50.6826 107.713 50.0188 107.492 49.4623 107.269C48.6136 105.132 48.3585 101.378 48.401 100.399C48.3696 101.397 48.2549 102.606 47.9554 103.956C47.6688 105.243 47.2861 106.343 46.9089 107.239C46.3986 107.433 45.8032 107.623 45.1339 107.77C44.2464 107.966 43.4513 108.041 42.7949 108.062C43.3829 108.036 45.5018 108.174 46.9329 108.622C47.3027 109.507 47.6743 110.587 47.9554 111.845C48.2549 113.194 48.3696 114.404 48.401 115.401C48.3622 114.468 48.5914 111.006 49.3495 108.834C50.7677 108.305 53.1528 108.145 53.7852 108.172Z" fill="#808080"/>
<path opacity="0.47" d="M26.7266 151.706C26.072 151.686 25.2751 151.61 24.3876 151.415C23.624 151.247 22.9602 151.026 22.4037 150.803C21.555 148.666 21.2999 144.912 21.3424 143.933C21.311 144.931 21.1963 146.14 20.8968 147.49C20.6102 148.777 20.2275 149.877 19.8503 150.773C19.34 150.967 18.7446 151.157 18.0753 151.304C17.1878 151.5 16.3927 151.575 15.7363 151.596C16.3243 151.57 18.4432 151.708 19.8743 152.156C20.2441 153.041 20.6157 154.121 20.8968 155.379C21.1963 156.728 21.311 157.938 21.3424 158.935C21.3036 158.002 21.5328 154.54 22.2909 152.368C23.7091 151.839 26.0942 151.679 26.7266 151.706Z" fill="#FFEB62"/>
<path d="M229.044 54.854H228.859V65.6615H229.044V54.854Z" fill="#8E7B1C"/>
<path d="M229.044 70.1453H228.859V91.3951H229.044V70.1453Z" fill="#8E7B1C"/>
<path d="M213.36 91.353L213.189 91.4237L216.078 98.3566L216.249 98.2858L213.36 91.353Z" fill="#8E7B1C"/>
<path d="M211.186 86.6146C209.84 82.9826 208.331 79.4335 207.033 76.4395L207.203 76.3657C208.501 79.3616 210.012 82.9125 211.36 86.55L211.186 86.6146Z" fill="#8E7B1C"/>
<path d="M224.941 102.772C223.615 98.1004 222.454 93.1908 221.332 88.4434C220.576 85.2502 219.795 81.9464 218.973 78.7476L219.152 78.7015C219.977 81.9021 220.757 85.2059 221.513 88.401C222.635 93.1465 223.797 98.0543 225.12 102.722L224.943 102.772H224.941Z" fill="#8E7B1C"/>
<path d="M217.879 74.3413C217.753 73.2222 217.393 72.1326 217.012 70.9785C216.596 69.7175 216.165 68.4122 216.074 67.0755L216.259 67.0626C216.348 68.3771 216.775 69.6695 217.189 70.9214C217.555 72.0331 217.936 73.1835 218.064 74.3211L217.881 74.3413H217.879Z" fill="#8E7B1C"/>
<path d="M247.609 90.7673L244.721 97.7002L244.891 97.7709L247.78 90.8381L247.609 90.7673Z" fill="#8E7B1C"/>
<path d="M249.783 86.0246L249.609 85.9601C250.957 82.3225 252.466 78.7717 253.766 75.7758L253.936 75.8495C252.638 78.8417 251.129 82.3908 249.783 86.0246Z" fill="#8E7B1C"/>
<path d="M236.029 102.182L235.852 102.132C237.175 97.4662 238.335 92.5602 239.457 87.8147C240.213 84.6178 240.995 81.314 241.818 78.1116L241.998 78.1577C241.173 81.3564 240.393 84.6621 239.636 87.8571C238.514 92.6026 237.353 97.5104 236.029 102.182Z" fill="#8E7B1C"/>
<path d="M243.093 73.7514L242.91 73.7311C243.038 72.5917 243.419 71.4431 243.785 70.3314C244.197 69.0814 244.624 67.7872 244.715 66.4727L244.9 66.4856C244.809 67.8222 244.378 69.1275 243.962 70.3886C243.581 71.5427 243.223 72.6323 243.095 73.7514H243.093Z" fill="#8E7B1C"/>
<path d="M309.31 133.098H299.879V133.283H309.31V133.098Z" fill="#8E7B1C"/>
<path d="M294.694 133.098H270.123V133.283H294.694V133.098Z" fill="#8E7B1C"/>
<path d="M270.099 119.549L263.641 121.566L263.696 121.742L270.154 119.725L270.099 119.549Z" fill="#8E7B1C"/>
<path d="M275.712 117.992L275.662 117.815C279.861 116.651 283.968 115.346 287.429 114.223L287.486 114.398C284.023 115.521 279.915 116.826 275.712 117.992Z" fill="#8E7B1C"/>
<path d="M264.129 128.53L264.098 128.349C265.913 128.028 267.76 127.717 269.548 127.414C274.552 126.57 279.723 125.696 284.754 124.549L284.795 124.728C279.76 125.877 274.585 126.751 269.58 127.595C267.792 127.898 265.945 128.209 264.131 128.528L264.129 128.53Z" fill="#8E7B1C"/>
<path d="M289.862 123.786L289.848 123.602C291.146 123.493 292.466 123.167 293.743 122.851C295.2 122.492 296.705 122.12 298.248 122.042L298.257 122.226C296.733 122.304 295.236 122.674 293.788 123.03C292.505 123.347 291.175 123.676 289.862 123.786Z" fill="#8E7B1C"/>
<path d="M288.111 154.813C285.766 154.053 283.845 153.443 282.064 152.897L282.118 152.72C283.899 153.266 285.82 153.876 288.166 154.636L288.109 154.811L288.111 154.813Z" fill="#8E7B1C"/>
<path d="M285.438 144.488C283.063 144.05 280.661 143.627 278.625 143.27L278.656 143.087C280.692 143.445 283.094 143.869 285.47 144.306L285.437 144.487L285.438 144.488Z" fill="#8E7B1C"/>
<path d="M298.929 146.994C297.387 146.915 295.88 146.544 294.423 146.185C293.145 145.869 291.825 145.543 290.527 145.434L290.542 145.25C291.855 145.36 293.182 145.689 294.467 146.006C295.915 146.363 297.413 146.732 298.938 146.811L298.929 146.996V146.994Z" fill="#8E7B1C"/>
<path d="M157.092 130.781H147.66V130.965H157.092V130.781Z" fill="#8E7B1C"/>
<path d="M186.846 130.781H162.275V130.965H186.846V130.781Z" fill="#8E7B1C"/>
<path d="M186.864 117.22L186.809 117.396L194.826 119.893L194.881 119.717L186.864 117.22Z" fill="#8E7B1C"/>
<path d="M181.259 115.674C177.052 114.509 172.946 113.204 169.484 112.081L169.542 111.906C173.001 113.028 177.106 114.332 181.309 115.497L181.259 115.674Z" fill="#8E7B1C"/>
<path d="M199.955 127.571C194.556 126.426 188.881 125.421 183.394 124.452C179.699 123.799 175.879 123.122 172.18 122.411L172.215 122.23C175.913 122.942 179.733 123.618 183.425 124.271C188.915 125.243 194.591 126.246 199.994 127.392L199.955 127.573V127.571Z" fill="#8E7B1C"/>
<path d="M167.107 121.467C165.794 121.356 164.467 121.028 163.182 120.711C161.734 120.353 160.236 119.984 158.713 119.905L158.722 119.721C160.264 119.8 161.771 120.171 163.226 120.53C164.504 120.845 165.824 121.172 167.122 121.281L167.107 121.465V121.467Z" fill="#8E7B1C"/>
<path d="M168.858 152.494L168.801 152.318C172.264 151.196 176.372 149.89 180.575 148.725L180.625 148.902C176.426 150.065 172.321 151.371 168.858 152.494Z" fill="#8E7B1C"/>
<path d="M171.531 142.169L171.496 141.988C175.19 141.277 178.953 140.611 182.272 140.025L182.303 140.206C178.984 140.792 175.224 141.457 171.531 142.169Z" fill="#8E7B1C"/>
<path d="M158.04 144.675L158.031 144.49C159.555 144.413 161.052 144.042 162.5 143.685C163.783 143.367 165.111 143.039 166.426 142.929L166.44 143.113C165.142 143.222 163.822 143.548 162.545 143.863C161.088 144.223 159.581 144.595 158.04 144.673V144.675Z" fill="#8E7B1C"/>
<path d="M236.799 133.828H192.835C192.592 134.227 192.345 134.625 192.049 134.984V141.363H237.667V134.938C237.365 134.579 237.08 134.206 236.799 133.828Z" fill="#4D4C63"/>
<path d="M241.469 141.364H188.13C187.903 141.793 187.622 142.191 187.289 142.542V148.899H242.423V142.623C242.087 142.217 241.78 141.789 241.469 141.364Z" fill="#4D4C63"/>
<path d="M245.231 148.898H182.461C182.451 148.924 182.442 148.952 182.429 148.978C182.218 149.385 181.967 149.769 181.693 150.137V156.433H246.342V150.206C245.912 149.826 245.568 149.367 245.231 148.898Z" fill="#4D4C63"/>
<path d="M248.794 156.433H175.44C175.422 156.456 175.403 156.478 175.385 156.5C175.37 156.516 175.353 156.529 175.339 156.544C175.022 156.907 174.712 157.272 174.414 157.65V165.084H249.978V157.702C249.549 157.317 249.149 156.891 248.794 156.433Z" fill="#4D4C63"/>
<path d="M252.165 165.084H168.141C167.825 165.475 167.488 165.849 167.137 166.208V174.571H253.336V166.371C252.925 165.958 252.531 165.534 252.165 165.084Z" fill="#4D4C63"/>
<path d="M256.114 174.599C256.105 174.59 256.093 174.58 256.084 174.571H158.697C158.368 175.003 158.019 175.419 157.636 175.806C157.632 175.81 157.627 175.814 157.623 175.817V185.733H257.255V175.755C256.864 175.379 256.495 174.98 256.112 174.597L256.114 174.599Z" fill="#4D4C63"/>
<path d="M259.817 185.696C259.686 185.554 259.545 185.384 259.438 185.202C259.432 185.194 259.425 185.185 259.419 185.178H150.693C150.312 185.652 149.935 186.131 149.506 186.559V196.898H260.612V186.533C260.338 186.264 260.078 185.982 259.815 185.696H259.817Z" fill="#4D4C63"/>
<path d="M256.113 174.599C256.104 174.59 256.093 174.58 256.083 174.571H158.697C158.401 174.96 158.086 175.334 157.748 175.687H257.185C256.821 175.331 256.474 174.958 256.113 174.597V174.599Z" fill="#5B5B75"/>
<path d="M252.166 165.084H168.141C167.827 165.471 167.494 165.842 167.146 166.199H253.168C252.818 165.842 252.482 165.471 252.166 165.084Z" fill="#5B5B75"/>
<path d="M248.795 156.433H175.441C175.422 156.456 175.404 156.478 175.385 156.5C175.371 156.516 175.354 156.529 175.339 156.544C175.051 156.874 174.768 157.208 174.494 157.549H249.812C249.446 157.204 249.104 156.83 248.795 156.433Z" fill="#5B5B75"/>
<path d="M245.23 148.898H182.46C182.451 148.924 182.441 148.952 182.428 148.978C182.24 149.341 182.02 149.684 181.781 150.014H246.138C245.8 149.675 245.511 149.289 245.23 148.898Z" fill="#5B5B75"/>
<path d="M241.469 141.364H188.13C187.917 141.767 187.655 142.145 187.348 142.479H242.304C242.014 142.116 241.744 141.738 241.471 141.364H241.469Z" fill="#5B5B75"/>
<path d="M236.799 133.829H192.835C192.602 134.212 192.365 134.595 192.082 134.944H237.666V134.937C237.365 134.577 237.08 134.205 236.799 133.827V133.829Z" fill="#5B5B75"/>
<path d="M259.817 185.696C259.686 185.554 259.545 185.384 259.438 185.202C259.433 185.194 259.425 185.185 259.42 185.178H150.693C150.353 185.6 150.018 186.029 149.646 186.422H260.499C260.266 186.186 260.043 185.941 259.815 185.698L259.817 185.696Z" fill="#5B5B75"/>
<path d="M263.939 197.416C263.795 197.274 263.643 197.104 263.523 196.922C263.516 196.914 263.51 196.905 263.503 196.898H144.646C144.23 197.372 143.816 197.851 143.35 198.279V208.618H264.812V198.253C264.512 197.984 264.228 197.702 263.939 197.416Z" fill="#4D4C63"/>
<path d="M263.94 197.416C263.796 197.274 263.644 197.104 263.524 196.922C263.516 196.914 263.511 196.905 263.504 196.898H144.646C144.275 197.32 143.909 197.75 143.502 198.142H264.687C264.432 197.906 264.188 197.661 263.94 197.418V197.416Z" fill="#5B5B75"/>
<path d="M187.849 208.618H171.896L208.521 133.828H219.193L187.849 208.618Z" fill="#5B5B75"/>
<path d="M185.049 208.618H174.414L210.238 133.828H217.513L185.049 208.618Z" fill="#6A6A7F"/>
<path d="M219.194 133.828C219.194 133.828 219.194 141.363 219.068 141.351H215.989C215.834 141.363 215.834 148.898 215.866 148.893H212.787C212.756 148.897 212.756 156.432 212.659 156.395H209.581C209.675 156.99 209.675 165.084 209.564 165.049H206.207C206.319 165.082 206.319 174.291 206.266 174.503H202.069C202.122 174.291 202.122 185.174 202.239 185.122H197.481C197.646 185.174 197.646 196.896 197.751 196.795H192.434C201.355 175.806 210.274 154.817 219.196 133.828H219.194Z" fill="#353544"/>
<path d="M192.607 196.618L192.431 208.618H187.85L192.607 196.618Z" fill="#353544"/>
<path d="M221.714 133.828H215.836V124.619L221.714 124.341V133.828Z" fill="#353544"/>
<path d="M23.1177 199.73C22.9846 198.952 22.5316 195.758 24.5322 192.674C27.0893 188.732 31.5194 188.255 32.0815 188.205C31.4603 184.885 30.4766 176.957 34.6756 169.153C41.0139 157.377 57.0259 149.844 69.1163 155.276C75.8521 158.301 79.2486 164.398 80.676 167.506C82.0942 168.817 84.0134 170.895 85.6294 173.858C87.5172 177.315 88.1921 180.511 88.4602 182.562C90.8435 179.35 94.9926 178.146 98.367 179.503C102.37 181.113 104.57 186.037 102.849 190.558C103.219 190.541 105.702 190.471 107.567 192.44C109.195 194.156 109.222 196.232 109.219 196.673C109.574 196.38 111.291 195.028 113.7 195.263C117.017 195.583 118.563 198.603 118.654 198.791C118.859 198.622 120.305 197.468 122.193 197.851C123.31 198.078 124.027 198.729 124.315 199.027C124.384 198.786 124.7 197.786 125.73 197.145C126.656 196.568 127.579 196.642 127.852 196.675C128.44 193.963 129.866 193.102 130.212 192.912C132.756 191.511 137.328 193.15 140.355 197.851C140.436 193.279 143.171 189.261 147.196 187.737C152.068 185.889 156.406 188.612 156.868 188.913C158.673 188.976 162.598 189.363 166.54 191.972C172.259 195.755 173.934 201.514 174.324 203.026C175.554 202.233 177.211 201.337 179.278 200.674C191.198 196.852 205.583 204.387 205.226 208.435C204.962 211.429 196.601 212.995 195.791 213.14C192.237 213.78 189.275 213.316 187.535 212.904C185.141 213.764 181.933 214.608 178.1 214.787C169.822 215.174 163.462 212.241 160.407 210.554C157.837 211.378 154.918 212.132 151.678 212.67C144.243 213.909 137.737 213.588 132.806 212.906C131.083 211.787 127.455 209.763 122.426 209.377C118.469 209.075 115.298 209.912 113.462 210.554C111.914 211.866 109.886 213.257 107.329 214.317C98.4076 218.017 89.8321 214.89 87.2769 213.846C83.346 215.546 78.938 217.104 74.066 218.315C52.9268 223.574 34.328 219.51 23.3489 215.963C21.4888 216.769 14.692 219.44 7.78057 216.433C6.88937 216.04 -0.0331618 213.03 0.000119609 208.434C0.0370989 203.411 8.3445 200.439 9.67206 199.966C15.5203 197.873 20.8047 199.055 23.1177 199.73Z" fill="#666666"/>
<path d="M123.16 127.706C110.563 127.706 100.352 137.888 100.352 150.449C100.352 163.01 110.563 173.192 123.16 173.192C135.757 173.192 145.969 163.01 145.969 150.449C145.969 137.888 135.757 127.706 123.16 127.706ZM123.16 169.199C112.775 169.199 104.355 160.803 104.355 150.447C104.355 140.091 112.775 131.695 123.16 131.695C133.546 131.695 141.966 140.091 141.966 150.447C141.966 160.803 133.546 169.199 123.16 169.199Z" fill="#353544"/>
<path d="M123.532 154.441C125.743 154.441 127.535 152.653 127.535 150.449C127.535 148.245 125.743 146.458 123.532 146.458C121.321 146.458 119.529 148.245 119.529 150.449C119.529 152.653 121.321 154.441 123.532 154.441Z" fill="#4D4C63"/>
<mask id="mask0_4196_12640" style="mask-type:luminance" maskUnits="userSpaceOnUse" x="111" y="138" width="25" height="25">
<path d="M123.438 138.891C117.011 138.891 111.801 144.087 111.801 150.495C111.801 156.904 117.011 162.099 123.438 162.099C129.865 162.099 135.076 156.904 135.076 150.495C135.076 144.087 129.865 138.891 123.438 138.891ZM123.438 158.013C119.119 158.013 115.619 154.522 115.619 150.217C115.619 145.912 119.121 142.42 123.438 142.42C127.756 142.42 131.257 145.912 131.257 150.217C131.257 154.522 127.756 158.013 123.438 158.013Z" fill="white"/>
</mask>
<g mask="url(#mask0_4196_12640)">
<path d="M123.438 138.891C117.011 138.891 111.801 144.087 111.801 150.495C111.801 156.904 117.011 162.099 123.438 162.099C129.865 162.099 135.076 156.904 135.076 150.495C135.076 144.087 129.865 138.891 123.438 138.891ZM123.438 158.013C119.119 158.013 115.619 154.522 115.619 150.217C115.619 145.912 119.121 142.42 123.438 142.42C127.756 142.42 131.257 145.912 131.257 150.217C131.257 154.522 127.756 158.013 123.438 158.013Z" fill="#353544"/>
<path d="M123.856 137.964H123.111V162.842H123.856V137.964Z" fill="#4D4C63"/>
<path d="M135.96 150.587H111.01V151.33H135.96V150.587Z" fill="#4D4C63"/>
<path d="M112.441 144.319L112.07 144.964L133.706 157.354L134.077 156.709L112.441 144.319Z" fill="#4D4C63"/>
<path d="M129.449 140.155L117.023 161.728L117.67 162.098L130.095 140.525L129.449 140.155Z" fill="#4D4C63"/>
<path d="M117.284 139.954L116.645 140.335L129.439 161.693L130.078 161.312L117.284 139.954Z" fill="#4D4C63"/>
<path d="M133.885 144.601L112.275 157.036L112.648 157.68L134.257 145.245L133.885 144.601Z" fill="#4D4C63"/>
</g>
<path d="M123.485 134.409L120.852 137.035L123.485 139.66L126.118 137.035L123.485 134.409Z" fill="#4D4C63"/>
<path d="M137.078 148.334L134.445 150.959L137.078 153.585L139.712 150.959L137.078 148.334Z" fill="#4D4C63"/>
<path d="M109.707 148.334L107.074 150.96L109.707 153.585L112.34 150.96L109.707 148.334Z" fill="#4D4C63"/>
<path d="M123.485 161.701L120.852 164.327L123.485 166.952L126.118 164.327L123.485 161.701Z" fill="#4D4C63"/>
<path d="M141.963 132.127L146.92 124.015L138.564 128.867L141.963 132.127Z" fill="#4D4C63"/>
<path d="M138.197 172.438L145.27 176.951L141.744 169.337L138.197 172.438Z" fill="#4D4C63"/>
<path d="M130.871 175.919L137.448 186.234L135.196 174.046L130.871 175.919Z" fill="#4D4C63"/>
<path d="M134.546 126.565L137.449 115.313L130.197 124.745L134.546 126.565Z" fill="#4D4C63"/>
<path d="M125.584 123.298L123.485 110.672L120.869 123.388L125.584 123.298Z" fill="#4D4C63"/>
<path d="M116.287 124.011L108.961 111.415L111.916 125.779L116.287 124.011Z" fill="#4D4C63"/>
<path d="M96.7211 153.137L82.998 158.115L97.6992 157.737L96.7211 153.137Z" fill="#4D4C63"/>
<path d="M107.297 127.833L93.3223 115.313L103.682 130.853L107.297 127.833Z" fill="#4D4C63"/>
<path d="M97.7765 144.308L79.0039 143.57L96.9278 148.932L97.7765 144.308Z" fill="#4D4C63"/>
<path d="M100.828 134.647L81.9648 127.381L98.5242 138.751L100.828 134.647Z" fill="#4D4C63"/>
<path opacity="0.41" d="M300.338 31.7721C303.673 30.8811 305.898 28.3784 305.307 26.1822C304.717 23.986 301.535 22.9279 298.2 23.8189C294.866 24.7099 292.641 27.2126 293.231 29.4088C293.821 31.605 297.003 32.6631 300.338 31.7721Z" fill="black"/>
<path opacity="0.63" d="M289.707 30.7262C291.01 30.7262 292.066 29.8834 292.066 28.8438C292.066 27.8042 291.01 26.9614 289.707 26.9614C288.404 26.9614 287.348 27.8042 287.348 28.8438C287.348 29.8834 288.404 30.7262 289.707 30.7262Z" fill="black"/>
<path opacity="0.49" d="M59.9244 140.67C60.9527 140.67 61.7863 139.839 61.7863 138.814C61.7863 137.788 60.9527 136.957 59.9244 136.957C58.8961 136.957 58.0625 137.788 58.0625 138.814C58.0625 139.839 58.8961 140.67 59.9244 140.67Z" fill="#3F3D56"/>
<path d="M21.3488 131.282C22.0656 131.282 22.6467 130.703 22.6467 129.988C22.6467 129.273 22.0656 128.694 21.3488 128.694C20.6319 128.694 20.0508 129.273 20.0508 129.988C20.0508 130.703 20.6319 131.282 21.3488 131.282Z" fill="#3F3D56"/>
<path opacity="0.49" d="M17.5738 186.323C18.4203 186.323 19.1066 185.638 19.1066 184.794C19.1066 183.95 18.4203 183.266 17.5738 183.266C16.7273 183.266 16.041 183.95 16.041 184.794C16.041 185.638 16.7273 186.323 17.5738 186.323Z" fill="#3F3D56"/>
<path d="M156.046 128.93C156.632 128.93 157.107 128.456 157.107 127.872C157.107 127.287 156.632 126.813 156.046 126.813C155.46 126.813 154.984 127.287 154.984 127.872C154.984 128.456 155.46 128.93 156.046 128.93Z" fill="#3F3D56"/>
<path opacity="0.51" d="M149.112 119.465C150.024 119.465 150.763 118.728 150.763 117.818C150.763 116.909 150.024 116.172 149.112 116.172C148.2 116.172 147.461 116.909 147.461 117.818C147.461 118.728 148.2 119.465 149.112 119.465Z" fill="#3F3D56"/>
<path d="M156.363 94.7597C157.058 94.7597 157.622 94.1976 157.622 93.5042C157.622 92.8108 157.058 92.2487 156.363 92.2487C155.667 92.2487 155.104 92.8108 155.104 93.5042C155.104 94.1976 155.667 94.7597 156.363 94.7597Z" fill="#3F3D56"/>
<path d="M290.269 128.46C290.986 128.46 291.567 127.88 291.567 127.166C291.567 126.451 290.986 125.871 290.269 125.871C289.552 125.871 288.971 126.451 288.971 127.166C288.971 127.88 289.552 128.46 290.269 128.46Z" fill="#3F3D56"/>
<path opacity="0.38" d="M303.952 123.285C305.841 123.285 307.372 121.758 307.372 119.874C307.372 117.99 305.841 116.463 303.952 116.463C302.063 116.463 300.531 117.99 300.531 119.874C300.531 121.758 302.063 123.285 303.952 123.285Z" fill="#3F3D56"/>
<path d="M324.003 114.111C324.85 114.111 325.536 113.426 325.536 112.582C325.536 111.738 324.85 111.054 324.003 111.054C323.157 111.054 322.471 111.738 322.471 112.582C322.471 113.426 323.157 114.111 324.003 114.111Z" fill="#3F3D56"/>
<path d="M295.074 168.6C294.978 166.236 294.225 164.14 292.957 162.694C291.123 160.607 288.676 160.34 285.289 159.97C282.294 159.641 279.221 159.804 276.161 160.449L276.113 160.462C274.894 160.902 272.692 162.007 271.625 164.444C270.928 166.035 271.034 167.53 271.146 169.11C271.257 170.698 271.385 172.497 272.557 174.256C273.681 175.941 275.229 176.806 276.331 177.232L276.403 177.252C278.354 177.563 280.345 177.724 282.32 177.729C282.357 177.729 282.395 177.729 282.432 177.729C284.444 177.729 286.474 177.569 288.484 177.246C289.481 177.025 292.848 176.048 294.364 172.787C295.174 171.046 295.105 169.391 295.072 168.596L295.074 168.6ZM293.722 172.493C292.341 175.462 289.246 176.358 288.351 176.559C286.361 176.876 284.335 177.034 282.322 177.029C280.397 177.023 278.455 176.867 276.553 176.566C275.549 176.172 274.156 175.384 273.147 173.871C272.078 172.267 271.964 170.639 271.853 169.066C271.744 167.508 271.647 166.164 272.274 164.73C273.228 162.549 275.214 161.546 276.331 161.138C279.311 160.513 282.299 160.357 285.211 160.676C288.865 161.074 290.845 161.367 292.422 163.163C293.584 164.486 294.273 166.428 294.364 168.631C294.393 169.37 294.458 170.91 293.72 172.495L293.722 172.493Z" fill="#817636"/>
<path d="M290.683 164.625C289.202 163.024 287.24 162.822 284.524 162.54C282.127 162.293 279.67 162.414 277.222 162.903L277.176 162.916C276.192 163.253 274.415 164.099 273.552 165.972C272.986 167.2 273.071 168.343 273.16 169.555C273.251 170.77 273.352 172.145 274.303 173.498C275.21 174.791 276.46 175.453 277.348 175.779L277.418 175.797C278.979 176.033 280.571 176.155 282.148 176.16C282.177 176.16 282.207 176.16 282.235 176.16C283.845 176.16 285.469 176.039 287.077 175.794C287.88 175.624 290.592 174.877 291.82 172.374C292.476 171.033 292.421 169.765 292.395 169.155C292.317 167.342 291.709 165.735 290.683 164.625ZM281.079 163.26C281.086 163.22 281.086 163.181 281.083 163.144C281.201 163.139 281.319 163.137 281.438 163.133C281.305 163.522 281.318 163.932 281.491 164.317C281.669 164.711 282.031 165.001 282.44 165.128C282.911 165.276 283.37 165.15 283.801 164.946C284.191 164.761 284.596 164.52 284.81 164.133C284.949 163.882 284.999 163.572 284.936 163.292C284.945 163.292 284.956 163.294 284.967 163.296C285.017 163.386 285.101 163.436 285.191 163.45C285.219 163.539 285.243 163.629 285.261 163.721C285.302 163.926 285.309 164.136 285.3 164.345C285.28 164.724 285.167 165.095 284.96 165.416C284.572 166.02 283.853 166.385 283.165 166.533C282.416 166.693 281.717 166.413 281.308 165.768C280.829 165.012 280.916 164.101 281.079 163.26ZM284.15 163.299C284.169 163.314 284.185 163.331 284.202 163.347C284.183 163.319 284.187 163.323 284.209 163.356C284.219 163.371 284.228 163.388 284.235 163.404C284.235 163.406 284.235 163.406 284.237 163.412C284.241 163.423 284.252 163.482 284.256 163.491C284.257 163.526 284.259 163.561 284.256 163.596C284.256 163.602 284.256 163.6 284.256 163.603C284.252 163.624 284.248 163.644 284.243 163.662C284.237 163.686 284.23 163.708 284.222 163.731C284.237 163.703 284.235 163.707 284.217 163.745C284.176 163.825 284.137 163.876 284.08 163.935C283.951 164.068 283.795 164.158 283.623 164.247C283.446 164.339 283.263 164.428 283.065 164.472C282.767 164.54 282.455 164.431 282.24 164.193C282.044 163.976 281.992 163.59 282.111 163.331C282.14 163.264 282.155 163.192 282.151 163.122C282.8 163.122 283.444 163.154 284.085 163.209C284.102 163.24 284.122 163.272 284.15 163.296V163.299ZM277.383 163.592C278.381 163.393 279.38 163.262 280.375 163.189C280.208 164.09 280.143 165.021 280.556 165.871C280.9 166.583 281.562 167.14 282.355 167.256C283.205 167.381 284.141 167.06 284.823 166.555C285.52 166.039 285.931 165.287 285.999 164.426C286.025 164.088 285.995 163.738 285.909 163.408C287.909 163.662 289.146 164.009 290.161 165.106C290.751 165.742 291.182 166.574 291.435 167.525C290.688 167.545 289.941 167.637 289.214 167.816C288.578 167.971 287.909 168.161 287.717 168.865C287.635 169.162 287.656 169.475 287.634 169.78C287.611 170.088 287.495 170.366 287.293 170.602C286.844 171.135 286.164 171.347 285.5 171.47C283.98 171.75 282.275 171.933 280.761 171.548C279.602 171.253 278.448 170.53 277.964 169.396C277.827 169.075 277.775 168.716 277.538 168.445C277.281 168.15 276.913 168.083 276.54 168.059C275.63 168 274.72 167.964 273.811 167.916C273.839 167.363 273.938 166.824 274.194 166.271C274.94 164.651 276.503 163.9 277.383 163.596V163.592ZM286.951 175.099C285.367 175.338 283.753 175.454 282.148 175.453C280.617 175.449 279.073 175.331 277.559 175.102C276.767 174.805 275.673 174.217 274.881 173.091C274.044 171.896 273.953 170.679 273.864 169.499C273.842 169.195 273.82 168.902 273.809 168.616C274.628 168.659 275.447 168.703 276.266 168.745C276.579 168.762 276.943 168.721 277.095 169.05C277.228 169.339 277.294 169.651 277.444 169.936C278.021 171.043 279.151 171.795 280.323 172.152C281.83 172.611 283.446 172.455 284.982 172.25C286.262 172.08 287.735 171.717 288.229 170.366C288.351 170.032 288.34 169.68 288.36 169.332C288.384 168.92 288.529 168.742 288.924 168.62C289.786 168.354 290.684 168.231 291.583 168.218C291.635 168.53 291.674 168.85 291.687 169.18C291.69 169.25 291.692 169.332 291.696 169.42C291.245 169.442 290.769 169.501 290.376 169.732C289.886 170.016 289.725 170.484 289.697 171.024C289.671 171.52 289.508 171.9 289.111 172.213C288.736 172.508 288.272 172.685 287.817 172.814C286.522 173.179 285.123 173.305 283.784 173.375C282.44 173.445 281.038 173.469 279.74 173.067C278.498 172.683 277.429 171.85 276.734 170.757C276.49 170.375 275.878 170.727 276.124 171.113C276.758 172.11 277.666 172.934 278.744 173.434C279.997 174.014 281.384 174.127 282.749 174.114C284.222 174.099 285.698 173.952 287.147 173.686C288.135 173.506 289.257 173.212 289.926 172.407C290.104 172.193 290.243 171.95 290.322 171.682C290.418 171.358 290.35 171.004 290.451 170.687C290.605 170.213 291.235 170.148 291.688 170.128C291.65 170.685 291.528 171.369 291.187 172.064C290.1 174.28 287.658 174.949 286.955 175.099H286.951Z" fill="#817636"/>
<path d="M37.6127 178.594C38.1396 175.452 39.31 172.434 41.0055 169.737C42.701 167.04 44.9401 164.641 47.5583 162.792C50.3872 160.795 53.6913 159.367 57.1914 159.256C60.244 159.16 63.2763 159.999 65.9425 161.459C68.6624 162.947 71.0383 165.082 72.7911 167.635C73.0037 167.945 73.2071 168.262 73.4013 168.583C73.4475 168.659 73.5677 168.59 73.5215 168.513C71.9129 165.849 69.6571 163.581 67.0168 161.927C64.4153 160.298 61.4144 159.258 58.334 159.123C54.8376 158.972 51.4873 160.124 48.5512 161.964C45.8221 163.673 43.4628 165.948 41.612 168.574C39.7519 171.214 38.4003 174.219 37.707 177.374C37.6201 177.766 37.5443 178.161 37.4777 178.555C37.4629 178.642 37.596 178.681 37.6108 178.592L37.6127 178.594Z" fill="#111010"/>
<path d="M65.7583 164.35C69.1919 166.975 71.8673 170.545 73.4926 174.538C74.2969 176.514 74.8478 178.594 75.1067 180.712C75.3748 182.912 75.4192 185.261 74.6648 187.375C73.9659 189.335 72.5089 190.817 70.6507 191.725C68.8683 192.593 66.8696 192.962 64.9097 193.157C62.6206 193.386 60.2891 193.452 57.9908 193.375C55.4744 193.29 52.945 192.96 50.5617 192.125C46.7787 190.797 43.2379 187.923 42.0731 183.976C41.9307 183.491 41.8272 182.993 41.7643 182.492C41.7532 182.405 41.6145 182.403 41.6256 182.492C42.1396 186.581 45.2699 189.853 48.881 191.583C53.3777 193.736 58.638 193.708 63.5081 193.408C67.28 193.175 71.786 192.458 74.0121 189.027C75.2676 187.093 75.4968 184.687 75.3933 182.438C75.2916 180.248 74.8737 178.072 74.1804 175.991C72.7973 171.854 70.3179 168.072 67.0212 165.2C66.6347 164.864 66.2372 164.542 65.8304 164.23C65.7602 164.177 65.6899 164.297 65.7602 164.35H65.7583Z" fill="#111010"/>
<path d="M44.8995 175.552C45.4912 171.56 49.1965 168.566 53.133 168.235C57.6001 167.858 61.8952 170.44 64.2545 174.125C65.4582 176.006 66.2126 178.174 66.4196 180.397C66.6175 182.532 66.4196 185.036 64.9405 186.723C63.4521 188.422 60.9208 188.961 58.7483 188.8C56.548 188.64 54.3958 187.692 52.961 185.991C51.6039 184.379 50.8994 182.152 51.3376 180.067C51.7407 178.152 53.1052 176.444 54.9061 175.653C55.361 175.454 55.8399 175.32 56.3317 175.25C56.4204 175.237 56.3816 175.104 56.2947 175.117C54.2849 175.406 52.5598 176.813 51.6889 178.618C50.7737 180.519 50.9327 182.744 51.8775 184.602C52.8889 186.594 54.7286 188.006 56.8697 188.611C59.0108 189.215 61.518 189.084 63.502 188.021C64.5041 187.482 65.3066 186.673 65.8113 185.655C66.2995 184.671 66.5176 183.574 66.5897 182.486C66.7414 180.187 66.2717 177.853 65.3066 175.764C63.4132 171.662 59.4694 168.498 54.8821 168.104C52.7521 167.919 50.6202 168.412 48.8156 169.562C47.1497 170.624 45.7907 172.2 45.1251 174.068C44.9568 174.538 44.8385 175.025 44.7646 175.519C44.7516 175.605 44.8847 175.644 44.8977 175.556L44.8995 175.552Z" fill="#111010"/>
<path d="M83.7611 181.935C84.4877 184.437 84.5395 187.101 83.9072 189.628C83.885 189.715 84.02 189.752 84.0403 189.665C84.6782 187.115 84.6264 184.424 83.8942 181.898C83.8702 181.813 83.7352 181.848 83.7611 181.935Z" fill="#111010"/>
<path d="M81.4117 173.636C84.1463 177.313 86.415 181.509 87.1453 186.074C87.3505 187.357 87.4245 188.658 87.3561 189.955C87.3505 190.043 87.4892 190.043 87.4948 189.955C87.737 185.31 86.1043 180.805 83.7469 176.865C83.0665 175.727 82.3214 174.63 81.53 173.566C81.4782 173.496 81.3562 173.566 81.4098 173.636H81.4117Z" fill="#111010"/>
<path d="M91.9258 182.536C92.2272 182.123 92.621 181.784 93.0703 181.54C93.148 181.498 93.0796 181.378 93.0001 181.42C92.5286 181.675 92.12 182.032 91.8056 182.466C91.7539 182.538 91.8741 182.608 91.9258 182.536Z" fill="#111010"/>
<path d="M95.6406 181.409C97.3675 181.737 98.8134 182.921 99.712 184.398C100.738 186.085 101.101 188.105 101.143 190.054C101.219 193.463 100.052 197.362 96.6187 198.765C94.9842 199.433 93.0446 199.436 91.5673 198.387C91.4952 198.336 91.4249 198.456 91.4971 198.507C92.8246 199.451 94.5423 199.569 96.0732 199.106C97.7188 198.611 99.0538 197.495 99.9209 196.028C100.857 194.442 101.237 192.578 101.282 190.755C101.328 188.791 101.053 186.734 100.174 184.956C99.296 183.179 97.6855 181.66 95.6757 181.28C95.5888 181.264 95.5518 181.396 95.6387 181.413L95.6406 181.409Z" fill="#111010"/>
<path d="M88.9045 194.304C89.0487 191.804 89.7698 189.357 91.003 187.174C91.0474 187.097 90.9272 187.027 90.8829 187.104C89.6385 189.308 88.9119 191.778 88.7658 194.304C88.7602 194.392 88.8989 194.392 88.9045 194.304Z" fill="#111010"/>
<path d="M94.7891 186.537C95.9003 186.594 96.6066 187.63 96.9598 188.579C97.4091 189.791 97.5145 191.14 97.3684 192.416C97.3592 192.504 97.4978 192.503 97.5071 192.416C97.6606 191.068 97.5422 189.604 97.0134 188.343C96.6196 187.403 95.8892 186.455 94.7873 186.4C94.6985 186.396 94.6985 186.535 94.7873 186.538L94.7891 186.537Z" fill="#111010"/>
<path d="M105.265 193.773C106.354 194.416 107.105 195.486 107.519 196.664C108.004 198.045 108.005 199.53 107.798 200.963C107.674 201.828 107.477 202.681 107.264 203.529C107.242 203.616 107.377 203.653 107.397 203.566C108.094 200.786 108.638 197.576 106.857 195.069C106.45 194.497 105.938 194.011 105.334 193.653C105.256 193.607 105.188 193.727 105.263 193.773H105.265Z" fill="#111010"/>
<path d="M106.244 198.852C106.512 200.609 106.107 202.425 105.129 203.907C105.079 203.981 105.199 204.051 105.249 203.977C106.25 202.46 106.651 200.609 106.377 198.815C106.364 198.727 106.229 198.765 106.244 198.852Z" fill="#111010"/>
<path d="M26.4853 200.923C26.955 197.449 28.3935 193.808 31.6976 192.128C32.5444 191.699 33.4707 191.439 34.423 191.398C34.5117 191.395 34.5117 191.256 34.423 191.26C32.7478 191.332 31.1762 192.069 29.93 193.17C28.5673 194.37 27.6465 195.982 27.0733 197.687C26.7239 198.725 26.4983 199.8 26.3522 200.886C26.3411 200.972 26.4743 201.011 26.4853 200.923Z" fill="#111010"/>
<path d="M34.4307 192.892C35.2923 192.499 36.2353 192.309 37.1838 192.335C37.2726 192.337 37.2726 192.198 37.1838 192.196C36.2113 192.171 35.2461 192.368 34.3623 192.772C34.281 192.809 34.3512 192.928 34.4326 192.892H34.4307Z" fill="#111010"/>
<path d="M11.4038 202.242C14.7079 201.868 18.1081 201.999 21.3031 202.978C24.0895 203.832 26.6744 205.356 28.6435 207.513C29.7196 208.693 30.5942 210.052 31.1785 211.538C31.2099 211.619 31.3449 211.584 31.3116 211.501C30.278 208.874 28.368 206.675 26.0476 205.085C23.4294 203.292 20.3306 202.338 17.1873 202.029C15.2644 201.839 13.323 201.887 11.4038 202.104C11.3169 202.113 11.315 202.252 11.4038 202.242Z" fill="#111010"/>
<path d="M31.8908 209.341C32.1977 209.801 32.5028 210.26 32.8097 210.721C32.8597 210.795 32.9798 210.727 32.9299 210.651C32.623 210.19 32.3179 209.731 32.011 209.27C31.9611 209.197 31.8409 209.265 31.8908 209.341Z" fill="#111010"/>
<path d="M53.8395 216.634C58.3307 217.364 62.9438 217.237 67.3998 216.326C71.8484 215.415 76.1399 213.727 80.0005 211.343C82.1601 210.008 84.1829 208.454 86.0226 206.706C86.0873 206.645 85.9893 206.547 85.9246 206.608C82.6501 209.722 78.7913 212.206 74.6219 213.953C70.4691 215.694 66.0113 216.715 61.5109 216.929C58.9593 217.051 56.3985 216.911 53.8783 216.501C53.7914 216.486 53.7526 216.621 53.8414 216.634H53.8395Z" fill="#111010"/>
<path d="M78.1299 208.315C80.5187 207.006 82.7042 205.345 84.6031 203.395C84.666 203.33 84.568 203.233 84.5051 203.297C82.6136 205.24 80.4392 206.892 78.0615 208.196C77.9838 208.238 78.0522 208.358 78.1317 208.315H78.1299Z" fill="#111010"/>
<path d="M93.5639 213.609C96.7238 214.101 99.9687 213.73 102.995 212.731C105.921 211.765 108.622 210.218 111.051 208.343C112.422 207.287 113.708 206.125 114.923 204.894C114.986 204.831 114.888 204.731 114.825 204.796C112.704 206.944 110.358 208.885 107.747 210.414C105.053 211.99 102.08 213.107 98.9758 213.518C97.1916 213.754 95.3778 213.752 93.5991 213.476C93.5122 213.463 93.4733 213.596 93.5621 213.609H93.5639Z" fill="#111010"/>
<path d="M110.785 206.498C112.249 205.382 113.712 204.267 115.176 203.15C115.246 203.096 115.176 202.976 115.106 203.03C113.642 204.145 112.179 205.261 110.715 206.378C110.644 206.431 110.715 206.551 110.785 206.498Z" fill="#111010"/>
<path d="M116.009 197.781C117.874 199.444 118.974 201.872 118.989 204.368C118.989 204.457 119.128 204.457 119.128 204.368C119.113 201.839 117.998 199.37 116.107 197.683C116.04 197.624 115.942 197.722 116.009 197.781Z" fill="#111010"/>
<path d="M123.102 200.777C123.339 200.989 123.496 201.282 123.533 201.597C123.537 201.634 123.563 201.667 123.603 201.667C123.637 201.667 123.677 201.636 123.674 201.597C123.633 201.245 123.468 200.915 123.202 200.679C123.136 200.62 123.038 200.718 123.104 200.777H123.102Z" fill="#111010"/>
<path d="M135.585 194.977C137.361 196.007 138.907 197.488 139.845 199.326C140.767 201.136 141.004 203.255 140.394 205.203C140.057 206.275 139.469 207.255 138.646 208.024C138.582 208.085 138.68 208.183 138.744 208.122C140.237 206.728 140.943 204.669 140.869 202.654C140.795 200.639 139.843 198.609 138.441 197.079C137.635 196.199 136.687 195.456 135.655 194.857C135.577 194.813 135.507 194.931 135.585 194.977Z" fill="#111010"/>
<path d="M137.545 202.921C137.092 204.792 135.547 206.262 133.733 206.841C131.704 207.488 129.452 206.986 127.692 205.86C126.037 204.8 124.366 202.796 125.065 200.703C125.363 199.809 126.065 199.081 126.899 198.658C127.816 198.194 128.877 198.14 129.863 198.408C132.287 199.064 133.712 201.332 134.256 203.645C134.276 203.732 134.41 203.695 134.389 203.609C133.884 201.464 132.659 199.381 130.545 198.496C129.576 198.091 128.467 197.967 127.454 198.282C126.551 198.564 125.743 199.169 125.252 199.977C124.087 201.885 125.248 204.082 126.788 205.369C128.484 206.785 130.81 207.554 133.012 207.159C135.214 206.765 137.153 205.133 137.68 202.956C137.701 202.869 137.568 202.832 137.547 202.919L137.545 202.921Z" fill="#111010"/>
<path d="M129.971 200.926C130.933 201.678 131.687 202.676 132.14 203.81C132.174 203.891 132.307 203.856 132.273 203.773C131.811 202.617 131.051 201.597 130.069 200.828C129.999 200.775 129.901 200.871 129.971 200.926Z" fill="#111010"/>
<path d="M143.975 194.658C144.267 194.317 144.559 193.977 144.851 193.636C144.908 193.57 144.81 193.47 144.753 193.539C144.461 193.88 144.169 194.219 143.877 194.56C143.819 194.626 143.917 194.726 143.975 194.658Z" fill="#111010"/>
<path d="M146.719 191.73C148.311 190.67 150.099 189.936 151.977 189.575C152.064 189.558 152.027 189.426 151.94 189.442C150.051 189.807 148.248 190.545 146.649 191.612C146.575 191.662 146.645 191.782 146.719 191.732V191.73Z" fill="#111010"/>
<path d="M153.695 189.732C157.18 190.336 160.223 192.724 161.804 195.856C162.206 196.651 162.509 197.493 162.699 198.364C162.917 199.359 163.023 200.427 162.797 201.43C162.365 203.352 160.626 204.381 158.912 205.05C157.962 205.421 156.978 205.773 155.984 206.002C154.852 206.262 153.728 206.221 152.635 205.821C150.772 205.141 149.174 203.671 148.281 201.911C147.416 200.205 147.268 198.21 147.97 196.42C148.671 194.634 150.184 193.292 152.09 192.934C152.994 192.764 153.946 192.823 154.813 193.139C155.797 193.496 156.616 194.21 157.235 195.039C158.293 196.455 158.824 198.443 158.225 200.152C158.073 200.585 157.844 200.985 157.552 201.339C157.494 201.407 157.592 201.505 157.65 201.437C158.853 199.984 158.816 197.939 158.101 196.273C157.333 194.483 155.754 193.002 153.774 192.748C151.794 192.493 149.923 193.297 148.738 194.802C147.552 196.306 147.131 198.321 147.519 200.176C147.922 202.093 149.131 203.789 150.709 204.936C151.609 205.591 152.654 206.088 153.761 206.256C154.926 206.431 156.06 206.168 157.163 205.81C158.916 205.242 160.939 204.617 162.135 203.122C163.428 201.507 163.173 199.223 162.579 197.375C161.462 193.896 158.576 191.013 155.078 189.92C154.638 189.781 154.188 189.674 153.735 189.597C153.648 189.582 153.612 189.715 153.698 189.73L153.695 189.732Z" fill="#111010"/>
<path d="M154.955 197.156C155.929 198.065 155.946 199.755 154.986 200.683C154.922 200.745 155.02 200.843 155.084 200.78C156.096 199.803 156.081 198.019 155.053 197.058C154.988 196.997 154.89 197.095 154.955 197.156Z" fill="#111010"/>
<path d="M165.793 195.534C166.614 196.179 167.405 196.885 168.011 197.74C168.618 198.596 168.956 199.499 169.132 200.482C169.315 201.513 169.295 202.578 169.136 203.611C168.989 204.56 168.753 205.543 168.241 206.367C167.584 207.425 166.49 207.897 165.369 208.319C165.286 208.351 165.323 208.483 165.406 208.452C166.375 208.087 167.379 207.692 168.052 206.868C168.725 206.044 168.999 205.082 169.189 204.105C169.583 202.086 169.481 199.862 168.39 198.063C167.758 197.018 166.845 196.183 165.891 195.432C165.82 195.377 165.722 195.475 165.793 195.53V195.534Z" fill="#111010"/>
<path d="M46.8729 202.68C50.0439 201.011 53.3221 199.483 56.8055 198.583C60.093 197.735 63.5691 197.482 66.9027 198.218C68.5335 198.577 70.1125 199.173 71.5455 200.034C72.9341 200.867 74.3467 202.058 74.526 203.773C74.6166 204.632 74.3504 205.451 73.731 206.059C73.1559 206.625 72.4016 206.999 71.6823 207.353C70.1791 208.092 68.5871 208.651 66.9527 209.027C63.6596 209.781 60.1891 209.785 56.9017 209.001C56.4931 208.904 56.0863 208.793 55.6832 208.671C55.5982 208.646 55.5612 208.778 55.6462 208.804C58.9614 209.802 62.5003 209.986 65.908 209.379C67.609 209.077 69.275 208.577 70.8595 207.886C71.6398 207.547 72.4274 207.176 73.1393 206.706C73.7606 206.295 74.3041 205.758 74.5427 205.036C75.0659 203.452 74.1414 201.863 72.9581 200.858C71.7008 199.792 70.1403 199.046 68.5816 198.531C65.3145 197.453 61.7645 197.425 58.4086 198.076C54.7698 198.782 51.3307 200.25 48.0396 201.918C47.6254 202.128 47.215 202.342 46.8045 202.558C46.725 202.6 46.7952 202.718 46.8747 202.678L46.8729 202.68Z" fill="#111010"/>
<path d="M44.2032 206.735C46.4534 204.352 49.5597 203.07 52.677 202.241C53.5608 202.005 54.4539 201.804 55.3506 201.619C55.4375 201.601 55.4005 201.468 55.3136 201.487C52.1297 202.141 48.8681 203.019 46.1613 204.883C45.4161 205.395 44.7246 205.981 44.1052 206.638C44.0442 206.702 44.1422 206.8 44.2032 206.735Z" fill="#111010"/>
<path d="M58.9702 200.515C59.6487 200.438 60.3366 200.467 61.0059 200.603C61.0928 200.622 61.1298 200.487 61.0429 200.471C60.3606 200.332 59.6617 200.299 58.9702 200.379C58.8833 200.388 58.8814 200.526 58.9702 200.517V200.515Z" fill="#111010"/>
<path d="M72.5227 194.457C74.3403 195.028 75.8305 196.466 76.461 198.26C76.4906 198.343 76.6237 198.308 76.5942 198.223C75.947 196.383 74.4253 194.91 72.5579 194.324C72.4728 194.296 72.4358 194.431 72.5209 194.457H72.5227Z" fill="#111010"/>
<path d="M77.164 199.606C77.6114 200.379 77.7908 201.288 77.6595 202.171C77.6466 202.257 77.7797 202.296 77.7926 202.208C77.9294 201.286 77.7519 200.344 77.2842 199.536C77.2398 199.459 77.1196 199.529 77.164 199.606Z" fill="#111010"/>
<path d="M170.409 206.726C168.887 208.907 166.14 210.106 163.501 209.754C163.413 209.743 163.415 209.881 163.501 209.892C166.19 210.25 168.982 209.014 170.529 206.796C170.581 206.723 170.461 206.654 170.409 206.726Z" fill="#111010"/>
<path d="M171.767 203.806C171.859 204.385 171.763 204.984 171.499 205.506C171.458 205.585 171.578 205.655 171.619 205.576C171.902 205.017 172 204.387 171.902 203.771C171.887 203.682 171.754 203.721 171.768 203.808L171.767 203.806Z" fill="#111010"/>
<path d="M145.084 211.308C147.798 211.383 150.505 210.858 152.996 209.778C153.077 209.743 153.007 209.623 152.926 209.658C150.459 210.729 147.773 211.243 145.084 211.17C144.995 211.168 144.995 211.306 145.084 211.308Z" fill="#111010"/>
<path d="M157.12 208.968C157.555 208.763 157.987 208.559 158.422 208.356C158.503 208.317 158.433 208.199 158.351 208.236C157.917 208.441 157.484 208.645 157.05 208.848C156.968 208.887 157.039 209.005 157.12 208.968Z" fill="#111010"/>
<path d="M177.425 204.766C180.478 203.561 183.708 202.737 186.997 202.606C190.003 202.486 193.045 202.973 195.804 204.189C197.314 204.857 198.723 205.738 199.96 206.831C200.027 206.89 200.125 206.793 200.058 206.734C197.865 204.794 195.142 203.528 192.287 202.908C189.171 202.233 185.932 202.346 182.82 202.986C180.964 203.367 179.15 203.935 177.388 204.63C177.307 204.663 177.342 204.796 177.425 204.763V204.766Z" fill="#111010"/>
<path d="M196.34 206.212C197.243 206.638 198.482 207.313 198.443 208.469C198.439 208.557 198.578 208.557 198.581 208.469C198.62 207.257 197.361 206.542 196.411 206.094C196.331 206.055 196.259 206.175 196.34 206.214V206.212Z" fill="#111010"/>
<path d="M188.216 210.771C190.795 211.964 193.962 211.608 196.211 209.873C196.281 209.82 196.183 209.722 196.113 209.776C193.918 211.468 190.803 211.817 188.286 210.651C188.205 210.614 188.134 210.732 188.216 210.771Z" fill="#111010"/>
<path d="M182.391 207.178C184.841 205.502 188.104 205.215 190.855 206.288C191.647 206.595 192.388 207.021 193.054 207.549C193.122 207.604 193.222 207.506 193.152 207.451C190.787 205.572 187.488 205.041 184.619 205.945C183.802 206.201 183.027 206.575 182.32 207.058C182.247 207.108 182.317 207.228 182.391 207.178Z" fill="#111010"/>
<path d="M177.399 212.465C178.489 212.423 179.573 212.277 180.636 212.027C180.723 212.006 180.686 211.874 180.599 211.894C179.549 212.141 178.478 212.287 177.399 212.327C177.31 212.331 177.31 212.469 177.399 212.465Z" fill="#111010"/>
<path d="M319.15 189.462C319.638 188.013 320.816 183.893 319.35 178.944C317.824 173.797 314.381 170.928 313.18 170.014C310.136 167.047 307.642 166.828 306.612 166.839C300.976 166.898 294.932 174.302 293.675 185.692C292.525 185.687 289.121 185.825 286.113 188.271C281.058 192.383 281.873 199.147 281.934 199.584C282.587 196.872 280.686 194.534 278.75 194.424C277.13 194.331 275.322 195.792 274.969 197.997C273.129 195.462 271.097 194.451 269.993 194.027C264.977 192.101 258.504 194.361 253.872 199.783C251.446 199.346 246.68 198.828 241.135 200.578C234.068 202.807 229.945 207.388 228.397 209.309C227.672 208.959 224.252 207.394 220.835 208.913C218.788 209.822 216.621 211.89 217.054 213.079C217.49 214.28 220.541 214.499 224.418 213.874C227.356 214.062 230.481 214.143 233.772 214.073C241.891 213.9 249.124 212.847 255.266 211.494C257.132 212.364 259.469 213.207 262.231 213.677C270.566 215.095 277.378 212.2 280.342 210.699C283.054 212.49 288.853 215.771 296.861 216.256C302.143 216.575 306.451 215.561 309.201 214.669C312.407 215.867 317.057 216.922 322.138 215.661C323.985 215.202 329.486 213.837 329.7 210.898C329.841 208.966 327.661 206.863 324.525 205.541C325.385 204.56 326.723 202.698 326.914 200.183C327.235 195.941 324.157 191.586 319.152 189.466L319.15 189.462Z" fill="#666666"/>
<path d="M273.144 199.558C272.308 198.139 271.001 197.047 269.5 196.38C267.88 195.659 266.081 195.46 264.328 195.699C260.987 196.155 257.37 198.14 256.013 201.363C255.411 202.796 255.409 204.409 256.13 205.799C256.836 207.163 258.11 208.192 259.53 208.747C261.214 209.403 263.108 209.335 264.831 208.867C265.737 208.622 266.612 208.266 267.444 207.831C268.241 207.416 269.034 206.925 269.611 206.223C270.604 205.01 270.803 203.234 270.141 201.82C269.479 200.406 268.041 199.564 266.541 199.496C266.162 199.479 265.783 199.518 265.413 199.606C265.327 199.626 265.364 199.761 265.45 199.739C266.928 199.385 268.57 199.938 269.533 201.112C270.546 202.348 270.655 204.189 269.886 205.574C269.466 206.332 268.788 206.889 268.054 207.331C267.285 207.797 266.458 208.183 265.608 208.48C263.927 209.068 262.069 209.306 260.323 208.856C258.876 208.483 257.528 207.609 256.655 206.389C255.782 205.168 255.483 203.579 255.901 202.097C256.328 200.583 257.363 199.291 258.567 198.306C259.909 197.208 261.549 196.448 263.234 196.042C264.918 195.637 266.769 195.611 268.462 196.135C269.962 196.597 271.351 197.466 272.358 198.673C272.608 198.972 272.83 199.291 273.026 199.626C273.07 199.704 273.19 199.634 273.146 199.556L273.144 199.558Z" fill="#111010"/>
<path d="M260.33 201.271C259.681 201.807 259.013 202.375 258.612 203.131C258.255 203.806 258.133 204.61 258.442 205.323C258.477 205.404 258.597 205.334 258.562 205.253C257.876 203.668 259.324 202.279 260.428 201.369C260.496 201.312 260.398 201.214 260.33 201.271Z" fill="#111010"/>
<path d="M260.044 206.33C261.035 207.23 262.634 207.313 263.706 206.509C263.777 206.455 263.706 206.335 263.636 206.389C262.614 207.154 261.088 207.091 260.142 206.232C260.075 206.173 259.977 206.269 260.044 206.33Z" fill="#111010"/>
<path d="M261.55 202.984C262.327 202.04 263.586 201.695 264.773 201.846C265.96 201.997 267.465 202.735 267.646 204.044C267.659 204.132 267.792 204.094 267.779 204.007C267.593 202.657 266.049 201.883 264.83 201.715C263.612 201.548 262.264 201.9 261.45 202.886C261.395 202.954 261.491 203.052 261.548 202.984H261.55Z" fill="#111010"/>
<path d="M275.947 199.016C277.049 197.984 278.9 197.945 280.045 198.933C280.111 198.99 280.211 198.894 280.143 198.835C278.941 197.797 277.01 197.832 275.849 198.918C275.785 198.979 275.883 199.077 275.947 199.016Z" fill="#111010"/>
<path d="M279.963 200.085C281.608 201.983 281.571 204.626 281.507 206.988C281.505 207.077 281.644 207.077 281.645 206.988C281.712 204.584 281.734 201.916 280.061 199.988C280.002 199.92 279.906 200.019 279.963 200.085Z" fill="#111010"/>
<path d="M282.124 202.947C282.784 204.798 282.799 206.833 282.166 208.693C282.137 208.778 282.272 208.813 282.3 208.73C282.939 206.848 282.924 204.783 282.257 202.91C282.227 202.827 282.092 202.862 282.124 202.947Z" fill="#111010"/>
<path d="M278.997 202.659C277.836 201.975 276.406 202.064 275.206 202.606C273.884 203.203 272.93 204.354 272.27 205.615C271.876 206.367 271.575 207.165 271.314 207.971C271.287 208.056 271.422 208.092 271.447 208.008C271.884 206.658 272.44 205.303 273.363 204.206C274.228 203.179 275.434 202.436 276.795 202.32C277.538 202.257 278.279 202.397 278.925 202.777C279.002 202.823 279.071 202.703 278.995 202.657L278.997 202.659Z" fill="#111010"/>
<path d="M253.538 204.09C251.88 202.008 248.842 201.839 246.39 201.981C243.691 202.137 240.978 202.825 238.632 204.191C237.328 204.949 236.156 205.921 235.2 207.086C235.145 207.154 235.241 207.252 235.298 207.184C236.983 205.132 239.316 203.734 241.834 202.941C243.117 202.538 244.447 202.283 245.787 202.165C247.084 202.051 248.413 202.032 249.702 202.246C251.122 202.482 252.523 203.039 253.44 204.189C253.496 204.26 253.594 204.16 253.538 204.092V204.09Z" fill="#111010"/>
<path d="M235.035 209.058C234.54 209.328 234.336 209.99 234.584 210.491C234.623 210.57 234.743 210.5 234.704 210.421C234.49 209.984 234.68 209.409 235.107 209.176C235.185 209.134 235.117 209.014 235.037 209.057L235.035 209.058Z" fill="#111010"/>
<path d="M249.151 210.513C251.134 210.344 253.087 209.919 254.96 209.247C255.043 209.217 255.008 209.082 254.923 209.114C253.061 209.781 251.122 210.207 249.151 210.375C249.062 210.382 249.062 210.521 249.151 210.513Z" fill="#111010"/>
<path d="M257.503 209.993C258.277 210.443 259.111 210.784 259.982 211.004C260.069 211.026 260.106 210.893 260.019 210.871C259.161 210.653 258.338 210.32 257.573 209.875C257.495 209.831 257.425 209.949 257.503 209.995V209.993Z" fill="#111010"/>
<path d="M314.769 193.292C316.178 190.782 316.543 187.823 316.099 185.004C315.655 182.186 314.437 179.448 312.54 177.322C310.624 175.174 307.847 173.714 304.909 173.911C302.23 174.09 299.95 175.771 298.53 177.976C296.873 180.548 296.47 183.699 296.574 186.699C296.589 187.104 296.611 187.508 296.642 187.912C296.65 188 296.788 188 296.781 187.912C296.557 184.901 296.718 181.714 298.118 178.974C299.277 176.701 301.309 174.752 303.862 174.197C306.73 173.574 309.698 174.752 311.769 176.723C313.793 178.649 315.143 181.288 315.762 183.992C316.393 186.741 316.274 189.717 315.11 192.311C314.971 192.621 314.816 192.925 314.649 193.222C314.605 193.299 314.725 193.369 314.769 193.292Z" fill="#111010"/>
<path d="M298.955 188.537C299.603 190.458 301.041 192.067 302.884 192.923C302.964 192.96 303.036 192.842 302.955 192.803C301.145 191.962 299.726 190.388 299.089 188.5C299.061 188.415 298.926 188.452 298.955 188.537Z" fill="#111010"/>
<path d="M299.553 182.272C299.72 180.891 300.587 179.698 301.733 178.943C302.922 178.157 304.355 177.86 305.758 178.1C308.878 178.635 311.091 181.262 312.069 184.123C312.581 185.62 312.853 187.233 312.899 188.813C312.934 190.05 312.783 191.52 311.862 192.447C310.708 193.607 308.828 193.24 307.491 192.626C306.149 192.008 305.021 190.993 304.117 189.838C303.125 188.574 302.295 187.064 302.112 185.447C302.025 184.685 302.06 183.762 302.449 183.078C302.922 182.246 303.98 182.471 304.601 182.986C304.897 183.231 305.143 183.53 305.385 183.824C305.442 183.893 305.538 183.795 305.483 183.727C304.995 183.135 304.438 182.486 303.625 182.392C303.283 182.353 302.92 182.418 302.645 182.632C302.369 182.846 302.227 183.168 302.129 183.491C301.635 185.141 302.155 186.902 302.963 188.36C303.737 189.756 304.806 191.037 306.106 191.973C307.406 192.91 309.037 193.585 310.592 193.271C312.019 192.984 312.733 191.688 312.945 190.355C313.058 189.649 313.058 188.933 313.003 188.222C312.936 187.357 312.82 186.496 312.635 185.65C312.269 183.979 311.625 182.339 310.569 180.98C309.615 179.75 308.323 178.754 306.846 178.24C305.435 177.75 303.9 177.752 302.525 178.354C301.251 178.913 300.15 179.945 299.657 181.258C299.533 181.586 299.455 181.926 299.413 182.272C299.402 182.361 299.54 182.359 299.551 182.272H299.553Z" fill="#111010"/>
<path d="M318.352 193.34C320.208 193.382 321.78 194.579 322.743 196.096C323.721 197.639 324.411 199.687 323.95 201.511C323.716 202.436 323.183 203.288 322.368 203.808C322.292 203.856 322.362 203.976 322.438 203.928C324.028 202.91 324.442 200.908 324.113 199.16C323.765 197.309 322.78 195.393 321.251 194.247C320.413 193.618 319.404 193.225 318.352 193.201C318.263 193.199 318.263 193.338 318.352 193.34Z" fill="#111010"/>
<path d="M320.378 198.198C321.613 199.438 321.624 201.623 320.4 202.875C320.337 202.939 320.435 203.037 320.498 202.973C321.774 201.667 321.763 199.394 320.476 198.1C320.413 198.037 320.315 198.135 320.378 198.198Z" fill="#111010"/>
<path d="M298.018 192.208C296.537 190.795 294.499 190.028 292.454 190.039C290.409 190.05 288.471 190.88 287.042 192.337C285.613 193.793 284.786 195.668 284.744 197.656C284.696 199.888 285.631 202.082 287.116 203.73C288.815 205.615 291.197 206.782 293.663 207.285C293.75 207.303 293.787 207.169 293.7 207.152C291.559 206.715 289.496 205.786 287.876 204.302C286.256 202.818 285.125 200.757 284.916 198.557C284.531 194.512 287.619 190.639 291.696 190.222C293.946 189.993 296.278 190.746 297.918 192.309C297.983 192.37 298.081 192.272 298.016 192.211L298.018 192.208Z" fill="#111010"/>
<path d="M304.651 195.887C307.321 198.035 310.159 200.347 311.311 203.695C311.622 204.601 311.788 205.548 311.768 206.507C311.768 206.595 311.904 206.595 311.906 206.507C311.978 202.947 309.63 199.988 307.095 197.74C306.333 197.066 305.542 196.428 304.749 195.79C304.681 195.734 304.581 195.832 304.651 195.887Z" fill="#111010"/>
<path d="M312.236 202.379C313.994 204.219 314.179 207.279 312.665 209.32C312.611 209.392 312.732 209.46 312.785 209.39C314.337 207.3 314.131 204.162 312.334 202.281C312.273 202.217 312.175 202.314 312.236 202.379Z" fill="#111010"/>
<path d="M305.158 200.629C303.625 198.465 301.545 196.704 299.156 195.545C298.01 194.988 296.76 194.51 295.492 194.328C294.429 194.175 293.201 194.228 292.339 194.945C291.346 195.773 291.274 197.191 291.707 198.328C291.968 199.014 292.384 199.628 292.829 200.207C293.275 200.786 293.702 201.288 294.175 201.795C295.133 202.823 296.187 203.762 297.319 204.597C297.903 205.028 298.507 205.432 299.131 205.804C299.704 206.147 300.292 206.494 300.93 206.706C301.479 206.889 302.107 206.975 302.653 206.73C303.148 206.507 303.47 206.044 303.564 205.517C303.781 204.298 302.971 203.314 302.046 202.635C301.767 202.431 301.475 202.243 301.183 202.056C301.107 202.008 301.039 202.128 301.113 202.176C302.118 202.816 303.313 203.596 303.448 204.89C303.505 205.434 303.367 206.022 302.938 206.389C302.427 206.826 301.717 206.793 301.109 206.614C300.501 206.435 299.924 206.107 299.369 205.782C298.814 205.458 298.265 205.102 297.736 204.726C296.653 203.957 295.636 203.091 294.704 202.145C293.772 201.199 292.853 200.179 292.197 199.035C291.557 197.915 291.239 196.359 292.175 195.298C292.914 194.457 294.124 194.324 295.177 194.427C296.376 194.545 297.563 194.973 298.654 195.462C300.902 196.47 302.908 198.01 304.454 199.927C304.655 200.178 304.849 200.436 305.036 200.699C305.088 200.771 305.208 200.703 305.156 200.629H305.158Z" fill="#111010"/>
<path d="M292.657 210.983C295.61 212.679 299.106 213.382 302.488 212.985C303.445 212.873 304.39 212.674 305.311 212.388C305.396 212.362 305.359 212.228 305.274 212.255C302.053 213.255 298.533 213.175 295.351 212.067C294.439 211.75 293.561 211.346 292.725 210.867C292.647 210.823 292.577 210.943 292.655 210.987L292.657 210.983Z" fill="#111010"/>
<path d="M307.387 211.57C307.925 211.461 308.462 211.352 309 211.243C309.087 211.225 309.05 211.092 308.963 211.111C308.425 211.219 307.888 211.328 307.35 211.437C307.263 211.455 307.3 211.588 307.387 211.57Z" fill="#111010"/>
<path d="M317.086 213.113C319.308 213.926 321.884 213.575 323.809 212.2C323.881 212.148 323.811 212.029 323.738 212.08C321.84 213.437 319.314 213.78 317.121 212.978C317.038 212.947 317.001 213.081 317.084 213.111L317.086 213.113Z" fill="#111010"/>
<path d="M321.547 208.673C322.438 208.695 323.496 208.712 324.213 209.324C324.775 209.802 325.117 210.745 324.598 211.372C324.541 211.441 324.639 211.538 324.696 211.47C325.238 210.817 324.964 209.859 324.404 209.309C323.668 208.59 322.512 208.559 321.549 208.535C321.46 208.533 321.46 208.671 321.549 208.673H321.547Z" fill="#111010"/>
<path d="M288.253 152.846L289.405 152.685C289.442 152.68 289.463 152.634 289.453 152.6C289.442 152.56 289.405 152.547 289.368 152.552L288.216 152.713C288.179 152.718 288.159 152.765 288.168 152.798C288.179 152.838 288.216 152.851 288.253 152.846Z" fill="#111010"/>
<path d="M86.8982 130.16C89.6292 131.609 92.3601 133.06 95.091 134.509C95.875 134.925 96.6589 135.342 97.4429 135.757C97.5224 135.799 97.5927 135.679 97.5131 135.637C94.7822 134.188 92.0513 132.737 89.3204 131.288C88.5364 130.871 87.7524 130.455 86.9685 130.04C86.889 129.997 86.8187 130.117 86.8982 130.16Z" fill="#111010"/>
<path d="M98.6403 136.372C98.7283 136.372 98.7283 136.234 98.6403 136.234C98.5522 136.234 98.5522 136.372 98.6403 136.372Z" fill="#111010"/>
<path d="M94.8884 117.276C97.1109 119.634 99.2926 122.033 101.428 124.468C102.042 125.167 102.652 125.869 103.259 126.576C103.316 126.644 103.414 126.544 103.357 126.478C101.243 124.02 99.0893 121.601 96.8908 119.219C96.2603 118.535 95.6243 117.855 94.9864 117.179C94.9254 117.114 94.8274 117.212 94.8884 117.276Z" fill="#111010"/>
<path d="M103.723 127.059C104.274 127.691 104.827 128.323 105.378 128.956C105.437 129.022 105.535 128.924 105.476 128.858C104.925 128.226 104.372 127.593 103.821 126.961C103.762 126.894 103.664 126.992 103.723 127.059Z" fill="#111010"/>
<path d="M110.022 114.501C111.34 117.427 112.592 120.383 113.775 123.368C113.809 123.449 113.942 123.414 113.908 123.331C112.721 120.337 111.464 117.37 110.14 114.433C110.103 114.352 109.985 114.422 110.02 114.503L110.022 114.501Z" fill="#111010"/>
<path d="M123.279 114.478C123.301 117.018 123.323 119.56 123.346 122.101C123.346 122.189 123.484 122.189 123.484 122.101C123.462 119.56 123.44 117.018 123.417 114.478C123.417 114.389 123.279 114.389 123.279 114.478Z" fill="#111010"/>
<path d="M136.099 117.796C134.992 120.082 133.84 122.344 132.642 124.584C132.599 124.664 132.719 124.732 132.762 124.654C133.96 122.414 135.114 120.152 136.22 117.866C136.258 117.787 136.138 117.717 136.099 117.796Z" fill="#111010"/>
<path d="M141.653 129.277C143.079 127.879 144.506 126.482 145.932 125.084C145.995 125.021 145.897 124.924 145.834 124.986C144.408 126.384 142.981 127.781 141.555 129.179C141.493 129.241 141.591 129.339 141.653 129.277Z" fill="#111010"/>
<path d="M87.6401 157.433C88.0617 157.383 88.4832 157.331 88.9029 157.281C88.9898 157.27 88.9917 157.132 88.9029 157.143C88.4814 157.193 88.0598 157.245 87.6401 157.294C87.5532 157.305 87.5513 157.444 87.6401 157.433Z" fill="#111010"/>
<path d="M89.8619 157.055C92.0936 156.653 94.3235 156.253 96.5552 155.851C96.6421 155.834 96.6051 155.702 96.5182 155.718C94.2865 156.12 92.0566 156.52 89.8249 156.922C89.738 156.939 89.775 157.071 89.8619 157.055Z" fill="#111010"/>
<path d="M84.8139 144.428C87.9738 144.789 91.1152 145.302 94.2252 145.963C94.3121 145.982 94.349 145.849 94.2621 145.831C91.1392 145.165 87.9849 144.653 84.8139 144.289C84.7252 144.28 84.727 144.418 84.8139 144.428Z" fill="#111010"/>
<path d="M95.3726 146.089L96.0012 146.194C96.0382 146.199 96.0752 146.185 96.0863 146.146C96.0955 146.113 96.0752 146.067 96.0382 146.061L95.4095 145.956C95.3726 145.95 95.3356 145.965 95.3245 146.004C95.3152 146.037 95.3356 146.083 95.3726 146.089Z" fill="#111010"/>
<path d="M133.159 175.807C133.937 177.543 134.714 179.278 135.492 181.015C135.529 181.096 135.647 181.026 135.612 180.945C134.834 179.208 134.057 177.473 133.279 175.736C133.242 175.655 133.124 175.725 133.159 175.807Z" fill="#111010"/>
<path d="M135.988 182.593C136.058 182.731 136.13 182.87 136.201 183.01C136.217 183.043 136.265 183.054 136.295 183.034C136.328 183.011 136.337 182.973 136.319 182.94C136.249 182.801 136.176 182.663 136.106 182.523C136.09 182.49 136.042 182.479 136.012 182.499C135.979 182.521 135.969 182.56 135.988 182.593Z" fill="#111010"/>
<path d="M140.458 171.57C141.453 172.669 142.447 173.766 143.442 174.864C143.501 174.931 143.599 174.833 143.54 174.767C142.545 173.668 141.551 172.571 140.556 171.472C140.497 171.406 140.399 171.503 140.458 171.57Z" fill="#111010"/>
<path d="M105.868 161.437C105.844 161.437 105.822 161.426 105.809 161.404C102.544 156.043 101.925 148.463 104.267 142.543C104.996 140.703 105.998 139.072 107.246 137.693C107.272 137.665 107.316 137.661 107.344 137.687C107.372 137.713 107.375 137.757 107.349 137.785C106.111 139.153 105.118 140.77 104.397 142.595C102.071 148.476 102.686 156.008 105.929 161.334C105.95 161.367 105.939 161.409 105.905 161.428C105.894 161.435 105.881 161.437 105.87 161.437H105.868Z" fill="#111010"/>
<path d="M99.7424 163.421C99.7294 163.421 99.7184 163.415 99.7091 163.406C99.1489 162.807 98.6182 162.176 98.1301 161.533C98.1153 161.513 98.119 161.483 98.1393 161.468C98.1597 161.454 98.1893 161.457 98.2041 161.478C98.6903 162.119 99.2191 162.746 99.7757 163.343C99.7923 163.362 99.7923 163.391 99.7738 163.408C99.7646 163.415 99.7535 163.421 99.7424 163.421Z" fill="#111010"/>
<path d="M119.362 171.832C112.778 171.832 106.048 169.389 100.956 164.68C100.928 164.654 100.926 164.61 100.952 164.582C100.978 164.555 101.022 164.553 101.05 164.579C109.808 172.678 123.437 174.042 132.754 167.753C132.786 167.731 132.828 167.741 132.85 167.772C132.872 167.803 132.863 167.846 132.832 167.868C128.882 170.534 124.16 171.833 119.362 171.833V171.832Z" fill="#111010"/>
<path d="M134.705 166.505C134.683 166.505 134.663 166.496 134.65 166.476C134.627 166.444 134.635 166.402 134.664 166.38C138.079 163.911 140.812 160.722 142.565 157.154C142.582 157.119 142.624 157.106 142.657 157.123C142.693 157.139 142.706 157.182 142.689 157.215C140.925 160.803 138.177 164.009 134.744 166.49C134.731 166.5 134.718 166.503 134.703 166.503L134.705 166.505Z" fill="#111010"/>
<path d="M142.706 158.054C142.706 158.054 142.69 158.054 142.681 158.049C142.645 158.036 142.627 157.995 142.642 157.96C143.241 156.415 143.648 154.782 143.849 153.106C144.55 147.291 142.745 141.293 139.025 137.066C138.999 137.036 139.003 136.994 139.033 136.968C139.062 136.942 139.105 136.946 139.131 136.974C142.878 141.231 144.694 147.267 143.988 153.122C143.784 154.811 143.376 156.456 142.771 158.01C142.76 158.037 142.734 158.054 142.706 158.054Z" fill="#111010"/>
<path d="M137.849 135.786C137.83 135.786 137.814 135.779 137.799 135.766C130.442 128.292 117.336 128.036 109.752 135.219C109.724 135.244 109.68 135.244 109.654 135.217C109.628 135.189 109.628 135.145 109.656 135.119C113.295 131.673 118.494 129.765 123.906 129.887C129.297 130.007 134.397 132.116 137.897 135.67C137.925 135.698 137.923 135.742 137.897 135.768C137.884 135.781 137.865 135.788 137.849 135.788V135.786Z" fill="#111010"/>
<path d="M123.53 152.676C122.299 152.676 121.297 151.677 121.297 150.449C121.297 149.221 122.299 148.222 123.53 148.222C124.762 148.222 125.764 149.221 125.764 150.449C125.764 151.677 124.762 152.676 123.53 152.676ZM123.53 148.406C122.401 148.406 121.482 149.322 121.482 150.449C121.482 151.575 122.401 152.492 123.53 152.492C124.66 152.492 125.579 151.575 125.579 150.449C125.579 149.322 124.66 148.406 123.53 148.406Z" fill="#111010"/>
<g opacity="0.69">
<path d="M36.7054 154.651C36.6795 154.651 36.6555 154.651 36.6296 154.651C35.291 154.647 33.9394 154.529 32.6155 154.304L32.5619 154.289C31.8149 153.98 30.7628 153.353 30.0011 152.134C29.2079 150.864 29.1228 149.564 29.047 148.417L29.2948 148.401L29.047 148.415C28.9712 147.274 28.9009 146.196 29.3706 145.047C30.0917 143.285 31.5875 142.484 32.414 142.165L32.4491 142.154C34.5273 141.686 36.6111 141.57 38.6431 141.808C40.9432 142.075 42.6036 142.271 43.848 143.784C44.7059 144.826 45.2144 146.341 45.2791 148.049C45.3013 148.622 45.3475 149.817 44.8002 151.072C43.7722 153.434 41.4868 154.142 40.8101 154.302C39.4456 154.536 38.0681 154.652 36.7017 154.652L36.7054 154.651ZM32.7283 153.821C34.017 154.039 35.3298 154.151 36.6315 154.157C37.9923 154.16 39.3679 154.046 40.714 153.817C41.3167 153.673 43.4116 153.026 44.3472 150.875C44.8483 149.723 44.8057 148.605 44.7854 148.067C44.7244 146.467 44.2547 145.058 43.4671 144.098C42.4002 142.8 41.0597 142.588 38.5895 142.3C36.6185 142.07 34.5957 142.182 32.5804 142.634C31.8241 142.929 30.4818 143.655 29.8347 145.233C29.4075 146.275 29.4723 147.25 29.5462 148.38C29.622 149.522 29.6997 150.703 30.4263 151.867C31.1104 152.962 32.0516 153.53 32.7301 153.815L32.7283 153.821Z" fill="#353544"/>
<path d="M36.5703 153.45C36.55 153.45 36.5296 153.45 36.5111 153.45C35.4406 153.447 34.3589 153.355 33.2995 153.174L33.2459 153.159C32.6431 152.908 31.7944 152.403 31.1806 151.419C30.5408 150.394 30.4724 149.35 30.4114 148.43C30.3504 147.514 30.2931 146.647 30.6739 145.72C31.2564 144.297 32.4637 143.652 33.1312 143.393L33.1664 143.382C34.8304 143.008 36.4982 142.914 38.1271 143.104C39.9742 143.32 41.3074 143.475 42.3132 144.699C43.0047 145.539 43.4133 146.758 43.4669 148.132C43.4854 148.592 43.5224 149.553 43.0805 150.567C42.2503 152.473 40.4069 153.043 39.8615 153.172C38.7669 153.36 37.6649 153.452 36.5721 153.452L36.5703 153.45ZM33.4123 152.689C34.4347 152.862 35.4776 152.951 36.513 152.955C37.602 152.958 38.6911 152.868 39.7616 152.684C40.235 152.571 41.8861 152.06 42.6238 150.366C43.0195 149.457 42.9862 148.572 42.9696 148.148C42.9215 146.883 42.5517 145.768 41.9286 145.012C41.0892 143.991 40.0279 143.825 38.0698 143.596C36.5037 143.414 34.897 143.502 33.2958 143.862C32.7004 144.096 31.6447 144.667 31.1362 145.908C30.7997 146.729 30.8514 147.503 30.9106 148.399C30.9698 149.304 31.0326 150.239 31.6058 151.159C32.142 152.018 32.8816 152.466 33.416 152.693L33.4123 152.689Z" fill="#353544"/>
<path d="M31.187 150.217C31.1168 149.647 31.2462 149.057 31.5901 148.592C31.7602 148.362 31.9932 148.159 32.2631 148.056C32.5756 147.934 32.8807 147.98 33.1673 148.141C33.6554 148.412 34.0085 148.893 34.1213 149.439C34.2249 149.942 34.0751 150.556 33.6646 150.891C33.5574 150.98 33.4039 151.074 33.2597 151.057C33.1155 151.041 32.9528 150.926 32.8326 150.844C32.5497 150.652 32.3186 150.392 32.1392 150.102C31.971 149.833 31.5402 150.08 31.7103 150.353C31.9229 150.692 32.191 150.987 32.5146 151.223C32.8271 151.45 33.1913 151.638 33.5814 151.502C34.2785 151.258 34.6427 150.464 34.6501 149.769C34.6575 149.039 34.2729 148.338 33.6998 147.899C33.3854 147.658 32.9972 147.471 32.5904 147.488C32.1836 147.505 31.8157 147.689 31.5143 147.949C30.8819 148.497 30.588 149.402 30.6896 150.219C30.7063 150.353 30.7913 150.466 30.9374 150.466C31.0594 150.466 31.2018 150.351 31.1852 150.219L31.187 150.217Z" fill="#353544"/>
<path d="M33.5471 151.515C35.102 152.081 36.7754 152.247 38.4117 152.005C39.1254 151.9 39.9057 151.747 40.5325 151.369C41.2018 150.965 41.4828 150.316 41.542 149.56C41.6178 148.6 41.542 147.619 41.3867 146.67C41.3349 146.356 40.856 146.489 40.9078 146.8C41.0354 147.588 41.0871 148.388 41.0631 149.186C41.0428 149.876 40.9355 150.534 40.3069 150.925C39.7448 151.273 39.0348 151.406 38.3913 151.509C37.6629 151.625 36.9159 151.649 36.18 151.59C35.3258 151.522 34.4863 151.328 33.6802 151.035C33.3788 150.927 33.2494 151.404 33.5489 151.513L33.5471 151.515Z" fill="#353544"/>
<path d="M37.2144 150.456C37.255 149.302 37.2957 148.146 37.3345 146.992C37.3456 146.673 36.8483 146.673 36.8372 146.992C36.7965 148.146 36.7558 149.302 36.717 150.456C36.7059 150.775 37.2033 150.775 37.2144 150.456Z" fill="#353544"/>
<path d="M37.0256 147.164C37.412 147.634 37.8003 148.104 38.1867 148.574C38.3088 148.723 38.5565 148.631 38.6027 148.465C38.8912 147.429 39.1796 146.391 39.4681 145.355L39.1038 145.502C39.7805 145.834 40.4018 146.258 40.9602 146.765C41.1968 146.979 41.5481 146.631 41.3115 146.415C40.7235 145.88 40.069 145.425 39.3553 145.075C39.2129 145.005 39.0354 145.06 38.991 145.222C38.7026 146.258 38.4142 147.296 38.1257 148.332L38.5417 148.224C38.1553 147.754 37.767 147.283 37.3806 146.813C37.1772 146.566 36.8277 146.918 37.0293 147.164H37.0256Z" fill="#353544"/>
</g>
</g>
<defs>
<clipPath id="clip0_4196_12640">
<rect width="331" height="220.83" fill="white"/>
</clipPath>
</defs>
</svg>
