<svg width="342" height="136" viewBox="0 0 342 136" fill="none" xmlns="http://www.w3.org/2000/svg">
<g clip-path="url(#clip0_4196_13374)">
<path d="M202.127 88.4199C199.869 86.5522 197.205 83.8589 194.977 80.1268C193.138 77.0468 188.713 69.6364 191.748 65.1552C192.37 64.236 193.723 62.8278 196.823 62.1602C195.983 59.7929 194.654 54.9145 196.132 49.2609C197.721 43.1824 202.643 35.8674 209.972 34.7488C211.24 34.5563 216.631 33.7326 219.89 37.5132C223.119 41.2557 221.648 46.4809 221.506 46.9579C223.232 45.3988 225.627 44.8542 227.733 45.5757C230.314 46.4601 232.053 49.0996 231.886 52.0253C232.812 52.5161 234.333 53.4907 235.577 55.2492C237.833 58.4385 237.537 61.8914 237.423 62.8504C238.833 60.4762 241.679 56.5933 246.65 54.3284C248.428 53.5185 255.04 50.5061 258.415 53.6381C260.082 55.1851 260.275 57.5974 260.261 58.9362C260.83 58.9813 264.872 59.3576 266.72 62.3908C268.788 65.7882 267.418 71.3863 262.567 74.5981C263.428 74.3137 265.532 73.7448 268.104 74.3674C270.514 74.9501 272.062 76.2699 272.716 76.9011C271.999 74.9918 270.81 70.9597 272.025 66.305C273.093 62.2139 276.48 55.8753 280.791 56.1701C281.391 56.2117 283.621 56.4909 285.865 59.8554C286.046 59.1495 286.761 56.7112 289.094 55.2492C291.874 53.5046 295.185 54.252 296.937 55.2492C300.751 57.4188 302.418 63.7487 299.936 70.4515C300.334 70.6388 301.702 71.3481 302.474 72.9852C303.34 74.8287 302.826 76.5283 302.705 76.9011C304.415 76.3462 310.178 74.7143 315.853 77.5914C317.781 78.5695 321.541 80.4754 322.312 84.5023C322.937 87.7644 321.385 91.2832 318.391 93.7163C321.798 91.3543 326.029 91.4739 328.54 93.7163C330.748 95.6881 330.841 98.6016 330.847 99.245C331.017 99.2312 334.105 99.0109 334.537 100.166C334.964 101.307 332.545 103.112 331.769 103.62C326.746 106.914 318.545 103.164 315.391 101.548C312.17 102.989 308.227 104.373 303.627 105.233C290.438 107.703 279.415 104.462 273.639 102.238C271.909 103.286 269.589 104.387 266.718 105.003C258.043 106.86 250.881 102.864 248.725 101.548C247.567 102.308 245.766 103.251 243.42 103.62C237.563 104.543 233.065 101.146 232.117 100.397C229.059 101.791 224.387 103.459 218.508 103.851C208.735 104.503 201.224 101.262 197.747 99.4739C197.115 99.3196 191.571 97.9079 191.288 95.3274C191.029 92.9654 195.201 89.7934 202.131 88.4165L202.127 88.4199Z" fill="#232330"/>
<path d="M48.6567 80.4389C61.5284 77.8846 69.8889 65.3928 67.3306 52.5378C64.7722 39.6828 52.2637 31.3324 39.3921 33.8867C26.5205 36.441 18.1599 48.9328 20.7183 61.7878C23.2766 74.6428 35.7851 82.9932 48.6567 80.4389Z" fill="#2A2A3D"/>
<path opacity="0.5" d="M59.663 49.2234C61.4743 46.9502 60.6648 43.2974 57.8547 41.0646C55.0447 38.8318 51.2982 38.8645 49.4868 41.1376C47.6755 43.4108 48.485 47.0636 51.2951 49.2964C54.1051 51.5292 57.8516 51.4965 59.663 49.2234Z" fill="black"/>
<path opacity="0.5" d="M45.2734 39.8224C45.9739 38.9433 45.8263 37.6621 44.9437 36.9608C44.061 36.2594 42.7776 36.4036 42.077 37.2827C41.3765 38.1618 41.5241 39.4431 42.4068 40.1444C43.2894 40.8457 44.5728 40.7016 45.2734 39.8224Z" fill="black"/>
<path d="M14.9543 91.0023C13.7768 88.7183 13.8393 86.0389 15.1853 84.0913C16.9932 81.4779 20.8696 80.5396 24.1816 82.2479C24.5445 74.501 27.3719 69.4752 29.0253 67.0456C31.2361 63.7973 34.1104 59.571 38.0215 59.9057C41.1859 60.1762 44.0549 63.3464 45.4026 67.7375C45.611 67.4167 47.3634 64.8084 50.7083 64.5136C54.4666 64.1823 56.7817 67.0785 56.9362 67.2779C58.6765 63.747 61.9901 58.2686 68.0079 53.6885C71.6047 50.9519 76.2122 47.4452 79.7725 48.8517C83.7635 50.4264 85.6826 57.8732 83.925 67.049C84.6023 67.0039 86.0334 67.0005 87.6156 67.7392C89.2915 68.5231 90.2276 69.7145 90.6149 70.273C90.4568 69.3677 90.2832 67.6716 90.8459 65.6668C91.3808 63.7592 92.336 62.4446 92.9212 61.7509C92.5947 59.819 93.3172 57.9079 94.7674 56.9142C96.7073 55.584 99.7205 56.0557 101.457 58.2963C101.341 57.5333 100.697 52.7954 103.995 48.8517C106.78 45.522 111.313 44.0288 115.759 44.9358C115.839 44.2161 116.251 41.1014 118.297 40.099C120.791 38.8764 125.424 40.9315 127.984 46.318C129.571 45.9867 132.071 45.5861 135.134 45.6278C136.928 45.652 153.146 46.1272 161.432 58.7576C162.76 60.7832 164.803 64.5222 165.584 70.044C167.463 69.2897 170.975 68.2318 175.042 69.1232C181.526 70.5435 186.699 76.3237 188.422 83.8659C190.805 83.3838 192.57 83.7081 193.728 84.0965C199.303 85.9643 202.99 93.3504 202.724 102.525C204.834 100.979 207.519 100.582 209.645 101.604C212.61 103.026 214.157 107.049 212.644 110.818C210.13 111.777 207.026 112.673 203.417 113.121C193.862 114.307 186.1 111.685 181.965 109.897C178.763 111.111 174.197 112.455 168.585 112.892C163.455 113.291 159.098 112.803 155.898 112.202C152.508 115.542 149.115 117.692 146.211 119.112C126.404 128.791 104.387 116.667 100.999 114.735C98.6629 115.347 95.9536 115.868 92.9247 116.117C85.6756 116.714 79.5936 115.516 75.3942 114.274C72.7457 115.014 69.0239 115.746 64.5518 115.656C58.7164 115.54 54.0811 114.075 51.172 112.892C46.7173 114.595 39.265 116.768 29.9492 116.346C15.9755 115.715 6.01711 109.618 1.80728 106.673C-0.605031 102.941 -0.594611 98.1855 1.80728 94.6945C4.59473 90.6433 10.1019 89.0287 14.9561 91.0092L14.9543 91.0023Z" fill="#232330"/>
<path opacity="0.22" d="M273.85 33.3788C272.957 33.3476 271.872 33.2331 270.663 32.9366C269.621 32.6799 268.716 32.3452 267.959 32.0053C266.803 28.7571 266.455 23.0514 266.512 21.5635C266.471 23.0775 266.313 24.9175 265.905 26.9691C265.516 28.9253 264.991 30.5988 264.477 31.9602C263.781 32.255 262.971 32.5412 262.056 32.7666C260.847 33.0649 259.762 33.1794 258.869 33.2089C259.672 33.1707 262.56 33.3788 264.512 34.0621C265.015 35.4079 265.524 37.0485 265.905 38.9613C266.313 41.0129 266.471 42.8512 266.512 44.3669C266.459 42.9483 266.771 37.6867 267.805 34.3847C269.738 33.58 272.99 33.3372 273.85 33.3771V33.3788Z" fill="#FFEB62"/>
<path opacity="0.22" d="M98.2584 26.3135C97.3657 26.2823 96.2802 26.1678 95.0715 25.8713C94.0294 25.6146 93.1246 25.2799 92.3674 24.94C91.2107 21.6918 90.8634 15.9861 90.9207 14.4982C90.879 16.0122 90.721 17.8522 90.3128 19.9038C89.9238 21.86 89.3993 23.5335 88.8852 24.8949C88.1888 25.1897 87.3795 25.4759 86.4642 25.7013C85.2555 25.9996 84.17 26.1141 83.2773 26.1436C84.0797 26.1054 86.9679 26.3135 88.92 26.9968C89.4236 28.3426 89.9325 29.9831 90.3128 31.896C90.721 33.9476 90.879 35.7859 90.9207 37.3016C90.8668 35.883 91.1795 30.6213 92.2128 27.3194C94.1458 26.5147 97.3987 26.2719 98.2584 26.3118V26.3135Z" fill="#FFEB62"/>
<path opacity="0.22" d="M133.335 15.6445C132.941 15.6306 132.462 15.5803 131.927 15.4485C131.467 15.3358 131.067 15.1866 130.732 15.0375C130.221 13.6016 130.067 11.0817 130.093 10.4244C130.074 11.0939 130.004 11.9072 129.824 12.8125C129.652 13.6779 129.421 14.4166 129.193 15.0184C128.886 15.1485 128.528 15.2751 128.123 15.3739C127.588 15.5057 127.109 15.556 126.715 15.5699C127.069 15.5526 128.346 15.6445 129.209 15.9462C129.431 16.5411 129.655 17.266 129.824 18.1106C130.004 19.0176 130.074 19.8292 130.093 20.4986C130.068 19.8708 130.207 17.5469 130.664 16.0884C131.519 15.7329 132.955 15.6254 133.335 15.6427V15.6445Z" fill="#FFEB62"/>
<path opacity="0.34" d="M296.24 13.0432C295.845 13.0293 295.366 12.979 294.831 12.8472C294.371 12.7345 293.971 12.5853 293.636 12.4362C293.126 11.0002 292.971 8.48039 292.997 7.82312C292.978 8.49253 292.909 9.30589 292.728 10.2112C292.556 11.0765 292.325 11.8153 292.097 12.4171C291.79 12.5472 291.432 12.6738 291.028 12.7726C290.493 12.9044 290.013 12.9547 289.619 12.9686C289.973 12.9513 291.25 13.0432 292.113 13.3449C292.335 13.9398 292.559 14.6647 292.728 15.5092C292.909 16.4163 292.978 17.2279 292.997 17.8973C292.973 17.2695 293.112 14.9456 293.568 13.4871C294.423 13.1316 295.859 13.0241 296.24 13.0414V13.0432Z" fill="#808080"/>
<path opacity="0.22" d="M341.999 105.589C341.605 105.575 341.126 105.525 340.591 105.393C340.131 105.28 339.731 105.131 339.396 104.982C338.885 103.546 338.731 101.026 338.757 100.369C338.738 101.038 338.668 101.852 338.488 102.757C338.316 103.622 338.085 104.361 337.857 104.963C337.55 105.093 337.192 105.219 336.787 105.318C336.252 105.45 335.773 105.5 335.379 105.514C335.733 105.497 337.01 105.589 337.873 105.891C338.095 106.485 338.319 107.21 338.488 108.055C338.668 108.962 338.738 109.774 338.757 110.443C338.733 109.815 338.871 107.491 339.328 106.033C340.183 105.677 341.619 105.57 341.999 105.587V105.589Z" fill="#FFEB62"/>
<path opacity="0.34" d="M13.8431 120.104C13.263 120.084 12.5579 120.009 11.7712 119.817C11.0938 119.65 10.5051 119.432 10.0136 119.211C9.2616 117.099 9.03582 113.389 9.0723 112.423C9.04451 113.409 8.94204 114.605 8.67632 115.937C8.42276 117.21 8.08236 118.297 7.74891 119.182C7.29562 119.374 6.76939 119.56 6.17543 119.706C5.38869 119.9 4.68358 119.974 4.10352 119.993C4.62453 119.969 6.50194 120.104 7.77149 120.548C8.09799 121.422 8.42971 122.491 8.67632 123.734C8.94204 125.068 9.04451 126.263 9.0723 127.248C9.03756 126.325 9.24076 122.905 9.91287 120.758C11.1685 120.234 13.2839 120.077 13.8431 120.104Z" fill="#808080"/>
<path opacity="0.34" d="M18.7122 28.882C18.1322 28.8612 17.427 28.7866 16.6403 28.5941C15.963 28.4276 15.3742 28.2091 14.8827 27.9888C14.1307 25.8765 13.905 22.167 13.9414 21.201C13.9136 22.1861 13.8112 23.3827 13.5455 24.7146C13.2919 25.9875 12.9515 27.0749 12.618 27.9594C12.1648 28.1519 11.6385 28.3374 11.0446 28.4831C10.2578 28.6773 9.55272 28.7519 8.97266 28.771C9.49367 28.7467 11.3711 28.882 12.6406 29.3259C12.9671 30.2 13.2988 31.2683 13.5455 32.5117C13.8112 33.8454 13.9136 35.0402 13.9414 36.0253C13.9067 35.1027 14.1099 31.6828 14.782 29.5358C16.0377 29.012 18.153 28.8542 18.7122 28.882Z" fill="#808080"/>
<path opacity="0.34" d="M150.006 61.6659C149.092 61.6347 147.984 61.5168 146.748 61.2133C145.683 60.9514 144.757 60.6081 143.983 60.2612C142.8 56.9402 142.446 51.1079 142.503 49.5887C142.46 51.1374 142.298 53.0173 141.881 55.114C141.484 57.1136 140.949 58.8235 140.423 60.2161C139.711 60.5179 138.882 60.811 137.95 61.0399C136.713 61.3434 135.605 61.4613 134.691 61.4925C135.511 61.4544 138.464 61.6677 140.459 62.3648C140.973 63.7401 141.494 65.4171 141.883 67.3733C142.3 69.47 142.462 71.3499 142.505 72.8986C142.449 71.4488 142.769 66.0709 143.827 62.6961C145.801 61.8723 149.127 61.6261 150.006 61.6677V61.6659Z" fill="#808080"/>
<path opacity="0.34" d="M326.338 64.5655C325.424 64.5343 324.316 64.4163 323.08 64.1129C322.015 63.851 321.09 63.5076 320.315 63.1608C319.132 59.8397 318.778 54.0075 318.835 52.4883C318.792 54.037 318.63 55.9169 318.213 58.0135C317.816 60.0131 317.281 61.7231 316.755 63.1157C316.043 63.4174 315.214 63.7105 314.282 63.9394C313.045 64.2429 311.937 64.3608 311.023 64.3921C311.843 64.3539 314.796 64.5672 316.791 65.2644C317.305 66.6396 317.826 68.3166 318.215 70.2729C318.632 72.3695 318.794 74.2495 318.837 75.7981C318.781 74.3483 319.101 68.9704 320.159 65.5956C322.133 64.7719 325.459 64.5256 326.338 64.5672V64.5655Z" fill="#808080"/>
<path opacity="0.24" d="M293.738 39.1243C292.45 39.0844 290.885 38.9352 289.14 38.5502C287.637 38.219 286.331 37.7837 285.237 37.3449C283.568 33.1342 283.068 25.7412 283.15 23.8145C283.089 25.7776 282.861 28.1622 282.272 30.819C281.71 33.3545 280.956 35.5223 280.214 37.286C279.209 37.6692 278.042 38.0404 276.722 38.3317C274.976 38.7167 273.412 38.8659 272.123 38.9058C273.281 38.8572 277.446 39.1277 280.263 40.0105C280.989 41.7534 281.724 43.8795 282.272 46.3595C282.861 49.0163 283.089 51.4009 283.15 53.3641C283.071 51.5258 283.523 44.7068 285.015 40.4284C287.802 39.3844 292.497 39.0705 293.737 39.1243H293.738Z" fill="#FFEB62"/>
<path opacity="0.49" d="M330.416 79.9344C331.69 79.9344 332.722 78.9033 332.722 77.6313C332.722 76.3594 331.69 75.3282 330.416 75.3282C329.142 75.3282 328.109 76.3594 328.109 77.6313C328.109 78.9033 329.142 79.9344 330.416 79.9344Z" fill="#3F3D56"/>
<path opacity="0.49" d="M153.634 4.60613C154.908 4.60613 155.941 3.57501 155.941 2.30306C155.941 1.03112 154.908 0 153.634 0C152.361 0 151.328 1.03112 151.328 2.30306C151.328 3.57501 152.361 4.60613 153.634 4.60613Z" fill="#3F3D56"/>
<path opacity="0.49" d="M109.574 52.7485C110.848 52.7485 111.88 51.7173 111.88 50.4454C111.88 49.1735 110.848 48.1423 109.574 48.1423C108.3 48.1423 107.268 49.1735 107.268 50.4454C107.268 51.7173 108.3 52.7485 109.574 52.7485Z" fill="#3F3D56"/>
<path opacity="0.49" d="M71.8939 26.4817C73.5503 26.4817 74.8932 25.1408 74.8932 23.4867C74.8932 21.8326 73.5503 20.4917 71.8939 20.4917C70.2374 20.4917 68.8945 21.8326 68.8945 23.4867C68.8945 25.1408 70.2374 26.4817 71.8939 26.4817Z" fill="#3F3D56"/>
<path opacity="0.49" d="M87.231 50.0431C89.1417 50.0431 90.6906 48.4964 90.6906 46.5885C90.6906 44.6806 89.1417 43.1339 87.231 43.1339C85.3204 43.1339 83.7715 44.6806 83.7715 46.5885C83.7715 48.4964 85.3204 50.0431 87.231 50.0431Z" fill="#3F3D56"/>
<path opacity="0.49" d="M314.733 117.12C316.885 117.12 318.629 115.378 318.629 113.23C318.629 111.082 316.885 109.34 314.733 109.34C312.582 109.34 310.838 111.082 310.838 113.23C310.838 115.378 312.582 117.12 314.733 117.12Z" fill="#3F3D56"/>
<path opacity="0.49" d="M307.919 31.2544C309.829 31.2544 311.378 29.7077 311.378 27.7998C311.378 25.8919 309.829 24.3452 307.919 24.3452C306.008 24.3452 304.459 25.8919 304.459 27.7998C304.459 29.7077 306.008 31.2544 307.919 31.2544Z" fill="#3F3D56"/>
<path opacity="0.48" d="M181.841 154C171.955 154 162.365 152.066 153.338 148.254C144.618 144.571 136.787 139.299 130.062 132.584C123.337 125.869 118.058 118.049 114.369 109.342C110.55 100.327 108.615 90.7507 108.615 80.8794C108.615 71.0082 110.552 61.4317 114.369 52.4172C118.058 43.7096 123.337 35.8899 130.062 29.175C136.787 22.46 144.618 17.1879 153.338 13.5044C162.365 9.69085 171.955 7.75891 181.841 7.75891C191.726 7.75891 201.317 9.69258 210.344 13.5044C219.064 17.1879 226.895 22.46 233.62 29.175C240.344 35.8899 245.624 43.7096 249.313 52.4172C253.132 61.4317 255.067 71.0082 255.067 80.8794C255.067 90.7507 253.13 100.327 249.313 109.342C245.624 118.049 240.344 125.869 233.62 132.584C226.895 139.299 219.064 144.571 210.344 148.254C201.317 152.068 191.726 154 181.841 154ZM181.841 8.44914C141.846 8.44914 109.308 40.94 109.308 80.8777C109.308 120.815 141.846 153.306 181.841 153.306C221.836 153.306 254.374 120.815 254.374 80.8777C254.374 40.94 221.834 8.44914 181.841 8.44914Z" fill="#808080"/>
<path opacity="0.7" d="M181.696 150.589C172.257 150.589 163.099 148.742 154.478 145.102C146.152 141.585 138.673 136.55 132.251 130.139C125.829 123.725 120.787 116.26 117.266 107.944C113.619 99.3352 111.771 90.1906 111.771 80.765C111.771 71.3395 113.621 62.1948 117.266 53.5861C120.789 45.2722 125.83 37.8046 132.251 31.3914C138.672 24.9782 146.15 19.9437 154.478 16.4284C163.099 12.7865 172.257 10.9413 181.696 10.9413C191.135 10.9413 200.293 12.7882 208.914 16.4284C217.24 19.9454 224.718 24.9799 231.14 31.3914C237.563 37.8028 242.604 45.2705 246.125 53.5861C249.772 62.1948 251.62 71.3395 251.62 80.765C251.62 90.1906 249.77 99.3352 246.125 107.944C242.603 116.258 237.561 123.725 231.14 130.139C224.718 136.552 217.241 141.586 208.914 145.102C200.293 148.744 191.135 150.589 181.696 150.589ZM181.696 11.2881C143.331 11.2881 112.119 42.4558 112.119 80.765C112.119 119.074 143.331 150.242 181.696 150.242C220.06 150.242 251.272 119.074 251.272 80.765C251.272 42.4558 220.06 11.2881 181.696 11.2881Z" fill="#808080"/>
<path d="M181.101 125.076C206.286 125.076 226.703 104.689 226.703 79.5406C226.703 54.3918 206.286 34.0048 181.101 34.0048C155.916 34.0048 135.5 54.3918 135.5 79.5406C135.5 104.689 155.916 125.076 181.101 125.076Z" fill="#4D4C63"/>
<path d="M220.45 56.9001C220.747 56.9001 220.989 57.443 220.989 58.1106C220.989 58.7783 220.747 59.3211 220.45 59.3211H214.952C214.704 58.9396 214.443 58.5615 214.174 58.1817C213.861 57.743 213.544 57.3146 213.219 56.9019H220.449L220.45 56.9001Z" fill="#353544"/>
<path d="M214.952 59.3195C221.896 69.9243 221.142 81.098 220.468 85.5151C220.444 85.6659 220.392 85.8082 220.319 85.9348C219.888 84.8699 219.216 83.9265 218.377 83.1669C218.849 78.0093 218.587 68.4502 212.253 59.5414C212.201 59.4651 212.147 59.3923 212.092 59.3195H214.95H214.952Z" fill="#353544"/>
<path d="M220.32 85.9347C220.678 86.8105 220.874 87.7695 220.874 88.7702C220.874 91.4825 219.434 93.8671 217.277 95.1972C217.383 94.0873 217.409 93.0225 217.366 92.0271C218.087 91.1374 218.517 90.0015 218.517 88.7702C218.517 87.7851 218.243 86.8642 217.764 86.0769L218.288 85.9347C218.462 86.2312 218.762 86.4463 219.127 86.5035C219.186 86.5122 219.245 86.5157 219.304 86.5157C219.726 86.5157 220.11 86.2885 220.318 85.9364L220.32 85.9347Z" fill="#353544"/>
<path d="M220.32 85.9347C220.112 86.2868 219.728 86.5139 219.306 86.5139C219.247 86.5139 219.188 86.5122 219.129 86.5018C218.764 86.4446 218.462 86.2295 218.29 85.933C218.158 85.7075 218.097 85.4387 218.141 85.1595C218.226 84.6028 218.311 83.9334 218.381 83.1669C219.219 83.9265 219.891 84.8682 220.322 85.9347H220.32Z" fill="#353544"/>
<path d="M218.289 85.9347L217.765 86.0769C216.85 84.5785 215.198 83.5744 213.312 83.5744C210.443 83.5744 208.109 85.9034 208.109 88.7701C208.109 89.2748 208.182 89.7639 208.317 90.2252C207.897 91.1339 207.52 92.138 207.2 93.2132C206.29 91.9629 205.752 90.4263 205.752 88.7701C205.752 84.7675 208.887 81.4811 212.831 81.2332L212.824 81.3389C212.781 81.9875 213.274 82.546 213.923 82.5893C213.949 82.5911 213.975 82.5911 214.001 82.5911C214.618 82.5911 215.134 82.1159 215.175 81.4933C215.175 81.4794 215.177 81.4673 215.177 81.4534C216.386 81.7586 217.478 82.3569 218.378 83.1668C218.309 83.9334 218.223 84.6045 218.138 85.1595C218.095 85.4387 218.156 85.7092 218.288 85.9329L218.289 85.9347Z" fill="#353544"/>
<path d="M217.366 92.0271C217.411 93.0208 217.385 94.0874 217.277 95.1973C216.123 95.91 214.764 96.321 213.311 96.321C212.856 96.321 212.408 96.2812 211.973 96.2031C210.023 95.8545 208.328 94.755 207.199 93.2133C207.519 92.1381 207.896 91.1357 208.316 90.2252C208.946 92.3861 210.947 93.9677 213.311 93.9677C214.947 93.9677 216.409 93.2098 217.364 92.0271H217.366Z" fill="#353544"/>
<path d="M217.367 92.0271C216.412 93.2116 214.949 93.9677 213.313 93.9677C210.95 93.9677 208.949 92.3861 208.318 90.2252C209.895 86.8018 212.059 84.6982 214.008 85.0711C215.963 85.4491 217.191 88.236 217.367 92.0253V92.0271Z" fill="#353544"/>
<path d="M217.277 95.1973C217.201 96.021 217.081 96.8691 216.912 97.731C215.231 97.4067 213.548 97.0824 211.867 96.7581L211.973 96.2049C212.407 96.2829 212.855 96.3228 213.31 96.3228C214.764 96.3228 216.122 95.91 217.277 95.199V95.1973Z" fill="#353544"/>
<path d="M216.913 97.731C217.005 98.4646 216.571 99.1635 215.893 99.3959C215.261 99.6144 214.542 99.3837 214.139 98.8253C214.075 98.9762 213.601 100.046 212.444 100.36C211.829 100.527 211.303 100.403 211.055 100.325C211.284 99.1305 211.517 97.9322 211.749 96.7373C211.789 96.7442 211.828 96.7512 211.867 96.7616C213.549 97.0859 215.232 97.4102 216.913 97.7345V97.731Z" fill="#353544"/>
<path d="M212.315 66.5911C215.101 72.4008 215.412 77.874 215.179 81.4535C214.582 81.2991 213.956 81.2194 213.314 81.2194C213.152 81.2194 212.991 81.2246 212.833 81.2332C213.036 77.933 212.735 72.9245 210.189 67.6074C208.437 63.9499 206.129 61.2271 204.076 59.3195H207.388C209.38 61.4873 211.049 63.9447 212.317 66.5911H212.315Z" fill="#353544"/>
<path d="M215.178 81.4535C215.178 81.4674 215.176 81.4795 215.176 81.4934C215.137 82.116 214.619 82.5911 214.002 82.5911C213.976 82.5911 213.95 82.5911 213.924 82.5894C213.275 82.5461 212.782 81.9876 212.825 81.339L212.832 81.2332C212.99 81.2246 213.151 81.2194 213.313 81.2194C213.956 81.2194 214.581 81.2991 215.178 81.4535Z" fill="#353544"/>
<path d="M214.952 59.3194H212.094C211.488 58.4766 210.845 57.6719 210.166 56.9001H213.219C213.544 57.3146 213.862 57.743 214.174 58.18C214.442 58.5581 214.702 58.9379 214.952 59.3194Z" fill="#353544"/>
<path d="M213.221 56.9001H210.168C206.766 53.0172 202.518 50.0256 197.483 47.9654C196.675 47.3116 195.656 46.9162 194.541 46.9006C194.327 46.8312 194.114 46.7635 193.898 46.6994C189.11 45.253 185.055 44.979 183.178 44.9357C182.884 44.7033 182.571 44.5906 182.29 44.5351C182.471 44.3356 182.58 44.0755 182.587 43.7876C182.601 43.2621 182.269 42.8095 181.797 42.6465C181.908 42.6083 182.03 42.5858 182.155 42.5823C184.2 42.5355 202.019 42.5511 213.219 56.9001H213.221Z" fill="#353544"/>
<path d="M212.093 59.3194H207.385C206.697 58.5667 205.971 57.8522 205.209 57.1724V56.9001H210.166C210.843 57.6719 211.486 58.4766 212.093 59.3194Z" fill="#353544"/>
<path d="M211.976 96.2031L211.87 96.7563C211.831 96.7476 211.792 96.739 211.752 96.732C210.235 96.4407 208.72 96.1476 207.206 95.8545C207.121 95.4279 206.997 95.0065 206.834 94.5954C206.949 94.122 207.072 93.6607 207.204 93.2133C208.333 94.755 210.028 95.8545 211.978 96.2031H211.976Z" fill="#353544"/>
<path d="M211.75 96.7338C211.517 97.9286 211.284 99.127 211.055 100.322C210.791 100.301 210.258 100.22 209.751 99.8363C208.794 99.1166 208.752 97.9477 208.751 97.7847C208.304 98.0656 207.759 98.1003 207.3 97.9026C207.325 97.6737 207.335 97.4379 207.335 97.2037C207.335 96.7476 207.29 96.2967 207.203 95.8545C208.718 96.1476 210.234 96.4424 211.75 96.732V96.7338Z" fill="#353544"/>
<path d="M207.385 59.3195H204.073C203.372 58.6639 202.698 58.1055 202.086 57.6355C202.036 57.5974 201.991 57.5557 201.949 57.5107C203.045 57.4864 204.139 57.3823 205.209 57.1725C205.973 57.8523 206.697 58.5668 207.385 59.3195Z" fill="#353544"/>
<path d="M207.336 97.2054C207.336 97.4396 207.323 97.6737 207.301 97.9043C207.16 97.8454 207.028 97.7639 206.91 97.6633C206.366 97.195 206.226 96.3852 206.585 95.7383C206.792 95.7782 206.999 95.8181 207.204 95.8562C207.292 96.2984 207.336 96.7493 207.336 97.2054Z" fill="#353544"/>
<path d="M207.202 95.8562C206.996 95.8181 206.789 95.7782 206.584 95.7383C206.66 95.3516 206.74 94.9718 206.831 94.5972C206.994 95.0099 207.117 95.4296 207.202 95.8562Z" fill="#353544"/>
<path d="M206.909 97.6616C207.027 97.7639 207.161 97.8437 207.3 97.9027C206.722 103.584 199.129 108.18 188.675 109.595V107.725C192.138 107.254 195.32 106.43 197.982 105.296C202.809 103.239 205.47 100.332 205.47 97.1049C205.47 93.8775 202.809 90.9709 197.982 88.9141C193.606 87.0516 187.824 86.0232 181.702 86.0232C175.58 86.0232 169.797 87.0498 165.422 88.9141C160.592 90.9709 157.935 93.881 157.935 97.1049C157.935 100.329 160.592 103.239 165.422 105.296C168.135 106.451 171.384 107.285 174.924 107.753V109.595C164.469 108.18 156.874 103.579 156.303 97.8957C156.438 97.8385 156.563 97.7587 156.678 97.6616C157.223 97.1934 157.366 96.3835 157.004 95.7366C156.931 95.3585 156.85 94.9839 156.765 94.6198C158.91 89.1257 167.814 84.9948 179.113 84.4259C180.245 84.9514 181.419 84.6098 181.602 84.5543C181.786 84.6115 183.257 84.9549 184.46 84.4242C195.754 84.9878 204.66 89.1084 206.828 94.5972C206.737 94.9718 206.657 95.3516 206.581 95.7383C206.222 96.3852 206.362 97.1934 206.906 97.6633L206.909 97.6616Z" fill="#2A2A35"/>
<path d="M206.931 66.6743C207.072 71.7331 203.458 76.1901 198.334 77.2723C198.255 77.2896 198.171 77.2965 198.09 77.2965C197.544 77.2965 197.056 76.9185 196.938 76.3635C196.803 75.727 197.211 75.1045 197.848 74.9692C201.79 74.1385 204.68 70.5989 204.574 66.7385C204.482 63.4383 202.287 60.5005 199.069 59.3195H203.517C205.577 61.2011 206.853 63.8319 206.931 66.6743Z" fill="#353544"/>
<path d="M205.209 56.9001V57.1724C204.139 57.3823 203.045 57.4881 201.949 57.5106C201.993 57.5557 202.038 57.599 202.086 57.6355C202.698 58.1037 203.372 58.6621 204.073 59.3194H203.516C202.373 58.2702 200.989 57.4534 199.431 56.9574L199.254 56.9001H205.209Z" fill="#353544"/>
<path d="M197.983 88.9141C202.809 90.9709 205.47 93.881 205.47 97.1049C205.47 100.329 202.809 103.239 197.983 105.296C195.32 106.43 192.139 107.254 188.676 107.725V107.205C198.007 105.844 204.977 101.815 204.977 97.2055C204.977 95.6933 204.228 94.2434 202.892 92.9324C199.202 89.3026 191.025 86.7117 181.8 86.7117C169.238 86.7117 158.623 91.5172 158.623 97.2055C158.623 101.815 165.593 105.844 174.924 107.205V107.755C171.385 107.287 168.135 106.452 165.423 105.297C160.593 103.241 157.936 100.334 157.936 97.1067C157.936 93.8792 160.593 90.9727 165.423 88.9159C169.796 87.0533 175.579 86.0249 181.703 86.0249C187.826 86.0249 193.606 87.0516 197.983 88.9159V88.9141Z" fill="#353544"/>
<path d="M203.517 59.3194H199.069C199.01 59.2986 198.951 59.2761 198.892 59.2553C196.881 59.2865 194.847 59.2691 192.878 59.2535C190.856 59.2362 188.767 59.2206 186.719 59.2535H186.7C186.363 59.2535 186.059 59.1131 185.844 58.8859C185.766 58.676 185.719 58.4055 185.719 58.1089C185.719 57.7534 185.788 57.4343 185.896 57.2141C186.103 57.0216 186.377 56.9036 186.681 56.8984H192.897C194.916 56.9158 197.007 56.9314 199.055 56.8984H199.255L199.432 56.9557C200.99 57.4534 202.374 58.2702 203.517 59.3177V59.3194Z" fill="#353544"/>
<path d="M203.392 66.4957C203.397 66.8131 203.27 67.1183 203.048 67.3403C201.938 68.445 198.852 71.0186 194.163 71.0186H194.158C189.632 71.0186 186.591 68.5993 185.493 67.5571C185.264 67.3368 185.13 67.0368 185.125 66.7194C185.123 66.4021 185.247 66.0968 185.471 65.8714C186.551 64.7927 189.557 62.2729 194.14 62.1931C198.79 62.1098 201.902 64.5863 203.025 65.6564C203.255 65.8749 203.388 66.1766 203.39 66.494L203.392 66.4957ZM195.295 68.6011C197.579 68.341 199.323 67.3316 200.387 66.5321C199.309 65.7587 197.543 64.7962 195.257 64.5881C194.861 64.3141 194.382 64.1545 193.866 64.1545C193.237 64.1545 192.666 64.3886 192.232 64.7771C190.426 65.1708 189.026 66.0032 188.126 66.6848C189.073 67.368 190.485 68.1554 192.296 68.4936C192.723 68.8456 193.269 69.0589 193.866 69.0589C194.399 69.0589 194.892 68.889 195.295 68.5993V68.6011Z" fill="#353544"/>
<path d="M202.893 92.9324C204.228 94.2435 204.977 95.6933 204.977 97.2055C204.977 101.815 198.007 105.844 188.676 107.205V104.363C191.663 103.924 194.39 103.203 196.672 102.231C197.946 101.689 199.03 101.082 199.886 100.442H202.424V93.3798L202.893 92.9324Z" fill="#353544"/>
<path d="M202.893 92.9323L202.424 93.3797H199.324C198.572 92.8855 197.682 92.4137 196.673 91.9837C192.703 90.291 187.385 89.3615 181.705 89.3615C176.024 89.3615 170.704 90.291 166.734 91.9837C165.723 92.4137 164.836 92.8855 164.084 93.3797H161.376V96.4285C161.31 96.6557 161.277 96.8829 161.277 97.1048C161.277 97.3268 161.31 97.554 161.376 97.7812V100.44H163.519C164.377 101.08 165.459 101.687 166.734 102.229C169.066 103.221 171.864 103.953 174.928 104.389V107.203C165.596 105.842 158.627 101.813 158.627 97.2037C158.627 91.5154 169.24 86.7098 181.804 86.7098C191.027 86.7098 199.204 89.3025 202.896 92.9305L202.893 92.9323Z" fill="#353544"/>
<path d="M202.424 97.1049V100.44H199.887C201.328 99.3646 202.129 98.2026 202.129 97.1049H202.422H202.424Z" fill="#353544"/>
<path d="M202.424 93.3798V97.1066H202.131C202.131 95.8736 201.118 94.5573 199.324 93.3798H202.424Z" fill="#353544"/>
<path d="M199.324 93.3798C201.118 94.5556 202.131 95.8719 202.131 97.1066C202.131 98.2044 201.33 99.3681 199.889 100.442H163.52C162.372 99.5866 161.631 98.6761 161.377 97.783V96.4285C161.67 95.3984 162.617 94.3423 164.085 93.3798H199.324Z" fill="#4D4C63"/>
<path d="M188.676 100.442H199.886C199.03 101.081 197.946 101.688 196.672 102.231C194.388 103.202 191.663 103.924 188.676 104.363V100.443V100.442Z" fill="#242428"/>
<path d="M199.324 93.3798H164.084C164.836 92.8855 165.725 92.4138 166.734 91.9837C170.704 90.2911 176.022 89.3616 181.705 89.3616C187.387 89.3616 192.702 90.2911 196.674 91.9837C197.684 92.4138 198.572 92.8855 199.324 93.3798Z" fill="#242428"/>
<path d="M199.254 56.9002H199.055L199.247 56.8967L199.254 56.9002Z" fill="#353544"/>
<path d="M199.071 59.3194H186.257C186.09 59.3194 185.944 59.1512 185.844 58.8859C186.059 59.113 186.363 59.2535 186.7 59.2535H186.719C188.767 59.2206 190.856 59.2362 192.877 59.2535C194.847 59.2709 196.882 59.2865 198.892 59.2553C198.951 59.2761 199.01 59.2986 199.069 59.3194H199.071Z" fill="#353544"/>
<path d="M194.46 56.9001H199.057C197.009 56.9331 194.918 56.9175 192.898 56.9001H194.461H194.46Z" fill="#353544"/>
<path d="M197.481 47.9654C198.572 48.8464 199.271 50.1921 199.271 51.7009C199.271 54.3526 197.111 56.5065 194.459 56.5065C191.807 56.5065 189.646 54.3526 189.646 51.7009C189.646 49.0493 191.803 46.8971 194.459 46.8971C194.485 46.8971 194.513 46.8971 194.539 46.8988C195.546 47.2179 196.527 47.5752 197.481 47.9636V47.9654ZM196.911 51.7009C196.911 50.35 195.812 49.2504 194.457 49.2504C193.103 49.2504 192.001 50.3482 192.001 51.7009C192.001 53.0536 193.104 54.1531 194.457 54.1531C195.81 54.1531 196.911 53.0519 196.911 51.7009Z" fill="#353544"/>
<path d="M195.259 64.588C195.902 65.0285 196.324 65.7691 196.324 66.6067C196.324 67.4443 195.919 68.1554 195.297 68.5993C194.933 68.6427 194.552 68.6652 194.162 68.6652H194.16C193.502 68.6652 192.88 68.6011 192.298 68.4918C191.758 68.0426 191.414 67.3628 191.414 66.605C191.414 65.8471 191.732 65.2245 192.234 64.7753C192.838 64.6401 193.489 64.5568 194.182 64.5464C194.552 64.5395 194.912 64.5534 195.259 64.5863V64.588Z" fill="#353544"/>
<path d="M194.539 46.9005C195.654 46.9179 196.673 47.3133 197.481 47.9653C196.528 47.5769 195.546 47.2196 194.539 46.9005Z" fill="#353544"/>
<path d="M195.26 64.588C194.914 64.555 194.553 64.5412 194.183 64.5481C193.49 64.5602 192.839 64.6435 192.234 64.777C192.669 64.3885 193.24 64.1544 193.869 64.1544C194.386 64.1544 194.864 64.3122 195.26 64.588Z" fill="#353544"/>
<path d="M194.162 68.6669C194.553 68.6669 194.933 68.6427 195.298 68.601C194.895 68.8906 194.402 69.0606 193.869 69.0606C193.271 69.0606 192.726 68.8473 192.299 68.4952C192.879 68.6045 193.501 68.6687 194.161 68.6687H194.162V68.6669Z" fill="#353544"/>
<path d="M192.798 56.9002H186.68C188.724 56.8672 190.796 56.8828 192.798 56.9002Z" fill="#353544"/>
<path d="M190.234 79.8458C190.277 80.7407 189.884 81.4483 189.645 81.809C189.257 82.1073 188.598 82.5374 187.679 82.7888C186.967 82.9848 186.347 83.0073 185.913 82.9848C185.763 83.29 185.471 83.7756 184.931 84.1606C184.782 84.2664 184.626 84.3531 184.462 84.4242C183.591 84.3791 182.701 84.3583 181.8 84.3583C181.736 84.3583 181.67 84.3583 181.605 84.3601C181.64 81.6182 181.675 78.8747 181.708 76.1346C181.762 73.828 181.812 71.5215 181.793 69.215C181.795 69.0329 181.798 68.8508 181.8 68.6687C182.153 68.6618 183.665 68.6808 184.931 69.8445C185.989 70.8174 186.239 72.0088 186.303 72.3938C186.369 73.4396 186.435 74.4871 186.5 75.5328C187.54 76.0513 188.24 76.6687 188.662 77.1023C189.391 77.8532 190.176 78.6596 190.232 79.8458H190.234Z" fill="#2A2A35"/>
<path d="M188.675 109.595V111.423C188.675 115.215 185.598 122.407 181.8 122.407C178.001 122.407 174.924 115.215 174.924 111.423V109.595C175.384 109.659 175.851 109.716 176.322 109.765C176.577 112.892 178.932 118.013 181.798 118.013C184.663 118.013 187.018 112.892 187.274 109.765C187.746 109.715 188.213 109.659 188.672 109.595H188.675Z" fill="#4D4C63"/>
<path d="M188.675 107.725V109.595C188.215 109.659 187.748 109.716 187.277 109.765C187.295 109.578 187.302 109.395 187.302 109.225V107.892C187.764 107.842 188.224 107.788 188.677 107.724L188.675 107.725Z" fill="#4D4C63"/>
<path d="M188.676 107.205V107.725C188.223 107.79 187.763 107.843 187.301 107.894V107.385C187.763 107.333 188.223 107.271 188.676 107.205Z" fill="#4D4C63"/>
<path d="M188.676 104.361V107.203C188.223 107.269 187.763 107.332 187.301 107.384V104.538C187.766 104.486 188.223 104.427 188.676 104.361Z" fill="#4D4C63"/>
<path d="M188.676 100.442V104.361C188.223 104.427 187.766 104.486 187.301 104.538V100.44H188.676V100.442Z" fill="#4D4C63"/>
<path d="M187.301 107.894V109.227C187.301 109.397 187.294 109.579 187.277 109.767C185.518 109.954 183.685 110.051 181.801 110.051C179.917 110.051 178.084 109.954 176.325 109.767C176.308 109.579 176.301 109.397 176.301 109.227V107.916C178.05 108.096 179.861 108.188 181.704 108.188C183.546 108.188 185.49 108.09 187.301 107.895V107.894Z" fill="#353544"/>
<path d="M187.301 107.384V107.892C185.49 108.086 183.612 108.185 181.704 108.185C179.795 108.185 178.05 108.093 176.301 107.913V107.382C178.072 107.585 179.913 107.694 181.801 107.694C183.689 107.694 185.53 107.585 187.301 107.382V107.384Z" fill="#353544"/>
<path d="M187.301 104.54V107.385C185.53 107.588 183.689 107.698 181.801 107.698C179.913 107.698 178.072 107.588 176.301 107.385V104.564C178.041 104.756 179.852 104.855 181.704 104.855C183.555 104.855 185.502 104.749 187.301 104.54Z" fill="#353544"/>
<path d="M187.301 100.442V104.54C185.502 104.748 183.625 104.855 181.704 104.855C179.783 104.855 178.041 104.756 176.301 104.564V100.442H187.301Z" fill="#353544"/>
<path d="M187.104 49.6407C187.125 50.2095 187.113 51.9316 185.926 53.5635C184.487 55.5423 182.335 55.9897 181.605 56.092V44.9166C181.671 44.908 181.736 44.8906 181.798 44.8663C181.927 44.9132 182.066 44.9374 182.212 44.9357C182.389 44.9305 182.719 44.927 183.179 44.9357C183.827 45.4421 183.943 46.1549 183.964 46.3092C184.106 46.1601 184.528 45.756 185.145 45.7196C185.961 45.6745 186.79 46.3023 187.107 47.2891V49.6424L187.104 49.6407Z" fill="#2A2A35"/>
<path d="M186.256 56.9001H186.68C186.376 56.9053 186.101 57.0233 185.895 57.2158C185.99 57.0198 186.117 56.9001 186.254 56.9001H186.256Z" fill="#353544"/>
<path d="M185.895 57.214C185.785 57.4342 185.718 57.7533 185.718 58.1089C185.718 58.4054 185.765 58.6742 185.843 58.8858C185.646 58.6794 185.525 58.4037 185.52 58.095C185.514 57.7464 185.66 57.4342 185.895 57.214Z" fill="#353544"/>
<path d="M187.278 109.767C187.023 112.893 184.668 118.015 181.802 118.015C178.936 118.015 176.581 112.893 176.326 109.767C178.085 109.954 179.918 110.051 181.802 110.051C183.686 110.051 185.519 109.954 187.278 109.767Z" fill="#353544"/>
<path d="M184.464 84.4242C183.261 84.9549 181.79 84.6115 181.605 84.5542C181.605 84.4901 181.607 84.4242 181.607 84.36C181.671 84.3583 181.737 84.3583 181.802 84.3583C182.703 84.3583 183.592 84.3791 184.464 84.4242Z" fill="#2A2A35"/>
<path d="M183.176 44.9356C182.715 44.927 182.385 44.9304 182.208 44.9356C182.064 44.9374 181.923 44.9148 181.795 44.8663C181.988 44.8004 182.158 44.6842 182.288 44.535C182.568 44.5888 182.88 44.7033 183.176 44.9356Z" fill="#2A2A35"/>
<path d="M181.796 42.6465C182.269 42.8095 182.6 43.2622 182.586 43.7876C182.58 44.0773 182.47 44.3374 182.29 44.5351C181.951 44.4744 181.659 44.5004 181.508 44.523C181.449 44.516 181.367 44.5039 181.27 44.4987C181.109 44.3044 181.011 44.0564 181.004 43.7859C180.99 43.2604 181.324 42.8078 181.796 42.6448V42.6465Z" fill="#353544"/>
<path d="M181.506 44.5229C181.657 44.4986 181.949 44.4726 182.287 44.535C182.157 44.6841 181.987 44.8003 181.794 44.8662C181.728 44.8454 181.664 44.816 181.601 44.7778V44.5402C181.584 44.5385 181.551 44.5315 181.504 44.5211L181.506 44.5229Z" fill="#2A2A35"/>
<path d="M181.801 68.667C181.799 68.8491 181.796 69.0312 181.794 69.2133C181.794 69.0312 181.793 68.8491 181.789 68.667H181.801Z" fill="#2A2A35"/>
<path d="M181.79 68.6669C181.792 68.849 181.796 69.0311 181.796 69.2132C181.768 71.5197 181.738 73.8263 181.71 76.1328C181.646 78.8746 181.575 81.6182 181.605 84.3583C180.762 84.3583 179.934 84.3826 179.118 84.4242C178.963 84.3531 178.81 84.2664 178.661 84.1588C178.121 83.7721 177.829 83.2883 177.68 82.983C177.245 83.0038 176.625 82.983 175.913 82.7871C174.996 82.5356 174.335 82.1055 173.947 81.8072C173.708 81.4482 173.317 80.7389 173.359 79.8441C173.412 78.6578 174.197 77.8514 174.929 77.1005C175.351 76.6669 176.05 76.0496 177.091 75.531C177.155 74.4853 177.221 73.4378 177.287 72.3921C177.351 72.0053 177.603 70.8156 178.659 69.8427C179.925 68.6773 181.438 68.6583 181.79 68.6669Z" fill="#353544"/>
<path d="M181.708 76.1328C181.675 78.8746 181.642 81.6182 181.605 84.3583C181.603 84.3565 181.6 84.3583 181.6 84.3583C181.572 81.6165 181.643 78.8729 181.706 76.1328H181.708Z" fill="#2A2A35"/>
<path d="M181.604 44.7795C181.664 44.8177 181.729 44.8454 181.796 44.868C181.736 44.8923 181.671 44.9079 181.604 44.9183V44.7813V44.7795Z" fill="#2A2A35"/>
<path d="M181.607 84.36C181.607 84.4242 181.605 84.4901 181.605 84.5543C181.605 84.4901 181.604 84.4242 181.604 84.36C181.604 84.36 181.605 84.3583 181.609 84.36H181.607Z" fill="#2A2A35"/>
<path d="M181.603 56.092V56.1163C181.579 56.1146 181.546 56.1094 181.508 56.1042C181.536 56.1025 181.567 56.0972 181.603 56.092Z" fill="#2A2A35"/>
<path d="M181.604 44.9166V56.092C181.57 56.0972 181.538 56.1007 181.509 56.1042H181.503C181.476 56.1024 181.443 56.0972 181.406 56.092V44.9357C181.472 44.9357 181.538 44.9288 181.603 44.9166H181.604Z" fill="#2A2A35"/>
<path d="M181.604 44.7796V44.9166C181.54 44.9287 181.474 44.9357 181.408 44.9357V44.6426C181.467 44.6963 181.533 44.7414 181.604 44.7796Z" fill="#2A2A35"/>
<path d="M181.604 44.542V44.7796C181.533 44.7414 181.467 44.6964 181.408 44.6426V44.5437C181.427 44.542 181.46 44.5351 181.507 44.5247C181.554 44.5333 181.587 44.542 181.604 44.5437V44.542Z" fill="#2A2A35"/>
<path d="M181.602 84.36C181.602 84.4242 181.604 84.4901 181.604 84.5542C181.422 84.6114 180.248 84.9514 179.115 84.4259C179.931 84.3825 180.76 84.36 181.602 84.36Z" fill="#2A2A35"/>
<path d="M181.438 42.5823C181.563 42.584 181.686 42.6083 181.797 42.6465C181.325 42.8095 180.992 43.2621 181.005 43.7876C181.012 44.0581 181.11 44.3061 181.271 44.5004C180.919 44.483 180.351 44.535 179.84 44.9356C179.833 44.9426 179.823 44.9478 179.816 44.9565C177.753 45.0397 174.027 45.3918 169.696 46.6994C169.481 46.7653 169.267 46.8312 169.053 46.9005C167.942 46.9179 166.917 47.315 166.11 47.9688C161.075 50.0291 156.827 53.0189 153.426 56.9001H150.373C161.575 42.5528 179.39 42.5355 181.438 42.5823Z" fill="#353544"/>
<path d="M181.505 56.1042C181.466 56.1094 181.434 56.1129 181.408 56.1163V56.092C181.443 56.0972 181.478 56.1007 181.505 56.1042Z" fill="#2A2A35"/>
<path d="M181.506 44.5229C181.459 44.5316 181.426 44.5403 181.407 44.542V44.6409C181.356 44.5975 181.309 44.5507 181.27 44.4987C181.367 44.5039 181.447 44.516 181.507 44.5229H181.506Z" fill="#2A2A35"/>
<path d="M181.408 44.9357V56.092C180.678 55.988 178.526 55.5423 177.088 53.5635C175.899 51.9316 175.888 50.2095 175.911 49.6407V47.2873C176.229 46.3006 177.055 45.6728 177.873 45.7178C178.49 45.7525 178.912 46.1583 179.051 46.3075C179.072 46.1566 179.188 45.4594 179.815 44.9565C180.593 44.9236 181.133 44.9288 181.382 44.9357H181.408Z" fill="#353544"/>
<path d="M181.407 44.6409V44.934H181.381C181.133 44.9271 180.591 44.9218 179.814 44.9548C179.821 44.9461 179.832 44.9409 179.839 44.934C180.351 44.5334 180.917 44.4814 181.27 44.4987C181.31 44.5507 181.358 44.5975 181.407 44.6409Z" fill="#2A2A35"/>
<path d="M178.117 65.8731C178.343 66.0985 178.466 66.4038 178.462 66.7211C178.457 67.0385 178.325 67.3385 178.094 67.5588C176.997 68.601 173.956 71.0203 169.43 71.0203H169.424C164.735 71.0203 161.649 68.4467 160.539 67.342C160.317 67.12 160.19 66.8148 160.195 66.4974C160.197 66.18 160.331 65.8765 160.56 65.6598C161.684 64.5897 164.796 62.1133 169.445 62.1965C174.028 62.2763 177.033 64.7961 178.115 65.8748L178.117 65.8731ZM175.461 66.6847C174.56 66.0031 173.162 65.169 171.356 64.777C170.921 64.3886 170.35 64.1545 169.721 64.1545C169.204 64.1545 168.726 64.3123 168.33 64.588C166.045 64.7961 164.279 65.7569 163.2 66.5321C164.265 67.3316 166.01 68.3409 168.292 68.601C168.695 68.8906 169.188 69.0606 169.721 69.0606C170.319 69.0606 170.864 68.8473 171.291 68.4952C173.103 68.1571 174.515 67.3715 175.461 66.6864V66.6847Z" fill="#353544"/>
<path d="M177.697 57.2192C177.93 57.4378 178.074 57.7499 178.069 58.095C178.064 58.395 177.946 58.6656 177.758 58.872C177.829 58.6639 177.873 58.4037 177.873 58.1193C177.873 57.7638 177.807 57.443 177.697 57.2192Z" fill="#353544"/>
<path d="M177.873 58.1193C177.873 58.4038 177.829 58.6639 177.758 58.872C177.543 59.1061 177.234 59.2535 176.89 59.2535H176.871C174.823 59.2206 172.734 59.2362 170.712 59.2535C168.743 59.2709 166.707 59.2865 164.698 59.2553C164.618 59.283 164.54 59.3125 164.46 59.3402H160.049C161.197 58.2824 162.59 57.4551 164.158 56.9557L164.335 56.8984H164.535C166.582 56.9314 168.673 56.9158 170.693 56.8984H176.909C177.215 56.9036 177.489 57.0233 177.696 57.2175C177.805 57.4395 177.871 57.7621 177.871 58.1176L177.873 58.1193Z" fill="#353544"/>
<path d="M176.893 59.2518C177.237 59.2518 177.544 59.1044 177.761 58.8702C177.664 59.1564 177.509 59.3385 177.339 59.3385H164.465C164.543 59.3107 164.621 59.2813 164.703 59.2535C166.714 59.2847 168.748 59.2674 170.717 59.2518C172.739 59.2344 174.828 59.2188 176.876 59.2518H176.895H176.893Z" fill="#353544"/>
<path d="M177.337 56.9001C177.475 56.9001 177.603 57.0215 177.697 57.2192C177.49 57.025 177.216 56.9036 176.91 56.9001H177.337Z" fill="#353544"/>
<path d="M176.911 56.9002H170.789C172.792 56.8828 174.867 56.8672 176.911 56.9002Z" fill="#353544"/>
<path d="M176.301 109.225C176.301 109.395 176.308 109.577 176.326 109.765C175.853 109.714 175.386 109.659 174.928 109.595V107.753C175.381 107.812 175.841 107.868 176.303 107.914V109.225H176.301Z" fill="#4D4C63"/>
<path d="M176.301 107.384V107.914C175.839 107.868 175.379 107.812 174.926 107.753V107.203C175.379 107.269 175.839 107.332 176.301 107.384Z" fill="#4D4C63"/>
<path d="M176.301 104.562V107.384C175.839 107.332 175.379 107.269 174.926 107.203V104.389C175.379 104.453 175.836 104.51 176.301 104.562Z" fill="#4D4C63"/>
<path d="M176.301 100.442V104.564C175.836 104.512 175.379 104.455 174.926 104.39V100.442H176.301Z" fill="#4D4C63"/>
<path d="M174.926 100.442V104.39C171.863 103.955 169.066 103.223 166.732 102.231C165.457 101.688 164.376 101.081 163.518 100.442H174.926Z" fill="#242428"/>
<path d="M169.133 46.8971C171.788 46.8971 173.945 49.051 173.945 51.7009C173.945 54.3508 171.788 56.5065 169.133 56.5065C166.477 56.5065 164.32 54.3526 164.32 51.7009C164.32 50.1956 165.02 48.8481 166.107 47.9671C167.061 47.5769 168.042 47.2214 169.051 46.8988C169.077 46.8971 169.105 46.8971 169.131 46.8971H169.133ZM171.589 51.7009C171.589 50.35 170.486 49.2504 169.133 49.2504C167.78 49.2504 166.679 50.3482 166.679 51.7009C166.679 53.0536 167.778 54.1531 169.133 54.1531C170.487 54.1531 171.589 53.0519 171.589 51.7009Z" fill="#353544"/>
<path d="M171.356 64.777C171.858 65.2262 172.175 65.88 172.175 66.6066C172.175 67.3333 171.831 68.0443 171.291 68.4935C170.711 68.6027 170.09 68.6669 169.43 68.6669H169.428C169.037 68.6669 168.657 68.6426 168.292 68.601C167.67 68.1553 167.266 67.4287 167.266 66.6084C167.266 65.7881 167.688 65.0302 168.33 64.5897C168.676 64.5568 169.037 64.5429 169.407 64.5498C170.102 64.562 170.751 64.6452 171.356 64.7788V64.777Z" fill="#353544"/>
<path d="M169.132 56.9001H170.696C168.676 56.9175 166.585 56.9331 164.537 56.9001H169.134H169.132Z" fill="#353544"/>
<path d="M169.723 64.1544C170.352 64.1544 170.923 64.3885 171.357 64.777C170.753 64.6417 170.103 64.5585 169.409 64.5481C169.039 64.5412 168.679 64.555 168.332 64.588C168.728 64.314 169.207 64.1544 169.723 64.1544Z" fill="#353544"/>
<path d="M171.292 68.4953C170.865 68.8473 170.32 69.0606 169.722 69.0606C169.189 69.0606 168.696 68.8907 168.293 68.6011C168.658 68.6444 169.038 68.667 169.429 68.667H169.431C170.089 68.667 170.71 68.6028 171.292 68.4935V68.4953Z" fill="#353544"/>
<path d="M165.743 74.9691C166.381 75.1044 166.789 75.727 166.653 76.3634C166.535 76.9167 166.047 77.2965 165.502 77.2965C165.422 77.2965 165.339 77.2895 165.257 77.2722C160.134 76.19 156.521 71.733 156.66 66.6743C156.738 63.8423 158.004 61.2219 160.05 59.3402H164.462C161.275 60.5351 159.109 63.4573 159.017 66.7384C158.911 70.5989 161.801 74.1384 165.743 74.9691Z" fill="#353544"/>
<path d="M166.107 47.9671C166.915 47.3133 167.94 46.9161 169.051 46.8988C168.04 47.2214 167.059 47.5752 166.107 47.9671Z" fill="#353544"/>
<path d="M164.536 56.9002H164.338L164.345 56.8967L164.536 56.9002Z" fill="#353544"/>
<path d="M164.338 56.9001L164.161 56.9574C162.594 57.4568 161.2 58.2823 160.052 59.3419H159.494C160.206 58.6795 160.889 58.1141 161.505 57.6372C161.556 57.599 161.601 57.5574 161.643 57.5123C160.547 57.4881 159.453 57.384 158.383 57.1742V56.9019H164.338V56.9001Z" fill="#353544"/>
<path d="M161.377 93.3798H164.085C162.617 94.344 161.67 95.3984 161.377 96.4285V93.3798Z" fill="#353544"/>
<path d="M163.52 100.442H161.377V97.783C161.631 98.6761 162.372 99.5866 163.52 100.442Z" fill="#353544"/>
<path d="M161.641 57.5107C161.597 57.5557 161.552 57.5991 161.503 57.6355C160.887 58.1107 160.204 58.6778 159.492 59.3403H156.186C156.879 58.5807 157.61 57.8558 158.381 57.1725C159.451 57.3823 160.545 57.4881 161.641 57.5107Z" fill="#353544"/>
<path d="M156.187 59.3402H159.494C157.446 61.2479 155.149 63.9637 153.403 67.6073C150.857 72.9245 150.557 77.9329 150.76 81.2332C150.602 81.2245 150.44 81.2193 150.279 81.2193C149.636 81.2193 149.011 81.2991 148.414 81.4534C148.181 77.874 148.492 72.4007 151.278 66.591C152.542 63.9533 154.202 61.5045 156.187 59.3402Z" fill="#353544"/>
<path d="M158.383 56.9001V57.1724C157.612 57.8557 156.88 58.5806 156.187 59.3402H151.484C152.096 58.4904 152.744 57.6753 153.426 56.9001H158.383Z" fill="#353544"/>
<path d="M157.006 95.7366C157.365 96.3834 157.225 97.1916 156.679 97.6616C156.565 97.7587 156.44 97.8385 156.304 97.8957C156.28 97.6685 156.27 97.4361 156.27 97.2037C156.27 96.7476 156.315 96.2967 156.405 95.8528C156.606 95.8146 156.806 95.7747 157.008 95.7366H157.006Z" fill="#353544"/>
<path d="M157.007 95.7366C156.805 95.7748 156.606 95.8146 156.404 95.8528C156.484 95.4366 156.607 95.0238 156.767 94.6198C156.852 94.9839 156.934 95.3585 157.007 95.7366Z" fill="#353544"/>
<path d="M156.766 94.6197C156.608 95.0238 156.485 95.4366 156.403 95.8528C154.904 96.1424 153.407 96.432 151.907 96.7216L151.801 96.1684C153.673 95.7851 155.297 94.7047 156.391 93.2133C156.526 93.6694 156.651 94.1393 156.768 94.6197H156.766Z" fill="#353544"/>
<path d="M157.839 88.7701C157.839 90.4281 157.3 91.9629 156.39 93.2132C156.071 92.138 155.694 91.1356 155.274 90.2252C155.409 89.7639 155.482 89.2731 155.482 88.7701C155.482 85.9034 153.146 83.5744 150.279 83.5744C148.394 83.5744 146.741 84.5785 145.826 86.0769L145.247 86.0196C145.418 85.7803 145.499 85.4751 145.451 85.1595C145.366 84.6028 145.28 83.9334 145.211 83.1668C146.109 82.3569 147.203 81.7586 148.412 81.4534C148.412 81.4673 148.413 81.4794 148.413 81.4933C148.453 82.1159 148.971 82.5911 149.587 82.5911C149.614 82.5911 149.64 82.5911 149.666 82.5893C150.315 82.546 150.808 81.9875 150.765 81.3389C150.763 81.3043 150.76 81.2678 150.758 81.2332C154.702 81.4811 157.837 84.7675 157.837 88.7701H157.839Z" fill="#353544"/>
<path d="M151.907 96.7216C153.408 96.432 154.907 96.1424 156.404 95.8528C156.313 96.2985 156.268 96.7476 156.268 97.2037C156.268 97.4361 156.28 97.6685 156.303 97.8957C155.843 98.0986 155.29 98.0691 154.837 97.7847C154.835 97.9477 154.794 99.1183 153.837 99.8363C153.33 100.22 152.797 100.301 152.533 100.322C152.303 99.127 152.071 97.9287 151.838 96.7338C151.859 96.7286 151.883 96.7251 151.904 96.7216H151.907Z" fill="#353544"/>
<path d="M156.39 93.2133C155.298 94.7047 153.674 95.7834 151.8 96.1684C151.307 96.2707 150.799 96.3228 150.278 96.3228C148.825 96.3228 147.465 95.91 146.312 95.199C146.206 94.0891 146.18 93.0242 146.223 92.0288C147.178 93.2133 148.641 93.9694 150.277 93.9694C152.64 93.9694 154.641 92.3878 155.272 90.2269C155.692 91.1357 156.069 92.1398 156.388 93.215L156.39 93.2133Z" fill="#353544"/>
<path d="M155.273 90.227C154.643 92.3878 152.642 93.9695 150.278 93.9695C148.642 93.9695 147.18 93.2116 146.225 92.0288C146.4 88.2395 147.628 85.4526 149.583 85.0746C151.532 84.7 153.696 86.8053 155.273 90.2287V90.227Z" fill="#353544"/>
<path d="M150.37 56.9001H153.424C152.741 57.6771 152.093 58.4904 151.482 59.3402H148.625C148.877 58.9517 149.139 58.5667 149.415 58.18C149.728 57.7413 150.046 57.3129 150.37 56.9001Z" fill="#353544"/>
<path d="M151.84 96.7338C152.072 97.9287 152.305 99.1271 152.534 100.322C152.286 100.4 151.76 100.523 151.145 100.357C149.988 100.044 149.514 98.9744 149.45 98.8218C149.047 99.3803 148.328 99.6109 147.696 99.3924C147.018 99.16 146.584 98.4628 146.676 97.7275C148.397 97.3963 150.119 97.0651 151.84 96.7303V96.7338Z" fill="#353544"/>
<path d="M151.801 96.1684L151.906 96.7217C151.886 96.7234 151.861 96.7286 151.84 96.7338C150.119 97.0668 148.398 97.3997 146.677 97.731C146.509 96.8691 146.387 96.021 146.312 95.1973C147.464 95.91 148.826 96.321 150.279 96.321C150.8 96.321 151.307 96.269 151.801 96.1667V96.1684Z" fill="#353544"/>
<path d="M151.482 59.3402C151.432 59.4061 151.383 59.472 151.334 59.5414C145.001 68.4501 144.738 78.0092 145.211 83.1668C144.372 83.9264 143.7 84.8681 143.269 85.9347C143.196 85.8098 143.144 85.6676 143.12 85.515C142.446 81.0996 141.692 69.9381 148.625 59.3402H151.482Z" fill="#353544"/>
<path d="M150.767 81.339C150.811 81.9876 150.318 82.5461 149.668 82.5894C149.642 82.5911 149.616 82.5911 149.59 82.5911C148.973 82.5911 148.457 82.116 148.416 81.4934C148.416 81.4795 148.414 81.4674 148.414 81.4535C149.011 81.2991 149.637 81.2194 150.279 81.2194C150.441 81.2194 150.602 81.2246 150.76 81.2332C150.762 81.2679 150.766 81.3043 150.767 81.339Z" fill="#353544"/>
<path d="M143.267 56.9001H150.37C150.045 57.3146 149.728 57.743 149.415 58.18C149.141 58.5667 148.877 58.9517 148.625 59.3402H143.267C142.97 59.3402 142.729 58.7939 142.729 58.1193C142.729 57.4447 142.97 56.9001 143.267 56.9001Z" fill="#353544"/>
<path d="M146.225 92.0271C146.18 93.0208 146.206 94.0873 146.314 95.1972C144.157 93.8671 142.717 91.4825 142.717 88.7702C142.717 87.7695 142.913 86.8105 143.271 85.9347C143.479 86.2867 143.863 86.5139 144.285 86.5139C144.344 86.5139 144.403 86.5122 144.462 86.5018C144.792 86.4515 145.067 86.2694 145.247 86.0197L145.826 86.0769C145.346 86.866 145.072 87.7869 145.072 88.7702C145.072 90.0015 145.503 91.1374 146.223 92.0271H146.225Z" fill="#353544"/>
<path d="M145.453 85.1595C145.5 85.4751 145.42 85.7804 145.25 86.0197C145.069 86.2712 144.795 86.4532 144.465 86.5018C144.406 86.5105 144.347 86.5139 144.288 86.5139C143.866 86.5139 143.482 86.2868 143.273 85.9347C143.704 84.8699 144.376 83.9265 145.215 83.1669C145.285 83.9334 145.37 84.6045 145.455 85.1595H145.453Z" fill="#353544"/>
<path d="M182.021 130.973C153.834 130.973 130.902 108.074 130.902 79.9273C130.902 51.7807 153.834 28.8818 182.021 28.8818C210.208 28.8818 233.14 51.7807 233.14 79.9273C233.14 108.074 210.208 130.973 182.021 130.973ZM182.021 35.8968C157.709 35.8968 137.929 55.648 137.929 79.9256C137.929 104.203 157.709 123.954 182.021 123.954C206.334 123.954 226.113 104.203 226.113 79.9256C226.113 55.648 206.334 35.8968 182.021 35.8968Z" fill="#242428"/>
<path d="M181.895 142.516C165.044 142.516 149.201 135.962 137.285 124.064C125.37 112.165 118.807 96.3453 118.807 79.5181C118.807 62.6908 125.37 46.8711 137.285 34.9725C149.201 23.0739 165.044 16.5203 181.895 16.5203C198.747 16.5203 214.589 23.0739 226.505 34.9725C238.42 46.8711 244.983 62.6908 244.983 79.5181C244.983 96.3453 238.42 112.165 226.505 124.064C214.589 135.962 198.747 142.516 181.895 142.516ZM181.895 28.8784C153.932 28.8784 131.183 51.5951 131.183 79.5181C131.183 107.441 153.932 130.158 181.895 130.158C209.858 130.158 232.607 107.441 232.607 79.5181C232.607 51.5951 209.858 28.8784 181.895 28.8784Z" fill="#353544"/>
<path d="M172.911 29.8235C172.845 29.8235 172.779 29.8235 172.711 29.8201C170.415 29.7351 168.331 28.209 167.525 26.0221C166.804 24.0659 166.956 21.4749 168.913 20.0928C170.716 18.8216 173.206 19.0245 174.837 20.5766C174.885 20.6234 174.931 20.6703 174.976 20.7188L178.18 9.62492C178.545 8.36413 179.863 7.63749 181.126 7.99994C182.388 8.36413 183.116 9.68042 182.753 10.9412L178.828 24.5255C178.317 27.5448 175.771 29.8218 172.911 29.8218V29.8235ZM171.978 24.3382C171.983 24.352 171.989 24.3676 171.994 24.3798C172.126 24.7405 172.536 25.0561 172.888 25.07C173.135 25.0769 173.475 24.9209 173.741 24.6104C173.149 24.7492 172.515 24.659 171.978 24.3382Z" fill="#4D4C63"/>
<path d="M188.43 29.8235C185.568 29.8235 183.022 27.5482 182.513 24.5272L178.588 10.9429C178.223 9.68213 178.953 8.36585 180.215 8.00166C181.48 7.63747 182.796 8.36585 183.161 9.62664L186.365 20.7205C186.409 20.672 186.455 20.6234 186.504 20.5783C188.135 19.0262 190.625 18.8233 192.426 20.0945C194.385 21.4767 194.535 24.0676 193.816 26.0238C193.01 28.2107 190.926 29.7368 188.63 29.8218C188.564 29.8235 188.496 29.8253 188.43 29.8253V29.8235ZM187.598 24.607C187.864 24.9208 188.197 25.0769 188.454 25.0717C188.807 25.0579 189.217 24.7422 189.349 24.3815C189.354 24.3676 189.359 24.3538 189.364 24.3381C188.826 24.6572 188.189 24.7474 187.598 24.607Z" fill="#4D4C63"/>
<path d="M251.66 83.0802C251.441 83.0802 251.22 83.0507 251 82.9865L237.396 79.0672C234.303 78.5452 231.988 75.897 232.095 72.9592C232.181 70.6665 233.709 68.5855 235.899 67.7808C237.858 67.0611 240.453 67.2119 241.837 69.1664C243.11 70.9648 242.907 73.4535 241.352 75.0819C241.305 75.1305 241.258 75.1755 241.21 75.2206L252.32 78.4203C253.582 78.7845 254.31 80.1008 253.947 81.3616C253.646 82.4021 252.695 83.0802 251.661 83.0802H251.66ZM237.585 72.2273C237.571 72.2326 237.556 72.2378 237.542 72.243C237.181 72.3748 236.864 72.784 236.851 73.1361C236.842 73.3858 237 73.7223 237.311 73.9876C237.172 73.398 237.262 72.7632 237.583 72.2273H237.585Z" fill="#4D4C63"/>
<path d="M238.099 94.429C237.341 94.429 236.582 94.2833 235.901 94.0336C233.711 93.2289 232.182 91.1478 232.097 88.8552C231.99 85.9174 234.303 83.2675 237.398 82.7472L251.002 78.8278C252.264 78.4636 253.582 79.192 253.947 80.4528C254.312 81.7136 253.582 83.0299 252.32 83.3941L241.21 86.5937C241.259 86.6371 241.307 86.6839 241.352 86.7325C242.907 88.3609 243.11 90.8478 241.837 92.6462C240.936 93.9209 239.518 94.429 238.099 94.429ZM237.316 87.825C237.002 88.0904 236.842 88.4303 236.853 88.68C236.865 89.0321 237.182 89.4413 237.544 89.5731C237.558 89.5783 237.573 89.5836 237.587 89.5888C237.268 89.0511 237.177 88.4164 237.318 87.825H237.316Z" fill="#4D4C63"/>
<path d="M223.685 48.4648C223.239 48.4648 222.786 48.34 222.385 48.0764C221.285 47.3567 220.978 45.8843 221.697 44.7865L224.948 39.8284L219.344 42.7835C218.182 43.3957 216.742 42.9517 216.129 41.7915C215.516 40.6313 215.961 39.1936 217.122 38.5814L230.877 31.3289C231.838 30.8225 233.017 31.0306 233.748 31.8301C234.479 32.6313 234.573 33.8244 233.979 34.7314L225.679 47.3896C225.222 48.0868 224.462 48.4648 223.685 48.4648Z" fill="#4D4C63"/>
<path d="M111.799 82.024C110.766 82.024 109.814 81.3477 109.514 80.3054C109.149 79.0446 109.879 77.7283 111.141 77.3642L122.251 74.1645C122.202 74.1211 122.154 74.0743 122.109 74.0258C120.554 72.3973 120.351 69.9104 121.624 68.112C123.008 66.1558 125.603 66.0067 127.56 66.7246C129.75 67.5293 131.279 69.6104 131.364 71.903C131.471 74.8408 129.158 77.4908 126.063 78.011L112.459 81.9304C112.239 81.9946 112.017 82.024 111.799 82.024ZM125.874 71.1695C126.193 71.7071 126.284 72.3418 126.143 72.9332C126.457 72.6678 126.617 72.3279 126.607 72.0782C126.595 71.7262 126.277 71.3169 125.916 71.1851C125.902 71.1799 125.886 71.1747 125.872 71.1695H125.874Z" fill="#4D4C63"/>
<path d="M125.359 93.3728C123.94 93.3728 122.523 92.8647 121.622 91.5918C120.348 89.7934 120.552 87.3048 122.106 85.6763C122.153 85.6277 122.2 85.5827 122.248 85.5376L111.139 82.3379C109.876 81.9737 109.148 80.6574 109.511 79.3966C109.876 78.1359 111.194 77.4092 112.457 77.7717L126.061 81.691C129.154 82.213 131.469 84.8612 131.361 87.799C131.276 90.0917 129.748 92.1728 127.558 92.9774C126.875 93.2289 126.116 93.3728 125.357 93.3728H125.359ZM126.146 86.7723C126.285 87.362 126.194 87.9967 125.873 88.5326C125.887 88.5274 125.903 88.5222 125.916 88.517C126.278 88.3852 126.594 87.9759 126.608 87.6239C126.616 87.3741 126.458 87.0377 126.147 86.7723H126.146Z" fill="#4D4C63"/>
<path d="M140.243 49.0354C139.491 49.0354 138.751 48.6799 138.288 48.0174L129.63 35.602C129.01 34.7124 129.071 33.5175 129.778 32.6955C130.484 31.8734 131.658 31.6341 132.633 32.1128L146.589 38.9699C147.768 39.5491 148.253 40.973 147.673 42.1505C147.093 43.328 145.667 43.8119 144.488 43.2327L138.802 40.4388L142.192 45.3016C142.942 46.3786 142.676 47.8596 141.599 48.6088C141.184 48.8967 140.712 49.0354 140.241 49.0354H140.243Z" fill="#4D4C63"/>
<path d="M180.994 151.914C179.961 151.914 179.009 151.237 178.709 150.195L175.504 139.101C175.461 139.15 175.414 139.198 175.367 139.243C173.736 140.796 171.246 140.998 169.443 139.727C167.484 138.345 167.335 135.754 168.054 133.8C168.86 131.613 170.944 130.087 173.24 130.002C176.194 129.894 178.835 132.204 179.356 135.295L183.281 148.879C183.646 150.14 182.917 151.456 181.654 151.82C181.433 151.884 181.211 151.914 180.994 151.914ZM173.436 134.752C173.436 134.752 173.422 134.752 173.415 134.752C173.062 134.764 172.653 135.081 172.521 135.442C172.515 135.456 172.51 135.47 172.505 135.485C173.043 135.166 173.679 135.076 174.271 135.215C174.012 134.91 173.684 134.75 173.436 134.75V134.752Z" fill="#4D4C63"/>
<path d="M181.404 151.914C181.185 151.914 180.965 151.884 180.744 151.82C179.481 151.456 178.754 150.14 179.117 148.879L183.042 135.295C183.565 132.206 186.204 129.894 189.159 130.002C191.455 130.087 193.539 131.613 194.344 133.8C195.065 135.754 194.914 138.347 192.957 139.729C191.156 141 188.665 140.797 187.033 139.245C186.984 139.198 186.939 139.151 186.894 139.103L183.69 150.197C183.389 151.237 182.437 151.915 181.404 151.915V151.914ZM188.674 135.149C189.096 135.149 189.518 135.26 189.893 135.484C189.888 135.47 189.883 135.454 189.878 135.44C189.746 135.079 189.336 134.764 188.983 134.75C188.742 134.74 188.396 134.899 188.13 135.21C188.309 135.168 188.492 135.147 188.674 135.147V135.149Z" fill="#4D4C63"/>
<path d="M230.885 128.361C230.509 128.361 230.127 128.271 229.776 128.087L216.021 120.836C214.859 120.224 214.414 118.786 215.027 117.626C215.642 116.466 217.08 116.022 218.242 116.634L223.847 119.589L220.595 114.631C219.876 113.533 220.184 112.061 221.283 111.341C222.382 110.622 223.857 110.93 224.578 112.028L232.877 124.686C233.471 125.593 233.378 126.786 232.646 127.588C232.185 128.096 231.54 128.364 230.885 128.364V128.361Z" fill="#4D4C63"/>
<path d="M128.689 124.32C128.014 124.272 127.373 123.935 126.949 123.363C126.303 122.492 126.331 121.296 127.013 120.453L136.555 108.702C137.383 107.682 138.88 107.526 139.902 108.353C140.923 109.179 141.079 110.675 140.251 111.695L136.513 116.298L142.389 113.925C143.608 113.433 144.994 114.021 145.487 115.238C145.98 116.456 145.391 117.839 144.172 118.332L129.752 124.154C129.407 124.294 129.042 124.346 128.688 124.32H128.689Z" fill="#4D4C63"/>
<path d="M180.85 9.88339C181.865 13.5756 182.881 17.2678 183.895 20.9582C184.185 22.0126 184.475 23.067 184.765 24.1232C184.788 24.203 184.913 24.17 184.89 24.0885C183.876 20.3963 182.86 16.7041 181.846 13.0137C181.555 11.9593 181.265 10.9049 180.975 9.84871C180.953 9.76893 180.828 9.80188 180.85 9.88339Z" fill="#353535"/>
<path d="M187.778 22.4027C188.37 21.6986 189.253 21.1697 190.199 21.2287C191.074 21.2842 191.91 21.8981 192.096 22.7739C192.113 22.8554 192.238 22.8207 192.221 22.7392C192.031 21.8478 191.206 21.2148 190.321 21.109C189.301 20.9893 188.322 21.5512 187.684 22.3091C187.63 22.3733 187.722 22.4652 187.776 22.401L187.778 22.4027Z" fill="#353535"/>
<path d="M186.085 26.6083C186.465 27.2985 187.165 27.7598 187.932 27.9089C188.763 28.0702 189.621 27.8482 190.329 27.406C191.038 26.9638 191.719 26.2788 191.868 25.4359C192.017 24.5931 191.705 23.7763 191.119 23.2178C190.503 22.6299 189.501 22.4513 188.844 23.0826C188.783 23.1415 188.876 23.2335 188.936 23.1745C189.53 22.6022 190.437 22.7669 191.003 23.2872C191.569 23.8075 191.885 24.659 191.738 25.4342C191.59 26.2094 190.963 26.8407 190.324 27.2551C189.685 27.6696 188.914 27.9072 188.15 27.8118C187.345 27.7112 186.593 27.2586 186.197 26.5424C186.158 26.4695 186.045 26.5354 186.085 26.6083Z" fill="#353535"/>
<path d="M179.74 10.9309C178.892 14.2068 177.956 17.4585 176.931 20.6842C176.641 21.5982 176.343 22.5086 176.039 23.4174C176.013 23.4971 176.138 23.5318 176.164 23.452C177.239 20.2437 178.227 17.0059 179.125 13.7438C179.378 12.8195 179.627 11.8934 179.866 10.9656C179.887 10.8841 179.762 10.8494 179.741 10.9309H179.74Z" fill="#353535"/>
<path d="M173.445 21.9588C172.858 21.442 172.043 21.2564 171.282 21.4195C170.522 21.5825 169.856 22.1409 169.499 22.8433C168.71 24.3885 169.45 26.2944 170.893 27.1598C171.692 27.6384 172.668 27.8032 173.568 27.5361C173.648 27.5118 173.615 27.387 173.533 27.4112C172 27.8656 170.334 27.0193 169.641 25.6146C169.283 24.8897 169.19 24.0434 169.457 23.2734C169.704 22.5606 170.242 21.9311 170.954 21.6536C171.753 21.3432 172.706 21.4802 173.354 22.0507C173.417 22.1062 173.509 22.0143 173.446 21.9588H173.445Z" fill="#353535"/>
<path d="M174.548 23.5787C173.851 22.8884 172.715 22.5069 171.793 22.9786C171.01 23.3775 170.546 24.3695 170.904 25.1984C170.937 25.2747 171.05 25.2088 171.017 25.1325C170.682 24.3539 171.164 23.4156 171.903 23.0688C172.769 22.663 173.811 23.0306 174.457 23.6706C174.516 23.7295 174.608 23.6376 174.549 23.5787H174.548Z" fill="#353535"/>
<path d="M217.94 40.9886C221.146 39.1971 224.353 37.4074 227.559 35.6159C228.468 35.1078 229.378 34.6014 230.286 34.0933C230.359 34.0517 230.293 33.9407 230.22 33.9806C227.014 35.772 223.806 37.5617 220.6 39.3532C219.692 39.8613 218.782 40.3677 217.874 40.8759C217.801 40.9175 217.867 41.0285 217.94 40.9886Z" fill="#353535"/>
<path d="M226.52 37.175C227.602 36.5801 228.685 35.9853 229.767 35.3904C229.84 35.3505 229.774 35.2378 229.701 35.2777C228.619 35.8725 227.536 36.4674 226.454 37.0622C226.381 37.1021 226.447 37.2148 226.52 37.175Z" fill="#353535"/>
<path d="M228.047 37.9832C226.085 40.9418 224.124 43.9004 222.162 46.859C222.115 46.9284 222.228 46.9943 222.274 46.9249C224.237 43.9663 226.198 41.0077 228.16 38.0491C228.207 37.9797 228.094 37.9138 228.047 37.9832Z" fill="#353535"/>
<path d="M238.819 69.4041C239.786 70.129 240.321 71.3863 240.131 72.5846C239.951 73.724 239.147 74.7264 238.08 75.1634C238.004 75.1947 238.037 75.3213 238.115 75.2883C239.244 74.8253 240.097 73.7709 240.267 72.5569C240.442 71.3134 239.883 70.0405 238.885 69.2913C238.817 69.241 238.753 69.3538 238.819 69.4041Z" fill="#353535"/>
<path d="M235.64 70.1498C233.973 71.1522 233.358 73.2766 234.221 75.0178C234.258 75.0923 234.371 75.0264 234.334 74.9519C233.502 73.2749 234.103 71.2267 235.706 70.2625C235.778 70.2191 235.713 70.1064 235.64 70.1498Z" fill="#353535"/>
<path d="M235.015 73.9876C235.352 76.0548 237.589 76.8005 239.318 77.3433C241.569 78.0509 243.832 78.7185 246.106 79.3463C247.392 79.7019 248.685 80.0452 249.978 80.3747C250.06 80.3955 250.095 80.2707 250.013 80.2499C247.795 79.6845 245.588 79.081 243.391 78.4411C242.3 78.1237 241.211 77.7959 240.124 77.4595C239.1 77.1421 238.026 76.8646 237.078 76.3548C236.13 75.8449 235.317 75.0385 235.14 73.9529C235.126 73.8696 235.001 73.906 235.015 73.9876Z" fill="#353535"/>
<path d="M237.551 85.3849C240.673 84.1311 243.86 83.035 247.094 82.1037C248.002 81.8419 248.916 81.5939 249.831 81.358C249.913 81.3372 249.878 81.2124 249.796 81.2332C246.537 82.0743 243.32 83.0767 240.163 84.2421C239.275 84.5698 238.393 84.9097 237.516 85.2618C237.44 85.293 237.473 85.4179 237.551 85.3867V85.3849Z" fill="#353535"/>
<path d="M245.758 83.4461C247.592 82.768 249.456 82.1662 251.34 81.6425C251.42 81.6199 251.387 81.4951 251.306 81.5176C249.421 82.0413 247.558 82.6431 245.724 83.3212C245.646 83.3507 245.68 83.4756 245.758 83.4461Z" fill="#353535"/>
<path d="M235.217 86.7237C234.213 87.2822 233.969 88.6522 234.272 89.6754C234.597 90.7645 235.53 91.5675 236.567 91.9681C237.668 92.393 239.031 92.4138 239.934 91.5588C240.662 90.8703 240.992 89.75 240.648 88.7944C240.25 87.6897 239.066 86.9475 237.899 87.0671C237.815 87.0758 237.815 87.2059 237.899 87.1972C238.896 87.0949 239.899 87.636 240.381 88.5135C240.862 89.391 240.683 90.4541 240.08 91.2067C238.63 93.0207 235.516 91.9369 234.587 90.1124C234.059 89.0771 234.163 87.4573 235.282 86.8347C235.354 86.7931 235.288 86.6821 235.216 86.722L235.217 86.7237Z" fill="#353535"/>
<path d="M239.935 89.705C239.994 90.5444 239.2 91.3126 238.363 91.2294C238.28 91.2207 238.28 91.3508 238.363 91.3595C239.268 91.4479 240.13 90.6085 240.065 89.705C240.06 89.6218 239.93 89.6218 239.935 89.705Z" fill="#353535"/>
<path d="M218.118 118.899C221.327 120.371 224.424 122.085 227.373 124.025C228.2 124.568 229.014 125.13 229.817 125.709C229.884 125.758 229.95 125.645 229.883 125.597C227.017 123.535 223.998 121.688 220.855 120.082C219.974 119.631 219.084 119.201 218.184 118.788C218.108 118.753 218.042 118.866 218.118 118.901V118.899Z" fill="#353535"/>
<path d="M228.535 123.998C229.23 124.471 229.925 124.945 230.619 125.416C230.689 125.463 230.755 125.35 230.685 125.304C229.991 124.83 229.296 124.357 228.601 123.885C228.532 123.838 228.466 123.951 228.535 123.998Z" fill="#353535"/>
<path d="M222.108 112.392C223.685 115.066 225.346 117.692 227.089 120.262C227.588 120.996 228.093 121.726 228.604 122.451C228.652 122.518 228.765 122.454 228.717 122.385C226.926 119.848 225.217 117.253 223.592 114.609C223.128 113.852 222.671 113.093 222.22 112.328C222.178 112.255 222.065 112.321 222.107 112.394L222.108 112.392Z" fill="#353535"/>
<path d="M186.02 133.739C184.61 137.209 183.367 140.745 182.302 144.337C182.001 145.348 181.717 146.362 181.446 147.38C181.425 147.462 181.55 147.497 181.571 147.415C182.536 143.797 183.677 140.225 184.994 136.718C185.364 135.732 185.748 134.75 186.145 133.774C186.177 133.696 186.051 133.663 186.02 133.739Z" fill="#353535"/>
<path d="M188.06 132.511C189.077 132.357 190.138 132.657 190.927 133.317C191.715 133.978 192.169 134.948 192.228 135.95C192.282 136.857 191.971 137.806 191.286 138.426C190.477 139.16 189.373 139.068 188.506 138.477C188.044 138.161 187.65 137.726 187.419 137.214C187.297 136.947 187.223 136.654 187.226 136.361C187.228 136.118 187.311 135.471 187.697 135.582C187.777 135.605 187.811 135.48 187.731 135.457C187.245 135.317 187.099 136.023 187.096 136.361C187.092 136.906 187.328 137.429 187.657 137.856C188.318 138.713 189.512 139.366 190.602 138.988C191.547 138.661 192.157 137.696 192.318 136.746C192.502 135.66 192.155 134.5 191.453 133.661C190.627 132.672 189.296 132.194 188.027 132.386C187.943 132.398 187.98 132.525 188.061 132.511H188.06Z" fill="#353535"/>
<path d="M175.991 133.931C176.725 136.815 177.416 139.712 178.059 142.618C178.241 143.438 178.419 144.26 178.594 145.082C178.611 145.164 178.736 145.129 178.719 145.048C178.101 142.136 177.437 139.233 176.727 136.344C176.527 135.527 176.322 134.712 176.116 133.898C176.095 133.817 175.97 133.852 175.991 133.933V133.931Z" fill="#353535"/>
<path d="M124.015 85.8775C122.815 86.5938 122.499 88.0939 122.888 89.3634C123.225 90.4663 124.206 91.7115 125.503 91.4652C125.585 91.4496 125.55 91.3248 125.469 91.3404C124.218 91.578 123.291 90.3068 122.992 89.2558C122.652 88.0592 122.957 86.6597 124.083 85.9903C124.154 85.9469 124.09 85.8342 124.017 85.8775H124.015Z" fill="#353535"/>
<path d="M124.905 90.2704C125.275 90.7698 125.973 90.8496 126.548 90.7473C127.189 90.6328 127.777 90.2634 128.173 89.7501C129.033 88.6367 128.835 87.0031 127.913 85.9937C127.397 85.4301 126.695 85.059 125.947 84.915C125.865 84.8994 125.831 85.0243 125.912 85.0399C127.119 85.274 128.196 86.129 128.503 87.3482C128.823 88.6159 128.241 89.9825 126.998 90.4819C126.392 90.7247 125.454 90.7941 125.016 90.2045C124.967 90.1386 124.853 90.2027 124.903 90.2704H124.905Z" fill="#353535"/>
<path d="M111.222 80.2325C114.442 81.7985 118.015 82.3188 121.448 83.2241C122.429 83.4825 123.4 83.7756 124.35 84.1293C124.428 84.1588 124.463 84.0322 124.385 84.0045C121.054 82.761 117.501 82.3205 114.121 81.2401C113.152 80.9314 112.202 80.5655 111.288 80.1215C111.214 80.0851 111.148 80.1978 111.222 80.2343V80.2325Z" fill="#353535"/>
<path d="M117.027 77.9295C120.302 77.0502 123.579 76.171 126.855 75.2935C126.936 75.2709 126.902 75.1461 126.82 75.1686C123.545 76.0479 120.267 76.9271 116.992 77.8046C116.91 77.8272 116.945 77.952 117.027 77.9295Z" fill="#353535"/>
<path d="M123.188 71.1816C123.037 70.5104 123.334 69.8133 123.851 69.3762C124.409 68.9045 125.178 68.7658 125.889 68.8386C127.254 68.9756 128.558 69.8878 129.004 71.2076C129.272 71.9984 129.232 72.8777 128.853 73.6251C128.815 73.6997 128.928 73.7656 128.966 73.691C129.678 72.2863 129.218 70.5711 128.018 69.593C126.91 68.6895 125.081 68.2837 123.86 69.2063C123.249 69.6693 122.893 70.4567 123.065 71.218C123.084 71.2995 123.209 71.2648 123.19 71.1833L123.188 71.1816Z" fill="#353535"/>
<path d="M133.401 37.801C134.365 39.2578 135.329 40.7163 136.293 42.173C137.231 43.5899 138.254 44.9842 139.018 46.5051C139.056 46.5797 139.167 46.5138 139.131 46.4392C138.366 44.9183 137.343 43.5257 136.406 42.1071C135.468 40.6885 134.478 39.1919 133.514 37.7351C133.469 37.6658 133.356 37.7299 133.401 37.801Z" fill="#353535"/>
<path d="M133.157 36.1605C134.1 37.3831 135.045 38.6057 135.988 39.8301C136.889 41.0024 137.775 42.1921 138.508 43.4789C138.55 43.5518 138.663 43.4859 138.621 43.413C137.888 42.1262 137.002 40.9365 136.101 39.7642C135.16 38.5398 134.215 37.3189 133.27 36.0946C133.22 36.0287 133.107 36.0946 133.157 36.1605Z" fill="#353535"/>
<path d="M133.488 34.7037C136.551 36.2055 139.605 37.7299 142.646 39.2751C143.514 39.7174 144.382 40.1596 145.251 40.6053C145.325 40.6435 145.391 40.5307 145.317 40.4926C142.281 38.9335 139.235 37.397 136.178 35.883C135.305 35.4494 134.429 35.0193 133.554 34.591C133.479 34.5546 133.413 34.6655 133.488 34.7037Z" fill="#353535"/>
<path d="M142.716 40.1822C143.888 40.8082 145.058 41.4343 146.231 42.0621C146.305 42.102 146.37 41.9892 146.297 41.9494C145.124 41.3233 143.954 40.6972 142.782 40.0694C142.707 40.0296 142.643 40.1423 142.716 40.1822Z" fill="#353535"/>
<path d="M198.689 78.7256C201.315 78.3909 203.742 76.9757 205.323 74.8547C205.373 74.7871 205.26 74.7229 205.21 74.7888C203.659 76.8682 201.262 78.2677 198.687 78.5955C198.605 78.6059 198.604 78.736 198.687 78.7256H198.689Z" fill="#353544"/>
<path d="M199.513 80.0088C200.718 79.8562 201.878 79.4695 202.933 78.8659C203.006 78.8243 202.94 78.7116 202.867 78.7532C201.835 79.3446 200.694 79.7279 199.513 79.877C199.431 79.8874 199.43 80.0175 199.513 80.0071V80.0088Z" fill="#353544"/>
<path d="M157.993 74.4419C159.739 76.6704 162.188 78.6093 165.154 78.6041C165.237 78.6041 165.237 78.474 165.154 78.474C162.22 78.4792 159.81 76.5525 158.085 74.35C158.033 74.2841 157.943 74.376 157.993 74.4419Z" fill="#353544"/>
<path d="M162.653 79.459C163.28 79.7018 163.93 79.8822 164.592 79.9967C164.673 80.0105 164.708 79.8857 164.626 79.8718C163.965 79.7556 163.315 79.577 162.688 79.3342C162.61 79.3047 162.575 79.4296 162.653 79.459Z" fill="#353544"/>
<path d="M172.75 78.3491C171.895 79.5128 171.821 81.1482 172.557 82.3882C172.601 82.4593 172.712 82.3951 172.67 82.3223C171.954 81.1187 172.034 79.5423 172.863 78.4151C172.913 78.3474 172.8 78.2832 172.75 78.3491Z" fill="#353544"/>
<path d="M190.728 78.4341C191.631 79.6082 191.45 81.4188 190.33 82.3882C190.266 82.4437 190.36 82.5356 190.422 82.4801C191.582 81.476 191.775 79.5839 190.841 78.3682C190.79 78.3023 190.678 78.3682 190.728 78.4341Z" fill="#353544"/>
<path d="M192.383 81.8142C192.206 82.1575 191.977 82.4697 191.703 82.7402C191.644 82.7992 191.736 82.8911 191.795 82.8321C192.076 82.5529 192.314 82.2321 192.496 81.8801C192.534 81.8055 192.422 81.7396 192.383 81.8142Z" fill="#353544"/>
<path d="M171.209 81.4604C171.304 81.9252 171.525 82.357 171.841 82.7091C171.896 82.7715 171.988 82.6796 171.933 82.6172C171.631 82.2807 171.426 81.868 171.334 81.4258C171.316 81.3442 171.191 81.3789 171.209 81.4604Z" fill="#353544"/>
<path d="M186.692 63.5336C188.182 61.9468 190.015 60.7034 192.041 59.9039C192.118 59.8727 192.085 59.7478 192.007 59.779C189.959 60.5854 188.108 61.8393 186.6 63.4417C186.543 63.5024 186.635 63.5943 186.692 63.5336Z" fill="#353544"/>
<path d="M170.447 59.8866C172.666 60.4814 174.688 61.7058 176.244 63.3949C176.301 63.4574 176.393 63.3637 176.336 63.303C174.764 61.5983 172.722 60.3618 170.482 59.7617C170.4 59.7392 170.365 59.8658 170.447 59.8866Z" fill="#353544"/>
<path d="M150.035 55.3549C152.969 51.7807 156.607 48.7978 160.687 46.6178C161.84 46.0022 163.026 45.4507 164.24 44.9686C164.316 44.9374 164.283 44.8125 164.205 44.8437C159.891 46.5606 155.93 49.1307 152.602 52.3668C151.663 53.2808 150.773 54.2502 149.941 55.263C149.889 55.3272 149.98 55.4191 150.033 55.3549H150.035Z" fill="#353544"/>
<path d="M168.728 43.6038C171.064 42.7523 173.499 42.1956 175.972 41.9493C176.055 41.9407 176.055 41.8106 175.972 41.8193C173.486 42.0673 171.039 42.6239 168.693 43.4789C168.615 43.5067 168.648 43.6333 168.728 43.6038Z" fill="#353544"/>
<path d="M179.761 41.5713C180.102 41.5297 180.442 41.4898 180.782 41.4482C180.817 41.4447 180.847 41.4222 180.848 41.3823C180.848 41.3511 180.819 41.3129 180.782 41.3164C180.442 41.358 180.102 41.3979 179.761 41.4395C179.727 41.443 179.697 41.4655 179.695 41.5054C179.695 41.5366 179.725 41.5748 179.761 41.5713Z" fill="#353544"/>
<path d="M199.09 44.6912C199.805 44.8629 200.486 45.1473 201.109 45.5375C201.181 45.5826 201.247 45.4698 201.175 45.4247C200.543 45.0293 199.85 44.7397 199.124 44.5663C199.043 44.5472 199.008 44.6721 199.09 44.6912Z" fill="#353544"/>
<path d="M202.758 46.441C206.093 48.3469 209.167 50.7003 211.869 53.4282C212.625 54.1913 213.351 54.9821 214.047 55.7989C214.101 55.8631 214.193 55.7712 214.139 55.707C211.659 52.7952 208.786 50.2199 205.62 48.0712C204.712 47.4538 203.778 46.8746 202.824 46.3283C202.751 46.2867 202.685 46.3994 202.758 46.441Z" fill="#353544"/>
<path d="M174.973 112.633C175.343 114.182 175.909 115.675 176.658 117.082C176.698 117.156 176.809 117.09 176.771 117.016C176.027 115.62 175.466 114.137 175.098 112.599C175.079 112.517 174.952 112.552 174.973 112.633Z" fill="#353544"/>
<path d="M177.957 119.289C178.469 120.46 179.501 121.369 180.715 121.762C181.955 122.165 183.318 121.955 184.414 121.261C185.04 120.866 185.561 120.323 185.924 119.679C185.965 119.607 185.852 119.541 185.811 119.614C185.189 120.72 184.079 121.509 182.836 121.761C181.592 122.012 180.295 121.65 179.314 120.855C178.775 120.418 178.348 119.86 178.07 119.225C178.037 119.149 177.924 119.215 177.957 119.291V119.289Z" fill="#353544"/>
<path d="M186.653 118.445C186.841 117.982 187.089 117.543 187.386 117.141C187.436 117.073 187.324 117.009 187.273 117.075C186.969 117.487 186.719 117.935 186.526 118.41C186.495 118.488 186.62 118.521 186.651 118.445H186.653Z" fill="#353544"/>
<path d="M188.081 115.477C188.621 114.137 188.949 112.725 189.06 111.284C189.067 111.201 188.937 111.201 188.93 111.284C188.819 112.713 188.489 114.113 187.954 115.443C187.923 115.521 188.05 115.554 188.079 115.477H188.081Z" fill="#353544"/>
<path d="M150.656 101.538C151.393 102.096 152.403 102.268 153.275 101.942C154.074 101.643 154.696 100.97 154.949 100.161C154.974 100.081 154.849 100.046 154.824 100.126C154.58 100.912 153.966 101.567 153.183 101.838C152.353 102.125 151.417 101.954 150.722 101.425C150.656 101.375 150.59 101.487 150.656 101.538Z" fill="#353544"/>
<path d="M153.459 103.166C153.85 103.131 154.218 102.982 154.522 102.738C154.588 102.686 154.494 102.594 154.43 102.646C154.154 102.868 153.812 103.007 153.459 103.036C153.376 103.043 153.376 103.173 153.459 103.166Z" fill="#353544"/>
<path d="M208.799 100.57C209.196 101.35 209.976 101.911 210.85 102.015C211.723 102.119 212.689 101.713 213.246 100.993C213.297 100.927 213.205 100.835 213.154 100.901C212.628 101.581 211.774 101.973 210.912 101.891C210.051 101.81 209.295 101.262 208.91 100.506C208.872 100.431 208.759 100.497 208.797 100.572L208.799 100.57Z" fill="#353544"/>
<path d="M209.695 102.675C210.258 103.055 211.02 103.079 211.609 102.743C211.682 102.701 211.616 102.589 211.543 102.63C210.993 102.946 210.286 102.916 209.76 102.563C209.69 102.516 209.624 102.628 209.694 102.675H209.695Z" fill="#353544"/>
<path d="M182.248 130.825C168.573 130.825 155.716 125.508 146.048 115.852C136.379 106.196 131.053 93.359 131.053 79.7037C131.053 66.0483 136.378 53.2098 146.048 43.5553C155.718 33.9008 168.573 28.5819 182.248 28.5819C195.923 28.5819 208.78 33.8991 218.448 43.5553C228.117 53.2115 233.443 66.0483 233.443 79.7037C233.443 93.359 228.118 106.198 218.448 115.852C208.778 125.507 195.923 130.825 182.248 130.825ZM182.248 29.7941C154.688 29.7941 132.267 52.1831 132.267 79.7037C132.267 107.224 154.688 129.613 182.248 129.613C209.808 129.613 232.229 107.224 232.229 79.7037C232.229 52.1831 209.808 29.7941 182.248 29.7941Z" fill="#4D4C63"/>
<path d="M32.6187 130.503C32.8393 129.074 33.6017 125.51 36.5142 123.502C40.7622 120.573 48.1763 121.92 53.3935 127.91C53.9458 127.407 55.184 126.426 57.0284 126.094C60.1945 125.527 62.5929 127.333 63.0011 127.65C62.1119 124.945 63.2372 122.005 65.5975 120.649C68.1678 119.173 71.5927 119.921 73.3884 122.465C72.6451 121.441 69.8438 117.338 70.5315 111.832C71.5128 103.978 78.6993 100.471 79.361 100.162C84.757 97.6443 91.2698 98.4716 96.2403 102.237C98.1941 98.7716 102.041 97.1223 105.329 98.0883C108.818 99.1115 110.122 102.62 110.263 103.015C110.676 103.192 112.526 104.038 113.378 106.126C114.57 109.04 112.72 111.667 112.599 111.832C116.577 109.812 120.97 110.679 122.986 113.388C124.66 115.637 124.16 118.434 124.024 119.093C124.556 118.694 127.303 116.717 131.036 117.278C135.723 117.982 137.851 122.068 138.047 122.465C138.351 122.265 140.989 120.6 144.019 121.686C146.482 122.569 148.217 124.912 148.434 127.65C149.542 127.66 151.18 127.751 153.108 128.169C156.546 128.913 157.687 129.998 159.6 130.243C161.467 130.482 164.2 129.939 167.91 126.353C168.714 123.778 170.977 121.931 173.624 121.686C176.099 121.455 178.516 122.664 179.857 124.797C179.991 124.613 182.396 121.398 186.09 121.686C189.372 121.943 192.245 124.853 192.582 128.687C193.145 128.039 194.074 127.121 195.439 126.353C196.991 125.479 198.435 125.174 199.334 125.056C199.855 124.048 201.153 121.889 203.749 120.389C207.844 118.02 212.011 119.116 212.837 119.352C212.98 119.151 215.724 115.406 220.109 115.722C223.77 115.984 226.964 118.96 227.639 122.983C228.94 122.425 230.443 122.624 231.535 123.502C232.683 124.424 233.192 125.947 232.834 127.392C233.22 127.758 235.097 129.466 238.029 129.466C238.56 129.466 241.101 129.41 243.223 127.392C241.604 125.831 240.861 123.627 241.405 121.686C242.174 118.944 245.434 117.014 248.935 117.796C247.761 114.576 248.343 111.038 250.493 108.721C253.329 105.665 258.494 105.16 262.438 107.942C264.356 106.383 266.955 105.979 269.191 106.905C272.251 108.173 273.017 111.268 273.086 111.572C273.366 111.249 277.206 106.926 281.916 107.682C286.761 108.461 290.922 114.361 289.707 121.426C289.929 121.088 292.02 118.029 295.94 117.796C300.254 117.539 302.791 120.944 302.951 121.167C304.085 120.987 305.961 120.845 308.145 121.428C311.511 122.324 313.568 124.4 314.379 125.317C315.101 125.057 316.89 124.525 319.052 125.057C320.544 125.425 321.595 126.148 322.168 126.613C323.745 123.908 326.624 122.383 329.44 122.723C333.523 123.216 336.418 127.499 335.673 129.724C335.301 130.832 333.371 133.39 319.052 132.317C317.109 133.316 314.856 134.238 312.3 134.91C300.79 137.931 290.664 133.876 286.33 131.798C284.957 133.023 282.892 134.509 280.097 135.428C272.169 138.04 265.059 133.897 263.737 133.094C262.742 133.604 260.257 134.705 256.985 134.391C254.187 134.122 252.197 132.948 251.271 132.317C249.333 133.226 246.196 134.398 242.183 134.651C236.823 134.989 232.645 133.513 230.496 132.577C229.46 133.344 227.21 134.786 224.004 135.17C219.727 135.681 216.502 133.978 215.435 133.354C214.461 133.904 212.328 134.93 209.463 134.91C205.856 134.884 203.33 133.219 202.452 132.575C200.798 133.021 198.787 133.427 196.479 133.612C193.525 133.848 190.958 133.654 188.949 133.352C187.26 133.963 184.65 134.674 181.418 134.649C176.988 134.616 173.605 133.219 171.811 132.315C169.721 132.853 167.375 133.318 164.799 133.612C158.757 134.304 153.504 133.824 149.478 133.094C147.54 133.86 144.792 134.688 141.428 134.91C135.938 135.27 131.595 133.831 129.223 132.835C125.812 135.008 121.015 137.445 114.94 138.799C99.0972 142.332 85.9988 135.95 81.7004 133.612C76.3634 134.955 69.9827 136.091 62.744 136.465C59.1282 136.652 55.7398 136.626 52.6154 136.465C47.9471 138.01 40.5417 139.713 31.8407 138.281C26.8563 137.459 20.0222 135.374 20.1542 133.614C20.1924 133.099 20.9114 131.49 32.6187 130.503Z" fill="#595959"/>
<path d="M75.1808 119.749C73.6299 116.593 73.6473 112.775 75.0645 109.576C76.4816 106.376 79.1753 104.078 82.3622 102.908C85.7054 101.68 89.4307 101.871 92.6593 103.366C95.933 104.881 98.479 107.68 99.7104 111.066C100.28 112.632 100.6 114.329 100.478 115.999C100.369 117.512 99.8893 119.088 98.8003 120.191C98.5329 120.462 98.2324 120.694 97.9059 120.892C97.8347 120.935 97.899 121.048 97.9719 121.004C100.836 119.281 100.976 115.32 100.261 112.427C99.3908 108.906 97.1209 105.788 93.9983 103.927C90.8756 102.067 87.0809 101.475 83.5675 102.396C80.2434 103.267 77.2284 105.415 75.5108 108.41C73.7932 111.405 73.3694 115.333 74.5782 118.667C74.7206 119.059 74.8856 119.442 75.0697 119.816C75.1061 119.891 75.219 119.825 75.1826 119.751L75.1808 119.749Z" fill="#1A1A1A"/>
<path d="M98.332 114.397C98.7697 117.956 96.7881 121.249 94.2195 123.55C92.8058 124.816 91.1541 125.878 89.3827 126.566C87.6112 127.255 85.4924 127.53 83.5994 126.819C81.8939 126.179 80.4715 124.896 79.5146 123.363C78.4448 121.648 77.9168 119.641 77.7466 117.642C77.5781 115.668 77.7865 113.681 78.6514 111.881C79.393 110.337 80.5323 108.986 81.9338 107.998C84.9228 105.891 88.9884 105.709 92.2066 107.422C92.5904 107.627 92.9603 107.859 93.3129 108.112C93.3806 108.161 93.4466 108.048 93.3789 107.999C90.3726 105.835 86.1801 105.502 82.8995 107.25C81.385 108.057 80.0947 109.265 79.1638 110.703C78.1252 112.307 77.6059 114.146 77.5625 116.052C77.4757 119.915 78.8286 124.222 82.2951 126.325C83.9745 127.345 85.9231 127.602 87.8335 127.177C89.7439 126.752 91.6178 125.742 93.2035 124.549C95.9909 122.453 98.3998 119.305 98.5213 115.696C98.5352 115.262 98.5144 114.827 98.4606 114.397C98.4501 114.316 98.3199 114.314 98.3303 114.397H98.332Z" fill="#1A1A1A"/>
<path d="M89.4786 110.811C91.1337 112.342 92.6517 114.763 91.8875 117.094C91.5402 118.153 90.7239 118.996 89.734 119.489C88.6937 120.006 87.5075 120.108 86.3873 119.813C85.0917 119.473 83.9559 118.662 83.1361 117.612C83.084 117.546 82.9937 117.638 83.0441 117.704C84.5151 119.589 87.0889 120.694 89.4092 119.775C90.4495 119.364 91.3665 118.59 91.8406 117.565C92.339 116.489 92.2991 115.264 91.9205 114.158C91.4655 112.831 90.5919 111.666 89.5707 110.72C89.5099 110.663 89.4161 110.755 89.4786 110.812V110.811Z" fill="#1A1A1A"/>
<path d="M103.209 106.309C105.076 106.236 106.941 106.818 108.445 107.925C109.961 109.04 111.024 110.681 111.479 112.502C111.74 113.542 111.795 114.629 111.637 115.689C111.625 115.771 111.75 115.807 111.762 115.724C112.045 113.832 111.658 111.869 110.687 110.219C109.717 108.57 108.176 107.332 106.387 106.68C105.371 106.31 104.289 106.137 103.209 106.18C103.126 106.184 103.126 106.314 103.209 106.31V106.309Z" fill="#1A1A1A"/>
<path d="M109.01 113.37C110.162 115.677 109.978 118.535 108.668 120.737C108.297 121.362 107.836 121.927 107.296 122.414C107.234 122.47 107.326 122.562 107.388 122.506C109.339 120.746 110.223 117.971 109.799 115.396C109.679 114.668 109.452 113.964 109.122 113.305C109.083 113.23 108.972 113.296 109.009 113.37H109.01Z" fill="#1A1A1A"/>
<path d="M113.129 119.53C115.037 118.296 117.575 119.055 119.374 120.129C121.173 121.202 122.566 122.723 123.335 124.596C124.105 126.469 124.056 128.578 123.151 130.409C122.246 132.241 120.595 133.73 118.669 134.48C116.171 135.451 113.346 135.286 110.864 134.351C110.786 134.322 110.751 134.447 110.829 134.476C113.123 135.34 115.709 135.551 118.07 134.825C120.115 134.195 121.903 132.829 122.99 130.98C124.077 129.131 124.303 127.064 123.653 125.089C123.004 123.113 121.618 121.471 119.926 120.326C118.023 119.04 115.176 118.049 113.061 119.418C112.991 119.463 113.056 119.575 113.127 119.53H113.129Z" fill="#1A1A1A"/>
<path d="M106.913 130.609C108.436 131.814 110.288 132.572 112.221 132.778C114.107 132.981 116.028 132.629 117.731 131.802C118.693 131.335 119.576 130.72 120.347 129.981C120.408 129.924 120.315 129.832 120.255 129.889C118.914 131.172 117.226 132.072 115.413 132.473C113.6 132.874 111.635 132.742 109.862 132.104C108.831 131.732 107.863 131.197 107.005 130.517C106.941 130.465 106.847 130.557 106.913 130.609Z" fill="#1A1A1A"/>
<path d="M121.599 126.441C121.913 126.889 121.802 127.57 121.347 127.882C121.279 127.929 121.344 128.042 121.413 127.995C121.922 127.645 122.07 126.884 121.712 126.375C121.663 126.308 121.55 126.372 121.599 126.441Z" fill="#1A1A1A"/>
<path d="M85.2326 130.813C87.5633 134.091 91.4588 136.12 95.4637 136.319C96.5908 136.375 97.7232 136.281 98.826 136.037C98.9076 136.019 98.8729 135.893 98.7913 135.912C94.9097 136.772 90.6964 135.681 87.6293 133.18C86.7627 132.475 85.9916 131.658 85.3455 130.747C85.2969 130.68 85.184 130.744 85.2326 130.813Z" fill="#1A1A1A"/>
<path d="M97.2697 135.279C99.913 136.035 102.777 135.947 105.373 135.045C106.108 134.79 106.82 134.469 107.497 134.091C107.57 134.049 107.504 133.938 107.431 133.978C105.061 135.303 102.294 135.865 99.5934 135.595C98.8189 135.517 98.053 135.367 97.3027 135.154C97.2228 135.132 97.1881 135.256 97.268 135.279H97.2697Z" fill="#1A1A1A"/>
<path d="M64.8251 129.533C65.2332 127 67.2913 124.986 69.7018 124.251C72.2323 123.479 74.9311 124.296 76.8797 126.011C77.9913 126.989 78.8579 128.234 79.3719 129.622C79.4015 129.7 79.5265 129.665 79.497 129.587C78.5765 127.105 76.5289 125.03 73.9968 124.195C72.7429 123.783 71.3969 123.701 70.11 124.005C68.8231 124.308 67.7011 124.922 66.7616 125.786C65.6952 126.766 64.9293 128.063 64.6983 129.499C64.6844 129.58 64.8112 129.617 64.8234 129.533H64.8251Z" fill="#1A1A1A"/>
<path d="M75.9984 127.381C77.155 128.236 77.8931 129.594 77.9817 131.027C77.9869 131.11 78.1172 131.11 78.112 131.027C78.0182 129.542 77.2592 128.153 76.0644 127.268C75.9966 127.218 75.9324 127.331 75.9984 127.381Z" fill="#1A1A1A"/>
<path d="M131.14 120.255C132.116 119.673 133.304 120.233 134.119 120.847C134.862 121.407 135.501 122.102 136.012 122.877C137.01 124.391 137.542 126.209 137.517 128.023C137.504 129.051 137.304 130.069 136.918 131.023C136.887 131.101 137.012 131.134 137.043 131.058C138.473 127.52 137.283 123.122 134.258 120.788C133.391 120.12 132.125 119.515 131.076 120.141C131.005 120.184 131.069 120.297 131.142 120.254L131.14 120.255Z" fill="#1A1A1A"/>
<path d="M135.64 126.436C136.123 128.375 135.533 130.505 134.123 131.922C134.063 131.98 134.156 132.072 134.215 132.013C135.658 130.564 136.26 128.385 135.767 126.401C135.746 126.32 135.621 126.355 135.642 126.436H135.64Z" fill="#1A1A1A"/>
<path d="M144.11 125.673C145.213 125.902 145.836 126.982 145.933 128.038C146.05 129.301 145.379 130.423 144.532 131.306C144.013 131.847 143.426 132.317 142.833 132.775C142.767 132.825 142.859 132.917 142.925 132.867C144.035 132.01 145.194 131.066 145.772 129.754C146.225 128.725 146.185 127.482 145.553 126.531C145.221 126.034 144.735 125.67 144.145 125.548C144.063 125.531 144.028 125.657 144.11 125.673Z" fill="#1A1A1A"/>
<path d="M169.967 126.741C170.926 125.208 172.633 124.202 174.432 124.052C176.209 123.902 177.935 124.662 179.111 125.983C179.773 126.727 180.24 127.629 180.445 128.604C180.462 128.685 180.587 128.651 180.57 128.569C180.198 126.793 178.951 125.253 177.322 124.463C175.658 123.654 173.703 123.753 172.079 124.617C171.172 125.097 170.398 125.805 169.854 126.674C169.809 126.745 169.922 126.811 169.967 126.74V126.741Z" fill="#1A1A1A"/>
<path d="M179.01 128.195C179.229 128.561 179.446 128.925 179.665 129.291C179.708 129.362 179.821 129.298 179.777 129.225C179.559 128.859 179.341 128.495 179.123 128.129C179.079 128.058 178.966 128.122 179.01 128.195Z" fill="#1A1A1A"/>
<path d="M184.712 124.934C186.883 124.877 189.373 126.037 189.759 128.377C189.922 129.369 189.693 130.468 188.998 131.221C188.579 131.673 188.02 131.941 187.43 132.093C186.78 132.261 186.087 132.336 185.417 132.317C184.658 132.294 183.871 132.107 183.288 131.597C182.77 131.146 182.421 130.48 182.517 129.781C182.527 129.7 182.402 129.664 182.391 129.747C182.218 131.028 183.3 132.038 184.462 132.322C185.172 132.497 185.919 132.468 186.638 132.372C187.329 132.28 188.036 132.117 188.619 131.719C189.502 131.117 189.936 130.05 189.939 129.006C189.945 127.858 189.43 126.8 188.559 126.06C187.503 125.161 186.084 124.768 184.713 124.804C184.63 124.806 184.63 124.936 184.713 124.934H184.712Z" fill="#1A1A1A"/>
<path d="M197.38 128.339C198.91 127.086 200.412 125.781 202.02 124.627C203.462 123.592 205.047 122.683 206.801 122.312C208.434 121.967 210.231 122.064 211.711 122.89C212.996 123.606 213.865 124.844 214.193 126.268C214.552 127.83 214.261 129.558 213.245 130.822C213.193 130.886 213.285 130.98 213.337 130.914C215.141 128.668 214.747 125.004 212.458 123.226C211.126 122.192 209.377 121.87 207.727 122.036C205.902 122.222 204.222 123.001 202.705 123.998C200.789 125.255 199.057 126.797 197.289 128.247C197.225 128.3 197.317 128.391 197.381 128.339H197.38Z" fill="#1A1A1A"/>
<path d="M212.378 126.414C213.118 128.59 211.826 131.2 209.639 131.927C209.559 131.953 209.594 132.079 209.674 132.052C211.925 131.304 213.267 128.625 212.505 126.379C212.479 126.301 212.352 126.334 212.38 126.414H212.378Z" fill="#1A1A1A"/>
<path d="M214.125 122.541C215.751 120.507 218.245 119.232 220.838 119.043C221.57 118.989 222.307 119.024 223.031 119.149C223.113 119.163 223.147 119.038 223.066 119.024C220.462 118.578 217.717 119.289 215.626 120.892C215.033 121.346 214.498 121.868 214.033 122.451C213.981 122.515 214.073 122.609 214.125 122.543V122.541Z" fill="#1A1A1A"/>
<path d="M219.855 120.874C220.751 120.332 221.899 120.285 222.835 120.758C222.91 120.796 222.976 120.684 222.901 120.645C221.923 120.151 220.727 120.193 219.789 120.762C219.718 120.805 219.782 120.918 219.855 120.874Z" fill="#1A1A1A"/>
<path d="M224.137 122.151C225.527 122.622 226.423 123.975 226.676 125.373C226.93 126.771 226.562 128.319 225.733 129.504C224.905 130.688 223.517 131.538 222.055 131.826C221.324 131.97 220.565 131.987 219.829 131.868C219.05 131.741 218.245 131.477 217.698 130.883C217.124 130.257 216.867 129.35 217.071 128.522C217.274 127.695 217.845 127.053 218.601 126.727C218.677 126.694 218.611 126.582 218.535 126.615C217.135 127.22 216.491 128.881 217.131 130.265C217.84 131.795 219.743 132.171 221.277 132.062C222.819 131.953 224.339 131.294 225.388 130.146C226.425 129.011 226.984 127.44 226.874 125.905C226.756 124.258 225.801 122.579 224.174 122.028C224.094 122 224.061 122.126 224.139 122.152L224.137 122.151Z" fill="#1A1A1A"/>
<path d="M231.562 128.432C231.954 129.018 231.869 129.852 231.364 130.345C231.303 130.404 231.395 130.496 231.456 130.437C232.001 129.906 232.098 128.999 231.675 128.366C231.628 128.297 231.515 128.363 231.562 128.432Z" fill="#1A1A1A"/>
<path d="M245.105 124.896C244.809 122.435 246.871 119.992 249.354 119.881C249.438 119.877 249.438 119.747 249.354 119.751C247.375 119.839 245.641 121.363 245.108 123.24C244.955 123.779 244.908 124.341 244.974 124.896C244.985 124.978 245.115 124.979 245.105 124.896Z" fill="#1A1A1A"/>
<path d="M248.517 122.12C249.475 121.625 250.432 121.131 251.391 120.637C251.466 120.599 251.4 120.486 251.325 120.524C250.366 121.018 249.409 121.513 248.451 122.007C248.376 122.045 248.442 122.158 248.517 122.12Z" fill="#1A1A1A"/>
<path d="M254.188 129.695C257.415 131.462 261.418 131.635 264.825 130.277C265.775 129.899 266.675 129.402 267.498 128.793C267.564 128.744 267.5 128.63 267.432 128.68C264.518 130.834 260.647 131.545 257.135 130.694C256.13 130.451 255.161 130.078 254.254 129.58C254.181 129.54 254.115 129.653 254.188 129.693V129.695Z" fill="#1A1A1A"/>
<path d="M261.312 120.638C263.088 117.976 266.517 116.736 269.627 117.217C271.232 117.465 272.718 118.185 273.903 119.294C275.091 120.408 275.95 121.847 276.428 123.398C276.975 125.17 277.024 127.09 276.494 128.871C276.47 128.951 276.597 128.985 276.619 128.906C277.573 125.694 276.671 122.015 274.373 119.581C273.243 118.382 271.784 117.538 270.172 117.186C268.606 116.844 266.947 116.943 265.426 117.442C263.722 118.001 262.197 119.072 261.199 120.571C261.152 120.64 261.265 120.706 261.312 120.637V120.638Z" fill="#1A1A1A"/>
<path d="M277.224 124.369C277.861 124.15 278.606 124.305 279.089 124.78C279.572 125.255 279.739 125.996 279.532 126.636C279.506 126.715 279.631 126.75 279.657 126.67C279.879 125.987 279.695 125.194 279.181 124.688C278.667 124.182 277.868 124.012 277.189 124.244C277.111 124.272 277.144 124.397 277.224 124.369Z" fill="#1A1A1A"/>
<path d="M258.921 112.632C259.983 111.995 261.269 111.931 262.452 112.222C263.692 112.527 264.788 113.228 265.769 114.024C266.332 114.48 266.865 114.973 267.398 115.465C267.459 115.523 267.553 115.431 267.49 115.373C265.634 113.656 263.489 111.754 260.774 111.934C260.097 111.979 259.441 112.169 258.857 112.519C258.786 112.562 258.85 112.675 258.923 112.632H258.921Z" fill="#1A1A1A"/>
<path d="M267.112 113.306C268.105 113.958 268.968 114.794 269.649 115.769C269.696 115.837 269.809 115.772 269.762 115.703C269.069 114.711 268.192 113.858 267.178 113.194C267.108 113.147 267.042 113.259 267.112 113.306Z" fill="#1A1A1A"/>
<path d="M276.589 113.398C277.995 112.632 279.706 112.51 281.219 113.03C282.811 113.578 283.992 114.872 284.859 116.27C286.479 118.885 287.012 122.144 286.356 125.144C286.17 125.992 285.894 126.83 285.51 127.61C285.126 128.391 284.583 129.15 283.746 129.478C283.669 129.507 283.702 129.634 283.78 129.603C285.23 129.036 285.89 127.312 286.292 125.931C286.743 124.376 286.865 122.73 286.672 121.122C286.483 119.544 285.995 117.999 285.213 116.612C284.402 115.171 283.259 113.771 281.715 113.086C280.067 112.356 278.108 112.423 276.524 113.285C276.451 113.325 276.516 113.438 276.59 113.398H276.589Z" fill="#1A1A1A"/>
<path d="M286.959 127.752C285.99 130.189 283.315 131.304 281.04 132.187C280.962 132.216 280.997 132.343 281.075 132.312C283.402 131.408 286.094 130.274 287.084 127.787C287.115 127.709 286.988 127.676 286.959 127.752Z" fill="#1A1A1A"/>
<path d="M292.838 123.335C294.309 122.647 295.989 122.746 297.494 123.276C299 123.807 300.523 124.75 301.449 126.058C301.909 126.71 302.211 127.504 302.055 128.309C301.899 129.114 301.331 129.844 300.718 130.388C299.53 131.446 297.889 131.989 296.303 131.809C294.568 131.613 292.972 130.571 292.076 129.079C292.032 129.008 291.919 129.072 291.963 129.145C292.791 130.522 294.198 131.521 295.772 131.852C297.376 132.19 299.092 131.783 300.403 130.808C301.069 130.316 301.678 129.664 302.006 128.895C302.335 128.127 302.274 127.376 301.949 126.658C301.602 125.895 301.003 125.255 300.356 124.733C299.71 124.211 298.945 123.741 298.16 123.396C296.461 122.652 294.495 122.414 292.774 123.219C292.698 123.254 292.764 123.367 292.84 123.332L292.838 123.335Z" fill="#1A1A1A"/>
<path d="M292.882 126.4C293.396 128.302 295.15 129.75 297.116 129.903C297.199 129.91 297.199 129.78 297.116 129.773C295.209 129.624 293.505 128.208 293.007 126.365C292.984 126.283 292.859 126.318 292.882 126.4Z" fill="#1A1A1A"/>
<path d="M305.66 125.822C307.034 125.812 308.649 125.789 309.785 126.689C310.68 127.399 311.244 128.782 310.534 129.806C310.485 129.875 310.598 129.939 310.647 129.872C311.197 129.081 311.016 128.045 310.504 127.282C309.884 126.358 308.835 125.938 307.765 125.786C307.069 125.687 306.364 125.687 305.662 125.692C305.579 125.692 305.579 125.822 305.662 125.822H305.66Z" fill="#1A1A1A"/>
<path d="M307.802 128.731C308.812 129.272 309.234 130.649 308.693 131.66C308.653 131.734 308.765 131.798 308.805 131.726C309.379 130.654 308.941 129.194 307.868 128.618C307.793 128.578 307.729 128.691 307.802 128.731Z" fill="#1A1A1A"/>
<path d="M35.2962 129.062C36.8592 126.696 39.6397 125.252 42.4636 125.193C45.3449 125.132 48.0142 126.644 49.6207 129.005C50.5099 130.312 51.0552 131.849 51.123 133.432C51.1264 133.515 51.2567 133.515 51.2532 133.432C51.1282 130.565 49.4731 127.867 47.0573 126.341C44.5807 124.776 41.4668 124.697 38.8269 125.911C37.3577 126.585 36.0759 127.648 35.185 128.998C35.1381 129.067 35.251 129.133 35.2979 129.063L35.2962 129.062Z" fill="#1A1A1A"/>
<path d="M45.3376 129.195C47.5988 129.646 48.9934 132.444 47.9757 134.516C47.9392 134.59 48.0503 134.656 48.0885 134.582C48.9048 132.92 48.2362 130.81 46.7947 129.716C46.3744 129.396 45.8898 129.174 45.3723 129.072C45.2907 129.057 45.2559 129.181 45.3376 129.197V129.195Z" fill="#1A1A1A"/>
<path d="M30.2067 134.826C32.7266 136.113 35.6444 136.552 38.4353 136.094C39.2376 135.962 40.0244 135.754 40.7868 135.475C40.865 135.447 40.832 135.321 40.7521 135.35C38.1209 136.311 35.2015 136.392 32.5165 135.607C31.7419 135.38 30.9917 135.081 30.2727 134.714C30.198 134.675 30.132 134.788 30.2067 134.826Z" fill="#1A1A1A"/>
</g>
<defs>
<clipPath id="clip0_4196_13374">
<rect width="342" height="136" fill="white"/>
</clipPath>
</defs>
</svg>
